<svg xmlns="http://www.w3.org/2000/svg" viewBox="0 0 10 7.62" id="#book_icon"><path fill="#0000f3" d="M9.35,0H6A1.36,1.36,0,0,0,4.9.55,1.36,1.36,0,0,0,3.83,0H.65A.65.65,0,0,0,0,.65V6a.53.53,0,0,0,.14.39.63.63,0,0,0,.49.15h3.2a.78.78,0,0,1,.78.78.29.29,0,1,0,.59,0A.78.78,0,0,1,6,6.55H9.37a.63.63,0,0,0,.49-.15A.53.53,0,0,0,10,6V.65A.65.65,0,0,0,9.35,0Zm.06,6H6a1.37,1.37,0,0,0-1.07.52A1.37,1.37,0,0,0,3.83,6H.59V.65A.06.06,0,0,1,.65.59H3.83a.81.81,0,0,1,.78.82V3.5a.29.29,0,1,0,.59,0V1.41A.81.81,0,0,1,6,.59H9.35a.06.06,0,0,1,.06.06Z"/><path fill="#0000f3" d="M3.5,1.55h-2a.29.29,0,1,0,0,.59h2a.29.29,0,1,0,0-.59Z"/><path fill="#0000f3" d="M3.5,3h-2a.29.29,0,0,0,0,.59h2A.29.29,0,0,0,3.5,3Z"/><path fill="#0000f3" d="M3.5,4.54h-2a.29.29,0,1,0,0,.59h2a.29.29,0,1,0,0-.59Z"/><path fill="#0000f3" d="M8.41,1.55h-2a.29.29,0,0,0,0,.59h2a.29.29,0,1,0,0-.59Z"/><path fill="#0000f3" d="M8.41,3h-2a.29.29,0,0,0,0,.59h2a.29.29,0,0,0,0-.59Z"/><path fill="#0000f3" d="M8.41,4.54h-2a.29.29,0,1,0,0,.59h2a.29.29,0,1,0,0-.59Z"/></svg>