<svg id="Слой_1" data-name="Слой 1" xmlns="http://www.w3.org/2000/svg" viewBox="0 0 185 164"><defs><style>.cls-1{fill:#0000ed;}</style></defs><title>Монтажная область 1</title><path class="cls-1" d="M26.32,31.58a20.26,20.26,0,0,0,13.78,5,20.14,20.14,0,0,0,14-5c3.51-3,5.76-8,6-14.29H79.72a53.49,53.49,0,0,1-3,15.79,45.19,45.19,0,0,1-8,12.28,39,39,0,0,1-12.53,8.27,48,48,0,0,1-32.08,0,35.39,35.39,0,0,1-12.28-8.27A39.3,39.3,0,0,1,4.06,33.08,46.65,46.65,0,0,1,.72,17.29H20.3Q20.72,26.69,26.32,31.58Z"/><path d="M1.42,106.85V92.94h10.1V95.5H4.28v2.23H7.42A5.48,5.48,0,0,1,11.26,99a4.22,4.22,0,0,1,1.46,3.3,4.27,4.27,0,0,1-1.41,3.3,5.59,5.59,0,0,1-3.86,1.25Zm2.86-2.52H7.2c1.65,0,2.6-.74,2.6-2.09s-1-2.13-2.6-2.13H4.28Z"/><path d="M16.56,106.85V92.94h2.86V102l6.74-9.06h2.46v13.91H25.78V97.72L19,106.84Z"/><path d="M33.59,106.85V92.94H43.72V95.5H36.45v2.23h3.14A5.48,5.48,0,0,1,43.42,99a4.22,4.22,0,0,1,1.43,3.3,4.27,4.27,0,0,1-1.41,3.3,5.59,5.59,0,0,1-3.86,1.25Zm2.86-2.52h2.92c1.65,0,2.6-.74,2.6-2.09s-1-2.13-2.6-2.13H36.45Z"/><path d="M47.79,104.14a3,3,0,0,0,1,.16c.76,0,1.25-.52,1.51-1.53A29.31,29.31,0,0,0,50.77,97l.06-4.07h9.82v13.91H57.81V95.5H53.6l-.08,2.82c-.1,3.24-.46,5.48-1.11,6.74A3.55,3.55,0,0,1,49,106.91a3.09,3.09,0,0,1-1.17-.18Z"/><path d="M66.21,106.85V92.94h2.86V102l6.74-9.06h2.46v13.91H75.43V97.72l-6.82,9.12Z"/><path d="M83.64,94.76a7.27,7.27,0,1,1,0,10.25A7.45,7.45,0,0,1,83.64,94.76Zm5.17,9.68a4,4,0,0,0,3.06-1.29,4.93,4.93,0,0,0,0-6.52,4.31,4.31,0,0,0-6.15,0,5,5,0,0,0,0,6.52,4.09,4.09,0,0,0,3.08,1.29Z"/><path d="M97.92,92.94h11.66V95.5h-4.41v11.35h-2.85V95.5h-4.4Z"/><path d="M113.1,106.85V92.94h10.22V95.5H116v2.68h5.92v2.52H116v3.58h7.57v2.56Z"/><path d="M127.79,106.85V92.94h2.86v5.48l5.13-5.48h3.5l-5.9,6.38,6.92,7.53h-3.66l-6-6.42v6.42Z"/><path d="M141.28,106.85l6-14H150l6,14h-3l-1.37-3.22h-5.88l-1.37,3.22Zm5.27-5.58h4.07l-2-4.83Z"/><path d="M1.42,133.94V120H4.28v9.06L11,120h2.46v13.91H10.64v-9.12l-6.82,9.12Z"/><path d="M18.65,133.94V120h2.86v5.21h6.28V120h2.84v13.91H27.79v-6.1H21.51v6.1Z"/><path d="M36,121.86a7.27,7.27,0,1,1,0,10.25A7.44,7.44,0,0,1,36,121.86Zm5.17,9.68a4,4,0,0,0,3.06-1.29,4.93,4.93,0,0,0,0-6.52,4.3,4.3,0,0,0-6.14,0,5,5,0,0,0,0,6.52,4.09,4.09,0,0,0,3.08,1.29Z"/><path d="M53.16,132.19a7.41,7.41,0,0,1,0-10.41,7.57,7.57,0,0,1,5.41-2,7.73,7.73,0,0,1,3.68.87v2.88a6.43,6.43,0,0,0-3.66-1.07,4.6,4.6,0,0,0-3.32,1.29,4.55,4.55,0,0,0,3.4,7.81,6,6,0,0,0,3.82-1.21v2.88a8.19,8.19,0,0,1-9.34-1Z"/><path d="M65.5,120H77.16v2.56H72.72v11.35H69.89V122.59H65.5Z"/><path d="M80.88,133.94V120H87a5.1,5.1,0,0,1,3.54,1.17,3.83,3.83,0,0,1,1.31,3,3.87,3.87,0,0,1-1.31,3A5.1,5.1,0,0,1,87,128.34H83.72v5.5ZM83.72,126h3c1.37,0,2.19-.62,2.19-1.73s-.81-1.73-2.19-1.73h-3Z"/><path d="M92.18,133.94l6-14h2.74l6,14h-3l-1.37-3.22H96.67l-1.37,3.22Zm5.27-5.58h4.07l-2-4.83Z"/><path d="M109.59,133.94V120h2.86v5.21h6.27V120h2.84v13.91h-2.84v-6.1h-6.28v6.1Z"/><path d="M126.6,133.94V120h2.86v5.21h6.26V120h2.84v13.91h-2.84v-6.1h-6.28v6.1Z"/><path d="M143.94,121.86a7.27,7.27,0,1,1,0,10.25A7.44,7.44,0,0,1,143.94,121.86Zm5.17,9.68a4.05,4.05,0,0,0,3.06-1.29,4.93,4.93,0,0,0,0-6.52,4.3,4.3,0,0,0-6.14,0,5,5,0,0,0,0,6.52,4.09,4.09,0,0,0,3.08,1.29Z"/><path d="M159.66,133.94V120h2.86v9.06l6.74-9.06h2.46v13.91h-2.84v-9.12l-6.82,9.12Zm4.49-18.06a1.38,1.38,0,0,0,1.3,1.45h.21a1.43,1.43,0,0,0,1.55-1.45h2.11a3.64,3.64,0,0,1-7.27,0Z"/><path d="M0,158.33a3,3,0,0,0,1,.16c.76,0,1.25-.52,1.51-1.53A29.31,29.31,0,0,0,3,151.2l.06-4.07h9.82V161H10V149.69H5.83l-.11,2.82c-.1,3.24-.46,5.48-1.11,6.74a3.55,3.55,0,0,1-3.44,1.85A3.09,3.09,0,0,1,0,160.92Z"/><path d="M18,161V147.12h2.86v9.06l6.74-9.06H30V161H27.17v-9.12L20.35,161Z"/><path d="M33.65,147.12H45.31v2.56H40.9V161H38V149.69H33.65Z"/><path d="M48.89,161V147.12H59.1v2.56H51.72v2.68h5.92v2.52H51.72v3.58h7.6V161Z"/><path d="M63.79,161V147.12h6.08a5.1,5.1,0,0,1,3.54,1.17,3.83,3.83,0,0,1,1.31,3,3.87,3.87,0,0,1-1.31,3,5.1,5.1,0,0,1-3.54,1.17H66.65V161Zm2.86-7.95h3c1.37,0,2.19-.62,2.19-1.73s-.81-1.73-2.19-1.73h-3Z"/><path d="M75.15,161l6-14h2.74l6,14h-3l-1.37-3.22h-6L78.15,161Zm5.27-5.58h4.07l-2-4.83Z"/><path d="M90.12,147.12h11.66v2.56H97.37V161H94.51V149.69H90.12Z"/><path d="M105.28,160.92V158.4a3.22,3.22,0,0,0,1.61.38,2.27,2.27,0,0,0,1.39-.4,4.52,4.52,0,0,0,1.07-1.53l-5.27-9.72h3.16l3.48,6.87,3.08-6.84h3L111.72,158c-1,2.21-2.48,3.3-4.37,3.3A4.29,4.29,0,0,1,105.28,160.92Z"/><path d="M119.6,161V147.12h6.12a5.1,5.1,0,0,1,3.54,1.17,3.83,3.83,0,0,1,1.31,3,3.87,3.87,0,0,1-1.31,3,5.1,5.1,0,0,1-3.54,1.17H122.5V161Zm2.86-7.95h3c1.37,0,2.19-.62,2.19-1.73s-.81-1.73-2.19-1.73h-3Z"/><path d="M133.63,161V147.12h2.86v4.59h2.58A5.67,5.67,0,0,1,143,153a4.61,4.61,0,0,1,.2,6.52l-.2.2a5.76,5.76,0,0,1-3.93,1.29Zm2.86-2.52h2.42c1.67,0,2.66-.79,2.66-2.17s-1-2.21-2.66-2.21h-2.42Zm9.64,2.52V147.12H149V161Z"/></svg>