<svg id="breve-icon" data-name="breve-icon" xmlns="http://www.w3.org/2000/svg" viewBox="0 0 28.35 14.04"><defs><style>.cls-1{fill:#0000f3;}</style></defs><title>breve-icon</title><path class="cls-1" d="M9.18 5.13a7.27 7.27 0 0 0 5 1.8 6.72 6.72 0 0 0 4.95-1.8A6.41 6.41 0 0 0 21.33 0h7a16.6 16.6 0 0 1-1.17 5.67 12.88 12.88 0 0 1-2.87 4.41 12.78 12.78 0 0 1-4.41 3 16.84 16.84 0 0 1-5.76 1 16.78 16.78 0 0 1-5.76-1 12.72 12.72 0 0 1-4.41-3 16.13 16.13 0 0 1-2.87-4.41A19.17 19.17 0 0 1 0 0h7a6.8 6.8 0 0 0 2.18 5.13z"/></svg>