<svg id="libfl-icons" xmlns="http://www.w3.org/2000/svg" viewBox="0 0 31.71 35.5"><defs><style>.cls-1{fill:#060606;}.cls-1,.cls-2{fill-rule:evenodd;}.cls-2{fill:#0000f3;}</style></defs><title>calendar</title><path class="cls-1" d="M24.61,35.5H7.1A7.1,7.1,0,0,1,0,28.4v-18a7.1,7.1,0,0,1,7.1-7.1H8V1.89a1.89,1.89,0,0,1,3.79,0V3.31h7.57V1.89a1.89,1.89,0,0,1,3.79,0V3.31h1.42a7.1,7.1,0,0,1,7.1,7.1v18A7.1,7.1,0,0,1,24.61,35.5Zm3.55-23.9a4.73,4.73,0,0,0-4.73-4.73h-.24V8a1.89,1.89,0,0,1-3.79,0V6.86H11.83V8A1.89,1.89,0,0,1,8,8V6.88a4.73,4.73,0,0,0-4.5,4.72V27.22A4.73,4.73,0,0,0,8.28,32H23.43a4.73,4.73,0,0,0,4.73-4.73Z"/><path class="cls-2" d="M10.06,23.89h0a2,2,0,0,1,2,2h0a2,2,0,0,1-2,2h0a2,2,0,0,1-2-2H8A2,2,0,0,1,10.06,23.89Z"/><path class="cls-2" d="M15.85,23.89h0a2,2,0,0,1,2,2h0a2,2,0,0,1-2,2h0a2,2,0,0,1-2-2h0A2,2,0,0,1,15.85,23.89Z"/><path class="cls-2" d="M21.64,23.89h0a2,2,0,0,1,2,2h0a2,2,0,0,1-2,2h0a2,2,0,0,1-2-2h0A2,2,0,0,1,21.64,23.89Z"/><path class="cls-2" d="M10.06,18.46h0a2,2,0,0,1,2,2h0a2,2,0,0,1-2,2h0a2,2,0,0,1-2-2H8A2,2,0,0,1,10.06,18.46Z"/><path class="cls-2" d="M15.85,18.46h0a2,2,0,0,1,2,2h0a2,2,0,0,1-2,2h0a2,2,0,0,1-2-2h0A2,2,0,0,1,15.85,18.46Z"/><path class="cls-2" d="M21.64,18.46h0a2,2,0,0,1,2,2h0a2,2,0,0,1-2,2h0a2,2,0,0,1-2-2h0A2,2,0,0,1,21.64,18.46Z"/><path class="cls-2" d="M10.06,12.78h0a2,2,0,0,1,0,4h0a2,2,0,1,1,0-4Z"/><path class="cls-2" d="M15.85,12.78h0a2,2,0,1,1,0,4h0a2,2,0,1,1,0-4Z"/><path class="cls-2" d="M21.64,12.78h0a2,2,0,0,1,0,4h0a2,2,0,1,1,0-4Z"/></svg>