<svg id="libfl-icons" xmlns="http://www.w3.org/2000/svg" xmlns:xlink="http://www.w3.org/1999/xlink" viewBox="0 0 22 15.02"><defs><style>.cls-1{fill:none;clip-rule:evenodd;}.cls-2{clip-path:url(#clip-path);}.cls-3{fill:#0000f3;}.cls-3,.cls-4{fill-rule:evenodd;}.cls-4{fill:#000105;}</style><clipPath id="clip-path"><path class="cls-1" d="M11,3.38c7.87.09,9.62,3,9.62,6.06S16.33,15,11,15,1.4,12.52,1.4,9.44,3,3.29,11,3.38Z"/></clipPath></defs><title>eye</title><g class="cls-2"><path class="cls-3" d="M11,4A2,2,0,1,1,9,6,2,2,0,0,1,11,4Z"/><path class="cls-3" d="M11-1A6.78,6.78,0,1,1,4.28,5.8,6.76,6.76,0,0,1,11-1Zm0,3A4,4,0,1,1,7,6,4,4,0,0,1,11,2Z"/></g><path class="cls-4" d="M1.69,2.15a20.05,20.05,0,0,1,9-2.14,24.09,24.09,0,0,1,9.57,2.14c.9.55,1.69,1.2,1.69,2.15A1.7,1.7,0,0,1,20.31,6s-5.25-2.55-9.48-2.57C6.33,3.41,1.69,6,1.69,6A1.7,1.7,0,0,1,0,4.29C0,3.34.75,2.82,1.69,2.15Z"/></svg>