<svg id="Слой_1" data-name="Слой 1" xmlns="http://www.w3.org/2000/svg" viewBox="0 0 16 16"><defs><style>.cls-1{fill:#a4a4a4;}</style></defs><title>in-grey-icon</title><path class="cls-1" d="M12.91,0H3.09A3.1,3.1,0,0,0,0,3.09v9.82A3.1,3.1,0,0,0,3.09,16h9.82A3.1,3.1,0,0,0,16,12.91V3.09A3.1,3.1,0,0,0,12.91,0Zm.89,1.84h.35V4.55h-2.7V1.85ZM5.72,6.36A2.81,2.81,0,1,1,5.18,8,2.82,2.82,0,0,1,5.72,6.36Zm8.72,6.55a1.53,1.53,0,0,1-1.53,1.53H3.09a1.53,1.53,0,0,1-1.53-1.53V6.36H3.95a4.38,4.38,0,1,0,8.1,0h2.39Z"/></svg>