<svg id="Isolation_Mode" data-name="Isolation Mode" xmlns="http://www.w3.org/2000/svg" xmlns:xlink="http://www.w3.org/1999/xlink" viewBox="0 0 38 38"><defs><style>.cls-1{fill:url(#radial-gradient);}.cls-2{fill:#fff;}</style><radialGradient id="radial-gradient" cx="-0.19" cy="719.64" r="0.06" gradientTransform="matrix(646.8, 0, 0, -646.8, 122.49, 465475.53)" gradientUnits="userSpaceOnUse"><stop offset="0" stop-color="#f4d67b"/><stop offset="0.25" stop-color="#dfa459"/><stop offset="0.38" stop-color="#d35c40"/><stop offset="0.7" stop-color="#a83283"/><stop offset="0.99" stop-color="#616caf"/><stop offset="1" stop-color="#616caf"/></radialGradient></defs><title>Artboard 1</title><rect class="cls-1" x="-5.49" y="-5.51" width="48.97" height="49.02" transform="translate(-5.14 30.81) rotate(-71.06)"/><g id="_Группа_" data-name="&lt;Группа&gt;"><path id="_Составной_контур_" data-name="&lt;Составной контур&gt;" class="cls-2" d="M26.58,13.76a4.08,4.08,0,0,0-2.34-2.34A5.84,5.84,0,0,0,22.3,11c-.85,0-1.13,0-3.3,0s-2.45,0-3.3,0a5.8,5.8,0,0,0-1.94.37,4.08,4.08,0,0,0-2.34,2.34A5.84,5.84,0,0,0,11,15.7c0,.85,0,1.13,0,3.3s0,2.45,0,3.3a5.8,5.8,0,0,0,.37,1.94,4.08,4.08,0,0,0,2.34,2.34A5.84,5.84,0,0,0,15.7,27c.85,0,1.13,0,3.3,0s2.45,0,3.3,0a5.8,5.8,0,0,0,1.94-.37,4.08,4.08,0,0,0,2.34-2.34A5.84,5.84,0,0,0,27,22.3c0-.85,0-1.13,0-3.3s0-2.45,0-3.3A5.81,5.81,0,0,0,26.58,13.76Zm-1.07,8.48a4.37,4.37,0,0,1-.28,1.48,2.48,2.48,0,0,1-.6.92,2.51,2.51,0,0,1-.92.6,4.41,4.41,0,0,1-1.48.28c-.85,0-1.09,0-3.23,0s-2.39,0-3.23,0a4.37,4.37,0,0,1-1.48-.28,2.48,2.48,0,0,1-.92-.6,2.51,2.51,0,0,1-.6-.92,4.41,4.41,0,0,1-.28-1.48c0-.85,0-1.1,0-3.23s0-2.39,0-3.23a4.37,4.37,0,0,1,.28-1.48,2.48,2.48,0,0,1,.6-.92,2.5,2.5,0,0,1,.92-.6,4.41,4.41,0,0,1,1.48-.28c.85,0,1.1,0,3.23,0s2.39,0,3.23,0a4.37,4.37,0,0,1,1.48.28,2.48,2.48,0,0,1,.92.6,2.5,2.5,0,0,1,.6.92,4.41,4.41,0,0,1,.28,1.48c0,.85,0,1.1,0,3.23S25.55,21.39,25.51,22.23Z"/><path id="_Составной_контур_2" data-name="&lt;Составной контур&gt;" class="cls-2" d="M19,14.89A4.11,4.11,0,1,0,23.11,19,4.11,4.11,0,0,0,19,14.89Zm0,6.78A2.67,2.67,0,1,1,21.66,19,2.67,2.67,0,0,1,19,21.67Z"/><circle id="_Контур_" data-name="&lt;Контур&gt;" class="cls-2" cx="23.27" cy="14.73" r="0.96"/></g></svg>