<?xml version="1.0" encoding="utf-8"?>
<!-- Generator: Adobe Illustrator 21.0.0, SVG Export Plug-In . SVG Version: 6.00 Build 0)  -->
<svg version="1.1" id="Слой_1" xmlns="http://www.w3.org/2000/svg" xmlns:xlink="http://www.w3.org/1999/xlink" x="0px" y="0px"
	 viewBox="0 0 18 17.9" style="enable-background:new 0 0 18 17.9;" xml:space="preserve">
<style type="text/css">
	.st0{clip-path:url(#SVGID_2_);}
	.st1{clip-path:url(#SVGID_4_);}
	.st2{clip-path:url(#SVGID_6_);}
</style>
<g>
	<defs>
		<path id="SVGID_1_" d="M13.5,1.6c0.6,0,1,0.5,1,1s-0.5,1-1,1c-0.6,0-1-0.5-1-1S12.9,1.6,13.5,1.6z M0.8,3.5h10.1
			c0.3,1.1,1.4,1.9,2.5,1.9s2.2-0.8,2.5-1.9h1.2c0.5,0,0.8-0.4,0.8-0.8s-0.4-0.8-0.8-0.8H16C15.7,0.8,14.7,0,13.5,0
			s-2.2,0.8-2.6,1.9H0.8C0.4,1.9,0,2.2,0,2.7S0.4,3.5,0.8,3.5z"/>
	</defs>
	<clipPath id="SVGID_2_">
		<use xlink:href="#SVGID_1_"  style="overflow:visible;"/>
	</clipPath>
	<rect x="-5" y="-5" class="st0" width="28" height="15.4"/>
</g>
<g>
	<defs>
		<path id="SVGID_3_" d="M4.5,10c-0.6,0-1-0.5-1-1c0-0.6,0.5-1,1-1s1,0.5,1,1C5.6,9.5,5.1,10,4.5,10z M17.2,8.1H7.1
			C6.7,7,5.7,6.3,4.5,6.3S2.3,7,2,8.1H0.8C0.4,8.1,0,8.5,0,9s0.4,0.8,0.8,0.8H2c0.3,1.1,1.4,1.9,2.5,1.9s2.2-0.8,2.5-1.9h1.1
			c0,0,0,0,0,0h8.9C17.6,9.8,18,9.4,18,9c0,0,0,0,0,0s0,0,0,0C18,8.5,17.6,8.1,17.2,8.1z"/>
	</defs>
	<clipPath id="SVGID_4_">
		<use xlink:href="#SVGID_3_"  style="overflow:visible;"/>
	</clipPath>
	<rect x="-5" y="1.3" class="st1" width="28" height="15.4"/>
</g>
<g>
	<defs>
		<path id="SVGID_5_" d="M10.1,16.3c-0.6,0-1-0.5-1-1c0-0.6,0.5-1,1-1c0.6,0,1,0.5,1,1C11.2,15.9,10.7,16.3,10.1,16.3z M17.2,14.4
			h-4.5c-0.3-1.1-1.4-1.9-2.5-1.9c-1.2,0-2.2,0.8-2.5,1.9H0.8c-0.5,0-0.8,0.4-0.8,0.8S0.4,16,0.8,16h6.7c0.3,1.1,1.4,1.9,2.5,1.9
			c1.2,0,2.2-0.8,2.5-1.9h4.5c0.5,0,0.8-0.4,0.8-0.8S17.6,14.4,17.2,14.4z"/>
	</defs>
	<clipPath id="SVGID_6_">
		<use xlink:href="#SVGID_5_"  style="overflow:visible;"/>
	</clipPath>
	<rect x="-5" y="7.6" class="st2" width="28" height="15.4"/>
</g>
</svg>
