<svg id="Слой_1" data-name="Слой 1" xmlns="http://www.w3.org/2000/svg" viewBox="0 0 28.35 27.75"><defs><style>.cls-1{fill:#0000f3;}</style></defs><title>Монтажная область 1 копия 2</title><path class="cls-1" d="M19.85 1a14.27 14.27 0 0 1 4.51 2.9 15.16 15.16 0 0 1 2.94 4.34 13.83 13.83 0 0 1 1 5.46 13.86 13.86 0 0 1-1 5.46 17 17 0 0 1-2.94 4.42 14.27 14.27 0 0 1-4.51 2.86 15.16 15.16 0 0 1-5.63 1 15.19 15.19 0 0 1-5.63-1 14.23 14.23 0 0 1-4.5-2.86 12.33 12.33 0 0 1-3-4.33A12.92 12.92 0 0 1 0 13.7a12.51 12.51 0 0 1 1.13-5.46 12.29 12.29 0 0 1 3-4.33A14.23 14.23 0 0 1 8.58 1a15.12 15.12 0 0 1 5.63-1 15.09 15.09 0 0 1 5.64 1zM9 8.58a6.91 6.91 0 0 0-1.89 5.12 6.84 6.84 0 0 0 7.11 7.2 6.88 6.88 0 0 0 5.12-2 7 7 0 0 0 1.91-5.2 7.29 7.29 0 0 0-1.91-5.11 7.15 7.15 0 0 0-5.12-2A7 7 0 0 0 9 8.58z"/></svg>