<svg id="Слой_1" data-name="Слой 1" xmlns="http://www.w3.org/2000/svg" viewBox="0 0 185 164"><defs><style>.cls-1{fill:#0000ed;}</style></defs><title>Монтажная область 1</title><path d="M1.4,106.8V92.9H11.5v2.6H4.3v2.2H7.4A5.2,5.2,0,0,1,11.2,99a4.13,4.13,0,0,1,1.5,3.3,4.37,4.37,0,0,1-1.4,3.3,5.51,5.51,0,0,1-3.9,1.2Zm2.9-2.5H7.2c1.6,0,2.6-.7,2.6-2.1s-1-2.1-2.6-2.1H4.3Z"/><path d="M16.5,106.8V92.9h2.9V102l6.7-9.1h2.5v13.9H25.8V97.7L19,106.8Z"/><path d="M33.6,106.8V92.9H43.7v2.6H36.4v2.2h3.1A5.2,5.2,0,0,1,43.3,99a4,4,0,0,1,1.4,3.3,4.37,4.37,0,0,1-1.4,3.3,5.51,5.51,0,0,1-3.9,1.2Zm2.8-2.5h2.9c1.7,0,2.6-.7,2.6-2.1s-1-2.1-2.6-2.1H36.4Z"/><path d="M47.8,104.1a3.55,3.55,0,0,0,1,.2c.8,0,1.2-.5,1.5-1.5a36.79,36.79,0,0,0,.5-5.8l.1-4.1h9.8v13.9H57.9V95.5H53.7l-.1,2.8c-.1,3.2-.5,5.5-1.1,6.7a3.45,3.45,0,0,1-3.4,1.8,2.54,2.54,0,0,1-1.2-.2Z"/><path d="M66.2,106.8V92.9h2.9V102l6.7-9.1h2.5v13.9H75.5V97.7l-6.8,9.1Z"/><path d="M83.6,94.8a7.28,7.28,0,0,1,10.3,10.3,7.18,7.18,0,0,1-10.3,0h0A7.56,7.56,0,0,1,83.6,94.8Zm5.2,9.6a4,4,0,0,0,3.1-1.3,5,5,0,0,0,0-6.5,4.38,4.38,0,0,0-6.1-.1l-.1.1a5,5,0,0,0,0,6.5,3.7,3.7,0,0,0,3.1,1.3Z"/><path d="M97.9,92.9h11.7v2.6h-4.4v11.3h-2.8V95.5H98V92.9Z"/><path d="M113.1,106.8V92.9h10.2v2.6h-7.4v2.7h5.9v2.5h-5.9v3.6h7.6v2.6Z"/><path d="M127.8,106.8V92.9h2.9v5.5l5.1-5.5h3.5l-5.9,6.4,6.9,7.5h-3.7l-6-6.4v6.4Z"/><path d="M141.3,106.8l6-14H150l6,14h-3l-1.4-3.2h-5.9l-1.4,3.2Zm5.2-5.5h4.1l-2-4.8Z"/><path d="M1.4,133.9V120H4.3v9.1L11,120h2.5v13.9H10.7v-9.1l-6.8,9.1Z"/><path d="M18.6,133.9V120h2.9v5.2h6.3V120h2.8v13.9H27.8v-6.1H21.5v6.1Z"/><path d="M36,121.9a7.28,7.28,0,0,1,10.3,10.3,7.18,7.18,0,0,1-10.3,0h0A7.36,7.36,0,0,1,36,121.9Zm5.1,9.6a4,4,0,0,0,3.1-1.3,5,5,0,0,0,0-6.5,4.38,4.38,0,0,0-6.1-.1l-.1.1a5,5,0,0,0,0,6.5A4,4,0,0,0,41.1,131.5Z"/><path d="M53.1,132.2a7.49,7.49,0,0,1,0-10.4,7.29,7.29,0,0,1,5.4-2,8.08,8.08,0,0,1,3.7.9v2.9a7,7,0,0,0-3.7-1.1,4.6,4.6,0,0,0-3.3,1.3,4.56,4.56,0,0,0-.1,6.4,5,5,0,0,0,3.5,1.4,6.36,6.36,0,0,0,3.8-1.2v2.9a8.21,8.21,0,0,1-9.3-1.1Z"/><path d="M65.5,120H77.2v2.6H72.7V134H69.9V122.7H65.5Z"/><path d="M80.9,133.9V120H87a4.57,4.57,0,0,1,3.5,1.2,4,4,0,0,1,1.3,3,4.34,4.34,0,0,1-1.3,3,5.71,5.71,0,0,1-3.5,1.2H83.7v5.5Zm2.8-7.9h3c1.4,0,2.2-.6,2.2-1.7s-.8-1.7-2.2-1.7h-3Z"/><path d="M92.2,133.9l6-14h2.7l6,14h-3l-1.4-3.2H96.6l-1.4,3.2Zm5.2-5.5h4.1l-2-4.8Z"/><path d="M109.6,133.9V120h2.9v5.2h6.3V120h2.8v13.9h-2.9v-6.1h-6.3v6.1Z"/><path d="M126.6,133.9V120h2.9v5.2h6.3V120h2.8v13.9h-2.9v-6.1h-6.3v6.1Z"/><path d="M143.9,121.9a7.28,7.28,0,0,1,10.3,10.3,7.18,7.18,0,0,1-10.3,0h0A7.56,7.56,0,0,1,143.9,121.9Zm5.2,9.6a4,4,0,0,0,3.1-1.3,5,5,0,0,0,0-6.5,4.38,4.38,0,0,0-6.1-.1l-.1.1a5,5,0,0,0,0,6.5A3.7,3.7,0,0,0,149.1,131.5Z"/><path d="M159.6,133.9V120h2.9v9.1l6.7-9.1h2.5v13.9h-2.8v-9.1l-6.8,9.1Zm4.5-18a1.29,1.29,0,0,0,1.3,1.4h.2a1.32,1.32,0,0,0,1.5-1.3v-.1h2.1a3.61,3.61,0,0,1-7.2,0Z"/><path d="M0,158.3a3.55,3.55,0,0,0,1,.2c.8,0,1.2-.5,1.5-1.5a36.79,36.79,0,0,0,.5-5.8l.1-4.1h9.8V161H10.1V149.7H5.9l-.1,2.8c-.1,3.2-.5,5.5-1.1,6.7a3.7,3.7,0,0,1-3.4,1.9,2.54,2.54,0,0,1-1.2-.2Z"/><path d="M17.9,161V147.1h2.9v9.1l6.7-9.1H30V161H27.2v-9.1L20.4,161Z"/><path d="M33.6,147.1H45.3v2.6H40.9V161H38V149.7H33.6Z"/><path d="M48.9,161V147.1H59.1v2.6H51.7v2.7h5.9v2.5H51.7v3.6h7.6V161H48.9Z"/><path d="M63.8,161V147.1h6.1a4.57,4.57,0,0,1,3.5,1.2,4,4,0,0,1,1.3,3,4.34,4.34,0,0,1-1.3,3,5.71,5.71,0,0,1-3.5,1.2H66.7V161Zm2.8-7.9h3c1.4,0,2.2-.6,2.2-1.7s-.8-1.7-2.2-1.7h-3Z"/><path d="M75.1,161l6-14h2.7l6,14h-3l-1.4-3.2h-6L78,161Zm5.3-5.6h4.1l-2-4.8Z"/><path d="M90.1,147.1h11.7v2.6H97.4V161H94.5V149.7H90.1Z"/><path d="M105.3,160.9v-2.5a2.93,2.93,0,0,0,1.6.4,2.3,2.3,0,0,0,1.4-.4,5.27,5.27,0,0,0,1.1-1.5l-5.3-9.7h3.2l3.5,6.9,3.1-6.8h3L111.7,158c-1,2.2-2.5,3.3-4.4,3.3A4.48,4.48,0,0,1,105.3,160.9Z"/><path d="M119.6,161V147.1h6.1a4.57,4.57,0,0,1,3.5,1.2,4,4,0,0,1,1.3,3,4.34,4.34,0,0,1-1.3,3,5.71,5.71,0,0,1-3.5,1.2h-3.2V161Zm2.8-7.9h3c1.4,0,2.2-.6,2.2-1.7s-.8-1.7-2.2-1.7h-3Z"/><path d="M133.6,161V147.1h2.9v4.6h2.6A5.59,5.59,0,0,1,143,153a4.59,4.59,0,0,1,.2,6.5h0l-.2.2a5.59,5.59,0,0,1-3.9,1.3Zm2.9-2.5h2.4c1.7,0,2.7-.8,2.7-2.2s-1-2.2-2.7-2.2h-2.4Zm9.6,2.5V147.1H149V161Z"/><path class="cls-1" d="M13.8,27.1a31,31,0,0,1,18.6-5.5,27.72,27.72,0,0,1,10.6,2,65.22,65.22,0,0,1,8.3,4.3c2.5,1.5,5,3,7.5,4.3a19.73,19.73,0,0,0,8.6,2c4.3,0,7.8-.8,10.6-2.5a17.77,17.77,0,0,0,6.8-6.8L97.9,36.7a30,30,0,0,1-12,14.1,32,32,0,0,1-17.2,4.8,30.49,30.49,0,0,1-11.6-2,57.52,57.52,0,0,1-8.6-4.3,70.69,70.69,0,0,0-8-4.5,20.6,20.6,0,0,0-8.8-2,22.05,22.05,0,0,0-11.3,2.8,28.93,28.93,0,0,0-7.5,7.3L.7,42A39.17,39.17,0,0,1,13.8,27.1Z"/></svg>