<svg id="Слой_1" data-name="Слой 1" xmlns="http://www.w3.org/2000/svg" viewBox="0 0 28.35 9.98"><defs><style>.cls-1{fill:#0000f3;}</style></defs><title>Монтажная область 1</title><path class="cls-1" d="M8.7 1.37A4.68 4.68 0 0 1 10.23 5 4.69 4.69 0 0 1 8.7 8.62 5.19 5.19 0 0 1 5.08 10a5.48 5.48 0 0 1-3.63-1.38A4.92 4.92 0 0 1 0 5a4.92 4.92 0 0 1 1.45-3.63A5.48 5.48 0 0 1 5.08 0 5.19 5.19 0 0 1 8.7 1.37zm18.2 0A4.91 4.91 0 0 1 28.35 5a4.92 4.92 0 0 1-1.45 3.62 5.48 5.48 0 0 1-7.25 0A4.92 4.92 0 0 1 18.2 5a4.91 4.91 0 0 1 1.45-3.62 5.48 5.48 0 0 1 7.25 0z"/></svg>