<svg id="Слой_1" data-name="Слой 1" xmlns="http://www.w3.org/2000/svg" viewBox="0 0 16 9.01"><defs><style>.cls-1{fill:#a4a4a4;}</style></defs><title>vk-grey-icon</title><path class="cls-1" d="M8.56,0a1.07,1.07,0,0,1,.57.14A.52.52,0,0,1,9.4.65c0,1.14,0,2.13,0,3.29a.33.33,0,0,0,.33.34.7.7,0,0,0,.45-.22,13.73,13.73,0,0,0,2-3.38c.18-.4.48-.37.81-.37l2.6,0A.51.51,0,0,1,16,.62a.93.93,0,0,1-.17.8C15,2.68,14.3,3.7,13.43,4.9a.45.45,0,0,0-.1.26.36.36,0,0,0,.1.23C14.21,6.21,15,7,15.8,7.92a.74.74,0,0,1,0,.78c0,.09-.27.31-.41.31H12.62A.75.75,0,0,1,12,8.73L10.44,7.09a.5.5,0,0,0-.54-.17c-.18.08-.51.2-.51.53V8.6c0,.21-.33.36-.52.36H7.34a4.11,4.11,0,0,1-1.69-.34A7.49,7.49,0,0,1,2.3,5.21C1.48,3.78.76,2.37,0,.89,0,.73-.09.36.5.36H2.66a.94.94,0,0,1,.57.14A.82.82,0,0,1,3.47.8a18.51,18.51,0,0,0,2,3.43.33.33,0,0,0,.28.12.42.42,0,0,0,.28-.08.56.56,0,0,0,.22-.5V1.54A1,1,0,0,0,5.91.79C5.71.67,5.38.56,5.39.42S5.76,0,6.4,0H8.56Z"/></svg>