<?xml version="1.0" encoding="UTF-8" standalone="no"?>
<svg width="28px" height="20px" viewBox="0 0 28 20" version="1.1" xmlns="http://www.w3.org/2000/svg" xmlns:xlink="http://www.w3.org/1999/xlink">
    <!-- Generator: Sketch 39 (31667) - http://www.bohemiancoding.com/sketch -->
    <title>youtube_icon</title>
    <desc>Created with Sketch.</desc>
    <defs></defs>
    <g id="Page-1" stroke="none" stroke-width="1" fill="none" fill-rule="evenodd">
        <g id="youtube_icon" fill="#a2a4a4">
            <g id="Capa_1">
                <path d="M14.5501245,19.9184232 C14.5495436,19.9184232 14.5501245,19.9184232 14.5501245,19.9184232 C11.3921992,19.9184232 7.95419087,19.8186722 4.33228216,19.6234855 C2.19253112,19.5061411 0.532697095,17.8565145 0.296431535,15.6111203 C-0.0987551867,11.860083 -0.0987551867,8.073361 0.296431535,4.35593361 C0.53219917,2.12921162 2.18979253,0.479585062 4.32746888,0.345145228 C10.5740249,-0.047966805 17.0014108,-0.047966805 23.4404979,0.345145228 C25.6032365,0.476348548 27.2235685,2.08705394 27.4736929,4.35377593 C27.8678008,7.9426556 27.8683817,11.7288797 27.4741909,15.6095436 C27.246473,17.853361 25.6277178,19.4661411 23.44639,19.6224896 C20.7012448,19.8186722 17.7080498,19.9184232 14.5501245,19.9184232 L14.5501245,19.9184232 Z M13.8114523,1.11634855 C10.6636515,1.11634855 7.49502075,1.21551867 4.39360996,1.41020747 C2.76,1.51261411 1.53966805,2.7419917 1.35676349,4.46838174 C0.969543568,8.11112033 0.969543568,11.8221577 1.35676349,15.4995851 C1.53966805,17.239917 2.75842324,18.4687137 4.38937759,18.5583402 C7.99211618,18.7524481 11.4108714,18.8517012 14.5491286,18.8517012 C17.6819917,18.8517012 20.6495436,18.753029 23.3696266,18.5589212 C25.0155187,18.4404979 26.2385062,17.2121992 26.4118672,15.5017427 C26.7990871,11.6957676 26.7990871,7.98473029 26.4123651,4.47053942 C26.2219917,2.73875519 25.0011618,1.50887967 23.3755187,1.41020747 C20.1780083,1.21502075 16.959751,1.11634855 13.8114523,1.11634855 L13.8114523,1.11634855 Z M11.1681328,6.20605809 L11.1681328,13.5262241 L18.1976763,9.89095436 L11.1681328,6.20605809 L11.1681328,6.20605809 Z" id="Shape"></path>
            </g>
        </g>
    </g>
</svg>