<svg id="Слой_1" data-name="Слой 1" xmlns="http://www.w3.org/2000/svg" viewBox="0 0 16 15.65"><defs><style>.cls-1{fill:#fff;}</style></defs><title>yt-icon</title><g id="_Группа_" data-name="&lt;Группа&gt;"><path id="_Составной_контур_" data-name="&lt;Составной контур&gt;" class="cls-1" d="M15.38,3.47c-.58-.69-1.64-1-3.68-1H4.3c-2.08,0-3.17.3-3.74,1S0,5.29,0,6.75V9.52c0,2.82.67,4.25,4.3,4.25H11.7c1.77,0,2.74-.25,3.38-.85S16,11.27,16,9.52V6.75C16,5.21,16,4.16,15.38,3.47Zm-5.1,5L6.92,10.27a.52.52,0,0,1-.76-.46V6.31a.52.52,0,0,1,.75-.46L10.27,7.6a.52.52,0,0,1,0,.92Z"/></g></svg>