<?xml version="1.0" encoding="utf-8"?>
<!-- Generator: Adobe Illustrator 21.0.0, SVG Export Plug-In . SVG Version: 6.00 Build 0)  -->
<svg version="1.1" id="Слой_1" xmlns="http://www.w3.org/2000/svg" xmlns:xlink="http://www.w3.org/1999/xlink" x="0px" y="0px"
	 viewBox="0 0 30 19" style="enable-background:new 0 0 30 19;" xml:space="preserve">
<style type="text/css">
	.st0{clip-path:url(#SVGID_2_);fill:#B3B8BE;}
</style>
<g>
	<defs>
		<path id="SVGID_1_" d="M22.8,10.4l-7.5,3c-0.2,0.1-0.5,0.1-0.7,0l-7.5-3v4c0-0.1,0,0.1,0.3,0.3c0.3,0.3,0.9,0.6,1.6,0.9
			c1.5,0.6,3.5,1,5.9,1s4.4-0.5,5.9-1c0.7-0.3,1.3-0.6,1.6-0.9c0.2-0.2,0.3-0.4,0.3-0.4V10.4z M15,2.4L3.6,6.9L15,11.4l11.4-4.5
			L15,2.4z M15.4,0.4l14,5.5C29.7,6.1,30,6.5,30,6.9c0,0.4-0.3,0.8-0.6,0.9l-1,0.4v3.6c0.4,0.3,0.7,0.8,0.7,1.3
			c0,0.9-0.7,1.6-1.6,1.6c-0.9,0-1.6-0.7-1.6-1.6c0-0.5,0.3-1,0.7-1.3V9l-1.6,0.6v4.8c0,0.8-0.5,1.4-1,1.8c-0.6,0.5-1.3,0.9-2.1,1.2
			c-1.7,0.7-4,1.2-6.6,1.2s-4.9-0.5-6.6-1.2c-0.9-0.3-1.6-0.7-2.1-1.2c-0.6-0.5-1-1-1-1.8V9.6L0.6,7.8C0.3,7.7,0,7.3,0,6.9
			C0,6.5,0.3,6.1,0.6,6l14-5.5C14.9,0.3,15.2,0.4,15.4,0.4z"/>
	</defs>
	<clipPath id="SVGID_2_">
		<use xlink:href="#SVGID_1_"  style="overflow:visible;"/>
	</clipPath>
	<rect x="-6.2" y="-5.9" class="st0" width="42.5" height="30.7"/>
</g>
</svg>
