<?xml version="1.0" encoding="UTF-8"?>
<svg width="16px" height="13px" viewBox="0 0 16 13" version="1.1" xmlns="http://www.w3.org/2000/svg" xmlns:xlink="http://www.w3.org/1999/xlink">
    <!-- Generator: Sketch 62 (91390) - https://sketch.com -->
    <title>arrow-fwd</title>
    <desc>Created with Sketch.</desc>
    <g id="Page-1" stroke="none" stroke-width="1" fill="none" fill-rule="evenodd">
        <g id="arrow-fwd" fill="#0000F3" fill-rule="nonzero">
            <path d="M0,6.3 C0,6.1 0.1,5.8 0.2,5.6 L4.4,0.4 C4.8,-0.1 5.4,-0.1 5.9,0.2 C6.3,0.5 6.4,1.2 6.1,1.7 L3.3,5.2 L14.4,5.2 C15,5.2 15.4,5.7 15.4,6.2 C15.4,6.8 14.9,7.2 14.4,7.2 L3.2,7.2 L6,10.7 C6.3,11.1 6.3,11.8 5.8,12.2 C5.3,12.6 4.7,12.5 4.3,12 L0.1,6.8 C0.1,6.7 0,6.5 0,6.3 Z" id="Shape" transform="translate(7.700000, 6.221040) rotate(180.000000) translate(-7.700000, -6.221040) "></path>
        </g>
    </g>
</svg>