<?xml version="1.0" encoding="utf-8"?>
<!-- Generator: Adobe Illustrator 21.0.0, SVG Export Plug-In . SVG Version: 6.00 Build 0)  -->
<svg version="1.1" id="Слой_1" xmlns="http://www.w3.org/2000/svg" xmlns:xlink="http://www.w3.org/1999/xlink" x="0px" y="0px"
	 viewBox="0 0 24 24" style="enable-background:new 0 0 24 24;" xml:space="preserve">
<title>Icon / Auth / Next</title>
<desc>Created with Sketch.</desc>
<g id="Icon-_x2F_-Auth-_x2F_-Next">
	<path id="Shape" d="M4,12.3c0-0.2,0.1-0.5,0.2-0.7l4.2-5.2c0.4-0.5,1-0.5,1.5-0.2c0.4,0.3,0.5,1,0.2,1.5l-2.8,3.5h11.1
		c0.6,0,1,0.5,1,1c0,0.6-0.5,1-1,1H7.2l2.8,3.5c0.3,0.4,0.3,1.1-0.2,1.5c-0.5,0.4-1.1,0.3-1.5-0.2l-4.2-5.2C4.1,12.7,4,12.5,4,12.3z
		"/>
</g>
</svg>
