<?xml version="1.0" encoding="utf-8"?>
<!-- Generator: Adobe Illustrator 21.0.0, SVG Export Plug-In . SVG Version: 6.00 Build 0)  -->
<svg version="1.1" id="Слой_1" xmlns="http://www.w3.org/2000/svg" xmlns:xlink="http://www.w3.org/1999/xlink" x="0px" y="0px"
	 viewBox="0 0 24 24" style="enable-background:new 0 0 24 24;" xml:space="preserve">
<style type="text/css">
	.st0{clip-path:url(#SVGID_2_);}
</style>
<g>
	<defs>
		<path id="SVGID_1_" d="M19,4H6C5.4,4,5,4.4,5,5v11.2C5.3,16.1,5.6,16,6,16h13V4z M18,19c0-0.4,0.1-0.7,0.2-1H6c-0.6,0-1,0.4-1,1
			s0.4,1,1,1h12.2C18.1,19.7,18,19.4,18,19z M21,22H6c-1.7,0-3-1.3-3-3V5c0-1.7,1.3-3,3-3h15v16c-0.6,0-1,0.4-1,1s0.4,1,1,1V22z"/>
	</defs>
	<clipPath id="SVGID_2_">
		<use xlink:href="#SVGID_1_"  style="overflow:visible;"/>
	</clipPath>
	<rect x="-2" y="-3" class="st0" width="28" height="30"/>
</g>
</svg>
