<?xml version="1.0" encoding="utf-8"?>
<!-- Generator: Adobe Illustrator 21.0.0, SVG Export Plug-In . SVG Version: 6.00 Build 0)  -->
<svg version="1.1" id="Слой_1" xmlns="http://www.w3.org/2000/svg" xmlns:xlink="http://www.w3.org/1999/xlink" x="0px" y="0px"
	 viewBox="0 0 120.2 78.8" style="enable-background:new 0 0 120.2 78.8;" xml:space="preserve">
<style type="text/css">
	.st0{fill:none;stroke:#0000F3;stroke-width:1.317;stroke-linecap:round;stroke-miterlimit:10;}
	.st1{fill:#0000F3;}
</style>
<g>
	<line class="st0" x1="0.7" y1="78.1" x2="119.5" y2="78.1"/>
	<path class="st1" d="M109.4,72.7L92.3,13l-1.6,0.5c0.1,0.6-2.1,2.1-6.2,3.3c-4.1,1.2-6.9,1.1-7,0.6l-1.2,0.3V0h-1.6
		c0,0.7-2.6,1.8-6.9,1.8S60.7,0.7,60.7,0h-1.6v8.2c0,0.5-2.1,1.5-6.8,1.5c-4.7,0-6.8-1.2-6.8-1.5V8.1h-1.6c0,0.5-2.1,1.5-6.9,1.5
		S30,8.4,30,8.1h-0.1V1.8h-1.6c0,0.6-2.3,1.6-6.9,1.6c-4.6,0-6.9-1.1-6.9-1.6h-1.6v74.1c0,2.1,4.7,2.6,8.7,2.6
		c2.8,0,6.1-0.3,7.6-1.2c1.2,0.8,3.8,1.2,7.9,1.2c3.8,0,6.4-0.4,7.6-1.1c1.2,0.8,3.7,1.2,7.7,1.2c4.2,0,6.8-0.4,7.9-1.2
		c1.6,0.9,4.8,1.1,7.5,1.1c4,0,8.6-0.5,8.6-2.7V19.5L93,77.6c0.5,1.6,5,0.7,8.8-0.4C105.5,76.1,110,74.5,109.4,72.7z M28.3,8.1
		L28.3,8.1l0,67.7c-0.5,0.4-2.9,0.9-6.9,0.9c-4,0-6.5-0.5-6.9-0.9V4c2.2,1.1,6,1.2,6.9,1.2c1.1,0,4.7-0.1,6.9-1.2V8.1z M43.8,75.9
		c-0.6,0.5-2.9,0.9-6.9,0.9s-6.3-0.6-6.9-0.9V10.1c2.1,0.9,5.5,1.1,6.9,1.1c1.4,0,4.8-0.1,6.9-1.1V75.9z M45.5,66.3L59.1,66v2.8
		l-13.6,0.3V66.3z M60.7,11.3L74.6,11v58l-13.8,0.2V11.3z M67.6,3.5c2.6,0,5.3-0.4,6.9-1.2v7L60.7,9.6V2.3
		C62.4,3.2,65.1,3.5,67.6,3.5z M52.3,11.3c1.3,0,4.7-0.1,6.8-1.1v54.2l-13.6,0.3V10.2C47.6,11.1,51,11.3,52.3,11.3z M59.1,76
		c-0.6,0.5-2.9,0.9-6.8,0.9c-3.9,0-6.2-0.6-6.8-0.9v-5.3l13.6-0.3v5.4c0,0,0,0,0,0V76z M67.6,76.8c-4.3,0-6.7-0.7-6.9-0.9v-5
		l13.8-0.2v5.2C74.1,76.3,71.7,76.8,67.6,76.8z M77.7,19c2,0.2,4.6-0.2,7-0.9c2.5-0.7,4.9-1.8,6.3-2.8l1.8,6.2l-13.3,4L77.7,19z
		 M80.2,26.9l13.3-4l0.6,2.2l-13.3,4L80.2,26.9z M92.9,71L81.1,30.4l13.3-4L106.1,67L92.9,71z M101.4,75.9c-4.1,1.2-6.6,1.3-6.8,1.2
		l-1.4-4.7l13.3-4l1.4,4.8C107.5,73.6,105.4,74.7,101.4,75.9z"/>
	<rect x="17.3" y="6.5" class="st1" width="7.9" height="1.6"/>
	<rect x="17.3" y="9.5" class="st1" width="7.9" height="1.6"/>
	<rect x="17.3" y="12.7" class="st1" width="7.9" height="1.6"/>
	<rect x="17.4" y="70.5" class="st1" width="7.9" height="1.6"/>
	<rect x="32.9" y="69.1" class="st1" width="7.9" height="1.6"/>
	<rect x="33.7" y="21.9" class="st1" width="1.6" height="37.5"/>
	<rect x="38.3" y="21.9" class="st1" width="1.6" height="37.5"/>
	<rect x="92.6" y="32.5" transform="matrix(0.961 -0.2765 0.2765 0.961 -9.5981 27.7012)" class="st1" width="1.6" height="30.7"/>
	<polygon class="st1" points="70.2,36 64.8,36 64.8,37.7 70.2,37.7 70.2,40 71.9,40 71.9,33.8 70.2,33.8 	"/>
	<polygon class="st1" points="70.2,25.3 70.2,27.6 64.8,27.6 64.8,29.2 70.2,29.2 70.2,31.6 71.9,31.6 71.9,25.3 	"/>
</g>
</svg>
