<?xml version="1.0" encoding="utf-8"?>
<!-- Generator: Adobe Illustrator 21.0.0, SVG Export Plug-In . SVG Version: 6.00 Build 0)  -->
<svg version="1.1" id="Layer_1" xmlns="http://www.w3.org/2000/svg" xmlns:xlink="http://www.w3.org/1999/xlink" x="0px" y="0px"
	 viewBox="0 0 303.3 281.7" style="enable-background:new 0 0 303.3 281.7;" xml:space="preserve">
<style type="text/css">
	.st0{fill:#0000F3;}
</style>
<title>02</title>
<path class="st0" d="M292.5,49.3c-0.9-0.2-1.8-0.3-2.8-0.3h-60.2h-17.2H75.1l-5.5-37.4C68.5,4.9,62.7-0.1,55.9,0H13.6
	C6.1,0,0,6.1,0,13.6s6.1,13.6,13.6,13.6h30.6L65,167.6c3.1,20,20.3,34.8,40.5,34.8h136.1c19.3,0,36-13.6,39.9-32.5L303,65.4
	C304.6,58,299.8,50.8,292.5,49.3z M254.9,164.3c-1.3,6.3-6.9,10.9-13.3,10.9H105.5c-6.8,0.1-12.6-4.9-13.6-11.6L79.2,76.2h133.1
	h17.2H273L254.9,164.3z"/>
<path d="M143.3,241.9c-0.8-18.9-16.4-33.8-35.4-33.7v-0.1c-19.5,0.2-35.1,16.2-34.9,35.7c0.2,19.5,16.2,35.1,35.7,34.9h0.9
	C129.1,277.9,144.2,261.4,143.3,241.9z M108.9,259.7h-0.4c-9.6,0.1-17.4-7.5-17.5-17.1c-0.1-9.6,7.5-17.4,17.1-17.5v0
	c9.3,0,16.9,7.3,17.3,16.5C125.8,251.2,118.5,259.3,108.9,259.7z"/>
<path d="M267.3,244.9c-0.8-18.9-16.4-33.8-35.4-33.7v-0.1c-19.5,0.2-35.1,16.2-34.9,35.7c0.2,19.5,16.2,35.1,35.7,34.9h0.9
	C253.1,280.9,268.2,264.4,267.3,244.9z M232.9,261.7h-0.4c-9,0.1-16.4-7.1-16.5-16.1c-0.1-9,7.1-16.4,16.1-16.5v0
	c8.7,0,16,6.8,16.3,15.6C248.8,253.7,241.9,261.3,232.9,261.7z"/>
</svg>
