<?xml version="1.0" encoding="utf-8"?>
<!-- Generator: Adobe Illustrator 21.0.0, SVG Export Plug-In . SVG Version: 6.00 Build 0)  -->
<svg version="1.1" id="Слой_1" xmlns="http://www.w3.org/2000/svg" xmlns:xlink="http://www.w3.org/1999/xlink" x="0px" y="0px"
	 viewBox="0 0 24 24" style="enable-background:new 0 0 24 24;" xml:space="preserve">
<style type="text/css">
	.st0{fill:#B4BAC1;}
</style>
<title>Icon / Catalog / Electr Copy</title>
<desc>Created with Sketch.</desc>
<g id="Icon-_x2F_-Catalog-_x2F_-Electr-Copy">
	<path id="Combined-Shape" class="st0" d="M14,13.5v5.7c0,1.5-0.8,2.8-1.8,2.8H7.8c-0.3,0-0.5-0.1-0.8-0.3C6.8,21.9,6.5,22,6.2,22
		H1.8c-1,0-1.8-1.2-1.8-2.8V6.8C0,5.2,0.8,4,1.8,4h4.4C6.5,4,6.8,4.1,7,4.3C7.2,4.1,7.5,4,7.8,4h4.4c0.5,0,1,0.3,1.3,0.9l4.3-1.2
		c0.9-0.3,2,0.7,2.4,2.2l3.2,12c0.4,1.5-0.1,2.9-1,3.1l-4.3,1.2c-0.9,0.3-2-0.7-2.4-2.2L14,13.5z M8,6.8v12.5V20h4V6H8V6.8z M6,6.8
		V6H2v14h4v-0.8V6.8z M14.3,6.8l3.6,13.5l3.9-1L18.1,5.7L14.3,6.8z"/>
</g>
</svg>
