<?xml version="1.0" encoding="utf-8"?>
<!-- Generator: Adobe Illustrator 21.0.0, SVG Export Plug-In . SVG Version: 6.00 Build 0)  -->
<svg version="1.1" id="Слой_1" xmlns="http://www.w3.org/2000/svg" xmlns:xlink="http://www.w3.org/1999/xlink" x="0px" y="0px"
	 viewBox="0 0 56.7 76.5" style="enable-background:new 0 0 56.7 76.5;" xml:space="preserve">
<style type="text/css">
	.st0{fill:#0000F3;}
</style>
<path class="st0" d="M22.3,67.6C22.4,67.6,22.4,67.6,22.3,67.6c1.2,0,2.1-0.9,2.1-2.1l-0.8-46.3c0-1.1-0.9-2-2.1-2
	c-1.1,0-2,0.9-2,2.1l0.8,46.3C20.3,66.7,21.2,67.6,22.3,67.6z M34.4,67.6c1.1,0,2-0.9,2.1-2l0.8-46.3c0-1.1-0.9-2.1-2-2.1
	c-1.1,0-2.1,0.9-2.1,2l-0.8,46.3C32.3,66.7,33.2,67.6,34.4,67.6C34.3,67.6,34.3,67.6,34.4,67.6z M50.5,17.3c-1.2,0-2.1,0.8-2.1,2
	l-0.3,9c0,1.1,0.9,2.1,2,2.1c0,0,0,0,0.1,0c1.1,0,2-0.9,2.1-2l0.3-9C52.5,18.2,51.6,17.3,50.5,17.3z M50,34.2c-1.1,0-2.1,0.8-2.1,2
	L46.7,70c0,1.4-1.1,2.5-2.5,2.5H12.5c-1.4,0-2.5-1.1-2.5-2.6L8.3,19.2c0-1.1-1-2-2.1-2c-1.1,0-2,1-2,2.1L5.9,70c0,3.6,3,6.6,6.6,6.6
	h31.7c3.7,0,6.6-3,6.6-6.5l1.1-33.7C52,35.1,51.1,34.2,50,34.2z M54.6,9.1H2.1C0.9,9.1,0,10,0,11.1s0.9,2,2.1,2h52.6
	c1.1,0,2.1-0.9,2.1-2S55.8,9.1,54.6,9.1z"/>
<path d="M15.6,7.3c1.1,0,2.1-0.9,2.1-2c0-0.7,0.6-1.2,1.2-1.2h18.9c0.7,0,1.2,0.5,1.2,1.2c0,1.1,0.9,2,2.1,2c1.1,0,2.1-0.9,2.1-2
	c0-2.9-2.4-5.3-5.3-5.3H18.9c-2.9,0-5.3,2.4-5.3,5.3C13.5,6.4,14.5,7.3,15.6,7.3z"/>
</svg>
