<?xml version="1.0" encoding="utf-8"?>
<!-- Generator: Adobe Illustrator 21.0.0, SVG Export Plug-In . SVG Version: 6.00 Build 0)  -->
<svg version="1.1" id="Слой_1" xmlns="http://www.w3.org/2000/svg" xmlns:xlink="http://www.w3.org/1999/xlink" x="0px" y="0px"
	 viewBox="0 0 40 40" style="enable-background:new 0 0 40 40;" xml:space="preserve">
<style type="text/css">
	.st0{fill:#232325;}
</style>
<path class="st0" d="M20,0C9,0,0,9,0,20s9,20,20,20s20-9,20-20S31,0,20,0z M26.2,23.6c0.6,0.6,0.6,1.6,0,2.2l-0.1,0.1
	c-0.6,0.6-1.5,0.5-2.1-0.1L20.4,22l-3.6,3.8c-0.6,0.6-1.5,0.6-2.1,0.1l-0.1-0.1c-0.6-0.6-0.6-1.6,0-2.2l3.4-3.5l-3.5-3.7
	c-0.6-0.6-0.6-1.6,0-2.2c0.6-0.6,1.5-0.6,2.1-0.1l0.1,0.1l3.8,3.8l3.8-3.8l0.1-0.1c0.6-0.6,1.5-0.5,2.1,0.1s0.6,1.6,0,2.2l-3.6,3.7
	L26.2,23.6z"/>
</svg>
