<?xml version="1.0" encoding="utf-8"?>
<!-- Generator: Adobe Illustrator 21.0.0, SVG Export Plug-In . SVG Version: 6.00 Build 0)  -->
<svg version="1.1" id="Слой_1" xmlns="http://www.w3.org/2000/svg" xmlns:xlink="http://www.w3.org/1999/xlink" x="0px" y="0px"
	 viewBox="0 0 16 16" style="enable-background:new 0 0 16 16;" xml:space="preserve">
<style type="text/css">
	.st0{clip-path:url(#SVGID_2_);}
	.st1{clip-path:url(#SVGID_4_);fill:#3F4456;}
</style>
<g>
	<g>
		<defs>
			<path id="SVGID_1_" d="M0.5,15.5C0.8,15.8,1.2,16,1.6,16s0.8-0.2,1.1-0.5L8,10.2l5.3,5.3c0.3,0.3,0.7,0.5,1.1,0.5
				c0.4,0,0.8-0.2,1.1-0.5c0.6-0.6,0.6-1.7,0-2.2L10.2,8l5.3-5.3c0.6-0.6,0.6-1.7,0-2.2c-0.6-0.6-1.7-0.6-2.2,0L8,5.8L2.7,0.5
				C2.1-0.1,1-0.1,0.5,0.5c-0.6,0.6-0.6,1.7,0,2.2L5.8,8l-5.3,5.3C-0.2,13.9-0.2,14.9,0.5,15.5z"/>
		</defs>
		<use xlink:href="#SVGID_1_"  style="overflow:visible;fill:#3F4456;"/>
		<clipPath id="SVGID_2_">
			<use xlink:href="#SVGID_1_"  style="overflow:visible;"/>
		</clipPath>
		<g class="st0">
			<g>
				<defs>
					<rect id="SVGID_3_" x="-4" y="-4" width="24" height="24"/>
				</defs>
				<use xlink:href="#SVGID_3_"  style="overflow:visible;fill:#3F4456;"/>
				<clipPath id="SVGID_4_">
					<use xlink:href="#SVGID_3_"  style="overflow:visible;"/>
				</clipPath>
				<rect x="-5" y="-5" class="st1" width="26" height="26"/>
			</g>
		</g>
	</g>
</g>
</svg>
