<?xml version="1.0" encoding="UTF-8"?>
<svg width="9px" height="9px" viewBox="0 0 9 9" version="1.1" xmlns="http://www.w3.org/2000/svg" xmlns:xlink="http://www.w3.org/1999/xlink">
    <!-- Generator: Sketch 53 (72520) - https://sketchapp.com -->
    <title>Icon / Auth / Back Copy</title>
    <desc>Created with Sketch.</desc>
    <g id="Main-Web" stroke="none" stroke-width="1" fill="none" fill-rule="evenodd">
        <g id="Become-Member" transform="translate(-300.000000, -538.000000)" fill="#F8541C">
            <g id="Icon-/-Auth-/-Fail" transform="translate(297.000000, 535.000000)">
                <path d="M3.7275,10.8558333 C3.87916667,11.0075 4.08138889,11.0833333 4.25833333,11.0833333 C4.43527778,11.0833333 4.6375,11.0075 4.78916667,10.8558333 L7.29166667,8.35333333 L9.79416667,10.8558333 C9.94583333,11.0075 10.1480556,11.0833333 10.325,11.0833333 C10.5019444,11.0833333 10.7041667,11.0075 10.8558333,10.8558333 C11.1591667,10.5525 11.1591667,10.0722222 10.8558333,9.79416667 L8.35333333,7.29166667 L10.8558333,4.78916667 C11.1591667,4.48583333 11.1591667,4.00555556 10.8558333,3.7275 C10.5525,3.42416667 10.0722222,3.42416667 9.79416667,3.7275 L7.29166667,6.23 L4.78916667,3.7275 C4.48583333,3.42416667 4.00555556,3.42416667 3.7275,3.7275 C3.42416667,4.03083333 3.42416667,4.51111111 3.7275,4.78916667 L6.23,7.29166667 L3.7275,9.79416667 C3.42416667,10.0975 3.42416667,10.5777778 3.7275,10.8558333 Z" id="Shape"></path>
            </g>
        </g>
    </g>
</svg>