<?xml version="1.0" encoding="utf-8"?>
<!-- Generator: Adobe Illustrator 21.0.0, SVG Export Plug-In . SVG Version: 6.00 Build 0)  -->
<svg version="1.1" id="Слой_1" xmlns="http://www.w3.org/2000/svg" xmlns:xlink="http://www.w3.org/1999/xlink" x="0px" y="0px"
	 viewBox="0 0 59.3 79.1" style="enable-background:new 0 0 59.3 79.1;" xml:space="preserve">
<style type="text/css">
	.st0{clip-path:url(#SVGID_2_);fill:#0000E7;}
	.st1{clip-path:url(#SVGID_4_);fill:#0000E7;}
	.st2{clip-path:url(#SVGID_6_);fill:#0000E7;}
	.st3{clip-path:url(#SVGID_8_);fill:#0000E7;}
	.st4{clip-path:url(#SVGID_10_);fill:#0000E7;}
	.st5{clip-path:url(#SVGID_12_);fill:#0000E7;}
	.st6{clip-path:url(#SVGID_14_);fill:#0000E7;}
	.st7{clip-path:url(#SVGID_16_);fill:#0000E7;}
</style>
<g>
	<defs>
		<path id="SVGID_1_" d="M38,12.7c-0.7,0.8-1,1.7-1,2.7c0,1.1,0.3,2.1,1,2.9c0.6,0.7,1.6,1,2.8,1c1.3,0,2.2-0.4,2.9-1
			c0.7-0.8,1-1.7,1-2.9s-0.4-2-1.1-2.7c-0.7-0.8-1.7-1.1-2.8-1.1C39.6,11.6,38.6,12,38,12.7z M44.6,7.8c1.1,0.4,2,1,2.8,1.8
			c0.8,0.8,1.3,1.7,1.8,2.7c0.4,1,0.6,2,0.6,3.1s-0.2,2.2-0.6,3.2c-0.4,1-1,1.9-1.8,2.7s-1.7,1.4-2.8,1.9c-1.1,0.5-2.3,0.7-3.7,0.7
			c-1.4,0-2.6-0.2-3.8-0.7c-1.1-0.4-2-1-2.8-1.9c-0.8-0.8-1.3-1.7-1.7-2.7c-0.4-1-0.6-2.1-0.6-3.2s0.2-2.2,0.6-3.1
			c0.4-1,1-1.9,1.8-2.7c0.8-0.8,1.7-1.3,2.8-1.8C38.3,7.2,39.5,7,40.9,7C42.2,7,43.4,7.2,44.6,7.8z"/>
	</defs>
	<clipPath id="SVGID_2_">
		<use xlink:href="#SVGID_1_"  style="overflow:visible;"/>
	</clipPath>
	<rect x="27" y="2" class="st0" width="27.7" height="26.9"/>
</g>
<g>
	<defs>
		<path id="SVGID_3_" d="M15,12.7c-0.7,0.8-1,1.7-1,2.7c0,1.1,0.3,2.1,1,2.9c0.6,0.7,1.6,1,2.8,1c1.3,0,2.2-0.4,2.9-1
			c0.7-0.8,1-1.7,1-2.9s-0.4-2-1.1-2.7c-0.7-0.8-1.7-1.1-2.8-1.1C16.6,11.6,15.6,12,15,12.7z M21.6,7.8c1.1,0.4,2,1,2.8,1.8
			c0.8,0.8,1.3,1.7,1.8,2.7c0.4,1,0.6,2,0.6,3.1s-0.2,2.2-0.6,3.2c-0.4,1-1,1.9-1.8,2.7c-0.8,0.8-1.7,1.4-2.8,1.9
			c-1.1,0.5-2.3,0.7-3.7,0.7c-1.4,0-2.6-0.2-3.8-0.7c-1.1-0.4-2-1-2.8-1.9c-0.8-0.8-1.3-1.7-1.7-2.7c-0.4-1-0.6-2.1-0.6-3.2
			s0.2-2.2,0.6-3.1c0.4-1,1-1.9,1.8-2.7c0.8-0.8,1.7-1.3,2.8-1.8C15.3,7.2,16.5,7,17.9,7C19.2,7,20.4,7.2,21.6,7.8z"/>
	</defs>
	<clipPath id="SVGID_4_">
		<use xlink:href="#SVGID_3_"  style="overflow:visible;"/>
	</clipPath>
	<rect x="4" y="2" class="st1" width="27.7" height="26.9"/>
</g>
<g>
	<defs>
		<path id="SVGID_5_" d="M30.9,14.7c-0.5-0.5-1.2-0.8-2-0.8c-0.8,0-1.4,0.3-2,0.8c-0.5,0.5-0.8,1.1-0.8,2H23c0-0.9,0.3-1.7,0.5-2.4
			c0.3-0.7,0.8-1.3,1.3-1.8c0.5-0.5,1.1-0.8,1.8-1.1c0.7-0.3,1.4-0.4,2.3-0.4c0.8,0,1.6,0.1,2.3,0.4c0.7,0.3,1.3,0.6,1.8,1.1
			c0.5,0.5,0.9,1,1.3,1.8c0.3,0.7,0.5,1.5,0.5,2.4h-3.1C31.7,15.8,31.4,15.2,30.9,14.7z"/>
	</defs>
	<clipPath id="SVGID_6_">
		<use xlink:href="#SVGID_5_"  style="overflow:visible;"/>
	</clipPath>
	<rect x="18" y="6" class="st2" width="21.8" height="15.7"/>
</g>
<g>
	<defs>
		<path id="SVGID_7_" d="M32.9,28.3c0.2,0.2,0.3,0.5,0.3,0.8c0,0.3-0.1,0.6-0.3,0.8c-0.2,0.2-0.5,0.3-0.8,0.3
			c-0.3,0-0.6-0.1-0.8-0.3c-0.2-0.2-0.3-0.5-0.3-0.8c0-0.3,0.1-0.6,0.3-0.8c0.2-0.2,0.5-0.3,0.8-0.3C32.4,28,32.7,28.1,32.9,28.3z
			 M27.9,28.3c0.2,0.2,0.3,0.5,0.3,0.8c0,0.3-0.1,0.6-0.3,0.8c-0.2,0.2-0.5,0.3-0.8,0.3c-0.3,0-0.6-0.1-0.8-0.3
			c-0.2-0.2-0.3-0.5-0.3-0.8c0-0.3,0.1-0.6,0.3-0.8c0.2-0.2,0.5-0.3,0.8-0.3C27.4,28,27.7,28.1,27.9,28.3z"/>
	</defs>
	<clipPath id="SVGID_8_">
		<use xlink:href="#SVGID_7_"  style="overflow:visible;"/>
	</clipPath>
	<rect x="21" y="23" class="st3" width="17.2" height="12.2"/>
</g>
<g>
	<defs>
		<path id="SVGID_9_" d="M26.6,39.9c0.5,0.5,1.1,0.7,1.8,0.7c0.8,0,1.3-0.2,1.8-0.7c0.4-0.4,0.7-1,0.8-1.9h2.9
			c0,0.8-0.2,1.6-0.5,2.3c-0.3,0.7-0.7,1.2-1.2,1.7c-0.5,0.4-1,0.8-1.7,1c-0.6,0.3-1.3,0.4-2.1,0.4c-0.8,0-1.5-0.1-2.2-0.4
			c-0.6-0.2-1.2-0.5-1.7-1c-0.5-0.4-0.9-1-1.2-1.7C23.1,39.6,23,38.9,23,38h2.8C25.9,38.8,26.2,39.4,26.6,39.9z"/>
	</defs>
	<clipPath id="SVGID_10_">
		<use xlink:href="#SVGID_9_"  style="overflow:visible;"/>
	</clipPath>
	<rect x="18" y="33" class="st4" width="20.9" height="15.3"/>
</g>
<g>
	<defs>
		<path id="SVGID_11_" d="M26.7,3.1L24.9,5c-0.4-0.5-0.8-0.9-1.3-1.2c-0.5-0.3-1.1-0.4-1.8-0.4c-0.5,0-1,0.1-1.5,0.3
			c-0.4,0.2-0.8,0.5-1.3,0.7c-0.5,0.3-0.9,0.5-1.4,0.7c-0.5,0.2-1.2,0.3-1.8,0.3c-1.2,0-2.1-0.3-2.9-0.8c-0.8-0.5-1.4-1.3-1.8-2.2
			l2-2c0.3,0.5,0.8,0.8,1.2,1C14.7,1.8,15.3,2,15.9,2c0.5,0,1-0.1,1.5-0.3c0.4-0.2,0.8-0.4,1.2-0.7c0.4-0.3,0.8-0.5,1.3-0.7
			c0.5-0.2,1-0.3,1.7-0.3c1.2,0,2.2,0.3,3,0.8C25.4,1.3,26.2,2.2,26.7,3.1z"/>
	</defs>
	<clipPath id="SVGID_12_">
		<use xlink:href="#SVGID_11_"  style="overflow:visible;"/>
	</clipPath>
	<rect x="6" y="-5" class="st5" width="25.7" height="15.5"/>
</g>
<g>
	<defs>
		<path id="SVGID_13_" d="M36.1,0.8c0.8-0.6,1.8-0.8,3-0.8c0.7,0,1.2,0.1,1.7,0.3c0.4,0.2,0.9,0.4,1.3,0.7c0.4,0.3,0.8,0.5,1.2,0.7
			C43.7,2,44.2,2,44.7,2c0.6,0,1.2-0.1,1.7-0.4c0.5-0.3,0.9-0.6,1.2-1l2,2c-0.5,0.9-1.1,1.6-1.8,2.1c-0.8,0.5-1.8,0.8-2.9,0.8
			c-0.7,0-1.3-0.1-1.8-0.3c-0.5-0.2-1-0.5-1.4-0.7c-0.4-0.3-0.8-0.5-1.3-0.7C40,3.5,39.5,3.4,39,3.4c-0.7,0-1.3,0.1-1.8,0.4
			c-0.5,0.3-1,0.7-1.3,1.2L34,3.1C34.5,2.1,35.2,1.3,36.1,0.8z"/>
	</defs>
	<clipPath id="SVGID_14_">
		<use xlink:href="#SVGID_13_"  style="overflow:visible;"/>
	</clipPath>
	<rect x="29" y="-5" class="st6" width="25.7" height="15.5"/>
</g>
<g>
	<defs>
		<path id="SVGID_15_" d="M29.7,69.1c1.4-0.9,3-1.4,4.9-1.7c1.5-0.2,2.8-0.1,4.1,0.2c1.2,0.3,2.2,0.7,3.4,1.2c1,0.4,2,0.9,3,1.2
			c1.1,0.3,2.1,0.5,3.3,0.3c1.6-0.2,2.9-0.7,3.9-1.3c1-0.8,1.9-1.8,2.6-3l4.6,3.5c-1,2.3-2.4,4.3-4.2,5.6c-1.7,1.5-3.8,2.4-6.3,2.7
			c-1.5,0.2-2.7,0.2-3.9-0.3c-1-0.3-2.1-0.7-3-1.1c-0.9-0.4-1.9-0.9-2.8-1.2c-1-0.4-2.1-0.5-3.3-0.3c-0.7,0.1-1.3,0.2-1.9,0.4
			l-3.7,2.9c-0.2,0.2-0.3,0.5-0.5,0.7l-0.2-0.2l-0.2,0.2c-0.1-0.3-0.3-0.5-0.5-0.7l-3.7-2.9c-0.6-0.2-1.2-0.4-1.9-0.4
			c-1.2-0.1-2.3-0.1-3.3,0.3c-0.9,0.3-1.9,0.7-2.8,1.2c-0.9,0.4-2,0.9-3,1.1c-1.2,0.4-2.4,0.4-3.9,0.3c-2.5-0.3-4.6-1.2-6.3-2.7
			C2.3,73.8,1,71.8,0,69.5L4.6,66c0.7,1.2,1.6,2.2,2.6,3c0.9,0.7,2.3,1.2,3.9,1.3c1.2,0.1,2.2,0,3.3-0.3c1-0.3,2-0.8,3-1.2
			c1.1-0.4,2.2-0.8,3.4-1.2c1.3-0.3,2.6-0.4,4.1-0.2C26.6,67.7,28.3,68.2,29.7,69.1z"/>
	</defs>
	<clipPath id="SVGID_16_">
		<use xlink:href="#SVGID_15_"  style="overflow:visible;"/>
	</clipPath>
	<rect x="-5" y="61" class="st7" width="69.3" height="23.1"/>
</g>
</svg>
