<svg id="Слой_1" data-name="Слой 1" xmlns="http://www.w3.org/2000/svg" viewBox="0 0 20 20"><defs><style>.cls-1{fill:#fff;}</style></defs><title>instagram-icon</title><path class="cls-1" d="M16.14,0H3.86A3.87,3.87,0,0,0,0,3.86V16.14A3.88,3.88,0,0,0,3.86,20H16.14A3.88,3.88,0,0,0,20,16.14V3.86A3.88,3.88,0,0,0,16.14,0Zm1.11,2.3h.44V5.69H14.31V2.31ZM7.15,8a3.51,3.51,0,1,1-.67,2A3.51,3.51,0,0,1,7.15,8Zm10.9,8.19A1.91,1.91,0,0,1,16.14,18H3.86a1.91,1.91,0,0,1-1.91-1.91V8h3A5.48,5.48,0,1,0,15.06,8h3Z"/></svg>