<?xml version="1.0" encoding="UTF-8"?>
<svg width="83px" height="174px" viewBox="0 0 83 174" version="1.1" xmlns="http://www.w3.org/2000/svg" xmlns:xlink="http://www.w3.org/1999/xlink">
    <!-- Generator: Sketch 53 (72520) - https://sketchapp.com -->
    <title>Combined Shape</title>
    <desc>Created with Sketch.</desc>
    <g id="Main-Web" stroke="none" stroke-width="1" fill="none" fill-rule="evenodd">
        <g id="Become-Member" transform="translate(-192.000000, -1158.000000)" fill="#232325" fill-rule="nonzero">
            <path d="M192,1331.29419 L192,1310.47335 C192.383073,1310.4822 192.766339,1310.48682 193.149606,1310.48682 C202.244095,1310.48682 210.688976,1308.86116 217.834646,1305.93497 C225.305118,1302.68366 231.476378,1298.45694 236.673228,1292.9297 C241.545276,1287.40246 245.442913,1280.89982 248.041339,1273.42179 C250.639764,1266.26889 251.938976,1257.81547 251.938976,1249.36204 C251.938976,1232.78032 247.391732,1218.79965 237.972441,1208.0703 L192,1272.15277 L192,1234.15261 L220.757874,1194.08963 C212.312992,1190.51318 203.218504,1188.56239 193.149606,1188.56239 C192.765228,1188.56239 192.382009,1188.56529 192,1188.57108 L192,1167.75508 C192.166479,1167.75433 192.333146,1167.75395 192.5,1167.75395 C199.970473,1167.75395 207.116142,1168.40422 213.937008,1170.02988 C220.757874,1171.65554 226.929134,1173.93146 232.775591,1176.85764 L246.09252,1158 L263.956693,1171.00527 L250.964567,1189.86292 C258.759843,1197.34095 264.606299,1206.11951 268.82874,1216.19859 C273.051181,1226.60281 275,1237.65729 275,1249.68717 C275,1261.06678 273.051181,1271.471 269.153543,1281.22496 C264.931102,1291.30404 259.409449,1300.0826 252.26378,1307.56063 C244.793307,1314.71353 236.348425,1320.56591 225.954724,1324.79262 C216.21063,1329.34446 204.84252,1331.29525 192.5,1331.29525 C192.33298,1331.29525 192.166315,1331.2949 192,1331.29419 Z" id="Combined-Shape"></path>
        </g>
    </g>
</svg>