<?xml version="1.0" encoding="utf-8"?>
<!-- Generator: Adobe Illustrator 21.0.0, SVG Export Plug-In . SVG Version: 6.00 Build 0)  -->
<svg version="1.1" id="Layer_1" xmlns="http://www.w3.org/2000/svg" xmlns:xlink="http://www.w3.org/1999/xlink" x="0px" y="0px"
	 viewBox="0 0 166 63.9" style="enable-background:new 0 0 166 63.9;" xml:space="preserve">
<style type="text/css">
	.st0{clip-path:url(#SVGID_2_);fill:#DD4D12;}
	.st1{clip-path:url(#SVGID_4_);}
	.st2{clip-path:url(#SVGID_6_);}
	.st3{clip-path:url(#SVGID_8_);}
	.st4{clip-path:url(#SVGID_10_);}
	.st5{clip-path:url(#SVGID_12_);}
	.st6{clip-path:url(#SVGID_14_);}
	.st7{clip-path:url(#SVGID_16_);}
	.st8{clip-path:url(#SVGID_18_);}
</style>
<g>
	<defs>
		<path id="SVGID_1_" d="M147.4,60.7c0.8,0,1.4-0.2,1.9-0.5s0.8-0.7,1-1.1v-1.9c-0.6-0.1-1.2-0.1-1.8,0c-0.6,0-1.1,0.1-1.5,0.3
			c-0.4,0.1-0.8,0.3-1.1,0.6c-0.3,0.3-0.4,0.6-0.4,1c0,0.5,0.2,1,0.5,1.3S146.9,60.7,147.4,60.7z M142.4,49.9
			c0.8-0.3,1.8-0.6,2.9-0.8c1.1-0.2,2.3-0.3,3.5-0.3c1.1,0,2,0.1,2.7,0.4c0.7,0.2,1.3,0.6,1.7,1s0.7,1,0.9,1.6
			c0.2,0.6,0.3,1.3,0.3,2.1c0,0.8,0,1.7-0.1,2.6c-0.1,0.9-0.1,1.7-0.1,2.5c0,0.8,0,1.6,0.1,2.4s0.2,1.5,0.5,2.2h-3.3l-0.6-2h-0.2
			c-0.4,0.6-1,1.1-1.7,1.5c-0.7,0.4-1.7,0.7-2.8,0.7c-0.7,0-1.4-0.1-1.9-0.3c-0.6-0.2-1.1-0.5-1.5-0.9s-0.7-0.8-1-1.3
			c-0.2-0.5-0.3-1.1-0.3-1.7c0-0.9,0.2-1.6,0.6-2.2c0.4-0.6,1-1.1,1.8-1.5c0.8-0.4,1.7-0.6,2.8-0.8s2.3-0.2,3.7-0.1
			c0.1-1.1,0.1-1.9-0.2-2.3c-0.3-0.5-1-0.7-2.1-0.7c-0.8,0-1.6,0.1-2.5,0.2c-0.9,0.2-1.6,0.4-2.2,0.6L142.4,49.9z M132.5,57.5h-1.1
			v6h-4V49.1h4v6.2l1-0.4l3.6-5.8h4.3l-3.7,5.5l-1.6,1.1l1.7,1.1l4.1,6.7h-4.6L132.5,57.5z M118.5,51.7c-1,0-1.8,0.3-2.3,0.9
			c-0.5,0.6-0.8,1.4-0.9,2.4h5.7c0.1-1-0.1-1.8-0.5-2.4C120,51.9,119.4,51.7,118.5,51.7z M124.2,62.3c-0.6,0.5-1.4,0.9-2.5,1.2
			c-1.1,0.3-2.2,0.5-3.4,0.5c-2.5,0-4.3-0.7-5.4-2c-1.1-1.4-1.7-3.2-1.7-5.6c0-2.5,0.6-4.5,1.9-5.7s3.1-1.9,5.4-1.9
			c0.8,0,1.5,0.1,2.3,0.3c0.7,0.2,1.4,0.5,2,1c0.6,0.4,1,1,1.4,1.8c0.3,0.8,0.5,1.7,0.5,2.8c0,0.4,0,0.8-0.1,1.3
			c-0.1,0.5-0.1,0.9-0.2,1.4h-9.2c0.1,1.2,0.4,2.1,1,2.7c0.6,0.6,1.6,0.9,2.9,0.9c0.8,0,1.6-0.1,2.3-0.4c0.7-0.2,1.2-0.5,1.5-0.7
			L124.2,62.3z M110.4,52.4h-4.3v11.1H102V52.4h-4.4v-3.3h12.8V52.4z M86.5,56.3c0,0.6,0.1,1.2,0.2,1.8c0.1,0.5,0.3,1,0.6,1.4
			c0.2,0.4,0.6,0.7,1,0.9c0.4,0.2,0.9,0.3,1.4,0.3c1,0,1.8-0.4,2.3-1.1s0.8-1.8,0.8-3.4c0-1.3-0.2-2.4-0.7-3.2
			c-0.5-0.8-1.3-1.2-2.4-1.2c-1,0-1.7,0.3-2.3,1C86.7,53.6,86.5,54.7,86.5,56.3z M82.4,56.3c0-2.4,0.6-4.3,1.9-5.7
			c1.3-1.3,3-2,5.3-2c1.2,0,2.3,0.2,3.2,0.5c0.9,0.4,1.6,0.9,2.2,1.5s1,1.5,1.3,2.4c0.3,0.9,0.4,2,0.4,3.1c0,2.4-0.6,4.3-1.9,5.7
			c-1.3,1.3-3,2-5.3,2c-1.2,0-2.3-0.2-3.2-0.5c-0.9-0.4-1.7-0.9-2.3-1.5c-0.6-0.7-1.1-1.5-1.3-2.4S82.4,57.4,82.4,56.3z M75.6,56.9
			l0.2-2.1h-0.1L74.4,57l-5.5,6.5h-2.5V49.1h4v6.9l-0.2,2h0.1l1.3-2.1l5.5-6.8h2.5v14.5h-4V56.9z M58.9,52.4h-3
			c-0.1,1.4-0.3,2.7-0.4,4.1c-0.2,1.3-0.4,2.6-0.8,3.6c-0.4,1.1-0.8,1.9-1.5,2.6c-0.6,0.7-1.4,1-2.4,1c-1.2,0-2-0.1-2.5-0.4l0.5-3.1
			c0.3,0.1,0.6,0.2,0.9,0.2c0.4,0,0.8-0.2,1.1-0.5c0.3-0.3,0.6-0.9,0.8-1.8c0.2-0.8,0.4-2,0.5-3.5c0.1-1.5,0.2-3.3,0.3-5.5h10.5
			v14.5h-4V52.4z M37.5,56.5c0,1.2,0.3,2.3,0.8,3.1c0.5,0.8,1.3,1.2,2.4,1.2c1.1,0,1.9-0.4,2.4-1.1c0.5-0.7,0.7-1.8,0.7-3.2
			c0-1.3-0.2-2.2-0.7-2.9c-0.4-0.7-1.2-1-2.2-1c-1.1,0-2,0.3-2.5,1C37.8,54.3,37.5,55.2,37.5,56.5z M36.7,51.8
			c0.6-0.8,1.3-1.5,2.1-1.8c0.8-0.4,1.8-0.6,2.9-0.6c1.9,0,3.3,0.5,4.4,1.6c1.1,1.1,1.6,2.7,1.6,5c0,2.6-0.6,4.6-1.9,5.9
			c-1.2,1.3-3,2-5.3,2c-2.4,0-4.2-0.7-5.4-2.2s-1.9-3.8-1.9-6.9c0-1.7,0.1-3.1,0.3-4.2c0.2-1.2,0.5-2.2,0.9-3
			c0.4-0.8,0.8-1.5,1.3-1.9c0.5-0.5,1.1-0.9,1.7-1.1c0.6-0.3,1.3-0.5,2.1-0.6c0.7-0.1,1.5-0.2,2.3-0.3c1.1-0.1,2-0.2,2.7-0.4
			c0.8-0.1,1.3-0.4,1.7-0.7l0.2,3.4c-0.4,0.3-1,0.6-1.7,0.7c-0.8,0.1-1.8,0.2-3.1,0.3c-0.8,0-1.5,0.1-2.1,0.3
			c-0.6,0.1-1.1,0.4-1.5,0.7c-0.4,0.3-0.8,0.8-1,1.5C36.9,49.9,36.7,50.8,36.7,51.8L36.7,51.8z M26.6,56.9l0.2-2.1h-0.1L25.4,57
			l-5.5,6.5h-2.5V49.1h4v6.9l-0.2,2h0.1l1.3-2.1l5.5-6.8h2.5v14.5h-4V56.9z M6.5,60.5c0.5,0,1-0.1,1.5-0.2c0.5-0.1,0.9-0.3,1.2-0.6
			c0.3-0.3,0.6-0.6,0.8-1c0.2-0.4,0.3-0.9,0.3-1.5c0-0.7-0.1-1.3-0.3-1.7s-0.5-0.8-0.9-1c-0.4-0.2-0.8-0.4-1.3-0.5S6.7,54,6.2,54
			c-0.3,0-0.6,0-1.1,0.1s-0.7,0.1-0.9,0.1v6.2c0.2,0.1,0.6,0.1,1,0.1C5.7,60.5,6.1,60.5,6.5,60.5z M0,43.3h13.2v3.5h-9V51
			C4.5,51,5,50.9,5.5,50.9s1-0.1,1.5-0.1c1.1,0,2.2,0.1,3.2,0.3c1,0.2,1.8,0.6,2.5,1.1c0.7,0.5,1.2,1.1,1.6,1.9
			c0.4,0.8,0.6,1.8,0.6,2.9c0,1.1-0.2,2.1-0.6,3c-0.4,0.8-1,1.6-1.7,2.1c-0.7,0.6-1.6,1-2.7,1.3c-1.1,0.3-2.2,0.4-3.5,0.4
			c-0.3,0-0.8,0-1.3,0c-0.5,0-1.1,0-1.7-0.1s-1.2-0.1-1.7-0.1C1,63.5,0.4,63.4,0,63.3V43.3z"/>
	</defs>
	<clipPath id="SVGID_2_">
		<use xlink:href="#SVGID_1_"  style="overflow:visible;"/>
	</clipPath>
	<rect x="-11.9" y="30.6" class="st0" width="178.5" height="45.2"/>
</g>
<g>
	<defs>
		<path id="SVGID_3_" d="M14.4,6.3c-0.1,3-0.3,5.7-0.4,8.2c-0.2,2.5-0.4,4.7-0.7,6.7c-0.3,2-0.7,3.7-1.1,5.2
			c-0.5,1.5-1.1,2.8-1.8,3.9c-0.5,0.7-1,1.3-1.6,1.8c-0.6,0.5-1.2,0.9-1.8,1.1c-0.6,0.3-1.3,0.5-1.9,0.6C4.5,33.9,4,34,3.4,34
			c-0.8,0-1.4-0.1-1.9-0.2c-0.5-0.1-1-0.3-1.5-0.5l0.7-5.6c0.2,0.1,0.4,0.1,0.6,0.1c0.2,0,0.4,0,0.6,0c0.5,0,1.1-0.1,1.6-0.4
			c0.5-0.3,1-0.7,1.3-1.3c0.5-0.7,0.9-1.7,1.3-3.1c0.4-1.3,0.7-3.1,1-5.1c0.3-2.1,0.5-4.6,0.7-7.5C7.9,7.7,8,4.3,8.1,0.5h20.5v33.2
			h-6.8V6.3H14.4z"/>
	</defs>
	<clipPath id="SVGID_4_">
		<use xlink:href="#SVGID_3_"  style="overflow:visible;"/>
	</clipPath>
	<rect x="-11.9" y="-11.4" class="st1" width="52.4" height="57.3"/>
</g>
<g>
	<defs>
		<polygon id="SVGID_5_" points="49,19.5 48.9,19.5 46.8,22.9 37.9,33.6 33.8,33.6 33.8,10 40.3,10 40.3,21.2 40,24.4 40.2,24.4 
			42.2,21.1 51.2,10 55.3,10 55.3,33.6 48.8,33.6 48.8,22.8 		"/>
	</defs>
	<clipPath id="SVGID_6_">
		<use xlink:href="#SVGID_5_"  style="overflow:visible;"/>
	</clipPath>
	<rect x="21.9" y="-1.9" class="st2" width="45.2" height="47.5"/>
</g>
<g>
	<defs>
		<polygon id="SVGID_7_" points="72.8,15.4 72.8,33.6 66.1,33.6 66.1,15.4 59,15.4 59,9.9 79.7,9.9 79.7,15.4 		"/>
	</defs>
	<clipPath id="SVGID_8_">
		<use xlink:href="#SVGID_7_"  style="overflow:visible;"/>
	</clipPath>
	<rect x="47.1" y="-1.9" class="st3" width="44.5" height="47.5"/>
</g>
<g>
	<defs>
		<path id="SVGID_9_" d="M88.5,0.2c1.7-0.1,3.3-0.2,5-0.2c1.7,0,3.5,0.1,5.2,0.4c1.7,0.3,3.3,0.8,4.7,1.6c1.4,0.8,2.5,1.9,3.4,3.4
			c0.9,1.4,1.3,3.3,1.3,5.6c0,2.1-0.4,3.8-1.1,5.3c-0.8,1.4-1.8,2.6-3,3.5c-1.3,0.9-2.7,1.6-4.3,2c-1.6,0.4-3.3,0.6-5,0.6h-0.8
			c-0.4,0-0.7,0-1.1,0c-0.4,0-0.8,0-1.2-0.1c-0.4,0-0.7-0.1-0.8-0.1v11.4h-6.8V0.8C85.3,0.6,86.9,0.4,88.5,0.2z M94.1,5.6
			c-0.7,0-1.3,0-1.9,0.1c-0.6,0-1.1,0.1-1.4,0.2v10.8c0.1,0,0.3,0.1,0.6,0.1c0.3,0,0.5,0.1,0.8,0.1c0.3,0,0.6,0,0.9,0h0.6
			c0.9,0,1.8-0.1,2.7-0.2c0.9-0.2,1.7-0.4,2.4-0.9c0.7-0.4,1.2-1,1.7-1.8c0.4-0.8,0.6-1.8,0.6-3c0-1-0.2-1.9-0.6-2.6
			c-0.4-0.7-0.9-1.2-1.6-1.6c-0.6-0.4-1.4-0.7-2.2-0.9C95.8,5.7,94.9,5.6,94.1,5.6z"/>
	</defs>
	<clipPath id="SVGID_10_">
		<use xlink:href="#SVGID_9_"  style="overflow:visible;"/>
	</clipPath>
	<rect x="72" y="-11.9" class="st4" width="48" height="57.4"/>
</g>
<g>
	<defs>
		<path id="SVGID_11_" d="M126.3,33.5c-1.7,0.5-3.5,0.8-5.4,0.8c-4,0-6.9-1.1-8.8-3.3c-1.9-2.2-2.8-5.3-2.8-9.2c0-4.2,1-7.3,3.1-9.4
			c2.1-2.1,5-3.1,8.8-3.1c1.3,0,2.5,0.2,3.7,0.5c1.2,0.3,2.3,0.8,3.2,1.6c0.9,0.7,1.7,1.7,2.2,2.9c0.6,1.2,0.8,2.8,0.8,4.6
			c0,0.7,0,1.4-0.1,2.1s-0.2,1.5-0.4,2.4h-15c0.1,2,0.8,3.5,1.7,4.5c1,1,2.6,1.5,4.7,1.5c1.4,0,2.5-0.3,3.6-0.6c1.4-0.4,2.6-1,2.6-1
			l1.9,3.8C129.3,32.4,128,33,126.3,33.5z M121.1,14.1c-2,0.1-3,0.5-3.8,1.5c-0.8,0.9-1.3,2.2-1.5,3.8l9.3,0.1c0.1-1.7,0-3-0.7-3.9
			C123.7,14.7,122.6,14.1,121.1,14.1z"/>
	</defs>
	<clipPath id="SVGID_12_">
		<use xlink:href="#SVGID_11_"  style="overflow:visible;"/>
	</clipPath>
	<rect x="97.3" y="-2.6" class="st5" width="45.7" height="48.8"/>
</g>
<g>
	<defs>
		<path id="SVGID_13_" d="M152.1,14.5c0,0-2-0.4-3.5-0.4c-4.4,0-7.3,2.4-7.3,7.8c0,5,2.2,7.5,6.8,7.5c1.5,0,4.4-0.4,4.4-0.4l0.9,4.3
			c-1.2,0.4-3.6,0.9-6.5,0.9c-9,0-12.3-6.3-12.3-12.6c0-6.4,3.9-12.2,12.9-12.2c1.7,0,3.7,0.2,5.6,0.7L152.1,14.5"/>
	</defs>
	<clipPath id="SVGID_14_">
		<use xlink:href="#SVGID_13_"  style="overflow:visible;"/>
	</clipPath>
	<rect x="122.7" y="-2.5" class="st6" width="42.6" height="48.6"/>
</g>
<g>
	<defs>
		<ellipse id="SVGID_15_" cx="162.3" cy="13.2" rx="3.7" ry="3.5"/>
	</defs>
	<clipPath id="SVGID_16_">
		<use xlink:href="#SVGID_15_"  style="overflow:visible;"/>
	</clipPath>
	<rect x="146.8" y="-2.2" class="st7" width="31.1" height="30.8"/>
</g>
<g>
	<defs>
		<path id="SVGID_17_" d="M166,30.5c0,1.9-1.6,3.5-3.7,3.5c-2,0-3.7-1.6-3.7-3.5c0-1.9,1.6-3.5,3.7-3.5C164.4,27,166,28.6,166,30.5"
			/>
	</defs>
	<clipPath id="SVGID_18_">
		<use xlink:href="#SVGID_17_"  style="overflow:visible;"/>
	</clipPath>
	<rect x="146.8" y="15.1" class="st8" width="31.1" height="30.8"/>
</g>
</svg>
