<?xml version="1.0" encoding="utf-8"?>
<!-- Generator: Adobe Illustrator 21.0.0, SVG Export Plug-In . SVG Version: 6.00 Build 0)  -->
<svg version="1.1" id="Слой_1" xmlns="http://www.w3.org/2000/svg" xmlns:xlink="http://www.w3.org/1999/xlink" x="0px" y="0px"
	 viewBox="0 0 68 57.3" style="enable-background:new 0 0 68 57.3;" xml:space="preserve">
<style type="text/css">
	.st0{fill:#0000F3;}
</style>
<path d="M55.3,19.3c-2.4,0-4.3,1.9-4.3,4.4c0,2.4,1.9,4.4,4.3,4.4c2.4,0,4.3-1.9,4.3-4.4C59.6,21.3,57.6,19.3,55.3,19.3z M55.3,24.4
	c-0.4,0-0.7-0.3-0.7-0.7c0-0.4,0.3-0.7,0.7-0.7s0.7,0.3,0.7,0.7C55.9,24.1,55.6,24.4,55.3,24.4z M43.7,19.3c-2.4,0-4.3,1.9-4.3,4.4
	c0,2.4,1.9,4.4,4.3,4.4c2.4,0,4.3-1.9,4.3-4.4S46.1,19.3,43.7,19.3z M43.7,24.4c-0.4,0-0.7-0.3-0.7-0.7c0-0.4,0.3-0.7,0.7-0.7
	s0.7,0.3,0.7,0.7C44.4,24.1,44.1,24.4,43.7,24.4z M13.7,41H5.5c-1,0-1.9-0.8-1.9-1.9V16.9c0-1,0.8-1.9,1.9-1.9h56.9
	c1,0,1.9,0.8,1.9,1.9s0.8,1.9,1.9,1.9c1,0,1.9-0.8,1.9-1.9c0-3-2.3-5.4-5.2-5.6V1.9c0-1-0.8-1.9-1.9-1.9H7.1c-1,0-1.9,0.8-1.9,1.9
	v9.4C2.3,11.5,0,13.9,0,16.9v22.3c0,3.1,2.5,5.6,5.5,5.6h8.2V41z M8.9,3.7H59v7.5H8.9V3.7z M68,22.7V39c0,3.1-2.5,5.6-5.5,5.6h-8
	v-3.7h8c1,0,1.9-0.8,1.9-1.9V22.7c0-1,0.8-1.9,1.9-1.9C67.2,20.8,68,21.7,68,22.7z"/>
<path class="st0" d="M22.2,41.7h23.7c1,0,1.9-0.8,1.9-1.9c0-1-0.8-1.9-1.9-1.9H22.2c-1,0-1.9,0.8-1.9,1.9
	C20.3,40.9,21.1,41.7,22.2,41.7z M22.2,49.6h23.7c1,0,1.9-0.8,1.9-1.9c0-1-0.8-1.9-1.9-1.9H22.2c-1,0-1.9,0.8-1.9,1.9
	C20.3,48.8,21.1,49.6,22.2,49.6z M56.3,32.4h1.3c1,0,1.9-0.8,1.9-1.9c0-1-0.8-1.9-1.9-1.9H10.2c-1,0-1.9,0.8-1.9,1.9
	c0,1,0.8,1.9,1.9,1.9h2.1v23c0,1,0.8,1.9,1.9,1.9h40.4c1,0,1.9-0.8,1.9-1.9L56.3,32.4L56.3,32.4z M52.7,53.6H16V32.4h36.7L52.7,53.6
	L52.7,53.6z"/>
</svg>
