<?xml version="1.0" encoding="UTF-8"?>
<svg width="75px" height="198px" viewBox="0 0 75 198" version="1.1" xmlns="http://www.w3.org/2000/svg" xmlns:xlink="http://www.w3.org/1999/xlink">
    <!-- Generator: Sketch 53 (72520) - https://sketchapp.com -->
    <title>Combined Shape</title>
    <desc>Created with Sketch.</desc>
    <g id="Main-Web" stroke="none" stroke-width="1" fill="none" fill-rule="evenodd">
        <g id="Become-Member" transform="translate(-1136.000000, -570.000000)" fill="#242728" fill-rule="nonzero">
            <path d="M1211,617.171472 L1211,635.799697 C1202.73228,635.799697 1195.05512,637.902883 1188.55906,640.60698 C1181.76772,643.311077 1176.15748,647.517451 1171.72835,652.62519 C1167.29921,657.732929 1163.75591,663.742033 1161.3937,670.352049 C1159.0315,677.262519 1157.85039,684.7739 1157.85039,692.585736 C1157.85039,700.397572 1159.0315,707.908953 1161.3937,714.819423 C1164.05118,721.429439 1167.59449,727.438543 1172.02362,732.546282 C1176.45276,737.654021 1182.35827,741.559939 1188.55906,744.564492 C1195.35039,747.268589 1202.73228,748.770865 1211,748.770865 L1211,768 C1199.77953,768 1189.44488,766.197269 1180.58661,762.291351 C1171.1378,758.385432 1163.46063,752.977238 1156.66929,746.066768 C1150.17323,739.456753 1145.15354,731.344461 1141.31496,722.330804 C1137.77165,713.016692 1136,703.402124 1136,692.585736 C1136,681.769347 1137.77165,672.15478 1141.61024,662.840668 C1145.15354,653.827011 1150.4685,645.714719 1157.25984,639.104704 C1163.75591,632.494689 1171.72835,627.086495 1180.58661,623.180577 C1190.03543,618.974203 1200.0748,617.171472 1211,617.171472 Z M1194.16929,574.206373 C1196.82677,576.91047 1198.30315,580.515933 1198.30315,585.022762 C1198.30315,589.229135 1196.82677,592.233687 1194.16929,595.23824 C1191.21654,597.942337 1187.67323,599.144158 1183.83465,599.144158 C1179.99606,599.144158 1176.74803,597.942337 1173.79528,595.23824 C1171.1378,592.534143 1169.66142,589.229135 1169.66142,585.022762 C1169.66142,580.515933 1171.1378,576.91047 1173.79528,574.206373 C1176.45276,571.502276 1179.99606,570 1183.83465,570 C1187.67323,570 1191.21654,571.201821 1194.16929,574.206373 Z" id="Combined-Shape"></path>
        </g>
    </g>
</svg>