<?xml version="1.0" encoding="utf-8"?>
<!-- Generator: Adobe Illustrator 21.0.0, SVG Export Plug-In . SVG Version: 6.00 Build 0)  -->
<svg version="1.1" id="Слой_1" xmlns="http://www.w3.org/2000/svg" xmlns:xlink="http://www.w3.org/1999/xlink" x="0px" y="0px"
	 viewBox="0 0 81.2 90" style="enable-background:new 0 0 81.2 90;" xml:space="preserve">
<style type="text/css">
	.st0{display:none;}
	.st1{display:inline;}
</style>
<g class="st0">
	<path class="st1" d="M219.4,709.7h-1237.8c-2.1,0-3.8-1.7-3.8-3.8V-481.2c0-2.1,1.7-3.8,3.8-3.8H219.4c2.1,0,3.8,1.7,3.8,3.8V706
		C223.2,708,221.5,709.7,219.4,709.7z"/>
</g>
<g>
	<g>
		<path d="M76.4,14.5v70.2c0,0.3-0.2,0.5-0.5,0.5H14.4c-0.3,0-0.5-0.2-0.5-0.5h-2.4H9.1c0,2.9,2.4,5.3,5.3,5.3h61.5
			c2.9,0,5.3-2.4,5.3-5.3V14.5c0-2.9-2.4-5.3-5.3-5.3v2.4v2.4C76.2,14.1,76.4,14.3,76.4,14.5z"/>
		<path d="M5.3,80.7h9.8h51.7c2.9,0,5.3-2.4,5.3-5.3V16.1V5.3C72,2.4,69.7,0,66.8,0H5.3C2.4,0,0,2.4,0,5.3v70.2
			C0,78.3,2.4,80.7,5.3,80.7z M39,4.8h16.8v17.6l-8.4-4.3L39,22.4C39,22.4,39,4.8,39,4.8z M4.8,5.3C4.8,5,5,4.8,5.3,4.8h29v25.4
			l13.2-6.7l13.2,6.7V4.8h6.2c0.3,0,0.5,0.2,0.5,0.5v70.2c0,0.3-0.2,0.5-0.5,0.5H5.3c-0.3,0-0.5-0.2-0.5-0.5
			C4.8,75.5,4.8,5.3,4.8,5.3z"/>
		<path d="M47.1,49.4c2.4,0,4.3-1.9,4.3-4.3s-1.9-4.3-4.3-4.3s-4.3,1.9-4.3,4.3C42.8,47.4,44.7,49.4,47.1,49.4z"/>
		<path d="M24.9,49.4c2.4,0,4.3-1.9,4.3-4.3s-1.9-4.3-4.3-4.3s-4.3,1.9-4.3,4.3C20.6,47.4,22.5,49.4,24.9,49.4z"/>
		<path d="M36,51.6c-4.8,0-8.6,3.9-8.6,8.6h3.9c0-2.6,2.1-4.7,4.7-4.7s4.7,2.1,4.7,4.7h3.9C44.6,55.5,40.8,51.6,36,51.6z"/>
	</g>
</g>
</svg>
