<svg id="Слой_1" data-name="Слой 1" xmlns="http://www.w3.org/2000/svg" viewBox="0 0 16 13.33"><defs><style>.cls-1{fill:#fff;}</style></defs><title>tw-icon</title><path id="Brid" class="cls-1" d="M16,2a8.57,8.57,0,0,1-2.13.69A4.31,4.31,0,0,0,15.47.53a10.94,10.94,0,0,1-1.72.95l-.41-.41A2.75,2.75,0,0,0,11.2,0,3.14,3.14,0,0,0,8,3.2a2.07,2.07,0,0,0,.06.51L8,3.73c-3.2,0-5.32-.68-6.93-2.67a3.16,3.16,0,0,0-.53,1.6,3.3,3.3,0,0,0,1.6,2.67A3.91,3.91,0,0,1,.53,4.8c0,1.59,2.23,3.43,3.73,3.73-.53.53-2.47,0-2.67,0a3.33,3.33,0,0,0,3.2,2.13A6.37,6.37,0,0,1,.78,12,6.9,6.9,0,0,1,0,12a10.28,10.28,0,0,0,5.33,1.37A8.82,8.82,0,0,0,14.4,4.27c0-.14,0-.39,0-.53A6.81,6.81,0,0,0,16,2Z"/></svg>