<?xml version="1.0" encoding="utf-8"?>
<!-- Generator: Adobe Illustrator 21.0.0, SVG Export Plug-In . SVG Version: 6.00 Build 0)  -->
<svg version="1.1" id="user" xmlns="http://www.w3.org/2000/svg" xmlns:xlink="http://www.w3.org/1999/xlink" x="0px" y="0px"
	 viewBox="0 0 51 51" style="enable-background:new 0 0 51 51;" xml:space="preserve">
<style type="text/css">
	.st0{fill:none;stroke:#B4BAC1;stroke-width:3;stroke-miterlimit:10;}
	.st1{fill:#B4BAC1;}
</style>
<path class="st0" d="M40.9,43.2v-7c0-1.5-0.6-2.9-1.6-3.8l-8.9-3.7c-0.4-0.2-0.7-0.4-1-0.7c-0.6-0.6-0.9-1.4-0.9-2.2v-0.3
	c-0.9,0.7-1.9,1.1-3,1.1s-2.1-0.4-3-1.1v0.3c0,0.9-0.4,1.7-0.9,2.2c-0.3,0.3-0.6,0.5-1,0.7l-8.9,3.7c-1,1-1.6,2.3-1.6,3.8v7
	 M32.2,15.2c0.9,0.3,1.5,1.1,1.5,2.1c0,1.9-1,3.5-2.2,3.5c-1.1,3.4-3.4,5.8-6,5.8s-4.9-2.3-6-5.8c-1.2-0.1-2.2-1.6-2.2-3.5
	c0-1,0.6-1.8,1.5-2.1v-1.9c0.4-3.3,3.2-5.9,6.7-5.9c3.4,0,6.3,2.6,6.7,5.9V15.2z"/>
<g>
	<path class="st1" d="M25.5,3C37.9,3,48,13.1,48,25.5S37.9,48,25.5,48S3,37.9,3,25.5S13.1,3,25.5,3 M25.5,0C11.4,0,0,11.4,0,25.5
		S11.4,51,25.5,51S51,39.6,51,25.5S39.6,0,25.5,0L25.5,0z"/>
</g>
</svg>
