<?xml version="1.0" encoding="UTF-8" standalone="no"?>
<svg width="36px" height="20px" viewBox="0 0 36 20" version="1.1" xmlns="http://www.w3.org/2000/svg" xmlns:xlink="http://www.w3.org/1999/xlink">
    <!-- Generator: Sketch 39 (31667) - http://www.bohemiancoding.com/sketch -->
    <title>vk_icon</title>
    <desc>Created with Sketch.</desc>
    <defs></defs>
    <g id="Page-1" stroke="none" stroke-width="1" fill="none" fill-rule="evenodd">
        <g id="vk_icon" fill="#a2a4a4">
            <g id="Layer_1">
                <g id="XMLID_1_">
                    <path d="M30.282659,12.6677457 C31.4498266,13.8072832 32.6817341,14.879422 33.7285549,16.1338728 C34.1909827,16.6913295 34.6287861,17.2665896 34.9636994,17.913526 C35.4382659,18.8331792 35.0084393,19.8452023 34.183815,19.9001156 L29.0578035,19.8978035 C27.7357225,20.0075145 26.6810405,19.4752601 25.7942197,18.5713295 C25.0845087,17.8484393 24.4272832,17.0790751 23.7448555,16.3317919 C23.4650867,16.0263584 23.1722543,15.7389595 22.8224277,15.5117919 C22.122659,15.0575723 21.5152601,15.1966474 21.1153757,15.926474 C20.7080925,16.6687861 20.6157225,17.4907514 20.5757225,18.3180347 C20.5208092,19.5250867 20.1559538,19.8424277 18.9434682,19.8976879 C16.3522543,20.0198844 13.8930636,19.6278613 11.6085549,18.3206936 C9.59445087,17.1683237 8.03260116,15.5415029 6.67317919,13.6997688 C4.02635838,10.113526 1.99942197,6.17283237 0.177687861,2.1217341 C-0.232369942,1.20901734 0.0675144509,0.719075145 1.07456647,0.701734104 C2.74682081,0.669248555 4.41884393,0.671560694 6.09306358,0.699421965 C6.77271676,0.709364162 7.22265896,1.09919075 7.48508671,1.74127168 C8.38982659,3.96589595 9.49687861,6.08242775 10.886474,8.04427746 C11.2565318,8.5665896 11.6338728,9.08890173 12.1712139,9.45653179 C12.7656647,9.86358382 13.2182659,9.72867052 13.4979191,9.06647399 C13.6753757,8.6465896 13.7530636,8.19433526 13.7930636,7.74462428 C13.9255491,6.19745665 13.9430058,4.65294798 13.7106358,3.11121387 C13.5679769,2.14901734 13.0260116,1.52612717 12.065896,1.34404624 C11.5759538,1.25121387 11.6489017,1.06890173 11.8861272,0.789248555 C12.2981503,0.306936416 12.6856647,0.00670520231 13.4581503,0.00670520231 L19.2513295,0.00670520231 C20.1633526,0.186705202 20.365896,0.596416185 20.4907514,1.51410405 L20.4957225,7.94913295 C20.4857803,8.30439306 20.6731792,9.35861272 21.3130636,9.59375723 C21.8252023,9.76115607 22.1627746,9.35144509 22.4700578,9.0267052 C23.8571098,7.55456647 24.847052,5.81479769 25.7314451,4.0132948 C26.1239306,3.22115607 26.4613873,2.39849711 26.7884393,1.57653179 C27.0307514,0.966589595 27.4109827,0.666473988 28.0980347,0.679768786 L33.6736416,0.684739884 C33.8389595,0.684739884 34.0062428,0.68716763 34.1663584,0.714566474 C35.105896,0.874682081 35.3633526,1.27884393 35.0731792,2.19630058 C34.6159538,3.63572254 33.7263584,4.83526012 32.8565318,6.04034682 C31.9267052,7.32693642 30.9322543,8.56947977 30.0101734,9.86369942 C29.1630058,11.0455491 29.230289,11.6412717 30.282659,12.6677457 L30.282659,12.6677457 L30.282659,12.6677457 Z" id="XMLID_807_"></path>
                </g>
            </g>
        </g>
    </g>
</svg>