<?xml version="1.0" encoding="UTF-8"?>
<svg width="24px" height="24px" viewBox="0 0 24 24" version="1.1" xmlns="http://www.w3.org/2000/svg" xmlns:xlink="http://www.w3.org/1999/xlink">
    <!-- Generator: Sketch 53 (72520) - https://sketchapp.com -->
    <title>Icon / Reader / LQ</title>
    <desc>Created with Sketch.</desc>
    <g id="Icon-/-Reader-/-LQ" stroke="none" stroke-width="1" fill="none" fill-rule="evenodd">
        <path d="M5.55502131,16 L5.55502131,7.43359375 L7.37142756,7.43359375 L7.37142756,14.5 L10.8460369,14.5 L10.8460369,16 L5.55502131,16 Z M19.8476562,11.7050781 C19.8476562,12.7128957 19.6689471,13.5576138 19.3115234,14.2392578 C18.9540998,14.9209018 18.429691,15.4199203 17.7382812,15.7363281 L19.8007812,18.0390625 L17.4746094,18.0390625 L15.9042969,16.1171875 L15.7695312,16.1171875 C14.4570247,16.1171875 13.4492223,15.7363319 12.7460938,14.9746094 C12.0429652,14.2128868 11.6914062,13.1191478 11.6914062,11.6933594 C11.6914062,10.267571 12.0439418,9.1787147 12.7490234,8.42675781 C13.4541051,7.67480093 14.4648372,7.29882812 15.78125,7.29882812 C17.0976628,7.29882812 18.1044887,7.67773059 18.8017578,8.43554688 C19.4990269,9.19336316 19.8476562,10.283196 19.8476562,11.7050781 Z M13.5957031,11.7050781 C13.5957031,12.6621142 13.7773419,13.3828101 14.140625,13.8671875 C14.5039081,14.3515649 15.0468714,14.59375 15.7695312,14.59375 C17.2187572,14.59375 17.9433594,13.630869 17.9433594,11.7050781 C17.9433594,9.77538098 17.2226635,8.81054688 15.78125,8.81054688 C15.0585901,8.81054688 14.5136737,9.05370851 14.1464844,9.54003906 C13.779295,10.0263696 13.5957031,10.7480421 13.5957031,11.7050781 Z" id="LQ" fill="#B4BAC1" fill-rule="nonzero"></path>
    </g>
</svg>