<?xml version="1.0" encoding="UTF-8"?>
<svg width="24px" height="24px" viewBox="0 0 24 24" version="1.1" xmlns="http://www.w3.org/2000/svg" xmlns:xlink="http://www.w3.org/1999/xlink">
    <!-- Generator: Sketch 53 (72520) - https://sketchapp.com -->
    <title>Icon / Reader / Share</title>
    <desc>Created with Sketch.</desc>
    <g id="Icon-/-Reader-/-Share" stroke="none" stroke-width="1" fill="none" fill-rule="evenodd">
        <path d="M13,3.41876944 L13,7 L19.0049107,7 C20.1067681,7 21,7.89451375 21,8.9940603 L21,21.0059397 C21,22.1072288 20.1073772,23 19.0049107,23 L4.99508929,23 C3.8932319,23 3,22.1054863 3,21.0059397 L3,8.9940603 C3,7.8927712 3.8926228,7 4.99508929,7 L11,7 L11,3.41552955 L9.87053875,4.5449908 C9.4836159,4.93191365 8.8560931,4.9317168 8.46284615,4.53846985 C8.07232185,4.14794555 8.074627,3.51247545 8.4563252,3.13077724 L11.2977943,0.28930819 C11.4901863,0.096916105 11.7420652,0.00023702 11.9950505,0 L12.0026831,0.00298538 C12.2566464,0.00352716 12.5091764,0.09951867 12.6989659,0.28930819 L15.5404349,3.13077724 C15.9273578,3.5177001 15.9271609,4.14522288 15.533914,4.53846985 C15.1433896,4.92899415 14.5079196,4.926689 14.1262213,4.5449908 L13,3.41876944 Z M11,9 L5,9 L5,21 L19,21 L19,9 L13,9 L13,13.0014976 C13,13.5529553 12.5561352,14 12,14 C11.4477152,14 11,13.5525105 11,13.0014976 L11,9 Z M8,7 L8,9 L16,9 L16,7 L8,7 Z M11,7 L13,7 L13,9 L11,9 L11,7 Z" id="Shape" fill="#B4BAC1"></path>
    </g>
</svg>