<?xml version="1.0" encoding="UTF-8"?>
<svg width="24px" height="24px" viewBox="0 0 24 24" version="1.1" xmlns="http://www.w3.org/2000/svg" xmlns:xlink="http://www.w3.org/1999/xlink">
    <!-- Generator: Sketch 53 (72520) - https://sketchapp.com -->
    <title>Icon / Reader / ZoomOut</title>
    <desc>Created with Sketch.</desc>
    <g id="Icon-/-Reader-/-ZoomOut" stroke="none" stroke-width="1" fill="none" fill-rule="evenodd">
        <path d="M14.5,19 C9.25329488,19 5,14.7467051 5,9.5 C5,4.25329488 9.25329488,0 14.5,0 C19.7467051,0 24,4.25329488 24,9.5 C24,14.7467051 19.7467051,19 14.5,19 Z M14.5,16.5 C18.3659932,16.5 21.5,13.3659932 21.5,9.5 C21.5,5.63400675 18.3659932,2.5 14.5,2.5 C10.6340068,2.5 7.5,5.63400675 7.5,9.5 C7.5,13.3659932 10.6340068,16.5 14.5,16.5 Z M6.48528137,18.5147186 C7.17157288,19.2010101 7.17157288,20.3137085 6.48528137,21 L4,23.4852814 C3.3137085,24.1715729 2.20101013,24.1715729 1.51471863,23.4852814 C0.828427125,22.7989899 0.828427125,21.6862915 1.51471863,21 L4,18.5147186 C4.6862915,17.8284271 5.79898987,17.8284271 6.48528137,18.5147186 Z M13.4193626,8.50915124 L15.3141992,8.50915124 L18.3667809,8.50915124 L18.3667809,10.4038382 L15.3141992,10.4038382 L13.4193626,10.4038382 L10.3667809,10.4038382 L10.3667809,8.50915124 L13.4193626,8.50915124 Z" id="Combined-Shape" fill="#B4BAC1" transform="translate(12.500000, 12.000000) scale(-1, 1) translate(-12.500000, -12.000000) "></path>
    </g>
</svg>