<?xml version="1.0" standalone="no"?>
<!DOCTYPE svg PUBLIC "-//W3C//DTD SVG 1.1//EN" "http://www.w3.org/Graphics/SVG/1.1/DTD/svg11.dtd" >
<svg xmlns="http://www.w3.org/2000/svg" xmlns:xlink="http://www.w3.org/1999/xlink" version="1.1">
<metadata></metadata>
<defs>
<font id="letosansthin" horiz-adv-x="1318" >
<font-face units-per-em="2048" ascent="1473" descent="-575" />
<missing-glyph horiz-adv-x="614" />
<glyph unicode="fk" horiz-adv-x="2033" d="M102 952v86l187 11v122q0 80 26 152q27 66 78 123q63 55 131 82q76 29 174 28q123 0 228 -32q104 -41 180 -97v-835l291 20l364 432h137l-399 -469l463 -575h-137l-406 510h-313v-510h-105v1372q-59 47 -135 66q-70 23 -159 22q-147 0 -230 -76q-84 -74 -84 -215v-125 h371v-92h-371v-952h-104v952h-187z" />
<glyph unicode="ff" horiz-adv-x="1507" d="M102 952v86l187 11v88q0 82 26 153q27 74 76 127q53 57 127 86q74 33 176 33q119 0 199 -27q86 -29 156 -79q109 127 313 126q80 0 158 -20q74 -27 131 -59l-49 -80q-49 33 -111 49q-61 18 -121 18q-143 0 -223 -80q-82 -80 -82 -239v-101h371v-92h-371v-952h-104v952 h-568v-952h-104v952h-187zM393 1044h568v103q0 51 10 113q10 57 30 96q-72 47 -145 65q-66 23 -160 23q-141 0 -221 -82q-82 -82 -82 -227v-91z" />
<glyph unicode="fi" horiz-adv-x="1181" d="M102 952v86l187 11v116q0 82 26 154q27 74 76 127q51 55 125 88t172 33q117 0 209 -31q86 -27 164 -88l-60 -78q-74 55 -145 76q-74 25 -160 24q-141 0 -221 -79q-82 -80 -82 -228v-119h625v-1044h-107v952h-518v-952h-104v952h-187z" />
<glyph unicode="fj" horiz-adv-x="1181" d="M102 952v86l187 11v116q0 82 26 154q27 74 76 127q51 55 125 88t172 33q117 0 209 -31q86 -27 164 -88l-60 -78q-74 55 -145 76q-74 25 -160 24q-141 0 -221 -79q-82 -80 -82 -228v-119h625v-1140q0 -182 -88 -295q-92 -111 -264 -111q-57 0 -129 15q-74 20 -121 49 l43 84q96 -53 203 -54q117 0 184 76q68 78 67 240v1044h-520v-952h-104v952h-187z" />
<glyph unicode="fl" horiz-adv-x="1269" d="M102 952v86l187 11v122q0 80 26 152q27 66 78 123q63 55 131 82q76 29 174 28q123 0 228 -32q104 -41 180 -97v-1427h-105v1372q-59 47 -135 66q-70 23 -159 22q-147 0 -230 -76q-84 -74 -84 -215v-125h371v-92h-371v-952h-104v952h-187z" />
<glyph unicode="fh" horiz-adv-x="2162" d="M102 952v86l187 11v122q0 80 26 152q27 66 78 123q63 55 131 82q76 29 174 28q123 0 228 -32q104 -41 180 -97v-663q63 141 176 223q115 82 299 82q193 0 303 -115q115 -115 115 -327v-627h-105v604q0 190 -88 285q-94 88 -251.5 88t-272.5 -105q-115 -109 -176 -294 v-578h-105v1372q-59 47 -135 66q-70 23 -159 22q-147 0 -230 -76q-84 -74 -84 -215v-125h371v-92h-371v-952h-104v952h-187z" />
<glyph unicode="ft" horiz-adv-x="1611" d="M102 952v86l187 11v122q0 84 26 152q27 74 78 127q59 55 131 86q74 31 174 31q104 0 207 -27q98 -31 172 -82l-24 -414h426v-92h-420v-618q0 -143 59 -203q57 -57 174 -57q125 0 219 73l50 -79q-51 -41 -125 -68q-72 -25 -150 -25q-160 0 -246 88.5t-86 274.5v614h-561 v-952h-104v952h-187zM393 1044h545l43 353q-57 39 -127 57q-76 16 -147 16q-147 0 -230 -79q-84 -80 -84 -222v-125z" />
<glyph unicode="&#x456;&#x457;" horiz-adv-x="868" d="M-61 1393q0 39 28 67q27 27 68 27t67 -27q29 -29 29 -67q0 -41 -29 -70q-29 -25 -67.5 -25t-67.5 25q-29 29 -28 70zM164 0v1044h106v-1044h-106zM324 1393q0 45 32 75q31 31 78 31t78 -31q33 -31 33 -75q0 -47 -33 -78q-33 -29 -78 -29t-78 29q-33 31 -32 78zM598 0 v1044h107v-1044h-107zM737 1393q0 39 29 67q27 27 67.5 27t67.5 -27q29 -29 29 -67q0 -41 -29 -70q-29 -25 -67.5 -25t-67.5 25q-29 29 -29 70z" />
<glyph unicode="&#x17f;l" horiz-adv-x="985" d="M164 0v1171q0 74 20 152q27 82 70 127q41 49 117 86q72 31 172 31q86 0 153 -19q61 -18 125 -53v-1495h-104v1438q-43 18 -82 26q-47 10 -92 11q-137 0 -207 -80q-68 -80 -68 -217v-1178h-104z" />
<glyph unicode="&#x17f;k" horiz-adv-x="1748" d="M164 0v1171q0 74 20 152q27 82 70 127q41 49 117 86q72 31 172 31q86 0 153 -19q61 -18 125 -53v-903l291 20l365 432h137l-400 -469l463 -575h-137l-405 510h-314v-510h-104v1438q-43 18 -82 26q-47 10 -92 11q-137 0 -207 -80q-68 -80 -68 -217v-1178h-104z" />
<glyph unicode="&#x17f;&#x17f;" horiz-adv-x="1062" d="M164 0v1141q0 80 24 153q27 74 74 125q47 55 119 84q66 33 162 33q94 0 157 -20q66 -16 136 -60q47 47 108.5 73.5t147.5 26.5q90 0 157 -20q70 -20 133 -63l-55 -84q-53 33 -110 55q-59 20 -125 20q-125 0 -189 -80q-66 -78 -65 -225v-1159h-105v1157q0 129 45 217 q-57 37 -106 51q-55 18 -127 19q-121 0 -201 -80q-76 -82 -76 -225v-1139h-104z" />
<glyph unicode="&#x17f;i" horiz-adv-x="987" d="M164 0v1161q0 80 24 154q20 70 70 129q47 53 123 88q72 33 172 33q186 0 324 -95l-56 -77q-57 37 -125 57q-74 23 -143 23q-131 0 -207 -80q-78 -78 -78 -226v-1167h-104zM717 0v1044h106v-1044h-106z" />
<glyph unicode="&#x17f;h" horiz-adv-x="1878" d="M164 0v1171q0 74 20 152q27 82 70 127q41 49 117 86q72 31 172 31q86 0 153 -19q61 -18 125 -53v-731q66 145 178 223q109 82 297 82q186 0 306 -115q113 -119 112 -327v-627h-104v604q0 195 -90 285q-88 88 -250 88q-160 0 -273 -105q-115 -109 -176 -294v-578h-104 v1438q-43 18 -82 26q-47 10 -92 11q-137 0 -207 -80q-68 -80 -68 -217v-1178h-104z" />
<glyph unicode="&#x17f;t" horiz-adv-x="1353" d="M164 0v1171q0 74 20 152q27 82 70 127q41 49 117 86q72 31 172 31q86 0 153.5 -18.5t122.5 -53.5l-24 -451h426v-92h-420v-618q0 -143 59 -203q57 -57 174 -57q125 0 219 73l50 -79q-51 -41 -125 -68q-72 -25 -150 -25q-160 0 -246 88.5t-86 274.5v614h-188v82l172 13 l41 389q-72 39 -178 39q-137 0 -207 -80q-68 -80 -68 -217v-1178h-104z" />
<glyph unicode=" "  horiz-adv-x="614" />
<glyph unicode="&#x09;" horiz-adv-x="614" />
<glyph unicode="&#xa0;" horiz-adv-x="614" />
<glyph unicode="!" horiz-adv-x="458" d="M123 90q0 45 31 74q32 29 75 29t76 -29q31 -29 31 -74t-31 -74q-33 -29 -76 -28.5t-75 28.5q-31 29 -31 74zM176 387v1120h107v-1120h-107z" />
<glyph unicode="&#x22;" horiz-adv-x="557" d="M113 1069v332h96v-62l-31 -270h-65zM348 1069v332h96v-62l-30 -270h-66z" />
<glyph unicode="#" horiz-adv-x="1282" d="M123 479v84h239l50 295h-258v84l272 6l43 260l90 -14l-41 -246h313l43 260l89 -12l-41 -248l237 -6v-84h-252l-47 -295h268v-84l-282 -6l-43 -270l-90 14l41 256h-314l-43 -260l-88 12l39 248zM455 563h313l49 295h-313z" />
<glyph unicode="$" horiz-adv-x="1349" d="M133 131l55 84q121 -88 234 -117q106 -33 229 -32q213 0 332 81q117 82 117 215q0 102 -76 175q-78 70 -233 90l-242 30q-170 20 -266 105q-92 86 -93 235q0 76 31 140q35 66 90 112q61 51 135 74q70 29 175 35v256h96v-256q106 -6 225 -39q117 -37 203 -100l-55 -80 q-82 55 -195 94q-115 33 -225 33q-102 0 -166 -21q-70 -20 -119 -57q-47 -37 -66 -82q-23 -45 -22 -107q0 -117 76 -174q74 -59 205 -73l229 -31q178 -25 291 -115q109 -90 108 -248q0 -82 -35 -145q-29 -61 -94 -117q-61 -49 -155 -84q-84 -29 -205 -39v-245h-103v243 q-127 4 -245 43q-121 39 -236 117z" />
<glyph unicode="%" horiz-adv-x="1548" d="M102 1005.5q0 59.5 23 114.5q23 53 63 92q35 39 95 62q57 22 120.5 22t120.5 -22q59 -23 94 -62q41 -39 64 -92q23 -55 23 -114.5t-23 -114.5q-23 -53 -64 -92q-35 -39 -94 -62q-57 -23 -120.5 -22.5t-120.5 22.5q-59 23 -95 62q-41 39 -63 92q-23 55 -23 114.5z M201 1006q0 -92 55 -149.5t147 -57.5q96 0 148 57q53 59 53 150q0 92 -55 149q-51 57 -145.5 57t-149.5 -57q-53 -59 -53 -149zM240 47l1017 1253l74 -61l-1018 -1253zM874 298.5q0 59.5 23 115.5q18 47 61 92q45 41 97 61q57 23 120.5 23t120.5 -23q51 -20 97 -61 q43 -45 61 -92q23 -55 23 -114.5t-23 -115.5q-18 -47 -61 -92q-45 -41 -97 -61q-57 -23 -120.5 -23t-120.5 23q-51 20 -97 61q-43 45 -61 92q-23 55 -23 114.5zM973 299.5q0 -90.5 55 -149.5q55 -57 148 -58q96 0 147 58q53 59 53 149t-53 150q-55 57 -147 57 q-96 0 -148 -57q-55 -59 -55 -149.5z" />
<glyph unicode="&#x26;" horiz-adv-x="1499" d="M143 438q0 125 58 221q57 94 159 160q-25 45 -32 90q-12 53 -13 99q0 70 27 135q29 66 80 112q57 51 137 78q86 29 193 29q123 0 227 -43q106 -45 172 -123l-70 -68q-66 74 -149 109q-80 33 -182 33q-86 0 -148 -21q-66 -23 -102 -57q-39 -33 -62 -82q-18 -49 -18 -104 q0 -66 33 -129q35 -68 88 -123l514 -545q82 82 133 217q45 141 45 303h102q0 -184 -57 -335.5t-160 -252.5l152 -159l-74 -76l-160 170q-152 -104 -356 -105q-123 0 -227 35q-96 33 -170 96q-70 68 -103 150q-37 86 -37 186zM248 440q0 -78 31 -145q29 -68 86 -121 q59 -53 139 -80q82 -31 186 -31q166 0 285 80l-561 605q-166 -100 -166 -308z" />
<glyph unicode="'" horiz-adv-x="325" d="M113 1028v373h100v-62l-35 -311h-65z" />
<glyph unicode="(" horiz-adv-x="587" d="M123 547q0 250 86 465q86 211 276 391l62 -60q-160 -168 -240 -360q-78 -193 -78 -436q0 -215 78 -412q78 -190 240 -385l-62 -59q-166 160 -264 372q-98 211 -98 484z" />
<glyph unicode=")" horiz-adv-x="587" d="M41 -250q164 172 238 361q80 190 79 436q0 219 -79 411q-74 186 -238 385l61 60q166 -160 265 -373q98 -211 98 -483q0 -250 -86 -465q-86 -211 -277 -391z" />
<glyph unicode="*" horiz-adv-x="833" d="M123 977l209 147l-209 148l59 76l199 -164l78 248l94 -33l-102 -240l260 17v-103l-260 17l102 -240l-94 -33l-78 248l-199 -164z" />
<glyph unicode="+" horiz-adv-x="1067" d="M143 653v92h340v361h101v-361h340v-92h-340v-360h-101v360h-340z" />
<glyph unicode="," horiz-adv-x="458" d="M123 90q0 45 31 74q33 29 75.5 29t75.5 -29q31 -29 31 -74q0 -18 -10 -49l-115 -287l-61 21l61 215q-39 6 -64 33t-24 67z" />
<glyph unicode="-" horiz-adv-x="903" d="M143 535v94h617v-94h-617z" />
<glyph unicode="." horiz-adv-x="458" d="M123 90q0 45 31 74q32 29 75 29t76 -29q31 -29 31 -74t-31 -74q-33 -29 -76 -28.5t-75 28.5q-31 29 -31 74z" />
<glyph unicode="/" horiz-adv-x="829" d="M16 -127l684 1647l97 -39l-684 -1647z" />
<glyph unicode="0" horiz-adv-x="1576" d="M123 686q0 150 49 281q45 131 135 227q92 98 211 152q123 55 270.5 55t272.5 -53q119 -53 211 -152q88 -94 135 -225q47 -135 47 -285q0 -143 -47 -278q-47 -133 -135 -228q-92 -98 -211 -151q-121 -57 -272.5 -57.5t-274.5 55.5q-121 55 -211 153q-88 96 -133 226 q-47 135 -47 280zM229 686q0 -129 39 -240q41 -115 113 -196q72 -84 176 -133q102 -49 231 -49q135 0 232 47q100 41 176 127q72 84 113 196q39 115 39 248t-39 248q-41 113 -113 196q-76 86 -176 127q-97 48 -232 48q-131 0 -235 -48q-104 -49 -176 -133q-70 -84 -111 -196 q-37 -113 -37 -242z" />
<glyph unicode="1" horiz-adv-x="716" d="M102 1073l361 305l69 -6v-1372h-104v1208l-260 -215z" />
<glyph unicode="2" horiz-adv-x="1286" d="M143 1221q106 100 234 139q129 41 268 41q115 0 201 -33t153 -90q66 -63 99 -139q35 -82 35 -172q0 -135 -64 -250q-72 -113 -195 -207l-552 -416h811v-94h-979v90l634 481q123 92 183 191q55 94 55 201q0 154 -100 245q-96 96 -289 97q-123 0 -227 -37 q-106 -35 -203 -117z" />
<glyph unicode="3" horiz-adv-x="1320" d="M102 168l64 78q104 -92 215 -135q104 -45 256 -45q100 0 184 24q82 27 140 70q55 41 88 102q31 57 30 127q0 133 -84 205q-78 76 -247 76h-336v92h331q61 0 117 20q49 25 82 58q33 37 45 82q16 41 17 100q0 61 -21 108q-20 53 -65 93q-47 41 -115 61q-74 23 -168 23 q-104 0 -203 -35q-86 -31 -188 -113l-60 74q100 88 213 127q117 41 250 41q119 0 205 -33q90 -35 143 -86q51 -43 86 -117q27 -70 27 -133q0 -98 -39 -174q-41 -76 -117 -117v-20q106 -33 174 -125q61 -88 62 -207q0 -84 -39 -160q-39 -74 -111 -133q-61 -51 -174 -92 q-109 -33 -229 -33q-160 0 -287 45q-131 49 -246 152z" />
<glyph unicode="4" horiz-adv-x="1404" d="M102 270v86l834 1016h170v-1007h207v-84l-207 -17v-264h-102v270h-902zM233 365h771v895h-43z" />
<glyph unicode="5" horiz-adv-x="1298" d="M113 154l65 73q100 -88 209 -125q104 -39 238 -39q88 0 174 27q88 33 139 78q55 45 94 119q33 72 33 149.5t-25 145.5q-25 66 -73 118q-51 51 -123 78q-80 29 -178 29q-117 0 -220 -29q-100 -33 -165 -88l-78 25l65 657h805v-94h-721l-41 -473q76 49 160 69q94 23 213 23 q113 0 199 -33q88 -33 151 -94q66 -59 96 -143q35 -78 35 -189q0 -100 -39 -180q-37 -84 -110 -149q-68 -61 -176 -101q-102 -37 -234 -37q-295 0 -493 183z" />
<glyph unicode="6" horiz-adv-x="1347" d="M123 674q0 162 43 293q45 135 123 229q82 100 196 152q119 53 265 53q121 0 225 -37q104 -39 184 -104l-61 -76q-72 59 -158 92t-205 33q-94 0 -186 -35q-88 -37 -160 -109q-66 -66 -115 -182q-43 -106 -49 -258q90 90 213 135q129 47 279 47q115 0 209 -30 q92 -33 159 -93q66 -59 103 -145t37 -193q0 -102 -41 -184q-35 -86 -111 -151q-70 -63 -172 -103q-102 -37 -219 -37q-129 0 -231 45q-106 49 -177 136q-76 92 -110 219q-41 125 -41 303zM227 627q0 -147 39 -250q35 -104 99 -176q63 -70 145 -103q78 -35 172 -35 q98 0 178 31q86 29 139 82q55 45 93 121q33 68 32 147q0 178 -112 273q-111 98 -312 98q-127 0 -251 -45q-122 -49 -222 -143z" />
<glyph unicode="7" horiz-adv-x="1200" d="M113 1280v92h974v-76l-614 -1296h-115l615 1280h-860z" />
<glyph unicode="8" horiz-adv-x="1343" d="M123 397q0 127 63 234q66 113 181 170q-70 41 -101 108q-35 61 -35 144q0 66 31 131q29 66 86 110q61 51 139 78q87 29 185 29q113 0 192 -29q82 -23 148 -76q59 -49 90 -114q33 -63 33 -142q0 -100 -43 -186q-43 -84 -129 -143q121 -45 192 -129q66 -88 66 -203 q0 -76 -33 -154q-39 -76 -104.5 -129t-174.5 -92q-115 -33 -250 -33q-129 0 -227 33q-102 35 -170 90q-70 59 -102 135q-37 78 -37 168zM223 401q0 -74 31 -135q29 -61 90 -110q59 -45 139 -70q80 -27 187 -27q117 0 196 27q86 27 140 70q51 39 84 102q27 63 26 125 q0 106 -82 182q-80 74 -280 115l-168 33q-45 8 -66 16q-14 2 -61 19q-121 -53 -176 -146q-59 -86 -60 -201zM336 1047q0 -90 63 -154q66 -66 211 -92l162 -31q41 -6 94 -22q82 49 129 124q39 74 39 164q0 57 -20 105q-23 51 -66 88q-47 41 -112 61q-74 23 -164 23 q-82 0 -150 -23q-63 -20 -104 -59q-43 -37 -62 -84q-20 -47 -20 -100z" />
<glyph unicode="9" horiz-adv-x="1347" d="M123 920q0 100 37 190q43 94 108 152q68 63 166 102q94 37 211 37q281 0 428 -184q152 -178 152 -519q0 -158 -41 -293t-123 -229q-82 -100 -199 -151q-123 -53 -274 -54q-119 0 -234 35q-106 33 -190 107l61 73q74 -63 164 -92q90 -31 213 -31q102 0 197 35 q86 31 164 107q70 74 112.5 180.5t48.5 255.5q-88 -88 -215 -137q-125 -47 -278 -47q-115 0 -209 30q-94 35 -159.5 94.5t-102.5 143.5q-37 86 -37 195zM223 922q0 -176 113 -275q111 -98 311 -98q131 0 252 49q121 53 221 147q0 143 -36.5 250t-100.5 176q-63 72 -147 103 q-84 35 -191 35q-96 0 -172 -31q-80 -29 -133 -82q-55 -49 -86 -123q-31 -68 -31 -151z" />
<glyph unicode=":" horiz-adv-x="458" d="M123 90q0 45 31 74q32 29 75 29t76 -29q31 -29 31 -74t-31 -74q-33 -29 -76 -28.5t-75 28.5q-31 29 -31 74zM123 840q0 45 31 73q32 29 75 29t76 -29q31 -29 31 -73.5t-31 -73.5q-33 -29 -76 -29t-75 29q-31 29 -31 74z" />
<glyph unicode=";" horiz-adv-x="458" d="M123 90q0 45 31 74q33 29 75.5 29t75.5 -29q31 -29 31 -74q0 -18 -10 -49l-115 -287l-61 21l61 215q-39 6 -64 33t-24 67zM123 840q0 45 31 73q32 29 75 29t76 -29q31 -29 31 -73.5t-31 -73.5q-33 -29 -76 -29t-75 29q-31 29 -31 74z" />
<glyph unicode="&#x3c;" horiz-adv-x="761" d="M102 705v53l457 377l59 -70l-391 -332l387 -336l-57 -69z" />
<glyph unicode="=" horiz-adv-x="958" d="M143 481v88h672v-88h-672zM143 825v88h672v-88h-672z" />
<glyph unicode="&#x3e;" horiz-adv-x="761" d="M143 397l392 332l-388 336l58 70l454 -377v-53l-456 -377z" />
<glyph unicode="?" horiz-adv-x="1247" d="M123 1335q113 92 229 131q129 41 279 41q104 0 196 -28q94 -31 158 -86q66 -53 102 -127q37 -78 37 -168q0 -150 -88 -256q-88 -111 -266 -156q-113 -27 -156 -80q-41 -57 -41 -117q0 -16 5 -49q2 -20 10 -47l-92 -14q-25 55 -25 123q0 94 66 166q66 70 190 102 q86 23 141 57q45 25 90 74q35 47 46 92q14 45 14 105q0 147 -105 233q-102 84 -282 84q-262 0 -449 -155zM438 90q0 45 31 74q33 29 76 29t76 -29q31 -29 30.5 -74t-30.5 -74q-33 -29 -76 -28.5t-76 28.5q-31 29 -31 74z" />
<glyph unicode="@" horiz-adv-x="1814" d="M133 508q0 147 60 291q61 143 167 248q102 106 258 174q152 63 334 63q158 0 289 -43q137 -47 232 -133q100 -90 153 -219q55 -129 55 -303q0 -96 -22 -166q-16 -68 -62 -133q-39 -53 -100 -86q-57 -33 -137 -33q-178 0 -221 145q-49 -80 -115 -120q-70 -41 -176 -41 q-154 0 -240 94t-86 258q0 94 31 168q35 80 88 127q49 49 129 82q84 27 162 26q82 0 145 -14q76 -16 137 -45v-426q0 -90 41 -131q39 -39 109 -39q43 0 84 22q39 25 68 68q33 45 47 104q16 66 16 136q0 137 -39 247.5t-117 194.5q-76 80 -194 123q-117 45 -277 45 q-170 0 -303 -55q-135 -57 -225 -150q-92 -96 -141 -217q-47 -129 -47 -262q0 -143 47 -262q45 -117 131 -203q92 -88 204 -129q115 -47 265 -47q162 0 293 31q125 27 258 82l32 -89q-141 -63 -274 -88q-131 -29 -309 -28q-162 0 -301 49q-139 53 -238 145q-98 94 -156 232 q-55 135 -55 307zM623 510q0 -137 65 -203q61 -66 162 -65q57 0 104 20q49 23 84 57q33 31 60 87q20 55 20 110v270q-45 16 -92 25q-45 6 -94 6q-59 0 -115 -18q-53 -14 -98 -54q-39 -33 -70 -94q-27 -59 -26 -141z" />
<glyph unicode="A" horiz-adv-x="1533" d="M92 0l600 1376h150l600 -1376h-113l-149 346h-828l-149 -346h-111zM393 442h744l-355 826h-32z" />
<glyph unicode="B" horiz-adv-x="1380" d="M184 0v1372h547q109 0 199 -29q82 -27 139 -77q57 -45 86 -111q29 -68 29 -133q0 -90 -39 -166q-41 -80 -119 -119v-20q51 -14 96 -45q43 -31 76 -76t51 -100q18 -57 19 -121q0 -78 -31 -146q-27 -63 -88 -118q-55 -49 -150 -82q-92 -29 -211 -29h-604zM291 94h497 q182 0 277 78q94 80 94 209q0 133 -90 211q-86 80 -264 80h-514v-578zM291 764h502q80 0 131 18q51 20 88 58q29 33 49 82q14 57 14 104q0 252 -352 252h-432v-514z" />
<glyph unicode="C" horiz-adv-x="1499" d="M123 682q0 158 53 285q47 129 150 227q100 96 237 151.5t311 55.5q63 0 132 -12q63 -12 133 -37q61 -20 123 -56q74 -45 104 -71l-57 -76q-188 158 -455 158q-141 0 -252 -45q-117 -47 -196 -127q-84 -80 -127 -195q-47 -109 -48 -254q0 -150 48 -258q41 -109 127 -195 q86 -84 196 -124q115 -43 246 -43q141 0 266 47q117 45 219 133l64 -72q-225 -203 -559 -203q-160 0 -289 49q-129 47 -227 140q-98 94 -146 225q-53 125 -53 297z" />
<glyph unicode="D" horiz-adv-x="1505" d="M184 0v1372h475q168 0 299 -49q133 -53 228 -143q90 -84 145 -217q51 -121 51 -277q0 -145 -53 -276q-53 -123 -149 -217q-94 -88 -230 -142q-133 -51 -297 -51h-469zM291 96h362q135 0 248 41q111 39 197 117q80 74 131 186q45 113 45 246q0 145 -45 254 q-43 111 -125 186q-84 74 -197 111q-111 39 -256 39h-360v-1180z" />
<glyph unicode="E" d="M184 0v1372h963v-92h-856v-522h747v-92h-747v-572h895v-94h-1002z" />
<glyph unicode="F" horiz-adv-x="1245" d="M184 0v1372h938v-94h-831v-543h721v-92h-721v-643h-107z" />
<glyph unicode="G" horiz-adv-x="1542" d="M123 682q0 154 53 281q47 125 148 229q96 96 233 151q135 57 307 58q133 0 258 -41q127 -37 226 -113l-54 -78q-90 68 -200 101q-117 37 -240 37q-143 0 -252 -45q-117 -43 -196 -123q-82 -78 -130 -197q-45 -111 -45 -256q0 -152 48 -260q43 -115 126.5 -197 t196.5 -122.5t248 -40.5q137 0 252 36q111 41 192 101v395l-374 14v82h479v-536q-96 -84 -240 -138q-141 -49 -317 -49q-164 0 -293 49q-129 47 -227 140q-98 94 -146 225q-53 125 -53 297z" />
<glyph unicode="H" horiz-adv-x="1501" d="M184 0v1372h107v-620h919v620h107v-1372h-107v657h-919v-657h-107z" />
<glyph unicode="I" horiz-adv-x="475" d="M184 0v1372h107v-1372h-107z" />
<glyph unicode="J" horiz-adv-x="1107" d="M92 92l51 82q149 -108 319 -108h3q66 0 141 20q68 27 111 70q45 45 74 120q26 69 26 170v7v919h107v-895q0 -250 -119 -377q-121 -129 -340 -129q-100 0 -199 29q-94 31 -174 92z" />
<glyph unicode="K" horiz-adv-x="1392" d="M184 0v1372h107v-600l313 16l498 584h135l-543 -629l596 -743h-137l-547 686h-315v-686h-107z" />
<glyph unicode="L" horiz-adv-x="1265" d="M184 0v1372h107v-1276h862v-96h-969z" />
<glyph unicode="M" horiz-adv-x="1728" d="M184 0v1372h123l557 -788l561 788h119v-1372h-104v1196h-21l-534 -750h-45l-531 750h-20v-1196h-105z" />
<glyph unicode="N" horiz-adv-x="1548" d="M184 0v1372h90l990 -1210v1210h100v-1372h-98l-981 1210v-1210h-101z" />
<glyph unicode="O" horiz-adv-x="1679" d="M123 686q0 145 53 281q49 127 148 227q102 100 229 152q129 55 287 55q154 0 290 -53q135 -57 226 -152q98 -94 147 -225q53 -127 53 -285q0 -152 -53 -278q-49 -133 -147 -228q-90 -94 -226 -151q-133 -57 -290 -58q-162 0 -291 56q-131 53 -227 153q-96 96 -146 226 q-53 127 -53 280zM231 686q0 -133 43 -246q47 -117 125 -194q78 -84 191 -131q117 -47 250 -47q139 0 250 45q115 47 190 127q78 80 125 194q43 117 43 252t-43 252q-47 115 -125 195q-76 80 -190 127q-111 45 -250 45q-137 0 -254 -48q-113 -45 -193 -131 q-80 -84 -119 -196q-43 -111 -43 -244z" />
<glyph unicode="P" horiz-adv-x="1376" d="M184 0v1372h561q102 0 201 -33q98 -37 162 -96q66 -59 106 -145q39 -84 39 -188.5t-41 -196.5q-39 -84 -112 -148q-68 -59 -168 -94q-92 -33 -207 -33h-434v-438h-107zM291 532h426q94 0 172 25q78 29 135 74q55 47 90 119q31 70 31 157q0 174 -113 273q-115 98 -301 98 h-440v-746z" />
<glyph unicode="Q" horiz-adv-x="1679" d="M123 686q0 145 53 281q49 127 148 227q102 100 229 152q129 55 287 55q154 0 290 -53q135 -57 226 -152q98 -94 147 -225q53 -127 53 -285q0 -205 -94 -362q-90 -162 -250 -256l342 -263l-67 -84l-369 302q-129 -51 -278 -52q-162 0 -291 56q-131 53 -227 153 q-96 96 -146 226q-53 127 -53 280zM231 686q0 -133 43 -246q47 -117 125 -194q78 -84 191 -131q117 -47 250 -47q139 0 250 45q115 47 190 127q78 80 125 194q43 117 43 252t-43 252q-47 115 -125 195q-76 80 -190 127q-111 45 -250 45q-137 0 -254 -48q-113 -45 -193 -131 q-80 -84 -119 -196q-43 -111 -43 -244z" />
<glyph unicode="R" horiz-adv-x="1376" d="M184 0v1372h578q109 0 194 -33q92 -33 156 -86q68 -61 102 -137q37 -80 37 -178q0 -80 -26.5 -147.5t-73.5 -126.5q-43 -51 -113 -95q-61 -37 -143 -57l379 -512h-133l-355 489h-495v-489h-107zM291 584h446q96 0 170 26q72 27 129 74q53 51 78 111q29 63 29 143 q0 162 -107 252q-109 88 -291 88h-454v-694z" />
<glyph unicode="S" horiz-adv-x="1339" d="M113 131l55 84q121 -84 231 -117q109 -30 241 -30h9q223 0 342 86t119 219q0 104 -74 178q-78 76 -248 96l-241 33q-377 51 -377 352q0 82 35 156q37 68 102 115q63 49 155.5 73.5t203.5 24.5q121 0 260 -35q127 -33 229 -106l-57 -80q-84 57 -201 94q-119 33 -229 33 q-96 0 -179 -21q-80 -27 -120 -59q-51 -39 -70 -86q-23 -45 -23 -107q0 -117 76 -178q80 -61 223 -82l230 -33q197 -29 305 -120q106 -96 107 -252q0 -86 -39 -156q-41 -76 -113 -127q-74 -53 -178 -84q-109 -31 -242 -31q-154 0 -280 37q-129 33 -252 123z" />
<glyph unicode="T" horiz-adv-x="1425" d="M113 1278v94h1200v-94h-547v-1278h-107v1278h-546z" />
<glyph unicode="U" horiz-adv-x="1552" d="M184 629v743h107v-735q0 -281 131 -424q131 -147 354 -147q100 0 199 32q96 41 151 105q68 70 101 176q35 111 35 254v739h106v-735q0 -152 -37 -275q-41 -125 -114 -210q-76 -88 -185 -134q-113 -47 -256 -47q-137 0 -254 45q-111 49 -186 131q-72 84 -113 209 q-39 117 -39 273z" />
<glyph unicode="V" horiz-adv-x="1505" d="M92 1372h117l530 -1266h33l528 1266h113l-584 -1376h-151z" />
<glyph unicode="W" horiz-adv-x="2097" d="M92 1372h117l407 -1266h21l352 1131h115l366 -1131h21l399 1266h115l-446 -1376h-160l-342 1061h-21l-329 -1061h-160z" />
<glyph unicode="X" horiz-adv-x="1445" d="M92 0l541 717l-496 655h133l449 -592h20l435 592h135l-502 -665l547 -707h-140l-489 643h-20l-476 -643h-137z" />
<glyph unicode="Y" horiz-adv-x="1445" d="M92 1372h125l500 -854h20l492 854h125l-578 -973v-399h-106v399z" />
<glyph unicode="Z" horiz-adv-x="1372" d="M133 0v86l961 1192h-930v94h1057v-90l-949 -1188h967v-94h-1106z" />
<glyph unicode="[" horiz-adv-x="581" d="M164 -244v1594h336v-82h-234v-1430h234v-82h-336z" />
<glyph unicode="\" horiz-adv-x="927" d="M37 1440l96 39l705 -1565l-97 -39z" />
<glyph unicode="]" horiz-adv-x="581" d="M82 -162h233v1430h-233v82h336v-1594h-336v82z" />
<glyph unicode="^" horiz-adv-x="671" d="M61 1110v20l254 244h43l252 -244v-20l-49 -47l-225 197l-225 -197z" />
<glyph unicode="_" horiz-adv-x="890" d="M20 -133h850v-94h-850v94z" />
<glyph unicode="`" horiz-adv-x="557" d="M72 1579l96 53l158 -338h-88z" />
<glyph unicode="a" horiz-adv-x="1308" d="M229 557q113 94 332 94q104 0 207 -20q106 -18 193 -56v91q0 311 -357 311q-207 0 -379 -98l-39 75q109 63 199 86q92 29 215 29q240 0 350 -102q111 -98 111 -293v-445q0 -90 33 -123q30 -34 71 -34h2q20 0 31 2q14 4 25 6l14 -76q-35 -20 -86 -20q-78 0 -123 45 q-47 43 -55 155q-63 -98 -182 -153q-117 -55 -275 -56q-90 0 -164 25q-76 20 -129 66q-55 47 -82 106q-28 66 -28 138q0 152 116 247zM221 311q0 -113 86 -180q86 -63 236 -63q74 0 153 22q78 25 135 68q61 45 95 104q37 61 37 139v84q-76 33 -185 58q-100 20 -209 20 q-94 0 -159 -18q-66 -23 -107 -53q-45 -39 -61 -82q-20 -41 -21 -99z" />
<glyph unicode="b" horiz-adv-x="1310" d="M164 59v1416h104v-543q84 68 185 100q104 37 233 37q111 0 203 -32.5t164 -98.5q66 -63 106 -166q39 -98 39 -235.5t-47 -237.5q-43 -100 -125 -176q-78 -70 -186 -111q-111 -37 -232 -37q-117 0 -227 19q-106 18 -217 65zM268 129q88 -35 162 -47q74 -14 172 -14 q102 0 189 30q86 25 155 86q68 61 107 147.5t39 207.5q0 104 -31 190q-29 82 -84 137q-57 57 -133 84q-76 29 -170 29q-129 0 -223 -41q-100 -35 -183 -115v-694z" />
<glyph unicode="c" horiz-adv-x="1220" d="M113 520q0 127 43 228q43 100 118 174q80 72 177 108q98 39 215 39q139 0 249 -41q106 -39 177 -113l-64 -67q-68 61 -154 94q-92 35 -204 35q-92 0 -174 -31q-84 -31 -144 -88q-63 -61 -98 -141q-35 -82 -35 -185q0 -106 31 -192q35 -84 90 -143q61 -61 143 -95 q78 -32 184 -32h7q233 0 381 151l63 -69q-170 -176 -452 -177q-131 0 -236 41q-100 41 -176 117q-72 78 -107 174q-34 97 -34 207v6z" />
<glyph unicode="d" horiz-adv-x="1363" d="M113 520q0 127 43 230q45 109 118 172q70 70 175 110q100 37 215 37q135 0 241 -37q102 -33 191 -102v545h104v-1475h-80l-16 285q-57 -150 -186 -232q-131 -78 -295 -78q-236 0 -373 144q-137 139 -137 401zM219 516q0 -111 31 -192q35 -86 90 -142q55 -59 131 -86 q77 -28 157 -28h5q172 0 285 96q115 94 178 270v397q-184 147 -410 148q-104 0 -190 -31q-84 -31 -148 -90q-63 -61 -94 -145q-35 -82 -35 -197z" />
<glyph unicode="e" horiz-adv-x="1269" d="M113 520q0 113 39 219q43 102 114 174q74 74 176 115q106 41 232 41q104 0 198 -35q88 -35 152 -98q66 -66 98 -152q35 -92 35 -192q0 -57 -12 -107h-924q8 -199 135 -307q124 -108 318 -108h4q115 0 207 26q102 31 186 90l49 -77q-94 -70 -207 -101q-106 -33 -239 -33 q-127 0 -232 37q-100 37 -176 107q-70 70 -114 172q-39 111 -39 229zM223 580h830q-4 184 -99 290q-96 109 -288 109q-184 0 -301 -107q-117 -111 -142 -292z" />
<glyph unicode="f" horiz-adv-x="837" d="M102 952v86l187 11v110q0 88 20 156q25 78 68 125q43 53 119 84q70 30 168 30h6q94 0 170 -22q78 -18 141 -66l-55 -77q-49 37 -112.5 55t-133.5 18q-154 0 -221 -78q-66 -78 -66 -221v-119h371v-92h-371v-952h-104v952h-187z" />
<glyph unicode="g" horiz-adv-x="1349" d="M123 -260q0 96 35 178q33 84 98 137q-53 31 -84 80q-29 47 -29 113q0 78 39 141q39 66 117 117q-57 88 -57 203q0 80 28 139q25 63 82 115q61 51 144 77q86 29 196 29h221l295 27l9 -80l-224 -39q53 -53 84 -123t31 -145q0 -74 -31 -140q-29 -68 -86 -116 q-59 -51 -139 -80q-82 -29 -182 -29q-199 0 -314 96q-61 -29 -90 -80q-24 -43 -24 -98q0 -96 61 -127q63 -29 172 -29h363q94 0 161 -24q59 -18 113 -62q43 -41 68 -92q20 -57 20 -108q0 -86 -41 -168q-43 -72 -121 -135q-80 -57 -190 -90q-106 -33 -248 -33 q-240 0 -358.5 94t-118.5 252zM225 -240q0 -133 94 -204q96 -70 291 -70q100 0 197 22q90 27 151 70q63 43 99 103q37 61 37 135q0 98 -61.5 147t-209.5 49h-348l-141 11q-55 -49 -82 -121q-27 -66 -27 -142zM346 709q0 -121 84 -201q88 -76 240 -76q70 0 131 19 q59 20 106 55q43 31 72 86q25 51 25 117q0 90 -33 155q-37 66 -111 117h-190q-150 0 -238 -72q-86 -70 -86 -200z" />
<glyph unicode="h" horiz-adv-x="1325" d="M164 0v1475h104v-711q66 145 178 223q109 82 297 82q186 0 306 -115q113 -119 112 -327v-627h-104v604q0 195 -90 285q-88 88 -250 88q-160 0 -273 -105q-115 -109 -176 -294v-578h-104z" />
<glyph unicode="i" horiz-adv-x="434" d="M147 1464q27 27 70 27t70 -27q30 -26 30 -68v-3q0 -45 -30 -74q-27 -25 -70 -25q-41 0 -70 25q-30 28 -30 71q0 48 30 74zM164 0v1044h106v-1044h-106z" />
<glyph unicode="j" horiz-adv-x="452" d="M-313 -442l43 84q96 -53 202 -54q117 0 185 76q68 78 67 240v1140h105v-1144q0 -182 -88 -295q-92 -111 -264 -111q-57 0 -130 14q-74 20 -120 50zM133 1395q0 47 31 71q29 29 72 29t71 -29q31 -25 31 -71q0 -47 -31 -74q-29 -27 -71.5 -27t-71.5 27q-31 27 -31 74z" />
<glyph unicode="k" horiz-adv-x="1196" d="M164 0v1475h104v-883l291 20l365 432h137l-399 -469l462 -575h-137l-405 510h-314v-510h-104z" />
<glyph unicode="l" horiz-adv-x="432" d="M164 0v1475h104v-1475h-104z" />
<glyph unicode="m" horiz-adv-x="1984" d="M164 0v1044h80l16 -299q121 324 424 324q125 0 217 -55q94 -55 133 -166q57 109 162 166q102 55 238 55q172 0 280 -108q106 -106 107 -314v-647h-105v625q0 180 -80 266t-229 86q-106 0 -195 -66q-90 -63 -149 -184q2 -14 2 -39q2 -14 2 -41v-647h-104v625 q0 178 -78 266q-78 86 -228 86q-131 0 -229 -109q-98 -111 -160 -301v-567h-104z" />
<glyph unicode="n" horiz-adv-x="1325" d="M164 0v1044h80l16 -305q61 156 180 244q121 86 303 86q96 0 170 -31q78 -31 134 -88q57 -61 83 -139q31 -82 31 -184v-627h-104v604q0 195 -90 285q-88 88 -250 88q-160 0 -275 -111q-113 -109 -174 -295v-571h-104z" />
<glyph unicode="o" horiz-adv-x="1355" d="M113 522q0 113 43 215q39 98 114 174q78 74 181 117q104 41 227 41q125 0 231 -41q102 -39 178 -115q76 -72 115 -172q41 -104 41 -219q0 -113 -43 -215q-39 -100 -117 -174q-76 -74 -178 -117q-106 -41 -227 -41q-125 0 -232 41q-102 39 -178 115q-76 72 -114 172 q-41 104 -41 219zM219 522q0 -104 33 -184q35 -84 92 -145q55 -55 143 -95q91 -33 188 -33q1 1 3 1q98 0 190 32q88 39 144 95q57 61 92 145q33 80 33 184q0 98 -33 178q-35 84 -92 146q-61 61 -146 96q-84 37 -188 37q-102 0 -189 -35q-84 -35 -145 -96q-57 -59 -92 -143 q-33 -84 -33 -183z" />
<glyph unicode="p" horiz-adv-x="1349" d="M164 -430v1474h80l16 -270q66 154 191 225q121 70 284 70q111 0 203 -37q94 -37 160 -106q68 -74 102 -168q37 -98 37 -221q0 -135 -47 -242q-47 -111 -125 -176q-72 -72 -176 -107q-98 -37 -203 -37q-137 0 -229 33q-94 31 -189 109v-547h-104zM268 229q92 -86 187 -123 q90 -38 213 -38h6q100 0 184 30q86 35 146 95q57 59 94 149q32 91 32 195v6q0 94 -28 176q-27 74 -82 137q-51 53 -131 90q-80 31 -174 31q-84 0 -150 -27q-68 -23 -125 -71q-53 -43 -98 -113q-41 -61 -74 -143v-394z" />
<glyph unicode="q" horiz-adv-x="1308" d="M113 512q0 127 43 227q49 106 127 176q82 76 194 113q109 41 254 41q94 0 213 -20q115 -27 201 -64v-1415h-105v598q-74 -94 -176 -143q-98 -49 -272 -50q-94 0 -178 33q-88 33 -156 98q-63 63 -106 168q-39 104 -39 238zM219 514q0 -113 31 -195q27 -82 82 -139 q53 -55 127 -84q73 -28 158 -28h6q123 0 235 57q111 57 182 186v604q-84 37 -157 50q-76 12 -154 12q-115 0 -207 -33q-94 -33 -162 -92q-68 -61 -104 -147q-37 -82 -37 -191z" />
<glyph unicode="r" horiz-adv-x="1093" d="M164 0v1044h80l14 -307q68 168 180 250q115 82 277 82q86 0 166 -25q82 -25 141 -75l-57 -80q-113 86 -271 86q-156 0 -260 -107q-106 -106 -166 -301v-567h-104z" />
<glyph unicode="s" horiz-adv-x="1171" d="M113 94l49 88q98 -63 198 -88q91 -28 207 -28h8q178 0 273 59q96 57 96 154q0 82 -55 131q-57 53 -197 67l-262 31q-135 16 -209 86t-74 184q0 63 27 111q25 49 80 94q63 43 139 61q80 25 197 25q115 0 221 -27q109 -29 190 -86l-47 -79q-176 102 -368 102 q-172 0 -250 -57q-84 -57 -84 -144q0 -74 47 -121q45 -45 162 -57l233 -27q164 -18 256 -90q98 -68 99 -202q0 -141 -125 -224q-129 -82 -359 -82q-133 0 -237 27q-111 27 -215 92z" />
<glyph unicode="t" horiz-adv-x="927" d="M82 952v82l174 13l43 296l84 -4l-12 -295h424v-92h-420v-618q0 -143 59 -203q57 -57 174 -57q125 0 219 73l50 -79q-51 -41 -125 -68q-72 -25 -150 -25q-160 0 -246 88q-86 90 -86 275v614h-188z" />
<glyph unicode="u" horiz-adv-x="1314" d="M164 449v595h104v-563q0 -219 86 -313q88 -94 238 -94q154 0 274 98q119 94 181 281v591h104v-1044h-80l-16 285q-61 -156 -185 -232q-125 -78 -295 -78q-186 0 -299 123q-113 119 -112 351z" />
<glyph unicode="v" horiz-adv-x="1280" d="M92 1044h123l418 -933h20l414 933h121l-490 -1052h-116z" />
<glyph unicode="w" horiz-adv-x="1781" d="M92 1044h111l315 -933h21l297 899h112l297 -899h21l315 933h109l-367 -1052h-139l-281 858h-24l-283 -858h-137z" />
<glyph unicode="x" horiz-adv-x="1210" d="M92 0l434 555l-393 489h135l332 -438h21l323 438h133l-393 -503l434 -541h-135l-377 485h-20l-361 -485h-133z" />
<glyph unicode="y" horiz-adv-x="1280" d="M92 1044h123l467 -933h20l365 933h121l-492 -1171q-35 -86 -73 -139q-35 -49 -78 -86q-39 -29 -90 -45q-45 -12 -99 -13q-88 0 -153 41l30 88q25 -14 66 -20q33 -6 63 -6q72 0 125 41q57 45 103 153l43 101z" />
<glyph unicode="z" horiz-adv-x="1187" d="M133 0v72l774 880h-735v92h877v-75l-768 -877h774v-92h-922z" />
<glyph unicode="{" horiz-adv-x="598" d="M61 508v94h43q51 0 82 35q31 33 31 108v31l-22 322v30q0 104 59 164q57 57 164 58h78v-80l-76 -4q-57 -2 -92 -37q-31 -37 -31 -115v-31l20 -313v-31q0 -55 -22 -106q-25 -51 -68 -78q43 -27 68 -78q23 -51 22 -106v-31l-20 -313v-31q0 -78 31 -115q35 -35 92 -37l76 -4 v-80h-78q-106 0 -164 58q-59 59 -59 164v30l22 322v31q0 74 -30.5 108.5t-82.5 34.5h-43z" />
<glyph unicode="|" horiz-adv-x="350" d="M123 -102v1577h106v-1577h-106z" />
<glyph unicode="}" horiz-adv-x="598" d="M102 -160l76 4q57 2 92 37q31 37 31 115v31l-20 313v31q0 55 22 106q25 51 68 78q-43 27 -68 78q-23 51 -22 106v31l20 313v31q0 78 -31 115q-35 35 -92 37l-76 4v80h78q106 0 164 -58q59 -59 59 -164v-30l-22 -322v-31q0 -76 31 -108q31 -35 82 -35h43v-94h-43 q-51 0 -82 -35t-31 -108v-31l22 -322v-30q0 -104 -59 -164q-57 -57 -164 -58h-78v80z" />
<glyph unicode="~" horiz-adv-x="948" d="M113 702q45 57 88 80q49 29 131 29q49 0 82 -18q14 -6 38.5 -20.5t30.5 -18.5q12 -10 66 -41q37 -18 78 -19q90 0 157 72l52 -53q-33 -51 -88 -80q-53 -29 -132 -29q-47 0 -88 19q-49 25 -69 41q-14 6 -37 20t-31 18q-33 18 -69 19q-51 0 -93 -19q-37 -18 -65 -53z" />
<glyph unicode="&#xa1;" horiz-adv-x="458" d="M123 954.5q0 44.5 31 73.5q33 29 75.5 29t75.5 -29q31 -29 31 -74t-31 -73q-33 -29 -76 -29t-75 29q-31 29 -31 73.5zM176 -463v1120h107v-1120h-107z" />
<glyph unicode="&#xa3;" horiz-adv-x="1390" d="M123 66l92 57q106 68 143 139q41 76 41 187q0 59 -10 94q-6 37 -22 82l-217 -50l-19 84l199 48l-35 71q-23 43 -33 74q-18 41 -24 82q-10 33 -11 92q0 66 23 129q20 57 65 107q43 43 111 71q66 27 154 27q121 0 206 -45q80 -47 134 -125l-80 -53q-82 131 -262 131 q-117 0 -182.5 -65.5t-65.5 -172.5q0 -88 30 -158l68 -143l313 76l21 -88l-297 -70q18 -47 27 -86q10 -55 10 -100q0 -80 -23 -154q-25 -76 -82 -135q68 0 138 -16q43 -10 133 -35q80 -23 135 -35q72 -16 145 -16q113 0 178 63q63 68 64 164q0 80 -35 145l88 33 q27 -49 35 -88q10 -47 10 -88q0 -68 -20 -127q-23 -59 -64 -102q-39 -41 -106 -68q-66 -25 -154 -25q-68 0 -143 15q-18 6 -40 11t-47.5 11t-37.5 11q-82 25 -123 32q-55 16 -133 17q-70 0 -129 -21q-66 -25 -125 -63z" />
<glyph unicode="&#xa4;" horiz-adv-x="907" d="M82 412l98 106q-59 84 -59 191q0 113 65 196l-104 115l70 70l116 -111q37 23 88 39q43 14 103 14q57 0 102 -12q45 -16 86 -37l111 104l67 -67l-100 -107q35 -45 53.5 -96t18.5 -108q0 -106 -66 -197l92 -100l-67 -66l-103 94q-84 -55 -194 -55q-119 0 -201 57l-106 -98z M223 709q0 -49 19 -95q14 -41 47 -73q29 -33 73 -52q43 -18 97 -18q51 0 94 18q45 18 74 52q33 31 49 73q18 45 18 95q0 106 -61 172q-61 65 -174 65q-111 0 -172 -65q-63 -63 -64 -172z" />
<glyph unicode="&#xa5;" horiz-adv-x="1380" d="M92 1335h125l475 -714h21l456 714h119l-469 -717l283 -6v-86h-821v86l303 6zM338 297v86h706v-86l-301 -10v-287h-102v287z" />
<glyph unicode="&#xa6;" horiz-adv-x="352" d="M123 -102v727h106v-727h-106zM123 748v727h106v-727h-106z" />
<glyph unicode="&#xa7;" horiz-adv-x="1157" d="M123 711q0 88 45 166q51 74 135 116q-90 68 -90 197q0 59 29 100q18 39 73 82q51 33 115 53q66 18 139 19q109 0 201 -27q104 -29 170 -78l-47 -75q-72 49 -150 71q-86 23 -168 23q-121 0 -194 -49q-70 -51 -70 -127q0 -78 54 -121q51 -43 137 -62l205 -45 q152 -33 239 -112q88 -76 88 -215q0 -84 -49 -164q-51 -76 -129 -121q90 -68 90 -184q0 -63 -28 -109q-23 -49 -78 -88q-51 -35 -125 -57q-70 -20 -166 -21q-94 0 -203 25t-186 76l45 79q84 -49 168 -69q96 -23 180 -23q152 0 225 56q70 57 70 129q0 78 -45 120 q-47 43 -137 62l-250 49q-137 27 -215 115q-78 84 -78 209zM223 711q0 -98 58 -154q57 -61 163 -82l332 -74q70 25 113 86q45 59 45 140q0 102 -62 153q-66 55 -184 82l-330 74q-68 -35 -100 -92q-35 -63 -35 -133z" />
<glyph unicode="&#xa8;" horiz-adv-x="913" d="M117 1399q0 39 26.5 65.5t69.5 26.5t69.5 -26.5t26.5 -65.5t-26.5 -65.5t-69.5 -26.5t-69.5 26.5t-26.5 65.5zM604 1399q0 39 26.5 65.5t69.5 26.5t70 -26.5t27 -65.5t-27 -65.5t-70 -26.5t-69.5 26.5t-26.5 65.5z" />
<glyph unicode="&#xa9;" horiz-adv-x="1843" d="M133 694q0 174 64 314q66 145 172 241q102 98 252 160q145 55 301 55q160 0 303 -55q145 -53 250 -154q106 -98 172 -243q63 -139 63 -318q0 -174 -63 -313q-61 -139 -172 -246q-111 -102 -252 -155q-145 -55 -301 -56q-160 0 -304 56q-145 53 -249 153q-106 98 -172 244 q-63 139 -64 317zM236 694q0 -158 55 -284q51 -123 147 -213q88 -84 217 -136q131 -45 267 -45q139 0 264 50q123 45 219 135q94 90 147 213q55 127 56 280q0 158 -56 285q-51 123 -147 213q-88 84 -217 135q-131 45 -266 45q-139 0 -265 -49q-123 -45 -219 -135t-147 -213 q-55 -127 -55 -281zM516 694q0 86 33 158q33 74 86 125q57 53 129 84q74 31 158 31q182 0 303 -103l-56 -67q-94 88 -247 88q-70 0 -127 -25q-59 -27 -95 -67q-43 -43 -61 -101q-23 -53 -23 -123q0 -80 25 -139t68 -98q37 -37 96 -60q55 -18 117 -18q74 0 143.5 24.5 t126.5 69.5l49 -65q-68 -55 -139 -82q-82 -29 -182 -29q-88 0 -162 27q-78 29 -127 77q-55 55 -84 125q-31 74 -31 168z" />
<glyph unicode="&#xab;" horiz-adv-x="864" d="M102 512v45l289 317l68 -55l-248 -280l248 -287l-70 -53zM399 512v47l295 322l66 -52l-252 -290l254 -295l-72 -54z" />
<glyph unicode="&#xac;" horiz-adv-x="911" d="M133 776v94h666v-387h-90l-17 293h-559z" />
<glyph unicode="&#xad;" horiz-adv-x="903" d="M143 535v94h617v-94h-617z" />
<glyph unicode="&#xae;" horiz-adv-x="1269" d="M102 1020q0 113 39 205q37 90 109 164q72 68 170 108q96 39 215 39q121 0 217 -39q96 -41 168 -108q72 -74 108 -164q39 -92 39 -205q0 -115 -41 -205q-35 -92 -110 -164q-63 -63 -168 -106q-92 -39 -213 -39q-119 0 -215 39t-170 106q-72 74 -109 164q-39 92 -39 205z M192.5 1020q0.5 -90 32.5 -164q33 -84 88 -139q63 -63 140 -94q86 -35 182 -35t182 35q74 31 141 94q57 61 88 139t31 164t-30.5 164t-88.5 139q-68 63 -141 94q-84 37 -182 37q-96 0 -182 -35q-76 -31 -140 -94q-55 -55 -88 -137q-33 -78 -32.5 -168zM446 791v469h226 q94 0 143 -52q53 -51 53 -118q0 -53 -28 -91q-23 -35 -74 -59l90 -149h-104l-74 129h-146v-129h-86zM532 995h136q53 0 79.5 27t26.5 67.5t-31 69.5q-31 25 -84 25h-127v-189z" />
<glyph unicode="&#xaf;" horiz-adv-x="915" d="M123 1350v92h670v-92h-670z" />
<glyph unicode="&#xb0;" horiz-adv-x="825" d="M102 1096q0 63 25 118q23 55 66 97q41 41 98 65q55 25 123 25q61 0 123 -23q51 -20 98 -63q41 -41 65 -96q23 -57 23 -123q0 -59 -23 -121q-25 -55 -65.5 -96t-97.5 -66q-55 -25 -123 -25q-66 0 -123 23q-55 20 -98 63q-43 41 -66 97q-25 57 -25 125zM193 1096 q0 -100 61 -162q63 -63 160 -64q98 0 159 64q59 63 59.5 161.5t-63.5 161.5q-61 62 -155 62q-102 0 -160 -62q-61 -66 -61 -161z" />
<glyph unicode="&#xb1;" horiz-adv-x="1085" d="M143 883v92h349v346h100v-346h350v-92h-350v-336h-100v336h-349zM178 270v92h729v-92h-729z" />
<glyph unicode="&#xb4;" horiz-adv-x="557" d="M154 1294l157 338l97 -53l-166 -285h-88z" />
<glyph unicode="&#xb6;" horiz-adv-x="1095" d="M92 748q0 68 25 122q25 53 67 95q39 37 103 59q59 20 133 20h334q59 0 108 9q57 10 109 24l22 -82l-139 -47v-739q0 -143 -47 -238q-45 -94 -148 -172l-333 -258l-52 68l215 172v749q-70 -41 -155 -41q-47 0 -92 17q-39 14 -78 49q-33 37 -53 80q-18 49 -19 113zM195 760 q0 -100 47 -146q43 -43 108 -43q82 0 139 45v347h-90q-39 0 -71 -13q-39 -12 -66 -37q-33 -29 -49 -65q-18 -37 -18 -88zM582 -147l41 32q72 57 106 135q33 78 33 181v762h-180v-1110z" />
<glyph unicode="&#xb7;" horiz-adv-x="458" d="M123 559q0 47 31 74q32 29 75 29t76 -29q31 -27 31 -74t-31 -74q-33 -29 -76 -28.5t-75 28.5q-31 27 -31 74z" />
<glyph unicode="&#xb8;" horiz-adv-x="573" d="M96 -547q129 39 183 92q49 55 49 125q0 66 -41 105q-37 37 -125 41v34l37 68v109h96l-14 -152q66 -23 104 -76q37 -49 37 -121q0 -98 -70 -178q-74 -80 -233 -116z" />
<glyph unicode="&#xbb;" horiz-adv-x="858" d="M102 827l72 54l291 -322v-47l-295 -322l-66 52l252 290zM406 252l247 280l-247 287l69 53l287 -313v-45l-289 -317z" />
<glyph unicode="&#xbc;" horiz-adv-x="1521" d="M41 1120l195 152l67 -8v-711h-102v551l-107 -57zM227 -12l799 1302l86 -49l-799 -1302zM788 129v78l465 506h111v-494h86v-80l-86 -10v-129h-100v129h-476zM926 219h338v377z" />
<glyph unicode="&#xbd;" horiz-adv-x="1595" d="M41 1120l195 152l67 -8v-711h-102v551l-107 -57zM217 -12l799 1302l86 -49l-799 -1302zM938 604q117 121 293 121q63 0 112 -18q53 -18 91 -52q41 -33 57 -73q23 -39 22 -95q0 -92 -47 -151q-41 -63 -123 -113l-210 -131h378v-92h-567v72l332 219q57 37 94 82 q41 45 41 104q0 68 -47 113q-43 45 -141 45q-72 0 -125 -25q-49 -23 -105 -71z" />
<glyph unicode="&#xbe;" horiz-adv-x="1685" d="M57 643l52 72q57 -45 120 -64q59 -20 129 -20q96 0 150 37q51 37 51 96q0 55 -37 80q-35 29 -102 28h-182v91h172q119 0 118 104q0 57 -45 88q-45 33 -116 33q-129 0 -220 -80l-59 68q57 53 121 77q66 25 166 25q61 0 102 -16q43 -12 80 -41q35 -29 53 -66 q20 -33 20.5 -74t-20.5 -82q-20 -39 -61 -63q57 -23 84 -68q29 -51 29 -102q0 -39 -19 -82q-20 -41 -57 -70q-31 -29 -94 -53q-59 -20 -138 -20q-92 0 -157 24q-68 20 -140 78zM412 -12l798 1302l86 -49l-798 -1302zM952 129v78l465 506h111v-494h86v-80l-86 -10v-129h-101 v129h-475zM1090 219h337v377z" />
<glyph unicode="&#xbf;" horiz-adv-x="1087" d="M143 -53q0 150 88 256q88 111 267 155q115 29 155.5 82.5t40.5 114.5q0 16 -4 49q-2 20 -10 47l92 15q25 -55 25 -123q0 -94 -66 -164q-63 -72 -190 -105q-84 -23 -140 -55q-51 -29 -90 -76q-35 -45 -47 -92q-14 -45 -14 -104q0 -147 104 -232q100 -86 283 -86 q262 0 448 156l60 -76q-113 -92 -230 -131q-129 -41 -278 -41q-109 0 -197 31q-92 27 -157 84q-66 53 -103 129q-37 74 -37 166zM616 954.5q0 44.5 31 73.5q33 29 76 29t76 -29q31 -29 30.5 -74t-30.5 -73q-33 -29 -76 -29t-76 29q-31 29 -31 73.5z" />
<glyph unicode="&#xc0;" horiz-adv-x="1533" d="M92 0l600 1376h150l600 -1376h-113l-149 346h-828l-149 -346h-111zM393 442h744l-355 826h-32zM510 1942l94 51l176 -389h-86z" />
<glyph unicode="&#xc1;" horiz-adv-x="1533" d="M92 0l600 1376h150l600 -1376h-113l-149 346h-828l-149 -346h-111zM393 442h744l-355 826h-32zM760 1604l176 389l94 -51l-184 -338h-86z" />
<glyph unicode="&#xc2;" horiz-adv-x="1533" d="M92 0l600 1376h150l600 -1376h-113l-149 346h-828l-149 -346h-111zM393 442h744l-355 826h-32zM481 1616v20l264 254h43l263 -254v-20l-50 -47l-235 217l-236 -217z" />
<glyph unicode="&#xc3;" horiz-adv-x="1533" d="M92 0l600 1376h150l600 -1376h-113l-149 346h-828l-149 -346h-111zM393 442h744l-355 826h-32zM399 1683q37 57 97 99q61 33 139 33q47 0 84 -19q12 -6 35.5 -19.5t36.5 -19.5q8 -6 65 -41q37 -18 76 -18q51 0 80 20q35 23 55 60l68 -58q-66 -115 -209 -114q-51 0 -88 18 q-12 6 -36 19.5t-36 19.5q-16 12 -68 41q-35 18 -80 18q-57 0 -90 -24q-37 -25 -65 -66z" />
<glyph unicode="&#xc4;" horiz-adv-x="1533" d="M92 0l600 1376h150l600 -1376h-113l-149 346h-828l-149 -346h-111zM393 442h744l-355 826h-32zM397 1716.5q0 40.5 31 69.5q31 31 74 31t73 -31q31 -29 31 -70t-31 -69q-31 -31 -73.5 -31t-73.5 31q-31 29 -31 69.5zM927.5 1716.5q0.5 40.5 30.5 69.5q31 31 74 31t74 -31 q31 -29 31 -70t-31 -69q-31 -31 -74 -31t-74 31q-31 29 -30.5 69.5z" />
<glyph unicode="&#xc5;" horiz-adv-x="1533" d="M92 0l600 1376h150l600 -1376h-113l-149 346h-828l-149 -346h-111zM393 442h744l-355 826h-32zM516 1776q0 41 16 84q18 41 52 77q43 39 80 54q39 22 102 22q61 0 104 -22q39 -14 80 -54q33 -39 49 -77q16 -43 17 -84q0 -43 -17 -88q-23 -47 -51 -74q-31 -35 -80 -55 q-41 -20 -102 -21q-63 0 -107 21q-51 25 -77 55q-33 29 -49.5 74t-16.5 88zM608 1776q0 -70 43 -113t115 -43q70 0 115 43q43 43 43 113q0 66 -45 110.5t-113 44.5q-72 0 -115 -45q-43 -47 -43 -110z" />
<glyph unicode="&#xc6;" horiz-adv-x="2213" d="M61 0l914 1372h1067v-92h-836v-522h727v-92h-727v-572h875v-94h-981v346h-684l-228 -346h-127zM477 442h623v838h-74z" />
<glyph unicode="&#xc7;" horiz-adv-x="1499" d="M123 682q0 158 53 285q47 129 150 227q100 96 237 151.5t311 55.5q63 0 132 -12q63 -12 133 -37q61 -20 123 -56q74 -45 104 -71l-57 -76q-188 158 -455 158q-141 0 -252 -45q-117 -47 -196 -127q-84 -80 -127 -195q-47 -109 -48 -254q0 -150 48 -258q41 -109 127 -195 q86 -84 196 -124q115 -43 246 -43q141 0 266 47q117 45 219 133l64 -72q-225 -203 -559 -203l-9 -100q68 -20 113 -76q39 -55 39 -123q0 -106 -74 -190t-235 -123l-31 74q129 33 188 96q57 59 58 135q0 70 -47 105q-43 31 -133 41v40l36 68v57q-143 16 -254 70 q-113 51 -194 143q-80 86 -127 215q-45 123 -45 279z" />
<glyph unicode="&#xc8;" d="M184 0v1372h963v-92h-856v-522h747v-92h-747v-572h895v-94h-1002zM475 1942l94 51l176 -389h-86z" />
<glyph unicode="&#xc9;" d="M184 0v1372h963v-92h-856v-522h747v-92h-747v-572h895v-94h-1002zM627 1604l176 389l94 -51l-184 -338h-86z" />
<glyph unicode="&#xca;" d="M184 0v1372h963v-92h-856v-522h747v-92h-747v-572h895v-94h-1002zM399 1616v20l265 254h43l262 -254v-20l-49 -47l-236 217l-235 -217z" />
<glyph unicode="&#xcb;" d="M184 0v1372h963v-92h-856v-522h747v-92h-747v-572h895v-94h-1002zM311 1716.5q0 40.5 31 69.5q31 31 74 31t73 -31q31 -29 31 -70t-31 -69q-31 -31 -73.5 -31t-73.5 31q-31 29 -31 69.5zM841.5 1716.5q0.5 40.5 30.5 69.5q31 31 74 31t74 -31q31 -29 31 -70t-31 -69 q-31 -31 -74 -31t-74 31q-31 29 -30.5 69.5z" />
<glyph unicode="&#xcc;" horiz-adv-x="475" d="M14 1942l95 51l176 -389h-86zM184 0v1372h107v-1372h-107z" />
<glyph unicode="&#xcd;" horiz-adv-x="475" d="M184 0v1372h107v-1372h-107zM209 1604l176 389l94 -51l-184 -338h-86z" />
<glyph unicode="&#xce;" horiz-adv-x="475" d="M-45 1616v20l264 254h43l262 -254v-20l-49 -47l-235 217l-236 -217zM184 0v1372h107v-1372h-107z" />
<glyph unicode="&#xcf;" horiz-adv-x="475" d="M-47 1716.5q0 40.5 31 69.5q30 31 73 31t74 -31q31 -29 31 -70t-31 -69q-31 -31 -74 -31t-73 31q-31 29 -31 69.5zM184 0v1372h107v-1372h-107zM319 1716.5q0 40.5 31 69.5q31 31 74 31t74 -31q31 -29 30.5 -70t-30.5 -69q-31 -31 -74 -31t-74 31q-31 29 -31 69.5z" />
<glyph unicode="&#xd0;" horiz-adv-x="1546" d="M72 647v88h153v637h475q168 0 299 -49q133 -53 228 -143q90 -84 145 -217q51 -121 51 -277q0 -145 -53 -276q-53 -123 -149 -217q-94 -88 -230 -142q-133 -51 -297 -51h-469v639zM332 96h362q135 0 248 41q111 39 197 117q80 74 131 186q45 113 45 246q0 145 -45 254 q-43 111 -125 186q-84 74 -197 111q-111 39 -256 39h-360v-541h477v-94h-477v-545z" />
<glyph unicode="&#xd1;" horiz-adv-x="1548" d="M184 0v1372h90l990 -1210v1210h100v-1372h-98l-981 1210v-1210h-101zM408 1683q37 57 96 99q61 33 139 33q47 0 84 -19q12 -6 35.5 -19.5t36.5 -19.5q8 -6 65 -41q37 -18 76 -18q51 0 80 20q35 23 55 60l68 -58q-66 -115 -209 -114q-51 0 -88 18q-12 6 -36 19.5t-36 19.5 q-16 12 -67 41q-35 18 -80 18q-57 0 -90 -24q-37 -25 -66 -66z" />
<glyph unicode="&#xd2;" horiz-adv-x="1679" d="M123 686q0 145 53 281q49 127 148 227q102 100 229 152q129 55 287 55q154 0 290 -53q135 -57 226 -152q98 -94 147 -225q53 -127 53 -285q0 -152 -53 -278q-49 -133 -147 -228q-90 -94 -226 -151q-133 -57 -290 -58q-162 0 -291 56q-131 53 -227 153q-96 96 -146 226 q-53 127 -53 280zM231 686q0 -133 43 -246q47 -117 125 -194q78 -84 191 -131q117 -47 250 -47q139 0 250 45q115 47 190 127q78 80 125 194q43 117 43 252t-43 252q-47 115 -125 195q-76 80 -190 127q-111 45 -250 45q-137 0 -254 -48q-113 -45 -193 -131 q-80 -84 -119 -196q-43 -111 -43 -244zM614 1942l95 51l176 -389h-86z" />
<glyph unicode="&#xd3;" horiz-adv-x="1679" d="M123 686q0 145 53 281q49 127 148 227q102 100 229 152q129 55 287 55q154 0 290 -53q135 -57 226 -152q98 -94 147 -225q53 -127 53 -285q0 -152 -53 -278q-49 -133 -147 -228q-90 -94 -226 -151q-133 -57 -290 -58q-162 0 -291 56q-131 53 -227 153q-96 96 -146 226 q-53 127 -53 280zM231 686q0 -133 43 -246q47 -117 125 -194q78 -84 191 -131q117 -47 250 -47q139 0 250 45q115 47 190 127q78 80 125 194q43 117 43 252t-43 252q-47 115 -125 195q-76 80 -190 127q-111 45 -250 45q-137 0 -254 -48q-113 -45 -193 -131 q-80 -84 -119 -196q-43 -111 -43 -244zM807 1604l176 389l94 -51l-184 -338h-86z" />
<glyph unicode="&#xd4;" horiz-adv-x="1679" d="M123 686q0 145 53 281q49 127 148 227q102 100 229 152q129 55 287 55q154 0 290 -53q135 -57 226 -152q98 -94 147 -225q53 -127 53 -285q0 -152 -53 -278q-49 -133 -147 -228q-90 -94 -226 -151q-133 -57 -290 -58q-162 0 -291 56q-131 53 -227 153q-96 96 -146 226 q-53 127 -53 280zM231 686q0 -133 43 -246q47 -117 125 -194q78 -84 191 -131q117 -47 250 -47q139 0 250 45q115 47 190 127q78 80 125 194q43 117 43 252t-43 252q-47 115 -125 195q-76 80 -190 127q-111 45 -250 45q-137 0 -254 -48q-113 -45 -193 -131 q-80 -84 -119 -196q-43 -111 -43 -244zM555 1616v20l264 254h43l262 -254v-20l-49 -47l-235 217l-236 -217z" />
<glyph unicode="&#xd5;" horiz-adv-x="1679" d="M123 686q0 145 53 281q49 127 148 227q102 100 229 152q129 55 287 55q154 0 290 -53q135 -57 226 -152q98 -94 147 -225q53 -127 53 -285q0 -152 -53 -278q-49 -133 -147 -228q-90 -94 -226 -151q-133 -57 -290 -58q-162 0 -291 56q-131 53 -227 153q-96 96 -146 226 q-53 127 -53 280zM231 686q0 -133 43 -246q47 -117 125 -194q78 -84 191 -131q117 -47 250 -47q139 0 250 45q115 47 190 127q78 80 125 194q43 117 43 252t-43 252q-47 115 -125 195q-76 80 -190 127q-111 45 -250 45q-137 0 -254 -48q-113 -45 -193 -131 q-80 -84 -119 -196q-43 -111 -43 -244zM473 1683q37 57 96 99q61 33 140 33q47 0 84 -19q12 -6 35.5 -19.5t35.5 -19.5q8 -6 66 -41q37 -18 76 -18q51 0 79 20q35 23 56 60l67 -58q-66 -115 -209 -114q-51 0 -88 18q-12 6 -35.5 19.5t-35.5 19.5q-16 12 -68 41 q-35 18 -80 18q-57 0 -90 -24q-37 -25 -65 -66z" />
<glyph unicode="&#xd6;" horiz-adv-x="1679" d="M123 686q0 145 53 281q49 127 148 227q102 100 229 152q129 55 287 55q154 0 290 -53q135 -57 226 -152q98 -94 147 -225q53 -127 53 -285q0 -152 -53 -278q-49 -133 -147 -228q-90 -94 -226 -151q-133 -57 -290 -58q-162 0 -291 56q-131 53 -227 153q-96 96 -146 226 q-53 127 -53 280zM231 686q0 -133 43 -246q47 -117 125 -194q78 -84 191 -131q117 -47 250 -47q139 0 250 45q115 47 190 127q78 80 125 194q43 117 43 252t-43 252q-47 115 -125 195q-76 80 -190 127q-111 45 -250 45q-137 0 -254 -48q-113 -45 -193 -131 q-80 -84 -119 -196q-43 -111 -43 -244zM471 1716.5q0 40.5 31 69.5q30 31 73 31t74 -31q31 -29 31 -70t-31 -69q-31 -31 -74 -31t-73 31q-31 29 -31 69.5zM1001 1716.5q0 40.5 31 69.5q31 31 74 31t74 -31q31 -29 30.5 -70t-30.5 -69q-31 -31 -74 -31t-74 31 q-31 29 -31 69.5z" />
<glyph unicode="&#xd7;" horiz-adv-x="995" d="M184 451l252 251l-252 256l64 62l250 -256l252 252l61 -62l-252 -252l252 -251l-63 -62l-250 252l-252 -252z" />
<glyph unicode="&#xd8;" horiz-adv-x="1679" d="M123 686q0 145 53 281q49 127 148 227q102 100 229 152q129 55 287 55q117 0 204 -27q96 -27 179 -76l123 175l81 -60l-122 -170q119 -96 186 -239q66 -147 65 -318q0 -152 -53 -278q-49 -133 -147 -228q-90 -94 -226 -151q-133 -57 -290 -58q-106 0 -203 25 q-90 23 -174 72l-131 -183l-82 58l131 182q-125 100 -191 244q-68 141 -67 317zM231 686q0 -150 56 -272q53 -123 151 -207l729 1014q-82 45 -151 61q-76 23 -176 23q-137 0 -254 -48q-113 -45 -193 -131q-80 -84 -119 -196q-43 -111 -43 -244zM520 150q137 -82 320 -82 q139 0 250 45q115 47 190 127q78 80 125 194q43 117 43 252q0 147 -51 272q-57 125 -150 205z" />
<glyph unicode="&#xd9;" horiz-adv-x="1552" d="M184 629v743h107v-735q0 -281 131 -424q131 -147 354 -147q100 0 199 32q96 41 151 105q68 70 101 176q35 111 35 254v739h106v-735q0 -152 -37 -275q-41 -125 -114 -210q-76 -88 -185 -134q-113 -47 -256 -47q-137 0 -254 45q-111 49 -186 131q-72 84 -113 209 q-39 117 -39 273zM569 1942l95 51l176 -389h-86z" />
<glyph unicode="&#xda;" horiz-adv-x="1552" d="M184 629v743h107v-735q0 -281 131 -424q131 -147 354 -147q100 0 199 32q96 41 151 105q68 70 101 176q35 111 35 254v739h106v-735q0 -152 -37 -275q-41 -125 -114 -210q-76 -88 -185 -134q-113 -47 -256 -47q-137 0 -254 45q-111 49 -186 131q-72 84 -113 209 q-39 117 -39 273zM717 1604l176 389l94 -51l-184 -338h-86z" />
<glyph unicode="&#xdb;" horiz-adv-x="1552" d="M184 629v743h107v-735q0 -281 131 -424q131 -147 354 -147q100 0 199 32q96 41 151 105q68 70 101 176q35 111 35 254v739h106v-735q0 -152 -37 -275q-41 -125 -114 -210q-76 -88 -185 -134q-113 -47 -256 -47q-137 0 -254 45q-111 49 -186 131q-72 84 -113 209 q-39 117 -39 273zM492 1616v20l264 254h43l262 -254v-20l-49 -47l-236 217l-235 -217z" />
<glyph unicode="&#xdc;" horiz-adv-x="1552" d="M184 629v743h107v-735q0 -281 131 -424q131 -147 354 -147q100 0 199 32q96 41 151 105q68 70 101 176q35 111 35 254v739h106v-735q0 -152 -37 -275q-41 -125 -114 -210q-76 -88 -185 -134q-113 -47 -256 -47q-137 0 -254 45q-111 49 -186 131q-72 84 -113 209 q-39 117 -39 273zM407.5 1716.5q0.5 40.5 30.5 69.5q31 31 74 31t74 -31q31 -29 30.5 -70t-30.5 -69q-31 -31 -74 -31t-74 31q-31 29 -30.5 69.5zM938 1716.5q0 40.5 31 69.5q30 31 73 31t74 -31q31 -29 31 -70t-31 -69q-31 -31 -74 -31t-73 31q-31 29 -31 69.5z" />
<glyph unicode="&#xdd;" horiz-adv-x="1445" d="M92 1372h125l500 -854h20l492 854h125l-578 -973v-399h-106v399zM684 1604l176 389l94 -51l-184 -338h-86z" />
<glyph unicode="&#xde;" horiz-adv-x="1308" d="M184 0v1401h107v-221h409q113 0 205 -33q94 -35 160 -94q66 -57 104 -144q37 -84 37 -186q0 -106 -41 -195q-39 -86 -112 -147q-76 -59 -170 -90q-92 -33 -207 -33h-385v-258h-107zM291 352h381q193 0 311 97q117 96 117 272q0 174 -109 270q-106 94 -305 94h-395v-733z " />
<glyph unicode="&#xdf;" horiz-adv-x="1392" d="M164 0v1145q0 94 26 166q27 76 74 131q49 55 115 82q68 31 149 30q80 0 152 -22q63 -25 106 -66q45 -39 68 -94t23 -115q0 -92 -37 -153q-35 -59 -103 -107q-61 -43 -90 -84q-29 -45 -29 -98q0 -74 51.5 -112.5t176.5 -63.5l117 -23q176 -35 249 -114q78 -78 78 -203 q0 -72 -33 -129q-31 -59 -86 -102q-59 -43 -137 -68q-80 -25 -178 -25t-192 23q-86 20 -185 82l45 84q78 -53 160 -74q86 -25 172 -24q154 0 242 63.5t88 163.5t-60 153q-61 55 -188 76l-115 21q-154 29 -227 90q-78 66 -78 182q0 141 146 244q57 41 81 82q29 47 29 116 q0 78 -59 144q-57 61 -183 61q-129 0 -196 -86q-70 -82 -70 -231v-1145h-102z" />
<glyph unicode="&#xe0;" d="M123 315q0 145 115 242q115 94 333 94q104 0 207 -20q106 -18 193 -56v91q0 311 -357 311q-207 0 -378 -98l-39 75q106 63 196 86q94 29 217 29q240 0 348 -102q113 -98 113 -293v-445q0 -90 31 -123q35 -35 76 -34q20 0 30 2q16 4 25 6l14 -76q-35 -20 -86 -20 q-78 0 -123 45q-47 43 -55 155q-63 -98 -182 -153q-117 -55 -275 -56q-88 0 -166 25q-74 20 -127 66q-55 47 -81 106q-29 68 -29 143zM231 311q0 -113 84 -180q88 -63 238 -63q74 0 154 22q76 25 135 68q59 45 96 104q35 63 35 139v84q-80 35 -187 58q-94 20 -206 20 q-96 0 -160 -18q-63 -20 -109 -53q-43 -39 -61.5 -82t-18.5 -99zM432 1579l96 53l158 -338h-88z" />
<glyph unicode="&#xe1;" d="M123 315q0 145 115 242q115 94 333 94q104 0 207 -20q106 -18 193 -56v91q0 311 -357 311q-207 0 -378 -98l-39 75q106 63 196 86q94 29 217 29q240 0 348 -102q113 -98 113 -293v-445q0 -90 31 -123q35 -35 76 -34q20 0 30 2q16 4 25 6l14 -76q-35 -20 -86 -20 q-78 0 -123 45q-47 43 -55 155q-63 -98 -182 -153q-117 -55 -275 -56q-88 0 -166 25q-74 20 -127 66q-55 47 -81 106q-29 68 -29 143zM231 311q0 -113 84 -180q88 -63 238 -63q74 0 154 22q76 25 135 68q59 45 96 104q35 63 35 139v84q-80 35 -187 58q-94 20 -206 20 q-96 0 -160 -18q-63 -20 -109 -53q-43 -39 -61.5 -82t-18.5 -99zM588 1294l157 338l97 -53l-166 -285h-88z" />
<glyph unicode="&#xe2;" d="M123 315q0 145 115 242q115 94 333 94q104 0 207 -20q106 -18 193 -56v91q0 311 -357 311q-207 0 -378 -98l-39 75q106 63 196 86q94 29 217 29q240 0 348 -102q113 -98 113 -293v-445q0 -90 31 -123q35 -35 76 -34q20 0 30 2q16 4 25 6l14 -76q-35 -20 -86 -20 q-78 0 -123 45q-47 43 -55 155q-63 -98 -182 -153q-117 -55 -275 -56q-88 0 -166 25q-74 20 -127 66q-55 47 -81 106q-29 68 -29 143zM231 311q0 -113 84 -180q88 -63 238 -63q74 0 154 22q76 25 135 68q59 45 96 104q35 63 35 139v84q-80 35 -187 58q-94 20 -206 20 q-96 0 -160 -18q-63 -20 -109 -53q-43 -39 -61.5 -82t-18.5 -99zM369 1296v21l254 244h43l252 -244v-21l-50 -47l-225 197l-225 -197z" />
<glyph unicode="&#xe3;" d="M123 315q0 145 115 242q115 94 333 94q104 0 207 -20q106 -18 193 -56v91q0 311 -357 311q-207 0 -378 -98l-39 75q106 63 196 86q94 29 217 29q240 0 348 -102q113 -98 113 -293v-445q0 -90 31 -123q35 -35 76 -34q20 0 30 2q16 4 25 6l14 -76q-35 -20 -86 -20 q-78 0 -123 45q-47 43 -55 155q-63 -98 -182 -153q-117 -55 -275 -56q-88 0 -166 25q-74 20 -127 66q-55 47 -81 106q-29 68 -29 143zM231 311q0 -113 84 -180q88 -63 238 -63q74 0 154 22q76 25 135 68q59 45 96 104q35 63 35 139v84q-80 35 -187 58q-94 20 -206 20 q-96 0 -160 -18q-63 -20 -109 -53q-43 -39 -61.5 -82t-18.5 -99zM283 1354q33 61 90 100q59 33 137 33q47 0 82 -19q8 -4 65 -38q25 -20 64 -41q31 -18 72 -19q47 0 79 19q39 20 60 57l67 -53q-59 -115 -206 -115q-55 0 -93 18q-8 4 -65 39q-25 20 -64 41q-35 18 -77 19 q-51 0 -84 -23q-35 -20 -64 -65z" />
<glyph unicode="&#xe4;" d="M123 315q0 145 115 242q115 94 333 94q104 0 207 -20q106 -18 193 -56v91q0 311 -357 311q-207 0 -378 -98l-39 75q106 63 196 86q94 29 217 29q240 0 348 -102q113 -98 113 -293v-445q0 -90 31 -123q35 -35 76 -34q20 0 30 2q16 4 25 6l14 -76q-35 -20 -86 -20 q-78 0 -123 45q-47 43 -55 155q-63 -98 -182 -153q-117 -55 -275 -56q-88 0 -166 25q-74 20 -127 66q-55 47 -81 106q-29 68 -29 143zM231 311q0 -113 84 -180q88 -63 238 -63q74 0 154 22q76 25 135 68q59 45 96 104q35 63 35 139v84q-80 35 -187 58q-94 20 -206 20 q-96 0 -160 -18q-63 -20 -109 -53q-43 -39 -61.5 -82t-18.5 -99zM299 1399q0 39 26.5 65.5t69.5 26.5t70 -26.5t27 -65.5t-27 -65.5t-70 -26.5t-69.5 26.5t-26.5 65.5zM786 1399q0 39 27 65.5t70 26.5t69.5 -26.5t26.5 -65.5t-26.5 -65.5t-69.5 -26.5t-70 26.5t-27 65.5z " />
<glyph unicode="&#xe5;" d="M123 315q0 145 115 242q115 94 333 94q104 0 207 -20q106 -18 193 -56v91q0 311 -357 311q-207 0 -378 -98l-39 75q106 63 196 86q94 29 217 29q240 0 348 -102q113 -98 113 -293v-445q0 -90 31 -123q35 -35 76 -34q20 0 30 2q16 4 25 6l14 -76q-35 -20 -86 -20 q-78 0 -123 45q-47 43 -55 155q-63 -98 -182 -153q-117 -55 -275 -56q-88 0 -166 25q-74 20 -127 66q-55 47 -81 106q-29 68 -29 143zM231 311q0 -113 84 -180q88 -63 238 -63q74 0 154 22q76 25 135 68q59 45 96 104q35 63 35 139v84q-80 35 -187 58q-94 20 -206 20 q-96 0 -160 -18q-63 -20 -109 -53q-43 -39 -61.5 -82t-18.5 -99zM412 1456q0 35 16 80q16 39 47 70q27 31 72 49q41 20 96 20t96 -20q45 -18 72 -49q33 -33 45 -70q16 -39 16 -80t-16 -80q-12 -37 -45 -71q-31 -31 -74 -49.5t-94 -18.5q-55 0 -98 18.5t-74 49.5 q-27 31 -45 71q-14 43 -14 80zM502 1456q0 -61 39 -100q37 -39 102 -39q63 0 102 39t39 100q0 57 -39 100q-41 39 -102 39q-66 0 -104 -39q-37 -43 -37 -100z" />
<glyph unicode="&#xe6;" horiz-adv-x="2041" d="M113 315q0 147 116 242q113 94 332 94q207 0 379 -76v91q0 156 -78 233.5t-258 77.5q-207 0 -379 -98l-39 75q109 63 199 86q92 29 215 29q180 0 283 -65q104 -70 137 -185q59 125 172 185q111 66 274 65q98 0 185 -35q86 -35 147 -98q63 -68 96 -152q35 -92 35 -192 q0 -57 -12 -107h-883q10 -201 125 -307q113 -109 311 -108q100 0 189 26q100 29 184 90l49 -80q-94 -70 -198.5 -100.5t-227.5 -30.5q-164 0 -280 66q-117 59 -187 182q-33 -66 -90 -117q-59 -49 -121 -75q-66 -29 -137 -43q-68 -12 -135 -13q-90 0 -164 25q-76 20 -129 66 q-55 47 -82 106q-29 68 -28 143zM221 311q0 -113 86 -180q86 -63 236 -63q76 0 149 22q74 25 129 68q53 41 88 104q33 59 33 139v84q-78 35 -176 58q-84 20 -197 20q-94 0 -159 -18q-66 -23 -107 -53q-45 -39 -61 -82q-20 -41 -21 -99zM1036 580h789q-4 186 -96 290 q-92 109 -271 109q-182 0 -295 -107q-106 -113 -127 -292z" />
<glyph unicode="&#xe7;" horiz-adv-x="1220" d="M113 520q0 127 43 228q43 100 118 174q80 72 177 108q98 39 215 39q139 0 249 -41q106 -39 177 -113l-64 -67q-68 61 -154 94q-92 35 -204 35q-92 0 -174 -31q-84 -31 -144 -88q-63 -61 -98 -141q-35 -82 -35 -185q0 -106 31 -192q35 -84 90 -143q61 -61 143 -95 q80 -33 191 -32q233 0 381 151l63 -69q-170 -176 -452 -177l-9 -100q66 -23 105 -76q37 -49 37 -121q0 -98 -70 -178q-74 -80 -233 -116l-23 69q129 39 182 92q49 55 50 125q0 66 -41 105q-37 37 -125 41v34l36 68v64q-111 12 -198 59q-86 47 -144 119q-57 66 -90 164 q-31 92 -30 196z" />
<glyph unicode="&#xe8;" horiz-adv-x="1269" d="M113 520q0 113 39 219q43 102 114 174q74 74 176 115q106 41 232 41q104 0 198 -35q88 -35 152 -98q66 -66 98 -152q35 -92 35 -192q0 -57 -12 -107h-924q8 -199 135 -307q125 -109 322 -108q115 0 207 26q102 31 186 90l49 -77q-94 -70 -207 -101q-106 -33 -239 -33 q-127 0 -232 37q-100 37 -176 107q-70 70 -114 172q-39 111 -39 229zM223 580h830q-4 184 -99 290q-96 109 -288 109q-184 0 -301 -107q-117 -111 -142 -292zM475 1579l96 53l158 -338h-88z" />
<glyph unicode="&#xe9;" horiz-adv-x="1269" d="M113 520q0 113 39 219q43 102 114 174q74 74 176 115q106 41 232 41q104 0 198 -35q88 -35 152 -98q66 -66 98 -152q35 -92 35 -192q0 -57 -12 -107h-924q8 -199 135 -307q125 -109 322 -108q115 0 207 26q102 31 186 90l49 -77q-94 -70 -207 -101q-106 -33 -239 -33 q-127 0 -232 37q-100 37 -176 107q-70 70 -114 172q-39 111 -39 229zM223 580h830q-4 184 -99 290q-96 109 -288 109q-184 0 -301 -107q-117 -111 -142 -292zM666 1294l157 338l97 -53l-166 -285h-88z" />
<glyph unicode="&#xea;" horiz-adv-x="1269" d="M113 520q0 113 39 219q43 102 114 174q74 74 176 115q106 41 232 41q104 0 198 -35q88 -35 152 -98q66 -66 98 -152q35 -92 35 -192q0 -57 -12 -107h-924q8 -199 135 -307q125 -109 322 -108q115 0 207 26q102 31 186 90l49 -77q-94 -70 -207 -101q-106 -33 -239 -33 q-127 0 -232 37q-100 37 -176 107q-70 70 -114 172q-39 111 -39 229zM223 580h830q-4 184 -99 290q-96 109 -288 109q-184 0 -301 -107q-117 -111 -142 -292zM401 1296v21l254 244h43l252 -244v-21l-49 -47l-225 197l-225 -197z" />
<glyph unicode="&#xeb;" horiz-adv-x="1269" d="M113 520q0 113 39 219q43 102 114 174q74 74 176 115q106 41 232 41q104 0 198 -35q88 -35 152 -98q66 -66 98 -152q35 -92 35 -192q0 -57 -12 -107h-924q8 -199 135 -307q125 -109 322 -108q115 0 207 26q102 31 186 90l49 -77q-94 -70 -207 -101q-106 -33 -239 -33 q-127 0 -232 37q-100 37 -176 107q-70 70 -114 172q-39 111 -39 229zM223 580h830q-4 184 -99 290q-96 109 -288 109q-184 0 -301 -107q-117 -111 -142 -292zM338 1399q0 39 26.5 65.5t69.5 26.5t69.5 -26.5t26.5 -65.5t-26.5 -65.5t-69.5 -26.5t-69.5 26.5t-26.5 65.5z M825 1399q0 39 27 65.5t70 26.5t69.5 -26.5t26.5 -65.5t-26.5 -65.5t-69.5 -26.5t-70 26.5t-27 65.5z" />
<glyph unicode="&#xec;" horiz-adv-x="434" d="M-2 1579l96 53l158 -338h-88zM164 0v1044h106v-1044h-106z" />
<glyph unicode="&#xed;" horiz-adv-x="434" d="M164 0v1044h106v-1044h-106zM180 1294l158 338l96 -53l-166 -285h-88z" />
<glyph unicode="&#xee;" horiz-adv-x="434" d="M-55 1296v21l254 244h43l252 -244v-21l-50 -47l-225 197l-225 -197zM164 0v1044h106v-1044h-106z" />
<glyph unicode="&#xef;" horiz-adv-x="434" d="M-57 1399q0 39 26.5 65.5t69.5 26.5t69.5 -26.5t26.5 -65.5t-26.5 -65.5t-69.5 -26.5t-69.5 26.5t-26.5 65.5zM164 0v1044h106v-1044h-106zM299 1399q0 39 26.5 65.5t69.5 26.5t70 -26.5t27 -65.5t-27 -65.5t-70 -26.5t-69.5 26.5t-26.5 65.5z" />
<glyph unicode="&#xf0;" horiz-adv-x="1316" d="M113 492q0 102 37 192q37 92 104 160q76 72 168 106q94 41 219 41q82 0 139 -16q63 -12 121 -41q63 -35 94 -60q47 -37 72 -69h20q-27 131 -112 244q-82 104 -240 196l-143 84l-115 -184l-78 45l117 184l-188 113l51 84l188 -115l111 174l76 -45l-111 -174l141 -84 q92 -55 187 -135q80 -76 131 -160q51 -90 78 -196q25 -111 24.5 -252.5t-43.5 -255.5q-43 -113 -117 -193q-78 -82 -176 -119q-100 -41 -217 -41q-127 0 -229 37q-100 37 -168 105q-68 66 -107 162q-35 100 -34 213zM217 487q0 -197 115 -311q117 -111 317 -110 q102 0 182 36q78 33 144 103q57 70 90 160q31 91 31 202q-20 80 -68 146q-43 63 -102 104q-53 37 -131 64q-78 20 -148 20q-88 0 -168 -29q-72 -25 -139 -81q-55 -55 -90 -132q-33 -78 -33 -172z" />
<glyph unicode="&#xf1;" horiz-adv-x="1325" d="M164 0v1044h80l16 -305q61 156 180 244q121 86 303 86q96 0 170 -31q78 -31 134 -88q57 -61 83 -139q31 -82 31 -184v-627h-104v604q0 195 -90 285q-88 88 -250 88q-160 0 -275 -111q-113 -109 -174 -295v-571h-104zM324 1354q33 61 90 100q59 33 137 33q47 0 82 -19 q8 -4 65 -38q20 -16 62 -41q35 -18 74 -19q45 0 81 19q37 20 58 57l67 -53q-59 -115 -206 -115q-55 0 -91 18q-16 8 -67 39q-25 20 -64 41q-35 18 -77 19q-51 0 -86 -23q-35 -25 -62 -65z" />
<glyph unicode="&#xf2;" horiz-adv-x="1355" d="M113 522q0 113 43 215q39 98 114 174q78 74 181 117q104 41 227 41q125 0 231 -41q102 -39 178 -115q76 -72 115 -172q41 -104 41 -219q0 -113 -43 -215q-39 -100 -117 -174q-76 -74 -178 -117q-106 -41 -227 -41q-125 0 -232 41q-102 39 -178 115q-76 72 -114 172 q-41 104 -41 219zM219 522q0 -104 33 -184q35 -84 92 -145q55 -55 143 -95q92 -33 190.5 -32.5t190.5 32.5q88 39 144 95q57 61 92 145q33 80 33 184q0 98 -33 178q-35 84 -92 146q-61 61 -146 96q-84 37 -188 37q-102 0 -189 -35q-84 -35 -145 -96q-57 -59 -92 -143 q-33 -84 -33 -183zM489 1579l97 53l157 -338h-88z" />
<glyph unicode="&#xf3;" horiz-adv-x="1355" d="M113 522q0 113 43 215q39 98 114 174q78 74 181 117q104 41 227 41q125 0 231 -41q102 -39 178 -115q76 -72 115 -172q41 -104 41 -219q0 -113 -43 -215q-39 -100 -117 -174q-76 -74 -178 -117q-106 -41 -227 -41q-125 0 -232 41q-102 39 -178 115q-76 72 -114 172 q-41 104 -41 219zM219 522q0 -104 33 -184q35 -84 92 -145q55 -55 143 -95q92 -33 190.5 -32.5t190.5 32.5q88 39 144 95q57 61 92 145q33 80 33 184q0 98 -33 178q-35 84 -92 146q-61 61 -146 96q-84 37 -188 37q-102 0 -189 -35q-84 -35 -145 -96q-57 -59 -92 -143 q-33 -84 -33 -183zM655 1294l158 338l96 -53l-166 -285h-88z" />
<glyph unicode="&#xf4;" horiz-adv-x="1355" d="M113 522q0 113 43 215q39 98 114 174q78 74 181 117q104 41 227 41q125 0 231 -41q102 -39 178 -115q76 -72 115 -172q41 -104 41 -219q0 -113 -43 -215q-39 -100 -117 -174q-76 -74 -178 -117q-106 -41 -227 -41q-125 0 -232 41q-102 39 -178 115q-76 72 -114 172 q-41 104 -41 219zM219 522q0 -104 33 -184q35 -84 92 -145q55 -55 143 -95q92 -33 190.5 -32.5t190.5 32.5q88 39 144 95q57 61 92 145q33 80 33 184q0 98 -33 178q-35 84 -92 146q-61 61 -146 96q-84 37 -188 37q-102 0 -189 -35q-84 -35 -145 -96q-57 -59 -92 -143 q-33 -84 -33 -183zM403 1296v21l254 244h43l252 -244v-21l-49 -47l-225 197l-225 -197z" />
<glyph unicode="&#xf5;" horiz-adv-x="1355" d="M113 522q0 113 43 215q39 98 114 174q78 74 181 117q104 41 227 41q125 0 231 -41q102 -39 178 -115q76 -72 115 -172q41 -104 41 -219q0 -113 -43 -215q-39 -100 -117 -174q-76 -74 -178 -117q-106 -41 -227 -41q-125 0 -232 41q-102 39 -178 115q-76 72 -114 172 q-41 104 -41 219zM219 522q0 -104 33 -184q35 -84 92 -145q55 -55 143 -95q92 -33 190.5 -32.5t190.5 32.5q88 39 144 95q57 61 92 145q33 80 33 184q0 98 -33 178q-35 84 -92 146q-61 61 -146 96q-84 37 -188 37q-102 0 -189 -35q-84 -35 -145 -96q-57 -59 -92 -143 q-33 -84 -33 -183zM319 1354q33 61 91 100q59 33 137 33q47 0 82 -19q8 -4 65 -38q20 -16 62 -41q35 -18 73 -19q45 0 82 19q37 20 58 57l67 -53q-59 -115 -207 -115q-55 0 -90 18q-16 8 -67 39q-25 20 -64 41q-35 18 -78 19q-51 0 -86 -23q-35 -25 -61 -65z" />
<glyph unicode="&#xf6;" horiz-adv-x="1355" d="M113 522q0 113 43 215q39 98 114 174q78 74 181 117q104 41 227 41q125 0 231 -41q102 -39 178 -115q76 -72 115 -172q41 -104 41 -219q0 -113 -43 -215q-39 -100 -117 -174q-76 -74 -178 -117q-106 -41 -227 -41q-125 0 -232 41q-102 39 -178 115q-76 72 -114 172 q-41 104 -41 219zM219 522q0 -104 33 -184q35 -84 92 -145q55 -55 143 -95q92 -33 190.5 -32.5t190.5 32.5q88 39 144 95q57 61 92 145q33 80 33 184q0 98 -33 178q-35 84 -92 146q-61 61 -146 96q-84 37 -188 37q-102 0 -189 -35q-84 -35 -145 -96q-57 -59 -92 -143 q-33 -84 -33 -183zM338 1399q0 39 26.5 65.5t69.5 26.5t69.5 -26.5t26.5 -65.5t-26.5 -65.5t-69.5 -26.5t-69.5 26.5t-26.5 65.5zM825 1399q0 39 27 65.5t70 26.5t69.5 -26.5t26.5 -65.5t-26.5 -65.5t-69.5 -26.5t-70 26.5t-27 65.5z" />
<glyph unicode="&#xf7;" horiz-adv-x="962" d="M143 659v93h676v-93h-676zM389 330q0 41 26.5 65.5t65.5 24.5t68 -25q25 -25 24.5 -65.5t-24.5 -65.5q-29 -25 -68 -24q-39 0 -65.5 24.5t-26.5 65.5zM389 1081q0 41 27 66q28 24 65 24q39 0 68 -24q25 -25 24.5 -66t-24.5 -65q-29 -25 -68 -25t-65.5 24.5t-26.5 65.5z " />
<glyph unicode="&#xf8;" horiz-adv-x="1355" d="M113 522q0 113 43 215q39 98 114 174q78 74 181 117q104 41 227 41q141 0 260 -53l82 127l84 -51l-82 -125q106 -72 162 -189q59 -111 59 -256q0 -113 -43 -215q-39 -100 -117 -174q-76 -74 -178 -117q-106 -41 -227 -41q-143 0 -262 54l-101 -158l-82 53l99 152 q-102 72 -162 188q-57 113 -57 258zM219 522q0 -117 43 -211t121 -153l502 776q-92 45 -207 45q-102 0 -189 -35q-84 -35 -145 -96q-57 -59 -92 -143q-33 -84 -33 -183zM467 109q92 -43 211 -43q98 0 190 32q88 39 144 95q57 61 92 145q33 80 33 184q0 109 -43 205 q-45 94 -125 156z" />
<glyph unicode="&#xf9;" horiz-adv-x="1314" d="M164 449v595h104v-563q0 -219 86 -313q88 -94 238 -94q154 0 274 98q119 94 181 281v591h104v-1044h-80l-16 285q-61 -156 -185 -232q-125 -78 -295 -78q-186 0 -299 123q-113 119 -112 351zM473 1579l96 53l158 -338h-88z" />
<glyph unicode="&#xfa;" horiz-adv-x="1314" d="M164 449v595h104v-563q0 -219 86 -313q88 -94 238 -94q154 0 274 98q119 94 181 281v591h104v-1044h-80l-16 285q-61 -156 -185 -232q-125 -78 -295 -78q-186 0 -299 123q-113 119 -112 351zM610 1294l158 338l96 -53l-166 -285h-88z" />
<glyph unicode="&#xfb;" horiz-adv-x="1314" d="M164 449v595h104v-563q0 -219 86 -313q88 -94 238 -94q154 0 274 98q119 94 181 281v591h104v-1044h-80l-16 285q-61 -156 -185 -232q-125 -78 -295 -78q-186 0 -299 123q-113 119 -112 351zM383 1296v21l254 244h43l252 -244v-21l-49 -47l-226 197l-225 -197z" />
<glyph unicode="&#xfc;" horiz-adv-x="1314" d="M164 449v595h104v-563q0 -219 86 -313q88 -94 238 -94q154 0 274 98q119 94 181 281v591h104v-1044h-80l-16 285q-61 -156 -185 -232q-125 -78 -295 -78q-186 0 -299 123q-113 119 -112 351zM317 1399q0 39 27 65.5t70 26.5t69.5 -26.5t26.5 -65.5t-26.5 -65.5 t-69.5 -26.5t-70 26.5t-27 65.5zM805 1399q0 39 26.5 65.5t69.5 26.5t69.5 -26.5t26.5 -65.5t-26.5 -65.5t-69.5 -26.5t-69.5 26.5t-26.5 65.5z" />
<glyph unicode="&#xfd;" horiz-adv-x="1280" d="M92 1044h123l467 -933h20l365 933h121l-492 -1171q-35 -86 -73 -139q-35 -49 -78 -86q-39 -29 -90 -45q-45 -12 -99 -13q-88 0 -153 41l30 88q25 -14 66 -20q33 -6 63 -6q72 0 125 41q57 45 103 153l43 101zM616 1294l158 338l96 -53l-165 -285h-89z" />
<glyph unicode="&#xfe;" horiz-adv-x="1320" d="M164 -430v1884h104v-623q72 119 178 177q111 61 269 61q113 0 200 -37q94 -39 156 -106q68 -76 100 -168q37 -98 37 -221q0 -133 -45 -242q-51 -115 -123 -176q-72 -72 -172 -107q-98 -37 -202 -37q-74 0 -121 9q-57 6 -99 24q-45 14 -90 43q-49 31 -88 66v-547h-104z M268 229q92 -86 187 -123q90 -39 209 -38q96 0 176 30q78 33 139 95q57 63 90 149t33 201q0 102 -29 176q-23 70 -78 137q-53 57 -129 90q-76 31 -172 31q-156 0 -260 -84q-106 -80 -166 -219v-445z" />
<glyph unicode="&#xff;" horiz-adv-x="1280" d="M92 1044h123l467 -933h20l365 933h121l-492 -1171q-35 -86 -73 -139q-35 -49 -78 -86q-39 -29 -90 -45q-45 -12 -99 -13q-88 0 -153 41l30 88q25 -14 66 -20q33 -6 63 -6q72 0 125 41q57 45 103 153l43 101zM319 1399q0 39 27 65.5t70 26.5t69.5 -26.5t26.5 -65.5 t-26.5 -65.5t-69.5 -26.5t-70 26.5t-27 65.5zM807 1399q0 39 26.5 65.5t69.5 26.5t69.5 -26.5t26.5 -65.5t-26.5 -65.5t-69.5 -26.5t-69.5 26.5t-26.5 65.5z" />
<glyph unicode="&#x100;" horiz-adv-x="1533" d="M92 0l600 1376h150l600 -1376h-113l-149 346h-828l-149 -346h-111zM393 442h744l-355 826h-32zM399 1671v92h736v-92h-736z" />
<glyph unicode="&#x101;" d="M123 315q0 145 115 242q115 94 333 94q104 0 207 -20q106 -18 193 -56v91q0 311 -357 311q-207 0 -378 -98l-39 75q106 63 196 86q94 29 217 29q240 0 348 -102q113 -98 113 -293v-445q0 -90 31 -123q35 -35 76 -34q20 0 30 2q16 4 25 6l14 -76q-35 -20 -86 -20 q-78 0 -123 45q-47 43 -55 155q-63 -98 -182 -153q-117 -55 -275 -56q-88 0 -166 25q-74 20 -127 66q-55 47 -81 106q-29 68 -29 143zM231 311q0 -113 84 -180q88 -63 238 -63q74 0 154 22q76 25 135 68q59 45 96 104q35 63 35 139v84q-80 35 -187 58q-94 20 -206 20 q-96 0 -160 -18q-63 -20 -109 -53q-43 -39 -61.5 -82t-18.5 -99zM299 1350v92h670v-92h-670z" />
<glyph unicode="&#x102;" horiz-adv-x="1533" d="M92 0l600 1376h150l600 -1376h-113l-149 346h-828l-149 -346h-111zM393 442h744l-355 826h-32zM467 1874h90q14 -92 70 -137q53 -45 139 -45q84 0 141 45q55 49 70 137h90q-2 -53 -27 -111q-25 -51 -63 -88q-39 -35 -92 -57q-53 -20 -119 -21q-57 0 -119 21 q-55 29 -90 59q-41 37 -61 88q-23 51 -29 109z" />
<glyph unicode="&#x103;" d="M123 315q0 145 115 242q115 94 333 94q104 0 207 -20q106 -18 193 -56v91q0 311 -357 311q-207 0 -378 -98l-39 75q106 63 196 86q94 29 217 29q240 0 348 -102q113 -98 113 -293v-445q0 -90 31 -123q35 -35 76 -34q20 0 30 2q16 4 25 6l14 -76q-35 -20 -86 -20 q-78 0 -123 45q-47 43 -55 155q-63 -98 -182 -153q-117 -55 -275 -56q-88 0 -166 25q-74 20 -127 66q-55 47 -81 106q-29 68 -29 143zM231 311q0 -113 84 -180q88 -63 238 -63q74 0 154 22q76 25 135 68q59 45 96 104q35 63 35 139v84q-80 35 -187 58q-94 20 -206 20 q-96 0 -160 -18q-63 -20 -109 -53q-43 -39 -61.5 -82t-18.5 -99zM360 1522h93q6 -88 59 -125q53 -41 125 -41q68 0 125 41q53 41 57 125h94q-6 -57 -28 -107q-25 -47 -62 -80q-43 -33 -86 -47q-53 -16 -100 -16q-45 0 -102 14q-53 20 -89 49q-37 31 -61 78q-20 45 -25 109z " />
<glyph unicode="&#x104;" horiz-adv-x="1533" d="M92 0l598 1376h154l590 -1358v-18h-17q-49 0 -81.5 -39t-32.5 -104q0 -72 40 -119q37 -45 127 -62l-14 -82q-59 6 -108 29q-45 20 -78 58q-33 35 -47 77q-16 43 -17 86q0 137 103 199l-129 303h-828l-149 -346h-111zM393 442h744l-355 826h-32z" />
<glyph unicode="&#x105;" d="M123 315q0 145 115 242q115 94 333 94q104 0 207 -20q106 -18 193 -56v91q0 311 -357 311q-207 0 -378 -98l-39 75q106 63 196 86q94 29 217 29q240 0 348 -102q113 -98 113 -293v-445q0 -90 31 -123q35 -35 76 -34q20 0 30 2q16 4 25 6l14 -76q-72 -4 -114.5 -49 t-42.5 -107q0 -63 45 -112q47 -45 135 -60l-15 -82q-68 6 -108 29q-45 16 -82 53q-33 33 -53 74q-16 45 -17 84q0 53 21 96q18 47 59 78q-41 18 -63 58q-27 45 -29 118q-63 -98 -182 -153q-117 -55 -275 -56q-88 0 -166 25q-74 20 -127 66q-55 47 -81 106q-29 68 -29 143z M231 311q0 -113 84 -180q88 -63 238 -63q74 0 154 22q76 25 135 68q59 45 96 104q35 63 35 139v84q-80 35 -187 58q-94 20 -206 20q-96 0 -160 -18q-63 -20 -109 -53q-43 -39 -61.5 -82t-18.5 -99z" />
<glyph unicode="&#x106;" horiz-adv-x="1499" d="M123 682q0 158 53 285q47 129 150 227q100 96 237 151.5t311 55.5q63 0 132 -12q63 -12 133 -37q61 -20 123 -56q74 -45 104 -71l-57 -76q-188 158 -455 158q-141 0 -252 -45q-117 -47 -196 -127q-84 -80 -127 -195q-47 -109 -48 -254q0 -150 48 -258q41 -109 127 -195 q86 -84 196 -124q115 -43 246 -43q141 0 266 47q117 45 219 133l64 -72q-225 -203 -559 -203q-160 0 -289 49q-129 47 -227 140q-98 94 -146 225q-53 125 -53 297zM799 1604l176 389l94 -51l-184 -338h-86z" />
<glyph unicode="&#x107;" horiz-adv-x="1220" d="M113 520q0 127 43 228q43 100 118 174q80 72 177 108q98 39 215 39q139 0 249 -41q106 -39 177 -113l-64 -67q-68 61 -154 94q-92 35 -204 35q-92 0 -174 -31q-84 -31 -144 -88q-63 -61 -98 -141q-35 -82 -35 -185q0 -106 31 -192q35 -84 90 -143q61 -61 143 -95 q80 -33 191 -32q233 0 381 151l63 -69q-170 -176 -452 -177q-131 0 -236 41q-100 41 -176 117q-72 78 -107 174q-35 100 -34 213zM641 1294l158 338l96 -53l-166 -285h-88z" />
<glyph unicode="&#x108;" horiz-adv-x="1499" d="M123 682q0 158 53 285q47 129 150 227q100 96 237 151.5t311 55.5q63 0 132 -12q63 -12 133 -37q61 -20 123 -56q74 -45 104 -71l-57 -76q-188 158 -455 158q-141 0 -252 -45q-117 -47 -196 -127q-84 -80 -127 -195q-47 -109 -48 -254q0 -150 48 -258q41 -109 127 -195 q86 -84 196 -124q115 -43 246 -43q141 0 266 47q117 45 219 133l64 -72q-225 -203 -559 -203q-160 0 -289 49q-129 47 -227 140q-98 94 -146 225q-53 125 -53 297zM575 1616v20l265 254h43l262 -254v-20l-49 -47l-236 217l-235 -217z" />
<glyph unicode="&#x109;" horiz-adv-x="1220" d="M113 520q0 127 43 228q43 100 118 174q80 72 177 108q98 39 215 39q139 0 249 -41q106 -39 177 -113l-64 -67q-68 61 -154 94q-92 35 -204 35q-92 0 -174 -31q-84 -31 -144 -88q-63 -61 -98 -141q-35 -82 -35 -185q0 -106 31 -192q35 -84 90 -143q61 -61 143 -95 q80 -33 191 -32q233 0 381 151l63 -69q-170 -176 -452 -177q-131 0 -236 41q-100 41 -176 117q-72 78 -107 174q-35 100 -34 213zM410 1296v21l254 244h43l251 -244v-21l-49 -47l-225 197l-225 -197z" />
<glyph unicode="&#x10a;" horiz-adv-x="1499" d="M123 682q0 158 53 285q47 129 150 227q100 96 237 151.5t311 55.5q63 0 132 -12q63 -12 133 -37q61 -20 123 -56q74 -45 104 -71l-57 -76q-188 158 -455 158q-141 0 -252 -45q-117 -47 -196 -127q-84 -80 -127 -195q-47 -109 -48 -254q0 -150 48 -258q41 -109 127 -195 q86 -84 196 -124q115 -43 246 -43q141 0 266 47q117 45 219 133l64 -72q-225 -203 -559 -203q-160 0 -289 49q-129 47 -227 140q-98 94 -146 225q-53 125 -53 297zM751.5 1720.5q0.5 44.5 30.5 73.5q31 31 76 31t76 -31q31 -29 31 -74t-31 -73q-31 -31 -76 -31t-76 31 q-31 29 -30.5 73.5z" />
<glyph unicode="&#x10b;" horiz-adv-x="1220" d="M113 520q0 127 43 228q43 100 118 174q80 72 177 108q98 39 215 39q139 0 249 -41q106 -39 177 -113l-64 -67q-68 61 -154 94q-92 35 -204 35q-92 0 -174 -31q-84 -31 -144 -88q-63 -61 -98 -141q-35 -82 -35 -185q0 -106 31 -192q35 -84 90 -143q61 -61 143 -95 q80 -33 191 -32q233 0 381 151l63 -69q-170 -176 -452 -177q-131 0 -236 41q-100 41 -176 117q-72 78 -107 174q-35 100 -34 213zM596 1393q0 45 31 71q26 27 69 27t70 -27q31 -29 31 -71q0 -45 -31 -74q-29 -25 -70 -25t-69 25q-31 29 -31 74z" />
<glyph unicode="&#x10c;" horiz-adv-x="1499" d="M123 682q0 158 53 285q47 129 150 227q100 96 237 151.5t311 55.5q63 0 132 -12q63 -12 133 -37q61 -20 123 -56q74 -45 104 -71l-57 -76q-188 158 -455 158q-141 0 -252 -45q-117 -47 -196 -127q-84 -80 -127 -195q-47 -109 -48 -254q0 -150 48 -258q41 -109 127 -195 q86 -84 196 -124q115 -43 246 -43q141 0 266 47q117 45 219 133l64 -72q-225 -203 -559 -203q-160 0 -289 49q-129 47 -227 140q-98 94 -146 225q-53 125 -53 297zM563 1829v20l49 47l236 -217l235 217l50 -47v-20l-265 -254h-43z" />
<glyph unicode="&#x10d;" horiz-adv-x="1220" d="M113 520q0 127 43 228q43 100 118 174q80 72 177 108q98 39 215 39q139 0 249 -41q106 -39 177 -113l-64 -67q-68 61 -154 94q-92 35 -204 35q-92 0 -174 -31q-84 -31 -144 -88q-63 -61 -98 -141q-35 -82 -35 -185q0 -106 31 -192q35 -84 90 -143q61 -61 143 -95 q80 -33 191 -32q233 0 381 151l63 -69q-170 -176 -452 -177q-131 0 -236 41q-100 41 -176 117q-72 78 -107 174q-35 100 -34 213zM399 1511v21l50 47l225 -197l225 197l49 -47v-21l-254 -243h-43z" />
<glyph unicode="&#x10e;" horiz-adv-x="1505" d="M184 0v1372h475q168 0 299 -49q133 -53 228 -143q90 -84 145 -217q51 -121 51 -277q0 -145 -53 -276q-53 -123 -149 -217q-94 -88 -230 -142q-133 -51 -297 -51h-469zM291 96h362q135 0 248 41q111 39 197 117q80 74 131 186q45 113 45 246q0 145 -45 254 q-43 111 -125 186q-84 74 -197 111q-111 39 -256 39h-360v-1180zM391 1829v20l49 47l236 -217l235 217l50 -47v-20l-265 -254h-43z" />
<glyph unicode="&#x10f;" horiz-adv-x="1644" d="M113 520q0 127 43 230q45 109 118 172q70 70 175 110q100 37 215 37q135 0 241 -37q102 -33 191 -102v545h104v-1475h-80l-16 285q-57 -150 -186 -232q-131 -78 -295 -78q-236 0 -373 144q-137 139 -137 401zM219 516q0 -111 31 -192q35 -86 90 -142q55 -59 131 -86 q80 -29 162 -28q172 0 285 96q115 94 178 270v397q-184 147 -410 148q-104 0 -190 -31q-84 -31 -148 -90q-63 -61 -94 -145q-35 -82 -35 -197zM1411 1329q0 47 31 74q33 29 76 29t75 -29q31 -27 31 -74q0 -18 -10 -49l-105 -266l-61 20l51 195q-39 6 -63 33q-25 29 -25 67z " />
<glyph unicode="&#x110;" horiz-adv-x="1546" d="M72 647v88h153v637h475q168 0 299 -49q133 -53 228 -143q90 -84 145 -217q51 -121 51 -277q0 -145 -53 -276q-53 -123 -149 -217q-94 -88 -230 -142q-133 -51 -297 -51h-469v639zM332 96h362q135 0 248 41q111 39 197 117q80 74 131 186q45 113 45 246q0 145 -45 254 q-43 111 -125 186q-84 74 -197 111q-111 39 -256 39h-360v-541h477v-94h-477v-545z" />
<glyph unicode="&#x111;" horiz-adv-x="1363" d="M113 520q0 127 43 230q45 109 118 172q70 70 175 110q100 37 215 37q135 0 241 -37q102 -33 191 -102v311h-353v82h344l19 172h94v-172h143v-82h-143v-1241h-80l-16 285q-57 -150 -186 -232q-131 -78 -295 -78q-236 0 -373 144q-137 139 -137 401zM219 516 q0 -111 31 -192q35 -86 90 -142q55 -59 131 -86q80 -29 162 -28q172 0 285 96q115 94 178 270v397q-184 147 -410 148q-104 0 -190 -31q-84 -31 -148 -90q-63 -61 -94 -145q-35 -82 -35 -197z" />
<glyph unicode="&#x112;" d="M184 0v1372h963v-92h-856v-522h747v-92h-747v-572h895v-94h-1002zM315 1671v92h736v-92h-736z" />
<glyph unicode="&#x113;" horiz-adv-x="1269" d="M113 520q0 113 39 219q43 102 114 174q74 74 176 115q106 41 232 41q104 0 198 -35q88 -35 152 -98q66 -66 98 -152q35 -92 35 -192q0 -57 -12 -107h-924q8 -199 135 -307q125 -109 322 -108q115 0 207 26q102 31 186 90l49 -77q-94 -70 -207 -101q-106 -33 -239 -33 q-127 0 -232 37q-100 37 -176 107q-70 70 -114 172q-39 111 -39 229zM223 580h830q-4 184 -99 290q-96 109 -288 109q-184 0 -301 -107q-117 -111 -142 -292zM373 1350v92h669v-92h-669z" />
<glyph unicode="&#x114;" d="M184 0v1372h963v-92h-856v-522h747v-92h-747v-572h895v-94h-1002zM379 1874h90q14 -92 70 -137q53 -45 139 -45q84 0 141 45q55 49 70 137h90q-2 -55 -29 -111q-20 -51 -61 -88q-39 -35 -94 -57q-49 -20 -117 -21q-61 0 -117 21q-53 25 -92 59q-41 37 -61 88 q-23 51 -29 109z" />
<glyph unicode="&#x115;" horiz-adv-x="1269" d="M113 520q0 113 39 219q43 102 114 174q74 74 176 115q106 41 232 41q104 0 198 -35q88 -35 152 -98q66 -66 98 -152q35 -92 35 -192q0 -57 -12 -107h-924q8 -199 135 -307q125 -109 322 -108q115 0 207 26q102 31 186 90l49 -77q-94 -70 -207 -101q-106 -33 -239 -33 q-127 0 -232 37q-100 37 -176 107q-70 70 -114 172q-39 111 -39 229zM223 580h830q-4 184 -99 290q-96 109 -288 109q-184 0 -301 -107q-117 -111 -142 -292zM391 1522h92q6 -88 62 -125q49 -41 123 -41q70 0 123 41q55 41 59 125h94q-6 -61 -31 -107q-20 -47 -61 -80 q-39 -33 -86 -47q-49 -16 -98 -16q-45 0 -103 14q-55 20 -86 49q-39 31 -61 78q-23 43 -27 109z" />
<glyph unicode="&#x116;" d="M184 0v1372h963v-92h-856v-522h747v-92h-747v-572h895v-94h-1002zM581.5 1720.5q0.5 44.5 30.5 73.5q31 31 76 31t76 -31q31 -29 31 -74t-31 -73q-31 -31 -76 -31t-76 31q-31 29 -30.5 73.5z" />
<glyph unicode="&#x117;" horiz-adv-x="1269" d="M113 520q0 113 39 219q43 102 114 174q74 74 176 115q106 41 232 41q104 0 198 -35q88 -35 152 -98q66 -66 98 -152q35 -92 35 -192q0 -57 -12 -107h-924q8 -199 135 -307q125 -109 322 -108q115 0 207 26q102 31 186 90l49 -77q-94 -70 -207 -101q-106 -33 -239 -33 q-127 0 -232 37q-100 37 -176 107q-70 70 -114 172q-39 111 -39 229zM223 580h830q-4 184 -99 290q-96 109 -288 109q-184 0 -301 -107q-117 -111 -142 -292zM563 1393q0 45 31 71q27 27 70 27t69 -27q31 -29 31 -71q0 -45 -31 -74q-29 -25 -69.5 -25t-69.5 25 q-31 29 -31 74z" />
<glyph unicode="&#x118;" d="M184 0v1372h963v-92h-856v-522h747v-92h-747v-572h895v-94h-29q-53 0 -84 -39q-35 -37 -35 -98q0 -72 41 -123q39 -47 129 -64l-14 -82q-129 8 -190 84q-61 74 -61.5 170.5t58.5 151.5h-817z" />
<glyph unicode="&#x119;" horiz-adv-x="1269" d="M113 520q0 113 39 219q43 102 114 174q74 74 176 115q106 41 232 41q104 0 198 -35q88 -35 152 -98q66 -66 98 -152q35 -92 35 -192q0 -57 -12 -107h-924q8 -199 135 -307q125 -109 322 -108q115 0 207 26q102 31 186 90l49 -77q-86 -51 -116 -99q-31 -47 -31 -94 q0 -70 45 -117q47 -47 133 -61l-14 -82q-68 6 -109 29q-45 16 -82 53q-33 33 -53 74q-16 45 -16 84q0 23 4 55q6 31 20 51q-100 -27 -227 -27t-232 37q-100 37 -176 107q-70 70 -114 172q-39 111 -39 229zM223 580h830q-4 184 -99 290q-96 109 -288 109q-184 0 -301 -107 q-117 -111 -142 -292z" />
<glyph unicode="&#x11a;" d="M184 0v1372h963v-92h-856v-522h747v-92h-747v-572h895v-94h-1002zM397 1829v20l49 47l236 -217l236 217l49 -47v-20l-265 -254h-43z" />
<glyph unicode="&#x11b;" horiz-adv-x="1269" d="M113 520q0 113 39 219q43 102 114 174q74 74 176 115q106 41 232 41q104 0 198 -35q88 -35 152 -98q66 -66 98 -152q35 -92 35 -192q0 -57 -12 -107h-924q8 -199 135 -307q125 -109 322 -108q115 0 207 26q102 31 186 90l49 -77q-94 -70 -207 -101q-106 -33 -239 -33 q-127 0 -232 37q-100 37 -176 107q-70 70 -114 172q-39 111 -39 229zM223 580h830q-4 184 -99 290q-96 109 -288 109q-184 0 -301 -107q-117 -111 -142 -292zM412 1511v21l49 47l225 -197l225 197l50 -47v-21l-254 -243h-43z" />
<glyph unicode="&#x11c;" horiz-adv-x="1542" d="M123 682q0 154 53 281q47 125 148 229q96 96 233 151q135 57 307 58q133 0 258 -41q127 -37 226 -113l-54 -78q-90 68 -200 101q-117 37 -240 37q-143 0 -252 -45q-117 -43 -196 -123q-82 -78 -130 -197q-45 -111 -45 -256q0 -152 48 -260q43 -115 126.5 -197 t196.5 -122.5t248 -40.5q137 0 252 36q111 41 192 101v395l-374 14v82h479v-536q-96 -84 -240 -138q-141 -49 -317 -49q-164 0 -293 49q-129 47 -227 140q-98 94 -146 225q-53 125 -53 297zM567 1616v20l264 254h43l263 -254v-20l-50 -47l-235 217l-236 -217z" />
<glyph unicode="&#x11d;" horiz-adv-x="1349" d="M123 -260q0 96 35 178q33 84 98 137q-53 31 -84 80q-29 47 -29 113q0 78 39 141q39 66 117 117q-57 88 -57 203q0 80 28 139q25 63 82 115q61 51 144 77q86 29 196 29h221l295 27l9 -80l-224 -39q53 -53 84 -123t31 -145q0 -74 -31 -140q-29 -68 -86 -116 q-59 -51 -139 -80q-82 -29 -182 -29q-199 0 -314 96q-61 -29 -90 -80q-25 -45 -24 -102q0 -92 61 -123q63 -29 172 -29h363q94 0 161 -24q59 -18 113 -62q43 -41 68 -92q20 -57 20 -108q0 -86 -41 -168q-43 -72 -121 -135q-80 -57 -190 -90q-106 -33 -248 -33 q-240 0 -358.5 94t-118.5 252zM225 -240q0 -133 94 -204q96 -70 291 -70q100 0 197 22q90 27 151 70q63 43 99 103q37 61 37 135q0 98 -61.5 147t-209.5 49h-348l-141 11q-55 -49 -82 -121q-27 -66 -27 -142zM346 709q0 -121 84 -201q88 -76 240 -76q70 0 131 19 q59 20 106 55q43 31 72 86q25 51 25 117q0 90 -33 155q-37 66 -111 117h-190q-150 0 -238 -72q-86 -70 -86 -200zM410 1296v21l254 244h43l251 -244v-21l-49 -47l-225 197l-225 -197z" />
<glyph unicode="&#x11e;" horiz-adv-x="1542" d="M123 682q0 154 53 281q47 125 148 229q96 96 233 151q135 57 307 58q133 0 258 -41q127 -37 226 -113l-54 -78q-90 68 -200 101q-117 37 -240 37q-143 0 -252 -45q-117 -43 -196 -123q-82 -78 -130 -197q-45 -111 -45 -256q0 -152 48 -260q43 -115 126.5 -197 t196.5 -122.5t248 -40.5q137 0 252 36q111 41 192 101v395l-374 14v82h479v-536q-96 -84 -240 -138q-141 -49 -317 -49q-164 0 -293 49q-129 47 -227 140q-98 94 -146 225q-53 125 -53 297zM543 1874h90q14 -92 69 -137q53 -45 140 -45q84 0 141 45q55 49 70 137h90 q-2 -55 -29 -111q-20 -51 -61 -88q-39 -35 -95 -57q-49 -20 -116 -21q-61 0 -117 21q-53 25 -92 59q-41 37 -62 88q-23 51 -28 109z" />
<glyph unicode="&#x11f;" horiz-adv-x="1349" d="M123 -260q0 96 35 178q33 84 98 137q-53 31 -84 80q-29 47 -29 113q0 78 39 141q39 66 117 117q-57 88 -57 203q0 80 28 139q25 63 82 115q61 51 144 77q86 29 196 29h221l295 27l9 -80l-224 -39q53 -53 84 -123t31 -145q0 -74 -31 -140q-29 -68 -86 -116 q-59 -51 -139 -80q-82 -29 -182 -29q-199 0 -314 96q-61 -29 -90 -80q-25 -45 -24 -102q0 -92 61 -123q63 -29 172 -29h363q94 0 161 -24q59 -18 113 -62q43 -41 68 -92q20 -57 20 -108q0 -86 -41 -168q-43 -72 -121 -135q-80 -57 -190 -90q-106 -33 -248 -33 q-240 0 -358.5 94t-118.5 252zM225 -240q0 -133 94 -204q96 -70 291 -70q100 0 197 22q90 27 151 70q63 43 99 103q37 61 37 135q0 98 -61.5 147t-209.5 49h-348l-141 11q-55 -49 -82 -121q-27 -66 -27 -142zM346 709q0 -121 84 -201q88 -76 240 -76q70 0 131 19 q59 20 106 55q43 31 72 86q25 51 25 117q0 90 -33 155q-37 66 -111 117h-190q-150 0 -238 -72q-86 -70 -86 -200zM428 1522h92q6 -88 62 -125q49 -41 123 -41q70 0 122 41q55 41 60 125h94q-6 -61 -31 -107q-20 -47 -61 -80q-39 -33 -86 -47q-49 -16 -98 -16q-45 0 -103 14 q-55 20 -86 49q-39 31 -61 78q-23 43 -27 109z" />
<glyph unicode="&#x120;" horiz-adv-x="1542" d="M123 682q0 154 53 281q47 125 148 229q96 96 233 151q135 57 307 58q133 0 258 -41q127 -37 226 -113l-54 -78q-90 68 -200 101q-117 37 -240 37q-143 0 -252 -45q-117 -43 -196 -123q-82 -78 -130 -197q-45 -111 -45 -256q0 -152 48 -260q43 -115 126.5 -197 t196.5 -122.5t248 -40.5q137 0 252 36q111 41 192 101v395l-374 14v82h479v-536q-96 -84 -240 -138q-141 -49 -317 -49q-164 0 -293 49q-129 47 -227 140q-98 94 -146 225q-53 125 -53 297zM747.5 1720.5q0.5 44.5 30.5 73.5q31 31 76 31t76 -31q31 -29 31 -74t-31 -73 q-31 -31 -76 -31t-76 31q-31 29 -30.5 73.5z" />
<glyph unicode="&#x121;" horiz-adv-x="1349" d="M123 -260q0 96 35 178q33 84 98 137q-53 31 -84 80q-29 47 -29 113q0 78 39 141q39 66 117 117q-57 88 -57 203q0 80 28 139q25 63 82 115q61 51 144 77q86 29 196 29h221l295 27l9 -80l-224 -39q53 -53 84 -123t31 -145q0 -74 -31 -140q-29 -68 -86 -116 q-59 -51 -139 -80q-82 -29 -182 -29q-199 0 -314 96q-61 -29 -90 -80q-25 -45 -24 -102q0 -92 61 -123q63 -29 172 -29h363q94 0 161 -24q59 -18 113 -62q43 -41 68 -92q20 -57 20 -108q0 -86 -41 -168q-43 -72 -121 -135q-80 -57 -190 -90q-106 -33 -248 -33 q-240 0 -358.5 94t-118.5 252zM225 -240q0 -133 94 -204q96 -70 291 -70q100 0 197 22q90 27 151 70q63 43 99 103q37 61 37 135q0 98 -61.5 147t-209.5 49h-348l-141 11q-55 -49 -82 -121q-27 -66 -27 -142zM346 709q0 -121 84 -201q88 -76 240 -76q70 0 131 19 q59 20 106 55q43 31 72 86q25 51 25 117q0 90 -33 155q-37 66 -111 117h-190q-150 0 -238 -72q-86 -70 -86 -200zM582 1393q0 45 30 71q27 27 70 27t70 -27q31 -29 30 -71q0 -45 -30 -74q-27 -25 -70 -25t-70 25q-31 29 -30 74z" />
<glyph unicode="&#x122;" horiz-adv-x="1542" d="M123 682q0 154 53 281q47 125 148 229q96 96 233 151q135 57 307 58q133 0 258 -41q127 -37 226 -113l-54 -78q-90 68 -200 101q-117 37 -240 37q-143 0 -252 -45q-117 -43 -196 -123q-82 -78 -130 -197q-45 -111 -45 -256q0 -152 48 -260q43 -115 126.5 -197 t196.5 -122.5t248 -40.5q137 0 252 36q111 41 192 101v395l-374 14v82h479v-536q-96 -84 -240 -138q-141 -49 -317 -49q-164 0 -293 49q-129 47 -227 140q-98 94 -146 225q-53 125 -53 297zM725 -281q0 47 31 74q33 29 75.5 29t75.5 -29q31 -27 31 -74q0 -18 -10 -49 l-115 -286l-61 20l61 215q-39 6 -63 33q-25 29 -25 67z" />
<glyph unicode="&#x123;" horiz-adv-x="1349" d="M123 -260q0 96 35 178q33 84 98 137q-53 31 -84 80q-29 47 -29 113q0 78 39 141q39 66 117 117q-57 88 -57 203q0 80 28 139q25 63 82 115q61 51 144 77q86 29 196 29h221l295 27l9 -80l-224 -39q53 -53 84 -123t31 -145q0 -74 -31 -140q-29 -68 -86 -116 q-59 -51 -139 -80q-82 -29 -182 -29q-199 0 -314 96q-61 -29 -90 -80q-25 -45 -24 -102q0 -92 61 -123q63 -29 172 -29h363q94 0 161 -24q59 -18 113 -62q43 -41 68 -92q20 -57 20 -108q0 -86 -41 -168q-43 -72 -121 -135q-80 -57 -190 -90q-106 -33 -248 -33 q-240 0 -358.5 94t-118.5 252zM225 -240q0 -133 94 -204q96 -70 291 -70q100 0 197 22q90 27 151 70q63 43 99 103q37 61 37 135q0 98 -61.5 147t-209.5 49h-348l-141 11q-55 -49 -82 -121q-27 -66 -27 -142zM346 709q0 -121 84 -201q88 -76 240 -76q70 0 131 19 q59 20 106 55q43 31 72 86q25 51 25 117q0 90 -33 155q-37 66 -111 117h-190q-150 0 -238 -72q-86 -70 -86 -200zM590 1354q0 18 10 49l105 266l61 -20l-51 -195q39 -6 63 -33q25 -29 25 -67q0 -47 -31 -74q-33 -29 -76 -29t-75 29q-31 27 -31 74z" />
<glyph unicode="&#x124;" horiz-adv-x="1501" d="M184 0v1372h107v-620h919v620h107v-1372h-107v657h-919v-657h-107zM465 1616v20l264 254h43l262 -254v-20l-49 -47l-235 217l-236 -217z" />
<glyph unicode="&#x125;" horiz-adv-x="1325" d="M-49 1667v21l254 243h43l252 -243v-21l-49 -47l-226 197l-225 -197zM164 0v1475h104v-711q66 145 178 223q109 82 297 82q186 0 306 -115q113 -119 112 -327v-627h-104v604q0 195 -90 285q-88 88 -250 88q-160 0 -273 -105q-115 -109 -176 -294v-578h-104z" />
<glyph unicode="&#x126;" horiz-adv-x="1501" d="M41 1038v92h143v242h107v-242h919v242h107v-242h143v-92h-143v-1038h-107v635h-919v-635h-107v1038h-143zM291 729h919v309h-919v-309z" />
<glyph unicode="&#x127;" horiz-adv-x="1325" d="M20 1241v82h136l18 172h94v-172h353v-82h-353v-477q66 145 178 223q109 82 297 82q186 0 306 -115q113 -119 112 -327v-627h-104v604q0 195 -90 285q-88 88 -250 88q-160 0 -273 -105q-115 -109 -176 -294v-578h-104v1241h-144z" />
<glyph unicode="&#x128;" horiz-adv-x="475" d="M-59 1706q59 104 178 104q49 0 86 -16q45 -25 61 -37l53 -37q25 -18 54 -18q72 0 102 55l62 -53q-51 -94 -162 -94q-45 0 -84 16q-41 25 -60 37l-51 37q-25 18 -57 18q-37 0 -74 -14q-35 -23 -51 -49zM184 0v1372h107v-1372h-107z" />
<glyph unicode="&#x129;" horiz-adv-x="434" d="M-68 1366q25 45 68 78q41 27 102 26q47 0 86 -16l62 -37l49 -37q25 -18 53 -18q63 0 94 55l62 -53q-27 -49 -62 -70q-37 -25 -92 -24q-45 0 -82 16q-23 12 -59 37l-49 37q-25 18 -58 18q-37 0 -69 -14q-31 -23 -47 -49zM164 0v1044h106v-1044h-106z" />
<glyph unicode="&#x12a;" horiz-adv-x="475" d="M-45 1671v92h571v-92h-571zM184 0v1372h107v-1372h-107z" />
<glyph unicode="&#x12b;" horiz-adv-x="434" d="M-12 1350v92h465v-92h-465zM164 0v1044h106v-1044h-106z" />
<glyph unicode="&#x12c;" horiz-adv-x="475" d="M-59 1874h90q14 -92 69 -137q53 -45 140 -45q84 0 141 45q55 49 70 137h90q-2 -55 -29 -111q-20 -51 -61 -88q-39 -35 -95 -57q-49 -20 -116 -21q-61 0 -117 21q-53 25 -92 59q-41 37 -62 88q-23 51 -28 109zM184 0v1372h107v-1372h-107z" />
<glyph unicode="&#x12d;" horiz-adv-x="434" d="M-57 1522h92q6 -88 59 -125q53 -41 125 -41q68 0 125 41q53 41 57 125h95q-6 -57 -29 -107q-25 -47 -61 -80q-43 -33 -87 -47q-53 -16 -100 -16q-45 0 -102 14q-53 20 -88 49q-37 31 -62 78q-20 45 -24 109zM164 0v1044h106v-1044h-106z" />
<glyph unicode="&#x12e;" horiz-adv-x="475" d="M82 -152q0 76 24 125q31 53 78 84v1315h107v-1372h-19q-37 0 -67 -37q-27 -41 -27 -96q0 -82 39 -125q43 -41 129 -55l-14 -82q-61 6 -115 26q-53 29 -78 56q-29 35 -43 75q-14 37 -14 86z" />
<glyph unicode="&#x12f;" horiz-adv-x="434" d="M70 -166q0 70 22 121q20 47 72 88v1001h106v-1044h-12q-27 0 -61 -41q-33 -39 -33 -115q0 -68 37 -110q33 -41 123 -58l-15 -82q-66 6 -106 29q-37 14 -76 53q-29 37 -43 74q-14 41 -14 84zM117 1393q0 45 30 71q27 27 70 27t70 -27q31 -27 30 -71q0 -45 -30 -74 q-27 -25 -70 -25q-41 0 -70 25q-31 29 -30 74z" />
<glyph unicode="&#x130;" horiz-adv-x="475" d="M133 1720.5q0 44.5 31 73.5q31 31 76 31t75 -31q31 -29 31 -74t-31 -73q-31 -31 -75.5 -31t-75.5 31q-31 29 -31 73.5zM184 0v1372h107v-1372h-107z" />
<glyph unicode="&#x131;" horiz-adv-x="434" d="M164 0v1044h106v-1044h-106z" />
<glyph unicode="&#x134;" horiz-adv-x="1107" d="M92 92l51 82q150 -109 322 -108q66 0 141 20q68 27 111 70q45 45 74 120q27 72 26 177v919h107v-895q0 -250 -119 -377q-121 -129 -340 -129q-100 0 -199 29q-94 31 -174 92zM584 1616v20l264 254h43l262 -254v-20l-49 -47l-236 217l-235 -217z" />
<glyph unicode="&#x135;" horiz-adv-x="452" d="M-313 -442l43 84q96 -53 202 -54q117 0 185 76q68 78 67 240v1140h105v-1144q0 -182 -88 -295q-92 -111 -264 -111q-57 0 -130 14q-74 20 -120 50zM-39 1296v21l254 244h43l252 -244v-21l-49 -47l-225 197l-226 -197z" />
<glyph unicode="&#x136;" horiz-adv-x="1392" d="M184 0v1372h107v-600l313 16l498 584h135l-543 -629l596 -743h-137l-547 686h-315v-686h-107zM575 -240q0 47 31 74q33 29 76 29t76 -29q31 -27 30 -74q0 -18 -10 -49l-114 -286l-62 20l62 215q-39 6 -64 33q-25 29 -25 67z" />
<glyph unicode="&#x137;" horiz-adv-x="1196" d="M164 0v1475h104v-883l291 20l365 432h137l-399 -469l462 -575h-137l-405 510h-314v-510h-104zM510 -285q0 47 31 74q33 29 75.5 29t75.5 -29q31 -27 31 -74q0 -18 -10 -49l-105 -266l-61 20l51 195q-39 6 -63 33q-25 29 -25 67z" />
<glyph unicode="&#x138;" horiz-adv-x="1196" d="M164 0v1044h104v-450l291 16l365 434h137l-404 -469l467 -575h-137l-409 510h-310v-510h-104z" />
<glyph unicode="&#x139;" horiz-adv-x="1265" d="M184 0v1372h107v-1276h862v-96h-969zM250 1604l176 389l94 -51l-184 -338h-86z" />
<glyph unicode="&#x13a;" horiz-adv-x="432" d="M164 0v1475h104v-1475h-104zM197 1651l157 338l97 -54l-166 -284h-88z" />
<glyph unicode="&#x13b;" horiz-adv-x="1265" d="M184 0v1372h107v-1276h862v-96h-969zM584 -281q0 47 30 74q33 29 76 29t76 -29q31 -27 31 -74q0 -18 -11 -49l-114 -286l-62 20l62 215q-39 6 -64 33q-25 29 -24 67z" />
<glyph unicode="&#x13c;" horiz-adv-x="432" d="M111 -285q0 47 30 74q33 29 76 29t76 -29q31 -27 31 -74q0 -18 -11 -49l-104 -266l-62 20l52 195q-39 6 -64 33q-25 29 -24 67zM164 0v1475h104v-1475h-104z" />
<glyph unicode="&#x13d;" horiz-adv-x="1265" d="M184 0v1372h107v-1276h862v-96h-969zM905 1073q0 45 31 74q33 29 76 29t75 -29q31 -29 31 -74q0 -18 -10 -49l-115 -287l-61 21l61 215q-39 6 -63 33q-25 27 -25 67z" />
<glyph unicode="&#x13e;" horiz-adv-x="712" d="M164 0v1475h104v-1475h-104zM479 1329q0 47 31 74q33 29 76 29t76 -29q31 -27 30 -74q0 -18 -10 -49l-104 -266l-62 20l51 195q-39 6 -63 33q-25 29 -25 67z" />
<glyph unicode="&#x13f;" horiz-adv-x="1265" d="M184 0v1372h107v-1276h862v-96h-969zM831 846q0 45 31 76q33 28 76 28t76 -28q31 -31 30.5 -76t-30.5 -76q-33 -29 -76 -29t-76 29q-31 31 -31 76z" />
<glyph unicode="&#x140;" horiz-adv-x="737" d="M164 0v1475h104v-1475h-104zM467 653q0 43 29 72q28 27 71 27t72 -27q29 -29 29 -72q0 -47 -29 -71q-29 -27 -72 -27t-71 27q-29 25 -29 71z" />
<glyph unicode="&#x141;" horiz-adv-x="1265" d="M33 588l151 61v723h107v-678l381 160l37 -86l-418 -176v-496h862v-96h-969v539l-125 -33z" />
<glyph unicode="&#x142;" horiz-adv-x="473" d="M-31 606l215 111v758h105v-703l172 90l43 -80l-215 -112v-670h-105v614l-172 -88z" />
<glyph unicode="&#x143;" horiz-adv-x="1548" d="M184 0v1372h90l990 -1210v1210h100v-1372h-98l-981 1210v-1210h-101zM721 1604l176 389l94 -51l-184 -338h-86z" />
<glyph unicode="&#x144;" horiz-adv-x="1325" d="M164 0v1044h80l16 -305q61 156 180 244q121 86 303 86q96 0 170 -31q78 -31 134 -88q57 -61 83 -139q31 -82 31 -184v-627h-104v604q0 195 -90 285q-88 88 -250 88q-160 0 -275 -111q-113 -109 -174 -295v-571h-104zM674 1294l157 338l97 -53l-166 -285h-88z" />
<glyph unicode="&#x145;" horiz-adv-x="1548" d="M184 0v1372h90l990 -1210v1210h100v-1372h-98l-981 1210v-1210h-101zM668 -240q0 47 30 74q33 29 76 29t76 -29q31 -27 31 -74q0 -18 -11 -49l-114 -286l-62 20l62 215q-39 6 -64 33q-25 29 -24 67z" />
<glyph unicode="&#x146;" horiz-adv-x="1325" d="M164 0v1044h80l16 -305q61 156 180 244q121 86 303 86q96 0 170 -31q78 -31 134 -88q57 -61 83 -139q31 -82 31 -184v-627h-104v604q0 195 -90 285q-88 88 -250 88q-160 0 -275 -111q-113 -109 -174 -295v-571h-104zM555 -264q0 47 31 74q33 29 76 28.5t75 -28.5 q31 -27 31 -74q0 -18 -10 -49l-105 -267l-61 21l51 194q-39 6 -63 33q-25 29 -25 68z" />
<glyph unicode="&#x147;" horiz-adv-x="1548" d="M184 0v1372h90l990 -1210v1210h100v-1372h-98l-981 1210v-1210h-101zM489 1829v20l50 47l235 -217l236 217l49 -47v-20l-264 -254h-43z" />
<glyph unicode="&#x148;" horiz-adv-x="1325" d="M164 0v1044h80l16 -305q61 156 180 244q121 86 303 86q96 0 170 -31q78 -31 134 -88q57 -61 83 -139q31 -82 31 -184v-627h-104v604q0 195 -90 285q-88 88 -250 88q-160 0 -275 -111q-113 -109 -174 -295v-571h-104zM430 1511v21l49 47l226 -197l225 197l49 -47v-21 l-254 -243h-43z" />
<glyph unicode="&#x149;" horiz-adv-x="1544" d="M43 1329q0 47 31 74q33 29 76 29t75 -29q31 -27 31 -74q0 -18 -10 -49l-105 -266l-61 20l51 195q-39 6 -63 33q-25 29 -25 67zM383 0v1044h80l16 -305q61 156 180 244q119 86 304 86q92 0 172 -31q78 -33 131 -88q57 -59 86 -139q29 -86 28 -184v-627h-104v604 q0 190 -88 285q-94 88 -252 88q-162 0 -274 -111q-113 -109 -175 -295v-571h-104z" />
<glyph unicode="&#x14c;" horiz-adv-x="1679" d="M123 686q0 145 53 281q49 127 148 227q102 100 229 152q129 55 287 55q154 0 290 -53q135 -57 226 -152q98 -94 147 -225q53 -127 53 -285q0 -152 -53 -278q-49 -133 -147 -228q-90 -94 -226 -151q-133 -57 -290 -58q-162 0 -291 56q-131 53 -227 153q-96 96 -146 226 q-53 127 -53 280zM231 686q0 -133 43 -246q47 -117 125 -194q78 -84 191 -131q117 -47 250 -47q139 0 250 45q115 47 190 127q78 80 125 194q43 117 43 252t-43 252q-47 115 -125 195q-76 80 -190 127q-111 45 -250 45q-137 0 -254 -48q-113 -45 -193 -131 q-80 -84 -119 -196q-43 -111 -43 -244zM473 1671v92h735v-92h-735z" />
<glyph unicode="&#x14d;" horiz-adv-x="1355" d="M113 522q0 113 43 215q39 98 114 174q78 74 181 117q104 41 227 41q125 0 231 -41q102 -39 178 -115q76 -72 115 -172q41 -104 41 -219q0 -113 -43 -215q-39 -100 -117 -174q-76 -74 -178 -117q-106 -41 -227 -41q-125 0 -232 41q-102 39 -178 115q-76 72 -114 172 q-41 104 -41 219zM219 522q0 -104 33 -184q35 -84 92 -145q55 -55 143 -95q92 -33 190.5 -32.5t190.5 32.5q88 39 144 95q57 61 92 145q33 80 33 184q0 98 -33 178q-35 84 -92 146q-61 61 -146 96q-84 37 -188 37q-102 0 -189 -35q-84 -35 -145 -96q-57 -59 -92 -143 q-33 -84 -33 -183zM344 1350v92h670v-92h-670z" />
<glyph unicode="&#x14e;" horiz-adv-x="1679" d="M123 686q0 145 53 281q49 127 148 227q102 100 229 152q129 55 287 55q154 0 290 -53q135 -57 226 -152q98 -94 147 -225q53 -127 53 -285q0 -152 -53 -278q-49 -133 -147 -228q-90 -94 -226 -151q-133 -57 -290 -58q-162 0 -291 56q-131 53 -227 153q-96 96 -146 226 q-53 127 -53 280zM231 686q0 -133 43 -246q47 -117 125 -194q78 -84 191 -131q117 -47 250 -47q139 0 250 45q115 47 190 127q78 80 125 194q43 117 43 252t-43 252q-47 115 -125 195q-76 80 -190 127q-111 45 -250 45q-137 0 -254 -48q-113 -45 -193 -131 q-80 -84 -119 -196q-43 -111 -43 -244zM541 1874h90q14 -92 69 -137q53 -45 140 -45q84 0 141 45q55 49 70 137h90q-2 -53 -27 -111q-25 -51 -63 -88q-39 -35 -93 -57q-53 -20 -118 -21q-57 0 -119 21q-55 29 -90 59q-41 37 -62 88q-23 51 -28 109z" />
<glyph unicode="&#x14f;" horiz-adv-x="1355" d="M113 522q0 113 43 215q39 98 114 174q78 74 181 117q104 41 227 41q125 0 231 -41q102 -39 178 -115q76 -72 115 -172q41 -104 41 -219q0 -113 -43 -215q-39 -100 -117 -174q-76 -74 -178 -117q-106 -41 -227 -41q-125 0 -232 41q-102 39 -178 115q-76 72 -114 172 q-41 104 -41 219zM219 522q0 -104 33 -184q35 -84 92 -145q55 -55 143 -95q92 -33 190.5 -32.5t190.5 32.5q88 39 144 95q57 61 92 145q33 80 33 184q0 98 -33 178q-35 84 -92 146q-61 61 -146 96q-84 37 -188 37q-102 0 -189 -35q-84 -35 -145 -96q-57 -59 -92 -143 q-33 -84 -33 -183zM401 1522h93q6 -88 61 -125q49 -41 123 -41q70 0 123 41q55 41 59 125h94q-6 -61 -30 -107q-23 -47 -62 -80t-86 -47q-49 -16 -98 -16q-45 0 -103 14q-55 20 -86 49q-39 31 -61 78q-23 43 -27 109z" />
<glyph unicode="&#x150;" horiz-adv-x="1679" d="M123 686q0 145 53 281q49 127 148 227q102 100 229 152q129 55 287 55q154 0 290 -53q135 -57 226 -152q98 -94 147 -225q53 -127 53 -285q0 -152 -53 -278q-49 -133 -147 -228q-90 -94 -226 -151q-133 -57 -290 -58q-162 0 -291 56q-131 53 -227 153q-96 96 -146 226 q-53 127 -53 280zM231 686q0 -133 43 -246q47 -117 125 -194q78 -84 191 -131q117 -47 250 -47q139 0 250 45q115 47 190 127q78 80 125 194q43 117 43 252t-43 252q-47 115 -125 195q-76 80 -190 127q-111 45 -250 45q-137 0 -254 -48q-113 -45 -193 -131 q-80 -84 -119 -196q-43 -111 -43 -244zM692 1604l123 372l94 -34l-133 -338h-84zM956 1604l158 327l90 -43l-157 -284h-91z" />
<glyph unicode="&#x151;" horiz-adv-x="1355" d="M113 522q0 113 43 215q39 98 114 174q78 74 181 117q104 41 227 41q125 0 231 -41q102 -39 178 -115q76 -72 115 -172q41 -104 41 -219q0 -113 -43 -215q-39 -100 -117 -174q-76 -74 -178 -117q-106 -41 -227 -41q-125 0 -232 41q-102 39 -178 115q-76 72 -114 172 q-41 104 -41 219zM219 522q0 -104 33 -184q35 -84 92 -145q55 -55 143 -95q92 -33 190.5 -32.5t190.5 32.5q88 39 144 95q57 61 92 145q33 80 33 184q0 98 -33 178q-35 84 -92 146q-61 61 -146 96q-84 37 -188 37q-102 0 -189 -35q-84 -35 -145 -96q-57 -59 -92 -143 q-33 -84 -33 -183zM524 1294l138 359l94 -43l-148 -316h-84zM772 1294l154 308l92 -54l-162 -254h-84z" />
<glyph unicode="&#x152;" horiz-adv-x="2213" d="M123 686q0 150 49 281t139 227t217 152q125 55 281 55q131 0 244 -41q102 -39 190 -113v125h942v-92h-835v-522h727v-92h-727v-572h874v-94h-981v137q-80 -78 -190 -123q-111 -43 -244 -43q-160 0 -285 55.5t-217 153.5q-90 100 -135 226q-49 133 -49 280zM231 686 q0 -135 39 -246q41 -117 113 -194q74 -86 182 -131q106 -47 244 -47q147 0 258 53q102 49 176 151v842q-70 90 -178 141q-111 49 -256 50q-141 0 -248 -48q-111 -45 -180 -131q-74 -80 -111 -196q-39 -109 -39 -244z" />
<glyph unicode="&#x153;" horiz-adv-x="2144" d="M113 522q0 113 37 215q37 100 104 174q72 74 168 117q104 41 225 41q74 0 152 -20q82 -27 135 -60q59 -39 104 -88q41 -47 72 -110q31 76 74 118q39 49 106 90q61 37 131 54q72 16 148 16q98 0 184 -35t148 -98q63 -68 96 -152q35 -92 35 -192q0 -57 -13 -107h-872 q8 -197 119 -307q109 -109 307 -108q111 0 192 26q96 29 181 90l49 -80q-94 -70 -197 -100q-98 -31 -229 -31q-162 0 -281 70t-186 197q-63 -123 -180 -193q-117 -74 -275 -74q-125 0 -225 41q-98 39 -168 115q-70 70 -107 172q-35 104 -34 219zM219 522q0 -94 27 -184 q33 -86 82 -145q53 -57 135 -95q86 -33 184 -32q92 0 174 32q80 39 133 95q55 66 82 145q29 86 29 184.5t-27 177.5q-31 90 -80 146q-49 61 -129 96q-78 37 -182 37q-102 0 -184 -35q-78 -33 -135 -96q-49 -57 -82 -143q-27 -94 -27 -183zM1149 580h778q-4 186 -96 290 q-92 109 -270 109q-186 0 -289 -107q-102 -111 -123 -292z" />
<glyph unicode="&#x154;" horiz-adv-x="1376" d="M184 0v1372h578q109 0 194 -33q92 -33 156 -86q68 -61 102 -137q37 -80 37 -178q0 -80 -26.5 -147.5t-73.5 -126.5q-43 -51 -113 -95q-61 -37 -143 -57l379 -512h-133l-355 489h-495v-489h-107zM291 584h446q96 0 170 26q72 27 129 74q53 51 78 111q29 63 29 143 q0 162 -107 252q-109 88 -291 88h-454v-694zM635 1604l176 389l94 -51l-184 -338h-86z" />
<glyph unicode="&#x155;" horiz-adv-x="1093" d="M164 0v1044h80l14 -307q68 168 180 250q115 82 277 82q86 0 166 -25q82 -25 141 -75l-57 -80q-113 86 -271 86q-156 0 -260 -107q-106 -106 -166 -301v-567h-104zM633 1294l158 338l96 -53l-166 -285h-88z" />
<glyph unicode="&#x156;" horiz-adv-x="1376" d="M184 0v1372h578q109 0 194 -33q92 -33 156 -86q68 -61 102 -137q37 -80 37 -178q0 -80 -26.5 -147.5t-73.5 -126.5q-43 -51 -113 -95q-61 -37 -143 -57l379 -512h-133l-355 489h-495v-489h-107zM291 584h446q96 0 170 26q72 27 129 74q53 51 78 111q29 63 29 143 q0 162 -107 252q-109 88 -291 88h-454v-694zM604 -240q0 47 31 74q33 29 76 29t75 -29q31 -27 31 -74q0 -18 -10 -49l-115 -286l-61 20l61 215q-39 6 -63 33q-25 29 -25 67z" />
<glyph unicode="&#x157;" horiz-adv-x="1093" d="M119 -285q0 47 31 74q33 29 75.5 29t75.5 -29q31 -27 31 -74q0 -18 -10 -49l-105 -266l-61 20l51 195q-39 6 -64 33q-25 29 -24 67zM164 0v1044h80l14 -307q68 168 180 250q115 82 277 82q86 0 166 -25q82 -25 141 -75l-57 -80q-113 86 -271 86q-156 0 -260 -107 q-106 -106 -166 -301v-567h-104z" />
<glyph unicode="&#x158;" horiz-adv-x="1376" d="M184 0v1372h578q109 0 194 -33q92 -33 156 -86q68 -61 102 -137q37 -80 37 -178q0 -80 -26.5 -147.5t-73.5 -126.5q-43 -51 -113 -95q-61 -37 -143 -57l379 -512h-133l-355 489h-495v-489h-107zM291 584h446q96 0 170 26q72 27 129 74q53 51 78 111q29 63 29 143 q0 162 -107 252q-109 88 -291 88h-454v-694zM387 1829v20l49 47l236 -217l235 217l49 -47v-20l-264 -254h-43z" />
<glyph unicode="&#x159;" horiz-adv-x="1093" d="M164 0v1044h80l14 -307q68 168 180 250q115 82 277 82q86 0 166 -25q82 -25 141 -75l-57 -80q-113 86 -271 86q-156 0 -260 -107q-106 -106 -166 -301v-567h-104zM385 1511v21l49 47l225 -197l226 197l49 -47v-21l-254 -243h-43z" />
<glyph unicode="&#x15a;" horiz-adv-x="1339" d="M113 131l55 84q121 -84 231 -117q113 -31 250 -30q223 0 342 86t119 219q0 104 -74 178q-78 76 -248 96l-241 33q-377 51 -377 352q0 82 35 156q37 68 102 115q63 49 155.5 73.5t203.5 24.5q121 0 260 -35q127 -33 229 -106l-57 -80q-84 57 -201 94q-119 33 -229 33 q-96 0 -179 -21q-80 -27 -120 -59q-51 -39 -70 -86q-23 -45 -23 -107q0 -117 76 -178q80 -61 223 -82l230 -33q197 -29 305 -120q106 -96 107 -252q0 -86 -39 -156q-41 -76 -113 -127q-74 -53 -178 -84q-109 -31 -242 -31q-154 0 -280 37q-129 33 -252 123zM645 1604 l176 389l94 -51l-184 -338h-86z" />
<glyph unicode="&#x15b;" horiz-adv-x="1171" d="M113 94l49 88q98 -63 198 -88q94 -29 215 -28q178 0 273 59q96 57 96 154q0 82 -55 131q-57 53 -197 67l-262 31q-135 16 -209 86t-74 184q0 63 27 111q25 49 80 94q63 43 139 61q80 25 197 25q115 0 221 -27q109 -29 190 -86l-47 -79q-176 102 -368 102q-172 0 -250 -57 q-84 -57 -84 -144q0 -74 47 -121q45 -45 162 -57l233 -27q164 -18 256 -90q98 -68 99 -202q0 -141 -125 -224q-129 -82 -359 -82q-133 0 -237 27q-111 27 -215 92zM563 1294l158 338l96 -53l-166 -285h-88z" />
<glyph unicode="&#x15c;" horiz-adv-x="1339" d="M113 131l55 84q121 -84 231 -117q113 -31 250 -30q223 0 342 86t119 219q0 104 -74 178q-78 76 -248 96l-241 33q-377 51 -377 352q0 82 35 156q37 68 102 115q63 49 155.5 73.5t203.5 24.5q121 0 260 -35q127 -33 229 -106l-57 -80q-84 57 -201 94q-119 33 -229 33 q-96 0 -179 -21q-80 -27 -120 -59q-51 -39 -70 -86q-23 -45 -23 -107q0 -117 76 -178q80 -61 223 -82l230 -33q197 -29 305 -120q106 -96 107 -252q0 -86 -39 -156q-41 -76 -113 -127q-74 -53 -178 -84q-109 -31 -242 -31q-154 0 -280 37q-129 33 -252 123zM410 1616v20 l264 254h43l262 -254v-20l-49 -47l-236 217l-235 -217z" />
<glyph unicode="&#x15d;" horiz-adv-x="1171" d="M113 94l49 88q98 -63 198 -88q94 -29 215 -28q178 0 273 59q96 57 96 154q0 82 -55 131q-57 53 -197 67l-262 31q-135 16 -209 86t-74 184q0 63 27 111q25 49 80 94q63 43 139 61q80 25 197 25q115 0 221 -27q109 -29 190 -86l-47 -79q-176 102 -368 102q-172 0 -250 -57 q-84 -57 -84 -144q0 -74 47 -121q45 -45 162 -57l233 -27q164 -18 256 -90q98 -68 99 -202q0 -141 -125 -224q-129 -82 -359 -82q-133 0 -237 27q-111 27 -215 92zM330 1296v21l254 244h43l252 -244v-21l-50 -47l-225 197l-225 -197z" />
<glyph unicode="&#x15e;" horiz-adv-x="1339" d="M113 131l55 84q121 -84 231 -117q113 -31 250 -30q223 0 342 86t119 219q0 104 -74 178q-78 76 -248 96l-241 33q-377 51 -377 352q0 82 35 156q37 68 102 115q63 49 155.5 73.5t203.5 24.5q121 0 260 -35q127 -33 229 -106l-57 -80q-84 57 -201 94q-119 33 -229 33 q-96 0 -179 -21q-80 -27 -120 -59q-51 -39 -70 -86q-23 -45 -23 -107q0 -117 76 -178q80 -61 223 -82l230 -33q197 -29 305 -120q106 -96 107 -252q0 -84 -37 -152q-37 -74 -107 -125q-70 -55 -168 -84q-102 -33 -227 -37l-6 -100q74 -23 110 -76q41 -49 41 -123 q0 -106 -73 -190q-74 -84 -236 -123l-31 74q129 33 189 96q57 59 57 135q0 70 -47 105q-43 31 -133 41v40l37 68v55q-135 6 -248 43q-113 33 -225 115z" />
<glyph unicode="&#x15f;" horiz-adv-x="1171" d="M113 94l49 88q98 -63 198 -88q94 -29 215 -28q178 0 273 59q96 57 96 154q0 82 -55 131q-57 53 -197 67l-262 31q-135 16 -209 86t-74 184q0 63 27 111q25 49 80 94q63 43 139 61q80 25 197 25q115 0 221 -27q109 -29 190 -86l-47 -79q-176 102 -368 102q-172 0 -250 -57 q-84 -57 -84 -144q0 -74 47 -121q45 -45 162 -57l233 -27q164 -18 256 -90q98 -68 98.5 -203t-118.5 -217q-115 -82 -336 -88l-8 -100q68 -23 102 -76q39 -47 39 -121q0 -104 -72 -178q-68 -80 -231 -116l-23 69q131 39 181 92q51 53 51 125q0 61 -39 105q-45 39 -127 41v34 l37 68v59q-109 2 -205 31q-94 27 -186 86z" />
<glyph unicode="&#x160;" horiz-adv-x="1339" d="M113 131l55 84q121 -84 231 -117q113 -31 250 -30q223 0 342 86t119 219q0 104 -74 178q-78 76 -248 96l-241 33q-377 51 -377 352q0 82 35 156q37 68 102 115q63 49 155.5 73.5t203.5 24.5q121 0 260 -35q127 -33 229 -106l-57 -80q-84 57 -201 94q-119 33 -229 33 q-96 0 -179 -21q-80 -27 -120 -59q-51 -39 -70 -86q-23 -45 -23 -107q0 -117 76 -178q80 -61 223 -82l230 -33q197 -29 305 -120q106 -96 107 -252q0 -86 -39 -156q-41 -76 -113 -127q-74 -53 -178 -84q-109 -31 -242 -31q-154 0 -280 37q-129 33 -252 123zM401 1829v20 l50 47l235 -217l236 217l49 -47v-20l-264 -254h-43z" />
<glyph unicode="&#x161;" horiz-adv-x="1171" d="M113 94l49 88q98 -63 198 -88q94 -29 215 -28q178 0 273 59q96 57 96 154q0 82 -55 131q-57 53 -197 67l-262 31q-135 16 -209 86t-74 184q0 63 27 111q25 49 80 94q63 43 139 61q80 25 197 25q115 0 221 -27q109 -29 190 -86l-47 -79q-176 102 -368 102q-172 0 -250 -57 q-84 -57 -84 -144q0 -74 47 -121q45 -45 162 -57l233 -27q164 -18 256 -90q98 -68 99 -202q0 -141 -125 -224q-129 -82 -359 -82q-133 0 -237 27q-111 27 -215 92zM324 1511v21l49 47l225 -197l225 197l49 -47v-21l-254 -243h-43z" />
<glyph unicode="&#x162;" horiz-adv-x="1425" d="M113 1278v94h1200v-94h-547v-1278h-107v1278h-546zM606 -281q0 47 31 74q33 29 76 29t75 -29q31 -27 31 -74q0 -18 -10 -49l-115 -286l-61 20l61 215q-39 6 -63 33q-25 29 -25 67z" />
<glyph unicode="&#x163;" horiz-adv-x="927" d="M82 952v82l174 13l43 296l84 -4l-12 -295h424v-92h-420v-618q0 -143 59 -203q57 -57 174 -57q125 0 219 73l50 -79q-51 -41 -125 -68q-72 -25 -150 -25q-160 0 -246 88q-86 90 -86 275v614h-188zM473 -285q0 47 31 74q33 29 76 29t75 -29q31 -27 31 -74q0 -18 -10 -49 l-105 -266l-61 20l51 195q-39 6 -63 33q-25 29 -25 67z" />
<glyph unicode="&#x164;" horiz-adv-x="1425" d="M113 1278v94h1200v-94h-547v-1278h-107v1278h-546zM428 1829v20l49 47l236 -217l235 217l49 -47v-20l-264 -254h-43z" />
<glyph unicode="&#x165;" horiz-adv-x="1193" d="M82 952v82l174 13l43 296l84 -4l-12 -295h424v-92h-420v-618q0 -143 59 -203q57 -57 174 -57q125 0 219 73l50 -79q-51 -41 -125 -68q-72 -25 -150 -25q-160 0 -246 88q-86 90 -86 275v614h-188zM961 1329q0 47 30 74q33 29 76 29t76 -29q31 -27 31 -74q0 -18 -11 -49 l-104 -266l-62 20l52 195q-39 6 -64 33q-25 29 -24 67z" />
<glyph unicode="&#x168;" horiz-adv-x="1552" d="M184 629v743h107v-735q0 -281 131 -424q131 -147 354 -147q100 0 199 32q96 41 151 105q68 70 101 176q35 111 35 254v739h106v-735q0 -152 -37 -275q-41 -125 -114 -210q-76 -88 -185 -134q-113 -47 -256 -47q-137 0 -254 45q-111 49 -186 131q-72 84 -113 209 q-39 117 -39 273zM410 1683q37 59 98 99q59 33 137 33q47 0 84 -19q29 -14 70 -39q37 -25 69 -41q31 -18 74 -18q49 0 82 20q35 25 53 60l68 -58q-66 -115 -209 -114q-51 0 -88 18q-29 14 -70 39q-25 16 -69 41q-33 18 -80 18q-55 0 -92 -24q-37 -27 -64 -66z" />
<glyph unicode="&#x169;" horiz-adv-x="1314" d="M164 449v595h104v-563q0 -219 86 -313q88 -94 238 -94q154 0 274 98q119 94 181 281v591h104v-1044h-80l-16 285q-61 -156 -185 -232q-125 -78 -295 -78q-186 0 -299 123q-113 119 -112 351zM299 1354q33 61 90 100q59 33 137 33q47 0 82 -19q8 -4 66 -38q20 -16 61 -41 q35 -18 74 -19q45 0 82 19q37 20 57 57l68 -53q-59 -115 -207 -115q-55 0 -90 18q-16 8 -68 39q-25 20 -63 41q-35 18 -78 19q-51 0 -86 -23q-35 -25 -62 -65z" />
<glyph unicode="&#x16a;" horiz-adv-x="1552" d="M184 629v743h107v-735q0 -281 131 -424q131 -147 354 -147q100 0 199 32q96 41 151 105q68 70 101 176q35 111 35 254v739h106v-735q0 -152 -37 -275q-41 -125 -114 -210q-76 -88 -185 -134q-113 -47 -256 -47q-137 0 -254 45q-111 49 -186 131q-72 84 -113 209 q-39 117 -39 273zM410 1671v92h735v-92h-735z" />
<glyph unicode="&#x16b;" horiz-adv-x="1314" d="M164 449v595h104v-563q0 -219 86 -313q88 -94 238 -94q154 0 274 98q119 94 181 281v591h104v-1044h-80l-16 285q-61 -156 -185 -232q-125 -78 -295 -78q-186 0 -299 123q-113 119 -112 351zM324 1350v92h669v-92h-669z" />
<glyph unicode="&#x16c;" horiz-adv-x="1552" d="M184 629v743h107v-735q0 -281 131 -424q131 -147 354 -147q100 0 199 32q96 41 151 105q68 70 101 176q35 111 35 254v739h106v-735q0 -152 -37 -275q-41 -125 -114 -210q-76 -88 -185 -134q-113 -47 -256 -47q-137 0 -254 45q-111 49 -186 131q-72 84 -113 209 q-39 117 -39 273zM477 1874h90q14 -92 70 -137q53 -45 139 -45q84 0 142 45q55 49 69 137h90q-2 -55 -28 -111q-20 -51 -62 -88q-39 -35 -94 -57q-49 -20 -117 -21q-61 0 -117 21q-53 25 -92 59q-41 37 -61 88q-23 51 -29 109z" />
<glyph unicode="&#x16d;" horiz-adv-x="1314" d="M164 449v595h104v-563q0 -219 86 -313q88 -94 238 -94q154 0 274 98q119 94 181 281v591h104v-1044h-80l-16 285q-61 -156 -185 -232q-125 -78 -295 -78q-186 0 -299 123q-113 119 -112 351zM381 1522h92q6 -88 62 -125q49 -41 122 -41q70 0 123 41q55 41 60 125h94 q-6 -61 -31 -107q-23 -47 -61 -80q-39 -33 -86 -47q-49 -16 -99 -16q-45 0 -102 14q-55 20 -86 49q-39 31 -61 78q-23 43 -27 109z" />
<glyph unicode="&#x16e;" horiz-adv-x="1552" d="M184 629v743h107v-735q0 -281 131 -424q131 -147 354 -147q100 0 199 32q96 41 151 105q68 70 101 176q35 111 35 254v739h106v-735q0 -152 -37 -275q-41 -125 -114 -210q-76 -88 -185 -134q-113 -47 -256 -47q-137 0 -254 45q-111 49 -186 131q-72 84 -113 209 q-39 117 -39 273zM526.5 1776q-0.5 43 18.5 84q14 39 49 77q41 37 78 54q45 22 104 22q61 0 105 -22q41 -16 77 -54q35 -39 50 -77q18 -41 18 -84q0 -45 -18 -88q-16 -45 -50 -74q-29 -31 -77 -55q-47 -20 -105 -21q-63 0 -106 21q-51 25 -80 55q-31 31 -47 74 q-16 45 -16.5 88zM618 1776q0 -70 43.5 -113t114.5 -43q70 0 113 43q45 43 45 113q0 66 -45 110.5t-113 44.5q-72 0 -114 -45q-43 -47 -44 -110z" />
<glyph unicode="&#x16f;" horiz-adv-x="1314" d="M164 449v595h104v-563q0 -219 86 -313q88 -94 238 -94q154 0 274 98q119 94 181 281v591h104v-1044h-80l-16 285q-61 -156 -185 -232q-125 -78 -295 -78q-186 0 -299 123q-113 119 -112 351zM428 1456q0 35 16 80q14 37 45 70q31 31 74 49q41 20 96.5 20t96.5 -20 q43 -18 73 -49q23 -27 45 -70q14 -51 15 -80q0 -41 -17 -80q-14 -39 -47 -71q-27 -31 -71 -50q-43 -18 -95 -18q-55 0 -98 18q-45 18 -72 50q-35 35 -45 71q-16 33 -16 80zM518 1456q0 -59 37 -100q39 -39 104 -39q63 0 102.5 39t39.5 100.5t-41 99.5q-38 39 -101 39 q-66 0 -104 -39q-37 -43 -37 -100z" />
<glyph unicode="&#x170;" horiz-adv-x="1552" d="M184 629v743h107v-735q0 -281 131 -424q131 -147 354 -147q100 0 199 32q96 41 151 105q68 70 101 176q35 111 35 254v739h106v-735q0 -152 -37 -275q-41 -125 -114 -210q-76 -88 -185 -134q-113 -47 -256 -47q-137 0 -254 45q-111 49 -186 131q-72 84 -113 209 q-39 117 -39 273zM592 1604l123 372l94 -34l-133 -338h-84zM856 1604l158 327l90 -43l-158 -284h-90z" />
<glyph unicode="&#x171;" horiz-adv-x="1314" d="M164 449v595h104v-563q0 -219 86 -313q88 -94 238 -94q154 0 274 98q119 94 181 281v591h104v-1044h-80l-16 285q-61 -156 -185 -232q-125 -78 -295 -78q-186 0 -299 123q-113 119 -112 351zM479 1294l137 359l95 -43l-148 -316h-84zM727 1294l154 308l92 -54l-162 -254 h-84z" />
<glyph unicode="&#x172;" horiz-adv-x="1552" d="M184 629v743h107v-735q0 -281 131 -424q131 -147 354 -147q100 0 199 32q96 41 151 105q68 70 101 176q35 111 35 254v739h106v-735q0 -264 -111 -434q-113 -172 -333 -217q-55 -12 -93 -43q-39 -33 -38 -105q0 -76 38 -121q37 -47 125 -61l-14 -82q-63 6 -112.5 28.5 t-77.5 57.5q-29 29 -45 76q-14 41 -15 88q0 86 49 147q-133 6 -239 54q-109 51 -174 135q-72 82 -107 202q-37 119 -37 267z" />
<glyph unicode="&#x173;" horiz-adv-x="1314" d="M164 449v595h104v-563q0 -219 86 -313q88 -94 238 -94q154 0 274 98q119 94 181 281v591h104v-1044q-66 -23 -96 -66q-31 -41 -31 -90q0 -141 180 -168l-14 -82q-68 6 -109 29q-45 16 -82 53q-33 33 -53 74q-16 45 -16 84q0 70 37 125q37 57 102 86l-14 240 q-61 -156 -185 -232q-125 -78 -295 -78q-186 0 -299 123q-113 119 -112 351z" />
<glyph unicode="&#x174;" horiz-adv-x="2097" d="M92 1372h117l407 -1266h21l352 1131h115l366 -1131h21l399 1266h115l-446 -1376h-160l-342 1061h-21l-329 -1061h-160zM764 1616v20l264 254h43l262 -254v-20l-49 -47l-235 217l-236 -217z" />
<glyph unicode="&#x175;" horiz-adv-x="1781" d="M92 1044h111l315 -933h21l297 899h112l297 -899h21l315 933h109l-367 -1052h-139l-281 858h-24l-283 -858h-137zM616 1296v21l254 244h43l252 -244v-21l-49 -47l-225 197l-225 -197z" />
<glyph unicode="&#x176;" horiz-adv-x="1445" d="M92 1372h125l500 -854h20l492 854h125l-578 -973v-399h-106v399zM438 1616v20l264 254h43l263 -254v-20l-50 -47l-235 217l-236 -217z" />
<glyph unicode="&#x177;" horiz-adv-x="1280" d="M92 1044h123l467 -933h20l365 933h121l-492 -1171q-35 -86 -73 -139q-35 -49 -78 -86q-39 -29 -90 -45q-45 -12 -99 -13q-88 0 -153 41l30 88q25 -14 66 -20q33 -6 63 -6q72 0 125 41q57 45 103 153l43 101zM385 1296v21l254 244h43l252 -244v-21l-49 -47l-226 197 l-225 -197z" />
<glyph unicode="&#x178;" horiz-adv-x="1445" d="M92 1372h125l500 -854h20l492 854h125l-578 -973v-399h-106v399zM354 1716.5q0 40.5 31 69.5q31 31 74 31t73 -31q31 -29 31 -70t-31 -69q-31 -31 -73.5 -31t-73.5 31q-31 29 -31 69.5zM884.5 1716.5q0.5 40.5 30.5 69.5q31 31 74 31t74 -31q31 -29 31 -70t-31 -69 q-31 -31 -74 -31t-74 31q-31 29 -30.5 69.5z" />
<glyph unicode="&#x179;" horiz-adv-x="1372" d="M133 0v86l961 1192h-930v94h1057v-90l-949 -1188h967v-94h-1106zM621 1604l176 389l94 -51l-184 -338h-86z" />
<glyph unicode="&#x17a;" horiz-adv-x="1198" d="M133 0v72l774 880h-735v92h877v-75l-768 -877h774v-92h-922zM541 1294l157 338l97 -53l-166 -285h-88z" />
<glyph unicode="&#x17b;" horiz-adv-x="1372" d="M133 0v86l961 1192h-930v94h1057v-90l-949 -1188h967v-94h-1106zM579.5 1720.5q0.5 44.5 30.5 73.5q31 31 76 31t76 -31q31 -29 31 -74t-31 -73q-31 -31 -76 -31t-76 31q-31 29 -30.5 73.5z" />
<glyph unicode="&#x17c;" horiz-adv-x="1198" d="M133 0v72l774 880h-735v92h877v-75l-768 -877h774v-92h-922zM481 1393q0 45 31 71q27 27 70 27t69 -27q31 -29 31 -71q0 -45 -31 -74q-29 -25 -69.5 -25t-69.5 25q-31 29 -31 74z" />
<glyph unicode="&#x17d;" horiz-adv-x="1372" d="M133 0v86l961 1192h-930v94h1057v-90l-949 -1188h967v-94h-1106zM401 1829v20l50 47l235 -217l236 217l49 -47v-20l-264 -254h-43z" />
<glyph unicode="&#x17e;" horiz-adv-x="1198" d="M133 0v72l774 880h-735v92h877v-75l-768 -877h774v-92h-922zM326 1511v21l49 47l225 -197l225 197l49 -47v-21l-253 -243h-43z" />
<glyph unicode="&#x17f;" horiz-adv-x="493" d="M164 0v1161q0 84 20 152q23 78 66 125q47 55 119 86q70 31 174 30q92 0 170 -24q80 -25 143 -70l-55 -78q-51 37 -117 58q-72 23 -141 22q-274 0 -275 -295v-1167h-104z" />
<glyph unicode="&#x200;" horiz-adv-x="1533" d="M92 0l600 1376h150l600 -1376h-113l-149 346h-828l-149 -346h-111zM393 442h744l-355 826h-32zM410 1888l90 43l157 -327h-90zM705 1942l94 34l123 -372h-84z" />
<glyph unicode="&#x201;" d="M123 315q0 145 115 242q115 94 333 94q104 0 207 -20q106 -18 193 -56v91q0 311 -357 311q-207 0 -378 -98l-39 75q106 63 196 86q94 29 217 29q240 0 348 -102q113 -98 113 -293v-445q0 -90 31 -123q35 -35 76 -34q20 0 30 2q16 4 25 6l14 -76q-35 -20 -86 -20 q-78 0 -123 45q-47 43 -55 155q-63 -98 -182 -153q-117 -55 -275 -56q-88 0 -166 25q-74 20 -127 66q-55 47 -81 106q-29 68 -29 143zM231 311q0 -113 84 -180q88 -63 238 -63q74 0 154 22q76 25 135 68q59 45 96 104q35 63 35 139v84q-80 35 -187 58q-94 20 -206 20 q-96 0 -160 -18q-63 -20 -109 -53q-43 -39 -61.5 -82t-18.5 -99zM299 1548l92 54l154 -308h-84zM561 1610l94 43l138 -359h-84z" />
<glyph unicode="&#x204;" d="M184 0v1372h963v-92h-856v-522h747v-92h-747v-572h895v-94h-1002zM354 1888l90 43l158 -327h-90zM649 1942l94 34l123 -372h-84z" />
<glyph unicode="&#x205;" horiz-adv-x="1269" d="M113 520q0 113 39 219q43 102 114 174q74 74 176 115q106 41 232 41q104 0 198 -35q88 -35 152 -98q66 -66 98 -152q35 -92 35 -192q0 -57 -12 -107h-924q8 -199 135 -307q125 -109 322 -108q115 0 207 26q102 31 186 90l49 -77q-94 -70 -207 -101q-106 -33 -239 -33 q-127 0 -232 37q-100 37 -176 107q-70 70 -114 172q-39 111 -39 229zM223 580h830q-4 184 -99 290q-96 109 -288 109q-184 0 -301 -107q-117 -111 -142 -292zM338 1548l92 54l154 -308h-84zM600 1610l94 43l137 -359h-83z" />
<glyph unicode="&#x208;" horiz-adv-x="475" d="M-104 1888l90 43l157 -327h-90zM184 0v1372h107v-1372h-107zM190 1942l95 34l123 -372h-84z" />
<glyph unicode="&#x209;" horiz-adv-x="434" d="M-100 1548l92 54l153 -308h-84zM162 1610l94 43l137 -359h-84zM164 0v1044h106v-1044h-106z" />
<glyph unicode="&#x20c;" horiz-adv-x="1679" d="M123 686q0 145 53 281q49 127 148 227q102 100 229 152q129 55 287 55q154 0 290 -53q135 -57 226 -152q98 -94 147 -225q53 -127 53 -285q0 -152 -53 -278q-49 -133 -147 -228q-90 -94 -226 -151q-133 -57 -290 -58q-162 0 -291 56q-131 53 -227 153q-96 96 -146 226 q-53 127 -53 280zM231 686q0 -133 43 -246q47 -117 125 -194q78 -84 191 -131q117 -47 250 -47q139 0 250 45q115 47 190 127q78 80 125 194q43 117 43 252t-43 252q-47 115 -125 195q-76 80 -190 127q-111 45 -250 45q-137 0 -254 -48q-113 -45 -193 -131 q-80 -84 -119 -196q-43 -111 -43 -244zM518 1888l90 43l158 -327h-90zM813 1942l94 34l123 -372h-84z" />
<glyph unicode="&#x20d;" horiz-adv-x="1355" d="M113 522q0 113 43 215q39 98 114 174q78 74 181 117q104 41 227 41q125 0 231 -41q102 -39 178 -115q76 -72 115 -172q41 -104 41 -219q0 -113 -43 -215q-39 -100 -117 -174q-76 -74 -178 -117q-106 -41 -227 -41q-125 0 -232 41q-102 39 -178 115q-76 72 -114 172 q-41 104 -41 219zM219 522q0 -104 33 -184q35 -84 92 -145q55 -55 143 -95q92 -33 190.5 -32.5t190.5 32.5q88 39 144 95q57 61 92 145q33 80 33 184q0 98 -33 178q-35 84 -92 146q-61 61 -146 96q-84 37 -188 37q-102 0 -189 -35q-84 -35 -145 -96q-57 -59 -92 -143 q-33 -84 -33 -183zM354 1548l92 54l154 -308h-84zM616 1610l95 43l137 -359h-84z" />
<glyph unicode="&#x210;" horiz-adv-x="1376" d="M184 0v1372h578q109 0 194 -33q92 -33 156 -86q68 -61 102 -137q37 -80 37 -178q0 -80 -26.5 -147.5t-73.5 -126.5q-43 -51 -113 -95q-61 -37 -143 -57l379 -512h-133l-355 489h-495v-489h-107zM291 584h446q96 0 170 26q72 27 129 74q53 51 78 111q29 63 29 143 q0 162 -107 252q-109 88 -291 88h-454v-694zM346 1888l90 43l158 -327h-90zM641 1942l94 34l123 -372h-84z" />
<glyph unicode="&#x211;" horiz-adv-x="1093" d="M164 0v1044h80l14 -307q68 168 180 250q115 82 277 82q86 0 166 -25q82 -25 141 -75l-57 -80q-113 86 -271 86q-156 0 -260 -107q-106 -106 -166 -301v-567h-104zM326 1548l92 54l153 -308h-84zM588 1610l94 43l137 -359h-84z" />
<glyph unicode="&#x214;" horiz-adv-x="1552" d="M184 629v743h107v-735q0 -281 131 -424q131 -147 354 -147q100 0 199 32q96 41 151 105q68 70 101 176q35 111 35 254v739h106v-735q0 -152 -37 -275q-41 -125 -114 -210q-76 -88 -185 -134q-113 -47 -256 -47q-137 0 -254 45q-111 49 -186 131q-72 84 -113 209 q-39 117 -39 273zM453 1888l90 43l157 -327h-90zM748 1942l94 34l123 -372h-84z" />
<glyph unicode="&#x215;" horiz-adv-x="1314" d="M164 449v595h104v-563q0 -219 86 -313q88 -94 238 -94q154 0 274 98q119 94 181 281v591h104v-1044h-80l-16 285q-61 -156 -185 -232q-125 -78 -295 -78q-186 0 -299 123q-113 119 -112 351zM336 1548l92 54l154 -308h-84zM598 1610l94 43l137 -359h-84z" />
<glyph unicode="&#x218;" horiz-adv-x="1339" d="M113 131l55 84q121 -84 231 -117q113 -31 250 -30q223 0 342 86t119 219q0 104 -74 178q-78 76 -248 96l-241 33q-377 51 -377 352q0 82 35 156q37 68 102 115q63 49 155.5 73.5t203.5 24.5q121 0 260 -35q127 -33 229 -106l-57 -80q-84 57 -201 94q-119 33 -229 33 q-96 0 -179 -21q-80 -27 -120 -59q-51 -39 -70 -86q-23 -45 -23 -107q0 -117 76 -178q80 -61 223 -82l230 -33q197 -29 305 -120q106 -96 107 -252q0 -86 -39 -156q-41 -76 -113 -127q-74 -53 -178 -84q-109 -31 -242 -31q-154 0 -280 37q-129 33 -252 123zM543 -281 q0 47 30 74q33 29 76 29t76 -29q31 -27 31 -74q0 -18 -11 -49l-114 -286l-62 20l62 215q-39 6 -64 33q-25 29 -24 67z" />
<glyph unicode="&#x219;" horiz-adv-x="1171" d="M113 94l49 88q98 -63 198 -88q94 -29 215 -28q178 0 273 59q96 57 96 154q0 82 -55 131q-57 53 -197 67l-262 31q-135 16 -209 86t-74 184q0 63 27 111q25 49 80 94q63 43 139 61q80 25 197 25q115 0 221 -27q109 -29 190 -86l-47 -79q-176 102 -368 102q-172 0 -250 -57 q-84 -57 -84 -144q0 -74 47 -121q45 -45 162 -57l233 -27q164 -18 256 -90q98 -68 99 -202q0 -141 -125 -224q-129 -82 -359 -82q-133 0 -237 27q-111 27 -215 92zM459 -285q0 47 30 74q33 29 76 29t76 -29q31 -27 31 -74q0 -18 -10 -49l-105 -266l-61 20l51 195 q-39 6 -64 33q-25 29 -24 67z" />
<glyph unicode="&#x237;" horiz-adv-x="452" d="M-313 -442l43 84q96 -53 202 -54q117 0 185 76q68 78 67 240v1140h105v-1144q0 -182 -88 -295q-92 -111 -264 -111q-57 0 -130 14q-74 20 -120 50z" />
<glyph unicode="&#x2c6;" horiz-adv-x="671" d="M61 1296v21l254 244h43l252 -244v-21l-49 -47l-225 197l-225 -197z" />
<glyph unicode="&#x2c7;" horiz-adv-x="671" d="M61 1511v21l50 47l225 -197l225 197l49 -47v-21l-254 -243h-43z" />
<glyph unicode="&#x2d8;" horiz-adv-x="819" d="M133 1522h92q6 -88 62 -125q49 -41 123 -41q70 0 122 41q55 41 60 125h94q-6 -61 -31 -107q-20 -47 -61 -80q-39 -33 -86 -47q-49 -16 -98 -16q-45 0 -103 14q-55 20 -86 49q-39 31 -61 78q-23 43 -27 109z" />
<glyph unicode="&#x2d9;" horiz-adv-x="434" d="M117 1393q0 45 30 71q27 27 70 27t70 -27q31 -27 30 -71q0 -45 -30 -74q-27 -25 -70 -25q-41 0 -70 25q-31 29 -30 74z" />
<glyph unicode="&#x2da;" horiz-adv-x="600" d="M70 1456q0 35 16 80q14 37 45 70q31 31 74 49q41 20 96 20t96 -20q43 -18 74 -49q23 -25 45 -70q14 -49 14 -80q0 -41 -16 -80q-14 -39 -47 -71q-27 -31 -72 -50q-43 -18 -94 -18q-55 0 -98 18q-45 18 -72 50q-35 35 -45 71q-16 33 -16 80zM160 1456q0 -59 37 -100 q39 -39 104 -39q63 0 102 39t39 100.5t-41 99.5q-37 39 -100 39q-66 0 -104 -39q-37 -43 -37 -100z" />
<glyph unicode="&#x2db;" horiz-adv-x="542" d="M133 -166q0 66 35 119q35 55 104 82l64 -35q-49 -20 -82 -66q-27 -47 -27 -86q0 -68 47 -112q41 -43 134 -60l-15 -82q-66 6 -110 29q-35 14 -82 53q-37 45 -49 74q-18 43 -19 84z" />
<glyph unicode="&#x2dc;" horiz-adv-x="931" d="M109 1354q33 61 90 100q59 33 137 33q49 0 82 -19q8 -4 65 -38q20 -16 62 -41q33 -18 73 -19q45 0 82 19q37 20 58 57l67 -53q-59 -115 -207 -115q-57 0 -90 18q-16 8 -67 39q-25 20 -64 41q-35 18 -78 19q-51 0 -86 -23q-35 -25 -61 -65z" />
<glyph unicode="&#x2dd;" horiz-adv-x="657" d="M174 1294l137 359l95 -43l-148 -316h-84zM422 1294l153 308l93 -54l-162 -254h-84z" />
<glyph unicode="&#x3bc;" horiz-adv-x="1314" d="M164 -430v1474h104v-583q0 -203 80 -295q82 -92 234 -92q166 0 282 98q119 92 183 281v591h104v-1044h-80l-16 285q-61 -156 -185 -232q-125 -78 -295 -78q-94 0 -173.5 39t-131.5 113v-557h-106z" />
<glyph unicode="&#x401;" d="M184 0v1372h963v-92h-856v-522h747v-92h-747v-572h895v-94h-1002zM319 1716.5q0 40.5 31 69.5q31 31 74 31t74 -31q31 -29 30.5 -70t-30.5 -69q-31 -31 -74 -31t-74 31q-31 29 -31 69.5zM850 1716.5q0 40.5 31 69.5q30 31 73 31t74 -31q31 -29 31 -70t-31 -69 q-31 -31 -74 -31t-73 31q-31 29 -31 69.5z" />
<glyph unicode="&#x402;" horiz-adv-x="1806" d="M113 1278v94h1200v-94h-557v-563q70 106 188 178q117 68 299 68q96 0 172 -31q80 -33 133 -88q57 -59 86 -140q29 -86 29 -182v-440q0 -104 -29 -186q-31 -76 -82 -132q-57 -53 -127 -79q-68 -27 -157 -27q-135 0 -242 57l37 90q100 -53 207 -53q135 0 211 82 q76 78 75 246v426q0 367 -352 366q-133 0 -254 -75q-121 -80 -194 -226v-569h-107v1278h-536z" />
<glyph unicode="&#x403;" horiz-adv-x="1245" d="M184 0v1372h969v-94h-862v-1278h-107zM649 1604l176 389l95 -51l-185 -338h-86z" />
<glyph unicode="&#x404;" horiz-adv-x="1499" d="M123 682q0 158 53 285q47 129 150 227q100 96 237 151.5t311 55.5q63 0 132 -12q63 -12 133 -37q61 -20 123 -56q74 -45 104 -71l-57 -76q-188 158 -455 158q-135 0 -240 -41q-104 -35 -188 -111q-80 -72 -131 -176q-53 -104 -62 -229h713v-95h-715q6 -139 56 -245 q49 -113 129 -185q82 -78 192 -119q113 -41 240 -40q141 0 266 47q117 45 219 133l64 -72q-225 -203 -559 -203q-160 0 -289 49q-129 47 -227 140q-98 94 -146 225q-53 125 -53 297z" />
<glyph unicode="&#x405;" horiz-adv-x="1339" d="M113 131l55 84q121 -84 231 -117q113 -31 250 -30q223 0 342 86t119 219q0 104 -74 178q-78 76 -248 96l-241 33q-377 51 -377 352q0 82 35 156q37 68 102 115q63 49 155.5 73.5t203.5 24.5q121 0 260 -35q127 -33 229 -106l-57 -80q-84 57 -201 94q-119 33 -229 33 q-96 0 -179 -21q-80 -27 -120 -59q-51 -39 -70 -86q-23 -45 -23 -107q0 -117 76 -178q80 -61 223 -82l230 -33q197 -29 305 -120q106 -96 107 -252q0 -86 -39 -156q-41 -76 -113 -127q-74 -53 -178 -84q-109 -31 -242 -31q-154 0 -280 37q-129 33 -252 123z" />
<glyph unicode="&#x406;" horiz-adv-x="475" d="M184 0v1372h107v-1372h-107z" />
<glyph unicode="&#x407;" horiz-adv-x="475" d="M-47 1716.5q0 40.5 31 69.5q30 31 73 31t74 -31q31 -29 31 -70t-31 -69q-31 -31 -74 -31t-73 31q-31 29 -31 69.5zM184 0v1372h107v-1372h-107zM319 1716.5q0 40.5 31 69.5q31 31 74 31t74 -31q31 -29 30.5 -70t-30.5 -69q-31 -31 -74 -31t-74 31q-31 29 -31 69.5z" />
<glyph unicode="&#x408;" horiz-adv-x="1107" d="M92 92l51 82q150 -109 322 -108q66 0 141 20q68 27 111 70q45 45 74 120q27 72 26 177v919h107v-895q0 -250 -119 -377q-121 -129 -340 -129q-100 0 -199 29q-94 31 -174 92z" />
<glyph unicode="&#x409;" horiz-adv-x="2365" d="M51 -8l23 92q49 -12 92 -12q55 0 100 26q49 29 82 86q37 61 62 172q23 117 36 250q12 139 18.5 288.5t6.5 295.5v182h907v-485h371q104 0 201 -31q92 -27 164 -86q63 -53 110 -139q39 -90 39 -191q0 -102 -39 -182t-106 -137q-70 -57 -164 -88q-90 -33 -201 -33h-481 v1278h-694q0 -127 -5 -369q-6 -162 -22 -331q-14 -150 -47 -277q-33 -125 -82 -192q-47 -68 -109 -101q-63 -35 -139 -35q-27 0 -63 4q-23 2 -60 15zM1378 92h346q211 0 324 96q109 98 109 254q0 178 -113 267q-119 84 -322 84h-344v-701z" />
<glyph unicode="&#x40a;" horiz-adv-x="2263" d="M184 0v1372h107v-620h878v620h107v-485h371q104 0 200 -31q92 -27 164 -86q63 -53 111 -139q39 -90 39 -191q0 -102 -39 -182t-107 -137q-70 -57 -164 -88q-90 -33 -200 -33h-482v657h-878v-657h-107zM1276 92h346q211 0 324 96q109 98 108 254q0 178 -112 267 q-119 84 -322 84h-344v-701z" />
<glyph unicode="&#x40b;" horiz-adv-x="1806" d="M113 1278v94h1200v-94h-557v-563q70 106 188 178q117 68 299 68q96 0 172 -31q80 -33 133 -88q57 -59 86 -140q29 -86 29 -182v-520h-107v504q0 367 -352 366q-133 0 -254 -75q-121 -80 -194 -226v-569h-107v1278h-536z" />
<glyph unicode="&#x40c;" horiz-adv-x="1392" d="M184 0v1372h107v-600l313 16l498 584h135l-543 -629l596 -743h-137l-547 686h-315v-686h-107zM645 1604l176 389l94 -51l-184 -338h-86z" />
<glyph unicode="&#x40e;" horiz-adv-x="1390" d="M92 1372h121l516 -917h21l432 917h116l-561 -1159q-63 -129 -141 -188q-76 -57 -172 -58q-90 0 -160 39l29 78q51 -25 121 -25q66 0 125 43q57 43 94 119l53 107zM440 1874h90q14 -92 70 -137q53 -45 139 -45q84 0 142 45q55 49 69 137h90q-2 -55 -28 -111 q-20 -51 -62 -88q-39 -35 -94 -57q-49 -20 -117 -21q-61 0 -116 21q-53 25 -93 59q-41 37 -61 88q-23 51 -29 109z" />
<glyph unicode="&#x40f;" horiz-adv-x="1476" d="M184 0v1372h107v-1278h895v1278h106v-1372h-499l-15 -311h-80l-14 311h-500z" />
<glyph unicode="&#x410;" horiz-adv-x="1533" d="M92 0l600 1376h150l600 -1376h-113l-149 346h-828l-149 -346h-111zM393 442h744l-355 826h-32z" />
<glyph unicode="&#x411;" horiz-adv-x="1372" d="M184 0v1372h944v-94h-837v-438h463q109 0 204 -29q92 -27 160 -82t105 -135q37 -76 37 -176q0 -98 -39 -176q-37 -76 -103 -131q-72 -55 -160 -82q-98 -29 -204 -29h-570zM291 94h463q104 0 180 25q78 29 125 69q49 47 71 103q23 63 23 127q0 70 -23 131q-20 59 -69 104 q-49 43 -123 67.5t-174 24.5h-473v-651z" />
<glyph unicode="&#x412;" horiz-adv-x="1380" d="M184 0v1372h547q109 0 199 -29q82 -27 139 -77q57 -45 86 -111q29 -68 29 -133q0 -90 -39 -166q-41 -80 -119 -119v-20q51 -14 96 -45q43 -31 76 -76t51 -100q18 -57 19 -121q0 -78 -31 -146q-27 -63 -88 -118q-55 -49 -150 -82q-92 -29 -211 -29h-604zM291 94h497 q182 0 277 78q94 80 94 209q0 133 -90 211q-86 80 -264 80h-514v-578zM291 764h502q80 0 131 18q51 20 88 58q29 33 49 82q14 57 14 104q0 252 -352 252h-432v-514z" />
<glyph unicode="&#x413;" horiz-adv-x="1245" d="M184 0v1372h969v-94h-862v-1278h-107z" />
<glyph unicode="&#x414;" horiz-adv-x="1728" d="M113 -23v117h49q23 0 59 17q31 18 62 49q37 37 61 78q29 45 47 96q31 80 47 174q25 98 37 215q12 82 25 248q8 115 8 264v137h907v-1278h201v-114l-14 -291h-76l-19 311h-1286l-18 -311h-76zM352 94h957v1184h-697q0 -186 -14 -412q-20 -223 -49 -350 q-31 -158 -80 -266.5t-117 -155.5z" />
<glyph unicode="&#x415;" d="M184 0v1372h963v-92h-856v-522h747v-92h-747v-572h895v-94h-1002z" />
<glyph unicode="&#x416;" horiz-adv-x="2095" d="M82 0l510 750l-440 622h124l410 -586l309 -14v600h103v-600l311 14l408 586h127l-443 -624l512 -748h-127l-465 690h-323v-690h-103v690h-323l-465 -690h-125z" />
<glyph unicode="&#x417;" horiz-adv-x="1337" d="M113 162l65 78q113 -94 230 -134q123 -41 266 -40q104 0 190 24q86 31 140 72q59 49 83 104q29 57 29 123q0 131 -92 205q-88 76 -262 76h-324v92h320q61 0 123 20q57 27 90 58q37 31 57 82q20 43 20.5 100t-22.5 108q-18 49 -72 93q-45 39 -123 61q-80 23 -180 23 q-104 0 -207 -33q-96 -37 -188 -109l-61 76q197 160 469 160q123 0 213 -33q98 -37 153 -86q59 -47 92 -117q31 -63 31 -133q0 -100 -43 -180q-41 -76 -119 -111v-20q109 -33 172 -125q61 -88 62 -207q0 -78 -37 -156q-33 -68 -107 -135q-82 -61 -176 -92q-104 -35 -233 -35 q-164 0 -299 41q-137 45 -260 150z" />
<glyph unicode="&#x418;" horiz-adv-x="1527" d="M184 0v1372h107v-1212l950 1212h102v-1372h-106v1212l-942 -1212h-111z" />
<glyph unicode="&#x419;" horiz-adv-x="1527" d="M184 0v1372h107v-1212l950 1212h102v-1372h-106v1212l-942 -1212h-111zM465 1874h90q14 -92 70 -137q53 -45 139 -45q84 0 141 45q55 49 70 137h90q-2 -55 -29 -111q-20 -51 -61 -88q-39 -35 -94 -57q-49 -20 -117 -21q-61 0 -117 21q-53 25 -92 59q-41 37 -61 88 q-23 51 -29 109z" />
<glyph unicode="&#x41a;" horiz-adv-x="1392" d="M184 0v1372h107v-600l313 16l498 584h135l-543 -629l596 -743h-137l-547 686h-315v-686h-107z" />
<glyph unicode="&#x41b;" horiz-adv-x="1583" d="M51 -8l23 92q49 -12 92 -12q55 0 100 26q49 29 82 86q37 61 62 172q23 117 36 250q12 139 18.5 288.5t6.5 295.5v182h928v-1372h-107v1278h-714q0 -127 -5 -369q-6 -162 -22 -331q-14 -150 -47 -277q-33 -125 -82 -192q-47 -68 -109 -101q-63 -35 -139 -35q-27 0 -63 4 q-23 2 -60 15z" />
<glyph unicode="&#x41c;" horiz-adv-x="1728" d="M184 0v1372h123l557 -788l561 788h119v-1372h-104v1196h-21l-534 -750h-45l-531 750h-20v-1196h-105z" />
<glyph unicode="&#x41d;" horiz-adv-x="1501" d="M184 0v1372h107v-620h919v620h107v-1372h-107v657h-919v-657h-107z" />
<glyph unicode="&#x41e;" horiz-adv-x="1679" d="M123 686q0 145 53 281q49 127 148 227q102 100 229 152q129 55 287 55q154 0 290 -53q135 -57 226 -152q98 -94 147 -225q53 -127 53 -285q0 -152 -53 -278q-49 -133 -147 -228q-90 -94 -226 -151q-133 -57 -290 -58q-162 0 -291 56q-131 53 -227 153q-96 96 -146 226 q-53 127 -53 280zM231 686q0 -133 43 -246q47 -117 125 -194q78 -84 191 -131q117 -47 250 -47q139 0 250 45q115 47 190 127q78 80 125 194q43 117 43 252t-43 252q-47 115 -125 195q-76 80 -190 127q-111 45 -250 45q-137 0 -254 -48q-113 -45 -193 -131 q-80 -84 -119 -196q-43 -111 -43 -244z" />
<glyph unicode="&#x41f;" horiz-adv-x="1480" d="M184 0v1372h1112v-1372h-106v1278h-899v-1278h-107z" />
<glyph unicode="&#x420;" horiz-adv-x="1376" d="M184 0v1372h561q102 0 201 -33q98 -37 162 -96q66 -59 106 -145q39 -84 39 -188.5t-41 -196.5q-39 -84 -112 -148q-68 -59 -168 -94q-92 -33 -207 -33h-434v-438h-107zM291 532h426q94 0 172 25q78 29 135 74q55 47 90 119q31 70 31 157q0 174 -113 273q-115 98 -301 98 h-440v-746z" />
<glyph unicode="&#x421;" horiz-adv-x="1499" d="M123 682q0 158 53 285q47 129 150 227q100 96 237 151.5t311 55.5q63 0 132 -12q63 -12 133 -37q61 -20 123 -56q74 -45 104 -71l-57 -76q-188 158 -455 158q-141 0 -252 -45q-117 -47 -196 -127q-84 -80 -127 -195q-47 -109 -48 -254q0 -150 48 -258q41 -109 127 -195 q86 -84 196 -124q115 -43 246 -43q141 0 266 47q117 45 219 133l64 -72q-225 -203 -559 -203q-160 0 -289 49q-129 47 -227 140q-98 94 -146 225q-53 125 -53 297z" />
<glyph unicode="&#x422;" horiz-adv-x="1425" d="M113 1278v94h1200v-94h-547v-1278h-107v1278h-546z" />
<glyph unicode="&#x423;" horiz-adv-x="1390" d="M92 1372h121l516 -917h21l432 917h116l-561 -1159q-63 -129 -141 -188q-76 -57 -172 -58q-90 0 -160 39l29 78q51 -25 121 -25q66 0 125 43q57 43 94 119l53 107z" />
<glyph unicode="&#x424;" horiz-adv-x="1824" d="M113 692q0 117 43 209q37 86 110 156q74 61 164 94q92 33 199 33h231v219h105v-219h231q113 0 209 -33q94 -31 164 -92q63 -57 106 -150q37 -92 37 -206.5t-41 -208.5q-39 -88 -110 -154q-72 -63 -166 -96q-92 -33 -199 -33h-231v-211h-105v211h-231q-113 0 -207 31 q-96 33 -164 94q-68 59 -106 151q-39 86 -39 205zM219 692q0 -197 117 -291q113 -98 315 -98h209v789h-209q-209 0 -319 -105q-113 -100 -113 -295zM965 303h209q205 0 319 103q113 104 113 296q0 195 -117 293q-119 96 -315 97h-209v-789z" />
<glyph unicode="&#x425;" horiz-adv-x="1445" d="M92 0l541 717l-496 655h133l449 -592h20l435 592h135l-502 -665l547 -707h-140l-489 643h-20l-476 -643h-137z" />
<glyph unicode="&#x426;" horiz-adv-x="1583" d="M184 0v1372h107v-1278h872v1278h107v-1278h200v-114l-14 -291h-76l-18 311h-1178z" />
<glyph unicode="&#x427;" horiz-adv-x="1445" d="M154 934v438h106v-420q0 -205 96 -319q98 -113 306 -113q131 0 260 41q123 39 233 115v696h107v-1372h-107v573q-217 -147 -522 -147q-225 0 -354 129q-125 131 -125 379z" />
<glyph unicode="&#x428;" horiz-adv-x="2080" d="M184 0v1372h107v-1278h696v1278h107v-1278h696v1278h106v-1372h-1712z" />
<glyph unicode="&#x429;" horiz-adv-x="2209" d="M184 0v1372h107v-1278h696v1278h107v-1278h696v1278h106v-1278h201v-114l-14 -291h-76l-18 311h-1805z" />
<glyph unicode="&#x42a;" horiz-adv-x="1554" d="M72 1286v86h460v-485h412q106 0 199 -31q92 -27 164 -86q66 -55 106 -139q39 -84 39 -191q0 -102 -39 -182q-37 -78 -104 -137q-66 -57 -160 -88q-90 -33 -201 -33h-522v1274zM532 92h388q211 0 319 96q106 98 107 254q0 180 -111 267q-113 84 -317 84h-386v-701z" />
<glyph unicode="&#x42b;" horiz-adv-x="1740" d="M184 0v1372h107v-485h401q106 0 201 -31q92 -27 164 -86q63 -53 110 -139q39 -90 39 -191q0 -102 -39 -182t-106 -137q-70 -57 -164 -88q-90 -33 -201 -33h-512zM291 92h377q211 0 323 96q109 98 109 254q0 178 -113 267q-119 84 -321 84h-375v-701zM1450 0v1372h106 v-1372h-106z" />
<glyph unicode="&#x42c;" horiz-adv-x="1329" d="M184 0v1372h107v-485h422q106 0 200 -31q92 -27 164 -86q63 -53 111 -139q39 -90 39 -191q0 -102 -39 -182t-107 -137q-70 -57 -163 -88q-90 -33 -201 -33h-533zM291 92h397q211 0 324 96q109 98 108 254q0 178 -112 267q-119 84 -322 84h-395v-701z" />
<glyph unicode="&#x42d;" horiz-adv-x="1466" d="M102 154l62 75q96 -84 221 -125q119 -39 248 -38q125 0 241 45q115 51 191 127q78 80 125 186q47 109 49 227h-727v94h727q-2 119 -51 226q-45 100 -127 180q-86 76 -189 115q-111 41 -227 41q-131 0 -248 -37q-109 -33 -209 -101l-57 76q102 82 237.5 119t280.5 37 q156 0 281 -53q127 -49 219 -146q92 -94 143 -225q51 -129 51 -287q0 -145 -49 -278q-53 -133 -143 -228q-94 -98 -225 -155q-129 -57 -293 -58q-162 0 -295 45q-135 47 -236 138z" />
<glyph unicode="&#x42e;" horiz-adv-x="2074" d="M184 0v1372h105v-622h289q12 131 65 254q51 119 143 206q80 84 209 140q117 51 269 51q154 0 282.5 -53.5t216.5 -147.5q90 -96 140 -225q49 -135 49 -289q0 -147 -49 -276q-47 -129 -140 -230q-90 -96 -217 -151q-123 -57 -282 -58q-150 0 -277 49q-127 53 -215 142 q-86 86 -141 215q-53 129 -56 278h-286v-655h-105zM680 682q0 -131 41 -248q39 -113 119 -194q70 -78 184 -129q109 -45 240 -45q123 0 235 45q109 49 184 131q78 84 119 196q43 111 43 248q0 139 -39 248q-41 121 -114 196q-68 78 -183 132q-112 45 -245 45 q-119 0 -232 -45q-115 -51 -184 -132q-78 -78 -123 -196q-45 -111 -45 -252z" />
<glyph unicode="&#x42f;" horiz-adv-x="1386" d="M102 0l387 510q-174 41 -256 154q-86 117 -86 270q0 98 37 178q33 78 98.5 137.5t155.5 89.5q86 33 199 33h565v-1372h-106v487h-502l-365 -487h-127zM256 934q0 -164 106.5 -258t301.5 -94h432v696h-441q-195 0 -295 -88q-104 -88 -104 -256z" />
<glyph unicode="&#x430;" d="M123 315q0 145 115 242q115 94 333 94q104 0 207 -20q106 -18 193 -56v91q0 311 -357 311q-207 0 -378 -98l-39 75q106 63 196 86q94 29 217 29q240 0 348 -102q113 -98 113 -293v-445q0 -90 31 -123q35 -35 76 -34q20 0 30 2q16 4 25 6l14 -76q-35 -20 -86 -20 q-78 0 -123 45q-47 43 -55 155q-63 -98 -182 -153q-117 -55 -275 -56q-88 0 -166 25q-74 20 -127 66q-55 47 -81 106q-29 68 -29 143zM231 311q0 -113 84 -180q88 -63 238 -63q74 0 154 22q76 25 135 68q59 45 96 104q35 63 35 139v84q-80 35 -187 58q-94 20 -206 20 q-96 0 -160 -18q-63 -20 -109 -53q-43 -39 -61.5 -82t-18.5 -99z" />
<glyph unicode="&#x431;" horiz-adv-x="1341" d="M133 639q0 176 43 305q39 125 115 217q68 86 168 137q96 51 209 70l229 39q96 14 141 59q43 43 43 95q0 43 -8 69l90 15q10 -41 11 -78q0 -90 -51.5 -153.5t-157.5 -82.5l-297 -53q-178 -31 -291 -154t-135 -354h20q72 104 182 164q111 61 283 61q100 0 199 -32 q92 -37 159 -99q68 -68 107 -159q37 -96 37 -213q0 -115 -43 -213q-45 -96 -117 -162q-74 -68 -172 -105q-102 -37 -213 -37q-262 0 -408 172q-143 174 -143 492zM242 580q0 -113 28 -211q31 -94 86 -162q59 -70 140 -105q82 -35 180 -34q94 0 176 28q82 27 141 84 q61 55 92 131q35 72 35 178q0 109 -30 185q-27 74 -82 129q-51 47 -131 78q-80 24 -172 24q-176 0 -289 -88q-117 -92 -174 -237z" />
<glyph unicode="&#x432;" horiz-adv-x="1175" d="M164 0v1044h483q80 0 152 -20q70 -27 108 -59q45 -39 66 -86q23 -51 22 -105q0 -152 -118 -209v-20q88 -27 139 -94q47 -66 47 -162q0 -121 -92 -207q-94 -82 -279 -82h-528zM268 92h420q135 0 203 51q66 55 65 152q0 90 -59 143q-55 57 -201 58h-428v-404zM268 586h394 q117 0 172 49q55 53 55 135q0 78 -58 131q-63 53 -190 53h-373v-368z" />
<glyph unicode="&#x433;" horiz-adv-x="1067" d="M164 0v1044h801v-92h-697v-952h-104z" />
<glyph unicode="&#x434;" horiz-adv-x="1388" d="M82 12v80l55 14q72 18 117 82q43 57 78 183q20 74 24 137q8 55 17 166q4 63 8 182q2 63 2 188h768v-952h156v-84l-17 -278h-78l-6 270h-1024l-6 -270h-80zM283 92h766v860h-568q-4 -188 -14 -321q-12 -141 -35 -254q-45 -213 -149 -285z" />
<glyph unicode="&#x435;" horiz-adv-x="1269" d="M113 520q0 113 39 219q43 102 114 174q74 74 176 115q106 41 232 41q104 0 198 -35q88 -35 152 -98q66 -66 98 -152q35 -92 35 -192q0 -57 -12 -107h-924q8 -199 135 -307q125 -109 322 -108q115 0 207 26q102 31 186 90l49 -77q-94 -70 -207 -101q-106 -33 -239 -33 q-127 0 -232 37q-100 37 -176 107q-70 70 -114 172q-39 111 -39 229zM223 580h830q-4 184 -99 290q-96 109 -288 109q-184 0 -301 -107q-117 -111 -142 -292z" />
<glyph unicode="&#x436;" horiz-adv-x="1783" d="M82 0l405 571l-370 473h123l333 -432l269 -18v450h102v-450l264 18l330 432h129l-367 -473l402 -571h-119l-364 518h-275v-518h-102v518h-281l-348 -518h-131z" />
<glyph unicode="&#x437;" horiz-adv-x="1124" d="M92 115l53 73q88 -59 179 -90q90 -33 206 -32q174 0 269 59q96 57 96 166q0 90 -55 151q-53 57 -181 58h-299v86h287q104 0 148 53q47 49 47 135q0 45 -15 80q-16 39 -49 66q-37 31 -92 45q-61 16 -141 16q-100 0 -180 -23q-78 -25 -154 -79l-53 71q84 59 180 90 q98 29 219 29q184 0 287 -80q104 -80 104 -209q0 -76 -33 -129q-33 -59 -92 -88v-20q86 -35 131 -94q47 -63 47 -148q0 -68 -26 -131q-31 -59 -86 -102q-63 -45 -148 -68q-90 -25 -211 -25q-125 0 -235 33q-111 37 -203 107z" />
<glyph unicode="&#x438;" horiz-adv-x="1294" d="M164 0v1044h104v-905l762 905h100v-1044h-104v889l-756 -889h-106z" />
<glyph unicode="&#x439;" horiz-adv-x="1294" d="M164 0v1044h104v-905l762 905h100v-1044h-104v889l-756 -889h-106zM371 1522h92q6 -88 61 -125q49 -41 123 -41q70 0 123 41q55 41 59 125h95q-6 -61 -31 -107q-20 -47 -62 -80q-39 -33 -86 -47q-49 -16 -98 -16q-45 0 -102 14q-55 20 -86 49q-39 31 -62 78 q-23 43 -26 109z" />
<glyph unicode="&#x43a;" horiz-adv-x="1196" d="M164 0v1044h104v-450l291 16l365 434h137l-404 -469l467 -575h-137l-409 510h-310v-510h-104z" />
<glyph unicode="&#x43b;" horiz-adv-x="1359" d="M31 8l24 84q31 -14 51 -16q33 -4 48 -4q55 0 96 32q43 37 69 99q29 63 43 141q12 59 27 166q8 113 10 174t2 174v186h795v-1044h-104v954h-586q0 -143 -2 -217q-4 -143 -12 -213q-6 -88 -27 -194q-18 -94 -49 -164q-41 -92 -105 -135q-63 -47 -153 -47q-68 0 -127 24z " />
<glyph unicode="&#x43c;" horiz-adv-x="1449" d="M164 0v1044h135l426 -602l426 602h135v-1044h-102v899h-21l-411 -577h-54l-411 577h-21v-899h-102z" />
<glyph unicode="&#x43d;" horiz-adv-x="1275" d="M164 0v1044h104v-466h740v466h104v-1044h-104v483h-740v-483h-104z" />
<glyph unicode="&#x43e;" horiz-adv-x="1355" d="M113 522q0 113 43 215q39 98 114 174q78 74 181 117q104 41 227 41q125 0 231 -41q102 -39 178 -115q76 -72 115 -172q41 -104 41 -219q0 -113 -43 -215q-39 -100 -117 -174q-76 -74 -178 -117q-106 -41 -227 -41q-125 0 -232 41q-102 39 -178 115q-76 72 -114 172 q-41 104 -41 219zM219 522q0 -104 33 -184q35 -84 92 -145q55 -55 143 -95q92 -33 190.5 -32.5t190.5 32.5q88 39 144 95q57 61 92 145q33 80 33 184q0 98 -33 178q-35 84 -92 146q-61 61 -146 96q-84 37 -188 37q-102 0 -189 -35q-84 -35 -145 -96q-57 -59 -92 -143 q-33 -84 -33 -183z" />
<glyph unicode="&#x43f;" horiz-adv-x="1286" d="M164 0v1044h958v-1044h-104v952h-750v-952h-104z" />
<glyph unicode="&#x440;" horiz-adv-x="1349" d="M164 -430v1474h80l16 -270q66 154 191 225q121 70 284 70q111 0 203 -37q94 -37 160 -106q68 -74 102 -168q37 -98 37 -221q0 -135 -47 -242q-47 -111 -125 -176q-72 -72 -176 -107q-98 -37 -203 -37q-137 0 -229 33q-94 31 -189 109v-547h-104zM268 229q92 -86 187 -123 q92 -39 219 -38q100 0 184 30q86 35 146 95q57 59 94 149q33 94 32 201q0 94 -28 176q-27 74 -82 137q-51 53 -131 90q-80 31 -174 31q-84 0 -150 -27q-68 -23 -125 -71q-53 -43 -98 -113q-41 -61 -74 -143v-394z" />
<glyph unicode="&#x441;" horiz-adv-x="1220" d="M113 520q0 127 43 228q43 100 118 174q80 72 177 108q98 39 215 39q139 0 249 -41q106 -39 177 -113l-64 -67q-68 61 -154 94q-92 35 -204 35q-92 0 -174 -31q-84 -31 -144 -88q-63 -61 -98 -141q-35 -82 -35 -185q0 -106 31 -192q35 -84 90 -143q61 -61 143 -95 q80 -33 191 -32q233 0 381 151l63 -69q-170 -176 -452 -177q-131 0 -236 41q-100 41 -176 117q-72 78 -107 174q-35 100 -34 213z" />
<glyph unicode="&#x442;" horiz-adv-x="1161" d="M102 954v90h957v-90h-426v-954h-105v954h-426z" />
<glyph unicode="&#x443;" horiz-adv-x="1280" d="M92 1044h123l467 -933h20l365 933h121l-492 -1171q-35 -86 -73 -139q-35 -49 -78 -86q-39 -29 -90 -45q-45 -12 -99 -13q-88 0 -153 41l30 88q25 -14 66 -20q33 -6 63 -6q72 0 125 41q57 45 103 153l43 101z" />
<glyph unicode="&#x444;" horiz-adv-x="1959" d="M113 510q0 133 37 235q37 106 104 177q63 70 156 110q92 37 202 37q182 0 316 -90v475h104v-555q55 80 144 125q84 45 215 45q209 0 333 -131q123 -135 123 -403q0 -133 -37 -236q-37 -104 -102 -176q-68 -70 -160 -111q-90 -37 -200 -37q-182 0 -316 91v-494h-104v571 q-57 -80 -146 -125q-82 -43 -213 -43q-209 0 -333 131q-123 135 -123 404zM219 506q0 -123 27 -203q29 -88 73 -135q45 -51 115 -78q72 -23 146 -22q104 0 196 51q86 53 152 149v609q-78 47 -150 73q-74 25 -157 25q-94 0 -175 -35q-72 -31 -127 -96q-49 -66 -73 -150 q-27 -82 -27 -188zM1032 168q82 -51 152 -74q68 -25 155 -24q94 0 174 34q74 33 125 97q49 61 78 149q25 86 25 189q0 123 -27 202q-31 90 -76 136q-43 51 -114 77q-68 23 -144 23q-111 0 -200 -55q-92 -55 -148 -154v-600z" />
<glyph unicode="&#x445;" horiz-adv-x="1210" d="M92 0l434 555l-393 489h135l332 -438h21l323 438h133l-393 -503l434 -541h-135l-377 485h-20l-361 -485h-133z" />
<glyph unicode="&#x446;" horiz-adv-x="1304" d="M164 0v1044h104v-952h699v952h104v-952h172v-80l-16 -282h-78l-6 270h-979z" />
<glyph unicode="&#x447;" horiz-adv-x="1181" d="M123 686v358h104v-325q0 -160 76 -248q76 -86 244 -86q119 0 207 41q88 35 180 123v495h104v-1044h-104v444q-76 -72 -178 -112q-98 -39 -234 -39q-186 0 -292.5 106.5t-106.5 286.5z" />
<glyph unicode="&#x448;" horiz-adv-x="1812" d="M164 0v1044h102v-952h590v952h102v-952h588v952h103v-1044h-1485z" />
<glyph unicode="&#x449;" horiz-adv-x="1882" d="M164 0v1044h102v-952h590v952h102v-952h588v952h103v-952h172v-80l-17 -282h-78l-6 270h-1556z" />
<glyph unicode="&#x44a;" horiz-adv-x="1341" d="M72 954v90h426v-397q74 45 166 70q90 23 184 22q88 0 161.5 -24.5t127 -71.5t84.5 -115q29 -68 28 -149q0 -76 -28 -146q-29 -66 -86 -122q-63 -53 -142 -82q-86 -29 -192 -29h-408v954h-321zM498 90h286q180 0 269 82q88 80 88 209q0 123 -80 197q-82 72 -240 71 q-84 0 -166 -24q-76 -23 -157 -72v-463z" />
<glyph unicode="&#x44b;" horiz-adv-x="1482" d="M164 0v1044h104v-397q72 43 164 70q90 23 184 22q88 0 162 -24.5t127 -71.5t84 -115q31 -63 31 -149q0 -76 -29 -146q-29 -68 -88 -122q-63 -53 -141 -82q-86 -29 -193 -29h-405zM268 90h285q180 0 270 82q88 82 88 209q0 123 -80 197q-84 72 -241 71q-170 0 -322 -96 v-463zM1214 0v1044h105v-1044h-105z" />
<glyph unicode="&#x44c;" horiz-adv-x="1122" d="M164 0v1044h104v-397q72 43 168 70q94 23 189 22q88 0 161.5 -24.5t126.5 -71.5q55 -45 86 -115q31 -63 31 -149q0 -78 -31 -146q-25 -61 -86 -122q-68 -53 -143 -82q-86 -29 -192 -29h-414zM268 90h293q182 0 270 82q90 80 91 209q0 123 -82 197q-84 72 -242 71 q-84 0 -168 -24q-80 -23 -162 -72v-463z" />
<glyph unicode="&#x44d;" horiz-adv-x="1183" d="M102 117l58 71q74 -66 162 -92q92 -29 204 -28q84 0 162 26q82 27 135 78q57 47 101 131q39 78 45 186h-549v91h549q-20 199 -139 299t-302 100q-106 0 -188 -25q-88 -23 -158 -80l-49 72q147 123 391 123q135 0 236 -43q102 -43 170 -117q70 -72 106 -172 q35 -104 35 -213q0 -121 -39 -225q-43 -106 -114 -174q-70 -72 -173 -111q-98 -39 -221 -39q-137 0 -241 35q-100 33 -181 107z" />
<glyph unicode="&#x44e;" horiz-adv-x="1708" d="M164 0v1044h104v-464h256q8 100 49 190q45 94 113 156q72 66 164 104.5t209 38.5q123 0 223 -41q98 -41 170 -117q70 -72 106.5 -174t36.5 -217q0 -113 -39 -209q-35 -96 -106 -174q-76 -76 -170 -117q-96 -45 -221 -45t-217 39q-98 41 -166 109q-70 70 -109 164 q-39 90 -45 202h-254v-489h-104zM629 520q0 -86 26 -180q33 -86 82 -143q59 -61 135 -95q86 -35 187 -34q96 0 178 34q78 33 135 97q59 63 86 145q31 80 31 180q0 86 -27 181q-33 86 -82 143q-59 61 -135 94q-86 35 -186 35q-96 0 -178 -35q-78 -33 -136 -96 q-59 -63 -86 -146q-31 -80 -30 -180z" />
<glyph unicode="&#x44f;" horiz-adv-x="1173" d="M102 0l295 373q-127 29 -196 116q-68 88 -68 205q0 68 29 135q27 61 84 113q61 51 139 74q74 29 190 28h435v-1044h-105v442q-92 -51 -184 -71q-100 -23 -219 -23l-275 -348h-125zM242 696q0 -117 82 -188q86 -68 229 -68q82 0 176 23q88 25 176 78v413h-317 q-178 0 -262 -73.5t-84 -184.5z" />
<glyph unicode="&#x451;" horiz-adv-x="1269" d="M113 520q0 113 39 219q43 102 114 174q74 74 176 115q106 41 232 41q104 0 198 -35q88 -35 152 -98q66 -66 98 -152q35 -92 35 -192q0 -57 -12 -107h-924q8 -199 135 -307q125 -109 322 -108q115 0 207 26q102 31 186 90l49 -77q-94 -70 -207 -101q-106 -33 -239 -33 q-127 0 -232 37q-100 37 -176 107q-70 70 -114 172q-39 111 -39 229zM223 580h830q-4 184 -99 290q-96 109 -288 109q-184 0 -301 -107q-117 -111 -142 -292zM338 1399q0 39 26.5 65.5t69.5 26.5t69.5 -26.5t26.5 -65.5t-26.5 -65.5t-69.5 -26.5t-69.5 26.5t-26.5 65.5z M825 1399q0 39 27 65.5t70 26.5t69.5 -26.5t26.5 -65.5t-26.5 -65.5t-69.5 -26.5t-70 26.5t-27 65.5z" />
<glyph unicode="&#x452;" horiz-adv-x="1325" d="M20 1241v82h136l18 172h94v-172h353v-82h-353v-477q66 145 178 223q109 82 297 82q186 0 306 -115q113 -119 112 -327v-625q0 -182 -92 -276q-96 -96 -248 -97q-68 0 -131 15q-66 23 -108 47l39 80q57 -31 96 -39q47 -10 94 -11q123 0 184 74q61 70 62 195v614 q0 195 -90 285q-88 88 -250 88q-160 0 -273 -105q-115 -109 -176 -294v-578h-104v1241h-144z" />
<glyph unicode="&#x453;" horiz-adv-x="1067" d="M164 0v1044h801v-92h-697v-952h-104zM539 1294l157 338l97 -53l-166 -285h-88z" />
<glyph unicode="&#x454;" horiz-adv-x="1220" d="M113 520q0 127 43 228q43 100 118 174q80 72 177 108q98 39 215 39q139 0 249 -41q106 -39 177 -113l-64 -67q-68 61 -154 94q-92 35 -204 35q-90 0 -164 -27q-84 -31 -137 -78q-63 -53 -99 -122q-39 -63 -49 -162h574v-90h-576q8 -197 129 -314q125 -115 326 -114 q233 0 381 151l63 -69q-170 -176 -452 -177q-131 0 -236 41q-100 41 -176 117q-72 78 -107 174q-35 100 -34 213z" />
<glyph unicode="&#x455;" horiz-adv-x="1171" d="M113 94l49 88q98 -63 198 -88q94 -29 215 -28q178 0 273 59q96 57 96 154q0 82 -55 131q-57 53 -197 67l-262 31q-135 16 -209 86t-74 184q0 63 27 111q25 49 80 94q63 43 139 61q80 25 197 25q115 0 221 -27q109 -29 190 -86l-47 -79q-176 102 -368 102q-172 0 -250 -57 q-84 -57 -84 -144q0 -74 47 -121q45 -45 162 -57l233 -27q164 -18 256 -90q98 -68 99 -202q0 -141 -125 -224q-129 -82 -359 -82q-133 0 -237 27q-111 27 -215 92z" />
<glyph unicode="&#x456;" horiz-adv-x="434" d="M117 1393q0 45 30 71q27 27 70 27t70 -27q31 -27 30 -71q0 -45 -30 -74q-27 -25 -70 -25q-41 0 -70 25q-31 29 -30 74zM164 0v1044h106v-1044h-106z" />
<glyph unicode="&#x457;" horiz-adv-x="434" d="M-57 1399q0 39 26.5 65.5t69.5 26.5t69.5 -26.5t26.5 -65.5t-26.5 -65.5t-69.5 -26.5t-69.5 26.5t-26.5 65.5zM164 0v1044h106v-1044h-106zM299 1399q0 39 26.5 65.5t69.5 26.5t70 -26.5t27 -65.5t-27 -65.5t-70 -26.5t-69.5 26.5t-26.5 65.5z" />
<glyph unicode="&#x458;" horiz-adv-x="452" d="M-313 -442l43 84q96 -53 202 -54q117 0 185 76q68 78 67 240v1140h105v-1144q0 -182 -88 -295q-92 -111 -264 -111q-57 0 -130 14q-74 20 -120 50zM133 1395q0 47 31 71q29 29 72 29t71 -29q31 -25 31 -71q0 -47 -31 -74q-29 -27 -71.5 -27t-71.5 27q-31 27 -31 74z" />
<glyph unicode="&#x459;" horiz-adv-x="2011" d="M31 8l24 84q31 -14 51 -16q33 -4 48 -4q55 0 96 32q43 37 69 99q29 63 43 141q12 59 27 166q8 113 10 174t2 174v186h777v-397q68 43 157 70q86 23 189 22q80 0 151 -24q70 -25 127 -72q51 -45 86 -115q31 -63 31 -149q0 -78 -31 -146q-33 -68 -90 -122q-63 -53 -139 -82 q-86 -29 -182 -29h-404v954h-567q0 -143 -2 -217q-4 -143 -12 -213q-6 -88 -27 -194q-18 -94 -49 -164q-41 -92 -105 -135q-63 -47 -153 -47q-68 0 -127 24zM1178 90h282q168 0 258 82q92 80 92 209q0 123 -84 197q-84 72 -229 71q-168 0 -319 -96v-463z" />
<glyph unicode="&#x45a;" horiz-adv-x="1914" d="M164 0v1044h104v-466h709v466h104v-397q66 43 156 70q90 23 190 22q80 0 152 -24.5t125 -71.5q55 -45 86 -115q33 -63 33 -149q0 -80 -33 -146q-29 -68 -88 -122q-63 -53 -139 -82q-86 -29 -183 -29h-403v483h-709v-483h-104zM1081 90h283q168 0 258 82q92 80 92 209 q0 125 -84 197q-82 72 -229 71q-168 0 -320 -96v-463z" />
<glyph unicode="&#x45b;" horiz-adv-x="1325" d="M20 1241v82h136l18 172h94v-172h353v-82h-353v-477q66 145 178 223q109 82 297 82q186 0 306 -115q113 -119 112 -327v-627h-104v604q0 195 -90 285q-88 88 -250 88q-160 0 -273 -105q-115 -109 -176 -294v-578h-104v1241h-144z" />
<glyph unicode="&#x45c;" horiz-adv-x="1196" d="M164 0v1044h104v-450l291 16l365 434h137l-404 -469l467 -575h-137l-409 510h-310v-510h-104zM553 1294l158 338l96 -53l-166 -285h-88z" />
<glyph unicode="&#x45e;" horiz-adv-x="1280" d="M92 1044h123l467 -933h20l365 933h121l-492 -1171q-35 -86 -73 -139q-35 -49 -78 -86q-39 -29 -90 -45q-45 -12 -99 -13q-88 0 -153 41l30 88q25 -14 66 -20q33 -6 63 -6q72 0 125 41q57 45 103 153l43 101zM383 1522h92q6 -88 62 -125q49 -41 122 -41q70 0 123 41 q55 41 60 125h94q-6 -61 -31 -107q-20 -47 -61 -80q-39 -33 -86 -47q-49 -16 -99 -16q-45 0 -102 14q-55 20 -86 49q-39 31 -61 78q-23 43 -27 109z" />
<glyph unicode="&#x45f;" horiz-adv-x="1277" d="M164 0v1044h104v-952h742v952h104v-1044h-422l-12 -270h-82l-12 270h-422z" />
<glyph unicode="&#x490;" horiz-adv-x="1245" d="M184 0v1372h865l24 348h80v-442h-862v-1278h-107z" />
<glyph unicode="&#x491;" horiz-adv-x="1067" d="M164 0v1044h694l21 283h86v-375h-697v-952h-104z" />
<glyph unicode="&#x2000;" horiz-adv-x="1006" />
<glyph unicode="&#x2001;" horiz-adv-x="2013" />
<glyph unicode="&#x2002;" horiz-adv-x="1006" />
<glyph unicode="&#x2003;" horiz-adv-x="2013" />
<glyph unicode="&#x2004;" horiz-adv-x="671" />
<glyph unicode="&#x2005;" horiz-adv-x="503" />
<glyph unicode="&#x2006;" horiz-adv-x="335" />
<glyph unicode="&#x2007;" horiz-adv-x="335" />
<glyph unicode="&#x2008;" horiz-adv-x="251" />
<glyph unicode="&#x2009;" horiz-adv-x="402" />
<glyph unicode="&#x200a;" horiz-adv-x="111" />
<glyph unicode="&#x2010;" horiz-adv-x="903" d="M143 535v94h617v-94h-617z" />
<glyph unicode="&#x2011;" horiz-adv-x="903" d="M143 535v94h617v-94h-617z" />
<glyph unicode="&#x2012;" horiz-adv-x="903" d="M143 535v94h617v-94h-617z" />
<glyph unicode="&#x2013;" horiz-adv-x="1351" d="M205 535v94h942v-94h-942z" />
<glyph unicode="&#x2014;" horiz-adv-x="2066" d="M348 537v92h1370v-92h-1370z" />
<glyph unicode="&#x2018;" horiz-adv-x="417" d="M102 1077q0 18 11 49l114 287l62 -20l-62 -215q39 -6 64 -33t24 -68q0 -45 -30 -73q-33 -29 -76 -29t-76 29q-31 29 -31 73z" />
<glyph unicode="&#x2019;" horiz-adv-x="417" d="M102 1278q0 45 31 74q33 29 76 28.5t76 -28.5q31 -29 30 -74q0 -18 -10 -49l-115 -287l-61 21l61 215q-39 6 -63 32q-25 27 -25 68z" />
<glyph unicode="&#x201a;" horiz-adv-x="417" d="M102 90q0 45 31 74q33 29 76 29t76 -29q31 -29 30 -74q0 -18 -10 -49l-115 -287l-61 21l61 215q-39 6 -63 33q-25 27 -25 67z" />
<glyph unicode="&#x201c;" horiz-adv-x="673" d="M82 1077q0 18 10 49l115 287l63 -16l-63 -217q39 -6 63.5 -33t24.5 -70q0 -45 -31 -73q-33 -29 -76 -29t-75 29q-31 29 -31 73zM379 1077q0 16 10 51l94 256l62 -16l-41 -188q39 -6 63.5 -33t24.5 -70q0 -45 -31 -73q-33 -29 -76 -29t-75 29q-31 29 -31 73z" />
<glyph unicode="&#x201d;" horiz-adv-x="673" d="M82 1278q0 45 31 74q33 29 75.5 28.5t75.5 -28.5q31 -29 31 -74q0 -16 -10 -51l-95 -256l-61 16l41 189q-37 6 -64 32q-25 31 -24 70zM379 1278q0 45 31 74q33 29 75.5 28.5t75.5 -28.5q31 -29 31 -74q0 -18 -10 -49l-115 -287l-64 16l64 218q-37 6 -64 32q-25 31 -24 70 z" />
<glyph unicode="&#x201e;" horiz-adv-x="673" d="M82 90q0 45 31 74q33 29 75.5 29t75.5 -29q31 -29 31 -74q0 -16 -10 -51l-95 -256l-61 16l41 189q-37 6 -64 32q-25 31 -24 70zM379 90q0 45 31 74q33 29 75.5 29t75.5 -29q31 -29 31 -74q0 -18 -10 -49l-115 -287l-64 17l64 217q-37 6 -64 32q-25 31 -24 70z" />
<glyph unicode="&#x2020;" horiz-adv-x="894" d="M123 920v102h285l-15 303h113l-14 -303h280v-102l-283 18l15 -938h-109l15 938z" />
<glyph unicode="&#x2021;" horiz-adv-x="894" d="M123 496v102h287v340l-287 -18v102h285l-15 303h113l-14 -303h280v-102l-283 18v-340h283v-102l-280 18l12 -514h-109l13 514z" />
<glyph unicode="&#x2022;" horiz-adv-x="720" d="M225 684q0 55 39 92t96.5 37t96.5 -37t39 -92q0 -57 -39 -94t-96.5 -37t-96.5 37t-39 94z" />
<glyph unicode="&#x2026;" horiz-adv-x="1228" d="M123 86q0 45 31 72q28 26 71 26t72 -26q31 -29 31 -72q0 -45 -31 -72q-29 -27 -72 -26.5t-71 26.5q-31 27 -31 72zM512 86q0 45 31 72q28 26 71 26t72 -26q31 -29 31 -72q0 -45 -31 -72q-29 -27 -72 -26.5t-71 26.5q-31 27 -31 72zM901 86q0 45 31 72q29 26 72 26t71 -26 q31 -29 31 -72q0 -45 -31 -72q-29 -27 -71.5 -26.5t-71.5 26.5q-31 27 -31 72z" />
<glyph unicode="&#x202f;" horiz-adv-x="402" />
<glyph unicode="&#x2030;" horiz-adv-x="2263" d="M102 1005.5q0 59.5 23 114.5q23 53 63 92q35 39 95 62q57 22 120.5 22t120.5 -22q59 -23 94 -62q41 -39 64 -92q23 -55 23 -114.5t-23 -114.5q-23 -53 -64 -92q-35 -39 -94 -62q-57 -23 -120.5 -22.5t-120.5 22.5q-59 23 -95 62q-41 39 -63 92q-23 55 -23 114.5z M201 1006q0 -92 55 -149.5t147 -57.5q96 0 148 57q53 59 53 150q0 92 -55 149q-51 57 -145.5 57t-149.5 -57q-53 -59 -53 -149zM240 47l1017 1253l74 -61l-1018 -1253zM874 298.5q0 59.5 23 115.5q18 47 61 92q45 41 97 61q57 23 120.5 23t120.5 -23q51 -20 97 -61 q43 -45 61 -92q23 -55 23 -114.5t-23 -115.5q-18 -47 -61 -92q-45 -41 -97 -61q-57 -23 -120.5 -23t-120.5 23q-51 20 -97 61q-43 45 -61 92q-23 55 -23 114.5zM973 299.5q0 -90.5 55 -149.5q55 -57 148 -58q96 0 147 58q53 59 53 149t-53 150q-55 57 -147 57 q-96 0 -148 -57q-55 -59 -55 -149.5zM1589 298.5q0 59.5 23 115.5q23 53 63 92q35 39 94 61q58 23 121.5 23t120.5 -23q59 -23 94 -61q41 -39 64 -92q23 -55 22.5 -114.5t-22.5 -115.5q-23 -53 -64 -92q-35 -39 -94 -61q-57 -23 -120.5 -23t-121.5 23q-59 23 -94 61 q-41 39 -63 92q-23 55 -23 114.5zM1688 299.5q0 -90.5 55 -149.5q55 -57 147 -58q96 0 148 58q53 59 53 149t-55 150q-51 57 -145.5 57t-149.5 -57q-53 -59 -53 -149.5z" />
<glyph unicode="&#x2039;" horiz-adv-x="595" d="M102 512v45l320 320l61 -60l-270 -278l270 -285l-63 -57z" />
<glyph unicode="&#x203a;" horiz-adv-x="595" d="M113 256l270 279l-270 284l63 58l318 -316v-45l-320 -319z" />
<glyph unicode="&#x205f;" horiz-adv-x="503" />
<glyph unicode="&#x20ac;" horiz-adv-x="1519" d="M102 506v82h791l-8 -92h-545q47 -201 188 -316q150 -115 367 -114q143 0 260 45q117 49 209 141l63 -68q-104 -109 -235 -159q-127 -53 -301 -54q-270 0 -445 140q-170 141 -215 385zM102 764v82l138 10q27 102 84 199q59 94 143 159q80 66 199 107q111 39 258 39 q133 0 260 -49q125 -53 215 -137l-64 -70q-90 78 -192 121q-106 41 -232 41q-223 0 -370 -111q-145 -115 -197 -299h576l-9 -92h-809z" />
<glyph unicode="&#x20b6;" horiz-adv-x="1368" d="M72 256v76h190v207h-190v90h190v706h516q115 0 201 -28q90 -27 151 -78q68 -51 101 -125q35 -76 35 -166q0 -86 -33 -168q-39 -76 -98 -125q-57 -47 -154 -80q-96 -27 -203 -26h-411v-207h450v-88h-452v-244h-99v238zM367 629h411q182 0 287 80q100 84 100 227 q0 147 -100 227q-96 82 -287 82h-411v-616z" />
<glyph unicode="&#x2116;" horiz-adv-x="2179" d="M184 0v1333h113l920 -1186v1186h102v-1333h-113l-919 1186v-1186h-103zM1550 817q0 51 19 98q18 47 53 82q33 33 82 56q47 20 108 20q59 0 107 -20q51 -23 84 -56q35 -35 53 -82q20 -43 21 -98q0 -57 -21 -100q-18 -47 -53 -82q-33 -33 -84 -55q-47 -20 -107 -21 q-61 0 -108 21q-49 23 -82 55q-35 35 -53 82q-18 45 -19 100zM1575 281v90h475v-90h-475zM1645 817q0 -78 47 -125q51 -47 120.5 -47t120.5 47q47 47 47 125t-47 123q-43 47 -120.5 47t-120.5 -47q-47 -45 -47 -123z" />
<glyph unicode="&#x2122;" horiz-adv-x="1337" d="M72 1290v84h673l232 -266l231 266h88v-571h-90v434l-213 -246h-32l-213 242v-430h-91v487h-262v-487h-92v487h-231z" />
<glyph unicode="&#x2212;" horiz-adv-x="960" d="M143 653v92h674v-92h-674z" />
<glyph unicode="&#x2248;" horiz-adv-x="937" d="M113 514q41 53 88 80q51 27 131 27q45 0 82 -19q39 -18 63 -37q33 -23 64 -37q33 -18 75 -18q90 0 158 72l51 -50q-35 -53 -88 -77q-49 -29 -131 -29q-47 0 -86 16q-45 25 -67 39l-64 39q-33 16 -67 17q-51 0 -93 -19q-37 -18 -65 -53zM113 836q41 53 88 79q51 27 131 27 q43 0 82 -16q55 -33 63 -39q29 -18 64 -39q37 -16 75 -17q90 0 158 72l51 -49q-29 -45 -88 -80q-57 -27 -131 -26q-49 0 -86 18q-33 16 -67 37q-37 25 -64 37q-31 18 -67 18q-51 0 -93 -18q-37 -18 -65 -54z" />
<glyph unicode="&#x2260;" horiz-adv-x="958" d="M143 481v88h263l69 256h-332v88h357l59 217l88 -24l-53 -193h221v-88h-246l-69 -256h315v-88h-340l-51 -192l-88 24l45 168h-238z" />
<glyph unicode="&#x2264;" horiz-adv-x="770" d="M102 455v28l45 56l414 -312l-59 -75zM139 795v53l473 354l56 -67l-406 -310l406 -309l-54 -76z" />
<glyph unicode="&#x2265;" horiz-adv-x="770" d="M102 516l406 309l-406 310l56 67l473 -354v-53l-475 -355zM209 227l414 312l45 -56v-28l-400 -303z" />
<glyph unicode="&#x25fc;" horiz-adv-x="1044" d="M0 0v1044h1044v-1044h-1044z" />
<glyph horiz-adv-x="731" d="M74 1423q117 121 293 121q63 0 112 -18q53 -18 90 -51q41 -33 58 -74q23 -39 22 -94q0 -92 -47 -152q-41 -63 -123 -113l-211 -131h379v-92h-567v72l332 219q57 37 94 82q41 45 41 104q0 68 -47 113q-43 45 -142 45q-72 0 -125 -24q-49 -23 -104 -72z" />
<glyph horiz-adv-x="727" d="M61 909l52 72q57 -45 120 -63q59 -20 129 -21q96 0 150 37q51 37 51 96q0 55 -37 80q-35 29 -102 29h-182v90h172q119 0 118 104q0 57 -45 88q-45 33 -116 33q-129 0 -219 -80l-60 68q57 53 121 78q66 25 166 24q61 0 102 -16q43 -12 80 -41q35 -29 53 -66 q20 -33 20.5 -73.5t-20.5 -81.5q-20 -39 -61 -64q57 -23 84 -67q29 -51 29 -103q0 -39 -19 -82q-20 -41 -57 -69q-31 -29 -94 -54q-59 -20 -138 -20q-92 0 -157 24q-68 20 -140 78z" />
<glyph horiz-adv-x="405" d="M41 1386l195 152l67 -8v-711h-102v551l-107 -57z" />
<glyph horiz-adv-x="1533" d="M92 0l600 1376h150l600 -1376h-113l-149 346h-828l-149 -346h-111zM393 442h744l-355 826h-32zM481 1616v20l264 254h43l263 -254v-20l-50 -47l-235 217l-236 -217z" />
<glyph d="M123 315q0 145 115 242q115 94 333 94q104 0 207 -20q106 -18 193 -56v91q0 311 -357 311q-207 0 -378 -98l-39 75q106 63 196 86q94 29 217 29q240 0 348 -102q113 -98 113 -293v-445q0 -90 31 -123q35 -35 76 -34q20 0 30 2q16 4 25 6l14 -76q-35 -20 -86 -20 q-78 0 -123 45q-47 43 -55 155q-63 -98 -182 -153q-117 -55 -275 -56q-88 0 -166 25q-74 20 -127 66q-55 47 -81 106q-29 68 -29 143zM231 311q0 -113 84 -180q88 -63 238 -63q74 0 154 22q76 25 135 68q59 45 96 104q35 63 35 139v84q-80 35 -187 58q-94 20 -206 20 q-96 0 -160 -18q-63 -20 -109 -53q-43 -39 -61.5 -82t-18.5 -99zM336 1296v21l254 244h43l252 -244v-21l-49 -47l-226 197l-225 -197z" />
<glyph d="M184 0v1372h963v-92h-856v-522h747v-92h-747v-572h895v-94h-1002zM408 1616v20l264 254h43l262 -254v-20l-49 -47l-236 217l-235 -217z" />
<glyph horiz-adv-x="1269" d="M113 520q0 113 39 219q43 102 114 174q74 74 176 115q106 41 232 41q104 0 198 -35q88 -35 152 -98q66 -66 98 -152q35 -92 35 -192q0 -57 -12 -107h-924q8 -199 135 -307q125 -109 322 -108q115 0 207 26q102 31 186 90l49 -77q-94 -70 -207 -101q-106 -33 -239 -33 q-127 0 -232 37q-100 37 -176 107q-70 70 -114 172q-39 111 -39 229zM223 580h830q-4 184 -99 290q-96 109 -288 109q-184 0 -301 -107q-117 -111 -142 -292zM389 1296v21l254 244h43l252 -244v-21l-49 -47l-225 197l-226 -197z" />
<glyph horiz-adv-x="475" d="M-45 1616v20l264 254h43l262 -254v-20l-49 -47l-235 217l-236 -217zM184 0v1372h107v-1372h-107z" />
<glyph horiz-adv-x="434" d="M-55 1296v21l254 244h43l252 -244v-21l-50 -47l-225 197l-225 -197zM164 0v1044h106v-1044h-106z" />
<glyph horiz-adv-x="1679" d="M123 686q0 145 53 281q49 127 148 227q102 100 229 152q129 55 287 55q154 0 290 -53q135 -57 226 -152q98 -94 147 -225q53 -127 53 -285q0 -152 -53 -278q-49 -133 -147 -228q-90 -94 -226 -151q-133 -57 -290 -58q-162 0 -291 56q-131 53 -227 153q-96 96 -146 226 q-53 127 -53 280zM231 686q0 -133 43 -246q47 -117 125 -194q78 -84 191 -131q117 -47 250 -47q139 0 250 45q115 47 190 127q78 80 125 194q43 117 43 252t-43 252q-47 115 -125 195q-76 80 -190 127q-111 45 -250 45q-137 0 -254 -48q-113 -45 -193 -131 q-80 -84 -119 -196q-43 -111 -43 -244zM555 1616v20l264 254h43l262 -254v-20l-49 -47l-235 217l-236 -217z" />
<glyph horiz-adv-x="1355" d="M113 522q0 113 43 215q39 98 114 174q78 74 181 117q104 41 227 41q125 0 231 -41q102 -39 178 -115q76 -72 115 -172q41 -104 41 -219q0 -113 -43 -215q-39 -100 -117 -174q-76 -74 -178 -117q-106 -41 -227 -41q-125 0 -232 41q-102 39 -178 115q-76 72 -114 172 q-41 104 -41 219zM219 522q0 -104 33 -184q35 -84 92 -145q55 -55 143 -95q92 -33 190.5 -32.5t190.5 32.5q88 39 144 95q57 61 92 145q33 80 33 184q0 98 -33 178q-35 84 -92 146q-61 61 -146 96q-84 37 -188 37q-102 0 -189 -35q-84 -35 -145 -96q-57 -59 -92 -143 q-33 -84 -33 -183zM403 1296v21l254 244h43l252 -244v-21l-49 -47l-225 197l-225 -197z" />
<glyph horiz-adv-x="1376" d="M184 0v1372h578q109 0 194 -33q92 -33 156 -86q68 -61 102 -137q37 -80 37 -178q0 -80 -26.5 -147.5t-73.5 -126.5q-43 -51 -113 -95q-61 -37 -143 -57l379 -512h-133l-355 489h-495v-489h-107zM291 584h446q96 0 170 26q72 27 129 74q53 51 78 111q29 63 29 143 q0 162 -107 252q-109 88 -291 88h-454v-694zM418 1616v20l264 254h43l262 -254v-20l-49 -47l-236 217l-235 -217z" />
<glyph horiz-adv-x="1093" d="M164 0v1044h80l14 -307q68 168 180 250q115 82 277 82q86 0 166 -25q82 -25 141 -75l-57 -80q-113 86 -271 86q-156 0 -260 -107q-106 -106 -166 -301v-567h-104zM365 1296v21l253 244h44l251 -244v-21l-49 -47l-225 197l-225 -197z" />
<glyph horiz-adv-x="1552" d="M184 629v743h107v-735q0 -281 131 -424q131 -147 354 -147q100 0 199 32q96 41 151 105q68 70 101 176q35 111 35 254v739h106v-735q0 -152 -37 -275q-41 -125 -114 -210q-76 -88 -185 -134q-113 -47 -256 -47q-137 0 -254 45q-111 49 -186 131q-72 84 -113 209 q-39 117 -39 273zM492 1616v20l264 254h43l262 -254v-20l-49 -47l-236 217l-235 -217z" />
<glyph horiz-adv-x="1314" d="M164 449v595h104v-563q0 -219 86 -313q88 -94 238 -94q154 0 274 98q119 94 181 281v591h104v-1044h-80l-16 285q-61 -156 -185 -232q-125 -78 -295 -78q-186 0 -299 123q-113 119 -112 351zM383 1296v21l254 244h43l252 -244v-21l-49 -47l-226 197l-225 -197z" />
<glyph horiz-adv-x="677" d="M0 1548l92 54l154 -308h-84zM262 1610l94 43l138 -359h-84z" />
<glyph horiz-adv-x="458" d="M123 -285q0 47 31 74q33 29 75.5 29t75.5 -29q31 -27 31 -74q0 -18 -10 -49l-105 -266l-61 20l51 195q-39 6 -64 33q-25 29 -24 67z" />
<glyph horiz-adv-x="1095" d="M92 748q0 68 25 122q25 53 67 95q39 37 103 59q59 20 133 20h67l33 103l62 -4v-1290l41 32q72 57 106 135q33 78 33 181v999l74 6l24 -147l117 18l20 -82l-143 -41v-745q0 -143 -47 -238q-45 -94 -148 -172l-333 -258l-52 68l215 172v749q-70 -41 -155 -41q-47 0 -92 17 q-39 14 -78 49q-33 37 -53 80q-18 49 -19 113zM195 760q0 -100 47 -146q43 -43 108 -43q82 0 139 45v347h-90q-39 0 -71 -13q-39 -12 -66 -37q-33 -29 -49 -65q-18 -37 -18 -88z" />
<glyph horiz-adv-x="434" d="M-57 1399q0 39 26.5 65.5t69.5 26.5t69.5 -26.5t26.5 -65.5t-26.5 -65.5t-69.5 -26.5t-69.5 26.5t-26.5 65.5zM299 1399q0 39 26.5 65.5t69.5 26.5t70 -26.5t27 -65.5t-27 -65.5t-70 -26.5t-69.5 26.5t-26.5 65.5z" />
<glyph horiz-adv-x="710" d="M123 1350v92h465v-92h-465z" />
<glyph horiz-adv-x="808" d="M116.5 1716.5q0.5 40.5 30.5 69.5q31 31 74 31t74 -31q31 -29 31 -70t-31 -69q-31 -31 -74 -31t-74 31q-31 29 -30.5 69.5zM483 1716.5q0 40.5 31 69.5q31 31 74 31t74 -31q31 -29 30.5 -70t-30.5 -69q-31 -31 -74 -31t-74 31q-31 29 -31 69.5z" />
<glyph horiz-adv-x="851" d="M139 1671v92h572v-92h-572z" />
<glyph horiz-adv-x="352" d="M86 1604l176 389l94 -51l-184 -338h-86z" />
<glyph horiz-adv-x="790" d="M94 1874h90q14 -92 70 -137q53 -45 139 -45q84 0 142 45q55 49 69 137h90q-2 -53 -26 -111q-25 -51 -64 -88q-39 -35 -92 -57q-53 -20 -119 -21q-57 0 -119 21q-55 29 -90 59q-41 37 -61 88q-23 51 -29 109z" />
<glyph horiz-adv-x="733" d="M82 1829v20l49 47l236 -217l235 217l49 -47v-20l-264 -254h-43z" />
<glyph horiz-adv-x="573" d="M96 -567q129 33 189 96q57 59 57 135q0 70 -47 105q-43 31 -133 41v40l37 68v109h100l-14 -156q68 -20 112 -76q39 -55 39 -123q0 -106 -74 -190t-235 -123z" />
<glyph horiz-adv-x="458" d="M123 -281q0 47 31 74q33 29 75.5 29t75.5 -29q31 -27 31 -74q0 -18 -10 -49l-115 -286l-61 20l61 215q-39 6 -64 33q-25 29 -24 67z" />
<glyph horiz-adv-x="733" d="M82 1616v20l264 254h43l262 -254v-20l-49 -47l-235 217l-236 -217z" />
<glyph horiz-adv-x="972" d="M116.5 1716.5q0.5 40.5 30.5 69.5q31 31 74 31t74 -31q31 -29 31 -70t-31 -69q-31 -31 -74 -31t-74 31q-31 29 -30.5 69.5zM647 1716.5q0 40.5 31 69.5q31 31 74 31t73 -31q31 -29 31 -70t-31 -69q-31 -31 -73.5 -31t-73.5 31q-31 29 -31 69.5z" />
<glyph horiz-adv-x="745" d="M266 1720.5q0 44.5 31 73.5q31 31 76 31t76 -31q31 -29 30.5 -74t-30.5 -73q-31 -31 -76 -31t-76 31q-31 29 -31 73.5z" />
<glyph horiz-adv-x="649" d="M131 1604l123 372l94 -34l-133 -338h-84zM395 1604l158 327l90 -43l-158 -284h-90z" />
<glyph horiz-adv-x="352" d="M-57 1942l94 51l176 -389h-86z" />
<glyph horiz-adv-x="677" d="M-16 1888l90 43l157 -327h-90zM279 1942l94 34l123 -372h-84z" />
<glyph horiz-adv-x="999" d="M133 1671v92h735v-92h-735z" />
<glyph horiz-adv-x="542" d="M143 -176q0 70 37 127t105 84l69 -35q-63 -20 -90 -70q-25 -45 -24 -92q0 -72 39 -121q43 -47 129 -61l-15 -82q-63 6 -112.5 28.5t-77.5 57.5q-29 29 -45 76q-14 41 -15 88z" />
<glyph horiz-adv-x="638" d="M70 1776q0 41 16 84q18 41 51 77q43 39 80 54q39 22 102 22q61 0 105 -22q39 -14 80 -54q33 -39 49 -77q16 -43 16 -84q0 -43 -16 -88q-23 -47 -51 -74q-31 -35 -80 -55q-41 -20 -103 -21q-63 0 -106 21q-51 25 -78 55q-33 29 -49 74t-16 88zM162 1776q0 -70 43 -113 t114 -43q70 0 115 43q43 43 43 113q0 66 -45 110.5t-113 44.5q-72 0 -114 -45q-43 -47 -43 -110z" />
<glyph horiz-adv-x="890" d="M78 1683q37 59 98 99q59 33 137 33q47 0 84 -19q29 -14 70 -39q37 -25 70 -41q31 -18 73 -18q49 0 82 20q35 25 53 60l68 -58q-66 -115 -209 -114q-51 0 -88 18q-29 14 -70 39q-25 16 -69 41q-33 18 -80 18q-55 0 -92 -24q-37 -27 -64 -66z" />
<glyph horiz-adv-x="475" d="M-49 1366q27 49 69 78q35 27 101 26q51 0 84 -16q37 -18 61 -37l53 -37q20 -18 52 -18q63 0 94 55l61 -53q-27 -49 -61 -70q-37 -25 -92 -24q-45 0 -82 16q-23 12 -60 37l-51 37q-20 18 -55 18q-39 0 -68 -14q-31 -20 -49 -49z" />
<glyph horiz-adv-x="475" d="M-59 1706q59 104 178 104q49 0 86 -16q45 -25 61 -37l53 -37q25 -18 54 -18q72 0 102 55l62 -53q-51 -94 -162 -94q-45 0 -84 16q-41 25 -60 37l-51 37q-25 18 -57 18q-37 0 -74 -14q-35 -23 -51 -49z" />
<glyph horiz-adv-x="2396" d="M113 709q0 47 22 77q18 37 53 66q33 25 62 41q39 16 72 16h30q10 -2 31 -2q18 0 31 17l32 41q8 0 11 -7v-704q0 -6 -1 -19.5t-1 -21.5q-10 -39 -13 -41l4 -2q31 43 39 84q10 49 13 96l-2 72v588q0 12 6 18l39 45q4 4 8 4q8 0 8 -10v-141q0 -18 16 -19l144 11 q10 -4 16 -17q8 -8 8 -20q0 -4 -2 -7q-12 -12 -26 -12h-4l-134 4q-16 0 -16 -18v-455q0 -84 -24 -164q-23 -82 -99 -135l-88 -61q-37 -27 -69 -33q-29 -10 -76 -10q-29 4 -51 14q-31 12 -33 45q12 35 45 49h4q4 2 8 2q29 0 57 -20q23 -20 62 -21q41 0 67 37q16 25 27 72 q4 33 8 90v18q0 39 -2 56q-2 18 -2 49v459q0 12 -6 14q-8 4 -10 6q-23 8 -58 8q-61 0 -92 -37q-35 -35 -34 -96q0 -74 36 -117q27 -27 54 -36q25 -14 71 -19l2 -10q-31 -14 -53 -16q-23 -6 -53 -7q-57 14 -98 66q-39 47 -39 113zM760 561q0 49 31 74q29 29 79 29 q43 0 74 -19l-16 -29q-27 14 -58 15q-35 0 -53 -21q-18 -18 -18 -49q0 -29 18.5 -47t52.5 -18q20 0 39 6v43l-45 4v29h82v-101q-14 -8 -39 -14q-8 0 -21.5 -1t-19.5 -1q-49 0 -75 26q-31 29 -31 74zM1016 463v199h39v-164h86v-35h-125zM1208 463v199h123v-35h-84v-45h82v-35 h-82v-49h92v-35h-131zM1401 463v199h31l122 -138v138h37v-199h-32l-121 139v-139h-37zM1642 432q41 4 41 43v187h39v-189q0 -27 -18 -49.5t-55 -24.5zM1782 463l88 201h31l88 -201h-43l-62 147l-61 -147h-41zM2042 463v199h31l122 -138v138h37v-199h-32l-121 139v-139h-37z " />
<glyph horiz-adv-x="1961" d="M102 952v86l187 11v88q0 82 26 153q27 74 76 127q53 57 127 86q74 33 176 33q221 0 367 -106q49 55 139 94q88 33 191 32q123 0 227 -32q104 -41 180 -97v-1427h-104v1372q-59 47 -135 66q-70 23 -160 22q-145 0 -236 -76q-88 -76 -88 -215v-125h381v-92h-381v-952h-104 v952h-578v-952h-104v952h-187zM393 1044h578v127q0 96 41 185q-76 43 -150 65q-84 23 -166 23q-141 0 -221 -82q-82 -82 -82 -227v-91z" />
<glyph horiz-adv-x="1873" d="M102 952v86l187 11v88q0 82 26 153q27 74 76 127q53 57 127 86q74 33 176 33q113 0 199 -27q92 -29 160 -75q53 59 139 96t188 37q117 0 209 -31q86 -27 164 -88l-59 -78q-74 55 -146 76q-74 25 -159 24q-74 0 -129 -20q-66 -25 -103 -61q-41 -35 -67 -95 q-25 -57 -25 -131v-119h645v-1044h-106v952h-539v-952h-104v952h-568v-952h-104v952h-187zM393 1044h568v121q0 98 40 191q-78 43 -145 65q-78 23 -160 23q-141 0 -221 -82q-82 -82 -82 -227v-91z" />
<glyph horiz-adv-x="1873" d="M102 952v86l187 11v88q0 82 26 153q27 74 76 127q53 57 127 86q74 33 176 33q113 0 199 -27q92 -29 160 -75q53 59 139 96t188 37q117 0 209 -31q86 -27 164 -88l-59 -78q-74 55 -146 76q-74 25 -159 24q-74 0 -129 -20q-66 -25 -103 -61q-41 -35 -67 -95 q-25 -57 -25 -131v-119h645v-1144q0 -182 -88 -295q-92 -111 -264 -111q-57 0 -129 14q-74 20 -121 50l43 84q96 -53 203 -54q117 0 184 76q68 78 68 240v1048h-541v-952h-104v952h-568v-952h-104v952h-187zM393 1044h568v121q0 98 40 191q-78 43 -145 65q-78 23 -160 23 q-141 0 -221 -82q-82 -82 -82 -227v-91z" />
<glyph horiz-adv-x="1368" d="M72 256v76h190v207h-190v90h190v706h516q115 0 201 -28q90 -27 151 -78q68 -51 101 -125q35 -76 35 -166q0 -86 -33 -168q-39 -76 -98 -125q-57 -47 -154 -80q-96 -27 -203 -26h-411v-207h450v-88h-452v-244h-99v238zM367 629h411q182 0 287 80q100 84 100 227 q0 147 -100 227q-96 82 -287 82h-411v-616z" />
<glyph horiz-adv-x="1355" d="M143 379q0 109 54 199q51 90 141 143q-25 39 -31 82q-10 39 -10 92q0 59 25 119q25 57 73 100q45 43 123 72q72 27 172 26q115 0 203 -41q88 -37 154 -108l-72 -72q-57 59 -129 94q-68 33 -158 33q-143 0 -213 -63q-72 -66 -72 -162q0 -125 107 -231l453 -476 q74 76 110 195q35 117 35 262h104q0 -158 -45 -299q-51 -139 -141 -227l135 -140l-76 -71l-137 145q-59 -43 -147 -65q-80 -20 -176 -21q-117 0 -203 31q-88 29 -152 86q-61 55 -94 131q-33 74 -33 166zM250 381q0 -74 26 -129q29 -61 76 -102q49 -43 121 -68 q74 -23 162 -23q143 0 250 62l-492 524q-66 -41 -104.5 -106.5t-38.5 -157.5z" />
<glyph horiz-adv-x="1556" d="M164 0v1141q0 80 24 153q27 74 74 125q47 55 119 84q66 33 162 33q94 0 157 -20q66 -16 136 -60q47 47 120.5 73.5t159.5 26.5q94 0 182 -20q84 -29 148 -70l-57 -84q-53 37 -123 60q-78 23 -150 22q-139 0 -207 -80q-72 -74 -71 -225v-1159h-105v1157q0 129 45 217 q-57 37 -106 51q-55 18 -127 19q-121 0 -201 -80q-76 -82 -76 -225v-1139h-104zM1286 0v1044h107v-1044h-107z" />
<glyph horiz-adv-x="1554" d="M164 0v1141q0 80 24 153q27 74 74 125q47 55 119 84q66 33 162 33q94 0 157 -20q66 -16 136 -60q49 49 108 80q63 31 148 31q172 0 299 -88v-1479h-105v1427q-41 23 -88 35.5t-106 12.5q-123 0 -188.5 -84t-65.5 -232v-1159h-105v1157q0 129 45 217q-57 37 -106 51 q-55 18 -127 19q-121 0 -201 -80q-76 -82 -76 -225v-1139h-104z" />
<glyph horiz-adv-x="434" d="M117 1393q0 45 30 71q27 27 70 27t70 -27q31 -27 30 -71q0 -45 -30 -74q-27 -25 -70 -25q-41 0 -70 25q-31 29 -30 74zM164 0v1044h106v-1044h-106z" />
<glyph horiz-adv-x="1331" d="M143 350q0 106 47 191q45 82 134 129q-41 66 -41 155q0 59 24 111q23 57 70 94q45 41 115 66q72 25 161 24q104 0 203 -37q96 -39 160 -102l-64 -74q-61 59 -141 92q-82 29 -160 29q-131 0 -194 -57q-66 -55 -66 -148q0 -61 19 -106q23 -53 65 -92l465 -453 q70 80 104 184q41 102 41 244h103q0 -147 -45 -278q-51 -129 -131 -213l129 -123l-72 -70l-137 131q-70 -47 -150 -63q-74 -23 -170 -23q-109 0 -198 31q-82 29 -148 82q-59 57 -90 123q-33 72 -33 153zM248 352q0 -63 26 -114q31 -59 76 -95q45 -41 119 -65q74 -23 154 -23 q72 0 129 15q61 16 110 43l-487 481q-61 -37 -92 -96q-35 -57 -35 -146z" />
<glyph horiz-adv-x="1499" d="M143 438q0 53 17 119q14 51 47 111q35 55 74 94q45 41 96 65q-41 78 -41 181q0 68 24 135q27 66 74 112q55 51 127 78q80 29 180 29q121 0 226 -43q102 -49 166 -123l-70 -68q-68 76 -145 105q-72 35 -179 35q-152 0 -225 -76q-74 -78 -74 -186q0 -74 22.5 -137.5 t72.5 -125.5l239 -311l115 -141q80 -84 121 -119q111 92 166 238q57 141 57 319h102q0 -193 -61.5 -354.5t-183.5 -265.5q68 -45 114 -70q66 -29 123 -43l-24 -92q-84 14 -162 55q-78 37 -144 88q-63 -33 -145 -55q-76 -20 -172 -21q-123 0 -227 35q-96 33 -170 96 q-70 68 -103 150q-37 86 -37 186zM248 440q0 -78 31 -145q29 -68 86 -121q59 -53 139 -80q82 -31 186 -31q68 0 123 15q52 10 107 35q-78 78 -113 120q-53 61 -107 132l-286 376q-82 -45 -123 -127q-43 -78 -43 -174z" />
<glyph horiz-adv-x="1478" d="M143 438q0 117 58 221q63 104 157 166q-43 80 -43 183q0 68 25 135q29 63 78 112q59 51 133 78q82 29 190 29q121 0 226 -43q102 -49 166 -123l-70 -68q-63 74 -145 109q-78 31 -179 31q-166 0 -241 -76q-78 -78 -78 -186q0 -72 31 -132q31 -57 90 -120l534 -547 q135 141 135 364q0 164 -100 279l82 63q59 -74 90 -159q33 -86 33 -181q0 -131 -45 -241q-43 -113 -129 -195q45 -53 76 -125q27 -61 26 -137q0 -61 -22 -119q-18 -49 -70 -96q-51 -41 -119 -61q-72 -25 -170 -25l-8 96q150 0 215 58q70 57 70 147q0 49 -17 98 q-18 49 -63 99q-74 -47 -166 -74t-205 -27q-125 0 -233 35q-98 33 -170 96q-72 66 -105 150q-37 86 -37 186zM248 440q0 -78 31 -145q31 -66 90 -121q63 -55 143 -80q80 -31 186 -31q92 0 162 21q78 23 133 57l-583 609q-70 -51 -117 -134q-45 -78 -45 -176z" />
<glyph horiz-adv-x="1499" d="M143 438q0 117 58 221q63 104 157 166q-43 80 -43 183q0 68 25 135q29 63 78 112q59 51 133 78q82 29 190 29q129 0 226 -47q102 -43 170 -123l-70 -70q-133 145 -328 146q-166 0 -241 -76q-78 -78 -78 -186q0 -72 31 -129q29 -53 90 -119l219 -223q4 147 82 235 q80 88 217 88q68 0 121 -24.5t90 -67.5q37 -39 55 -96q18 -55 18 -119q0 -129 -47 -239.5t-139 -188.5l137 -137l-71 -74l-144 149q-152 -90 -389 -90q-129 0 -233 35q-100 33 -172 96q-72 66 -105 150q-37 86 -37 186zM248 440q0 -78 31 -145q31 -70 90 -121 q53 -51 141 -80q84 -31 190 -31q172 0 306 72l-596 613q-72 -53 -117 -131t-45 -177zM856 553q0 -49 21 -96q16 -43 49 -97q45 -57 75 -88q40 -38 91 -79q74 68 112 153q41 92 41 203q0 98 -49 160q-47 59 -141 59q-98 0 -150 -63q-49 -61 -49 -152z" />
<glyph horiz-adv-x="1482" d="M41 1096q133 117 285 170q152 55 333 55q111 0 193 -27q92 -25 164 -69q72 -43 127 -103q53 -55 96 -129q43 104 64 195q25 94 36 190l103 -16q-41 -274 -148 -490q33 -92 33 -196q0 -152 -45 -279q-47 -127 -131 -221q-90 -94 -215 -147q-129 -53 -291 -54 q-121 0 -219 37q-92 37 -160 99q-63 68 -98 147q-33 86 -33 176q0 98 35 191q35 90 98 157q59 66 154 111q94 39 203 39q123 0 202 -68q78 -72 78 -186q0 -51 -12 -90q-12 -41 -47 -82q117 76 196 170q82 90 142 201q-33 82 -82 139q-49 63 -119 110q-66 45 -147 70 q-80 27 -174 27q-172 0 -310 -56q-131 -51 -252 -149zM236 436q-1 -72 26 -123q162 27 266 68q104 39 164 90q59 45 86 98q23 57 23 105q0 76 -47 117q-45 43 -133.5 43t-157.5 -31q-68 -27 -123 -82q-45 -47 -78 -127q-27 -76 -26 -158zM303 229q57 -70 143 -112 q82 -43 211 -43q123 0 228 43q100 41 180 121q76 78 115 188q43 106 43 244q0 38 -6 75q-141 -207 -367 -335q-221 -131 -547 -181z" />
<glyph horiz-adv-x="1499" d="M143 438q0 121 60 221q57 102 157 168q-25 45 -32 86q-12 49 -13 101q0 68 25 133q29 66 74 110q49 49 116 76q74 29 156 29q78 0 145 -25q61 -25 111 -67q45 -45 70 -103q27 -55 26 -131q0 -152 -88 -266q-88 -117 -243 -192l346 -367q92 92 135 227q45 135 45 291h102 q0 -178 -53 -332q-51 -152 -162 -258l150 -157l-74 -76l-156 166q-70 -45 -161 -74q-86 -27 -199 -27q-123 0 -227 35q-96 33 -170 96q-70 68 -103 150q-37 86 -37 186zM248 440q0 -78 31 -145q29 -68 86 -121q59 -53 139 -80q82 -31 186 -31q90 0 154 21q74 20 129 59 l-563 605q-72 -53 -117 -131t-45 -177zM420 1012q0 -70 31 -135q29 -59 90 -123l98 -105q147 66 221 166q76 96 76 217q0 115 -68 176q-70 59 -184 60q-133 0 -199 -72q-66 -76 -65 -184z" />
</font>
</defs>
</svg>
