<?xml version="1.0" standalone="no"?>
<!DOCTYPE svg PUBLIC "-//W3C//DTD SVG 1.1//EN" "http://www.w3.org/Graphics/SVG/1.1/DTD/svg11.dtd" >
<svg xmlns="http://www.w3.org/2000/svg" xmlns:xlink="http://www.w3.org/1999/xlink" version="1.1">
<metadata></metadata>
<defs>
<font id="letosansregular" horiz-adv-x="1312" >
<font-face units-per-em="2048" ascent="1481" descent="-567" />
<missing-glyph horiz-adv-x="614" />
<glyph unicode="fk" horiz-adv-x="2070" d="M88 870v166l170 11v98q0 86 33 158q35 76 94 129q57 53 147 88q86 31 195 30q139 0 256 -34q119 -37 215 -107v-778l195 22l317 391h254l-397 -469l452 -575h-250l-356 467h-215v-467h-199v1309q-55 35 -122 49q-66 14 -144 14q-121 0 -201 -61q-76 -63 -75 -181v-86h336 v-174h-336v-870h-199v870h-170z" />
<glyph unicode="ff" horiz-adv-x="1533" d="M88 870v166l170 11v79q0 80 29 156q29 74 86 129q53 53 139 88q84 31 193 31q102 0 188 -23q86 -25 158 -71q51 51 129 84q80 31 180 30q109 0 182 -26q86 -31 150 -78l-93 -141q-102 70 -231 69q-113 0 -168 -61q-57 -59 -57 -178v-91h336v-174h-336v-870h-199v870h-487 v-870h-199v870h-170zM457 1044h487v93q0 76 23 147q-106 70 -256 70q-117 0 -187 -60q-68 -57 -67 -170v-80z" />
<glyph unicode="fi" horiz-adv-x="1275" d="M88 870v166l170 11v96q0 84 29 164q31 78 90 131q51 53 141 90q80 33 195 33q131 0 241 -35q106 -35 203 -105l-98 -149q-86 57 -162 80q-80 29 -176 28q-117 0 -190.5 -61.5t-73.5 -177.5v-97h667v-1044h-202v870h-465v-870h-199v870h-170z" />
<glyph unicode="fj" horiz-adv-x="1275" d="M88 870v166l170 11v96q0 84 29 164q31 78 90 131q51 53 141 90q80 33 195 33q123 0 241 -33q113 -39 203 -107l-98 -149q-86 57 -162 80q-80 29 -176 28q-117 0 -190.5 -61.5t-73.5 -177.5v-97h669v-1118q0 -90 -24 -166q-20 -72 -70 -131q-47 -53 -119 -86 q-74 -31 -165 -30q-78 0 -150 16q-63 14 -135 51l69 160q57 -31 101 -39q51 -10 106 -10q82 0 138 57q51 61 51 180v942h-471v-870h-199v870h-170z" />
<glyph unicode="fl" horiz-adv-x="1347" d="M88 870v166l170 11v98q0 86 33 158q35 76 94 129q57 53 147 88q86 31 195 30q139 0 256 -34q119 -37 215 -107v-1409h-199v1309q-55 35 -122 47q-59 16 -144 16q-121 0 -201 -61q-76 -63 -75 -181v-86h336v-174h-336v-870h-199v870h-170z" />
<glyph unicode="fh" horiz-adv-x="2160" d="M88 870v166l170 11v98q0 86 33 158q35 76 94 129q57 53 147 88q86 31 195 30q139 0 256 -34q119 -37 215 -107v-551q57 104 150 158q94 53 233 53q201 0 315.5 -114.5t114.5 -338.5v-616h-199v594q0 152 -67 229q-68 74 -197 74q-123 0 -215 -80t-135 -225v-592h-199 v1309q-55 35 -122 49q-66 14 -144 14q-121 0 -201 -61q-76 -63 -75 -181v-86h336v-174h-336v-870h-199v870h-170z" />
<glyph unicode="ft" horiz-adv-x="1636" d="M88 870v166l170 11v104q0 86 33 160q29 74 90 131q63 59 147 90q84 35 199 35q252 0 426 -125l-23 -398h388v-174h-381v-520q0 -102 45 -149q49 -45 137 -45q55 0 108 16q45 14 91 45l73 -149q-70 -49 -141 -70q-78 -23 -160 -23q-170 0 -262 92.5t-92 286.5v516h-479 v-870h-199v870h-170zM457 1044h471l33 293q-59 31 -109 39q-59 12 -119 13q-131 0 -203 -70q-74 -68 -73 -184v-91z" />
<glyph unicode="&#x456;&#x457;" horiz-adv-x="1005" d="M-76 1376.5q0 59.5 39 89.5q37 35 88 35q53 0 88 -35q39 -31 39 -90t-39 -90q-35 -35 -88 -35q-51 0 -88 35q-39 31 -39 90.5zM150 0v1044h202v-1044h-202zM365 1378.5q0 61.5 41 96.5q36 38 95.5 38t100.5 -38q39 -39 39 -96.5t-39 -100.5q-43 -37 -100 -37 q-59 0 -96 37q-41 39 -41 100.5zM653 0v1044h203v-1044h-203zM827 1376.5q0 59.5 37 89.5q37 35 88 35q53 0 90 -35q39 -31 39 -90t-39 -90q-37 -35 -90 -35q-51 0 -88 35q-37 31 -37 90.5z" />
<glyph unicode="&#x17f;l" horiz-adv-x="1112" d="M150 0v1145q0 84 28 164q27 72 84 133q55 55 135 86q80 33 189 33q117 0 209 -31q90 -29 168 -84v-1446h-199v1352q-74 33 -172 32q-113 0 -178 -63q-66 -66 -66 -182v-1139h-198z" />
<glyph unicode="&#x17f;k" horiz-adv-x="1835" d="M150 0v1145q0 84 28 164q27 72 84 133q55 55 135 86q80 33 189 33q117 0 209 -31q90 -29 168 -84v-815l194 22l318 391h254l-398 -469l453 -575h-250l-356 467h-215v-467h-199v1352q-80 33 -172 32q-113 0 -178 -63q-66 -66 -66 -182v-1139h-198z" />
<glyph unicode="&#x17f;&#x17f;" horiz-adv-x="1173" d="M150 0v1116q0 88 30 164q27 76 86 131q53 53 135 88q82 31 185 31q94 0 168 -19q72 -16 145 -53q47 43 117 68q68 25 158 24q109 0 182 -26q78 -25 149 -78l-94 -152q-49 37 -113 58q-57 18 -120 18q-104 0 -158 -63q-51 -66 -51 -179v-1128h-199v1139q0 47 6 90 q6 37 23 78q-49 23 -97 34q-49 12 -110 13q-111 0 -178 -62q-66 -61 -66 -184v-1108h-198z" />
<glyph unicode="&#x17f;i" horiz-adv-x="1077" d="M150 0v1141q0 84 28 164q27 72 84 133q57 55 139 88q80 33 188.5 33t201.5 -27q100 -29 170 -80l-95 -149q-59 39 -125 57q-72 23 -145 22q-113 0 -178 -63q-70 -61 -70 -184v-1135h-198zM723 0v1044h203v-1044h-203z" />
<glyph unicode="&#x17f;h" horiz-adv-x="1925" d="M150 0v1145q0 84 28 164q27 72 84 133q55 55 135 86q80 33 189 33q117 0 209 -31q90 -29 168 -84v-588q55 102 147 158q96 53 236 53q201 0 315.5 -114.5t114.5 -338.5v-616h-197v594q0 152 -68 229q-72 74 -198 74q-123 0 -215 -80q-88 -80 -135 -225v-592h-199v1352 q-80 33 -172 32q-113 0 -178 -63q-66 -66 -66 -182v-1139h-198z" />
<glyph unicode="&#x17f;t" horiz-adv-x="1456" d="M150 0v1145q0 84 28 164q27 72 84 133q55 55 135 86q80 33 189 33q115 0 213 -31q92 -31 170 -90l-19 -396h387v-174h-381v-520q0 -102 48 -149q45 -45 137 -45q53 0 108 16q45 14 90 45l74 -149q-70 -49 -141 -70q-80 -23 -162 -23q-170 0 -262 92.5t-92 286.5v516h-170 v162l162 12l32 302q-80 39 -188 38q-113 0 -178 -63q-66 -66 -66 -182v-1139h-198z" />
<glyph unicode="&#xd;" horiz-adv-x="681" />
<glyph unicode=" "  horiz-adv-x="614" />
<glyph unicode="&#x09;" horiz-adv-x="614" />
<glyph unicode="&#xa0;" horiz-adv-x="614" />
<glyph unicode="!" horiz-adv-x="489" d="M109 121q0 59 41 96q39 37 94 37q59 0 96 -37q41 -35 41 -96.5t-41 -95.5q-37 -37 -96 -37q-55 0 -94 37q-41 37 -41 96zM145 401v1090h199v-1090h-199z" />
<glyph unicode="&#x22;" horiz-adv-x="673" d="M98 1008v393h178v-101l-38 -292h-140zM397 1008v393h178v-101l-38 -292h-140z" />
<glyph unicode="#" horiz-adv-x="1255" d="M109 436v158h202l37 233h-209v160l236 4l39 221l159 -22l-32 -199h243l39 221l156 -22l-29 -199l195 -6v-158h-219l-39 -233h229v-158l-256 -6l-37 -229l-159 22l32 207h-243l-41 -219l-154 18l31 201zM477 594h244l37 233h-244z" />
<glyph unicode="$" horiz-adv-x="1320" d="M113 131l96 162q117 -78 221 -109q100 -33 219 -32q174 0 264 59q88 57 88 166q0 82 -59 135q-59 49 -186 66l-221 28q-182 25 -289 115q-100 90 -101 256q0 84 31 145q27 63 84 115q59 51 131 76q86 31 168 39v245h195v-241q104 -8 211 -45q98 -37 182 -103l-105 -145 q-168 117 -383 117q-166 0 -237 -54q-72 -55 -72 -141t56 -129q51 -45 174 -61l211 -29q197 -29 303 -123q111 -92 110 -262q0 -78 -28 -141q-25 -66 -82 -121q-61 -57 -144 -90q-82 -37 -196 -49v-238h-199v231q-121 8 -231.5 47t-210.5 111z" />
<glyph unicode="%" horiz-adv-x="1595" d="M88 1003.5q0 65.5 24.5 123t67.5 98.5q45 45 103 65q61 25 132.5 25t133.5 -25q59 -20 102 -65q43 -41 67.5 -98.5t24.5 -123t-24.5 -123t-67.5 -98.5q-45 -45 -102 -65q-61 -25 -133 -25t-133 25q-59 20 -103 65q-43 41 -67.5 98.5t-24.5 123zM233 66l996 1232l129 -102 l-993 -1231zM258 1003.5q0 -71.5 43 -114.5t114.5 -43t114.5 43t43 114.5t-43 114.5t-114.5 43t-114.5 -43t-43 -114.5zM882.5 296.5q0.5 63.5 24.5 123.5q25 57 68 100q45 41 102 66q63 22 133 22q68 0 129 -22q59 -25 105 -66q43 -43 67 -100q25 -59 25 -123t-25 -123 q-25 -57 -67 -100q-45 -41 -105 -66q-61 -23 -129 -22q-70 0 -133 22q-57 25 -102 66q-43 43 -68 100q-25 59 -24.5 122.5zM1053 297q0 -72 43 -115t114.5 -43t112.5 43q43 43 43 115t-43 115q-41 43 -112.5 43t-114.5 -43t-43 -115z" />
<glyph unicode="&#x26;" horiz-adv-x="1519" d="M129 453q0 117 51 219q57 102 152 157q-33 74 -33 164q0 72 29 142q29 66 86 114q53 49 139 82q86 31 199 31q141 0 245 -45q111 -47 185 -127l-121 -137q-63 68 -137 102q-80 35 -174 35q-127 0 -189 -62q-63 -61 -63 -145q0 -106 82 -195l454 -481q68 80 105 193 q39 111 39 256h192q0 -186 -55 -330q-59 -150 -156 -252l146 -154l-142 -131l-155 168q-80 -43 -158 -63q-86 -23 -180 -23q-129 0 -232 37q-94 31 -168 98q-72 68 -106 154q-35 92 -35 193zM328 465q0 -70 24 -125q20 -59 68 -102q47 -43 110 -68t150 -25q106 0 205 48 l-453 495q-104 -82 -104 -223z" />
<glyph unicode="'" horiz-adv-x="376" d="M98 981v420h178v-115l-38 -305h-140z" />
<glyph unicode="(" horiz-adv-x="641" d="M109 545q0 248 94 467q96 217 289 391l122 -119q-156 -150 -231 -330q-76 -178 -76 -409q0 -215 74 -393q74 -176 233 -345l-120 -116q-182 150 -283 362q-102 215 -102 492z" />
<glyph unicode=")" horiz-adv-x="641" d="M27 -190q160 154 231 329q78 176 78 410q0 215 -74 393q-74 176 -235 344l120 117q180 -150 283 -363q102 -215 102 -491q0 -252 -94 -467q-92 -217 -288 -391z" />
<glyph unicode="*" horiz-adv-x="864" d="M109 971l190 123l-190 137l102 131l174 -148l72 220l159 -54l-92 -215l230 13v-164l-232 14l94 -213l-163 -57l-70 221l-178 -148z" />
<glyph unicode="+" horiz-adv-x="1064" d="M129 614v170h311v330h187v-330h309v-170h-309v-329h-187v329h-311z" />
<glyph unicode="," horiz-adv-x="493" d="M109 123q0 61 41 98q39 37 98 37q55 0 96 -35q39 -33 39 -100q0 -41 -12 -68l-117 -276l-117 43l51 174q-37 16 -57 49q-23 35 -22 78z" />
<glyph unicode="-" horiz-adv-x="876" d="M129 492v172h616v-172h-616z" />
<glyph unicode="." horiz-adv-x="499" d="M109 125q0 63 43 100q38 39 97.5 39t98.5 -39q43 -37 43 -100q0 -59 -43 -100q-41 -37 -98 -37t-98 37q-43 41 -43 100z" />
<glyph unicode="/" horiz-adv-x="802" d="M-35 -106l672 1622l168 -70l-674 -1622z" />
<glyph unicode="0" horiz-adv-x="1585" d="M117 686q0 145 47 281q51 135 139 225q86 96 213 151q123 58 277 58q150 0 278 -53q121 -53 213 -152q88 -94 137 -227q47 -135 47 -283q0 -145 -47 -276q-49 -133 -137 -230q-92 -98 -213 -151q-123 -57 -278 -58q-154 0 -279 56q-123 53 -213 153q-86 92 -137 226 q-47 135 -47 280zM324 686q0 -115 32 -207q31 -96 90 -172q61 -74 148 -112q92 -41 199 -41q111 0 198 41q86 39 148 112q59 70 92 168q31 98 31 211q0 119 -33 215q-29 92 -90 168q-57 68 -148 111q-94 39 -198 39q-111 0 -203 -41q-84 -39 -146 -113q-59 -76 -90 -172 q-31 -94 -30 -207z" />
<glyph unicode="1" horiz-adv-x="774" d="M88 1061l381 321l135 -10v-1372h-203v1081l-211 -157z" />
<glyph unicode="2" horiz-adv-x="1280" d="M129 1219q104 98 231 141q133 41 271 41q123 0 215 -33q96 -31 159.5 -88t100.5 -137q33 -82 33 -172q0 -143 -68 -254q-66 -111 -209 -219l-418 -314h695v-184h-998v172l582 446q111 86 162 168t51 177q0 115 -78 188q-80 70 -237 70q-213 0 -388 -150z" />
<glyph unicode="3" horiz-adv-x="1318" d="M82 174l117 150q106 -92 207 -131q98 -39 231 -39q166 0 256 71q88 70 88 185q0 102 -68 159q-66 55 -196 56h-316v180h301q100 0 158 51q55 55 55 141q0 106 -71 162q-68 59 -230 60q-94 0 -184 -33q-96 -35 -178 -109l-109 146q209 178 488 178q117 0 209 -29 q92 -31 155 -82q61 -49 95 -119q33 -66 32 -147q0 -92 -39 -168q-41 -74 -114 -113v-20q102 -33 164 -117q59 -88 59 -203q0 -88 -37 -165q-35 -76 -111 -140q-78 -61 -178 -92q-111 -35 -245 -35q-162 0 -291 47q-125 45 -248 156z" />
<glyph unicode="4" horiz-adv-x="1398" d="M88 246v164l758 962h280v-944h195v-172l-195 -12v-244h-202v246h-836zM344 428h580v713h-27z" />
<glyph unicode="5" horiz-adv-x="1292" d="M98 176l123 146q92 -92 191 -129q96 -39 215 -39q72 0 139 18q63 23 111 57q45 43 71.5 94.5t26.5 120.5q0 135 -82 211q-84 78 -234 78q-115 0 -192 -24q-80 -20 -139 -66l-135 49l61 680h838v-182h-664l-27 -338q55 27 125 45q80 14 156 14q109 0 197 -30 q90 -31 155.5 -90.5t102.5 -145.5t37 -199q0 -100 -39 -184q-41 -90 -111 -151q-68 -63 -176 -103q-106 -37 -238 -37q-160 0 -282 49q-127 53 -230 156z" />
<glyph unicode="6" horiz-adv-x="1341" d="M109 659q0 182 47 312q41 135 129 233q78 94 202 148q117 49 263 49q121 0 231 -39q113 -39 205 -117l-107 -145q-158 123 -348 123q-174 0 -289 -111q-117 -113 -131 -326q82 70 176 99q96 35 236 35q119 0 211 -33q94 -35 160 -92q68 -59 102 -146q37 -86 37 -192 q0 -100 -41 -193q-39 -88 -115 -153q-76 -68 -174 -103q-100 -37 -219 -37q-272 0 -426 181q-150 180 -149 507zM313 606q0 -115 29 -205q27 -84 80 -143q47 -53 117 -82q66 -27 145 -26q82 0 139 22q68 18 111 61q43 33 74 95q25 57 24 127q0 139 -86 217q-88 74 -250 73 q-109 0 -207 -36q-98 -33 -176 -103z" />
<glyph unicode="7" horiz-adv-x="1187" d="M98 1192v180h992v-151l-564 -1221h-223l559 1192h-764z" />
<glyph unicode="8" horiz-adv-x="1341" d="M109 408q0 123 59 215q55 98 162 151q-63 41 -99 111q-33 66 -32 145q0 82 32 148q35 70 95 116q63 53 149 78q80 29 195 29q121 0 204 -29q88 -25 152 -78q59 -47 92 -118.5t33 -155.5q0 -88 -41 -164q-37 -74 -113 -127q111 -45 174 -131q61 -86 62 -205 q0 -82 -37 -160q-33 -74 -106 -135q-72 -57 -177 -92q-115 -35 -251 -35q-141 0 -240 33q-100 33 -174 90q-72 63 -105 139q-35 82 -34 175zM309 416q0 -121 94 -195q96 -74 267 -74q178 0 268 70q88 70 88 178q0 90 -63 150q-70 57 -218 84l-145 28l-59 11q-29 6 -49 12 q-92 -33 -140 -105q-43 -72 -43 -159zM397 1026q0 -78 58 -129q63 -45 170 -66l114 -22q41 -8 82 -18q68 33 103 90q33 57 32 135q0 86 -67 151q-66 61 -219 62q-135 0 -205 -58q-68 -61 -68 -145z" />
<glyph unicode="9" horiz-adv-x="1335" d="M109 913q0 100 38 195q45 94 111 154q72 66 172 102q98 37 215 37q279 0 432 -180q150 -184 150 -508q0 -176 -43 -314q-45 -143 -127 -231q-74 -90 -201 -148q-123 -49 -274 -49q-123 0 -242 37q-123 41 -213 119l106 145q80 -66 175 -92q96 -31 192 -30q180 0 293 108 q115 109 131 326q-80 -68 -176 -101q-109 -33 -236 -32q-119 0 -211 32q-94 35 -157 92q-68 61 -101 146q-35 88 -34 192zM309 915q0 -139 84 -217q82 -76 246 -75q109 0 207 36q102 41 176 107q0 115 -29 205q-27 84 -80 143q-49 55 -118 82q-66 27 -150 27q-78 0 -137 -23 q-59 -18 -107 -61q-43 -37 -67.5 -96.5t-24.5 -127.5z" />
<glyph unicode=":" horiz-adv-x="485" d="M109 119q0 59 41 94q38 37 93.5 37t92.5 -37q41 -33 41 -94.5t-41 -93.5q-37 -37 -92.5 -37t-93.5 37q-41 35 -41 94zM109 833.5q0 59.5 41 96.5q40 35 93.5 35t92.5 -35q41 -35 41 -96.5t-41 -96.5q-39 -35 -92.5 -35t-93.5 35q-41 37 -41 96.5z" />
<glyph unicode=";" horiz-adv-x="485" d="M109 117q0 59 38 96q41 37 96.5 37t92.5 -37q41 -35 41 -96q0 -12 -4 -33q0 -4 -3 -14.5t-5 -16.5l-115 -274l-115 43l55 176q-35 16 -59 43q-23 33 -22 76zM109 833.5q0 59.5 41 96.5q40 35 93.5 35t92.5 -35q41 -35 41 -96.5t-41 -96.5q-39 -35 -92.5 -35t-93.5 35 q-41 37 -41 96.5z" />
<glyph unicode="&#x3c;" horiz-adv-x="833" d="M88 686v64l502 409l115 -131l-365 -313l362 -307l-114 -144z" />
<glyph unicode="=" horiz-adv-x="974" d="M129 440v164h717v-164h-717zM129 795v166h717v-166h-717z" />
<glyph unicode="&#x3e;" horiz-adv-x="833" d="M129 395l365 316l-363 307l113 141l501 -420v-65l-501 -410z" />
<glyph unicode="?" horiz-adv-x="1243" d="M109 1323q113 94 235 133q127 41 268 41q113 0 211 -29q94 -27 164 -84t109 -139q39 -80 39 -186q0 -158 -97 -277q-96 -113 -274 -155q-76 -18 -109 -58q-31 -41 -30 -90q0 -33 10 -69l-176 -21q-23 55 -23 121q0 102 64 174q66 72 188 104q135 37 190.5 105t55.5 166 q0 121 -86 192q-88 70 -236 70q-119 0 -217 -37q-100 -37 -184 -106zM422 121q0 61 41 96q37 37 94 37t96 -37q41 -37 41 -96.5t-41 -95.5q-39 -37 -96 -37t-94 37q-41 35 -41 96z" />
<glyph unicode="@" horiz-adv-x="1800" d="M119 510q0 162 63 301q66 143 174 246q109 104 262 168q156 59 332 59q156 0 285 -45q133 -47 227 -131q98 -88 152 -211q53 -125 53 -281q0 -100 -25 -184q-23 -84 -67 -145q-45 -57 -111 -94q-70 -33 -147.5 -33t-132.5 30q-57 31 -82 93q-47 -66 -111 -103 q-63 -35 -153 -35q-145 0 -238 95q-92 96 -92 266q0 94 33 166q31 76 86 131q59 55 131 82q80 29 166 28q172 0 305 -63v-420q0 -59 24 -90q31 -27 74 -27q70 0 115 76q43 74 43 223q0 111 -31 203q-33 92 -98 160q-70 68 -168 102q-102 37 -238 37q-139 0 -262 -45 q-125 -51 -203 -129q-88 -88 -129 -190q-47 -106 -47 -240q0 -125 39 -236q45 -109 115 -178q78 -74 184 -112q102 -39 242 -39q166 0 278 22q111 16 244 68l51 -150q-135 -59 -266 -82q-131 -29 -307 -28q-170 0 -311 49q-147 55 -242 145q-100 92 -160 232 q-57 135 -57 309zM694 512q0 -106 47 -158q45 -49 117 -49q86 0 141.5 59.5t55.5 151.5v219q-61 23 -135 23q-102 0 -164 -62q-61 -57 -62 -184z" />
<glyph unicode="A" horiz-adv-x="1560" d="M86 0l571 1374h244l576 -1374h-230l-123 311h-694l-121 -311h-223zM500 492h555l-264 671h-25z" />
<glyph unicode="B" horiz-adv-x="1386" d="M170 0v1372h569q117 0 199 -26q86 -27 147 -76q59 -49 86 -115q31 -66 31 -143q0 -88 -39 -160q-41 -76 -110 -109v-18q102 -29 172 -121q63 -92 63 -207q0 -82 -31 -153q-29 -72 -90 -125q-57 -55 -151 -86q-90 -33 -217 -33h-629zM379 176h420q139 0 213 57 q71 60 71 167q0 109 -71 169q-76 59 -215 60h-418v-453zM379 803h393q117 0 170 53q55 55 55 148q0 192 -261 192h-3h-354v-393z" />
<glyph unicode="C" horiz-adv-x="1488" d="M109 682q0 145 51 283q57 135 151 227q94 96 236 154q137 55 315 55q145 0 281 -49q131 -47 229 -133l-108 -148q-170 143 -420 143q-119 0 -217 -36q-98 -39 -164 -107q-70 -70 -107 -166q-39 -96 -39 -219q0 -125 39 -221q41 -102 109 -166q72 -70 166 -104 q92 -37 207 -37q129 0 243 43q115 47 203 127l117 -144q-223 -213 -574 -213q-162 0 -290 49q-129 47 -230 142q-92 92 -147 223q-51 137 -51 297z" />
<glyph unicode="D" horiz-adv-x="1490" d="M170 0v1372h485q168 0 303 -49q133 -53 228 -143q90 -84 145 -217q51 -121 51 -277q0 -141 -51 -276q-57 -129 -149 -217q-94 -88 -232 -142q-133 -51 -301 -51h-479zM377 182h272q111 0 211 35q92 33 166 100q72 66 109 158q41 90 41 211q0 246 -140 375 q-141 129 -389 129h-270v-1008z" />
<glyph unicode="E" d="M170 0v1372h987v-182h-782v-387h688v-180h-688v-439h819v-184h-1024z" />
<glyph unicode="F" horiz-adv-x="1241" d="M170 0v1372h963v-182h-758v-408h655v-180h-655v-602h-205z" />
<glyph unicode="G" horiz-adv-x="1515" d="M109 682q0 152 51 281q53 135 147 229q94 96 234 151q133 57 313 58q139 0 268 -43q131 -43 232 -129l-111 -150q-80 70 -182 101q-93 34 -210 34h-7q-119 0 -217 -36q-98 -39 -164 -107q-70 -70 -107 -166q-39 -96 -39 -219q0 -127 39 -223q41 -102 109 -166 q72 -70 166 -104.5t209 -34.5q209 0 348 96v299l-301 14v168h499v-575q-111 -94 -247 -140q-143 -49 -307 -49t-295 49t-230 142q-92 92 -147 223q-51 137 -51 297z" />
<glyph unicode="H" horiz-adv-x="1499" d="M170 0v1372h211v-577h737v577h209v-1372h-209v608h-737v-608h-211z" />
<glyph unicode="I" horiz-adv-x="550" d="M170 0v1372h211v-1372h-211z" />
<glyph unicode="J" horiz-adv-x="1105" d="M78 92l94 160q76 -51 147 -76q76 -20 148 -20q111 0 184 75q76 76 76 242v899h209v-874q0 -252 -117 -389q-119 -137 -352 -138q-111 0 -205 25q-96 29 -184 96z" />
<glyph unicode="K" horiz-adv-x="1439" d="M170 0v1372h205v-563l213 16l446 547h258l-534 -635l585 -737h-266l-485 639h-217v-639h-205z" />
<glyph unicode="L" horiz-adv-x="1267" d="M170 0v1372h209v-1188h790v-184h-999z" />
<glyph unicode="M" horiz-adv-x="1720" d="M170 0v1372h229l463 -715l465 715h223v-1372h-202v1053h-19l-420 -645h-104l-418 645h-18v-1053h-199z" />
<glyph unicode="N" horiz-adv-x="1540" d="M170 0v1372h186l815 -1067v1067h199v-1372h-205l-794 1040v-1040h-201z" />
<glyph unicode="O" horiz-adv-x="1660" d="M109 686q0 145 53 281q53 133 149 225q90 94 226 151q133 58 292.5 58t294.5 -53q131 -55 228 -152q90 -90 147 -227q51 -137 51 -283q0 -141 -51 -276q-55 -131 -147 -230q-102 -100 -230 -151q-127 -57 -293 -58q-164 0 -292 56q-129 53 -230 153q-92 94 -147 226 q-51 137 -51 280zM317 686q0 -111 35 -211q37 -96 102.5 -167.5t159.5 -112.5q100 -41 215 -41q117 0 215 39q96 43 164 112q68 74 101 170q34 95 34 205v6q0 117 -36 215q-33 90 -101 168q-63 66 -162 111q-100 39 -215 39q-121 0 -215 -41q-94 -39 -161.5 -113 t-100.5 -168q-35 -100 -35 -211z" />
<glyph unicode="P" horiz-adv-x="1382" d="M170 0v1372h584q106 0 209 -33q102 -39 163 -98q68 -59 109 -149q39 -86 39 -195q0 -113 -41 -201t-117 -151q-70 -61 -174 -96q-96 -33 -211 -33h-350v-416h-211zM381 596h346q156 0 248 80q90 78 90 219q0 139 -84 219q-84 78 -240 78h-360v-596z" />
<glyph unicode="Q" horiz-adv-x="1660" d="M109 686q0 145 53 281q53 133 149 225q90 94 226 151q133 57 293 57q1 1 2 1q158 0 292 -53q131 -55 228 -152q90 -90 147 -227q51 -137 51 -283q0 -186 -80 -342q-84 -156 -225 -252l305 -235l-129 -162l-377 307q-98 -31 -215 -31q-164 0 -292 56q-129 53 -230 153 q-92 94 -147 226q-51 137 -51 280zM317 686q0 -111 35 -211q37 -96 102.5 -167.5t159.5 -112.5q100 -41 215 -41q117 0 215 39q96 43 164 112q68 74 101 170q34 95 34 205v6q0 117 -36 215q-33 90 -101 168q-63 66 -162 111q-100 39 -215 39q-121 0 -215 -41 q-94 -39 -161.5 -113t-100.5 -168q-35 -100 -35 -211z" />
<glyph unicode="R" horiz-adv-x="1404" d="M170 0v1372h592q115 0 207 -33q96 -35 161 -94q66 -57 105 -143q37 -82 37 -184q0 -147 -86 -256t-228 -154l359 -508h-254l-307 459h-375v-459h-211zM381 639h358q145 0 236 74q86 74 86 205q0 137 -86 204q-84 70 -227 70h-367v-553z" />
<glyph unicode="S" horiz-adv-x="1337" d="M106 131l99 166q115 -78 225 -111q103 -32 226 -32h8q182 0 266 63q90 63 90 168q0 86 -59 139q-59 55 -197 74l-215 31q-199 29 -295 119q-102 90 -102 260q0 96 36 170q41 76 107 122q68 49 164 76q92 25 209 25q143 0 278 -39q137 -41 236 -121l-107 -151 q-86 63 -188 94q-98 35 -217 35q-166 0 -240 -55.5t-74 -147.5q0 -90 58 -139q59 -47 180 -62l205 -29q209 -31 319 -129q109 -98 109 -266q0 -90 -37 -170q-39 -76 -109 -131q-74 -55 -182 -86q-104 -33 -252 -33q-160 0 -291 37q-129 33 -250 123z" />
<glyph unicode="T" horiz-adv-x="1411" d="M98 1188v184h1215v-184h-504v-1188h-207v1188h-504z" />
<glyph unicode="U" horiz-adv-x="1544" d="M170 614v758h211v-745q0 -227 98 -351q102 -123 291 -123q1 1 2 1q191 0 289 114q102 111 102 355v749h211v-751q0 -150 -39 -269q-39 -121 -112 -205q-82 -88 -189 -131q-119 -45 -262 -45q-150 0 -260 45q-104 43 -188 127q-78 90 -115 203q-39 117 -39 268z" />
<glyph unicode="V" horiz-adv-x="1529" d="M78 1372h233l449 -1161h24l439 1161h229l-559 -1376h-256z" />
<glyph unicode="W" horiz-adv-x="2078" d="M78 1372h225l315 -1134h21l303 1048h193l311 -1048h20l310 1134h225l-416 -1376h-264l-274 934h-21l-262 -934h-266z" />
<glyph unicode="X" horiz-adv-x="1472" d="M78 0l502 717l-457 655h248l362 -538h21l346 538h252l-459 -670l502 -702h-258l-396 586h-20l-385 -586h-258z" />
<glyph unicode="Y" horiz-adv-x="1458" d="M78 1372h244l401 -719h20l396 719h241l-549 -934v-438h-204v438z" />
<glyph unicode="Z" horiz-adv-x="1357" d="M119 0v152l839 1036h-808v184h1073v-155l-828 -1033h844v-184h-1120z" />
<glyph unicode="[" horiz-adv-x="620" d="M150 -244v1594h403v-160h-209v-1272h209v-162h-403z" />
<glyph unicode="\" horiz-adv-x="901" d="M18 1389l166 75l680 -1515l-164 -76z" />
<glyph unicode="]" horiz-adv-x="620" d="M68 -84h211v1272h-211v162h403v-1594h-403v160z" />
<glyph unicode="^" horiz-adv-x="690" d="M45 1092v20l277 262h47l276 -262v-20l-100 -103l-201 172l-199 -172z" />
<glyph unicode="_" horiz-adv-x="890" d="M20 -94h850v-168h-850v168z" />
<glyph unicode="`" horiz-adv-x="530" d="M10 1556l168 99l174 -383h-174z" />
<glyph unicode="a" horiz-adv-x="1273" d="M92 324q0 160 125 247q127 90 342 91q92 0 162 -15q78 -14 143 -37v58q0 111 -65 170q-63 57 -205 57q-184 0 -354 -90l-80 143q113 70 209 92q98 29 221 29q242 0 356 -111q113 -113 113 -309v-383q0 -61 22 -94q23 -27 60 -27q25 0 43 9l18 -152q-41 -20 -104 -20 q-78 0 -131.5 38.5t-67.5 137.5q-133 -182 -405 -183q-190 0 -293 91q-109 84 -109 258zM295 319q0 -86 61 -131q59 -43 174 -43q72 0 129 19q66 23 107 55q43 31 74 84q27 45 26 107v45q-129 45 -299 45q-145 0 -211 -49q-61 -53 -61 -132z" />
<glyph unicode="b" horiz-adv-x="1300" d="M150 57v1403h200v-497q72 53 152 79.5t180 26.5q111 0 207 -33q94 -35 164 -98q72 -72 106 -168q41 -96 41 -235q0 -127 -45 -236q-51 -106 -127 -176q-82 -72 -188 -111q-104 -37 -230 -37q-117 0 -233 19q-121 20 -227 63zM350 190q72 -25 121 -32q68 -10 133 -11 q84 0 154 25q72 25 127 74q53 51 84 123q30 68 30 162v6q0 174 -90 268q-88 92 -237 92q-195 0 -322 -121v-586z" />
<glyph unicode="c" horiz-adv-x="1193" d="M98 520q0 129 45 225q43 104 119 175q76 72 176 110q96 39 217 39q143 0 246 -41q102 -35 184 -117l-110 -131q-61 53 -135 84q-80 31 -181 31q-74 0 -139 -24.5t-117 -71.5q-49 -47 -77 -115q-29 -70 -29 -154q0 -174 96 -276t266 -102q94 0 183 32q88 39 143 101 l121 -125q-88 -98 -201 -140q-109 -45 -254 -45q-131 0 -237 41q-106 45 -172 117q-74 72 -107 174q-37 98 -37 213z" />
<glyph unicode="d" horiz-adv-x="1345" d="M98 520q0 125 43 230q45 104 117 172q78 72 176 110q102 37 217 37q106 0 189 -25q92 -31 157 -77v493h199v-1460h-158l-22 199q-61 -111 -164 -166q-102 -57 -236 -58q-121 0 -215 37q-98 39 -163 107q-70 74 -103 172q-37 98 -37 229zM299 520q0 -90 25 -160 q29 -72 69 -114q45 -49 105 -74q59 -25 127 -25q137 0 231 74q96 74 141 211v356q-145 111 -325 111q-174 0 -275 -100q-98 -98 -98 -279z" />
<glyph unicode="e" horiz-adv-x="1253" d="M98 520q0 115 41 219q39 98 115 174t178 115q106 41 232 41q109 0 200 -35q88 -35 156 -100q66 -66 98 -154q37 -88 37 -198q0 -20 -4 -66q-2 -20 -10 -61h-842q14 -143 113 -226q95 -79 252 -79h4q102 0 196 26q90 29 172 88l90 -141q-100 -78 -217 -115 q-121 -33 -245 -33q-133 0 -238 37q-111 43 -176 111q-72 66 -113 170q-39 98 -39 227zM307 618h647q-4 127 -75 203q-74 76 -224 76q-147 0 -237 -74q-90 -78 -111 -205z" />
<glyph unicode="f" horiz-adv-x="849" d="M88 870v166l170 11v94q0 84 25 157q23 72 73 127q49 51 127 86q78 31 185 31q203 0 340 -106l-95 -142q-55 35 -110 54q-61 18 -125 18q-117 0 -170 -59q-51 -57 -51 -162v-101h336v-174h-336v-870h-199v870h-170z" />
<glyph unicode="g" horiz-adv-x="1323" d="M109 -223q0 80 30 153q29 70 84 127q-98 74 -98 201q0 147 147 244q-29 41 -43 88q-14 45 -14 104q0 72 29 146q27 68 88 118q53 49 143 82q90 29 203 29h199l317 29l16 -150l-182 -41q33 -33 62 -96q20 -61 20 -117q0 -76 -30.5 -143.5t-88.5 -118.5q-59 -53 -143 -80 q-79 -30 -184 -30h-7q-88 0 -155 18q-70 23 -121 55q-39 -20 -57 -51q-16 -37 -17 -74q0 -66 43 -94q45 -29 131 -29h330q98 0 172 -24q66 -20 119 -64q47 -43 67 -96q23 -61 23 -125q0 -92 -43 -168q-41 -74 -121 -137q-90 -61 -188 -90q-104 -35 -246 -35 q-248 0 -366.5 100.5t-118.5 268.5zM301 -197q0 -106 78 -168q80 -57 225 -57q180 0 289 70q106 72 106 186q0 70 -45 109q-49 37 -155 37h-322l-108 8q-37 -37 -52 -82q-16 -53 -16 -103zM408 696q0 -96 63 -151q61 -59 186 -60q113 0 185 56q71 52 71 152q0 136 -104 210 h-154q-121 0 -184 -53q-63 -51 -63 -154z" />
<glyph unicode="h" d="M150 0v1460h200v-602q55 102 148 158q94 53 235 53q197 0 316 -115q115 -115 114 -338v-616h-198v594q0 152 -68 229q-70 74 -197 74q-123 0 -215 -80t-135 -225v-592h-200z" />
<glyph unicode="i" horiz-adv-x="501" d="M113 1386q0 63 41 101q39 37 98 37q55 0 96 -37q43 -37 43 -101q0 -61 -43 -98q-41 -37 -96 -37q-59 0 -98 37q-41 37 -41 98zM150 0v1044h202v-1044h-202z" />
<glyph unicode="j" horiz-adv-x="514" d="M-299 -420l68 158q57 -31 100 -39q51 -10 106 -10q84 0 140 57q51 61 51 180v1118h199v-1118q0 -90 -25 -168q-20 -72 -70 -131q-47 -53 -118 -86q-72 -30 -160 -30h-6q-78 0 -150 16q-68 14 -135 53zM125 1389q0 61 43 98q39 39 96.5 39t95.5 -39q43 -37 43 -98 q0 -63 -43 -101q-41 -37 -96 -37t-96 37q-43 37 -43 101z" />
<glyph unicode="k" horiz-adv-x="1222" d="M150 0v1460h200v-829l195 22l317 391h254l-399 -469l454 -575h-251l-355 467h-215v-467h-200z" />
<glyph unicode="l" horiz-adv-x="497" d="M150 0v1460h198v-1460h-198z" />
<glyph unicode="m" horiz-adv-x="1961" d="M150 0v1044h161l21 -202q106 227 360 227q111 0 205 -47q88 -47 131 -139q59 92 158 137q98 49 215 49q205 0 307 -115q104 -117 104 -325v-629h-202v614q0 137 -60 209q-59 74 -174 74q-184 0 -284 -184l6 -43q2 -14 2 -45v-625h-201v614q0 141 -59 209q-55 74 -181 74 q-102 0 -184 -78q-82 -76 -123 -219v-600h-202z" />
<glyph unicode="n" d="M150 0v1044h157l21 -217q53 115 155 179q96 63 242 63q199 0 319 -115q119 -117 119 -338v-616h-198v594q0 152 -68 229q-70 74 -197 74q-125 0 -217 -82q-92 -86 -135 -229v-586h-198z" />
<glyph unicode="o" horiz-adv-x="1331" d="M98 522q0 113 41 217q43 100 119 174q76 76 178 115q107 41 230 41q129 0 229 -41q98 -35 180 -110q78 -74 117 -175q41 -104 41 -220.5t-43 -217t-117 -174.5q-80 -76 -180 -115q-106 -41 -227 -41q-131 0 -232 41q-98 35 -180 111q-76 76 -115 174q-41 104 -41 221z M297 522q0 -86 27 -153q27 -70 73 -119q45 -45 117 -78q74 -27 152 -27q80 0 153 27q74 33 115 78q49 49 74 119q26 66 26 147v6q0 84 -26 150q-27 70 -74 119q-49 53 -117 79q-69 29 -151 29q-78 0 -154 -27q-74 -33 -115 -77q-51 -53 -73 -121q-27 -68 -27 -152z" />
<glyph unicode="p" horiz-adv-x="1331" d="M150 -403v1447h157l21 -190q70 117 172 166q98 49 233 49q111 0 203 -37q96 -41 158 -106q68 -74 102 -168q35 -104 35 -223q0 -141 -47 -242q-43 -106 -121 -174q-76 -72 -174 -107q-98 -37 -205 -37q-96 0 -180 23q-76 18 -158 76v-477h-196zM346 264 q138 -114 319 -114h3q82 0 147 26q72 31 113 78q47 49 73 123q27 68 27 164q0 72 -20 143q-27 72 -66 113q-39 45 -102 73q-55 27 -135 27q-131 0 -224 -70q-90 -76 -135 -190v-373z" />
<glyph unicode="q" horiz-adv-x="1294" d="M98 518q0 125 47 230q45 100 129 174q88 72 197 110q113 37 244 37q106 0 223 -22q104 -20 205 -64v-1386h-199v516q-66 -68 -143 -101q-84 -37 -213 -37q-100 0 -187 33q-88 31 -155 98q-70 66 -107 168q-41 96 -41 244zM301 520q0 -184 84 -278q86 -90 231 -90 q113 0 191 45q82 43 137 143v512q-51 29 -110 37q-66 10 -121 10q-94 0 -168 -27q-78 -29 -131 -75q-57 -53 -82 -121q-31 -68 -31 -156z" />
<glyph unicode="r" horiz-adv-x="1107" d="M150 0v1044h159l19 -217q51 117 155 181q100 61 244 61q94 0 180 -29q84 -31 142 -82l-111 -153q-43 37 -109 63q-68 20 -139 21q-123 0 -211 -82q-88 -80 -131 -217v-590h-198z" />
<glyph unicode="s" horiz-adv-x="1165" d="M98 102l86 154q92 -59 187 -86q92 -27 198 -27q150 0 222 39q71 40 71 109q0 61 -39 98q-45 35 -141 43l-246 29q-150 16 -225 92q-78 74 -78 203q0 137 115 227q113 86 338 86q123 0 227 -27q117 -31 199 -84l-84 -153q-160 92 -346 92q-121 0 -189 -37 q-63 -41 -63 -104q0 -55 35 -84q33 -31 114 -39l213 -25q166 -20 266 -92q98 -74 99 -215q0 -154 -131 -240q-129 -86 -365 -86q-143 0 -246 29q-104 25 -217 98z" />
<glyph unicode="t" horiz-adv-x="946" d="M76 870v162l162 12l34 287l181 -8l-11 -279h385v-174h-378v-520q0 -102 45 -149q49 -45 137 -45q53 0 106 16q47 14 92 45l74 -149q-70 -49 -141 -70q-80 -23 -162 -23q-168 0 -260 92.5t-92 286.5v516h-172z" />
<glyph unicode="u" horiz-adv-x="1298" d="M150 438v606h198v-579q0 -162 66 -240q62 -75 181 -75h3q125 0 217 79q90 78 135 222v593h199v-1044h-160l-18 211q-53 -115 -152 -174q-102 -61 -237 -62q-205 0 -318 117q-115 119 -114 346z" />
<glyph unicode="v" horiz-adv-x="1292" d="M78 1044h235l328 -847h21l323 847h229l-460 -1050h-215z" />
<glyph unicode="w" horiz-adv-x="1804" d="M78 1044h223l246 -831h18l246 795h188l252 -795h19l248 831h206l-354 -1050h-240l-219 721h-20l-215 -721h-238z" />
<glyph unicode="x" horiz-adv-x="1284" d="M78 0l409 551l-374 493h252l270 -399h20l267 399h239l-370 -501l413 -543h-252l-311 442h-20l-293 -442h-250z" />
<glyph unicode="y" horiz-adv-x="1306" d="M78 1044h233l377 -835h19l301 835h221l-477 -1159q-57 -145 -140 -217q-79 -67 -198 -67h-4q-115 0 -193 53l55 153q39 -18 64 -22q31 -6 59 -6q59 0 101 31q43 31 71 102l27 74z" />
<glyph unicode="z" horiz-adv-x="1167" d="M119 0v152l674 722h-637v170h886v-157l-661 -715h668v-172h-930z" />
<glyph unicode="{" horiz-adv-x="628" d="M61 469v172h54q41 0 61 25q23 27 23 75v25l-21 309v25q0 121 68 184q70 66 186 66h123v-162l-106 -4q-78 -6 -78 -97v-24l18 -299v-25q0 -66 -24 -114q-29 -51 -72 -72q41 -18 72 -70q25 -45 24 -114v-23l-18 -305v-27q0 -47 18 -67q20 -18 60 -21l106 -4v-164h-127 q-117 0 -186 66q-63 68 -64 184v27l21 311v25q0 45 -23 71q-20 27 -61 27h-54z" />
<glyph unicode="|" horiz-adv-x="407" d="M109 -102v1577h190v-1577h-190z" />
<glyph unicode="}" horiz-adv-x="628" d="M76 -78l104 4q80 4 80 94v25l-18 301v23q0 66 24 114q29 51 70 72q-39 20 -70 70q-25 45 -24 114v25l18 305v25q0 47 -20 65q-23 23 -60 25l-104 4v162h127q119 0 182 -64q66 -66 66 -184v-27l-21 -313v-23q0 -47 23 -73q23 -25 61 -25h53v-172h-53q-39 0 -61 -25 q-23 -27 -23 -77v-23l21 -309v-27q0 -119 -68 -184q-70 -66 -186 -66h-121v164z" />
<glyph unicode="~" horiz-adv-x="983" d="M98 698q41 76 105 117q66 41 149 41q47 0 86 -16q31 -14 66 -35l61 -35q29 -16 68 -16q55 0 84 20q33 16 61 55l107 -104q-33 -72 -99 -113q-59 -39 -143 -39q-51 0 -90 17q-35 14 -72 37l-63 35q-29 16 -68 16q-55 0 -94 -21q-39 -23 -61 -55z" />
<glyph unicode="&#xa1;" horiz-adv-x="489" d="M109 923.5q0 59.5 41 96.5q39 37 96 37q53 0 94 -37t41 -96.5t-41 -96t-94 -36.5q-57 0 -96 36q-41 37 -41 96.5zM145 -446v1089h199v-1089h-199z" />
<glyph unicode="&#xa3;" horiz-adv-x="1413" d="M109 129l98 57q78 45 119 115q39 66 39 154q0 51 -17 106l-196 -45l-37 166l164 39q-10 23 -50 119q-20 72 -20 155q0 74 24 138q29 66 76 116.5t123 81.5q76 29 170 29q131 0 219 -45t146 -127l-142 -121q-76 117 -221 117q-90 0 -145 -56q-51 -57 -51 -145 q0 -55 16 -115q12 -43 45 -102l303 74l39 -176l-268 -60q23 -72 22 -137q0 -63 -20 -119q-20 -61 -62 -112q61 0 113 -13q14 -4 51 -13t58 -13q35 -12 108 -29q55 -12 117 -12q96 0 149 47q51 45 51 129q0 45 -8 76q-6 33 -22 69l164 51q31 -51 45 -102q16 -59 16 -109 q0 -152 -100 -243q-98 -96 -287 -97q-70 0 -131 13q-18 4 -56 13t-57 13q-33 10 -112 29q-57 14 -127 14t-138 -18q-70 -16 -139 -55z" />
<glyph unicode="&#xa4;" horiz-adv-x="972" d="M80 434l96 105q-47 78 -47 168q0 100 51 176l-100 108l127 129l115 -106q70 39 167 39q94 0 164 -39l111 104l129 -127l-94 -104q25 -37 37 -84t12 -96q0 -47 -12 -89q-16 -45 -37 -83l92 -101l-127 -123l-107 95q-39 -18 -79 -29q-47 -10 -89 -10q-45 0 -92 10 q-45 12 -80 31l-110 -101zM305 711q0 -80 51.5 -131.5t133 -51.5t133.5 52q49 51 49 131q0 88 -49 133q-54 47 -133.5 47t-133.5 -47q-51 -45 -51 -133z" />
<glyph unicode="&#xa5;" horiz-adv-x="1427" d="M78 1335h233l404 -649h20l387 649h226l-414 -657l209 -6v-158h-856v158l219 6zM340 242v151h752v-151l-277 -11v-231h-199v231z" />
<glyph unicode="&#xa6;" horiz-adv-x="407" d="M109 -102v727h190v-727h-190zM109 745v730h190v-730h-190z" />
<glyph unicode="&#xa7;" horiz-adv-x="1155" d="M109 696q0 92 45 158q47 70 131 109q-41 35 -68 81q-27 51 -27 111q0 70 31 121q29 55 82 90q47 35 123 57q63 20 152 21q111 0 213 -27q96 -33 176 -88l-88 -145q-137 92 -297 92q-100 0 -148 -35q-47 -31 -47 -92q0 -55 39 -88q41 -33 104 -49l215 -51 q141 -35 222 -111q80 -76 80 -213q0 -82 -48 -158q-53 -74 -131 -110q49 -33 70 -78q23 -51 23 -109q0 -133 -109 -217q-109 -82 -303 -82q-121 0 -219 27q-100 25 -193 80l78 155q80 -45 168 -71q92 -20 170 -21q111 0 162 37t51 96q0 104 -127 129l-238 54 q-145 31 -219 114q-74 82 -73 213zM299 702q0 -135 150 -167l284 -64q59 16 90 59q33 41 33 103q0 129 -154 162l-284 65q-55 -14 -88 -57q-31 -43 -31 -101z" />
<glyph unicode="&#xa8;" horiz-adv-x="886" d="M82 1378.5q0 55.5 37 91.5q41 35 92 35q53 0 92 -35q39 -37 39 -92t-39 -92q-39 -35 -92 -35q-51 0 -92 35q-37 37 -37 92.5zM545 1378.5q0 55.5 37 91.5q41 35 92 35t92 -35q37 -37 37 -92t-37 -92q-41 -35 -92 -35t-92 35q-37 37 -37 92.5z" />
<glyph unicode="&#xa9;" horiz-adv-x="1816" d="M119 694q0 166 65 310q61 135 174 245q109 100 252 158q141 57 297 57q162 0 305 -55q147 -53 250 -156q104 -92 172 -241q61 -145 61.5 -317.5t-63.5 -311.5q-61 -135 -170 -244q-115 -102 -252 -157q-141 -57 -303 -57.5t-309 55.5q-145 53 -250 155q-104 96 -168 242 q-61 141 -61 317zM303 694q0 -135 45 -252q51 -117 129 -188q86 -80 191 -119q113 -41 239 -41q123 0 236 41q106 43 192 123q82 80 131 188q47 113 47 248q0 147 -47 256q-41 106 -127 189q-90 80 -192 114q-105 41 -240 41q-117 0 -227 -41q-115 -45 -193 -123 q-80 -72 -135 -188q-49 -111 -49 -248zM496 696q0 88 32 160q35 78 90 131q63 55 136 84q74 31 166 31q98 0 172 -27q82 -29 143 -88l-100 -121q-47 41 -95 62q-49 18 -114 18q-57 0 -100.5 -20.5t-75.5 -53.5q-35 -39 -50 -79q-18 -47 -18 -97q0 -123 69.5 -186.5 t172.5 -63.5q61 0 127 21q66 27 104 61l88 -118q-72 -66 -149 -93q-82 -29 -183 -28q-80 0 -163 26q-80 33 -134 82q-55 49 -86 127q-33 74 -32 172z" />
<glyph unicode="&#xab;" horiz-adv-x="978" d="M88 508v51l301 338l125 -102l-215 -256l215 -265l-125 -102zM461 508v53l305 342l125 -98l-211 -268l209 -275l-125 -98z" />
<glyph unicode="&#xac;" horiz-adv-x="927" d="M119 721v176h710v-444h-170l-20 268h-520z" />
<glyph unicode="&#xad;" horiz-adv-x="876" d="M129 492v172h616v-172h-616z" />
<glyph unicode="&#xae;" horiz-adv-x="1243" d="M88 1020q0 113 39 205q41 96 111 164q63 66 168 108q92 39 215 39q121 0 217 -39q98 -41 170 -108q72 -76 106 -164q39 -92 39 -205q0 -115 -39 -205q-41 -100 -110 -164q-63 -66 -168 -108q-96 -39 -215 -39q-123 0 -215 39q-104 43 -168 108q-70 63 -111 164 q-39 90 -39 205zM244 1020q0 -80 26 -148q25 -66 74 -119t119 -79q74 -29 158 -29q88 0 157 29q70 27 121 80q47 51 76 118q25 70 24.5 148t-24.5 147q-29 68 -76 119q-51 51 -121 78q-67 31 -157 31q-84 0 -158 -29q-70 -27 -119 -80q-49 -49 -74 -119q-27 -66 -26 -147z M432 791v469h225q88 0 146 -52q51 -57 51 -125q0 -51 -29 -92q-27 -39 -71 -55l88 -145h-133l-66 114h-96v-114h-115zM547 1010h98q45 0 64 20q23 20 22 53q0 72 -86 72h-98v-145z" />
<glyph unicode="&#xaf;" horiz-adv-x="864" d="M96 1298v168h670v-168h-670z" />
<glyph unicode="&#xb0;" horiz-adv-x="845" d="M88 1077q0 74 27 129q27 61 69 103q47 43 107 67q61 25 133 25t133 -25q59 -25 107 -67q41 -41 69 -103q25 -59 25 -128.5t-25 -129.5q-29 -61 -69 -104q-47 -43 -107 -68q-61 -25 -133 -24.5t-133 24.5q-59 25 -107 68q-43 41 -69 102q-27 55 -27 131zM256 1077 q0 -78 47 -123q43 -47 121 -47q74 0 121 47q45 45 45 123q0 72 -45 121q-51 47 -121 47q-76 0 -123 -47q-45 -45 -45 -121z" />
<glyph unicode="&#xb1;" horiz-adv-x="1071" d="M129 827v170h313v324h187v-324h313v-170h-313v-295h-187v295h-313zM160 236v172h751v-172h-751z" />
<glyph unicode="&#xb4;" horiz-adv-x="530" d="M102 1272l174 383l168 -99l-168 -284h-174z" />
<glyph unicode="&#xb6;" horiz-adv-x="1118" d="M78 729q0 72 26 131q31 61 74 98q51 43 113 64q63 23 139 22h334q59 0 123 7q70 6 117 20l24 -137l-127 -41v-633q0 -150 -53 -268q-49 -117 -174 -211l-330 -244l-86 111l197 159v670q-23 -14 -56 -20q-31 -6 -61 -6q-51 0 -100 16q-47 18 -82 53q-39 43 -58 90 q-20 55 -20 119zM254 739q0 -68 35 -102q33 -33 82 -33t84 23v266h-45q-70 0 -111 -41q-45 -37 -45 -113zM616 -68l35 27q43 37 64 98q23 72 22 148v688h-121v-961z" />
<glyph unicode="&#xb7;" horiz-adv-x="499" d="M109 594q0 61 43 102q41 37 98 37t98 -37q43 -39 43 -102q0 -61 -43 -98q-39 -39 -98.5 -39t-97.5 39q-43 37 -43 98z" />
<glyph unicode="&#xb8;" horiz-adv-x="526" d="M80 -502q102 33 149 80q43 43 43 96q0 55 -36 82q-35 25 -117 29v39l43 88v125h164l-15 -152q59 -16 97 -65q37 -53 36 -125q0 -113 -75 -195q-78 -84 -244 -129z" />
<glyph unicode="&#xbb;" horiz-adv-x="976" d="M90 264l211 266l-211 275l125 98l303 -342v-53l-305 -344zM465 274l215 256l-215 265l125 102l301 -336v-53l-301 -338z" />
<glyph unicode="&#xbc;" horiz-adv-x="1507" d="M27 1098l223 174l108 -8v-711h-163v477l-97 -47zM213 -12l799 1302l125 -71l-799 -1303zM774 115v131l410 467h180v-447h86v-141l-86 -10v-115h-158v115h-432zM977 266h229v264z" />
<glyph unicode="&#xbd;" horiz-adv-x="1581" d="M27 1098l223 174l108 -8v-711h-163v477l-97 -47zM211 -12l799 1302l123 -71l-799 -1303zM915 606q131 119 306 119q129 0 213 -66q80 -66 79 -172q0 -86 -40 -143q-37 -57 -119 -106l-144 -86h301v-152h-581v127l307 195q53 35 84 71.5t31 83.5t-33 76q-39 29 -107 29 q-63 0 -114 -23q-47 -20 -99 -63z" />
<glyph unicode="&#xbe;" horiz-adv-x="1671" d="M43 643l76 117q49 -35 117 -55q68 -14 122 -15q66 0 101 23q37 25 37 65q0 68 -90 68h-183v143h166q78 0 78 64q0 76 -115 75q-119 0 -194 -63l-92 104q66 55 135 82q66 27 164 27q121 0 194 -57q72 -61 72 -152q0 -41 -17 -74q-12 -33 -51 -59q49 -18 74 -64 q25 -43 25 -96q0 -47 -18.5 -90t-57.5 -76q-35 -29 -94.5 -49t-137.5 -20q-92 0 -166 22q-76 23 -145 80zM385 -12l799 1302l123 -71l-799 -1303zM938 115v131l410 467h180v-447h86v-141l-86 -10v-115h-158v115h-432zM1141 266h229v264z" />
<glyph unicode="&#xbf;" horiz-adv-x="1073" d="M100 -14q0 162 97 276q94 113 274 156q76 18 109 57q31 41 30 90q0 33 -10 70l176 20q23 -55 23 -120q0 -102 -64 -173q-63 -74 -188 -106q-135 -37 -190.5 -104.5t-55.5 -165.5q0 -123 88 -193q84 -70 234 -69q119 0 217 36q100 37 184 107l102 -146q-113 -94 -233 -133 q-129 -41 -270 -41q-113 0 -211 29q-96 29 -164 86q-68 53 -109 137q-39 80 -39 187zM541 923.5q0 59.5 41 96.5t96 37t96 -37q39 -37 39 -96.5t-39 -96.5q-41 -36 -96 -36t-96 36.5t-41 96z" />
<glyph unicode="&#xc0;" horiz-adv-x="1560" d="M86 0l571 1374h244l576 -1374h-230l-123 311h-694l-121 -311h-223zM481 1907l178 88l181 -414h-185zM500 492h555l-264 671h-25z" />
<glyph unicode="&#xc1;" horiz-adv-x="1560" d="M86 0l571 1374h244l576 -1374h-230l-123 311h-694l-121 -311h-223zM500 492h555l-264 671h-25zM723 1581l180 414l176 -88l-172 -326h-184z" />
<glyph unicode="&#xc2;" horiz-adv-x="1560" d="M86 0l571 1374h244l576 -1374h-230l-123 311h-694l-121 -311h-223zM475 1630v21l281 264h47l278 -264v-21l-98 -102l-205 178l-203 -178zM500 492h555l-264 671h-25z" />
<glyph unicode="&#xc3;" horiz-adv-x="1560" d="M86 0l571 1374h244l576 -1374h-230l-123 311h-694l-121 -311h-223zM385 1673q39 76 107 121q63 45 151 45q47 0 86 -16q31 -12 68 -35q41 -25 61 -35q33 -16 70 -16q53 0 86 20q35 18 55 55l107 -96q-33 -74 -99 -114q-59 -39 -139 -39q-51 0 -94 16q-33 12 -70 35 q-39 25 -65 37q-33 16 -72 16q-53 0 -92 -22q-33 -20 -62 -60zM500 492h555l-264 671h-25z" />
<glyph unicode="&#xc4;" horiz-adv-x="1560" d="M86 0l571 1374h244l576 -1374h-230l-123 311h-694l-121 -311h-223zM379 1706q0 61 41 102q39 39 96 39q59 0 98 -39q43 -39 43 -102q0 -55 -43 -96q-41 -37 -98 -37t-96 37q-41 41 -41 96zM500 492h555l-264 671h-25zM901 1706q0 61 41 102q39 39 96 39q59 0 101 -39 q41 -41 41 -102q0 -55 -41 -96q-43 -37 -101 -37q-55 0 -96 37q-41 41 -41 96z" />
<glyph unicode="&#xc5;" horiz-adv-x="1560" d="M86 0l571 1374h244l576 -1374h-230l-123 311h-694l-121 -311h-223zM500 492h555l-264 671h-25zM520 1772q0 49 19 92q16 43 51 80q39 35 82 55q47 20 106.5 20t106.5 -20q43 -20 82 -55q35 -37 51 -80q18 -43 18 -92q0 -47 -18 -95q-14 -35 -51 -80q-41 -35 -82 -53 q-47 -20 -107 -20q-63 0 -106 20q-51 23 -82 53q-35 35 -53 80q-16 49 -17 95zM670 1772q0 -47 30 -78q29 -31 78 -31t80 30.5t31 78t-31 78t-80 30.5q-53 0 -80 -31q-29 -33 -28 -77z" />
<glyph unicode="&#xc6;" horiz-adv-x="2195" d="M47 0l871 1372h1122v-182h-762v-387h668v-180h-668v-439h799v-184h-1004v311h-586l-188 -311h-252zM596 492h477v698h-51z" />
<glyph unicode="&#xc7;" horiz-adv-x="1488" d="M109 682q0 145 51 283q57 135 151 227q94 96 236 154q137 55 315 55q145 0 281 -49q131 -47 229 -133l-108 -148q-170 143 -420 143q-119 0 -217 -36q-98 -39 -164 -107q-70 -70 -107 -166q-39 -96 -39 -219q0 -125 39 -221q41 -102 109 -166q72 -70 166 -104 q92 -37 207 -37q129 0 243 43q115 47 203 127l117 -144q-106 -104 -238 -155q-131 -49 -295 -56l-8 -88q66 -20 107 -78q39 -51 39 -129q0 -123 -84 -206q-78 -84 -248 -125l-53 129q106 27 161 80q51 55 52 110q0 59 -48 82q-45 25 -122 29v47l41 80v76q-135 18 -246 73 q-111 57 -187 146q-78 90 -120 211q-43 123 -43 272z" />
<glyph unicode="&#xc8;" d="M170 0v1372h987v-182h-782v-387h688v-180h-688v-439h819v-184h-1024zM430 1907l178 88l180 -414h-184z" />
<glyph unicode="&#xc9;" d="M170 0v1372h987v-182h-782v-387h688v-180h-688v-439h819v-184h-1024zM590 1581l180 414l176 -88l-172 -326h-184z" />
<glyph unicode="&#xca;" d="M170 0v1372h987v-182h-782v-387h688v-180h-688v-439h819v-184h-1024zM381 1630v21l281 264h47l278 -264v-21l-98 -102l-205 178l-203 -178z" />
<glyph unicode="&#xcb;" d="M170 0v1372h987v-182h-782v-387h688v-180h-688v-439h819v-184h-1024zM281 1706q0 61 41 102q39 39 96 39q59 0 98 -39q43 -39 43 -102q0 -55 -43 -96q-41 -37 -98 -37t-96 37q-41 41 -41 96zM803 1706q0 61 41 102q39 39 96 39q59 0 100 -39q41 -41 41 -102 q0 -55 -41 -96q-43 -37 -100 -37q-55 0 -96 37q-41 41 -41 96z" />
<glyph unicode="&#xcc;" horiz-adv-x="550" d="M12 1907l178 88l181 -414h-185zM170 0v1372h211v-1372h-211z" />
<glyph unicode="&#xcd;" horiz-adv-x="550" d="M170 0v1372h211v-1372h-211zM199 1581l180 414l176 -88l-172 -326h-184z" />
<glyph unicode="&#xce;" horiz-adv-x="550" d="M-25 1630v21l281 264h47l279 -264v-21l-99 -102l-204 178l-203 -178zM170 0v1372h211v-1372h-211z" />
<glyph unicode="&#xcf;" horiz-adv-x="550" d="M-68 1710q0 59 41 100q40 37 95 37q57 0 96 -37q41 -41 41 -100q0 -57 -41 -92q-41 -37 -96.5 -37t-94.5 37q-41 35 -41 92zM170 0v1372h211v-1372h-211zM352 1710q0 59 41 100q41 37 94 37q57 0 97 -37q41 -41 41 -100q0 -57 -41 -92q-39 -37 -97 -37q-55 0 -94 37 q-41 35 -41 92z" />
<glyph unicode="&#xd0;" horiz-adv-x="1519" d="M45 598v178h154v596h483q168 0 303 -49q135 -53 229 -143q90 -84 146 -217q49 -123 49 -277q0 -152 -53 -276q-49 -121 -148 -217q-94 -88 -231 -142q-133 -51 -301 -51h-477v588zM406 182h270q111 0 209 35q92 33 168 100q63 59 110 158q39 100 39 211q0 246 -141 375 q-139 129 -387 129h-268v-414h389v-186h-389v-408z" />
<glyph unicode="&#xd1;" horiz-adv-x="1540" d="M170 0v1372h186l815 -1067v1067h199v-1372h-205l-794 1040v-1040h-201zM375 1673q39 76 106 121q63 45 152 45q47 0 86 -16q31 -12 67 -35q41 -25 62 -35q33 -16 70 -16q53 0 86 20q33 18 55 55l106 -96q-33 -74 -96 -114q-63 -39 -141 -39q-51 0 -94 16q-27 10 -72 35 q-31 20 -62 37q-37 16 -73 16q-55 0 -90 -22q-33 -20 -64 -60z" />
<glyph unicode="&#xd2;" horiz-adv-x="1660" d="M109 686q0 145 53 281q53 133 149 225q90 94 226 151q133 58 292.5 58t294.5 -53q131 -55 228 -152q90 -90 147 -227q51 -137 51 -283q0 -141 -51 -276q-55 -131 -147 -230q-102 -100 -230 -151q-127 -57 -293 -58q-164 0 -292 56q-129 53 -230 153q-92 94 -147 226 q-51 137 -51 280zM317 686q0 -111 35 -211q37 -96 102.5 -167.5t159.5 -112.5q100 -41 215 -41q117 0 215 39q96 43 164 112q68 74 101 170q35 98 34 211q0 117 -36 215q-33 90 -101 168q-63 66 -162 111q-100 39 -215 39q-121 0 -215 -41q-94 -39 -161.5 -113t-100.5 -168 q-35 -100 -35 -211zM555 1907l178 88l180 -414h-184z" />
<glyph unicode="&#xd3;" horiz-adv-x="1660" d="M109 686q0 145 53 281q53 133 149 225q90 94 226 151q133 58 292.5 58t294.5 -53q131 -55 228 -152q90 -90 147 -227q51 -137 51 -283q0 -141 -51 -276q-55 -131 -147 -230q-102 -100 -230 -151q-127 -57 -293 -58q-164 0 -292 56q-129 53 -230 153q-92 94 -147 226 q-51 137 -51 280zM317 686q0 -111 35 -211q37 -96 102.5 -167.5t159.5 -112.5q100 -41 215 -41q117 0 215 39q96 43 164 112q68 74 101 170q35 98 34 211q0 117 -36 215q-33 90 -101 168q-63 66 -162 111q-100 39 -215 39q-121 0 -215 -41q-94 -39 -161.5 -113t-100.5 -168 q-35 -100 -35 -211zM764 1581l180 414l176 -88l-172 -326h-184z" />
<glyph unicode="&#xd4;" horiz-adv-x="1660" d="M109 686q0 145 53 281q53 133 149 225q90 94 226 151q133 58 292.5 58t294.5 -53q131 -55 228 -152q90 -90 147 -227q51 -137 51 -283q0 -141 -51 -276q-55 -131 -147 -230q-102 -100 -230 -151q-127 -57 -293 -58q-164 0 -292 56q-129 53 -230 153q-92 94 -147 226 q-51 137 -51 280zM317 686q0 -111 35 -211q37 -96 102.5 -167.5t159.5 -112.5q100 -41 215 -41q117 0 215 39q96 43 164 112q68 74 101 170q35 98 34 211q0 117 -36 215q-33 90 -101 168q-63 66 -162 111q-100 39 -215 39q-121 0 -215 -41q-94 -39 -161.5 -113t-100.5 -168 q-35 -100 -35 -211zM526 1630v21l281 264h47l279 -264v-21l-99 -102l-205 178l-202 -178z" />
<glyph unicode="&#xd5;" horiz-adv-x="1660" d="M109 686q0 145 53 281q53 133 149 225q90 94 226 151q133 58 292.5 58t294.5 -53q131 -55 228 -152q90 -90 147 -227q51 -137 51 -283q0 -141 -51 -276q-55 -131 -147 -230q-102 -100 -230 -151q-127 -57 -293 -58q-164 0 -292 56q-129 53 -230 153q-92 94 -147 226 q-51 137 -51 280zM317 686q0 -111 35 -211q37 -96 102.5 -167.5t159.5 -112.5q100 -41 215 -41q117 0 215 39q96 43 164 112q68 74 101 170q35 98 34 211q0 117 -36 215q-33 90 -101 168q-63 66 -162 111q-100 39 -215 39q-121 0 -215 -41q-94 -39 -161.5 -113t-100.5 -168 q-35 -100 -35 -211zM436 1673q39 76 107 121q63 45 151 45q47 0 86 -16q31 -12 68 -35q41 -25 61 -35q33 -16 70 -16q53 0 86 20q33 18 55 55l107 -96q-33 -74 -97 -114q-63 -39 -141 -39q-51 0 -94 16q-27 10 -72 35q-31 20 -61 37q-37 16 -74 16q-55 0 -90 -22 q-33 -20 -63 -60z" />
<glyph unicode="&#xd6;" horiz-adv-x="1660" d="M109 686q0 145 53 281q53 133 149 225q90 94 226 151q133 58 292.5 58t294.5 -53q131 -55 228 -152q90 -90 147 -227q51 -137 51 -283q0 -141 -51 -276q-55 -131 -147 -230q-102 -100 -230 -151q-127 -57 -293 -58q-164 0 -292 56q-129 53 -230 153q-92 94 -147 226 q-51 137 -51 280zM317 686q0 -111 35 -211q37 -96 102.5 -167.5t159.5 -112.5q100 -41 215 -41q117 0 215 39q96 43 164 112q68 74 101 170q35 98 34 211q0 117 -36 215q-33 90 -101 168q-63 66 -162 111q-100 39 -215 39q-121 0 -215 -41q-94 -39 -161.5 -113t-100.5 -168 q-35 -100 -35 -211zM430 1706q0 61 41 102q39 39 96 39q59 0 101 -39q41 -41 41 -102q0 -55 -41 -96q-43 -37 -101 -37q-55 0 -96 37q-41 41 -41 96zM952 1706q0 61 41 102q40 39 97 39q59 0 98 -39q43 -39 43 -102q0 -55 -43 -96q-41 -37 -98 -37t-97 37q-41 41 -41 96z " />
<glyph unicode="&#xd7;" horiz-adv-x="1046" d="M170 457l231 231l-231 232l121 122l233 -235l232 233l118 -120l-229 -232l229 -231l-120 -121l-230 231l-233 -231z" />
<glyph unicode="&#xd8;" horiz-adv-x="1660" d="M109 686q0 145 53 281q53 133 149 225q90 94 226 151q133 57 292 58q102 0 187 -21q92 -23 164 -59l116 164l158 -113l-117 -164q102 -98 158 -229q55 -135 55 -293q0 -141 -51 -276q-55 -131 -147 -230q-102 -100 -230 -151q-127 -57 -293 -58q-90 0 -174 19 q-80 18 -153 53l-127 -174l-156 113l121 168q-111 98 -172 235q-59 141 -59 301zM317 686q0 -231 136 -377l616 858q-104 51 -240 52q-121 0 -215 -41q-94 -39 -161.5 -113t-100.5 -168q-35 -100 -35 -211zM612 199q49 -23 101 -35q61 -10 116 -10q117 0 215 39 q96 43 164 112q68 74 101 170q35 98 34 211q0 219 -122 361z" />
<glyph unicode="&#xd9;" horiz-adv-x="1544" d="M170 614v758h211v-745q0 -227 98 -351q102 -123 293 -122.5t289 114.5q102 111 102 355v749h211v-751q0 -150 -39 -269q-39 -121 -112 -205q-82 -88 -189 -131q-119 -45 -262 -45q-150 0 -260 45q-104 43 -188 127q-78 90 -115 203q-39 117 -39 268zM516 1907l178 88 l180 -414h-184z" />
<glyph unicode="&#xda;" horiz-adv-x="1544" d="M170 614v758h211v-745q0 -227 98 -351q102 -123 293 -122.5t289 114.5q102 111 102 355v749h211v-751q0 -150 -39 -269q-39 -121 -112 -205q-82 -88 -189 -131q-119 -45 -262 -45q-150 0 -260 45q-104 43 -188 127q-78 90 -115 203q-39 117 -39 268zM674 1581l180 414 l176 -88l-172 -326h-184z" />
<glyph unicode="&#xdb;" horiz-adv-x="1544" d="M170 614v758h211v-745q0 -227 98 -351q102 -123 293 -122.5t289 114.5q102 111 102 355v749h211v-751q0 -150 -39 -269q-39 -121 -112 -205q-82 -88 -189 -131q-119 -45 -262 -45q-150 0 -260 45q-104 43 -188 127q-78 90 -115 203q-39 117 -39 268zM469 1630v21l281 264 h47l278 -264v-21l-98 -102l-205 178l-203 -178z" />
<glyph unicode="&#xdc;" horiz-adv-x="1544" d="M170 614v758h211v-745q0 -227 98 -351q102 -123 293 -122.5t289 114.5q102 111 102 355v749h211v-751q0 -150 -39 -269q-39 -121 -112 -205q-82 -88 -189 -131q-119 -45 -262 -45q-150 0 -260 45q-104 43 -188 127q-78 90 -115 203q-39 117 -39 268zM373 1706 q0 61 41 102q39 39 96 39q59 0 100 -39q41 -41 41 -102q0 -55 -41 -96q-43 -37 -100 -37q-55 0 -96 37q-41 41 -41 96zM895 1706q0 61 41 102q39 39 96 39q59 0 98 -39q43 -39 44 -102q0 -55 -44 -96q-41 -37 -98 -37t-96 37q-41 41 -41 96z" />
<glyph unicode="&#xdd;" horiz-adv-x="1458" d="M78 1372h244l401 -719h20l396 719h241l-549 -934v-438h-204v438zM641 1581l180 414l176 -88l-172 -326h-184z" />
<glyph unicode="&#xde;" horiz-adv-x="1318" d="M170 0v1401h211v-207h330q119 0 211 -35q90 -31 163 -94q70 -63 107 -152q39 -84 39 -192q0 -115 -43 -201q-39 -88 -115 -151q-70 -61 -172 -97q-98 -33 -213 -32h-307v-240h-211zM381 420h305q156 0 248 80q88 78 88 219t-82 215q-80 78 -242 78h-317v-592z" />
<glyph unicode="&#xdf;" horiz-adv-x="1394" d="M150 0v1139q0 94 30 168q27 80 82 131q51 53 125 82q74 31 160 30q96 0 164 -26q74 -27 121 -70t71 -102q25 -61 25 -129q0 -88 -35 -152q-37 -61 -94 -100q-102 -66 -103 -156q0 -51 33 -80q41 -31 117 -45l106 -22q172 -33 265 -119q88 -82 88 -225q0 -74 -31 -140 q-25 -59 -86 -110q-57 -45 -139 -72t-197 -27q-100 0 -193 25q-90 23 -182 84l82 154q78 -51 146 -70q80 -23 157 -23q117 0 182 48q66 43 66 124q0 74 -45 115q-53 43 -139 57l-107 19q-156 25 -233 102q-78 74 -78 199q0 76 37 135q33 59 86 98q45 37 74 80q27 41 26 97 q0 63 -43 110t-137 47q-100 0 -152 -61q-53 -66 -53 -176v-1139h-196z" />
<glyph unicode="&#xe0;" horiz-adv-x="1275" d="M94 324q0 160 125 247q127 90 342 91q90 0 164 -15q82 -16 141 -37v58q0 111 -65 170q-63 57 -205 57q-184 0 -354 -90l-80 143q113 70 209 92q98 29 221 29q244 0 356 -111q113 -113 113 -309v-383q0 -61 22 -94q23 -27 60 -27q25 0 43 9l18 -152q-41 -20 -104 -20 q-82 0 -129 38q-55 37 -70 138q-133 -182 -405 -183q-186 0 -295 91q-106 88 -107 258zM297 319q0 -84 59 -131q61 -43 176 -43q70 0 132 19q55 20 106 55q43 35 72 84q27 45 26 107v45q-129 45 -299 45q-147 0 -209 -49q-63 -51 -63 -132zM356 1556l168 99l174 -383h-174z " />
<glyph unicode="&#xe1;" horiz-adv-x="1275" d="M94 324q0 160 125 247q127 90 342 91q90 0 164 -15q82 -16 141 -37v58q0 111 -65 170q-63 57 -205 57q-184 0 -354 -90l-80 143q113 70 209 92q98 29 221 29q244 0 356 -111q113 -113 113 -309v-383q0 -61 22 -94q23 -27 60 -27q25 0 43 9l18 -152q-41 -20 -104 -20 q-82 0 -129 38q-55 37 -70 138q-133 -182 -405 -183q-186 0 -295 91q-106 88 -107 258zM297 319q0 -84 59 -131q61 -43 176 -43q70 0 132 19q55 20 106 55q43 35 72 84q27 45 26 107v45q-129 45 -299 45q-147 0 -209 -49q-63 -51 -63 -132zM537 1272l174 383l168 -99 l-168 -284h-174z" />
<glyph unicode="&#xe2;" horiz-adv-x="1275" d="M94 324q0 160 125 247q127 90 342 91q90 0 164 -15q82 -16 141 -37v58q0 111 -65 170q-63 57 -205 57q-184 0 -354 -90l-80 143q113 70 209 92q98 29 221 29q244 0 356 -111q113 -113 113 -309v-383q0 -61 22 -94q23 -27 60 -27q25 0 43 9l18 -152q-41 -20 -104 -20 q-82 0 -129 38q-55 37 -70 138q-133 -182 -405 -183q-186 0 -295 91q-106 88 -107 258zM297 319q0 -84 59 -131q61 -43 176 -43q70 0 132 19q55 20 106 55q43 35 72 84q27 45 26 107v45q-129 45 -299 45q-147 0 -209 -49q-63 -51 -63 -132zM315 1315v20l273 260h43l272 -260 v-20l-94 -101l-205 172l-192 -172z" />
<glyph unicode="&#xe3;" horiz-adv-x="1275" d="M94 324q0 160 125 247q127 90 342 91q90 0 164 -15q82 -16 141 -37v58q0 111 -65 170q-63 57 -205 57q-184 0 -354 -90l-80 143q113 70 209 92q98 29 221 29q244 0 356 -111q113 -113 113 -309v-383q0 -61 22 -94q23 -27 60 -27q25 0 43 9l18 -152q-41 -20 -104 -20 q-82 0 -129 38q-55 37 -70 138q-133 -182 -405 -183q-186 0 -295 91q-106 88 -107 258zM229 1356q47 76 107 110q59 41 145 41q51 0 84 -16q31 -12 62 -33q33 -23 57 -33q27 -16 72 -16q49 0 84 21q37 20 59 51l96 -99q-33 -63 -90 -104q-57 -39 -141 -39q-45 0 -88 16 q-25 10 -70 35q-41 25 -61 35q-37 16 -72 16q-55 0 -88 -18q-41 -23 -66 -57zM297 319q0 -84 59 -131q61 -43 176 -43q70 0 132 19q55 20 106 55q43 35 72 84q27 45 26 107v45q-129 45 -299 45q-147 0 -209 -49q-63 -51 -63 -132z" />
<glyph unicode="&#xe4;" horiz-adv-x="1275" d="M94 324q0 160 125 247q127 90 342 91q90 0 164 -15q82 -16 141 -37v58q0 111 -65 170q-63 57 -205 57q-184 0 -354 -90l-80 143q113 70 209 92q98 29 221 29q244 0 356 -111q113 -113 113 -309v-383q0 -61 22 -94q23 -27 60 -27q25 0 43 9l18 -152q-41 -20 -104 -20 q-82 0 -129 38q-55 37 -70 138q-133 -182 -405 -183q-186 0 -295 91q-106 88 -107 258zM250 1378.5q0 55.5 37 91.5q41 35 92 35q53 0 92 -35q39 -37 39 -92t-39 -92q-39 -35 -92 -35q-51 0 -92 35q-37 37 -37 92.5zM297 319q0 -84 59 -131q61 -43 176 -43q70 0 132 19 q55 20 106 55q43 35 72 84q27 45 26 107v45q-129 45 -299 45q-147 0 -209 -49q-63 -51 -63 -132zM713 1378.5q0 55.5 37 91.5q41 35 92 35t92 -35q37 -37 37 -92t-37 -92q-41 -35 -92 -35t-92 35q-37 37 -37 92.5z" />
<glyph unicode="&#xe5;" horiz-adv-x="1275" d="M94 324q0 160 125 247q127 90 342 91q90 0 164 -15q82 -16 141 -37v58q0 111 -65 170q-63 57 -205 57q-184 0 -354 -90l-80 143q113 70 209 92q98 29 221 29q244 0 356 -111q113 -113 113 -309v-383q0 -61 22 -94q23 -27 60 -27q25 0 43 9l18 -152q-41 -20 -104 -20 q-82 0 -129 38q-55 37 -70 138q-133 -182 -405 -183q-186 0 -295 91q-106 88 -107 258zM297 319q0 -84 59 -131q61 -43 176 -43q70 0 132 19q55 20 106 55q43 35 72 84q27 45 26 107v45q-129 45 -299 45q-147 0 -209 -49q-63 -51 -63 -132zM371 1442q0 45 18 86q14 39 47 74 q31 31 76 49q43 20 100.5 20t100.5 -20q45 -18 75 -49q33 -35 48 -74q18 -41 18 -86q0 -49 -18 -88q-14 -39 -48 -74q-31 -33 -75.5 -51.5t-100 -18.5t-102.5 19q-45 18 -76 51q-33 35 -47 74q-16 43 -16 88zM505.5 1442q0.5 -45 26.5 -78q33 -29 80 -29q51 0 80 29 q29 33 29 78t-29 74q-31 30 -80 30q-51 0 -80 -30q-27 -29 -26.5 -74z" />
<glyph unicode="&#xe6;" horiz-adv-x="1959" d="M92 324q0 160 125 247q127 90 342 91q90 0 160 -15q76 -16 139 -37v58q0 113 -63 170q-59 57 -201 57q-184 0 -354 -90l-80 145q106 66 209 90q98 29 221 29q152 0 246 -49q96 -49 149 -141q57 88 162 141q102 49 242 49q104 0 194 -37q82 -31 150 -98q68 -74 94 -156 q35 -82 35 -196q0 -20 -4 -66q-2 -20 -11 -61h-807q14 -143 107 -226q90 -80 250 -79q106 0 184 26.5t170 85.5l90 -141q-100 -76 -211 -113q-121 -33 -246 -33q-158 0 -262 54q-106 49 -176 149q-74 -106 -196 -158q-129 -45 -256 -45q-190 0 -293 91q-109 84 -109 258z M295 319q0 -86 61 -131q59 -43 174 -43q72 0 129 19q63 20 105 53q39 27 72 80q25 45 24 106v52q-121 45 -293 45q-145 0 -211 -49q-61 -53 -61 -132zM1049 618h612q-4 129 -72 203q-68 76 -209 76q-145 0 -225 -74q-86 -76 -106 -205z" />
<glyph unicode="&#xe7;" horiz-adv-x="1193" d="M98 520q0 129 45 225q43 104 119 175q76 72 176 110q96 39 217 39q143 0 246 -41q102 -35 184 -117l-110 -131q-61 53 -135 84q-80 31 -181 31q-74 0 -139 -24.5t-117 -71.5q-49 -47 -77 -115q-29 -70 -29 -154q0 -174 96 -276t266 -102q94 0 183 32q88 39 143 101 l121 -125q-78 -86 -180.5 -131t-227.5 -52l-8 -92q59 -16 96 -65q37 -53 37 -125q0 -113 -75 -195q-78 -84 -244 -129l-45 127q104 35 147 80q45 43 45 96q0 55 -37 82q-35 25 -116 29v39l43 88v72q-104 14 -191 65q-82 45 -137 119q-57 66 -86 160q-29 92 -29 192z" />
<glyph unicode="&#xe8;" horiz-adv-x="1253" d="M98 520q0 115 41 219q39 98 115 174t178 115q106 41 232 41q109 0 200 -35q88 -35 156 -100q66 -66 98 -154q37 -88 37 -198q0 -20 -4 -66q-2 -20 -10 -61h-842q14 -143 113 -226q96 -80 256 -79q102 0 196 26q90 29 172 88l90 -141q-100 -78 -217 -115 q-121 -33 -245 -33q-133 0 -238 37q-111 43 -176 111q-72 66 -113 170q-39 98 -39 227zM307 618h647q-4 127 -75 203q-74 76 -224 76q-147 0 -237 -74q-90 -78 -111 -205zM414 1556l168 99l174 -383h-174z" />
<glyph unicode="&#xe9;" horiz-adv-x="1253" d="M98 520q0 115 41 219q39 98 115 174t178 115q106 41 232 41q109 0 200 -35q88 -35 156 -100q66 -66 98 -154q37 -88 37 -198q0 -20 -4 -66q-2 -20 -10 -61h-842q14 -143 113 -226q96 -80 256 -79q102 0 196 26q90 29 172 88l90 -141q-100 -78 -217 -115 q-121 -33 -245 -33q-133 0 -238 37q-111 43 -176 111q-72 66 -113 170q-39 98 -39 227zM307 618h647q-4 127 -75 203q-74 76 -224 76q-147 0 -237 -74q-90 -78 -111 -205zM614 1272l174 383l168 -99l-168 -284h-174z" />
<glyph unicode="&#xea;" horiz-adv-x="1253" d="M98 520q0 115 41 219q39 98 115 174t178 115q106 41 232 41q109 0 200 -35q88 -35 156 -100q66 -66 98 -154q37 -88 37 -198q0 -20 -4 -66q-2 -20 -10 -61h-842q14 -143 113 -226q96 -80 256 -79q102 0 196 26q90 29 172 88l90 -141q-100 -78 -217 -115 q-121 -33 -245 -33q-133 0 -238 37q-111 43 -176 111q-72 66 -113 170q-39 98 -39 227zM307 618h647q-4 127 -75 203q-74 76 -224 76q-147 0 -237 -74q-90 -78 -111 -205zM373 1315v20l272 260h43l273 -260v-20l-95 -101l-204 172l-193 -172z" />
<glyph unicode="&#xeb;" horiz-adv-x="1253" d="M98 520q0 115 41 219q39 98 115 174t178 115q106 41 232 41q109 0 200 -35q88 -35 156 -100q66 -66 98 -154q37 -88 37 -198q0 -20 -4 -66q-2 -20 -10 -61h-842q14 -143 113 -226q96 -80 256 -79q102 0 196 26q90 29 172 88l90 -141q-100 -78 -217 -115 q-121 -33 -245 -33q-133 0 -238 37q-111 43 -176 111q-72 66 -113 170q-39 98 -39 227zM303 1378.5q0 55.5 37 91.5q41 35 92 35q53 0 92 -35q39 -37 39 -92t-39 -92q-39 -35 -92 -35q-51 0 -92 35q-37 37 -37 92.5zM307 618h647q-4 127 -75 203q-74 76 -224 76 q-147 0 -237 -74q-90 -78 -111 -205zM766 1378.5q0 55.5 37 91.5q41 35 92 35t92 -35q37 -37 37 -92t-37 -92q-41 -35 -92 -35t-92 35q-37 37 -37 92.5z" />
<glyph unicode="&#xec;" horiz-adv-x="503" d="M6 1556l168 99l174 -383h-174zM150 0v1044h204v-1044h-204z" />
<glyph unicode="&#xed;" horiz-adv-x="503" d="M150 0v1044h204v-1044h-204zM170 1272l174 383l168 -99l-168 -284h-174z" />
<glyph unicode="&#xee;" horiz-adv-x="503" d="M-39 1315v20l272 260h43l273 -260v-20l-94 -101l-205 172l-193 -172zM150 0v1044h204v-1044h-204z" />
<glyph unicode="&#xef;" horiz-adv-x="503" d="M-63 1378q0 59 38 92q39 35 90.5 35t90.5 -35q39 -33 39 -92q0 -55 -39 -92q-39 -35 -90.5 -35t-90.5 35q-39 37 -38 92zM150 0v1044h204v-1044h-204zM313 1378.5q0 59.5 39 91.5q39 35 90.5 35t89.5 -35q39 -37 39 -92t-39 -92q-39 -35 -90 -35t-90 35q-39 33 -39 92.5z " />
<glyph unicode="&#xf0;" horiz-adv-x="1294" d="M98 489q0 109 37 201t104.5 160t161.5 104q92 39 207 39q127 0 211 -39q88 -41 146 -98h20q-27 94 -100 178q-74 80 -191 148l-84 49l-90 -144l-149 91l88 137l-174 102l92 156l180 -107l102 158l146 -92l-96 -154l79 -49q100 -61 183 -137q82 -78 127 -164 q49 -82 76 -199q25 -111 24 -251q0 -139 -43 -254q-45 -115 -119 -189q-76 -80 -176 -119q-104 -41 -219 -41q-127 0 -231 37q-100 37 -170 105q-72 68 -105 162q-37 94 -37 210zM303 487q0 -162 88 -251q88 -92 248 -93q84 0 147 33q70 33 111 86q47 53 72 131 q24 74 24 160q-33 131 -131 205q-96 68 -225 67q-154 0 -244 -88q-90 -90 -90 -250z" />
<glyph unicode="&#xf1;" d="M150 0v1044h157l21 -217q53 115 155 179q96 63 242 63q199 0 319 -115q119 -117 119 -338v-616h-198v594q0 152 -68 229q-70 74 -197 74q-125 0 -217 -82q-92 -86 -135 -229v-586h-198zM293 1356q47 76 106 110q59 41 146 41q51 0 84 -16q31 -12 61 -33q33 -23 58 -33 q27 -16 71 -16q49 0 84 21q37 20 60 51l96 -99q-33 -63 -90 -104q-57 -39 -142 -39q-45 0 -88 16q-25 10 -69 35q-41 25 -62 35q-37 16 -71 16q-53 0 -88 -18q-41 -23 -66 -57z" />
<glyph unicode="&#xf2;" horiz-adv-x="1331" d="M98 522q0 113 41 217q43 100 119 174q76 76 178 115q107 41 230 41q129 0 229 -41q98 -35 180 -110q78 -74 117 -175q41 -104 41 -220.5t-43 -217t-117 -174.5q-80 -76 -180 -115q-106 -41 -227 -41q-131 0 -232 41q-98 35 -180 111q-76 76 -115 174q-41 104 -41 221z M297 522q0 -86 27 -153q27 -70 73 -119q45 -45 117 -78q74 -27 152 -27q80 0 153 27q74 33 115 78q49 49 74 119q27 68 26 153q0 84 -26 150q-27 70 -74 119q-49 53 -117 79q-69 29 -151 29q-78 0 -154 -27q-74 -33 -115 -77q-51 -53 -73 -121q-27 -68 -27 -152zM434 1556 l168 99l174 -383h-174z" />
<glyph unicode="&#xf3;" horiz-adv-x="1331" d="M98 522q0 113 41 217q43 100 119 174q76 76 178 115q107 41 230 41q129 0 229 -41q98 -35 180 -110q78 -74 117 -175q41 -104 41 -220.5t-43 -217t-117 -174.5q-80 -76 -180 -115q-106 -41 -227 -41q-131 0 -232 41q-98 35 -180 111q-76 76 -115 174q-41 104 -41 221z M297 522q0 -86 27 -153q27 -70 73 -119q45 -45 117 -78q74 -27 152 -27q80 0 153 27q74 33 115 78q49 49 74 119q27 68 26 153q0 84 -26 150q-27 70 -74 119q-49 53 -117 79q-69 29 -151 29q-78 0 -154 -27q-74 -33 -115 -77q-51 -53 -73 -121q-27 -68 -27 -152zM608 1272 l174 383l168 -99l-168 -284h-174z" />
<glyph unicode="&#xf4;" horiz-adv-x="1331" d="M98 522q0 113 41 217q43 100 119 174q76 76 178 115q107 41 230 41q129 0 229 -41q98 -35 180 -110q78 -74 117 -175q41 -104 41 -220.5t-43 -217t-117 -174.5q-80 -76 -180 -115q-106 -41 -227 -41q-131 0 -232 41q-98 35 -180 111q-76 76 -115 174q-41 104 -41 221z M297 522q0 -86 27 -153q27 -70 73 -119q45 -45 117 -78q74 -27 152 -27q80 0 153 27q74 33 115 78q49 49 74 119q27 68 26 153q0 84 -26 150q-27 70 -74 119q-49 53 -117 79q-69 29 -151 29q-78 0 -154 -27q-74 -33 -115 -77q-51 -53 -73 -121q-27 -68 -27 -152zM371 1315 v20l272 260h43l272 -260v-20l-94 -101l-205 172l-192 -172z" />
<glyph unicode="&#xf5;" horiz-adv-x="1331" d="M98 522q0 113 41 217q43 100 119 174q76 76 178 115q107 41 230 41q129 0 229 -41q98 -35 180 -110q78 -74 117 -175q41 -104 41 -220.5t-43 -217t-117 -174.5q-80 -76 -180 -115q-106 -41 -227 -41q-131 0 -232 41q-98 35 -180 111q-76 76 -115 174q-41 104 -41 221z M283 1356q47 76 106 110q59 41 146 41q51 0 83 -16q31 -12 62 -33q33 -23 57 -33q27 -16 72 -16q49 0 84 21q37 20 59 51l97 -99q-33 -63 -91 -104q-57 -39 -141 -39q-45 0 -88 16q-25 10 -70 35q-41 25 -61 35q-37 16 -72 16q-55 0 -88 -18q-41 -23 -65 -57zM297 522 q0 -86 27 -153q27 -70 73 -119q45 -45 117 -78q74 -27 152 -27q80 0 153 27q74 33 115 78q49 49 74 119q27 68 26 153q0 84 -26 150q-27 70 -74 119q-49 53 -117 79q-69 29 -151 29q-78 0 -154 -27q-74 -33 -115 -77q-51 -53 -73 -121q-27 -68 -27 -152z" />
<glyph unicode="&#xf6;" horiz-adv-x="1331" d="M98 522q0 113 41 217q43 100 119 174q76 76 178 115q107 41 230 41q129 0 229 -41q98 -35 180 -110q78 -74 117 -175q41 -104 41 -220.5t-43 -217t-117 -174.5q-80 -76 -180 -115q-106 -41 -227 -41q-131 0 -232 41q-98 35 -180 111q-76 76 -115 174q-41 104 -41 221z M297 522q0 -86 27 -153q27 -70 73 -119q45 -45 117 -78q74 -27 152 -27q80 0 153 27q74 33 115 78q49 49 74 119q27 68 26 153q0 84 -26 150q-27 70 -74 119q-49 53 -117 79q-69 29 -151 29q-78 0 -154 -27q-74 -33 -115 -77q-51 -53 -73 -121q-27 -68 -27 -152zM303 1378.5 q0 55.5 37 91.5q41 35 92 35q53 0 92 -35q39 -37 39 -92t-39 -92q-39 -35 -92 -35q-51 0 -92 35q-37 37 -37 92.5zM766 1378.5q0 55.5 37 91.5q41 35 92 35t92 -35q37 -37 37 -92t-37 -92q-41 -35 -92 -35t-92 35q-37 37 -37 92.5z" />
<glyph unicode="&#xf7;" horiz-adv-x="989" d="M129 614v172h731v-172h-731zM367 315q0 59 39 93q38 34 89.5 34t90.5 -34q39 -33 39 -93q0 -57 -39 -94q-39 -33 -90.5 -33t-89.5 33q-39 37 -39 94zM367 1085.5q0 59.5 39 92.5q38 34 89.5 34t90.5 -34q39 -33 39 -92.5t-39 -92.5q-39 -35 -90.5 -35t-89.5 35 q-39 33 -39 92.5z" />
<glyph unicode="&#xf8;" horiz-adv-x="1331" d="M98 522q0 113 41 217q43 100 119 174q76 76 178 115q106 41 230 41q119 0 217 -37l86 133l157 -98l-82 -127q88 -70 140 -178q49 -111 49 -240q0 -117 -43 -217t-117 -174q-80 -76 -180 -115q-106 -41 -227 -41q-125 0 -220 37l-98 -151l-158 98l95 143q-92 78 -138 181 q-49 106 -49 239zM297 522q0 -162 92 -256l393 613q-37 12 -57 14q-29 6 -59 6q-78 0 -154 -27q-74 -33 -115 -77q-51 -53 -73 -121q-27 -68 -27 -152zM545 164q51 -18 121 -19q80 0 153 27q74 33 115 78q49 49 74 119q27 68 26 153q0 80 -24 144q-27 70 -70 112z" />
<glyph unicode="&#xf9;" horiz-adv-x="1298" d="M150 438v606h198v-579q0 -162 66 -240q63 -76 184 -75q125 0 217 79q90 78 135 222v593h199v-1044h-160l-18 211q-53 -115 -152 -174q-102 -61 -237 -62q-205 0 -318 117q-115 119 -114 346zM408 1556l167 99l175 -383h-175z" />
<glyph unicode="&#xfa;" horiz-adv-x="1298" d="M150 438v606h198v-579q0 -162 66 -240q63 -76 184 -75q125 0 217 79q90 78 135 222v593h199v-1044h-160l-18 211q-53 -115 -152 -174q-102 -61 -237 -62q-205 0 -318 117q-115 119 -114 346zM567 1272l174 383l168 -99l-168 -284h-174z" />
<glyph unicode="&#xfb;" horiz-adv-x="1298" d="M150 438v606h198v-579q0 -162 66 -240q63 -76 184 -75q125 0 217 79q90 78 135 222v593h199v-1044h-160l-18 211q-53 -115 -152 -174q-102 -61 -237 -62q-205 0 -318 117q-115 119 -114 346zM354 1315v20l273 260h43l272 -260v-20l-94 -101l-205 172l-192 -172z" />
<glyph unicode="&#xfc;" horiz-adv-x="1298" d="M150 438v606h198v-579q0 -162 66 -240q63 -76 184 -75q125 0 217 79q90 78 135 222v593h199v-1044h-160l-18 211q-53 -115 -152 -174q-102 -61 -237 -62q-205 0 -318 117q-115 119 -114 346zM287 1378.5q0 55.5 37 91.5q41 35 92 35q53 0 92 -35q39 -37 39 -92t-39 -92 q-39 -35 -92 -35q-51 0 -92 35q-37 37 -37 92.5zM749.5 1378.5q0.5 55.5 36.5 91.5q41 35 92.5 35t92.5 -35q37 -37 37 -92t-37 -92q-41 -35 -92.5 -35t-92.5 35q-37 37 -36.5 92.5z" />
<glyph unicode="&#xfd;" horiz-adv-x="1306" d="M78 1044h233l377 -835h19l301 835h221l-477 -1159q-57 -145 -140 -217q-80 -68 -202 -67q-115 0 -193 53l55 153q39 -18 64 -22q31 -6 59 -6q59 0 101 31q43 31 71 102l27 74zM592 1272l174 383l168 -99l-168 -284h-174z" />
<glyph unicode="&#xfe;" horiz-adv-x="1320" d="M150 -403v1843h196v-547q127 176 379 176q111 0 203 -37q96 -41 157 -106q68 -74 103 -168q35 -104 35 -223q0 -139 -45 -242q-49 -111 -121 -174q-76 -74 -176 -107q-98 -37 -205 -37q-98 0 -176 23q-70 18 -154 76v-477h-196zM346 264q139 -115 318 -114q82 0 143 26 q72 31 113 78q47 49 73 123q27 68 27 164q0 72 -21 143q-27 72 -65 113q-39 45 -103 73q-55 27 -135 27q-127 0 -217 -66q-86 -61 -133 -176v-391z" />
<glyph unicode="&#xff;" horiz-adv-x="1306" d="M78 1044h233l377 -835h19l301 835h221l-477 -1159q-57 -145 -140 -217q-80 -68 -202 -67q-115 0 -193 53l55 153q39 -18 64 -22q31 -6 59 -6q59 0 101 31q43 31 71 102l27 74zM311 1378.5q0 55.5 37 91.5q41 35 92 35q53 0 92 -35q39 -37 39 -92t-39 -92q-39 -35 -92 -35 q-51 0 -92 35q-37 37 -37 92.5zM774 1378.5q0 55.5 37 91.5q41 35 92 35t92 -35q37 -37 37 -92t-37 -92q-41 -35 -92 -35t-92 35q-37 37 -37 92.5z" />
<glyph unicode="&#x100;" horiz-adv-x="1560" d="M86 0l571 1374h244l576 -1374h-230l-123 311h-694l-121 -311h-223zM385 1624v172h789v-172h-789zM500 492h555l-264 671h-25z" />
<glyph unicode="&#x101;" horiz-adv-x="1275" d="M94 324q0 160 125 247q127 90 342 91q90 0 164 -15q82 -16 141 -37v58q0 111 -65 170q-63 57 -205 57q-184 0 -354 -90l-80 143q113 70 209 92q98 29 221 29q244 0 356 -111q113 -113 113 -309v-383q0 -61 22 -94q23 -27 60 -27q25 0 43 9l18 -152q-41 -20 -104 -20 q-82 0 -129 38q-55 37 -70 138q-133 -182 -405 -183q-186 0 -295 91q-106 88 -107 258zM276 1298v168h670v-168h-670zM297 319q0 -84 59 -131q61 -43 176 -43q70 0 132 19q55 20 106 55q43 35 72 84q27 45 26 107v45q-129 45 -299 45q-147 0 -209 -49q-63 -51 -63 -132z" />
<glyph unicode="&#x102;" horiz-adv-x="1560" d="M86 0l571 1374h244l576 -1374h-230l-123 311h-694l-121 -311h-223zM457 1878h159q2 -76 50 -117q47 -41 112 -41q68 0 115 41q45 39 49 117h160q-2 -68 -25 -129q-25 -57 -65 -100q-43 -43 -103 -68q-61 -23 -130.5 -22.5t-131.5 22.5q-61 27 -100 68q-43 45 -64 100 q-25 59 -26 129zM500 492h555l-264 671h-25z" />
<glyph unicode="&#x103;" horiz-adv-x="1275" d="M94 324q0 160 125 247q127 90 342 91q90 0 164 -15q82 -16 141 -37v58q0 111 -65 170q-63 57 -205 57q-184 0 -354 -90l-80 143q113 70 209 92q98 29 221 29q244 0 356 -111q113 -113 113 -309v-383q0 -61 22 -94q23 -27 60 -27q25 0 43 9l18 -152q-41 -20 -104 -20 q-82 0 -129 38q-55 37 -70 138q-133 -182 -405 -183q-186 0 -295 91q-106 88 -107 258zM297 319q0 -84 59 -131q61 -43 176 -43q70 0 132 19q55 20 106 55q43 35 72 84q27 45 26 107v45q-129 45 -299 45q-147 0 -209 -49q-63 -51 -63 -132zM307 1532h160q2 -70 45 -107 q37 -39 102.5 -39t102.5 39q43 37 45 107h162q-2 -70 -29 -127q-23 -51 -66 -94q-37 -35 -96 -58q-53 -20 -119 -20q-68 0 -120 20q-59 20 -97 58q-43 39 -65 94q-25 55 -25 127z" />
<glyph unicode="&#x104;" horiz-adv-x="1560" d="M86 0l571 1374h244l567 -1354v-20h-32q-43 0 -72 -31q-25 -31 -25 -78q0 -61 37 -104q41 -41 115 -49l-27 -146q-150 10 -221 84q-74 74 -74 174q0 51 19 101q20 47 51 69l-115 291h-694l-121 -311h-223zM500 492h555l-264 671h-25z" />
<glyph unicode="&#x105;" horiz-adv-x="1275" d="M96 324q0 160 125 247q125 90 340 91q94 0 164 -15q78 -14 143 -37v58q0 227 -270 227q-182 0 -356 -90l-80 145q111 68 211 90q98 29 221 29q242 0 356 -111q113 -113 113 -309v-383q0 -61 22 -94q23 -27 60 -27q16 0 22 2q4 0 10.5 2.5t8.5 2.5l18 -150 q-68 -4 -102 -39q-35 -39 -35 -90q0 -57 39 -96q37 -39 115 -49l-27 -144q-72 4 -125 27q-49 20 -90 57q-39 33 -57 80q-20 43 -21 94q0 53 20.5 100.5t59.5 80.5q-35 18 -55 51q-18 31 -25 84q-127 -182 -403 -183q-190 0 -293 91q-109 84 -109 258zM299 319q0 -86 61 -131 q57 -43 175 -43q72 0 129 19q66 23 106 55q43 31 74 84q27 45 26 107v45q-123 45 -301 45q-143 0 -209 -49q-61 -53 -61 -132z" />
<glyph unicode="&#x106;" horiz-adv-x="1488" d="M109 682q0 145 51 283q57 135 151 227q94 96 236 154q137 55 315 55q145 0 281 -49q131 -47 229 -133l-108 -148q-170 143 -420 143q-119 0 -217 -36q-98 -39 -164 -107q-70 -70 -107 -166q-39 -96 -39 -219q0 -125 39 -221q41 -102 109 -166q72 -70 166 -104 q92 -37 207 -37q129 0 243 43q115 47 203 127l117 -144q-223 -213 -574 -213q-162 0 -290 49q-129 47 -230 142q-92 92 -147 223q-51 137 -51 297zM741 1581l181 414l176 -88l-172 -326h-185z" />
<glyph unicode="&#x107;" horiz-adv-x="1193" d="M98 520q0 129 45 225q43 104 119 175q76 72 176 110q96 39 217 39q143 0 246 -41q102 -35 184 -117l-110 -131q-61 53 -135 84q-80 31 -181 31q-74 0 -139 -24.5t-117 -71.5q-49 -47 -77 -115q-29 -70 -29 -154q0 -174 96 -276t266 -102q94 0 183 32q88 39 143 101 l121 -125q-88 -98 -201 -140q-109 -45 -254 -45q-131 0 -237 41q-106 45 -172 117q-74 72 -107 174q-37 98 -37 213zM582 1272l174 383l168 -99l-168 -284h-174z" />
<glyph unicode="&#x108;" horiz-adv-x="1488" d="M109 682q0 145 51 283q57 135 151 227q94 96 236 154q137 55 315 55q145 0 281 -49q131 -47 229 -133l-108 -148q-170 143 -420 143q-119 0 -217 -36q-98 -39 -164 -107q-70 -70 -107 -166q-39 -96 -39 -219q0 -125 39 -221q41 -102 109 -166q72 -70 166 -104 q92 -37 207 -37q129 0 243 43q115 47 203 127l117 -144q-223 -213 -574 -213q-162 0 -290 49q-129 47 -230 142q-92 92 -147 223q-51 137 -51 297zM545 1630v21l280 264h47l279 -264v-21l-98 -102l-205 178l-203 -178z" />
<glyph unicode="&#x109;" horiz-adv-x="1193" d="M98 520q0 129 45 225q43 104 119 175q76 72 176 110q96 39 217 39q143 0 246 -41q102 -35 184 -117l-110 -131q-61 53 -135 84q-80 31 -181 31q-74 0 -139 -24.5t-117 -71.5q-49 -47 -77 -115q-29 -70 -29 -154q0 -174 96 -276t266 -102q94 0 183 32q88 39 143 101 l121 -125q-88 -98 -201 -140q-109 -45 -254 -45q-131 0 -237 41q-106 45 -172 117q-74 72 -107 174q-37 98 -37 213zM371 1315v20l272 260h43l272 -260v-20l-94 -101l-205 172l-192 -172z" />
<glyph unicode="&#x10a;" horiz-adv-x="1488" d="M109 682q0 145 51 283q57 135 151 227q94 96 236 154q137 55 315 55q145 0 281 -49q131 -47 229 -133l-108 -148q-170 143 -420 143q-119 0 -217 -36q-98 -39 -164 -107q-70 -70 -107 -166q-39 -96 -39 -219q0 -125 39 -221q41 -102 109 -166q72 -70 166 -104 q92 -37 207 -37q129 0 243 43q115 47 203 127l117 -144q-223 -213 -574 -213q-162 0 -290 49q-129 47 -230 142q-92 92 -147 223q-51 137 -51 297zM713 1724.5q0 59.5 41 100.5q39 39 98 39t98 -39q43 -39 43 -100.5t-43 -100.5q-39 -39 -98 -39t-98 39q-41 41 -41 100.5z " />
<glyph unicode="&#x10b;" horiz-adv-x="1193" d="M98 520q0 129 45 225q43 104 119 175q76 72 176 110q96 39 217 39q143 0 246 -41q102 -35 184 -117l-110 -131q-61 53 -135 84q-80 31 -181 31q-74 0 -139 -24.5t-117 -71.5q-49 -47 -77 -115q-29 -70 -29 -154q0 -174 96 -276t266 -102q94 0 183 32q88 39 143 101 l121 -125q-88 -98 -201 -140q-109 -45 -254 -45q-131 0 -237 41q-106 45 -172 117q-74 72 -107 174q-37 98 -37 213zM530 1386q0 63 41 101q40 37 97 37t98 -37t41 -101q0 -61 -41 -98t-98 -37t-97 37q-41 37 -41 98z" />
<glyph unicode="&#x10c;" horiz-adv-x="1488" d="M109 682q0 145 51 283q57 135 151 227q94 96 236 154q137 55 315 55q145 0 281 -49q131 -47 229 -133l-108 -148q-170 143 -420 143q-119 0 -217 -36q-98 -39 -164 -107q-70 -70 -107 -166q-39 -96 -39 -219q0 -125 39 -221q41 -102 109 -166q72 -70 166 -104 q92 -37 207 -37q129 0 243 43q115 47 203 127l117 -144q-223 -213 -574 -213q-162 0 -290 49q-129 47 -230 142q-92 92 -147 223q-51 137 -51 297zM539 1794v21l100 102l205 -178l203 178l98 -102v-21l-279 -264h-49z" />
<glyph unicode="&#x10d;" horiz-adv-x="1193" d="M98 520q0 129 45 225q43 104 119 175q76 72 176 110q96 39 217 39q143 0 246 -41q102 -35 184 -117l-110 -131q-61 53 -135 84q-80 31 -181 31q-74 0 -139 -24.5t-117 -71.5q-49 -47 -77 -115q-29 -70 -29 -154q0 -174 96 -276t266 -102q94 0 183 32q88 39 143 101 l121 -125q-88 -98 -201 -140q-109 -45 -254 -45q-131 0 -237 41q-106 45 -172 117q-74 72 -107 174q-37 98 -37 213zM365 1493v20l94 101l203 -172l196 172l94 -101v-20l-270 -260h-43z" />
<glyph unicode="&#x10e;" horiz-adv-x="1490" d="M170 0v1372h485q168 0 303 -49q133 -53 228 -143q90 -84 145 -217q51 -121 51 -277q0 -141 -51 -276q-57 -129 -149 -217q-94 -88 -232 -142q-133 -51 -301 -51h-479zM367 1794v21l100 102l205 -178l202 178l99 -102v-21l-279 -264h-49zM377 182h272q111 0 211 35 q92 33 166 100q72 66 109 158q41 90 41 211q0 246 -140 375q-141 129 -389 129h-270v-1008z" />
<glyph unicode="&#x10f;" horiz-adv-x="1675" d="M98 520q0 125 43 230q45 104 117 172q78 72 176 110q102 37 217 37q106 0 189 -25q92 -31 157 -77v493h199v-1460h-158l-22 199q-61 -111 -164 -166q-102 -57 -236 -58q-121 0 -215 37q-98 39 -163 107q-70 74 -103 172q-37 98 -37 229zM299 520q0 -90 25 -160 q29 -72 69 -114q45 -49 105 -74q59 -25 127 -25q137 0 231 74q96 74 141 211v356q-145 111 -325 111q-174 0 -275 -100q-98 -98 -98 -279zM1397 1317q0 61 39 94q41 35 92 35q55 0 94 -35q41 -33 41 -94q0 -35 -12 -62l-111 -270l-115 41l52 170q-37 10 -58 43 q-23 35 -22 78z" />
<glyph unicode="&#x110;" horiz-adv-x="1519" d="M45 598v178h154v596h483q168 0 303 -49q135 -53 229 -143q90 -84 146 -217q49 -123 49 -277q0 -152 -53 -276q-49 -121 -148 -217q-94 -88 -231 -142q-133 -51 -301 -51h-477v588zM406 182h270q111 0 209 35q92 33 168 100q63 59 110 158q39 100 39 211q0 246 -141 375 q-139 129 -387 129h-268v-414h389v-186h-389v-408z" />
<glyph unicode="&#x111;" horiz-adv-x="1386" d="M98 520q0 125 43 230q45 104 117 172q78 72 176 110q102 37 217 37q106 0 189 -25q92 -31 157 -77v223h-319v160h315l21 145h182v-145h143v-160h-143v-1190h-158l-22 199q-61 -111 -164 -166q-102 -57 -236 -58q-121 0 -215 37q-98 39 -163 107q-70 74 -103 172 q-37 98 -37 229zM299 520q0 -90 25 -160q29 -72 69 -114q45 -49 105 -74q59 -25 127 -25q137 0 231 74q96 74 141 211v356q-145 111 -325 111q-174 0 -275 -100q-98 -98 -98 -279z" />
<glyph unicode="&#x112;" d="M170 0v1372h987v-182h-782v-387h688v-180h-688v-439h819v-184h-1024zM283 1624v172h788v-172h-788z" />
<glyph unicode="&#x113;" horiz-adv-x="1253" d="M98 520q0 115 41 219q39 98 115 174t178 115q106 41 232 41q109 0 200 -35q88 -35 156 -100q66 -66 98 -154q37 -88 37 -198q0 -20 -4 -66q-2 -20 -10 -61h-842q14 -143 113 -226q96 -80 256 -79q102 0 196 26q90 29 172 88l90 -141q-100 -78 -217 -115 q-121 -33 -245 -33q-133 0 -238 37q-111 43 -176 111q-72 66 -113 170q-39 98 -39 227zM307 618h647q-4 127 -75 203q-74 76 -224 76q-147 0 -237 -74q-90 -78 -111 -205zM346 1298v168h670v-168h-670z" />
<glyph unicode="&#x114;" d="M170 0v1372h987v-182h-782v-387h688v-180h-688v-439h819v-184h-1024zM367 1878h159q2 -76 49 -117t113 -41q68 0 115 41q45 39 49 117h160q-2 -68 -25 -129q-25 -57 -65 -100q-43 -43 -103 -68q-61 -23 -131 -22.5t-131 22.5q-61 27 -100 68q-43 45 -64 100 q-25 59 -26 129z" />
<glyph unicode="&#x115;" horiz-adv-x="1253" d="M98 520q0 115 41 219q39 98 115 174t178 115q106 41 232 41q109 0 200 -35q88 -35 156 -100q66 -66 98 -154q37 -88 37 -198q0 -20 -4 -66q-2 -20 -10 -61h-842q14 -143 113 -226q96 -80 256 -79q102 0 196 26q90 29 172 88l90 -141q-100 -78 -217 -115 q-121 -33 -245 -33q-133 0 -238 37q-111 43 -176 111q-72 66 -113 170q-39 98 -39 227zM307 618h647q-4 127 -75 203q-74 76 -224 76q-147 0 -237 -74q-90 -78 -111 -205zM356 1532h160q2 -66 43 -107q41 -39 104.5 -39t104.5 39q41 41 43 107h162q-2 -70 -29 -127 q-23 -51 -65 -94q-37 -35 -97 -58q-53 -20 -118 -20q-68 0 -121 20q-59 20 -97 58q-43 39 -65 94q-25 55 -25 127z" />
<glyph unicode="&#x116;" d="M170 0v1372h987v-182h-782v-387h688v-180h-688v-439h819v-184h-1024zM547 1724.5q0 59.5 41 100.5q39 39 98 39t100 -39q41 -41 41 -100.5t-41 -100.5q-41 -39 -100 -39t-98 39q-41 41 -41 100.5z" />
<glyph unicode="&#x117;" horiz-adv-x="1253" d="M98 520q0 115 41 219q39 98 115 174t178 115q106 41 232 41q109 0 200 -35q88 -35 156 -100q66 -66 98 -154q37 -88 37 -198q0 -20 -4 -66q-2 -20 -10 -61h-842q14 -143 113 -226q96 -80 256 -79q102 0 196 26q90 29 172 88l90 -141q-100 -78 -217 -115 q-121 -33 -245 -33q-133 0 -238 37q-111 43 -176 111q-72 66 -113 170q-39 98 -39 227zM307 618h647q-4 127 -75 203q-74 76 -224 76q-147 0 -237 -74q-90 -78 -111 -205zM526 1386q0 63 41.5 100.5t96.5 37.5q57 0 98 -37t41 -101q0 -61 -41 -98t-98 -37q-55 0 -96.5 37 t-41.5 98z" />
<glyph unicode="&#x118;" d="M170 0v1372h987v-182h-782v-387h688v-180h-688v-439h819v-184h-35q-45 0 -69 -33q-27 -29 -27 -78q0 -61 37 -98q35 -41 114 -51l-26 -148q-154 10 -223 80q-72 76 -72 178q0 43 12.5 84t38.5 66h-774z" />
<glyph unicode="&#x119;" horiz-adv-x="1253" d="M98 520q0 115 41 219q39 98 115 174t178 115q106 41 232 41q109 0 200 -35q88 -35 156 -100q66 -66 98 -154q37 -88 37 -198q0 -20 -4 -66q-2 -20 -10 -61h-842q14 -143 113 -226q96 -80 256 -79q102 0 196 26q90 29 172 88l90 -141q-66 -45 -90 -86q-25 -39 -24 -90 q0 -131 153 -154l-26 -141q-72 4 -127 24q-55 23 -90 58q-35 29 -58 78q-18 43 -18 92q0 51 18 92q-59 -12 -98 -16q-66 -4 -102 -5q-133 0 -238 37q-111 43 -176 111q-72 66 -113 170q-39 98 -39 227zM307 618h647q-4 127 -75 203q-74 76 -224 76q-147 0 -237 -74 q-90 -78 -111 -205z" />
<glyph unicode="&#x11a;" d="M170 0v1372h987v-182h-782v-387h688v-180h-688v-439h819v-184h-1024zM379 1794v21l100 102l205 -178l203 178l98 -102v-21l-278 -264h-50z" />
<glyph unicode="&#x11b;" horiz-adv-x="1253" d="M98 520q0 115 41 219q39 98 115 174t178 115q106 41 232 41q109 0 200 -35q88 -35 156 -100q66 -66 98 -154q37 -88 37 -198q0 -20 -4 -66q-2 -20 -10 -61h-842q14 -143 113 -226q96 -80 256 -79q102 0 196 26q90 29 172 88l90 -141q-100 -78 -217 -115 q-121 -33 -245 -33q-133 0 -238 37q-111 43 -176 111q-72 66 -113 170q-39 98 -39 227zM307 618h647q-4 127 -75 203q-74 76 -224 76q-147 0 -237 -74q-90 -78 -111 -205zM383 1493v20l94 101l203 -172l197 172l94 -101v-20l-271 -260h-43z" />
<glyph unicode="&#x11c;" horiz-adv-x="1515" d="M109 682q0 152 51 281q53 135 147 229q94 96 234 151q133 57 313 58q139 0 268 -43q131 -43 232 -129l-111 -150q-80 70 -182 101q-96 35 -217 34q-119 0 -217 -36q-98 -39 -164 -107q-70 -70 -107 -166q-39 -96 -39 -219q0 -127 39 -223q41 -102 109 -166 q72 -70 166 -104.5t209 -34.5q209 0 348 96v299l-301 14v168h499v-575q-111 -94 -247 -140q-143 -49 -307 -49t-295 49t-230 142q-92 92 -147 223q-51 137 -51 297zM537 1630v21l280 264h47l279 -264v-21l-99 -102l-204 178l-203 -178z" />
<glyph unicode="&#x11d;" horiz-adv-x="1323" d="M109 -223q0 80 30 153q29 70 84 127q-98 74 -98 201q0 147 147 244q-29 41 -43 88q-14 45 -14 104q0 72 29 146q27 68 88 118q53 49 143 82q90 29 203 29h199l317 29l16 -150l-182 -41q33 -33 62 -96q20 -61 20 -117q0 -76 -30.5 -143.5t-88.5 -118.5q-59 -53 -143 -80 q-82 -31 -191 -30q-88 0 -155 18q-70 23 -121 55q-39 -20 -57 -51q-16 -37 -17 -74q0 -66 43 -94q45 -29 131 -29h330q98 0 172 -24q66 -20 119 -64q47 -43 67 -96q23 -61 23 -125q0 -92 -43 -168q-41 -74 -121 -137q-90 -61 -188 -90q-104 -35 -246 -35 q-248 0 -366.5 100.5t-118.5 268.5zM301 -197q0 -106 78 -168q80 -57 225 -57q180 0 289 70q106 72 106 186q0 70 -45 109q-49 37 -155 37h-322l-108 8q-37 -37 -52 -82q-16 -53 -16 -103zM377 1315v20l272 260h43l273 -260v-20l-95 -101l-204 172l-193 -172zM408 696 q0 -96 63 -151q61 -59 186 -60q113 0 185 56q72 53 71 155q0 133 -104 207h-154q-121 0 -184 -53q-63 -51 -63 -154z" />
<glyph unicode="&#x11e;" horiz-adv-x="1515" d="M109 682q0 152 51 281q53 135 147 229q94 96 234 151q133 57 313 58q139 0 268 -43q131 -43 232 -129l-111 -150q-80 70 -182 101q-96 35 -217 34q-119 0 -217 -36q-98 -39 -164 -107q-70 -70 -107 -166q-39 -96 -39 -219q0 -127 39 -223q41 -102 109 -166 q72 -70 166 -104.5t209 -34.5q209 0 348 96v299l-301 14v168h499v-575q-111 -94 -247 -140q-143 -49 -307 -49t-295 49t-230 142q-92 92 -147 223q-51 137 -51 297zM520 1878h160q4 -76 49 -117q47 -41 113 -41q72 0 112 41q47 37 52 117h159q-2 -70 -26 -129 q-23 -57 -66 -100q-39 -41 -100 -68q-61 -23 -131 -22.5t-131 22.5q-61 27 -101 68q-41 43 -65 100q-23 61 -25 129z" />
<glyph unicode="&#x11f;" horiz-adv-x="1323" d="M109 -223q0 80 30 153q29 70 84 127q-98 74 -98 201q0 147 147 244q-29 41 -43 88q-14 45 -14 104q0 72 29 146q27 68 88 118q53 49 143 82q90 29 203 29h199l317 29l16 -150l-182 -41q33 -33 62 -96q20 -61 20 -117q0 -76 -30.5 -143.5t-88.5 -118.5q-59 -53 -143 -80 q-82 -31 -191 -30q-88 0 -155 18q-70 23 -121 55q-39 -20 -57 -51q-16 -37 -17 -74q0 -66 43 -94q45 -29 131 -29h330q98 0 172 -24q66 -20 119 -64q47 -43 67 -96q23 -61 23 -125q0 -92 -43 -168q-41 -74 -121 -137q-90 -61 -188 -90q-104 -35 -246 -35 q-248 0 -366.5 100.5t-118.5 268.5zM301 -197q0 -106 78 -168q80 -57 225 -57q180 0 289 70q106 72 106 186q0 70 -45 109q-49 37 -155 37h-322l-108 8q-37 -37 -52 -82q-16 -53 -16 -103zM379 1532h160q2 -66 43 -107q41 -39 104.5 -39t104.5 39q41 41 43 107h161 q-2 -70 -28 -127q-23 -51 -66 -94q-37 -35 -96 -58q-53 -20 -119 -20q-68 0 -121 20q-59 20 -96 58q-43 39 -66 94q-25 55 -24 127zM408 696q0 -96 63 -151q61 -59 186 -60q113 0 185 56q72 53 71 155q0 133 -104 207h-154q-121 0 -184 -53q-63 -51 -63 -154z" />
<glyph unicode="&#x120;" horiz-adv-x="1515" d="M109 682q0 152 51 281q53 135 147 229q94 96 234 151q133 57 313 58q139 0 268 -43q131 -43 232 -129l-111 -150q-80 70 -182 101q-96 35 -217 34q-119 0 -217 -36q-98 -39 -164 -107q-70 -70 -107 -166q-39 -96 -39 -219q0 -127 39 -223q41 -102 109 -166 q72 -70 166 -104.5t209 -34.5q209 0 348 96v299l-301 14v168h499v-575q-111 -94 -247 -140q-143 -49 -307 -49t-295 49t-230 142q-92 92 -147 223q-51 137 -51 297zM704.5 1724.5q0.5 59.5 40.5 100.5q39 39 98.5 39t98.5 -39q43 -39 43 -100.5t-43 -100.5 q-39 -39 -98.5 -39t-98.5 39q-41 41 -40.5 100.5z" />
<glyph unicode="&#x121;" horiz-adv-x="1323" d="M109 -223q0 80 30 153q29 70 84 127q-98 74 -98 201q0 147 147 244q-29 41 -43 88q-14 45 -14 104q0 72 29 146q27 68 88 118q53 49 143 82q90 29 203 29h199l317 29l16 -150l-182 -41q33 -33 62 -96q20 -61 20 -117q0 -76 -30.5 -143.5t-88.5 -118.5q-59 -53 -143 -80 q-82 -31 -191 -30q-88 0 -155 18q-70 23 -121 55q-39 -20 -57 -51q-16 -37 -17 -74q0 -66 43 -94q45 -29 131 -29h330q98 0 172 -24q66 -20 119 -64q47 -43 67 -96q23 -61 23 -125q0 -92 -43 -168q-41 -74 -121 -137q-90 -61 -188 -90q-104 -35 -246 -35 q-248 0 -366.5 100.5t-118.5 268.5zM301 -197q0 -106 78 -168q80 -57 225 -57q180 0 289 70q106 72 106 186q0 70 -45 109q-49 37 -155 37h-322l-108 8q-37 -37 -52 -82q-16 -53 -16 -103zM408 696q0 -96 63 -151q61 -59 186 -60q113 0 185 56q72 53 71 155q0 133 -104 207 h-154q-121 0 -184 -53q-63 -51 -63 -154zM545 1386q0 63 41 100.5t96 37.5q59 0 98 -37q41 -37 41 -101q0 -61 -41 -98q-39 -37 -98 -37q-55 0 -96 37t-41 98z" />
<glyph unicode="&#x122;" horiz-adv-x="1515" d="M109 682q0 152 51 281q53 135 147 229q94 96 234 151q133 57 313 58q139 0 268 -43q131 -43 232 -129l-111 -150q-80 70 -182 101q-96 35 -217 34q-119 0 -217 -36q-98 -39 -164 -107q-70 -70 -107 -166q-39 -96 -39 -219q0 -127 39 -223q41 -102 109 -166 q72 -70 166 -104.5t209 -34.5q209 0 348 96v299l-301 14v168h499v-575q-111 -94 -247 -140q-143 -49 -307 -49t-295 49t-230 142q-92 92 -147 223q-51 137 -51 297zM694 -287q0 59 39 99q39 37 96 36q55 0 97 -36q41 -35 41 -95q0 -16 -4 -32l-5.5 -16.5t-3.5 -12.5 l-114 -283l-119 41l57 178q-37 12 -61 43q-23 35 -23 78z" />
<glyph unicode="&#x123;" horiz-adv-x="1323" d="M109 -223q0 80 30 153q29 70 84 127q-98 74 -98 201q0 147 147 244q-29 41 -43 88q-14 45 -14 104q0 72 29 146q27 68 88 118q53 49 143 82q90 29 203 29h199l317 29l16 -150l-182 -41q33 -33 62 -96q20 -61 20 -117q0 -76 -30.5 -143.5t-88.5 -118.5q-59 -53 -143 -80 q-82 -31 -191 -30q-88 0 -155 18q-70 23 -121 55q-39 -20 -57 -51q-16 -37 -17 -74q0 -66 43 -94q45 -29 131 -29h330q98 0 172 -24q66 -20 119 -64q47 -43 67 -96q23 -61 23 -125q0 -92 -43 -168q-41 -74 -121 -137q-90 -61 -188 -90q-104 -35 -246 -35 q-248 0 -366.5 100.5t-118.5 268.5zM301 -197q0 -106 78 -168q80 -57 225 -57q180 0 289 70q106 72 106 186q0 70 -45 109q-49 37 -155 37h-322l-108 8q-37 -37 -52 -82q-16 -53 -16 -103zM408 696q0 -96 63 -151q61 -59 186 -60q113 0 185 56q72 53 71 155q0 133 -104 207 h-154q-121 0 -184 -53q-63 -51 -63 -154zM549 1352q0 33 12 61l111 270l114 -41l-51 -169q37 -10 58 -43q23 -35 22 -78q0 -61 -39 -95q-41 -35 -92 -34q-53 0 -94 34.5t-41 94.5z" />
<glyph unicode="&#x124;" horiz-adv-x="1499" d="M170 0v1372h211v-577h737v577h209v-1372h-209v608h-737v-608h-211zM444 1630v21l281 264h47l279 -264v-21l-99 -102l-204 178l-203 -178z" />
<glyph unicode="&#x125;" d="M-39 1686v20l272 260h43l273 -260v-20l-94 -101l-205 172l-193 -172zM150 0v1460h200v-602q55 102 148 158q94 53 235 53q197 0 316 -115q115 -115 114 -338v-616h-198v594q0 152 -68 229q-70 74 -197 74q-123 0 -215 -80t-135 -225v-592h-200z" />
<glyph unicode="&#x126;" horiz-adv-x="1499" d="M41 989v172h129v211h211v-211h737v211h209v-211h131v-172h-131v-989h-209v588h-737v-588h-211v989h-129zM381 774h737v215h-737v-215z" />
<glyph unicode="&#x127;" horiz-adv-x="1353" d="M47 1190v160h141l21 145h182v-145h320v-160h-320v-332q57 104 150 158q94 53 233 53q197 0 316 -115q115 -115 114 -338v-616h-198v594q0 152 -68 229q-70 74 -197 74q-123 0 -215 -80t-135 -225v-592h-201v1190h-143z" />
<glyph unicode="&#x128;" horiz-adv-x="550" d="M-47 1700q35 66 86 102q53 35 129 35q45 0 80 -14q8 -4 26.5 -15.5t28.5 -17.5q33 -25 49 -33q23 -16 60 -16q78 0 110 51l99 -102q-70 -125 -203 -125q-55 0 -82 16q-27 10 -57 33l-16.5 11t-18.5 12t-15 10q-23 16 -61 16q-82 0 -125 -61zM170 0v1372h211v-1372h-211z " />
<glyph unicode="&#x129;" horiz-adv-x="503" d="M-53 1358q35 68 82 102q47 37 112 37q51 0 80 -14q37 -16 53 -29l43 -27q20 -12 52 -12q70 0 102 49l92 -94q-29 -61 -76 -92q-41 -35 -104 -35q-49 0 -78 14q-37 14 -55 29l-45 29q-25 12 -53 12q-70 0 -111 -55zM150 0v1044h204v-1044h-204z" />
<glyph unicode="&#x12a;" horiz-adv-x="550" d="M-33 1620v176h623v-176h-623zM170 0v1372h211v-1372h-211z" />
<glyph unicode="&#x12b;" horiz-adv-x="503" d="M-4 1298v168h518v-168h-518zM150 0v1044h204v-1044h-204z" />
<glyph unicode="&#x12c;" horiz-adv-x="550" d="M-45 1878h160q4 -76 49 -117q47 -41 112 -41q72 0 113 41q47 37 51 117h160q-2 -70 -27 -129q-23 -57 -65 -100q-39 -41 -100 -68q-61 -23 -131 -22.5t-132 22.5q-61 27 -100 68q-41 43 -65 100q-23 61 -25 129zM170 0v1372h211v-1372h-211z" />
<glyph unicode="&#x12d;" horiz-adv-x="503" d="M-53 1532h159q2 -70 46 -107q37 -39 102 -39t102 39q43 37 45 107h162q-2 -70 -28 -127q-23 -51 -66 -94q-37 -35 -96 -58q-53 -20 -119 -20q-68 0 -121 20q-57 20 -96 58q-43 39 -66 94q-25 55 -24 127zM150 0v1044h204v-1044h-204z" />
<glyph unicode="&#x12e;" horiz-adv-x="550" d="M94 -150q0 121 76 189v1333h211v-1372h-31q-37 0 -61.5 -30.5t-24.5 -78.5q0 -63 35 -102q39 -39 117 -47l-27 -148q-145 8 -221 82q-74 70 -74 174z" />
<glyph unicode="&#x12f;" horiz-adv-x="501" d="M78 -158q0 111 72 178v1024h202v-1044h-16q-41 0 -66 -35q-27 -33 -26.5 -90t35.5 -96q33 -37 112 -49l-26 -146q-74 4 -125 25q-53 23 -88 59q-37 33 -56 80q-18 47 -18 94zM113 1386q0 63 41 101q39 37 98 37q55 0 96 -37q43 -37 43 -101q0 -61 -43 -98 q-41 -37 -96 -37q-59 0 -98 37q-41 37 -41 98z" />
<glyph unicode="&#x130;" horiz-adv-x="550" d="M137 1724.5q0 59.5 41 100.5q39 39 98.5 39t100.5 -39q41 -41 41 -100.5t-41 -100.5q-41 -39 -100.5 -39t-98.5 39q-41 41 -41 100.5zM170 0v1372h211v-1372h-211z" />
<glyph unicode="&#x131;" horiz-adv-x="503" d="M150 0v1044h204v-1044h-204z" />
<glyph unicode="&#x134;" horiz-adv-x="1105" d="M78 92l94 160q76 -51 147 -76q76 -20 148 -20q111 0 184 75q76 76 76 242v899h209v-874q0 -252 -117 -389q-119 -137 -352 -138q-111 0 -205 25q-96 29 -184 96zM524 1630v21l281 264h47l278 -264v-21l-98 -102l-205 178l-202 -178z" />
<glyph unicode="&#x135;" horiz-adv-x="514" d="M-299 -420l68 158q57 -31 100 -39q51 -10 106 -10q84 0 140 57q51 61 51 180v1118h199v-1118q0 -90 -25 -168q-20 -72 -70 -131q-47 -53 -118 -86q-74 -31 -166 -30q-78 0 -150 16q-68 14 -135 53zM-25 1315v20l273 260h43l272 -260v-20l-94 -101l-205 172l-192 -172z " />
<glyph unicode="&#x136;" horiz-adv-x="1439" d="M170 0v1372h205v-563l213 16l446 547h258l-534 -635l585 -737h-266l-485 639h-217v-639h-205zM565 -246q0 59 39 99q39 37 96.5 36.5t96.5 -36.5q41 -35 41 -95q0 -16 -4 -32q-2 -8 -5.5 -17.5t-3.5 -11.5l-114 -283l-119 41l57 178q-39 12 -59 43q-25 33 -25 78z" />
<glyph unicode="&#x137;" horiz-adv-x="1222" d="M150 0v1460h200v-829l195 22l317 391h254l-399 -469l454 -575h-251l-355 467h-215v-467h-200zM489 -283q0 61 39 95q41 35 92.5 34.5t96.5 -34.5q39 -35 39 -95q0 -33 -13 -61l-110 -270l-115 41l51 170q-37 10 -57 43q-23 35 -23 77z" />
<glyph unicode="&#x138;" horiz-adv-x="1218" d="M150 0v1044h198v-411l193 18l323 393h248l-401 -471l450 -573h-241l-365 469h-207v-469h-198z" />
<glyph unicode="&#x139;" horiz-adv-x="1267" d="M170 0v1372h209v-1188h790v-184h-999zM219 1581l180 414l176 -88l-172 -326h-184z" />
<glyph unicode="&#x13a;" horiz-adv-x="497" d="M150 0v1460h198v-1460h-198zM172 1628l174 383l168 -98l-168 -285h-174z" />
<glyph unicode="&#x13b;" horiz-adv-x="1267" d="M170 0v1372h209v-1188h790v-184h-999zM553 -287q0 59 39 99q39 37 96 36.5t96 -36.5q41 -35 41 -95q0 -16 -4 -32q-2 -6 -5 -16.5t-3 -12.5l-115 -283l-118 41l57 178q-39 12 -59 43q-25 33 -25 78z" />
<glyph unicode="&#x13c;" horiz-adv-x="497" d="M115 -283q0 61 39 95q41 35 92 34q55 0 94 -34q41 -33 41 -95q0 -33 -12 -61l-111 -270l-115 41l52 170q-37 10 -58 43q-23 35 -22 77zM150 0v1460h198v-1460h-198z" />
<glyph unicode="&#x13d;" horiz-adv-x="1267" d="M170 0v1372h209v-1188h790v-184h-999zM860 1077q0 59 39 99q39 37 96.5 36.5t96.5 -36.5q41 -35 41 -95q0 -16 -5 -32q-2 -8 -5 -17.5t-3 -11.5l-114 -283l-119 41l57 178q-39 12 -59 43q-25 35 -25 78z" />
<glyph unicode="&#x13e;" horiz-adv-x="806" d="M150 0v1460h198v-1460h-198zM532 1317q0 61 39 94q41 35 93 35q55 0 94 -35q41 -33 41 -94q0 -35 -13 -62l-110 -270l-115 41l51 170q-37 10 -57 43q-23 35 -23 78z" />
<glyph unicode="&#x13f;" horiz-adv-x="1267" d="M170 0v1372h209v-1188h790v-184h-999zM797 837.5q0 59.5 41 100.5q39 39 98 39t100 -39q41 -41 41 -100.5t-41 -100.5q-41 -39 -100 -39t-98 39q-41 41 -41 100.5z" />
<glyph unicode="&#x140;" horiz-adv-x="833" d="M150 0v1460h198v-1460h-198zM512 647q0 63 41 100t96 37q59 0 99 -36q41 -37 40 -101q0 -61 -40 -98q-39 -37 -99 -37q-55 0 -96 37t-41 98z" />
<glyph unicode="&#x141;" horiz-adv-x="1267" d="M8 635l162 65v672h209v-584l305 130l72 -177l-377 -159v-398h790v-184h-999v496l-109 -25z" />
<glyph unicode="&#x142;" horiz-adv-x="593" d="M-16 618l213 113v729h198v-622l140 67l75 -153l-215 -115v-637h-198v530l-140 -67z" />
<glyph unicode="&#x143;" horiz-adv-x="1540" d="M170 0v1372h186l815 -1067v1067h199v-1372h-205l-794 1040v-1040h-201zM664 1581l180 414l176 -88l-172 -326h-184z" />
<glyph unicode="&#x144;" d="M150 0v1044h157l21 -217q53 115 155 179q96 63 242 63q199 0 319 -115q119 -117 119 -338v-616h-198v594q0 152 -68 229q-70 74 -197 74q-125 0 -217 -82q-92 -86 -135 -229v-586h-198zM635 1272l174 383l168 -99l-168 -284h-174z" />
<glyph unicode="&#x145;" horiz-adv-x="1540" d="M170 0v1372h186l815 -1067v1067h199v-1372h-205l-794 1040v-1040h-201zM633 -246q0 59 39 99q41 37 96 36.5t96 -36.5q41 -35 41 -95q0 -16 -4 -32q-2 -8 -5 -17.5t-3 -11.5l-115 -283l-119 41l58 178q-37 12 -62 43q-23 35 -22 78z" />
<glyph unicode="&#x146;" d="M150 0v1044h157l21 -217q53 115 155 179q96 63 242 63q199 0 319 -115q119 -117 119 -338v-616h-198v594q0 152 -68 229q-70 74 -197 74q-125 0 -217 -82q-92 -86 -135 -229v-586h-198zM522 -262q0 61 39 94q41 35 92.5 35t96.5 -35q39 -35 38 -94q0 -33 -12 -62 l-110 -270l-115 41l51 170q-37 10 -57 43q-23 35 -23 78z" />
<glyph unicode="&#x147;" horiz-adv-x="1540" d="M170 0v1372h186l815 -1067v1067h199v-1372h-205l-794 1040v-1040h-201zM463 1794v21l100 102l205 -178l203 178l98 -102v-21l-278 -264h-50z" />
<glyph unicode="&#x148;" d="M150 0v1044h157l21 -217q53 115 155 179q96 63 242 63q199 0 319 -115q119 -117 119 -338v-616h-198v594q0 152 -68 229q-70 74 -197 74q-125 0 -217 -82q-92 -86 -135 -229v-586h-198zM397 1493v20l95 101l202 -172l197 172l94 -101v-20l-270 -260h-43z" />
<glyph unicode="&#x149;" horiz-adv-x="1550" d="M16 1315q0 61 39 94q41 35 92 35q55 0 95 -35q41 -33 41 -94q0 -33 -13 -62l-110 -270l-115 41l51 170q-37 10 -57 43q-23 35 -23 78zM387 0v1044h158l20 -217q53 115 156 179q96 63 242 63q199 0 319 -115q119 -117 119 -338v-616h-199v594q0 152 -67 229 q-70 74 -197 74q-125 0 -217 -82q-92 -86 -135 -229v-586h-199z" />
<glyph unicode="&#x14c;" horiz-adv-x="1660" d="M109 686q0 145 53 281q53 133 149 225q90 94 226 151q133 58 292.5 58t294.5 -53q131 -55 228 -152q90 -90 147 -227q51 -137 51 -283q0 -141 -51 -276q-55 -131 -147 -230q-102 -100 -230 -151q-127 -57 -293 -58q-164 0 -292 56q-129 53 -230 153q-92 94 -147 226 q-51 137 -51 280zM317 686q0 -111 35 -211q37 -96 102.5 -167.5t159.5 -112.5q100 -41 215 -41q117 0 215 39q96 43 164 112q68 74 101 170q35 98 34 211q0 117 -36 215q-33 90 -101 168q-63 66 -162 111q-100 39 -215 39q-121 0 -215 -41q-94 -39 -161.5 -113t-100.5 -168 q-35 -100 -35 -211zM436 1624v172h789v-172h-789z" />
<glyph unicode="&#x14d;" horiz-adv-x="1331" d="M98 522q0 113 41 217q43 100 119 174q76 76 178 115q107 41 230 41q129 0 229 -41q98 -35 180 -110q78 -74 117 -175q41 -104 41 -220.5t-43 -217t-117 -174.5q-80 -76 -180 -115q-106 -41 -227 -41q-131 0 -232 41q-98 35 -180 111q-76 76 -115 174q-41 104 -41 221z M297 522q0 -86 27 -153q27 -70 73 -119q45 -45 117 -78q74 -27 152 -27q80 0 153 27q74 33 115 78q49 49 74 119q27 68 26 153q0 84 -26 150q-27 70 -74 119q-49 53 -117 79q-69 29 -151 29q-78 0 -154 -27q-74 -33 -115 -77q-51 -53 -73 -121q-27 -68 -27 -152zM330 1298 v168h669v-168h-669z" />
<glyph unicode="&#x14e;" horiz-adv-x="1660" d="M109 686q0 145 53 281q53 133 149 225q90 94 226 151q133 58 292.5 58t294.5 -53q131 -55 228 -152q90 -90 147 -227q51 -137 51 -283q0 -141 -51 -276q-55 -131 -147 -230q-102 -100 -230 -151q-127 -57 -293 -58q-164 0 -292 56q-129 53 -230 153q-92 94 -147 226 q-51 137 -51 280zM317 686q0 -111 35 -211q37 -96 102.5 -167.5t159.5 -112.5q100 -41 215 -41q117 0 215 39q96 43 164 112q68 74 101 170q35 98 34 211q0 117 -36 215q-33 90 -101 168q-63 66 -162 111q-100 39 -215 39q-121 0 -215 -41q-94 -39 -161.5 -113t-100.5 -168 q-35 -100 -35 -211zM506 1878h160q2 -76 49 -117t112 -41q68 0 115 41q45 39 49 117h160q-2 -68 -25 -129q-25 -57 -65 -100q-43 -43 -103 -68q-61 -23 -130.5 -22.5t-131.5 22.5q-61 27 -100 68q-43 45 -64 100q-25 59 -26 129z" />
<glyph unicode="&#x14f;" horiz-adv-x="1331" d="M98 522q0 113 41 217q43 100 119 174q76 76 178 115q107 41 230 41q129 0 229 -41q98 -35 180 -110q78 -74 117 -175q41 -104 41 -220.5t-43 -217t-117 -174.5q-80 -76 -180 -115q-106 -41 -227 -41q-131 0 -232 41q-98 35 -180 111q-76 76 -115 174q-41 104 -41 221z M297 522q0 -86 27 -153q27 -70 73 -119q45 -45 117 -78q74 -27 152 -27q80 0 153 27q74 33 115 78q49 49 74 119q27 68 26 153q0 84 -26 150q-27 70 -74 119q-49 53 -117 79q-69 29 -151 29q-78 0 -154 -27q-74 -33 -115 -77q-51 -53 -73 -121q-27 -68 -27 -152zM356 1532 h160q2 -66 43 -107q41 -39 104.5 -39t104.5 39q41 41 43 107h162q-2 -70 -29 -127q-23 -51 -65 -94q-37 -35 -97 -58q-53 -20 -118 -20q-68 0 -121 20q-59 20 -97 58q-43 39 -65 94q-25 55 -25 127z" />
<glyph unicode="&#x150;" horiz-adv-x="1660" d="M109 686q0 145 53 281q53 133 149 225q90 94 226 151q133 58 292.5 58t294.5 -53q131 -55 228 -152q90 -90 147 -227q51 -137 51 -283q0 -141 -51 -276q-55 -131 -147 -230q-102 -100 -230 -151q-127 -57 -293 -58q-164 0 -292 56q-129 53 -230 153q-92 94 -147 226 q-51 137 -51 280zM317 686q0 -111 35 -211q37 -96 102.5 -167.5t159.5 -112.5q100 -41 215 -41q117 0 215 39q96 43 164 112q68 74 101 170q35 98 34 211q0 117 -36 215q-33 90 -101 168q-63 66 -162 111q-100 39 -215 39q-121 0 -215 -41q-94 -39 -161.5 -113t-100.5 -168 q-35 -100 -35 -211zM616 1581l134 418l174 -68l-136 -350h-172zM911 1581l176 373l168 -88l-172 -285h-172z" />
<glyph unicode="&#x151;" horiz-adv-x="1331" d="M98 522q0 113 41 217q43 100 119 174q76 76 178 115q107 41 230 41q129 0 229 -41q98 -35 180 -110q78 -74 117 -175q41 -104 41 -220.5t-43 -217t-117 -174.5q-80 -76 -180 -115q-106 -41 -227 -41q-131 0 -232 41q-98 35 -180 111q-76 76 -115 174q-41 104 -41 221z M297 522q0 -86 27 -153q27 -70 73 -119q45 -45 117 -78q74 -27 152 -27q80 0 153 27q74 33 115 78q49 49 74 119q27 68 26 153q0 84 -26 150q-27 70 -74 119q-49 53 -117 79q-69 29 -151 29q-78 0 -154 -27q-74 -33 -115 -77q-51 -53 -73 -121q-27 -68 -27 -152zM442 1272 l146 395l168 -80l-152 -315h-162zM737 1272l168 344l164 -90l-164 -254h-168z" />
<glyph unicode="&#x152;" horiz-adv-x="2269" d="M109 686.5q0 151.5 51 280.5q49 129 139 225q94 96 221 151q127 57 287 58q123 0 215 -33q96 -31 174 -90v94h967v-182h-766v-387h669v-180h-669v-439h801v-184h-1002v94q-78 -61 -176 -94q-102 -29 -213 -29q-158 0 -287 55.5t-221 153.5q-90 96 -139 226 q-51 129 -51 280.5zM317 686q0 -115 33 -211q37 -102 96 -168q63 -74 152 -112q94 -41 209 -41q133 0 231 43q98 39 158 118v740q-123 164 -389 164q-117 0 -209 -41q-88 -37 -156 -113q-59 -68 -94 -168q-31 -98 -31 -211z" />
<glyph unicode="&#x153;" horiz-adv-x="2078" d="M98 522q0 119 39 217q39 100 113 174q70 74 172 115q106 41 227 41q141 0 254 -57q113 -55 178 -154q59 98 168 154q102 57 252 57q106 0 199 -37q82 -33 151 -98q68 -74 95 -156q35 -82 34 -196q0 -20 -4 -66q-2 -27 -10 -61h-811q14 -147 107 -226q92 -80 245 -79 q106 0 189 26q82 29 170 86l88 -141q-106 -78 -211 -113q-100 -33 -234 -33q-160 0 -268 52q-111 55 -174 145q-74 -96 -178 -143q-104 -53 -240 -54q-133 0 -227 41q-98 35 -174 111q-72 74 -111 174q-39 98 -39 221zM297 522q0 -168 92 -272q88 -104 260 -105 q166 0 256 105q90 106 90 272q0 78 -22 150q-20 70 -68 119q-41 51 -106 79q-70 29 -150 29t-149 -27q-68 -33 -111 -77q-45 -51 -70 -121q-23 -74 -22 -152zM1163 618h617q-2 123 -72 205q-72 76 -215 76q-150 0 -227 -76q-82 -78 -103 -205z" />
<glyph unicode="&#x154;" horiz-adv-x="1404" d="M170 0v1372h592q115 0 207 -33q96 -35 161 -94q66 -57 105 -143q37 -82 37 -184q0 -147 -86 -256t-228 -154l359 -508h-254l-307 459h-375v-459h-211zM381 639h358q145 0 236 74q86 74 86 205q0 137 -86 204q-84 70 -227 70h-367v-553zM592 1581l180 414l176 -88 l-172 -326h-184z" />
<glyph unicode="&#x155;" horiz-adv-x="1107" d="M150 0v1044h159l19 -217q51 117 155 181q100 61 244 61q94 0 180 -29q84 -31 142 -82l-111 -153q-43 37 -109 63q-68 20 -139 21q-123 0 -211 -82q-88 -80 -131 -217v-590h-198zM608 1272l174 383l168 -99l-168 -284h-174z" />
<glyph unicode="&#x156;" horiz-adv-x="1404" d="M170 0v1372h592q115 0 207 -33q96 -35 161 -94q66 -57 105 -143q37 -82 37 -184q0 -147 -86 -256t-228 -154l359 -508h-254l-307 459h-375v-459h-211zM381 639h358q145 0 236 74q86 74 86 205q0 137 -86 204q-84 70 -227 70h-367v-553zM573 -246q0 59 39 99 q39 37 96.5 36.5t96.5 -36.5q41 -35 41 -95q0 -16 -4 -32q-2 -8 -5 -17.5t-3 -11.5l-115 -283l-119 41l57 178q-39 12 -59 43q-25 33 -25 78z" />
<glyph unicode="&#x157;" horiz-adv-x="1107" d="M117 -283q0 61 39 95q41 35 92 34.5t96 -34.5q39 -35 39 -95q0 -33 -12 -61l-111 -270l-115 41l52 170q-37 10 -58 43q-23 35 -22 77zM150 0v1044h159l19 -217q51 117 155 181q100 61 244 61q94 0 180 -29q84 -31 142 -82l-111 -153q-43 37 -109 63q-68 20 -139 21 q-123 0 -211 -82q-88 -80 -131 -217v-590h-198z" />
<glyph unicode="&#x158;" horiz-adv-x="1404" d="M170 0v1372h592q115 0 207 -33q96 -35 161 -94q66 -57 105 -143q37 -82 37 -184q0 -147 -86 -256t-228 -154l359 -508h-254l-307 459h-375v-459h-211zM381 639h358q145 0 236 74q86 74 86 205q0 137 -86 204q-84 70 -227 70h-367v-553zM383 1794v21l100 102l205 -178 l203 178l98 -102v-21l-278 -264h-49z" />
<glyph unicode="&#x159;" horiz-adv-x="1107" d="M150 0v1044h159l19 -217q51 117 155 181q100 61 244 61q94 0 180 -29q84 -31 142 -82l-111 -153q-43 37 -109 63q-68 20 -139 21q-123 0 -211 -82q-88 -80 -131 -217v-590h-198zM373 1493v20l94 101l203 -172l196 172l95 -101v-20l-271 -260h-43z" />
<glyph unicode="&#x15a;" horiz-adv-x="1337" d="M106 131l99 166q115 -78 225 -111q106 -33 234 -32q182 0 266 63q90 63 90 168q0 86 -59 139q-59 55 -197 74l-215 31q-199 29 -295 119q-102 90 -102 260q0 96 36 170q41 76 107 122q68 49 164 76q92 25 209 25q143 0 278 -39q137 -41 236 -121l-107 -151 q-86 63 -188 94q-98 35 -217 35q-166 0 -240 -55.5t-74 -147.5q0 -90 58 -139q59 -47 180 -62l205 -29q209 -31 319 -129q109 -98 109 -266q0 -90 -37 -170q-39 -76 -109 -131q-74 -55 -182 -86q-104 -33 -252 -33q-160 0 -291 37q-129 33 -250 123zM592 1581l180 414 l176 -88l-172 -326h-184z" />
<glyph unicode="&#x15b;" horiz-adv-x="1165" d="M98 102l86 154q92 -59 187 -86q92 -27 198 -27q150 0 222 39q72 41 71 111q0 59 -39 96q-45 35 -141 43l-246 29q-150 16 -225 92q-78 74 -78 203q0 137 115 227q113 86 338 86q123 0 227 -27q117 -31 199 -84l-84 -153q-160 92 -346 92q-121 0 -189 -37 q-63 -41 -63 -104q0 -55 35 -84q33 -31 114 -39l213 -25q166 -20 266 -92q98 -74 99 -215q0 -154 -131 -240q-129 -86 -365 -86q-143 0 -246 29q-104 25 -217 98zM524 1272l174 383l168 -99l-168 -284h-174z" />
<glyph unicode="&#x15c;" horiz-adv-x="1337" d="M106 131l99 166q115 -78 225 -111q106 -33 234 -32q182 0 266 63q90 63 90 168q0 86 -59 139q-59 55 -197 74l-215 31q-199 29 -295 119q-102 90 -102 260q0 96 36 170q41 76 107 122q68 49 164 76q92 25 209 25q143 0 278 -39q137 -41 236 -121l-107 -151 q-86 63 -188 94q-98 35 -217 35q-166 0 -240 -55.5t-74 -147.5q0 -90 58 -139q59 -47 180 -62l205 -29q209 -31 319 -129q109 -98 109 -266q0 -90 -37 -170q-39 -76 -109 -131q-74 -55 -182 -86q-104 -33 -252 -33q-160 0 -291 37q-129 33 -250 123zM373 1630v21l280 264h47 l279 -264v-21l-98 -102l-205 178l-203 -178z" />
<glyph unicode="&#x15d;" horiz-adv-x="1165" d="M98 102l86 154q92 -59 187 -86q92 -27 198 -27q150 0 222 39q72 41 71 111q0 59 -39 96q-45 35 -141 43l-246 29q-150 16 -225 92q-78 74 -78 203q0 137 115 227q113 86 338 86q123 0 227 -27q117 -31 199 -84l-84 -153q-160 92 -346 92q-121 0 -189 -37 q-63 -41 -63 -104q0 -55 35 -84q33 -31 114 -39l213 -25q166 -20 266 -92q98 -74 99 -215q0 -154 -131 -240q-129 -86 -365 -86q-143 0 -246 29q-104 25 -217 98zM307 1315v20l273 260h43l272 -260v-20l-94 -101l-205 172l-193 -172z" />
<glyph unicode="&#x15e;" horiz-adv-x="1337" d="M106 131l99 166q115 -78 225 -111q106 -33 234 -32q182 0 266 63q90 63 90 168q0 86 -59 139q-59 55 -197 74l-215 31q-199 29 -295 119q-102 90 -102 260q0 96 36 170q41 76 107 122q68 49 164 76q92 25 209 25q143 0 278 -39q137 -41 236 -121l-107 -151 q-86 63 -188 94q-98 35 -217 35q-166 0 -240 -55.5t-74 -147.5q0 -90 58 -139q59 -47 180 -62l205 -29q209 -31 319 -129q109 -98 109 -266q0 -90 -33 -158q-35 -78 -96 -127q-66 -57 -160 -90q-92 -33 -219 -43l-6 -88q61 -20 106 -78q39 -55 39 -129q0 -123 -84 -206 q-78 -84 -248 -125l-53 129q109 29 160 80q53 53 53 110.5t-47 82t-125 28.5v47l43 80v71q-133 10 -238 45q-113 35 -213 111z" />
<glyph unicode="&#x15f;" horiz-adv-x="1165" d="M98 102l86 154q92 -59 187 -86q92 -27 198 -27q150 0 222 39q72 41 71 111q0 59 -39 96q-45 35 -141 43l-246 29q-150 16 -225 92q-78 74 -78 203q0 137 115 227q113 86 338 86q123 0 227 -27q117 -31 199 -84l-84 -153q-160 92 -346 92q-121 0 -189 -37 q-63 -41 -63 -104q0 -55 35 -84q33 -31 114 -39l213 -25q166 -20 266 -92q98 -74 98.5 -215t-112.5 -227q-115 -84 -319 -97l-9 -92q59 -16 97 -65q37 -53 37 -125q0 -113 -76 -195q-78 -84 -244 -129l-43 127q104 35 148 80q43 43 43 96q0 55 -37 82q-31 25 -117 29v39 l45 88v68q-102 8 -193 36q-88 29 -178 86z" />
<glyph unicode="&#x160;" horiz-adv-x="1337" d="M106 131l99 166q115 -78 225 -111q106 -33 234 -32q182 0 266 63q90 63 90 168q0 86 -59 139q-59 55 -197 74l-215 31q-199 29 -295 119q-102 90 -102 260q0 96 36 170q41 76 107 122q68 49 164 76q92 25 209 25q143 0 278 -39q137 -41 236 -121l-107 -151 q-86 63 -188 94q-98 35 -217 35q-166 0 -240 -55.5t-74 -147.5q0 -90 58 -139q59 -47 180 -62l205 -29q209 -31 319 -129q109 -98 109 -266q0 -90 -37 -170q-39 -76 -109 -131q-74 -55 -182 -86q-104 -33 -252 -33q-160 0 -291 37q-129 33 -250 123zM371 1794v21l100 102 l205 -178l203 178l98 -102v-21l-279 -264h-49z" />
<glyph unicode="&#x161;" horiz-adv-x="1165" d="M98 102l86 154q92 -59 187 -86q92 -27 198 -27q150 0 222 39q72 41 71 111q0 59 -39 96q-45 35 -141 43l-246 29q-150 16 -225 92q-78 74 -78 203q0 137 115 227q113 86 338 86q123 0 227 -27q117 -31 199 -84l-84 -153q-160 92 -346 92q-121 0 -189 -37 q-63 -41 -63 -104q0 -55 35 -84q33 -31 114 -39l213 -25q166 -20 266 -92q98 -74 99 -215q0 -154 -131 -240q-129 -86 -365 -86q-143 0 -246 29q-104 25 -217 98zM307 1493v20l94 101l203 -172l197 172l94 -101v-20l-270 -260h-43z" />
<glyph unicode="&#x162;" horiz-adv-x="1411" d="M98 1188v184h1215v-184h-504v-1188h-207v1188h-504zM569 -287q0 59 39 99q39 37 96.5 36.5t96.5 -36.5q41 -35 41 -95q0 -16 -4 -32l-5.5 -16.5t-3.5 -12.5l-114 -283l-119 41l57 178q-39 12 -59 43q-25 33 -25 78z" />
<glyph unicode="&#x163;" horiz-adv-x="946" d="M76 870v162l162 12l34 287l181 -8l-11 -279h385v-174h-378v-520q0 -102 45 -149q49 -45 137 -45q53 0 106 16q47 14 92 45l74 -149q-70 -49 -141 -70q-80 -23 -162 -23q-168 0 -260 92.5t-92 286.5v516h-172zM446 -283q0 61 39 95q41 35 93 34q55 0 94 -34q41 -33 41 -95 q0 -33 -13 -61l-110 -270l-115 41l51 170q-37 10 -57 43q-23 35 -23 77z" />
<glyph unicode="&#x164;" horiz-adv-x="1411" d="M98 1188v184h1215v-184h-504v-1188h-207v1188h-504zM401 1794v21l101 102l205 -178l202 178l99 -102v-21l-279 -264h-49z" />
<glyph unicode="&#x165;" horiz-adv-x="1224" d="M76 870v162l162 12l34 287l181 -8l-11 -279h385v-174h-378v-520q0 -102 45 -149q49 -45 137 -45q53 0 106 16q47 14 92 45l74 -149q-70 -49 -141 -70q-80 -23 -162 -23q-168 0 -260 92.5t-92 286.5v516h-172zM946 1315q0 61 39 94q41 35 92 35q55 0 94 -35q41 -33 41 -94 q0 -33 -12 -62l-110 -270l-115 41l51 170q-37 10 -57 43q-23 35 -23 78z" />
<glyph unicode="&#x168;" horiz-adv-x="1544" d="M170 614v758h211v-745q0 -227 98 -351q102 -123 293 -122.5t289 114.5q102 111 102 355v749h211v-751q0 -150 -39 -269q-39 -121 -112 -205q-82 -88 -189 -131q-119 -45 -262 -45q-150 0 -260 45q-104 43 -188 127q-78 90 -115 203q-39 117 -39 268zM377 1673 q39 76 106 121q63 45 152 45q47 0 86 -16q31 -12 67 -35q41 -25 62 -35q33 -16 70 -16q53 0 86 20q35 18 55 55l106 -96q-33 -74 -98 -114q-59 -39 -139 -39q-51 0 -94 16q-33 12 -70 35q-39 25 -66 37q-33 16 -71 16q-53 0 -92 -22q-33 -20 -62 -60z" />
<glyph unicode="&#x169;" horiz-adv-x="1298" d="M150 438v606h198v-579q0 -162 66 -240q63 -76 184 -75q125 0 217 79q90 78 135 222v593h199v-1044h-160l-18 211q-53 -115 -152 -174q-102 -61 -237 -62q-205 0 -318 117q-115 119 -114 346zM266 1356q47 76 107 110q59 41 145 41q51 0 84 -16q31 -12 62 -33 q33 -23 57 -33q27 -16 72 -16q49 0 84 21q37 20 59 51l96 -99q-33 -63 -90 -104q-57 -39 -141 -39q-45 0 -88 16q-25 10 -70 35q-41 25 -61 35q-37 16 -72 16q-55 0 -88 -18q-41 -23 -66 -57z" />
<glyph unicode="&#x16a;" horiz-adv-x="1544" d="M170 614v758h211v-745q0 -227 98 -351q102 -123 293 -122.5t289 114.5q102 111 102 355v749h211v-751q0 -150 -39 -269q-39 -121 -112 -205q-82 -88 -189 -131q-119 -45 -262 -45q-150 0 -260 45q-104 43 -188 127q-78 90 -115 203q-39 117 -39 268zM377 1624v172h788 v-172h-788z" />
<glyph unicode="&#x16b;" horiz-adv-x="1298" d="M150 438v606h198v-579q0 -162 66 -240q63 -76 184 -75q125 0 217 79q90 78 135 222v593h199v-1044h-160l-18 211q-53 -115 -152 -174q-102 -61 -237 -62q-205 0 -318 117q-115 119 -114 346zM313 1298v168h670v-168h-670z" />
<glyph unicode="&#x16c;" horiz-adv-x="1544" d="M170 614v758h211v-745q0 -227 98 -351q102 -123 293 -122.5t289 114.5q102 111 102 355v749h211v-751q0 -150 -39 -269q-39 -121 -112 -205q-82 -88 -189 -131q-119 -45 -262 -45q-150 0 -260 45q-104 43 -188 127q-78 90 -115 203q-39 117 -39 268zM449 1878h159 q2 -76 49 -117t113 -41q68 0 115 41q45 39 49 117h160q-2 -68 -25 -129q-25 -57 -65 -100q-43 -43 -103 -68q-61 -23 -131 -22.5t-131 22.5q-61 27 -100 68q-43 45 -64 100q-25 59 -26 129z" />
<glyph unicode="&#x16d;" horiz-adv-x="1298" d="M150 438v606h198v-579q0 -162 66 -240q63 -76 184 -75q125 0 217 79q90 78 135 222v593h199v-1044h-160l-18 211q-53 -115 -152 -174q-102 -61 -237 -62q-205 0 -318 117q-115 119 -114 346zM340 1532h160q2 -66 43 -107q41 -39 104.5 -39t104.5 39q41 41 43 107h161 q-2 -70 -28 -127q-23 -51 -66 -94q-37 -35 -96 -58q-53 -20 -119 -20q-68 0 -121 20q-57 20 -96 58q-43 39 -65 94q-25 55 -25 127z" />
<glyph unicode="&#x16e;" horiz-adv-x="1544" d="M170 614v758h211v-745q0 -227 98 -351q102 -123 293 -122.5t289 114.5q102 111 102 355v749h211v-751q0 -150 -39 -269q-39 -121 -112 -205q-82 -88 -189 -131q-119 -45 -262 -45q-150 0 -260 45q-104 43 -188 127q-78 90 -115 203q-39 117 -39 268zM512 1772q0 49 18 92 q16 43 52 80q39 35 82 55q47 20 106 20t107 -20q43 -20 81 -55q35 -37 52 -80q18 -43 18 -92q0 -47 -18 -95q-14 -35 -52 -80q-41 -35 -81 -53q-47 -20 -107 -20q-63 0 -106 20q-51 23 -82 53q-35 35 -54 80q-16 49 -16 95zM662 1772q0 -47 30 -78q29 -31 78 -31t80 30.5 t31 78t-31 78t-80 30.5q-53 0 -80 -31q-29 -33 -28 -77z" />
<glyph unicode="&#x16f;" horiz-adv-x="1298" d="M150 438v606h198v-579q0 -162 66 -240q63 -76 184 -75q125 0 217 79q90 78 135 222v593h199v-1044h-160l-18 211q-53 -115 -152 -174q-102 -61 -237 -62q-205 0 -318 117q-115 119 -114 346zM406 1442q0 43 16 86q18 41 49 74q31 31 76 49q43 20 100.5 20t100.5 -20 q45 -18 75 -49q31 -33 49 -74q16 -43 17 -86q0 -45 -17 -88q-18 -39 -49 -74q-31 -33 -75 -51q-47 -18 -101 -19q-57 0 -102 18.5t-76 51.5q-33 35 -47 74q-16 43 -16 88zM541 1442q0 -49 28 -78q25 -29 78 -29q51 0 80 29q29 33 29 78t-31 74q-27 30 -78 30q-53 0 -80 -30 q-27 -29 -26 -74z" />
<glyph unicode="&#x170;" horiz-adv-x="1544" d="M170 614v758h211v-745q0 -227 98 -351q102 -123 293 -122.5t289 114.5q102 111 102 355v749h211v-751q0 -150 -39 -269q-39 -121 -112 -205q-82 -88 -189 -131q-119 -45 -262 -45q-150 0 -260 45q-104 43 -188 127q-78 90 -115 203q-39 117 -39 268zM532 1581l134 418 l174 -68l-135 -350h-173zM827 1581l177 373l167 -88l-172 -285h-172z" />
<glyph unicode="&#x171;" horiz-adv-x="1298" d="M150 438v606h198v-579q0 -162 66 -240q63 -76 184 -75q125 0 217 79q90 78 135 222v593h199v-1044h-160l-18 211q-53 -115 -152 -174q-102 -61 -237 -62q-205 0 -318 117q-115 119 -114 346zM410 1272l145 395l168 -80l-152 -315h-161zM705 1272l167 344l164 -90 l-164 -254h-167z" />
<glyph unicode="&#x172;" horiz-adv-x="1544" d="M170 614v758h211v-745q0 -227 98 -351q102 -123 293 -122.5t289 114.5q102 111 102 355v749h211v-751q0 -256 -117 -426q-119 -172 -344 -211q-45 -8 -73.5 -37t-28.5 -78q0 -61 35 -102q35 -37 115 -48l-27 -147q-147 10 -221 80q-76 74 -76 178q0 84 45 147 q-250 25 -381 193t-131 444z" />
<glyph unicode="&#x173;" horiz-adv-x="1298" d="M150 438v606h198v-579q0 -162 66 -240q63 -76 184 -75q125 0 217 79q90 78 135 222v593h199v-1042q-51 -12 -80 -47q-27 -33 -27 -78q0 -59 39 -98q43 -43 117 -51l-27 -144q-74 4 -127 27q-49 20 -90 57q-35 33 -57 80q-18 47 -18 94q0 63 28 117q27 47 80 76l-16 176 q-53 -115 -152 -174q-102 -61 -237 -62q-205 0 -318 117q-115 119 -114 346z" />
<glyph unicode="&#x174;" horiz-adv-x="2078" d="M78 1372h225l315 -1134h21l303 1048h193l311 -1048h20l310 1134h225l-416 -1376h-264l-274 934h-21l-262 -934h-266zM735 1630v21l281 264h47l278 -264v-21l-98 -102l-205 178l-202 -178z" />
<glyph unicode="&#x175;" horiz-adv-x="1804" d="M78 1044h223l246 -831h18l246 795h188l252 -795h19l248 831h206l-354 -1050h-240l-219 721h-20l-215 -721h-238zM608 1315v20l273 260h43l272 -260v-20l-94 -101l-205 172l-192 -172z" />
<glyph unicode="&#x176;" horiz-adv-x="1458" d="M78 1372h244l401 -719h20l396 719h241l-549 -934v-438h-204v438zM424 1630v21l281 264h47l278 -264v-21l-98 -102l-205 178l-203 -178z" />
<glyph unicode="&#x177;" horiz-adv-x="1306" d="M78 1044h233l377 -835h19l301 835h221l-477 -1159q-57 -145 -140 -217q-80 -68 -202 -67q-115 0 -193 53l55 153q39 -18 64 -22q31 -6 59 -6q59 0 101 31q43 31 71 102l27 74zM379 1315v20l272 260h43l273 -260v-20l-95 -101l-204 172l-193 -172z" />
<glyph unicode="&#x178;" horiz-adv-x="1458" d="M78 1372h244l401 -719h20l396 719h241l-549 -934v-438h-204v438zM328 1706q0 61 41 102q39 39 96 39q59 0 100 -39q41 -41 41 -102q0 -55 -41 -96q-43 -37 -100 -37q-55 0 -96 37q-41 41 -41 96zM850 1706q0 61 41 102q39 39 96 39q59 0 98 -39q43 -39 43 -102 q0 -55 -43 -96q-41 -37 -98 -37t-96 37q-41 41 -41 96z" />
<glyph unicode="&#x179;" horiz-adv-x="1357" d="M119 0v152l839 1036h-808v184h1073v-155l-828 -1033h844v-184h-1120zM563 1581l180 414l177 -88l-172 -326h-185z" />
<glyph unicode="&#x17a;" horiz-adv-x="1171" d="M119 0v152l674 722h-637v170h886v-157l-661 -715h668v-172h-930zM502 1272l174 383l168 -99l-168 -284h-174z" />
<glyph unicode="&#x17b;" horiz-adv-x="1357" d="M119 0v152l839 1036h-808v184h1073v-155l-828 -1033h844v-184h-1120zM539 1724.5q0 59.5 41 100.5q38 39 97.5 39t100.5 -39q41 -41 41 -100.5t-41 -100.5q-41 -39 -100.5 -39t-97.5 39q-41 41 -41 100.5z" />
<glyph unicode="&#x17c;" horiz-adv-x="1171" d="M119 0v152l674 722h-637v170h886v-157l-661 -715h668v-172h-930zM459 1386q0 63 41 100.5t96 37.5q59 0 98 -37q41 -37 41 -101q0 -61 -41 -98q-39 -37 -98 -37q-55 0 -96 37t-41 98z" />
<glyph unicode="&#x17d;" horiz-adv-x="1357" d="M119 0v152l839 1036h-808v184h1073v-155l-828 -1033h844v-184h-1120zM375 1794v21l100 102l205 -178l203 178l98 -102v-21l-279 -264h-49z" />
<glyph unicode="&#x17e;" horiz-adv-x="1171" d="M119 0v152l674 722h-637v170h886v-157l-661 -715h668v-172h-930zM301 1493v20l94 101l203 -172l197 172l94 -101v-20l-271 -260h-43z" />
<glyph unicode="&#x17f;" horiz-adv-x="552" d="M150 0v1141q0 78 22 155q25 74 74 129q53 53 129 86q76 31 184 31q96 0 186 -26q86 -33 154 -82l-94 -148q-47 33 -113 57q-68 20 -127 21q-115 0 -164 -61q-53 -55 -53 -170v-1133h-198z" />
<glyph unicode="&#x200;" horiz-adv-x="1560" d="M86 0l571 1374h244l576 -1374h-230l-123 311h-694l-121 -311h-223zM342 1866l170 88l174 -373h-172zM500 492h555l-264 671h-25zM676 1931l172 68l135 -418h-172z" />
<glyph unicode="&#x201;" horiz-adv-x="1275" d="M94 324q0 160 125 247q127 90 342 91q90 0 164 -15q82 -16 141 -37v58q0 111 -65 170q-63 57 -205 57q-184 0 -354 -90l-80 143q113 70 209 92q98 29 221 29q244 0 356 -111q113 -113 113 -309v-383q0 -61 22 -94q23 -27 60 -27q25 0 43 9l18 -152q-41 -20 -104 -20 q-82 0 -129 38q-55 37 -70 138q-133 -182 -405 -183q-186 0 -295 91q-106 88 -107 258zM231 1526l164 90l168 -344h-168zM297 319q0 -84 59 -131q61 -43 176 -43q70 0 132 19q55 20 106 55q43 35 72 84q27 45 26 107v45q-129 45 -299 45q-147 0 -209 -49q-63 -51 -63 -132z M545 1587l166 80l145 -395h-160z" />
<glyph unicode="&#x204;" d="M170 0v1372h987v-182h-782v-387h688v-180h-688v-439h819v-184h-1024zM285 1866l170 88l174 -373h-172zM618 1931l173 68l135 -418h-172z" />
<glyph unicode="&#x205;" horiz-adv-x="1253" d="M98 520q0 115 41 219q39 98 115 174t178 115q106 41 232 41q109 0 200 -35q88 -35 156 -100q66 -66 98 -154q37 -88 37 -198q0 -20 -4 -66q-2 -20 -10 -61h-842q14 -143 113 -226q96 -80 256 -79q102 0 196 26q90 29 172 88l90 -141q-100 -78 -217 -115 q-121 -33 -245 -33q-133 0 -238 37q-111 43 -176 111q-72 66 -113 170q-39 98 -39 227zM270 1526l164 90l168 -344h-168zM307 618h647q-4 127 -75 203q-74 76 -224 76q-147 0 -237 -74q-90 -78 -111 -205zM584 1587l166 80l145 -395h-160z" />
<glyph unicode="&#x208;" horiz-adv-x="550" d="M-135 1866l170 88l174 -373h-172zM170 0v1372h211v-1372h-211zM199 1931l172 68l135 -418h-172z" />
<glyph unicode="&#x209;" horiz-adv-x="503" d="M-125 1526l164 90l168 -344h-168zM150 0v1044h204v-1044h-204zM188 1587l166 80l146 -395h-160z" />
<glyph unicode="&#x20c;" horiz-adv-x="1660" d="M109 686q0 145 53 281q53 133 149 225q90 94 226 151q133 58 292.5 58t294.5 -53q131 -55 228 -152q90 -90 147 -227q51 -137 51 -283q0 -141 -51 -276q-55 -131 -147 -230q-102 -100 -230 -151q-127 -57 -293 -58q-164 0 -292 56q-129 53 -230 153q-92 94 -147 226 q-51 137 -51 280zM317 686q0 -111 35 -211q37 -96 102.5 -167.5t159.5 -112.5q100 -41 215 -41q117 0 215 39q96 43 164 112q68 74 101 170q35 98 34 211q0 117 -36 215q-33 90 -101 168q-63 66 -162 111q-100 39 -215 39q-121 0 -215 -41q-94 -39 -161.5 -113t-100.5 -168 q-35 -100 -35 -211zM438 1866l170 88l174 -373h-172zM772 1931l172 68l135 -418h-172z" />
<glyph unicode="&#x20d;" horiz-adv-x="1331" d="M98 522q0 113 41 217q43 100 119 174q76 76 178 115q107 41 230 41q129 0 229 -41q98 -35 180 -110q78 -74 117 -175q41 -104 41 -220.5t-43 -217t-117 -174.5q-80 -76 -180 -115q-106 -41 -227 -41q-131 0 -232 41q-98 35 -180 111q-76 76 -115 174q-41 104 -41 221z M279 1526l163 90l168 -344h-168zM297 522q0 -86 27 -153q27 -70 73 -119q45 -45 117 -78q74 -27 152 -27q80 0 153 27q74 33 115 78q49 49 74 119q27 68 26 153q0 84 -26 150q-27 70 -74 119q-49 53 -117 79q-69 29 -151 29q-78 0 -154 -27q-74 -33 -115 -77 q-51 -53 -73 -121q-27 -68 -27 -152zM592 1587l166 80l145 -395h-160z" />
<glyph unicode="&#x210;" horiz-adv-x="1404" d="M170 0v1372h592q115 0 207 -33q96 -35 161 -94q66 -57 105 -143q37 -82 37 -184q0 -147 -86 -256t-228 -154l359 -508h-254l-307 459h-375v-459h-211zM272 1866l170 88l174 -373h-172zM381 639h358q145 0 236 74q86 74 86 205q0 137 -86 204q-84 70 -227 70h-367v-553z M606 1931l172 68l135 -418h-172z" />
<glyph unicode="&#x211;" horiz-adv-x="1107" d="M150 0v1044h159l19 -217q51 117 155 181q100 61 244 61q94 0 180 -29q84 -31 142 -82l-111 -153q-43 37 -109 63q-68 20 -139 21q-123 0 -211 -82q-88 -80 -131 -217v-590h-198zM270 1526l164 90l168 -344h-168zM584 1587l166 80l145 -395h-160z" />
<glyph unicode="&#x214;" horiz-adv-x="1544" d="M170 614v758h211v-745q0 -227 98 -351q102 -123 293 -122.5t289 114.5q102 111 102 355v749h211v-751q0 -150 -39 -269q-39 -121 -112 -205q-82 -88 -189 -131q-119 -45 -262 -45q-150 0 -260 45q-104 43 -188 127q-78 90 -115 203q-39 117 -39 268zM379 1866l170 88 l174 -373h-172zM713 1931l172 68l135 -418h-172z" />
<glyph unicode="&#x215;" horiz-adv-x="1298" d="M150 438v606h198v-579q0 -162 66 -240q63 -76 184 -75q125 0 217 79q90 78 135 222v593h199v-1044h-160l-18 211q-53 -115 -152 -174q-102 -61 -237 -62q-205 0 -318 117q-115 119 -114 346zM281 1526l163 90l168 -344h-168zM594 1587l166 80l145 -395h-160z" />
<glyph unicode="&#x218;" horiz-adv-x="1337" d="M106 131l99 166q115 -78 225 -111q106 -33 234 -32q182 0 266 63q90 63 90 168q0 86 -59 139q-59 55 -197 74l-215 31q-199 29 -295 119q-102 90 -102 260q0 96 36 170q41 76 107 122q68 49 164 76q92 25 209 25q143 0 278 -39q137 -41 236 -121l-107 -151 q-86 63 -188 94q-98 35 -217 35q-166 0 -240 -55.5t-74 -147.5q0 -90 58 -139q59 -47 180 -62l205 -29q209 -31 319 -129q109 -98 109 -266q0 -90 -37 -170q-39 -76 -109 -131q-74 -55 -182 -86q-104 -33 -252 -33q-160 0 -291 37q-129 33 -250 123zM524 -287q0 59 39 99 q39 37 96.5 36.5t96.5 -36.5q41 -35 41 -95q0 -16 -4 -32l-5.5 -16.5t-3.5 -12.5l-114 -283l-119 41l57 178q-39 12 -59 43q-25 33 -25 78z" />
<glyph unicode="&#x219;" horiz-adv-x="1165" d="M98 102l86 154q92 -59 187 -86q92 -27 198 -27q150 0 222 39q72 41 71 111q0 59 -39 96q-45 35 -141 43l-246 29q-150 16 -225 92q-78 74 -78 203q0 137 115 227q113 86 338 86q123 0 227 -27q117 -31 199 -84l-84 -153q-160 92 -346 92q-121 0 -189 -37 q-63 -41 -63 -104q0 -55 35 -84q33 -31 114 -39l213 -25q166 -20 266 -92q98 -74 99 -215q0 -154 -131 -240q-129 -86 -365 -86q-143 0 -246 29q-104 25 -217 98zM422 -283q0 61 39 95q41 35 92 34q55 0 94 -34q41 -33 41 -95q0 -33 -12 -61l-111 -270l-114 41l51 170 q-37 10 -58 43q-23 35 -22 77z" />
<glyph unicode="&#x237;" horiz-adv-x="514" d="M-299 -420l68 158q57 -31 100 -39q51 -10 106 -10q84 0 140 57q51 61 51 180v1118h199v-1118q0 -90 -25 -168q-20 -72 -70 -131q-47 -53 -118 -86q-74 -31 -166 -30q-78 0 -150 16q-68 14 -135 53z" />
<glyph unicode="&#x2c6;" horiz-adv-x="661" d="M37 1315v20l272 260h43l273 -260v-20l-95 -101l-204 172l-193 -172z" />
<glyph unicode="&#x2c7;" horiz-adv-x="661" d="M37 1493v20l94 101l203 -172l196 172l95 -101v-20l-271 -260h-43z" />
<glyph unicode="&#x2d8;" horiz-adv-x="833" d="M109 1532h159q2 -66 43 -107q41 -39 104.5 -39t104.5 39q41 41 43 107h162q-2 -70 -29 -127q-23 -51 -65 -94q-37 -35 -96 -58q-53 -20 -119 -20q-68 0 -121 20q-59 20 -96 58q-43 39 -66 94q-25 55 -24 127z" />
<glyph unicode="&#x2d9;" horiz-adv-x="464" d="M94 1386q0 63 41 101q39 37 96 37q59 0 99 -37q41 -37 41 -101q0 -61 -41 -98q-39 -37 -99 -37q-55 0 -96 37t-41 98z" />
<glyph unicode="&#x2da;" horiz-adv-x="598" d="M57 1442q0 43 17 86q18 41 49 74q31 31 76 49q43 20 100 20t100 -20q45 -18 76 -49q31 -33 49 -74q16 -43 17 -86q0 -45 -17 -88q-18 -39 -49 -74q-31 -33 -76 -51q-47 -18 -100 -19q-55 0 -102 19q-45 18 -76 51q-33 35 -47 74q-16 43 -17 88zM193 1442q0 -49 28 -78 q25 -29 78 -29q51 0 80 29q29 33 29 78t-31 74q-29 30 -78 30q-53 0 -80 -30q-27 -29 -26 -74z" />
<glyph unicode="&#x2db;" horiz-adv-x="516" d="M100 -158q0 63 35 121q35 55 94 78l121 -39q-43 -20 -63.5 -55t-20.5 -74q0 -57 37 -96q41 -39 117 -49l-27 -138q-72 4 -127 25q-55 23 -90 57q-35 29 -57 78q-18 43 -19 92z" />
<glyph unicode="&#x2dc;" horiz-adv-x="905" d="M70 1356q47 76 106 110q59 41 146 41q51 0 84 -16q31 -12 61 -33q33 -23 57 -33q27 -16 72 -16q49 0 84 21q37 20 59 51l97 -99q-33 -63 -91 -104q-57 -39 -141 -39q-45 0 -88 16q-25 10 -70 35q-41 25 -61 35q-37 16 -72 16q-53 0 -88 -18q-41 -23 -65 -57z" />
<glyph unicode="&#x2dd;" horiz-adv-x="643" d="M92 1272l146 395l168 -80l-152 -315h-162zM387 1272l168 344l164 -90l-164 -254h-168z" />
<glyph unicode="&#x3bc;" horiz-adv-x="1298" d="M150 -403v1447h198v-585q0 -156 64 -234q66 -76 184 -75q127 0 219 79q90 78 135 222v593h199v-1044h-160l-18 211q-53 -119 -148 -176q-94 -59 -217 -60q-172 0 -258 99v-477h-198z" />
<glyph unicode="&#x401;" d="M170 0v1372h987v-182h-782v-387h688v-180h-688v-439h819v-184h-1024zM283 1706q0 61 41 102q39 39 96 39q59 0 100 -39q41 -41 41 -102q0 -55 -41 -96q-43 -37 -100 -37q-55 0 -96 37q-41 41 -41 96zM805 1706q0 61 41 102q39 39 96 39q59 0 98 -39q43 -39 43 -102 q0 -55 -43 -96q-41 -37 -98 -37t-96 37q-41 41 -41 96z" />
<glyph unicode="&#x402;" horiz-adv-x="1779" d="M98 1188v184h1215v-184h-506v-406q74 90 166 131q92 47 231 48q98 0 185 -31q86 -37 139 -92q57 -55 90 -146q33 -80 33 -188v-406q0 -115 -33 -192q-33 -86 -90 -139q-63 -59 -133 -82q-72 -29 -164 -29q-72 0 -141 16q-68 16 -132 56l70 155q45 -27 98 -39 q51 -10 99 -10q106 0 168 66q57 68 57 196v393q0 147 -74 222q-70 74 -207 73q-121 0 -215 -63q-94 -61 -147 -178v-543h-209v1188h-500z" />
<glyph unicode="&#x403;" horiz-adv-x="1247" d="M170 0v1372h999v-184h-790v-1188h-209zM606 1581l180 414l177 -88l-172 -326h-185z" />
<glyph unicode="&#x404;" horiz-adv-x="1488" d="M109 682q0 154 51 281q51 133 147 229q100 96 238 151q139 57 317 58q135 0 277 -45q133 -49 233 -137l-110 -148q-84 72 -188.5 109t-225.5 37q-100 0 -197 -29q-90 -33 -155 -86q-68 -55 -111 -135q-41 -74 -57 -174h628v-185h-632q8 -104 53 -190q43 -82 110 -144 q76 -59 160 -88q92 -31 199 -30q133 0 237 45q109 43 201 129l117 -137q-221 -221 -570 -222q-164 0 -294 49q-131 49 -230 142q-92 92 -147 223q-51 137 -51 297z" />
<glyph unicode="&#x405;" horiz-adv-x="1337" d="M106 131l99 166q115 -78 225 -111q106 -33 234 -32q182 0 266 63q90 63 90 168q0 86 -59 139q-59 55 -197 74l-215 31q-199 29 -295 119q-102 90 -102 260q0 96 36 170q41 76 107 122q68 49 164 76q92 25 209 25q143 0 278 -39q137 -41 236 -121l-107 -151 q-86 63 -188 94q-98 35 -217 35q-166 0 -240 -55.5t-74 -147.5q0 -90 58 -139q59 -47 180 -62l205 -29q209 -31 319 -129q109 -98 109 -266q0 -90 -37 -170q-39 -76 -109 -131q-74 -55 -182 -86q-104 -33 -252 -33q-160 0 -291 37q-129 33 -250 123z" />
<glyph unicode="&#x406;" horiz-adv-x="550" d="M170 0v1372h211v-1372h-211z" />
<glyph unicode="&#x407;" horiz-adv-x="550" d="M-68 1710q0 59 41 100q40 37 95 37q57 0 96 -37q41 -41 41 -100q0 -57 -41 -92q-41 -37 -96.5 -37t-94.5 37q-41 35 -41 92zM170 0v1372h211v-1372h-211zM352 1710q0 59 41 100q41 37 94 37q57 0 97 -37q41 -41 41 -100q0 -57 -41 -92q-39 -37 -97 -37q-55 0 -94 37 q-41 35 -41 92z" />
<glyph unicode="&#x408;" horiz-adv-x="1105" d="M78 92l94 160q76 -51 147 -76q76 -20 148 -20q111 0 184 75q76 76 76 242v899h209v-874q0 -252 -117 -389q-119 -137 -352 -138q-111 0 -205 25q-96 29 -184 96z" />
<glyph unicode="&#x409;" horiz-adv-x="2316" d="M37 4l45 176q25 -8 49 -12q29 -4 47 -4q49 0 84 20q37 18 68 68q66 109 84 334t18 569v217h952v-459h320q111 0 209 -30q94 -31 164 -88q74 -61 110 -144q41 -82 41 -196q0 -109 -39 -189q-43 -92 -108 -143q-66 -59 -164 -90q-90 -33 -205 -33h-536v1192h-535 q0 -127 -4 -348q-2 -145 -21 -305q-14 -135 -47 -248q-31 -111 -84 -182q-51 -68 -118 -101q-76 -33 -162 -33q-49 0 -86 6.5t-82 22.5zM1384 180h297q168 0 254 70q84 74 84 207q0 141 -86 209q-88 68 -254 67h-295v-553z" />
<glyph unicode="&#x40a;" horiz-adv-x="2232" d="M170 0v1372h211v-577h711v577h208v-459h320q115 0 207 -30q88 -29 166 -88q74 -63 108 -144q41 -82 41 -196q0 -109 -39 -189q-43 -92 -108 -143q-66 -59 -162 -90q-92 -33 -205 -33h-536v608h-711v-608h-211zM1300 180h297q168 0 254 70q84 74 84 207q0 141 -88 209 q-86 68 -252 67h-295v-553z" />
<glyph unicode="&#x40b;" horiz-adv-x="1779" d="M98 1188v184h1215v-184h-506v-406q74 90 166 131q92 47 231 48q98 0 185 -31q86 -37 139 -92q57 -55 90 -146q33 -80 33 -188v-504h-201v489q0 147 -74 222q-70 74 -207 73q-121 0 -215 -63q-94 -61 -147 -178v-543h-209v1188h-500z" />
<glyph unicode="&#x40c;" horiz-adv-x="1439" d="M170 0v1372h205v-563l213 16l446 547h258l-534 -635l585 -737h-266l-485 639h-217v-639h-205zM614 1581l181 414l176 -88l-172 -326h-185z" />
<glyph unicode="&#x40e;" horiz-adv-x="1425" d="M78 1372h241l422 -790h21l356 790h228l-543 -1147q-63 -133 -144 -196q-82 -59 -184 -60q-106 0 -205 41l49 170q37 -12 60 -16q31 -8 61 -8q53 0 101 28q45 27 73 88l35 78zM416 1878h159q2 -76 50 -117q47 -41 112 -41q68 0 115 41q45 39 49 117h160q-2 -68 -25 -129 q-25 -57 -65 -100q-43 -43 -103 -68q-61 -23 -130.5 -22.5t-131.5 22.5q-61 27 -100 68q-43 45 -64 100q-25 59 -26 129z" />
<glyph unicode="&#x40f;" horiz-adv-x="1482" d="M170 0v1372h211v-1184h721v1184h209v-1372h-469l-15 -297h-172l-16 297h-469z" />
<glyph unicode="&#x410;" horiz-adv-x="1560" d="M86 0l571 1374h244l576 -1374h-230l-123 311h-694l-121 -311h-223zM500 492h555l-264 671h-25z" />
<glyph unicode="&#x411;" horiz-adv-x="1378" d="M170 0v1372h981v-184h-774v-326h379q111 0 213 -26q100 -33 166 -84q70 -55 106 -138q39 -78 39 -184t-39 -184q-41 -82 -108 -135q-76 -55 -166 -82q-98 -29 -211 -29h-586zM377 182h379q166 0 239 72q76 68 76 176q0 117 -76 184q-74 68 -231 68h-387v-500z" />
<glyph unicode="&#x412;" horiz-adv-x="1386" d="M170 0v1372h569q117 0 199 -26q86 -27 147 -76q59 -49 86 -115q31 -66 31 -143q0 -88 -39 -160q-41 -76 -110 -109v-18q102 -29 172 -121q63 -92 63 -207q0 -82 -31 -153q-29 -72 -90 -125q-57 -55 -151 -86q-90 -33 -217 -33h-629zM379 176h420q139 0 213 57 q72 61 71 170q0 106 -71 166q-76 59 -215 60h-418v-453zM379 803h393q117 0 170 53q55 55 55 148q0 193 -264 192h-354v-393z" />
<glyph unicode="&#x413;" horiz-adv-x="1247" d="M170 0v1372h999v-184h-790v-1188h-209z" />
<glyph unicode="&#x414;" horiz-adv-x="1712" d="M98 88v92h56q49 0 104 49q55 47 90 144q23 61 47 176q16 72 35 209q12 111 19 229q6 117 6 238v147h958v-1190h201v-92l-21 -387h-174l-14 297h-1098l-18 -297h-176zM469 182h737v1010h-549q-4 -371 -51 -629q-45 -260 -137 -381z" />
<glyph unicode="&#x415;" d="M170 0v1372h987v-182h-782v-387h688v-180h-688v-439h819v-184h-1024z" />
<glyph unicode="&#x416;" horiz-adv-x="2134" d="M68 0l512 745l-449 627h246l368 -545l222 -12v557h200v-557l222 12l368 545h246l-449 -627l512 -745h-243l-424 643h-232v-643h-200v643h-232l-422 -643h-245z" />
<glyph unicode="&#x417;" horiz-adv-x="1337" d="M98 172l119 150q111 -92 221 -129q109 -39 246 -39q168 0 258 71q86 70 86 185q0 104 -70 155q-70 53 -202 53h-324v181h309q102 0 162 55t60 141q0 104 -72 164q-72 61 -234 62q-100 0 -194 -33q-98 -41 -180 -109l-113 148q211 174 498 174q117 0 215 -29 q94 -31 157 -82q61 -49 97 -119q33 -68 32 -147q0 -94 -39 -170q-41 -78 -114 -111v-20q102 -33 164 -117q59 -88 59 -203q0 -84 -35 -165q-39 -80 -110 -138q-76 -61 -181 -94q-109 -35 -247 -35q-170 0 -310 45q-137 49 -258 156z" />
<glyph unicode="&#x418;" horiz-adv-x="1521" d="M170 0v1372h205v-1061l788 1061h189v-1372h-205v1034l-770 -1034h-207z" />
<glyph unicode="&#x419;" horiz-adv-x="1521" d="M170 0v1372h205v-1061l788 1061h189v-1372h-205v1034l-770 -1034h-207zM438 1878h160q4 -76 49 -117q47 -41 113 -41q72 0 112 41q47 37 52 117h159q-2 -70 -26 -129q-23 -57 -66 -100q-39 -41 -100 -68q-61 -23 -131 -22.5t-131 22.5q-61 27 -101 68q-41 43 -65 100 q-23 61 -25 129z" />
<glyph unicode="&#x41a;" horiz-adv-x="1439" d="M170 0v1372h205v-563l213 16l446 547h258l-534 -635l585 -737h-266l-485 639h-217v-639h-205z" />
<glyph unicode="&#x41b;" horiz-adv-x="1562" d="M37 4l45 176q55 -16 96 -16q49 0 84 20q37 18 68 68q66 113 84 334q18 227 18 569v217h961v-1372h-211v1192h-541q0 -127 -4 -348q-2 -145 -21 -305q-14 -135 -47 -248q-31 -111 -84 -182q-51 -68 -118 -101q-76 -33 -162 -33q-49 0 -86 6.5t-82 22.5z" />
<glyph unicode="&#x41c;" horiz-adv-x="1720" d="M170 0v1372h229l463 -715l465 715h223v-1372h-202v1053h-19l-420 -645h-104l-418 645h-18v-1053h-199z" />
<glyph unicode="&#x41d;" horiz-adv-x="1499" d="M170 0v1372h211v-577h737v577h209v-1372h-209v608h-737v-608h-211z" />
<glyph unicode="&#x41e;" horiz-adv-x="1660" d="M109 686q0 145 53 281q53 133 149 225q90 94 226 151q133 58 292.5 58t294.5 -53q131 -55 228 -152q90 -90 147 -227q51 -137 51 -283q0 -141 -51 -276q-55 -131 -147 -230q-102 -100 -230 -151q-127 -57 -293 -58q-164 0 -292 56q-129 53 -230 153q-92 94 -147 226 q-51 137 -51 280zM317 686q0 -111 35 -211q37 -96 102.5 -167.5t159.5 -112.5q100 -41 215 -41q117 0 215 39q96 43 164 112q68 74 101 170q35 98 34 211q0 117 -36 215q-33 90 -101 168q-63 66 -162 111q-100 39 -215 39q-121 0 -215 -41q-94 -39 -161.5 -113t-100.5 -168 q-35 -100 -35 -211z" />
<glyph unicode="&#x41f;" horiz-adv-x="1484" d="M170 0v1372h1145v-1372h-211v1184h-723v-1184h-211z" />
<glyph unicode="&#x420;" horiz-adv-x="1382" d="M170 0v1372h584q106 0 209 -33q102 -39 163 -98q68 -59 109 -149q39 -86 39 -195q0 -113 -41 -201t-117 -151q-70 -61 -174 -96q-96 -33 -211 -33h-350v-416h-211zM381 596h346q156 0 248 80q90 78 90 219q0 139 -84 219q-84 78 -240 78h-360v-596z" />
<glyph unicode="&#x421;" horiz-adv-x="1488" d="M109 682q0 145 51 283q57 135 151 227q94 96 236 154q137 55 315 55q145 0 281 -49q131 -47 229 -133l-108 -148q-170 143 -420 143q-119 0 -217 -36q-98 -39 -164 -107q-70 -70 -107 -166q-39 -96 -39 -219q0 -125 39 -221q41 -102 109 -166q72 -70 166 -104 q92 -37 207 -37q129 0 243 43q115 47 203 127l117 -144q-223 -213 -574 -213q-162 0 -290 49q-129 47 -230 142q-92 92 -147 223q-51 137 -51 297z" />
<glyph unicode="&#x422;" horiz-adv-x="1411" d="M98 1188v184h1215v-184h-504v-1188h-207v1188h-504z" />
<glyph unicode="&#x423;" horiz-adv-x="1425" d="M78 1372h241l422 -790h21l356 790h228l-543 -1147q-63 -133 -144 -196q-82 -59 -184 -60q-106 0 -205 41l49 170q37 -12 60 -16q31 -8 61 -8q53 0 101 28q45 27 73 88l35 78z" />
<glyph unicode="&#x424;" horiz-adv-x="1820" d="M98 692q0 119 43 215.5t117 159.5q68 61 168 100q102 33 205 33h176v201h207v-201h176q111 0 215 -33q100 -39 168 -98q68 -66 110 -156q39 -100 39 -213q0 -119 -43 -215q-43 -94 -114 -159q-72 -61 -170 -101q-102 -33 -205 -32h-176v-193h-207v193h-176 q-111 0 -215 32q-100 37 -170 99q-70 68 -109 155q-39 92 -39 213zM305 692q0 -160 92 -241q90 -82 252 -82h158v655h-158q-166 0 -256 -86q-88 -88 -88 -246zM1014 369h157q168 0 254 88q90 88 91 243q0 160 -93 242q-90 82 -252 82h-157v-655z" />
<glyph unicode="&#x425;" horiz-adv-x="1472" d="M78 0l502 717l-457 655h248l362 -538h21l346 538h252l-459 -670l502 -702h-258l-396 586h-20l-385 -586h-258z" />
<glyph unicode="&#x426;" horiz-adv-x="1572" d="M170 0v1372h209v-1190h702v1190h207v-1190h201v-92l-21 -387h-174l-14 297h-1110z" />
<glyph unicode="&#x427;" horiz-adv-x="1443" d="M139 911v461h207v-444q0 -162 78 -256q78 -88 244 -88q113 0 217 30q104 37 180 88v670h209v-1372h-209v514q-78 -51 -193 -84q-119 -27 -233 -27q-231 0 -369 127q-131 127 -131 381z" />
<glyph unicode="&#x428;" horiz-adv-x="2054" d="M170 0v1372h207v-1192h547v1192h206v-1192h547v1192h207v-1372h-1714z" />
<glyph unicode="&#x429;" horiz-adv-x="2168" d="M170 0v1372h207v-1192h547v1192h206v-1192h547v1192h207v-1190h199v-92l-19 -387h-176l-12 297h-1706z" />
<glyph unicode="&#x42a;" horiz-adv-x="1546" d="M57 1200v172h539v-459h340q115 0 207 -30q88 -29 166 -88q74 -63 108 -144q41 -82 41 -196q0 -109 -39 -189q-43 -92 -108 -143q-66 -59 -162 -90q-92 -33 -205 -33h-557v1188zM596 180h317q166 0 254 70q82 76 82 207q0 141 -86 208.5t-252 67.5h-315v-553z" />
<glyph unicode="&#x42b;" horiz-adv-x="1800" d="M170 0v1372h209v-459h330q111 0 209 -30q94 -31 163 -88q74 -61 111 -144q41 -82 41 -196q0 -109 -39 -189q-43 -92 -109 -143q-66 -59 -163 -90q-90 -33 -205 -33h-547zM379 180h307q168 0 254 70q84 74 84 207q0 141 -86 209q-90 68 -254 67h-305v-553zM1421 0v1372 h209v-1372h-209z" />
<glyph unicode="&#x42c;" horiz-adv-x="1341" d="M170 0v1372h209v-459h350q111 0 209 -30q94 -31 164 -88q74 -61 110 -144q41 -82 41 -196q0 -109 -39 -189q-43 -92 -108 -143q-66 -59 -164 -90q-90 -33 -205 -33h-567zM379 180h328q168 0 254 70q84 74 83 207q0 141 -86 209q-88 68 -253 67h-326v-553z" />
<glyph unicode="&#x42d;" horiz-adv-x="1464" d="M88 184l117 140q96 -88 203 -127q111 -41 227 -41q106 0 196 32q92 33 156 91q66 53 109 139q41 86 49 188h-617v182h617q-6 96 -47 179q-39 76 -107 133q-66 55 -153 86q-88 31 -189 31q-113 0 -223 -35q-104 -35 -190 -105l-111 150q102 88 242 131q137 43 286 43 q158 0 285 -51q133 -53 221 -146q92 -90 146 -223q51 -129 51 -291q0 -154 -49 -284q-51 -133 -142 -228q-92 -96 -225 -151t-301 -56q-338 0 -551 213z" />
<glyph unicode="&#x42e;" horiz-adv-x="2070" d="M170 0v1372h205v-588h219q14 133 72 250q55 113 143 195q86 80 207 127q115 45 258 45q158 0 280 -51q133 -55 218 -146q90 -96 141 -225q49 -131 49 -293q0 -150 -49 -283q-53 -133 -141 -227q-90 -96 -218 -151q-129 -53 -280 -54q-145 0 -266 45t-207 125 q-90 84 -142 201q-53 123 -65 266h-219v-608h-205zM791 684q0 -121 34 -221q33 -96 97 -170q61 -66 151 -109q92 -37 201 -37q104 0 196 37q90 43 152 109q66 72 98 170q35 100 35 223q0 125 -33 223q-35 102 -94 168q-57 68 -151 111q-88 37 -203 37q-106 0 -195 -37 q-80 -33 -153 -107q-68 -82 -99 -172q-37 -102 -36 -225z" />
<glyph unicode="&#x42f;" horiz-adv-x="1400" d="M88 0l361 504q-145 45 -228 155q-80 109 -80 256q0 102 37 187q39 86 105 143q66 59 159 94q92 33 209 33h580v-1372h-209v453h-373l-309 -453h-252zM350 915q0 -135 88 -208q90 -74 236 -74h348v559h-356q-147 0 -232 -70q-84 -68 -84 -207z" />
<glyph unicode="&#x430;" horiz-adv-x="1275" d="M94 324q0 160 125 247q127 90 342 91q90 0 164 -15q82 -16 141 -37v58q0 111 -65 170q-63 57 -205 57q-184 0 -354 -90l-80 143q113 70 209 92q98 29 221 29q244 0 356 -111q113 -113 113 -309v-383q0 -61 22 -94q23 -27 60 -27q25 0 43 9l18 -152q-41 -20 -104 -20 q-82 0 -129 38q-55 37 -70 138q-133 -182 -405 -183q-186 0 -295 91q-106 88 -107 258zM297 319q0 -84 59 -131q61 -43 176 -43q70 0 132 19q55 20 106 55q43 35 72 84q27 45 26 107v45q-129 45 -299 45q-147 0 -209 -49q-63 -51 -63 -132z" />
<glyph unicode="&#x431;" horiz-adv-x="1325" d="M113 629q0 178 39 307q37 133 106 223q72 92 168 148q104 55 219 75l211 35q66 12 98.5 45t32.5 80q0 31 -8 49l166 29q18 -51 18 -111q0 -102 -61 -170q-61 -70 -168 -88l-272 -47q-160 -29 -252 -127q-94 -96 -113 -258h20q61 80 158 131q102 45 250 45 q106 0 200.5 -34.5t159.5 -100.5q66 -63 103 -160q39 -90 39 -213q0 -115 -43 -211q-45 -94 -119 -161q-78 -70 -178 -103q-100 -37 -219 -37q-129 0 -236 45q-106 51 -174 132q-72 84 -108.5 204.5t-36.5 272.5zM309 565q0 -100 27 -174q25 -74 70 -133q51 -57 114 -86 q68 -29 146 -29q82 0 145 25q66 23 113 65q49 49 71 109q27 61 27 143q0 174 -90 260q-88 86 -242 86q-143 0 -235 -73q-94 -68 -146 -193z" />
<glyph unicode="&#x432;" horiz-adv-x="1171" d="M150 0v1044h493q172 0 266 -75q98 -76 99 -199q0 -70 -31 -123q-31 -47 -86 -76v-16q88 -25 135 -88q47 -70 47 -162q0 -139 -100 -221q-102 -84 -301 -84h-522zM344 170h348q90 0 137 35q47 37 48 108q0 68 -46 105q-41 39 -143 39h-344v-287zM344 621h311q76 0 115 34 q41 33 41 95q0 59 -41 94t-133 35h-293v-258z" />
<glyph unicode="&#x433;" horiz-adv-x="1060" d="M150 0v1044h821v-172h-623v-872h-198z" />
<glyph unicode="&#x434;" horiz-adv-x="1378" d="M68 98v68l59 8q63 10 102 68q45 61 72 159q31 109 41 287q6 113 10 356h803v-874h154v-68l-17 -354h-166l-10 252h-852l-16 -252h-164zM393 170h568v704h-426q0 -127 -11 -266q-8 -109 -32 -219q-14 -74 -41 -133q-20 -53 -58 -86z" />
<glyph unicode="&#x435;" horiz-adv-x="1253" d="M98 520q0 115 41 219q39 98 115 174t178 115q106 41 232 41q109 0 200 -35q88 -35 156 -100q66 -66 98 -154q37 -88 37 -198q0 -20 -4 -66q-2 -20 -10 -61h-842q14 -143 113 -226q96 -80 256 -79q102 0 196 26q90 29 172 88l90 -141q-100 -78 -217 -115 q-121 -33 -245 -33q-133 0 -238 37q-111 43 -176 111q-72 66 -113 170q-39 98 -39 227zM307 618h647q-4 127 -75 203q-74 76 -224 76q-147 0 -237 -74q-90 -78 -111 -205z" />
<glyph unicode="&#x436;" horiz-adv-x="1802" d="M68 0l407 561l-377 483h232l307 -399l170 -12v411h192v-411l166 12l303 399h238l-375 -475l402 -569h-228l-329 477h-177v-477h-192v477h-180l-318 -477h-241z" />
<glyph unicode="&#x437;" horiz-adv-x="1134" d="M78 127l98 137q80 -61 166 -92q90 -29 190 -29q141 0 218 41q76 43 75 127q0 70 -43 107q-41 39 -133 39h-274v159h250q76 0 116 35q39 37 39 101q0 66 -51 108q-49 43 -182 43q-86 0 -170 -22q-74 -23 -148 -76l-92 133q88 68 191 98q98 33 229 33q190 0 305 -78 q115 -80 115 -221q0 -63 -31 -119q-31 -49 -84 -78v-16q74 -27 121 -90q43 -66 43 -148q0 -68 -27 -137q-31 -63 -90 -108q-51 -43 -151 -74q-94 -25 -226 -25q-129 0 -243 33q-113 39 -211 119z" />
<glyph unicode="&#x438;" horiz-adv-x="1282" d="M150 0v1044h196v-761l606 761h181v-1044h-197v750l-600 -750h-186z" />
<glyph unicode="&#x439;" horiz-adv-x="1282" d="M150 0v1044h196v-761l606 761h181v-1044h-197v750l-600 -750h-186zM332 1532h160q2 -70 45 -107q37 -39 102.5 -39t101.5 39q43 37 45 107h162q-2 -70 -28 -127q-23 -51 -66 -94q-37 -35 -96 -58q-53 -20 -119 -20q-68 0 -121 20q-59 20 -96 58q-43 39 -66 94 q-25 55 -24 127z" />
<glyph unicode="&#x43a;" horiz-adv-x="1218" d="M150 0v1044h198v-411l193 18l323 393h248l-401 -471l450 -573h-241l-365 469h-207v-469h-198z" />
<glyph unicode="&#x43b;" horiz-adv-x="1349" d="M31 14l39 158q37 -12 53 -14q37 -4 51 -4q55 0 90 34q35 37 49 93q35 102 47 247q10 168 11 336v180h827v-1044h-201v877h-436q0 -117 -2 -179q-4 -121 -10 -178q-6 -90 -19 -164q-12 -80 -32 -135q-39 -121 -111 -180q-70 -57 -190 -57q-51 0 -91 8q-37 6 -75 22z" />
<glyph unicode="&#x43c;" horiz-adv-x="1439" d="M150 0v1044h231l340 -518l342 518h227v-1044h-192v772h-19l-313 -469h-94l-312 469h-20v-772h-190z" />
<glyph unicode="&#x43d;" horiz-adv-x="1267" d="M150 0v1044h202v-428h563v428h203v-1044h-203v444h-563v-444h-202z" />
<glyph unicode="&#x43e;" horiz-adv-x="1331" d="M98 522q0 113 41 217q43 100 119 174q76 76 178 115q107 41 230 41q129 0 229 -41q98 -35 180 -110q78 -74 117 -175q41 -104 41 -220.5t-43 -217t-117 -174.5q-80 -76 -180 -115q-106 -41 -227 -41q-131 0 -232 41q-98 35 -180 111q-76 76 -115 174q-41 104 -41 221z M297 522q0 -86 27 -153q27 -70 73 -119q45 -45 117 -78q74 -27 152 -27q80 0 153 27q74 33 115 78q49 49 74 119q27 68 26 153q0 84 -26 150q-27 70 -74 119q-49 53 -117 79q-69 29 -151 29q-78 0 -154 -27q-74 -33 -115 -77q-51 -53 -73 -121q-27 -68 -27 -152z" />
<glyph unicode="&#x43f;" horiz-adv-x="1265" d="M150 0v1044h966v-1044h-203v874h-561v-874h-202z" />
<glyph unicode="&#x440;" horiz-adv-x="1331" d="M150 -403v1447h157l21 -190q70 117 172 166q98 49 233 49q111 0 203 -37q96 -41 158 -106q68 -74 102 -168q35 -104 35 -223q0 -141 -47 -242q-43 -106 -121 -174q-76 -72 -174 -107q-98 -37 -205 -37q-96 0 -180 23q-76 18 -158 76v-477h-196zM346 264 q139 -115 322 -114q82 0 147 26q72 31 113 78q47 49 73 123q27 68 27 164q0 72 -20 143q-27 72 -66 113q-39 45 -102 73q-55 27 -135 27q-131 0 -224 -70q-90 -76 -135 -190v-373z" />
<glyph unicode="&#x441;" horiz-adv-x="1193" d="M98 520q0 129 45 225q43 104 119 175q76 72 176 110q96 39 217 39q143 0 246 -41q102 -35 184 -117l-110 -131q-61 53 -135 84q-80 31 -181 31q-74 0 -139 -24.5t-117 -71.5q-49 -47 -77 -115q-29 -70 -29 -154q0 -174 96 -276t266 -102q94 0 183 32q88 39 143 101 l121 -125q-88 -98 -201 -140q-109 -45 -254 -45q-131 0 -237 41q-106 45 -172 117q-74 72 -107 174q-37 98 -37 213z" />
<glyph unicode="&#x442;" horiz-adv-x="1146" d="M88 872v172h971v-172h-385v-872h-201v872h-385z" />
<glyph unicode="&#x443;" horiz-adv-x="1306" d="M78 1044h233l377 -835h19l301 835h221l-477 -1159q-57 -145 -140 -217q-80 -68 -202 -67q-115 0 -193 53l55 153q39 -18 64 -22q31 -6 59 -6q59 0 101 31q43 31 71 102l27 74z" />
<glyph unicode="&#x444;" horiz-adv-x="1906" d="M98 518q0 137 41 234q35 96 107 174q76 72 164 106q94 37 202 37q141 0 242 -57v428h197v-482q59 55 120 82q70 29 162 29q221 0 350 -137q125 -141 125 -406q0 -127 -39 -233q-45 -104 -110 -174q-72 -72 -162 -107q-96 -37 -203 -37q-80 0 -131 15q-55 14 -112 43v-436 h-197v489q-55 -57 -121 -82q-63 -29 -160 -29q-221 0 -348 140q-127 137 -127 403zM299 516q0 -195 82 -283q80 -86 213 -86q84 0 147 35q59 31 113 101v555q-57 31 -109 45q-49 14 -114 14q-162 0 -246 -102q-86 -104 -86 -279zM1051 207q53 -29 110 -45q49 -14 115 -15 q160 0 246 104.5t86 278.5q0 193 -82 281t-215 88q-84 0 -148 -35q-63 -37 -112 -104v-553z" />
<glyph unicode="&#x445;" horiz-adv-x="1284" d="M78 0l409 551l-374 493h252l270 -399h20l267 399h239l-370 -501l413 -543h-252l-311 442h-20l-293 -442h-250z" />
<glyph unicode="&#x446;" horiz-adv-x="1298" d="M150 0v1044h196v-874h539v874h196v-874h156v-68l-16 -354h-166l-13 252h-892z" />
<glyph unicode="&#x447;" horiz-adv-x="1189" d="M109 690v354h196v-323q0 -129 57 -193q59 -68 185 -67q90 0 166 26q78 33 137 86v471h197v-1044h-197v395q-59 -49 -148 -78q-80 -27 -188 -26q-190 0 -297 106q-109 109 -108 293z" />
<glyph unicode="&#x448;" horiz-adv-x="1767" d="M150 0v1044h194v-874h442v874h195v-874h442v874h195v-1044h-1468z" />
<glyph unicode="&#x449;" horiz-adv-x="1835" d="M150 0v1044h194v-874h442v874h195v-874h442v874h195v-874h156v-68l-17 -354h-166l-12 252h-1429z" />
<glyph unicode="&#x44a;" horiz-adv-x="1314" d="M57 877v167h492v-344q66 31 135 50q76 16 145 16q86 0 160 -25q70 -20 129 -69q55 -49 86 -119t31 -162q0 -84 -30.5 -155.5t-90.5 -124.5q-57 -51 -143 -82q-92 -29 -199 -29h-420v877h-295zM549 170h211q137 0 207 59q68 57 67 164q0 98 -59 152q-61 55 -180 55 q-133 0 -246 -63v-367z" />
<glyph unicode="&#x44b;" horiz-adv-x="1540" d="M150 0v1044h200v-344q63 31 133 50q76 16 148 16q86 0 160 -25q70 -20 124 -69q53 -47 84 -117t31 -162q0 -86 -31 -155q-27 -70 -86 -125q-66 -55 -145 -84q-90 -29 -197 -29h-421zM350 170h209q139 0 207 61q63 63 63 164t-57 152q-59 53 -178 53q-131 0 -244 -63v-367 zM1188 0v1044h203v-1044h-203z" />
<glyph unicode="&#x44c;" horiz-adv-x="1128" d="M150 0v1044h200v-346q59 31 137 52q78 16 150 16q84 0 158 -25q78 -23 131 -69q55 -41 90 -115q33 -68 33 -164q0 -90 -33 -157q-29 -68 -90 -125q-66 -53 -148 -82q-92 -29 -198 -29h-430zM350 168h217q143 0 211 61q70 61 70 166q0 100 -62 152q-59 53 -180 53 q-141 0 -256 -65v-367z" />
<glyph unicode="&#x44d;" horiz-adv-x="1177" d="M88 147l119 127q59 -57 141 -94q86 -33 180 -33q72 0 127 21q66 18 109 57q49 41 76 94q31 55 37 132h-437v165h432q-16 139 -106 211t-236 72q-174 0 -307 -115l-104 136q78 72 180 110q96 39 227 39q137 0 238 -43q100 -43 172 -116.5t104 -172.5q37 -102 37 -213 q0 -125 -41 -225q-37 -98 -110.5 -172t-175.5 -113q-96 -39 -224 -39q-141 0 -247 41q-106 43 -191 131z" />
<glyph unicode="&#x44e;" horiz-adv-x="1712" d="M150 0v1044h198v-428h184q16 98 58 183q51 88 115 143q68 55 159 94q98 33 201 33q125 0 225 -41q100 -39 174 -115q72 -70 111 -172q39 -98 39 -221q0 -117 -39 -213q-41 -102 -113 -174q-68 -72 -172 -117q-106 -41 -225 -41q-117 0 -209 37q-92 33 -164 99 q-70 61 -110 147q-41 92 -54 193h-180v-451h-198zM718.5 522q0.5 -80 22.5 -153q20 -66 68 -119q45 -47 109 -78q70 -27 147.5 -27t142.5 27q68 31 111 80q45 51 70 121q25 68 24 151q0 78 -22 152q-20 66 -68 119q-39 45 -109 77q-69 27 -149 27q-74 0 -143 -27 q-63 -31 -109 -77q-45 -51 -70 -121q-25 -72 -24.5 -152z" />
<glyph unicode="&#x44f;" horiz-adv-x="1191" d="M88 0l287 356q-109 31 -172 119q-63 84 -64 203q0 82 31 149q31 70 92 115q57 47 148 76q82 27 196 26h434v-1044h-198v383q-123 -59 -279 -66l-237 -317h-238zM340 678q0 -98 66 -146q59 -53 178 -53q141 0 258 68v330h-226q-137 0 -206 -54q-70 -51 -70 -145z" />
<glyph unicode="&#x451;" horiz-adv-x="1253" d="M98 520q0 115 41 219q39 98 115 174t178 115q106 41 232 41q109 0 200 -35q88 -35 156 -100q66 -66 98 -154q37 -88 37 -198q0 -20 -4 -66q-2 -20 -10 -61h-842q14 -143 113 -226q96 -80 256 -79q102 0 196 26q90 29 172 88l90 -141q-100 -78 -217 -115 q-121 -33 -245 -33q-133 0 -238 37q-111 43 -176 111q-72 66 -113 170q-39 98 -39 227zM303 1378.5q0 55.5 37 91.5q41 35 92 35q53 0 92 -35q39 -37 39 -92t-39 -92q-39 -35 -92 -35q-51 0 -92 35q-37 37 -37 92.5zM307 618h647q-4 127 -75 203q-74 76 -224 76 q-147 0 -237 -74q-90 -78 -111 -205zM766 1378.5q0 55.5 37 91.5q41 35 92 35t92 -35q37 -37 37 -92t-37 -92q-41 -35 -92 -35t-92 35q-37 37 -37 92.5z" />
<glyph unicode="&#x452;" horiz-adv-x="1353" d="M47 1190v160h141l21 145h182v-145h320v-160h-320v-332q57 104 150 158q94 53 233 53q197 0 316 -115q115 -115 114 -338v-581q0 -94 -28 -174q-27 -72 -78 -123q-49 -49 -119 -74q-66 -27 -148 -26q-74 0 -139 16q-61 16 -119 55l72 152q88 -47 176 -47q96 0 142 55 q43 59 43 156v569q0 152 -68 229q-70 74 -197 74q-123 0 -215 -80t-135 -225v-592h-201v1190h-143z" />
<glyph unicode="&#x453;" horiz-adv-x="1060" d="M150 0v1044h821v-172h-623v-872h-198zM500 1272l174 383l168 -99l-168 -284h-174z" />
<glyph unicode="&#x454;" horiz-adv-x="1193" d="M98 520q0 129 45 225q43 104 119 175q76 72 176 110q96 39 217 39q137 0 248 -41q106 -43 182 -119l-116 -131q-59 53 -133 86t-177 33q-68 0 -122 -18q-59 -18 -107 -56q-45 -33 -80 -86q-33 -51 -45 -114h475v-166h-479q14 -145 111 -228q94 -82 247 -82q98 0 185 37 q82 35 141 101l121 -125q-168 -184 -455 -185q-133 0 -237 41q-106 45 -172 117q-74 72 -107 174q-37 98 -37 213z" />
<glyph unicode="&#x455;" horiz-adv-x="1165" d="M98 102l86 154q92 -59 187 -86q92 -27 198 -27q150 0 222 39q72 41 71 111q0 59 -39 96q-45 35 -141 43l-246 29q-150 16 -225 92q-78 74 -78 203q0 137 115 227q113 86 338 86q123 0 227 -27q117 -31 199 -84l-84 -153q-160 92 -346 92q-121 0 -189 -37 q-63 -41 -63 -104q0 -55 35 -84q33 -31 114 -39l213 -25q166 -20 266 -92q98 -74 99 -215q0 -154 -131 -240q-129 -86 -365 -86q-143 0 -246 29q-104 25 -217 98z" />
<glyph unicode="&#x456;" horiz-adv-x="501" d="M113 1386q0 63 41 101q39 37 98 37q55 0 96 -37q43 -37 43 -101q0 -61 -43 -98q-41 -37 -96 -37q-59 0 -98 37q-41 37 -41 98zM150 0v1044h202v-1044h-202z" />
<glyph unicode="&#x457;" horiz-adv-x="503" d="M-63 1378q0 59 38 92q39 35 90.5 35t90.5 -35q39 -33 39 -92q0 -55 -39 -92q-39 -35 -90.5 -35t-90.5 35q-39 37 -38 92zM150 0v1044h204v-1044h-204zM313 1378.5q0 59.5 39 91.5q39 35 90.5 35t89.5 -35q39 -37 39 -92t-39 -92q-39 -35 -90 -35t-90 35q-39 33 -39 92.5z " />
<glyph unicode="&#x458;" horiz-adv-x="514" d="M-299 -420l68 158q57 -31 100 -39q51 -10 106 -10q84 0 140 57q51 61 51 180v1118h199v-1118q0 -90 -25 -168q-20 -72 -70 -131q-47 -53 -118 -86q-74 -31 -166 -30q-78 0 -150 16q-68 14 -135 53zM125 1389q0 61 43 98q39 39 96.5 39t95.5 -39q43 -37 43 -98 q0 -63 -43 -101q-41 -37 -96 -37t-96 37q-43 37 -43 101z" />
<glyph unicode="&#x459;" horiz-adv-x="1941" d="M31 14l39 158q37 -12 53 -14q37 -4 51 -4q55 0 90 34q35 37 49 93q35 102 47 251q10 168 11 340v172h813v-346q53 31 127 52q76 16 143 16q82 0 156 -25q78 -23 131 -69q55 -41 90 -115q33 -68 33 -164q0 -90 -33 -157q-33 -70 -94 -125q-63 -53 -148 -82 q-90 -29 -192 -29h-412v877h-424q0 -117 -2 -179q-4 -121 -10 -178q-6 -90 -19 -164q-12 -80 -32 -135q-39 -121 -111 -180q-70 -57 -190 -57q-51 0 -91 8q-37 6 -75 22zM1184 168h200q139 0 209 61t70 166q0 100 -61 152q-63 53 -179 53q-127 0 -239 -65v-367z" />
<glyph unicode="&#x45a;" horiz-adv-x="1863" d="M150 0v1044h202v-426h553v426h201v-346q53 31 127 52q72 16 143 16q82 0 156 -25q74 -23 131 -69q51 -39 90 -115q33 -76 33 -164q0 -90 -33 -157q-33 -70 -94 -125q-63 -53 -148 -82q-90 -29 -192 -29h-414v449h-553v-449h-202zM1106 168h201q135 0 206 61q70 61 70 166 q0 98 -59 152q-63 53 -178 53q-127 0 -240 -65v-367z" />
<glyph unicode="&#x45b;" horiz-adv-x="1353" d="M47 1190v160h141l21 145h182v-145h320v-160h-320v-332q57 104 150 158q94 53 233 53q197 0 316 -115q115 -115 114 -338v-616h-198v594q0 152 -68 229q-70 74 -197 74q-123 0 -215 -80t-135 -225v-592h-201v1190h-143z" />
<glyph unicode="&#x45c;" horiz-adv-x="1218" d="M150 0v1044h198v-411l193 18l323 393h248l-401 -471l450 -573h-241l-365 469h-207v-469h-198zM528 1272l174 383l168 -99l-168 -284h-174z" />
<glyph unicode="&#x45e;" horiz-adv-x="1306" d="M78 1044h233l377 -835h19l301 835h221l-477 -1159q-57 -145 -140 -217q-80 -68 -202 -67q-115 0 -193 53l55 153q39 -18 64 -22q31 -6 59 -6q59 0 101 31q43 31 71 102l27 74zM367 1532h159q2 -66 43 -107q41 -39 104.5 -39t104.5 39q41 41 43 107h162q-2 -70 -29 -127 q-23 -51 -65 -94q-37 -35 -96 -58q-53 -20 -119 -20q-68 0 -121 20q-59 20 -96 58q-43 39 -66 94q-25 55 -24 127z" />
<glyph unicode="&#x45f;" horiz-adv-x="1269" d="M150 0v1044h202v-874h566v874h202v-1044h-387l-14 -252h-170l-14 252h-385z" />
<glyph unicode="&#x490;" horiz-adv-x="1247" d="M170 0v1372h797l26 324h176v-508h-790v-1188h-209z" />
<glyph unicode="&#x491;" horiz-adv-x="1044" d="M150 0v1044h622l23 259h168v-431h-615v-872h-198z" />
<glyph unicode="&#x2000;" horiz-adv-x="1009" />
<glyph unicode="&#x2001;" horiz-adv-x="2019" />
<glyph unicode="&#x2002;" horiz-adv-x="1009" />
<glyph unicode="&#x2003;" horiz-adv-x="2019" />
<glyph unicode="&#x2004;" horiz-adv-x="673" />
<glyph unicode="&#x2005;" horiz-adv-x="504" />
<glyph unicode="&#x2006;" horiz-adv-x="336" />
<glyph unicode="&#x2007;" horiz-adv-x="336" />
<glyph unicode="&#x2008;" horiz-adv-x="252" />
<glyph unicode="&#x2009;" horiz-adv-x="403" />
<glyph unicode="&#x200a;" horiz-adv-x="112" />
<glyph unicode="&#x2010;" horiz-adv-x="876" d="M129 492v172h616v-172h-616z" />
<glyph unicode="&#x2011;" horiz-adv-x="876" d="M129 492v172h616v-172h-616z" />
<glyph unicode="&#x2012;" horiz-adv-x="876" d="M129 492v172h616v-172h-616z" />
<glyph unicode="&#x2013;" horiz-adv-x="1337" d="M190 492v172h957v-172h-957z" />
<glyph unicode="&#x2014;" horiz-adv-x="2066" d="M334 492v172h1399v-172h-1399z" />
<glyph unicode="&#x2018;" horiz-adv-x="444" d="M88 1067q0 12 4 37l8 33l111 278l113 -29l-48 -202q35 -10 58 -41q23 -35 22 -76q0 -61 -39 -94q-39 -37 -96 -37q-53 0 -94 35q-39 33 -39 96z" />
<glyph unicode="&#x2019;" horiz-adv-x="444" d="M88 1247q0 57 39 96q45 35 96 35q57 0 94 -35q39 -31 39 -96q0 -14 -4 -35l-8 -34l-111 -279l-112 29l47 202q-35 10 -57 41q-23 35 -23 76z" />
<glyph unicode="&#x201a;" horiz-adv-x="444" d="M88 100q0 57 39 97q45 35 96 34q57 0 94 -34q39 -31 39 -97q0 -14 -4 -34l-8 -35l-111 -279l-112 29l47 203q-35 10 -57 41q-23 35 -23 75z" />
<glyph unicode="&#x201c;" horiz-adv-x="733" d="M68 1067q0 39 12 70l108 286l123 -34l-51 -203q35 -12 55 -43q20 -33 21 -76q0 -61 -39 -94q-41 -37 -96 -37q-57 0 -95 37q-39 33 -38 94zM397 1067q0 12 4 37q2 6 5.5 18.5t3.5 16.5l98 250l110 -29l-32 -176q35 -10 57 -41q23 -35 23 -76q0 -61 -39 -94 q-41 -37 -94.5 -37t-94.5 35t-41 96z" />
<glyph unicode="&#x201d;" horiz-adv-x="733" d="M68 1247q0 59 38 96q41 35 95 35q59 0 94 -35q41 -29 41 -96q0 -12 -4 -37q-2 -6 -5 -18t-3 -16l-99 -250l-110 28l32 176q-35 10 -57 41q-23 35 -22 76zM397 1247q0 59 39 96q41 35 96.5 35t94.5 -35q39 -37 39 -96q0 -39 -13 -69l-108 -287l-123 35l51 202 q-35 12 -55 43q-20 33 -21 76z" />
<glyph unicode="&#x201e;" horiz-adv-x="733" d="M68 100q0 59 38 97q41 35 95 34q59 0 94 -34q41 -29 41 -97q0 -12 -4 -37q-2 -6 -5 -18t-3 -16l-99 -250l-110 28l32 177q-35 10 -57 41q-23 35 -22 75zM397 100q0 59 39 97q41 35 96.5 34.5t94.5 -34.5q39 -37 39 -97q0 -39 -13 -69l-108 -287l-123 35l51 203 q-35 12 -55 43q-20 33 -21 75z" />
<glyph unicode="&#x2020;" horiz-adv-x="905" d="M109 872v177h260l-15 276h199l-14 -276h258v-177l-258 15l12 -887h-195l13 887z" />
<glyph unicode="&#x2021;" horiz-adv-x="905" d="M109 467v174h260v246l-260 -15v177h260l-15 276h199l-14 -276h258v-177l-258 15v-246h258v-174l-260 14l14 -481h-195l15 481z" />
<glyph unicode="&#x2022;" horiz-adv-x="747" d="M211 686q0 72 49 117q49 43 115 43q68 0 112 -43q47 -47 48 -117q0 -72 -48 -115q-45 -43 -112 -43q-66 0 -115 43t-49 115z" />
<glyph unicode="&#x2026;" horiz-adv-x="1316" d="M109 121q0 59 41 96q40 35 93.5 35t94.5 -35q41 -37 41 -96.5t-41 -95.5q-39 -37 -94.5 -37t-93.5 37q-41 37 -41 96zM522 121q0 59 41 96q41 35 94 35q51 0 97 -35q41 -37 41 -96.5t-41 -95.5q-43 -37 -97 -37q-55 0 -94 37q-41 37 -41 96zM936 121q0 59 41 96 q41 35 94 35q55 0 96 -35q41 -37 41 -96.5t-41 -96t-96 -36.5t-94 37q-41 37 -41 96z" />
<glyph unicode="&#x202f;" horiz-adv-x="403" />
<glyph unicode="&#x2030;" horiz-adv-x="2336" d="M88 1003.5q0 65.5 24.5 123t67.5 98.5q45 45 103 65q61 25 132.5 25t133.5 -25q59 -20 102 -65q43 -41 67.5 -98.5t24.5 -123t-24.5 -123t-67.5 -98.5q-45 -45 -102 -65q-61 -25 -133 -25t-133 25q-59 20 -103 65q-43 41 -67.5 98.5t-24.5 123zM233 66l996 1232l129 -102 l-993 -1231zM258 1003.5q0 -71.5 43 -114.5t114.5 -43t114.5 43t43 114.5t-43 114.5t-114.5 43t-114.5 -43t-43 -114.5zM882.5 296.5q0.5 63.5 24.5 123.5q25 57 68 100q45 41 102 66q63 22 133 22q68 0 129 -22q59 -25 105 -66q43 -43 67 -100q25 -59 25 -123t-25 -123 q-25 -57 -67 -100q-45 -41 -105 -66q-61 -23 -129 -22q-70 0 -133 22q-57 25 -102 66q-43 43 -68 100q-25 59 -24.5 122.5zM1053 297q0 -72 43 -115t114.5 -43t112.5 43q43 43 43 115t-43 115q-41 43 -112.5 43t-114.5 -43t-43 -115zM1624 296.5q0 63.5 25 123.5 q25 57 67 100q45 41 103 66q61 22 130.5 22t131.5 -22q59 -25 104 -66q43 -43 68 -100q25 -59 24.5 -123t-24.5 -123q-25 -57 -68 -100q-45 -41 -104 -66q-61 -23 -131 -22.5t-131 22.5q-57 25 -103 66q-43 43 -67 100q-25 59 -25 122.5zM1794 297q0 -70 41 -115 q43 -43 114.5 -43t114.5 43t43 115t-43 115t-114.5 43t-114.5 -43q-41 -45 -41 -115z" />
<glyph unicode="&#x2039;" horiz-adv-x="663" d="M88 506v55l348 346l121 -112l-246 -256l246 -263l-123 -116z" />
<glyph unicode="&#x203a;" horiz-adv-x="663" d="M106 272l246 256l-246 263l121 116l348 -346v-55l-348 -346z" />
<glyph unicode="&#x205f;" horiz-adv-x="504" />
<glyph unicode="&#x20ac;" horiz-adv-x="1484" d="M88 440v162h827l-16 -174h-455q45 -129 158 -203q115 -72 277 -71q129 0 223 43q94 41 184 129l121 -136q-104 -109 -236 -163q-135 -55 -307 -56q-256 0 -420 121q-166 121 -223 338zM88 737v164l141 8q37 106 90 181q55 82 140 143q84 57 192 94q115 33 244 33 q285 0 485 -182l-118 -142q-84 74 -172 107q-94 35 -205 35q-170 0 -283 -72q-117 -70 -162 -195h504l-16 -174h-840z" />
<glyph unicode="&#x20b6;" horiz-adv-x="1361" d="M57 213v149h174v146h-174v172h174v655h551q109 0 205 -28q86 -31 154 -84q63 -51 98 -131t35 -172q0 -193 -131 -302q-135 -111 -369 -110h-340v-146h410v-161h-412v-201h-196v199zM434 680h340q150 0 221 63q78 63 78 175q0 109 -74 176q-80 63 -217 63h-348v-477z" />
<glyph unicode="&#x2116;" horiz-adv-x="2242" d="M170 0v1333h192l795 -1034v1034h197v-1333h-207l-778 1010v-1010h-199zM1573 790.5q0 59.5 20 108.5q23 53 60 88q39 41 92 62q56 22 119 22q61 0 118 -22q53 -23 91 -62q35 -33 61 -88q20 -57 20 -108.5t-20 -108.5q-27 -55 -61 -88q-31 -33 -91 -62q-61 -20 -118 -20 q-61 0 -119 20q-57 27 -92 62q-37 35 -60 88q-20 49 -20 108.5zM1595 221v160h537v-160h-537zM1735 790.5q0 -57.5 39 -94.5q39 -33 90 -32.5t90 32.5q37 37 37 94.5t-37 94.5q-39 33 -90 33q-53 0 -92 -33q-37 -37 -37 -94.5z" />
<glyph unicode="&#x2122;" horiz-adv-x="1372" d="M57 1239v135h715l186 -221l183 221h149v-588h-141v388l-172 -203h-43l-168 203v-388h-143v453h-215v-453h-144v453h-207z" />
<glyph unicode="&#x2212;" horiz-adv-x="976" d="M129 608v176h719v-176h-719z" />
<glyph unicode="&#x2248;" horiz-adv-x="958" d="M98 500q49 76 105 110q55 41 147 41q49 0 80 -16q16 -6 62 -33q27 -20 55 -33q25 -16 69 -16q96 0 148 76l96 -94q-37 -72 -98 -111q-57 -39 -150 -39q-51 0 -82 16q-31 12 -63 33q-10 8 -30.5 19.5t-28.5 17.5q-33 14 -66 14q-57 0 -88 -22q-33 -16 -64 -57zM98 850 q45 70 105 113q61 39 147 38q41 0 80 -14q37 -20 62 -35q8 -6 28.5 -18t26.5 -16q33 -14 69 -15q96 0 148 76l96 -94q-37 -70 -98 -111q-57 -39 -150 -39q-43 0 -82 15q-53 29 -63 36q-41 25 -59 33q-25 16 -66 17q-51 0 -88 -21q-37 -25 -64 -59z" />
<glyph unicode="&#x2260;" horiz-adv-x="989" d="M129 440v164h254l51 191h-305v166h352l51 186l166 -45l-41 -141h201v-166h-246l-53 -191h299v-164h-344l-47 -178l-166 47l35 131h-207z" />
<glyph unicode="&#x2264;" horiz-adv-x="829" d="M88 434v39l82 109l459 -338l-105 -140zM131 784v68l502 385l108 -137l-368 -273l368 -278l-104 -135z" />
<glyph unicode="&#x2265;" horiz-adv-x="829" d="M88 549l369 274l-369 275l109 139l501 -385v-68l-505 -370zM201 244l458 338l82 -109v-39l-436 -330z" />
<glyph unicode="&#x25fc;" horiz-adv-x="1044" d="M0 0v1044h1044v-1044h-1044z" />
<glyph horiz-adv-x="651" d="M-68 1526l164 90l168 -344h-168zM246 1587l166 80l145 -395h-160z" />
<glyph horiz-adv-x="458" d="M96 -283q0 61 39 95q41 35 92.5 34.5t96.5 -34.5q39 -35 38 -95q0 -33 -12 -61l-110 -270l-115 41l51 170q-37 10 -57 43q-23 35 -23 77z" />
<glyph horiz-adv-x="1126" d="M78 729q0 72 26 131q31 61 74 98q51 43 113 64q63 23 139 22h43l37 107l106 -8v-1209l35 27q86 68 86 229v1029l119 12l41 -174l119 14l31 -131l-146 -45v-664q0 -154 -51 -258q-53 -109 -176 -192l-346 -242l-88 127l215 158v653q-23 -14 -56 -20q-31 -6 -61 -6 q-51 0 -100 16q-47 18 -82 53q-39 43 -58 90q-20 55 -20 119zM248 739q0 -70 39 -102q35 -33 84 -33t84 23v270h-45q-68 0 -115 -41q-47 -43 -47 -117z" />
<glyph horiz-adv-x="675" d="M20 1378q0 59 37 92q41 35 92.5 35t92.5 -35q37 -33 37 -92q0 -55 -37 -92q-41 -35 -92.5 -35t-92.5 35q-37 37 -37 92zM397 1378.5q0 59.5 37 91.5q41 35 92.5 35t91.5 -35q37 -37 37 -92t-37 -92q-41 -35 -92 -35t-92 35q-37 33 -37 92.5z" />
<glyph horiz-adv-x="692" d="M88 1298v168h518v-168h-518z" />
<glyph horiz-adv-x="811" d="M59 1710q0 59 41 100q42 37 95 37q57 0 96 -37q41 -41 41 -100q0 -57 -41 -92q-39 -37 -96 -37q-55 0 -95 37q-41 35 -41 92zM479 1710q0 59 41 100q41 37 94 37q57 0 97 -37q41 -41 41 -100q0 -57 -41 -92q-39 -37 -97 -37q-53 0 -94 37q-41 35 -41 92z" />
<glyph horiz-adv-x="825" d="M100 1620v176h623v-176h-623z" />
<glyph horiz-adv-x="325" d="M43 1581l180 414l176 -88l-172 -326h-184z" />
<glyph horiz-adv-x="763" d="M70 1878h159q4 -76 50 -117q47 -41 112 -41q72 0 113 41q47 37 51 117h160q-2 -70 -27 -129q-23 -57 -65 -100q-39 -41 -101 -68q-61 -23 -130.5 -22.5t-131.5 22.5q-61 27 -100 68q-41 43 -66 100q-23 61 -24 129z" />
<glyph horiz-adv-x="710" d="M51 1794v21l101 102l204 -178l203 178l98 -102v-21l-278 -264h-49z" />
<glyph horiz-adv-x="546" d="M78 -524q106 29 160 80q53 53 53 110.5t-47 82t-125 28.5v47l43 80v125h170l-15 -144q68 -23 105 -78q41 -49 41 -129q0 -119 -82 -206q-86 -86 -250 -125z" />
<glyph horiz-adv-x="456" d="M92 -287q0 59 39 99q41 37 96 36q57 0 97 -36q41 -35 41 -95q0 -16 -5 -32q-2 -8 -5 -17.5t-3 -11.5l-114 -283l-119 41l57 178q-37 12 -61 43q-23 35 -23 78z" />
<glyph horiz-adv-x="710" d="M51 1630v21l281 264h47l278 -264v-21l-98 -102l-205 178l-202 -178z" />
<glyph horiz-adv-x="946" d="M74 1706q0 61 41 102q39 39 96 39q59 0 100 -39q41 -41 41 -102q0 -55 -41 -96q-43 -37 -100 -37q-55 0 -96 37q-41 41 -41 96zM596 1706q0 61 41 102q39 39 96 39q59 0 98 -39q43 -39 43 -102q0 -55 -43 -96q-41 -37 -98 -37t-96 37q-41 41 -41 96z" />
<glyph horiz-adv-x="718" d="M219 1724.5q0 59.5 41 100.5q39 39 98.5 39t100.5 -39q41 -41 41 -100.5t-41 -100.5q-41 -39 -100.5 -39t-98.5 39q-41 41 -41 100.5z" />
<glyph horiz-adv-x="622" d="M70 1581l133 418l174 -68l-135 -350h-172zM365 1581l176 373l168 -88l-172 -285h-172z" />
<glyph horiz-adv-x="325" d="M-102 1907l178 88l180 -414h-184z" />
<glyph horiz-adv-x="630" d="M-90 1866l170 88l174 -373h-172zM244 1931l172 68l135 -418h-172z" />
<glyph horiz-adv-x="972" d="M92 1624v172h789v-172h-789z" />
<glyph horiz-adv-x="516" d="M100 -158q0 86 39 146q41 63 115 92l104 -80q-47 -10 -67.5 -45t-20.5 -74q0 -59 35 -98q35 -41 117 -49l-27 -150q-145 8 -221 84q-74 70 -74 174z" />
<glyph horiz-adv-x="612" d="M47 1772q0 49 19 92q20 49 53 80q29 33 82 55q43 20 104.5 20t104.5 -20q53 -23 82 -55q33 -31 53 -80q18 -43 18 -92q0 -47 -18 -95q-18 -45 -53 -80q-31 -31 -82 -53q-43 -20 -104.5 -20t-108.5 20q-41 18 -82 53q-37 45 -49 80q-18 47 -19 95zM196.5 1771 q0.5 -45 28.5 -77q31 -31 80 -31t80 30.5t31 78t-31 78t-80 30.5q-51 0 -80 -31q-29 -33 -28.5 -78z" />
<glyph horiz-adv-x="864" d="M37 1673q39 76 106 121q63 45 152 45q47 0 86 -16q31 -12 68 -35q41 -25 61 -35q33 -16 70 -16q53 0 86 20q35 18 55 55l106 -96q-33 -74 -98 -114q-59 -39 -139 -39q-51 0 -94 16q-33 12 -70 35q-39 25 -66 37q-33 16 -71 16q-53 0 -92 -22q-33 -20 -62 -60z" />
<glyph horiz-adv-x="638" d="M4 1358q35 68 82 102q47 37 113 37q51 0 80 -14q37 -16 53 -29l43 -27q20 -12 51 -12q70 0 102 49l93 -94q-31 -63 -76 -92q-41 -35 -105 -35q-49 0 -78 14q-37 14 -55 29l-45 29q-25 12 -53 12q-70 0 -111 -55z" />
<glyph horiz-adv-x="727" d="M-8 1700q35 66 86 102q53 35 129 35q43 0 80 -14q8 -4 27.5 -15.5t27.5 -17.5q33 -25 49 -33q23 -16 60 -16q78 0 110 51l98 -102q-70 -125 -202 -125q-53 0 -84 16q-20 8 -58 33q-33 25 -49 33q-18 16 -59 16q-82 0 -125 -61z" />
<glyph horiz-adv-x="1560" d="M86 0l571 1374h244l576 -1374h-230l-123 311h-694l-121 -311h-223zM475 1630v21l281 264h47l278 -264v-21l-98 -102l-205 178l-203 -178zM500 492h555l-264 671h-25z" />
<glyph horiz-adv-x="1275" d="M94 324q0 160 125 247q127 90 342 91q90 0 164 -15q82 -16 141 -37v58q0 111 -65 170q-63 57 -205 57q-184 0 -354 -90l-80 143q113 70 209 92q98 29 221 29q244 0 356 -111q113 -113 113 -309v-383q0 -61 22 -94q23 -27 60 -27q25 0 43 9l18 -152q-41 -20 -104 -20 q-82 0 -129 38q-55 37 -70 138q-133 -182 -405 -183q-186 0 -295 91q-106 88 -107 258zM297 319q0 -84 59 -131q61 -43 176 -43q70 0 132 19q55 20 106 55q43 35 72 84q27 45 26 107v45q-129 45 -299 45q-147 0 -209 -49q-63 -51 -63 -132zM311 1315v20l273 260h43l272 -260 v-20l-94 -101l-205 172l-192 -172z" />
<glyph d="M170 0v1372h987v-182h-782v-387h688v-180h-688v-439h819v-184h-1024zM383 1630v21l281 264h47l278 -264v-21l-98 -102l-205 178l-203 -178z" />
<glyph horiz-adv-x="1253" d="M98 520q0 115 41 219q39 98 115 174t178 115q106 41 232 41q109 0 200 -35q88 -35 156 -100q66 -66 98 -154q37 -88 37 -198q0 -20 -4 -66q-2 -20 -10 -61h-842q14 -143 113 -226q96 -80 256 -79q102 0 196 26q90 29 172 88l90 -141q-100 -78 -217 -115 q-121 -33 -245 -33q-133 0 -238 37q-111 43 -176 111q-72 66 -113 170q-39 98 -39 227zM307 618h647q-4 127 -75 203q-74 76 -224 76q-147 0 -237 -74q-90 -78 -111 -205zM371 1315v20l272 260h43l272 -260v-20l-94 -101l-205 172l-192 -172z" />
<glyph horiz-adv-x="550" d="M-25 1630v21l281 264h47l279 -264v-21l-99 -102l-204 178l-203 -178zM170 0v1372h211v-1372h-211z" />
<glyph horiz-adv-x="503" d="M-39 1315v20l272 260h43l273 -260v-20l-94 -101l-205 172l-193 -172zM150 0v1044h204v-1044h-204z" />
<glyph horiz-adv-x="1660" d="M109 686q0 145 53 281q53 133 149 225q90 94 226 151q133 58 292.5 58t294.5 -53q131 -55 228 -152q90 -90 147 -227q51 -137 51 -283q0 -141 -51 -276q-55 -131 -147 -230q-102 -100 -230 -151q-127 -57 -293 -58q-164 0 -292 56q-129 53 -230 153q-92 94 -147 226 q-51 137 -51 280zM317 686q0 -111 35 -211q37 -96 102.5 -167.5t159.5 -112.5q100 -41 215 -41q117 0 215 39q96 43 164 112q68 74 101 170q35 98 34 211q0 117 -36 215q-33 90 -101 168q-63 66 -162 111q-100 39 -215 39q-121 0 -215 -41q-94 -39 -161.5 -113t-100.5 -168 q-35 -100 -35 -211zM526 1630v21l281 264h47l279 -264v-21l-99 -102l-205 178l-202 -178z" />
<glyph horiz-adv-x="1331" d="M98 522q0 113 41 217q43 100 119 174q76 76 178 115q107 41 230 41q129 0 229 -41q98 -35 180 -110q78 -74 117 -175q41 -104 41 -220.5t-43 -217t-117 -174.5q-80 -76 -180 -115q-106 -41 -227 -41q-131 0 -232 41q-98 35 -180 111q-76 76 -115 174q-41 104 -41 221z M297 522q0 -86 27 -153q27 -70 73 -119q45 -45 117 -78q74 -27 152 -27q80 0 153 27q74 33 115 78q49 49 74 119q27 68 26 153q0 84 -26 150q-27 70 -74 119q-49 53 -117 79q-69 29 -151 29q-78 0 -154 -27q-74 -33 -115 -77q-51 -53 -73 -121q-27 -68 -27 -152zM371 1315 v20l272 260h43l272 -260v-20l-94 -101l-205 172l-192 -172z" />
<glyph horiz-adv-x="1404" d="M170 0v1372h592q115 0 207 -33q96 -35 161 -94q66 -57 105 -143q37 -82 37 -184q0 -147 -86 -256t-228 -154l359 -508h-254l-307 459h-375v-459h-211zM381 639h358q145 0 236 74q86 74 86 205q0 137 -86 204q-84 70 -227 70h-367v-553zM399 1630v21l281 264h47l279 -264 v-21l-99 -102l-205 178l-202 -178z" />
<glyph horiz-adv-x="1107" d="M150 0v1044h159l19 -217q51 117 155 181q100 61 244 61q94 0 180 -29q84 -31 142 -82l-111 -153q-43 37 -109 63q-68 20 -139 21q-123 0 -211 -82q-88 -80 -131 -217v-590h-198zM352 1315v20l273 260h43l272 -260v-20l-94 -101l-205 172l-192 -172z" />
<glyph horiz-adv-x="1544" d="M170 614v758h211v-745q0 -227 98 -351q102 -123 293 -122.5t289 114.5q102 111 102 355v749h211v-751q0 -150 -39 -269q-39 -121 -112 -205q-82 -88 -189 -131q-119 -45 -262 -45q-150 0 -260 45q-104 43 -188 127q-78 90 -115 203q-39 117 -39 268zM469 1630v21l281 264 h47l278 -264v-21l-98 -102l-205 178l-203 -178z" />
<glyph horiz-adv-x="1298" d="M150 438v606h198v-579q0 -162 66 -240q63 -76 184 -75q125 0 217 79q90 78 135 222v593h199v-1044h-160l-18 211q-53 -115 -152 -174q-102 -61 -237 -62q-205 0 -318 117q-115 119 -114 346zM354 1315v20l273 260h43l272 -260v-20l-94 -101l-205 172l-192 -172z" />
<glyph horiz-adv-x="2369" d="M113 709q0 47 22 77q18 37 53 66q33 25 62 41q39 16 72 16h30q10 -2 31 -2q18 0 31 17l32 41q8 0 11 -7v-704q0 -6 -1 -19.5t-1 -21.5q-10 -39 -13 -41l4 -2q31 43 39 84q10 49 13 96l-2 72v588q0 12 6 18l39 45q4 4 8 4q8 0 8 -10v-141q0 -18 16 -19l144 11 q10 -4 16 -17q8 -8 8 -20q0 -4 -2 -7q-12 -12 -26 -12h-4l-134 4q-16 0 -16 -18v-455q0 -84 -24 -164q-23 -82 -99 -135l-88 -61q-37 -27 -69 -33q-29 -10 -76 -10q-29 4 -51 14q-31 12 -33 45q12 35 45 49h4q4 2 8 2q29 0 57 -20q23 -20 62 -21q41 0 67 37q16 25 27 72 q4 33 8 90v18q0 39 -2 56q-2 18 -2 49v459q0 12 -6 14q-8 4 -10 6q-23 8 -58 8q-61 0 -92 -37q-35 -35 -34 -96q0 -74 36 -117q27 -27 54 -36q25 -14 71 -19l2 -10q-31 -14 -53 -16q-23 -6 -53 -7q-57 14 -98 66q-39 47 -39 113zM760 561q0 49 31 74q29 29 79 29 q43 0 74 -19l-16 -29q-27 14 -58 15q-35 0 -53 -21q-18 -18 -18 -49q0 -29 18.5 -47t52.5 -18q20 0 39 6v43l-45 4v29h82v-101q-14 -8 -39 -14q-8 0 -21.5 -1t-19.5 -1q-49 0 -75 26q-31 29 -31 74zM1016 463v199h39v-164h86v-35h-125zM1208 463v199h123v-35h-84v-45h82v-35 h-82v-49h92v-35h-131zM1401 463v199h31l122 -138v138h37v-199h-32l-121 139v-139h-37zM1642 432q41 4 41 43v187h39v-189q0 -27 -18 -49.5t-55 -24.5zM1782 463l88 201h31l88 -201h-43l-62 147l-61 -147h-41zM2042 463v199h31l122 -138v138h37v-199h-32l-121 139v-139h-37z " />
<glyph horiz-adv-x="2039" d="M88 870v166l170 11v79q0 80 29 156q29 74 86 129q53 53 139 88q84 31 193 31q213 0 364 -105q63 61 152 91q82 35 198 34q145 0 256 -36.5t215 -104.5v-1409h-198v1309q-55 33 -123 47q-72 16 -144 16q-123 0 -200 -61q-78 -66 -78 -178v-89h338v-174h-338v-870h-199v870 h-491v-870h-199v870h-170zM457 1044h491v101q0 72 25 137q-115 72 -262 72q-117 0 -187 -60q-68 -57 -67 -170v-80z" />
<glyph horiz-adv-x="1968" d="M88 870v166l170 11v79q0 80 29 156q29 74 86 129q53 53 139 88q84 31 193 31q102 0 192 -25q86 -25 160 -71q57 57 147 94q94 33 201 33q123 0 242 -33q113 -39 202 -107l-102 -145q-76 55 -160 80q-80 27 -174 26q-121 0 -192 -63q-78 -59 -78 -178v-97h674v-1044h-203 v870h-471v-870h-199v870h-487v-870h-199v870h-170zM457 1044h487v99q0 70 23 141q-109 70 -256 70q-117 0 -187 -60q-68 -57 -67 -170v-80z" />
<glyph horiz-adv-x="1968" d="M88 870v166l170 11v79q0 80 29 156q29 74 86 129q53 53 139 88q84 31 193 31q102 0 192 -25q86 -25 160 -71q57 57 147 94q94 33 201 33q123 0 242 -33q113 -39 202 -107l-102 -145q-76 55 -160 80q-80 27 -174 26q-121 0 -192 -63q-78 -59 -78 -178v-97h674v-1118 q0 -88 -23 -168q-23 -74 -72 -131q-45 -53 -116 -86q-74 -31 -166 -30q-78 0 -154 16q-66 14 -133 53l70 158q51 -27 100 -37q45 -12 107 -12q86 0 135 57q53 55 53 180v944h-475v-870h-199v870h-487v-870h-199v870h-170zM457 1044h487v99q0 70 23 141q-109 70 -256 70 q-117 0 -187 -60q-68 -57 -67 -170v-80z" />
<glyph horiz-adv-x="1361" d="M57 213v149h174v146h-174v172h174v655h551q109 0 205 -28q86 -31 154 -84q63 -51 98 -131t35 -172q0 -193 -131 -302q-135 -111 -369 -110h-340v-146h410v-161h-412v-201h-196v199zM434 680h340q150 0 221 63q78 63 78 175q0 109 -74 176q-80 63 -217 63h-348v-477z" />
<glyph horiz-adv-x="1349" d="M117 401q0 102 47 193q47 88 135 145q-16 31 -23 66q-6 37 -6 74q0 63 25 122q29 59 78 107q61 51 129 76q80 29 178 28q131 0 227.5 -45t173.5 -123l-120 -126q-59 59 -127 90q-66 33 -154 32q-111 0 -164 -49q-55 -53 -55 -125q0 -100 71 -172l400 -403 q111 139 110 377h191q0 -158 -45 -285q-47 -131 -131 -221l135 -133l-133 -131l-148 149q-131 -76 -303 -76q-121 0 -207 33q-92 31 -155 88q-66 61 -94 137q-35 72 -35 172zM309 397q0 -53 23 -98q16 -39 63 -82q41 -33 97 -53q57 -18 124 -19q94 0 168 33l-397 412 q-35 -31 -57 -84q-20 -47 -21 -109z" />
<glyph horiz-adv-x="1695" d="M150 0v1116q0 88 30 164q27 76 86 131q53 53 135 88q82 31 185 31q178 0 315 -76q61 51 135 74q72 29 172 28q111 0 205 -26q96 -29 168 -80l-94 -150q-55 37 -123 58q-78 23 -150 22q-113 0 -178 -61q-68 -66 -67 -186v-1133h-199v1139q0 94 31 168q-49 23 -96 34 q-51 12 -113 13q-111 0 -178 -62q-66 -61 -66 -184v-1108h-198zM1341 0v1044h205v-1044h-205z" />
<glyph horiz-adv-x="1732" d="M150 0v1116q0 88 30 164q27 76 86 131q53 53 135 88q82 31 185 31q182 0 321 -78q51 45 127 74q72 27 166 26q115 0 213 -30q96 -33 170 -88v-1434h-199v1341q-33 12 -81 27q-57 8 -97 8q-109 0 -172 -65q-66 -61 -65 -187v-1124h-199v1133q0 96 31 172q-88 49 -209 49 q-111 0 -178 -62q-66 -61 -66 -184v-1108h-198z" />
<glyph horiz-adv-x="501" d="M113 1386q0 63 41 101q39 37 98 37q55 0 96 -37q43 -37 43 -101q0 -61 -43 -98q-41 -37 -96 -37q-59 0 -98 37q-41 37 -41 98zM150 0v1044h202v-1044h-202z" />
<glyph horiz-adv-x="446" d="M27 1364l223 174l108 -8v-711h-163v477l-97 -47z" />
<glyph horiz-adv-x="716" d="M51 1425q131 119 305 119q129 0 213 -65q80 -66 80 -172q0 -86 -41 -144q-37 -57 -119 -106l-143 -86h301v-152h-581v127l307 195q53 35 83.5 71.5t30.5 83.5t-32 76q-39 29 -107 29q-63 0 -115 -23q-47 -20 -98 -63z" />
<glyph horiz-adv-x="710" d="M45 909l74 117q51 -35 119 -55q63 -14 122 -15q63 0 103 23q35 25 35 65q0 68 -90 68h-183v143h166q78 0 78 64q0 76 -117 76q-119 0 -194 -64l-90 105q61 53 133 82q72 27 164 26q121 0 196 -57q72 -61 72 -152q0 -35 -17 -73q-16 -35 -53 -60q49 -18 76 -63 q25 -43 25 -97q0 -47 -19 -90q-18 -41 -55 -75q-41 -33 -98 -50q-53 -20 -136 -20q-90 0 -168 22q-72 20 -143 80z" />
<glyph horiz-adv-x="1294" d="M102 369q0 100 45 186q49 84 132 129q-29 63 -29 133q0 61 24 117q23 53 72 94q49 43 121 68q74 25 172 24q119 0 217 -37q98 -39 168 -104l-106 -133q-63 57 -127 80q-70 29 -150 28q-104 0 -153.5 -43t-49.5 -106q0 -88 56 -143l399 -388q51 63 78 148q29 90 28 192 h183q0 -139 -43 -260q-39 -117 -119 -202l123 -119l-125 -127l-141 135q-68 -35 -142 -53q-74 -20 -153 -21q-225 0 -353 107q-127 109 -127 295zM291 375q0 -51 20 -92q20 -45 60 -78q37 -33 92 -51.5t123 -18.5q47 0 86 8q43 10 78 25l-385 385q-74 -57 -74 -178z" />
<glyph horiz-adv-x="1519" d="M129 453q0 135 57 235q57 104 156 162q-23 72 -23 143q0 74 25 142q27 66 78 114q55 53 135 82q80 31 191 31q133 0 245.5 -47t182.5 -129l-123 -133q-63 70 -135 98q-70 35 -166 35q-123 0 -180.5 -57.5t-57.5 -141.5q0 -51 16 -113q14 -55 56 -108l235 -315 q88 -117 170 -193q88 80 139 213q45 133 48 285h192q0 -182 -55 -338q-59 -162 -174 -271q55 -31 110 -49q55 -20 115 -24l-18 -172q-203 14 -375 131q-74 -31 -142 -45q-82 -16 -161 -17q-129 0 -232 37q-94 31 -168 98q-72 68 -106 154q-35 92 -35 193zM328 465 q0 -70 24 -125q20 -59 68 -102q47 -43 110 -68t150 -25q37 0 74 7q22 4 67 16q-35 33 -67 74q-23 25 -64 77l-272 373q-43 -43 -70 -102q-20 -68 -20 -125z" />
<glyph horiz-adv-x="1447" d="M129 453q0 119 51 215q51 100 152 163q-33 72 -33 162q0 78 29 142q25 63 82 114t141 82t197 31q139 0 243 -45q113 -47 185 -127l-119 -133q-127 133 -312 133q-123 0 -186 -60q-61 -61 -61 -147q0 -55 20 -102q23 -49 62 -93l479 -475q70 96 69 232q0 72 -22 133 q-16 59 -62 125l160 96q57 -74 84 -162q29 -90 29 -180q0 -221 -129 -377q94 -115 94 -254q0 -156 -106 -250q-109 -100 -312 -102l-16 166q123 4 180 55q59 53 59 131q0 31 -10 66q-8 31 -35 65q-76 -43 -157 -63q-94 -23 -191 -23q-137 0 -243 37q-100 33 -177 98 q-74 72 -108 154q-37 90 -37 193zM328 465q0 -70 24 -125q23 -57 72 -102q45 -41 117 -68q74 -25 161 -25q127 0 216 45l-490 496q-47 -39 -74 -98q-27 -55 -26 -123z" />
<glyph horiz-adv-x="1480" d="M129 453q0 111 51 217q55 102 148 161q-29 74 -29 156q0 78 29 141q23 61 82 121q63 53 141 82q84 31 197 31q137 0 243 -43q104 -41 189 -129l-123 -139q-66 70 -137 100q-80 35 -175 35q-127 0 -186 -60q-61 -55 -61 -143q0 -104 82 -192l161 -166q14 104 95 178 q80 70 213 69q70 0 127 -24q55 -23 96 -68q41 -43 59 -100q23 -57 23 -127q0 -111 -45 -209q-47 -104 -129 -184l133 -137l-139 -132l-148 156q-143 -76 -338 -76q-137 0 -242 37q-94 31 -176 98q-74 74 -106 154q-35 92 -35 193zM328 465q0 -70 24 -125q18 -55 70 -102 q45 -43 115 -68t159 -25q113 0 199 39l-471 496q-49 -43 -72 -94q-25 -57 -24 -121zM903 539q0 -61 39 -121q39 -64 111 -119q57 53 82 113q31 63 30 135q0 68 -35 104q-31 39 -92 39q-68 0 -100 -43q-35 -45 -35 -108z" />
<glyph horiz-adv-x="1460" d="M18 1073q242 248 631 248q174 0 309 -68q137 -74 220 -182q59 154 77 307l183 -28q-20 -133 -62 -254q-39 -117 -92 -224q14 -51 25 -108q8 -49 8 -115q0 -152 -51 -272q-51 -123 -142 -213q-86 -88 -215 -139q-127 -49 -272 -50q-121 0 -211 39q-90 37 -160 105 q-68 74 -98 155q-35 92 -35 188.5t35 188.5q39 94 102 152q57 63 152 102q86 39 190 39q129 0 207 -71.5t78 -188.5q0 -31 -6 -61q59 53 108 114q47 59 88 131q-59 127 -174 197q-119 74 -276 74q-154 0 -281 -56q-129 -55 -223 -143zM313 473q1 -47 19 -94q213 47 303 125 q94 74 94 160q0 47 -33 77q-33 29 -88 29t-116 -20q-57 -27 -95 -62q-43 -47 -61 -94q-23 -57 -23 -121zM412 240q39 -43 102 -68q61 -25 133 -25q98 0 189 37q86 33 155 103q66 66 103 159q39 90 39 209q-256 -307 -721 -415z" />
<glyph horiz-adv-x="1523" d="M129 453q0 117 55 219q57 100 154 162q-33 74 -33 161q0 78 27 140q29 68 78 116q53 53 127 80q74 31 172 31q88 0 155 -27q70 -27 119 -73q49 -49 76 -115q27 -59 26 -137q0 -137 -73 -250q-80 -119 -207 -201l237 -252q82 88 125 195q49 115 62 241l192 -34 q-25 -164 -86 -308q-68 -141 -161 -235l139 -146l-144 -131l-149 164q-145 -82 -338 -82q-133 0 -236 37q-94 31 -176 98q-74 74 -106 154q-35 92 -35 193zM330 465q0 -70 24 -125q25 -61 72 -102q41 -41 113 -68q68 -25 153 -25q111 0 197 50l-453 493q-47 -41 -76 -98 q-31 -61 -30 -125zM504 985q0 -106 84 -197l98 -104q96 59 149.5 143t53.5 176.5t-53 139.5q-51 47 -138 47q-100 0 -147 -59.5t-47 -145.5z" />
</font>
</defs>
</svg>
