<?xml version="1.0" standalone="no"?>
<!DOCTYPE svg PUBLIC "-//W3C//DTD SVG 1.1//EN" "http://www.w3.org/Graphics/SVG/1.1/DTD/svg11.dtd" >
<svg xmlns="http://www.w3.org/2000/svg" xmlns:xlink="http://www.w3.org/1999/xlink" version="1.1">
<metadata></metadata>
<defs>
<font id="letosansbold" horiz-adv-x="1331" >
<font-face units-per-em="2048" ascent="1487" descent="-561" />
<missing-glyph horiz-adv-x="622" />
<glyph unicode="fk" horiz-adv-x="2136" d="M76 784v244l155 14v68q0 90 35 172q37 78 107 139q76 61 166 90q92 35 223 35q319 0 536 -149v-723l115 24l264 346h375l-393 -471l438 -573h-364l-306 424h-129v-424h-292v1239q-53 25 -111 33q-72 10 -133 10q-119 0 -178 -49q-59 -53 -60 -139v-50h303v-260h-303v-784 h-293v784h-155z" />
<glyph unicode="ff" horiz-adv-x="1587" d="M76 784v248l155 10v66q0 84 31 162q33 76 94 133q57 55 152 92q92 33 203 33q109 0 194 -25q84 -20 162 -63q51 51 131 79.5t182 28.5q111 0 201 -28q88 -27 168 -84l-127 -211q-96 63 -223 63q-82 0 -121 -47q-39 -41 -39 -119v-78h303v-260h-303v-784h-293v784h-422 v-784h-293v784h-155zM524 1044h422v74q0 55 8 90q-84 53 -217 54q-106 0 -159 -41q-53 -43 -54 -119v-58z" />
<glyph unicode="fi" horiz-adv-x="1376" d="M76 784v244l155 14v70q0 92 31 174q35 84 96 139q66 63 160 97q98 35 225 34q154 0 277 -38q131 -41 233 -113l-129 -225q-74 49 -176 82q-106 27 -207 26q-96 0 -159 -47q-57 -47 -58 -131v-66h711v-1044h-295v784h-416v-784h-293v784h-155z" />
<glyph unicode="fj" horiz-adv-x="1376" d="M76 784v244l155 14v70q0 92 31 174q35 84 96 139q66 63 160 97q98 35 225 34q297 0 510 -151l-129 -225q-74 49 -176 82q-106 27 -207 26q-96 0 -159 -47q-57 -47 -58 -131v-66h713v-1087q0 -104 -29 -178q-23 -74 -80 -139q-47 -53 -129 -91q-80 -31 -178 -30 q-92 0 -166 18q-72 16 -149 60l100 237q49 -27 94 -35q47 -10 99 -10q63 0 104 41t41 127v827h-420v-784h-293v784h-155z" />
<glyph unicode="fl" horiz-adv-x="1439" d="M76 784v244l155 14v68q0 90 35 172q37 78 107 139q76 61 166 90q92 35 223 35q319 0 536 -149v-1397h-290v1239q-57 25 -113 33q-72 10 -133 10q-119 0 -178 -49q-59 -53 -60 -139v-50h303v-260h-303v-784h-293v784h-155z" />
<glyph unicode="fh" horiz-adv-x="2195" d="M76 784v244l155 14v68q0 90 35 172q37 78 107 139q76 61 166 90q92 35 223 35q319 0 536 -149v-471q51 68 132 106q74 37 186 37q209 0 321 -119q117 -117 117 -344v-606h-291v582q0 111 -51 172q-55 57 -147 57q-90 0 -162 -53q-70 -51 -105 -156v-602h-292v1239 q-53 25 -111 33q-72 10 -133 10q-119 0 -178 -49q-59 -53 -60 -139v-50h303v-260h-303v-784h-293v784h-155z" />
<glyph unicode="ft" horiz-adv-x="1703" d="M76 784v244l155 14v74q0 90 35 172q33 78 103 142q66 57 168 94q104 33 225 32q295 0 500 -143l-21 -369h350v-260h-346v-407q0 -66 37 -101q39 -35 102 -34q55 0 99 14q47 16 80 39l98 -225q-80 -51 -156 -72q-84 -23 -176 -23q-180 0 -280 101q-98 100 -99 305v403 h-426v-784h-293v784h-155zM524 1044h424l21 211q-53 20 -103 27q-47 10 -114 10q-115 0 -170 -55q-57 -55 -58 -141v-52z" />
<glyph unicode="&#x456;&#x457;" horiz-adv-x="1150" d="M-88 1374q0 76 49 119t115 43q68 0 117 -43t49 -119q0 -72 -49 -117q-49 -43 -117 -43q-66 0 -115 43q-49 45 -49 117zM139 0v1044h295v-1044h-295zM397 1382q0 80 54 127q56 47 124 47q70 0 123.5 -47t53.5 -127q0 -41 -15 -71q-16 -35 -39 -54q-25 -25 -55 -36 q-33 -12 -67.5 -12.5t-67.5 12.5q-31 12 -55 36q-27 25 -39 54q-16 31 -17 71zM715 0v1044h295v-1044h-295zM907 1374q0 76 51 119q49 43 115 43q68 0 117 -43t49 -119q0 -72 -49 -117q-49 -43 -117 -43q-66 0 -115 43q-51 45 -51 117z" />
<glyph unicode="&#x17f;l" horiz-adv-x="1249" d="M139 0v1110q0 92 33 180q39 88 98 140q59 57 156 92q90 33 209 32q145 0 262 -38q123 -39 213 -113v-1403h-293v1255q-80 35 -176 35q-98 0 -154 -53q-57 -49 -57 -145v-1092h-291z" />
<glyph unicode="&#x17f;k" horiz-adv-x="1947" d="M139 0v1110q0 92 33 180q39 88 98 140q59 57 156 92q90 33 209 32q145 0 262 -38q123 -39 213 -113v-729l115 22l264 348h373l-394 -471l441 -573h-365l-307 424h-127v-424h-293v1255q-82 35 -176 35q-98 0 -154 -53q-57 -49 -57 -145v-1092h-291z" />
<glyph unicode="&#x17f;&#x17f;" horiz-adv-x="1292" d="M139 0v1085q0 217 123 328q123 115 342 115q86 0 182 -21q92 -25 156 -57q53 47 127 72q76 25 182 24q209 0 361 -114l-123 -215q-94 63 -217 63q-92 0 -129 -53q-39 -51 -39 -133v-1094h-291v1114q0 35 2 53q4 35 10 50q-39 23 -84 34q-49 12 -106 13q-94 0 -152 -47 q-53 -49 -53 -146v-1071h-291z" />
<glyph unicode="&#x17f;i" horiz-adv-x="1185" d="M139 0v1114q0 94 35 180q33 78 100 140q61 55 156 90q90 31 203 30q117 0 227 -30q104 -29 193 -90l-131 -217q-61 35 -127 53q-68 20 -152 20q-94 0 -154 -49q-57 -49 -57 -145v-1096h-293zM750 0v1044h297v-1044h-297z" />
<glyph unicode="&#x17f;h" horiz-adv-x="2004" d="M139 0v1110q0 92 33 180q39 88 98 140q59 57 156 92q90 33 209 32q145 0 262 -38q123 -39 213 -113v-477q51 68 131 106q74 37 184 37q211 0 324 -119q117 -117 117 -344v-606h-293v582q0 115 -51.5 172t-145.5 57q-92 0 -164 -53q-68 -53 -102 -156v-602h-293v1255 q-82 35 -176 35q-98 0 -154 -53q-57 -49 -57 -145v-1092h-291z" />
<glyph unicode="&#x17f;t" horiz-adv-x="1558" d="M139 0v1110q0 92 33 180q39 88 98 140q59 57 156 92q90 33 209 32q145 0 262 -38q123 -41 217 -117l-16 -355h348v-260h-346v-407q0 -68 39 -101q39 -35 102 -34q55 0 98 14q47 16 80 39l99 -225q-80 -51 -156 -72q-84 -23 -178 -23q-180 0 -278.5 100.5t-98.5 305.5v403 h-156v244l152 12l22 211q-80 39 -184 39q-98 0 -154 -53q-57 -49 -57 -145v-1092h-291z" />
<glyph unicode="&#xd;" horiz-adv-x="681" />
<glyph unicode=" "  horiz-adv-x="622" />
<glyph unicode="&#x09;" horiz-adv-x="622" />
<glyph unicode="&#xa0;" horiz-adv-x="622" />
<glyph unicode="!" horiz-adv-x="524" d="M88 160q0 78 51 125q57 47 123 47q70 0 123 -47q51 -45 51 -125q0 -78 -51 -125q-57 -47 -123 -47q-68 0 -121 47t-53 125zM117 430v1051h291v-1051h-291z" />
<glyph unicode="&#x22;" horiz-adv-x="800" d="M86 940v461h262v-146l-43 -315h-219zM451 940v461h262v-146l-45 -315h-217z" />
<glyph unicode="#" horiz-adv-x="1245" d="M98 387v234h170l27 184h-166v231l205 6l35 189l229 -35l-27 -154h193l37 189l221 -37l-16 -154l147 -6v-229h-184l-29 -184h186v-232l-225 -6l-37 -197l-227 31l27 166h-191l-33 -186l-219 28l15 158zM508 621h192l29 184h-192z" />
<glyph unicode="$" horiz-adv-x="1310" d="M94 127l125 244q111 -66 223 -101q109 -31 232 -30q133 0 198 39q63 41 64 108q0 57 -43 90q-43 31 -143 47l-211 27q-199 25 -306 121q-109 96 -108 278q0 166 106 267q109 100 285 126v232h295v-227q119 -16 209 -58q92 -37 170 -102l-148 -213q-162 113 -370 112 q-131 0 -189 -34q-57 -33 -57 -90.5t41 -81.5q35 -27 133 -43l203 -27q211 -27 323 -133q111 -104 111 -275q0 -162 -107 -274q-109 -115 -319 -145v-228h-297v221q-109 12 -219 48q-96 33 -201 102z" />
<glyph unicode="%" horiz-adv-x="1669" d="M80 997q0 72 26 131q29 66 74 107q39 41 109 72q63 24 139 24t139 -24q68 -29 111 -72q47 -47 73.5 -106.5t26.5 -131.5q0 -74 -26 -133q-27 -57 -74 -104q-43 -43 -111 -72q-63 -25 -139 -24q-74 0 -141 24q-66 29 -111 72q-47 49 -70 104q-27 59 -26 133zM250 88 l989 1229l176 -141l-985 -1231zM315 997q0 -49 33 -79q31 -31 80 -31t80 31q33 27 33 80t-33 79q-31 31 -80 31q-47 0 -80 -31t-33 -80zM920 297q0 72 26.5 131t73.5 107q43 43 110 71q66 25 139.5 25t139.5 -25q63 -27 111 -71q45 -49 71 -107q27 -59 27 -131 q0 -74 -27 -133q-27 -55 -71 -105q-47 -45 -111 -71q-66 -25 -139 -25q-78 0 -140 25q-72 29 -110 71q-43 41 -74 105q-27 59 -26 133zM1157 297q0 -49 31 -80q33 -31 82 -31t82 31q31 31 30 80q0 51 -30 80q-33 31 -82 31t-82 -31q-31 -29 -31 -80z" />
<glyph unicode="&#x26;" horiz-adv-x="1552" d="M121 455q0 119 51 219q49 100 145 160q-16 39 -22 71q-8 33 -8 78q0 78 30 147q33 72 93 119q57 53 147 82q86 31 199 31q147 0 264 -47q115 -45 203 -133l-174 -201q-59 59 -123 88q-61 35 -162 35q-94 0 -146 -45q-49 -45 -49 -107q0 -78 52 -129l403 -417 q53 74 78 167q29 86 28 211h283q0 -176 -53 -325q-53 -143 -146 -248l144 -148l-215 -192l-156 170q-147 -70 -319 -70q-135 0 -236 37q-104 39 -172 103q-70 61 -104 151q-35 92 -35 193zM401 489q0 -117 74 -186q78 -72 207 -72q57 0 119 17l-348 385q-51 -59 -52 -144z " />
<glyph unicode="'" horiz-adv-x="432" d="M82 928v473h266v-172l-47 -301h-219z" />
<glyph unicode="(" horiz-adv-x="704" d="M96 545q0 254 105 481q106 229 303 391l186 -178q-150 -131 -223 -305q-78 -174 -78 -389q0 -207 72 -381q72 -168 229 -314l-184 -176q-195 143 -303 363q-106 215 -107 508z" />
<glyph unicode=")" horiz-adv-x="704" d="M14 -147q301 270 301 694q0 207 -73 383q-72 172 -228 311l185 176q195 -150 303 -373q106 -221 106 -497q0 -268 -104 -494q-98 -219 -303 -379z" />
<glyph unicode="*" horiz-adv-x="907" d="M90 956l178 111l-178 129l150 186l157 -145l58 203l233 -76l-90 -188l205 12v-232l-207 15l92 -187l-235 -79l-58 202l-162 -141z" />
<glyph unicode="+" horiz-adv-x="1071" d="M119 569v256h280v295h273v-295h280v-256h-280v-295h-273v295h-280z" />
<glyph unicode="," horiz-adv-x="544" d="M96 162q0 80 51 127q57 47 125 47t123 -45q51 -49 51 -129q0 -53 -18 -90l-139 -291l-164 63l51 166q-37 23 -57 60q-23 41 -23 92z" />
<glyph unicode="-" horiz-adv-x="860" d="M119 432v260h622v-260h-622z" />
<glyph unicode="." horiz-adv-x="548" d="M96 164q0 80 54 127q51 49 124.5 49t124.5 -49q53 -47 54 -127q0 -82 -53.5 -129t-125.5 -47q-70 0 -122 47q-55 47 -56 129z" />
<glyph unicode="/" horiz-adv-x="845" d="M-41 -84l676 1600l242 -101l-678 -1601z" />
<glyph unicode="0" horiz-adv-x="1619" d="M115 686q0 147 49 277q51 131 141 229q90 96 219 151q123 58 285 58q160 0 289 -55.5t219 -151.5t139 -227q49 -129 49 -281q0 -145 -49 -276t-141 -226q-86 -96 -219 -155q-127 -57 -287 -57.5t-285 55.5q-129 55 -219 151q-88 96 -141 228q-49 129 -49 280zM418 686 q0 -94 24 -174q29 -84 76 -139.5t121 -93.5q78 -33 170 -33q94 0 170 35q72 33 123 94q49 57 74 139q25 80 24 172q0 96 -24 178q-27 78 -76 140q-51 57 -123 89.5t-168 32.5q-92 0 -170 -32q-74 -39 -121 -95q-47 -59 -76 -141q-25 -80 -24 -172z" />
<glyph unicode="1" horiz-adv-x="833" d="M68 1044l405 340l201 -16v-1368h-303v946l-162 -100z" />
<glyph unicode="2" horiz-adv-x="1327" d="M117 1208q117 100 250 148q129 45 297 45q123 0 219 -33q98 -31 170 -90q70 -57 106 -139q39 -78 39 -176q0 -143 -72 -263q-72 -113 -225 -217l-299 -207h596v-276h-1053v246l562 418q98 72 143 139q47 70 47 143q0 82 -61 135q-61 49 -191 49q-104 0 -199 -36 q-98 -43 -176 -109z" />
<glyph unicode="3" horiz-adv-x="1349" d="M70 174l163 225q57 -47 101 -71q55 -31 100 -47q47 -16 107 -27q47 -8 116 -8q135 0 203 49q66 53 66 133q0 68 -47 109q-45 39 -140 38h-329v267h301q72 0 112 32q41 35 41 95q0 78 -57 116q-53 39 -178 39q-78 0 -178 -26q-98 -35 -172 -92l-154 215q113 92 244 135 q129 45 280 45q121 0 219 -29q96 -29 164 -80q68 -53 103 -121q37 -74 36 -157q0 -90 -36 -158q-39 -72 -111 -113v-18q98 -33 154 -115q55 -78 55 -194q0 -96 -39 -174q-39 -82 -113 -144q-76 -57 -186 -94q-119 -33 -252 -33q-162 0 -307 45q-141 49 -266 158z" />
<glyph unicode="4" horiz-adv-x="1419" d="M78 219v236l723 917h375v-878h174v-263l-174 -10v-221h-297v219h-801zM457 494h422v532h-21z" />
<glyph unicode="5" horiz-adv-x="1335" d="M90 182l172 219q174 -156 389 -155q121 0 201 55q76 57 76 158q0 106 -68 155q-61 53 -182 54q-94 0 -166 -17q-61 -14 -125 -45l-188 68l63 698h891v-276h-641l-12 -213q51 20 102 28q61 10 127 11q109 0 201 -31q88 -31 155 -88q68 -66 103 -148q37 -86 37 -198 q0 -102 -39 -189q-41 -90 -113 -153q-72 -66 -182 -107q-109 -37 -246 -37q-162 0 -297 49q-131 45 -258 162z" />
<glyph unicode="6" horiz-adv-x="1359" d="M100 645q0 190 51.5 329.5t139.5 237.5q92 96 211 142q123 47 262 47q133 0 256 -43q119 -43 215 -123l-154 -217q-150 113 -329 112q-145 0 -240 -77q-94 -76 -113 -224q72 47 154 68q86 25 195 25q121 0 213 -33q92 -29 161 -90q66 -61 103 -146q35 -86 35 -188 q0 -109 -43 -199q-45 -94 -119 -155q-76 -66 -176 -103q-104 -37 -224 -37q-135 0 -252 45q-119 51 -188 136q-74 80 -119 210q-39 133 -39 283zM401 586q4 -184 84 -262q82 -84 213 -84q49 0 103 14q53 20 82 45q33 27 55 70q20 39 20 94q0 104 -65.5 159.5t-181.5 55.5 q-90 0 -170 -25q-83 -24 -140 -67z" />
<glyph unicode="7" horiz-adv-x="1241" d="M90 1098v274h1061v-221l-547 -1151h-340l545 1098h-719z" />
<glyph unicode="8" horiz-adv-x="1376" d="M96 399q0 119 51 207q55 92 144 144q-57 45 -86 110q-31 68 -31 148q0 92 39 163q41 74 109 123q74 55 163 78q88 29 205 29q119 0 215 -29q96 -27 162 -80q68 -55 100 -125q35 -76 35 -161q0 -76 -35 -150q-37 -68 -102 -115q104 -49 160 -131q55 -82 55 -202 q0 -86 -39 -170q-47 -86 -119 -138q-76 -61 -186 -94q-115 -35 -252 -35q-152 0 -258 33q-115 35 -184 90q-72 57 -109 135t-37 170zM399 438q0 -94 76 -145q78 -53 213 -53q137 0 209 47t72 125q0 66 -47 100q-43 33 -152 55l-145 29q-23 4 -64 12q-37 8 -53 15 q-53 -25 -82 -74q-27 -45 -27 -111zM469 997q0 -61 43 -92q35 -33 113 -49l118 -20q8 -2 23.5 -5.5t19.5 -3.5l39 -10q43 25 68 70q20 47 20 96q0 70 -55 113t-167.5 43t-166.5 -39q-55 -39 -55 -103z" />
<glyph unicode="9" horiz-adv-x="1355" d="M100 905q0 109 43 201q41 90 115 156q78 66 176 102q104 37 221 37q135 0 254 -45q113 -49 189 -135q80 -92 116 -211q41 -129 41 -283q0 -188 -49 -330q-47 -137 -137 -237q-94 -96 -213 -142q-123 -47 -264 -47q-133 0 -260 41q-127 43 -223 123l153 217 q72 -55 166 -84q86 -27 176 -26q147 0 240 77q92 74 110 224q-137 -94 -348 -94q-119 0 -213 30q-96 35 -157 94q-66 59 -101 144q-35 86 -35 188zM401 907q0 -104 62 -157q63 -55 182 -56q90 0 170 25q78 24 139 67q-4 182 -86 263q-82 84 -213 84q-111 0 -182.5 -59.5 t-71.5 -166.5z" />
<glyph unicode=":" horiz-adv-x="530" d="M96 154q0 78 51 123t117 45q70 0 117 -46q51 -45 51 -122q0 -76 -51 -121t-116.5 -45t-117 45t-51.5 121zM96 825.5q0 77.5 51 120.5q51 45 117 45q70 0 117 -45q51 -43 51 -120.5t-51 -123t-116.5 -45.5t-117 45.5t-51.5 123z" />
<glyph unicode=";" horiz-adv-x="530" d="M96 152q0 80 51 122q47 47 117 48q72 0 119 -48q49 -43 49 -122q0 -49 -18 -86l-131 -285l-158 59l51 168q-37 23 -57 60q-23 39 -23 84zM96 825.5q0 77.5 51 120.5q51 45 117 45q70 0 117 -45q51 -43 51 -120.5t-51 -123t-116.5 -45.5t-117 45.5t-51.5 123z" />
<glyph unicode="&#x3c;" horiz-adv-x="884" d="M80 664v81l510 433l174 -195l-318 -283l318 -276l-174 -203z" />
<glyph unicode="=" horiz-adv-x="1005" d="M121 377v248h764v-248h-764zM121 776v248h764v-248h-764z" />
<glyph unicode="&#x3e;" horiz-adv-x="884" d="M121 416l317 282l-317 277l174 203l510 -441v-82l-510 -434z" />
<glyph unicode="?" horiz-adv-x="1257" d="M98 1315q115 92 242 135q129 43 274 43q119 0 217 -31q102 -29 173 -86q72 -57 114 -143q39 -90 39 -197q0 -162 -94 -270q-96 -115 -272 -166q-51 -16 -70 -43q-25 -25 -25 -63q0 -31 6 -52l-264 -26q-6 14 -14 51q-6 31 -6 65q0 98 59 170q61 74 185 107 q201 55 200 211q0 98 -65.5 151.5t-194.5 53.5q-201 0 -354 -123zM410 160q0 80 53 125q51 47 120.5 47t123.5 -47q51 -45 51 -125t-53 -125q-51 -47 -121 -47q-68 0 -121 47t-53 125z" />
<glyph unicode="@" horiz-adv-x="1804" d="M111 510q0 170 65 317q68 143 184 244q115 102 271 158q154 57 334 57q154 0 282 -45q133 -45 228 -129q98 -84 153 -203q55 -117 55 -264q0 -117 -26 -203q-29 -98 -76 -155q-49 -63 -123 -103q-76 -35 -166 -34q-72 0 -125 28q-55 29 -82 84q-39 -57 -102 -92 q-59 -33 -139 -33q-70 0 -131 25q-68 27 -107 71q-43 39 -74 115q-27 66 -26 158q0 88 31 164q33 76 90 133q61 57 135 86q72 33 168 33t176 -21q90 -23 156 -59v-400q0 -61 53 -61q41 0 74 57q33 53 32 193q0 94 -28 166q-23 72 -82 131q-59 55 -144 86q-86 31 -202 30 q-121 0 -230 -36q-111 -41 -184 -109q-80 -74 -121 -168q-45 -96 -45 -221q0 -227 135 -363q137 -133 389 -133q125 0 265 15q129 20 235 57l64 -215q-121 -47 -265 -76q-137 -25 -299 -24q-178 0 -323 51q-150 53 -254 145q-102 96 -164 234q-57 143 -57 309zM774 522 q0 -86 33 -116q31 -31 78 -31q59 0 94 41t35 100v174q-18 8 -39 10q-20 6 -51 7q-70 0 -111 -48q-39 -45 -39 -137z" />
<glyph unicode="A" horiz-adv-x="1624" d="M78 0l563 1374h338l567 -1374h-340l-104 272h-588l-102 -272h-334zM614 543h387l-182 522h-20z" />
<glyph unicode="B" horiz-adv-x="1421" d="M160 0v1372h606q231 0 352 -100q125 -100 125 -275q0 -84 -35 -153q-37 -66 -98 -101v-18q102 -35 160 -119q61 -82 61 -196q0 -80 -28 -160q-31 -76 -95 -129q-59 -53 -157 -88q-92 -33 -228 -33h-663zM465 262h362q203 0 203 162q0 80 -53 117q-49 41 -152 41h-360 v-320zM465 831h313q78 0 123 37q43 41 43 105q0 137 -176 137h-303v-279z" />
<glyph unicode="C" horiz-adv-x="1501" d="M98 682q0 152 54 279q47 127 149 229q98 98 238 153q135 57 315 58q162 0 293 -49q131 -45 237 -140l-170 -223q-72 66 -165 96q-88 35 -207 35q-100 0 -183 -30q-82 -35 -137 -91q-57 -61 -88 -139q-31 -80 -31 -174q0 -98 31 -178q35 -84 90 -135q55 -55 138 -90 q80 -31 176 -31q109 0 219 39q109 47 180 117l174 -215q-233 -221 -590 -222q-162 0 -293 49q-133 53 -229 144q-98 102 -147 225q-53 135 -54 293z" />
<glyph unicode="D" horiz-adv-x="1507" d="M160 0v1372h506q170 0 309 -49q139 -53 233 -143q96 -86 150 -217q51 -121 51 -277q0 -145 -53 -276q-53 -125 -152 -217q-100 -90 -237 -142q-133 -51 -308 -51h-499zM465 276h197q92 0 174 29q80 27 139 80q57 51 94 129q33 82 33 172q0 203 -115 305 q-111 104 -328 105h-194v-820z" />
<glyph unicode="E" d="M160 0v1372h1026v-276h-723v-258h645v-269h-645v-293h758v-276h-1061z" />
<glyph unicode="F" horiz-adv-x="1265" d="M160 0v1372h1007v-276h-704v-291h604v-270h-604v-535h-303z" />
<glyph unicode="G" horiz-adv-x="1511" d="M98 682q0 152 54 276q47 125 147 230q96 96 238 155q135 57 315 58q150 0 287 -47q133 -47 235 -142l-172 -221q-72 66 -162 99q-85 30 -191 30h-7q-98 0 -178 -30q-80 -29 -140 -86q-57 -55 -90 -140q-31 -80 -31 -178q0 -104 33 -182q35 -84 92 -135q55 -57 138 -86 q80 -31 174 -31q143 0 254 53v209l-242 14v256h534v-634q-113 -92 -256 -136q-137 -43 -299 -43q-164 0 -299 49q-137 49 -231 142q-98 96 -149 223q-53 135 -54 297z" />
<glyph unicode="H" horiz-adv-x="1538" d="M160 0v1372h309v-536h600v536h309v-1372h-309v551h-600v-551h-309z" />
<glyph unicode="I" horiz-adv-x="630" d="M160 0v1372h309v-1372h-309z" />
<glyph unicode="J" horiz-adv-x="1130" d="M66 90l133 242q63 -43 129 -62q70 -16 129 -16q98 0 153 61q53 59 54 189v868h307v-858q0 -264 -125 -403q-127 -139 -371 -140q-119 0 -215 25q-98 25 -194 94z" />
<glyph unicode="K" horiz-adv-x="1507" d="M160 0v1372h303v-522l149 16l387 506h379l-510 -641l559 -731h-395l-418 586h-151v-586h-303z" />
<glyph unicode="L" horiz-adv-x="1292" d="M160 0v1372h307v-1091h741v-281h-1048z" />
<glyph unicode="M" horiz-adv-x="1753" d="M160 0v1372h336l385 -622l381 622h329v-1372h-301v905h-18l-318 -522h-159l-318 522h-18v-905h-299z" />
<glyph unicode="N" horiz-adv-x="1558" d="M160 0v1372h276l666 -926v926h297v-1372h-307l-633 877v-877h-299z" />
<glyph unicode="O" horiz-adv-x="1652" d="M98 686q0 143 54 279q51 131 151 227q96 96 229 151q129 58 293 58q160 0 297 -53q137 -55 230 -152q96 -92 149 -225q53 -135 53 -285q0 -145 -53 -276q-49 -127 -149 -230q-96 -96 -230 -151q-133 -57 -297 -58q-158 0 -293 54q-133 55 -229 151q-100 96 -151 227 q-53 135 -54 283zM403 686q0 -88 29 -174q27 -80 84 -139q53 -55 133 -94q82 -33 176 -33q98 0 179 35q78 33 135 96q49 55 82 139q26 83 26 164v6q0 92 -28 174q-27 82 -84 141q-51 57 -131 93q-79 32 -179 32q-96 0 -178 -34q-78 -35 -131 -95q-57 -59 -84 -139 q-29 -82 -29 -172z" />
<glyph unicode="P" horiz-adv-x="1415" d="M160 0v1372h610q123 0 223 -37q94 -31 174 -98q72 -68 111 -156q39 -90 39 -204q0 -119 -43 -213q-49 -98 -123 -156q-74 -68 -180 -98q-98 -35 -226 -35h-278v-375h-307zM467 647h278q123 0 193 61.5t70 166t-62 161.5q-66 61 -188 62h-291v-451z" />
<glyph unicode="Q" horiz-adv-x="1652" d="M98 686q0 143 54 279q51 131 151 227q96 96 229 151q129 57 293 58q160 0 297 -53q137 -55 230 -152q96 -92 149 -225q53 -135 53 -285q0 -178 -71 -319q-68 -141 -197 -244l268 -201l-186 -239l-375 307q-80 -18 -168 -19q-158 0 -293 54q-133 55 -229 151 q-100 96 -151 227q-53 135 -54 283zM403 686q0 -88 29 -174q27 -80 84 -139q53 -55 133 -94q82 -33 176 -33q98 0 179 35q78 33 135 96q49 55 82 139q26 83 26 164v6q0 92 -28 174q-27 82 -84 141q-51 57 -131 93q-79 32 -179 32q-96 0 -178 -34q-78 -35 -131 -95 q-57 -59 -84 -139q-29 -82 -29 -172z" />
<glyph unicode="R" horiz-adv-x="1447" d="M160 0v1372h620q121 0 217.5 -32.5t169.5 -94.5q70 -63 109 -147t39 -193q0 -143 -74 -250q-74 -109 -207 -163l334 -492h-373l-252 410h-276v-410h-307zM467 682h291q111 0 176 55q68 55 68 152q0 99 -64 155q-63 53 -172 54h-299v-416z" />
<glyph unicode="S" horiz-adv-x="1370" d="M94 129l129 252q115 -72 230 -102q113 -31 241 -31q133 0 203 41q66 41 66 110q0 61 -45 95q-47 35 -150 49l-211 26q-203 29 -311 125q-111 98 -111 285q0 106 41 180q37 78 111 133q76 55 172 80q98 29 225 29q168 0 305 -43q141 -45 244 -131l-152 -219 q-88 61 -182 90q-97 30 -202 30h-7q-133 0 -192 -34q-57 -37 -58 -101q0 -59 43 -88q43 -31 138 -43l200 -26q227 -31 338 -140q111 -104 111 -280q0 -102 -39 -183q-41 -86 -113 -139q-74 -59 -188 -90q-106 -33 -254 -33q-166 0 -309 35q-141 35 -273 123z" />
<glyph unicode="T" horiz-adv-x="1419" d="M88 1094v278h1243v-278h-469v-1094h-305v1094h-469z" />
<glyph unicode="U" horiz-adv-x="1562" d="M160 604v768h309v-764q0 -166 80 -264q78 -96 231 -96q158 0 234 92q78 90 78 264v768h309v-762q0 -147 -41 -262q-37 -115 -119 -201q-74 -80 -192 -131q-123 -45 -269 -45q-154 0 -264 45q-119 45 -197 127q-80 82 -118 199q-41 119 -41 262z" />
<glyph unicode="V" horiz-adv-x="1589" d="M68 1372h358l369 -1063h20l352 1063h353l-545 -1376h-363z" />
<glyph unicode="W" horiz-adv-x="2082" d="M68 1372h338l235 -1003h21l243 966h279l254 -966h20l223 1003h334l-385 -1376h-370l-211 809h-21l-194 -809h-377z" />
<glyph unicode="X" horiz-adv-x="1558" d="M68 0l481 713l-438 659h383l282 -489h21l272 489h379l-438 -676l481 -696h-397l-308 528h-20l-303 -528h-395z" />
<glyph unicode="Y" horiz-adv-x="1509" d="M68 1372h368l312 -610h20l307 610h365l-533 -913v-459h-307v459z" />
<glyph unicode="Z" horiz-adv-x="1374" d="M111 0v223l729 871h-701v278h1108v-223l-721 -866h738v-283h-1153z" />
<glyph unicode="[" horiz-adv-x="669" d="M129 -264v1630h471v-244h-188v-1138h188v-248h-471z" />
<glyph unicode="\" horiz-adv-x="886" d="M-10 1382l239 105l676 -1540l-237 -105z" />
<glyph unicode="]" horiz-adv-x="669" d="M70 -18h186v1138h-186v246h471v-1630h-471v246z" />
<glyph unicode="^" horiz-adv-x="727" d="M33 1075v25l295 280h71l295 -280v-25l-151 -153l-181 155l-178 -155z" />
<glyph unicode="_" horiz-adv-x="890" d="M18 -74h854v-252h-854v252z" />
<glyph unicode="`" horiz-adv-x="509" d="M-55 1536l237 143l197 -432h-258z" />
<glyph unicode="a" horiz-adv-x="1255" d="M74 324q0 82 35 147q33 63 100 107q53 37 151 65q102 20 201 21q72 0 115 -9q63 -10 100 -20v33q0 66 -47 106q-47 37 -145 37q-172 0 -338 -78l-115 213q117 68 221 94q119 29 234 29q127 0 217 -33q92 -35 147 -90q63 -63 86 -141q29 -78 29 -182v-316q0 -82 61 -82 q23 0 35 6l27 -231q-35 -12 -62 -16q-33 -6 -73 -7q-86 0 -146 37q-61 39 -76 125q-57 -84 -149 -125q-86 -39 -211 -39q-182 0 -291 91q-106 88 -106 258zM373 338q0 -51 37 -80q33 -31 112 -31q125 0 191 56q66 53 65 125v24q-100 23 -209 23q-104 0 -151 -33 q-45 -33 -45 -84z" />
<glyph unicode="b" horiz-adv-x="1314" d="M139 55v1393h293v-465q63 43 129 64q71 22 147 22h7q100 0 203 -33q96 -39 159 -102q66 -63 107 -166q39 -98 39 -236q0 -129 -47 -233q-49 -104 -134 -176q-82 -70 -194 -111q-115 -37 -240 -37t-237 19q-115 18 -232 61zM432 258q82 -27 184 -27q63 0 121 19 q61 23 99 59q45 41 67 97q25 55 25 129q0 135 -72 204q-68 72 -180 72q-147 0 -244 -92v-461z" />
<glyph unicode="c" horiz-adv-x="1196" d="M92 520q0 119 43 219q41 96 119 174q82 76 180 115q104 41 223 41q145 0 246 -41q100 -35 191 -119l-164 -198q-100 94 -266 94q-57 0 -109 -19q-51 -23 -88 -57q-41 -33 -61 -86q-23 -55 -23 -115q0 -131 76 -209q73 -79 200 -79h3q84 0 155 30q68 27 121 80l170 -194 q-98 -98 -207 -140q-117 -41 -252 -41q-137 0 -239 43q-100 41 -177 117q-72 78 -106 172q-35 104 -35 213z" />
<glyph unicode="d" horiz-adv-x="1353" d="M92 520q0 127 43 228q43 100 119 174q76 70 176 108q98 39 219 39q76 0 146 -18q74 -18 125 -56v453h292v-1448h-231l-23 143q-57 -86 -147 -127q-94 -41 -203 -41q-119 0 -211 37q-92 35 -164 107q-70 76 -104 172q-37 102 -37 229zM385 524q0 -70 21 -123 q20 -51 53 -90q37 -39 82 -59q41 -20 96 -21q102 0 178 52q78 53 105 149v305q-96 76 -242 76q-133 0 -215 -76q-78 -82 -78 -213z" />
<glyph unicode="e" horiz-adv-x="1257" d="M92 520q0 109 39 215q43 102 115 174q78 74 180 117q106 43 236 43q111 0 202 -37q92 -33 160 -100q68 -63 104 -158q37 -90 37 -203q0 -37 -6 -73q-2 -35 -12 -70h-762q14 -86 90 -141q70 -55 203 -56q195 0 340 99l125 -213q-102 -74 -223 -109q-113 -33 -258 -33 q-139 0 -244 39q-106 39 -178 111t-109 172q-39 98 -39 223zM393 643h473q-4 78 -55 127t-157.5 49t-170.5 -47q-61 -45 -90 -129z" />
<glyph unicode="f" horiz-adv-x="874" d="M76 784v244l155 14v82q0 82 27 162q31 78 84 131q55 55 135 86t185 31q223 0 368 -115l-123 -209q-96 61 -217 62q-84 0 -125 -43q-41 -47 -41 -121v-64h303v-260h-303v-784h-293v784h-155z" />
<glyph unicode="g" horiz-adv-x="1298" d="M88 -201q0 150 98 254q-90 78 -90 211q0 72 37 137q39 63 113 109q-53 76 -53 182q0 74 28 148q31 70 90 118q53 49 144 82q86 29 196 29h185l354 31l22 -221l-163 -41q47 -66 47 -154q0 -74 -31 -139q-29 -68 -86 -117q-59 -51 -139 -80q-86 -29 -189 -29q-84 0 -143 15 q-68 16 -113 41q-37 -31 -37 -88q0 -96 131 -97h297q205 0 301 -92q94 -94 95 -241q0 -94 -43 -179q-47 -84 -125 -141q-80 -57 -195 -94q-119 -33 -250 -33q-242 0 -360 103q-121 102 -121 286zM422 -295q55 -47 170 -47q150 0 233 51q80 55 80 131q0 98 -131 99h-289 l-84 10q-36 -46 -36 -117q0 -84 57 -127zM467 686.5q0 -63.5 43 -100.5q41 -41 131 -41q84 0 129 37q47 41 47 108q0 88 -57 139h-127q-86 0 -125 -38q-41 -41 -41 -104.5z" />
<glyph unicode="h" horiz-adv-x="1329" d="M139 0v1448h293v-522q49 63 129 106q80 37 189 37q207 0 323 -119q115 -119 115 -344v-606h-291v582q0 117 -53 172q-49 57 -146 57q-90 0 -161 -53q-70 -51 -105 -156v-602h-293z" />
<glyph unicode="i" horiz-adv-x="575" d="M106 1391q0 84 56 129q57 47 125 47q70 0 127 -47q53 -47 53 -129q0 -80 -53 -129q-57 -47 -127 -48q-33 0 -68 13q-31 10 -57 35q-29 29 -39 57q-16 27 -17 72zM139 0v1044h295v-1044h-295z" />
<glyph unicode="j" horiz-adv-x="581" d="M-289 -403l101 237q49 -27 92 -35q51 -10 98 -10q63 0 104 41t41 127v1087h293v-1087q0 -92 -26 -178q-31 -82 -82 -139q-49 -55 -131 -91q-72 -30 -170 -30h-6q-92 0 -168 18q-72 18 -146 60zM113 1391q0 84 55 129q53 47 125 47t125 -47q55 -45 55 -129q0 -80 -55 -129 q-53 -47 -125 -48h-1q-72 0 -124 48q-55 49 -55 129z" />
<glyph unicode="k" horiz-adv-x="1269" d="M139 0v1448h293v-774l115 22l264 348h375l-393 -471l438 -573h-365l-305 424h-129v-424h-293z" />
<glyph unicode="l" horiz-adv-x="571" d="M139 0v1448h293v-1448h-293z" />
<glyph unicode="m" horiz-adv-x="1951" d="M139 0v1044h236l18 -153q51 82 135 133q86 45 199 45q104 0 186 -45q82 -43 129 -121q55 78 146 121q88 45 201 45q217 0 319 -119q102 -125 102 -332v-618h-294v606q0 104 -46 152q-41 53 -127 53q-139 0 -217 -121q10 -51 11 -88v-602h-295v604q0 98 -43 154 q-41 53 -129 53q-76 0 -146 -53q-63 -57 -90 -144v-614h-295z" />
<glyph unicode="n" horiz-adv-x="1329" d="M139 0v1044h234l20 -167q45 90 139 143q90 49 211 49q209 0 326 -119q119 -117 119 -344v-606h-291v582q0 117 -53 172q-49 57 -146 57q-92 0 -161 -53q-70 -55 -105 -160v-598h-293z" />
<glyph unicode="o" horiz-adv-x="1327" d="M92 522q0 121 43 219q39 102 117 174q82 76 180 113q107 41 232 41q127 0 229 -39q106 -39 182 -112q76 -70 117 -173q43 -100 43 -223q0 -121 -43 -221q-41 -96 -119 -174q-86 -78 -182 -111q-100 -41 -227 -41q-129 0 -231.5 39t-180.5 111t-117 174q-43 98 -43 223z M383 522q0 -135 76 -211q78 -80 205 -80q131 0 204 80q74 76 74 211q0 131 -74 211q-77 78 -204 78q-131 0 -205 -80q-76 -78 -76 -209z" />
<glyph unicode="p" d="M139 -381v1425h236l22 -137q63 84 148 125q86 37 203 37q113 0 200 -37q98 -43 154 -110q63 -63 102 -168q35 -104 35 -222q0 -137 -45 -239q-47 -106 -121 -174q-80 -74 -176 -107q-102 -37 -209 -37q-76 0 -135 15q-66 14 -123 49v-420h-291zM430 305q53 -31 111 -49 q61 -18 127 -18q123 0 198 79q76 78 76 222q0 127 -63 198q-63 74 -179 74q-98 0 -168 -47q-68 -47 -102 -125v-334z" />
<glyph unicode="q" horiz-adv-x="1304" d="M92 514q0 125 47 229q49 106 131 175q76 72 193 112q109 39 240 39t247 -25q115 -20 213 -65v-1360h-293v449q-51 -45 -125 -68q-70 -25 -165 -25q-102 0 -189 33q-88 33 -153 98q-63 63 -107 168q-39 102 -39 240zM391 522q0 -139 64 -209q65 -71 171 -71h3 q164 0 241 133v409q-37 16 -79.5 22.5t-90.5 6.5q-143 0 -225 -80q-84 -80 -84 -211z" />
<glyph unicode="r" horiz-adv-x="1132" d="M139 0v1044h236l18 -167q47 90 139 143q90 49 224 49q98 0 186 -35q86 -33 145 -90l-169 -225q-37 33 -99 59q-61 20 -127 21q-92 0 -160 -56q-70 -53 -100 -141v-602h-293z" />
<glyph unicode="s" horiz-adv-x="1181" d="M90 102l111 217q98 -55 184 -75q96 -23 190 -23q113 0 170 21q53 25 54 65q0 35 -27 53q-31 16 -86 23l-235 27q-152 14 -240 94q-86 78 -86 223q0 156 121 248q121 94 348 94q262 0 448 -111l-116 -219q-150 82 -336 82q-178 0 -178 -82q0 -59 94 -71l199 -23 q176 -20 278 -96q100 -74 100 -225q0 -166 -137 -258q-137 -90 -377 -91q-143 0 -250 29q-109 25 -229 98z" />
<glyph unicode="t" horiz-adv-x="978" d="M72 784v244l151 12l29 279l278 -14l-12 -261h348v-260h-346v-407q0 -66 37 -101q40 -34 101 -34h4q55 0 96 14q47 16 82 39l98 -225q-80 -51 -156 -72q-84 -23 -178 -23q-180 0 -278.5 100.5t-98.5 305.5v403h-155z" />
<glyph unicode="u" horiz-adv-x="1314" d="M139 438v606h293v-581q0 -231 193 -232q90 0 157 56q68 57 101 157v600h293v-1044h-234l-20 168q-45 -90 -136 -143q-90 -49 -204 -50q-211 0 -328 117q-115 119 -115 346z" />
<glyph unicode="v" horiz-adv-x="1329" d="M70 1044h348l244 -759h20l244 759h334l-441 -1048h-309z" />
<glyph unicode="w" horiz-adv-x="1830" d="M70 1044h331l181 -731h18l193 691h270l199 -691h18l174 731h307l-342 -1048h-340l-155 588h-19l-145 -588h-340z" />
<glyph unicode="x" horiz-adv-x="1372" d="M70 0l383 539l-359 505h377l205 -370h20l207 370h354l-350 -509l396 -535h-383l-238 391h-20l-218 -391h-374z" />
<glyph unicode="y" horiz-adv-x="1355" d="M70 1044h344l299 -737h18l232 737h323l-467 -1153q-51 -131 -139 -208q-84 -76 -217 -76q-145 0 -236 65l82 219q31 -14 64 -20q31 -6 59 -6q100 0 129 80l17 41z" />
<glyph unicode="z" horiz-adv-x="1159" d="M106 0v236l578 552h-547v256h910v-245l-558 -543h564v-256h-947z" />
<glyph unicode="{" horiz-adv-x="673" d="M49 424v256h55q66 0 66 72v20l-20 285v20q0 135 75 211q78 78 219 78h160v-250l-117 -4q-57 -2 -57 -68v-20l21 -270v-21q0 -61 -25 -108q-29 -47 -76 -74q100 -51 101 -180v-21l-21 -274v-21q0 -61 57 -63l117 -4v-250h-164q-143 0 -217 78t-73 209v22l20 287v20 q0 70 -66 70h-55z" />
<glyph unicode="|" horiz-adv-x="471" d="M98 -102v1577h275v-1577h-275z" />
<glyph unicode="}" horiz-adv-x="673" d="M70 -12l116 4q57 2 58 67v21l-21 270v21q0 63 27 108q25 45 74 74q-100 49 -101 180v21l21 274v21q0 61 -58 63l-116 4v250h163q143 0 218 -78q74 -76 73 -209v-22l-20 -287v-20q0 -70 65 -70h56v-256h-56q-66 0 -65 -72v-20l20 -285v-20q0 -135 -75 -211 q-78 -78 -220 -78h-159v250z" />
<glyph unicode="~" horiz-adv-x="1034" d="M90 690q41 96 107 154q70 57 170 57q47 0 79 -12q39 -18 62 -33q29 -16 57 -29q27 -14 70 -14q55 0 86 18q33 20 59 62l162 -156q-33 -96 -100 -147q-63 -51 -152 -51q-57 0 -92 14q-41 16 -66 31l-61 30q-27 14 -72 15q-57 0 -94 -23q-35 -16 -63 -55z" />
<glyph unicode="&#xa1;" horiz-adv-x="524" d="M88 885q0 78 53.5 125t121 47t120.5 -47t53 -125q0 -80 -51 -125q-53 -47 -122.5 -47t-123.5 47q-51 45 -51 125zM117 -436v1050h291v-1050h-291z" />
<glyph unicode="&#xa3;" horiz-adv-x="1454" d="M100 205l88 45q72 35 111 86q41 53 41 108q0 18 -2 27q-2 10 -6 27l-172 -37l-54 241l142 33q-23 45 -37 101q-14 51 -14 125q0 80 28 153q27 72 82 127t135 86q80 33 187 33q139 0 237 -49q96 -45 162 -133l-197 -181q-68 92 -190 93q-76 0 -117 -43q-41 -45 -41 -111 q0 -74 35 -133l297 71l57 -268l-241 -51q12 -37 12 -80q0 -47 -16 -86q-10 -39 -49 -82q41 0 86 -10l81 -23l86 -20q45 -10 89 -10q78 0 120 37q41 37 41 102q0 61 -30 121l245 80q37 -51 58 -117q20 -59 20 -131q0 -82 -31 -148q-33 -70 -88 -112q-61 -49 -137 -72 q-74 -27 -176 -27q-61 0 -115 13l-110 26l-109 25q-55 12 -119 12q-152 0 -290 -71z" />
<glyph unicode="&#xa4;" horiz-adv-x="1044" d="M78 444l104 121q-16 35 -24 70q-8 33 -8 72q0 80 32 143l-104 119l176 178l125 -109q68 29 145 29q70 0 140 -29l122 109l181 -178l-101 -115q16 -39 23 -70q8 -33 8 -77q0 -82 -33 -146l103 -117l-181 -170l-124 103q-68 -27 -138 -27q-76 0 -145 29l-125 -107zM385 709 q0 -61 41 -97q37 -37 98 -37q57 0 99 37q39 37 39 97q0 61 -39 98q-42 37 -99 37q-61 0 -98 -37q-41 -35 -41 -98z" />
<glyph unicode="&#xa5;" horiz-adv-x="1495" d="M63 1331h347l346 -586h20l332 586h336l-373 -586l146 -10v-229h-924v229l149 10zM340 184v215h827v-213l-266 -12v-174h-295v174z" />
<glyph unicode="&#xa6;" horiz-adv-x="471" d="M98 -102v723h275v-723h-275zM98 750v725h275v-725h-275z" />
<glyph unicode="&#xa7;" horiz-adv-x="1169" d="M100 678q0 84 41 156q37 66 119 108q-39 33 -65 82q-25 49 -25 111q0 70 33 127q35 59 88 98q66 45 133 61q70 23 162 23q139 0 239 -31q111 -37 187 -96l-131 -215q-131 84 -283 84q-135 0 -135 -80q0 -66 96 -88l225 -51q137 -33 211 -113t74 -199q0 -90 -43 -153 q-43 -66 -121 -109q43 -31 62 -78q23 -47 22 -106q0 -74 -31 -131q-29 -59 -86 -103q-59 -43 -139 -67.5t-180 -24.5q-127 0 -231 27q-111 29 -209 88l112 231q86 -45 168 -67q74 -20 168 -21q70 0 109 23q37 25 37 63q0 61 -78 84l-240 51q-141 31 -215 111t-74 205z M371 700q0 -37 22 -65q20 -29 68 -37l260 -57q78 23 78 96q0 82 -90 100l-260 58q-37 -8 -58 -33q-20 -27 -20 -62z" />
<glyph unicode="&#xa8;" horiz-adv-x="870" d="M33 1360q0 74 49 121q52 45 115 45q68 0 114 -45q51 -45 51 -121q0 -70 -51 -119q-51 -45 -114 -45q-31 0 -62 12q-23 10 -53 33q-25 27 -37 53q-12 29 -12 66zM508 1360q0 74 49 121q52 45 115 45q68 0 114 -45q51 -45 52 -121q0 -70 -52 -119q-51 -45 -114 -45 q-31 0 -62 12q-23 10 -53 33q-25 27 -37 53q-12 29 -12 66z" />
<glyph unicode="&#xa9;" horiz-adv-x="1818" d="M111 694q0 166 65 310q68 141 178 245q117 109 256 160q137 59 299 59q168 0 311.5 -55t254.5 -156q111 -106 172 -245q61 -145 61 -318q0 -168 -61 -309q-66 -143 -172 -246q-109 -104 -254 -164q-150 -57 -312 -57q-176 0 -319 55q-150 55 -254 158q-106 98 -166 244 q-59 147 -59 319zM365 694q0 -123 38 -219q41 -102 111 -168q66 -70 172 -110q98 -39 223 -39q109 0 213 39q102 43 172 110q78 78 115 170q43 98 43 217q0 127 -39 224q-39 100 -110 167q-70 70 -173 107q-102 37 -221 37q-111 0 -209 -39q-96 -39 -172 -109 q-76 -74 -118 -170q-45 -96 -45 -217zM496 696q0 88 32 160q31 76 88 129q59 55 138 86q80 31 174 31q199 0 321 -131l-147 -160q-31 31 -74 47q-37 14 -92 14q-84 0 -133 -51q-45 -55 -45 -125q0 -82 49 -131q49 -45 127 -45q106 0 178 68l141 -160q-135 -141 -338 -141 q-90 0 -165 28q-76 27 -136 82q-55 49 -86 127q-33 74 -32 172z" />
<glyph unicode="&#xab;" horiz-adv-x="1114" d="M80 500v63l313 361l185 -150l-195 -237l195 -246l-185 -152zM532 500v63l318 371l184 -150l-190 -247l190 -256l-184 -150z" />
<glyph unicode="&#xac;" horiz-adv-x="958" d="M111 662v264h757v-508h-250l-24 244h-483z" />
<glyph unicode="&#xad;" horiz-adv-x="860" d="M119 432v260h622v-260h-622z" />
<glyph unicode="&#xae;" horiz-adv-x="1226" d="M78 1020q0 109 39 201q39 96 108 163q72 72 168 111q101 41 219.5 41t218.5 -41q96 -37 173 -111q72 -76 106 -163q39 -92 39 -201q0 -102 -39 -203q-41 -92 -111 -164q-76 -72 -170 -110q-100 -41 -217 -41q-119 0 -219 41q-96 39 -168 110q-68 68 -108 164 q-39 92 -39 203zM282.5 1020q0.5 -70 22.5 -131q20 -55 64 -107q41 -45 104 -69q59 -27 139 -27q82 0 142 27q63 27 102 69q45 49 66 107q23 61 22 131q0 68 -22 131q-20 57 -66 106q-39 43 -102 70q-60 27 -142 27q-80 0 -139 -27q-63 -25 -104 -70q-43 -47 -64 -104 q-23 -63 -22.5 -133zM424 797v465h227q96 0 144 -54q53 -47 53 -123q0 -53 -25 -92t-63 -57l82 -139h-168l-51 106h-56v-106h-143zM567 1034h70q55 0 55 45t-55 45h-70v-90z" />
<glyph unicode="&#xaf;" horiz-adv-x="823" d="M68 1251v250h688v-250h-688z" />
<glyph unicode="&#xb0;" horiz-adv-x="862" d="M79.5 1061q0.5 78 26.5 139q27 59 74 107q43 43 111 69q67 25 139 25t139 -25q68 -27 111 -69q49 -45 75.5 -106.5t26.5 -139.5q0 -76 -26 -135q-27 -61 -74 -109q-45 -45 -113 -69q-61 -25 -139 -25q-72 0 -139 25q-68 27 -111 67q-47 47 -74 107q-27 61 -26.5 139z M317 1061q0 -45 31 -80q31 -33 82 -33t82 33q33 33 33 80q0 49 -33 82q-31 31 -82 31t-82 -31q-31 -33 -31 -82z" />
<glyph unicode="&#xb1;" horiz-adv-x="1067" d="M119 784v252h280v295h269v-295h280v-252h-280v-274h-269v274h-280zM143 170v252h781v-252h-781z" />
<glyph unicode="&#xb4;" horiz-adv-x="509" d="M47 1247l197 432l237 -143l-176 -289h-258z" />
<glyph unicode="&#xb6;" horiz-adv-x="1159" d="M68 711q0 72 26 137q31 66 78 106q55 45 121 66q72 25 151 24h344q47 0 138 5q49 2 127 14l30 -199l-120 -37v-536q0 -154 -58 -287q-55 -139 -203 -240l-327 -229l-123 158l182 155v576q-39 -20 -88 -21q-125 0 -201 80q-78 82 -77 228zM303 715q0 -43 25 -68 q20 -27 55 -26q25 0 51 10v186h-28q-47 0 -76 -29q-27 -27 -27 -73zM655 -18l33 34q25 25 37 74q14 43 14 100v627h-84v-835z" />
<glyph unicode="&#xb7;" horiz-adv-x="548" d="M96 633q0 80 54 129q53 47 124.5 47t124.5 -47q53 -49 54 -129q0 -82 -53.5 -129t-125.5 -47q-70 0 -122 47q-55 45 -56 129z" />
<glyph unicode="&#xb8;" horiz-adv-x="485" d="M63 -469q72 27 117 68q37 43 37 82q0 47 -33 65q-33 20 -98 21v51l45 94v143h234l-19 -159q55 -20 90 -68q33 -47 33 -119q0 -125 -82 -219q-84 -96 -256 -147z" />
<glyph unicode="&#xbb;" horiz-adv-x="1114" d="M80 279l190 249l-190 256l184 150l318 -371v-63l-318 -369zM537 289l194 237l-194 246l184 152l313 -361v-63l-313 -361z" />
<glyph unicode="&#xbc;" horiz-adv-x="1525" d="M23 1083l253 191l148 -8v-713h-223v412l-97 -43zM203 -10l807 1296l166 -96l-805 -1296zM774 100v191l363 424h241v-408h88v-196l-88 -11v-100h-204v100h-400zM1028 307h146v174z" />
<glyph unicode="&#xbd;" horiz-adv-x="1593" d="M23 1083l253 191l148 -8v-713h-223v412l-97 -43zM207 -10l805 1296l168 -96l-807 -1296zM905 606q74 63 152 90q80 31 168 31q139 0 225 -68q82 -66 82 -172q0 -76 -37 -131q-37 -53 -104 -94l-109 -65h246v-197h-596v172l295 182q43 25 65 56q20 23 21 59q0 31 -27 49 q-25 18 -74 19q-109 0 -200 -74z" />
<glyph unicode="&#xbe;" horiz-adv-x="1681" d="M37 643l92 154q51 -29 111 -47q51 -12 112 -13q51 0 74 17q27 12 27 37q0 37 -52 36h-184v177h166q47 0 47 34q0 43 -78 43q-57 0 -104 -12q-45 -12 -88 -37l-105 137q57 49 138 84q80 27 165 27q141 0 215 -61.5t74 -155.5q0 -41 -14 -72q-16 -35 -45 -55 q92 -47 92 -156q0 -102 -80 -170q-78 -70 -246 -69q-92 0 -170 22q-76 20 -147 80zM362 -10l805 1296l168 -96l-807 -1296zM940 100v191l363 424h243v-408h86v-196l-86 -11v-100h-207v100h-399zM1194 307h145v174z" />
<glyph unicode="&#xbf;" horiz-adv-x="1097" d="M90 8q0 160 94 273q96 113 273 163q47 16 71 43q23 29 23 64q0 31 -6 51l264 27q6 -14 14 -51q6 -31 6 -66q0 -98 -59 -170q-61 -74 -184 -106q-201 -55 -201 -211q0 -98 65.5 -151.5t194.5 -53.5q201 0 354 123l150 -213q-115 -92 -242 -136q-129 -43 -274 -43 q-119 0 -217 31q-100 29 -172 86q-74 57 -113 144q-41 88 -41 196zM489 885q0 78 53.5 125t121 47t121 -47t53.5 -125q0 -80 -52 -125q-53 -47 -122.5 -47t-122.5 47q-51 45 -52 125z" />
<glyph unicode="&#xc0;" horiz-adv-x="1624" d="M78 0l563 1374h338l567 -1374h-340l-104 272h-588l-102 -272h-334zM473 1880l256 125l193 -449h-275zM614 543h387l-182 522h-20z" />
<glyph unicode="&#xc1;" horiz-adv-x="1624" d="M78 0l563 1374h338l567 -1374h-340l-104 272h-588l-102 -272h-334zM614 543h387l-182 522h-20zM707 1556l194 449l256 -125l-176 -324h-274z" />
<glyph unicode="&#xc2;" horiz-adv-x="1624" d="M78 0l563 1374h338l567 -1374h-340l-104 272h-588l-102 -272h-334zM481 1645v28l303 275h54l303 -275v-28l-146 -150l-184 150l-182 -150zM614 543h387l-182 522h-20z" />
<glyph unicode="&#xc3;" horiz-adv-x="1624" d="M78 0l563 1374h338l567 -1374h-340l-104 272h-588l-102 -272h-334zM383 1692q41 86 109 133q68 49 157 49q47 0 90 -16q39 -14 72 -35q49 -29 66 -37q37 -16 69 -17q92 0 141 68l154 -145q-39 -88 -104 -131q-66 -47 -152 -48q-51 0 -96 17q-37 14 -74 37 q-29 20 -65.5 36.5t-71.5 16.5q-51 0 -88 -18q-39 -25 -58 -52zM614 543h387l-182 522h-20z" />
<glyph unicode="&#xc4;" horiz-adv-x="1624" d="M78 0l563 1374h338l567 -1374h-340l-104 272h-588l-102 -272h-334zM373 1698q0 43 14 74q16 35 39 55q25 25 57 37q31 12 64 12q72 0 125 -49q53 -47 53 -129q0 -76 -53 -125q-53 -47 -125 -47q-33 0 -64 12q-31 10 -57 35q-25 25 -39 57q-14 29 -14 68zM614 543h387 l-182 522h-20zM897 1698q0 43 14 74q16 35 39 55q25 25 58 37q30 12 63 12q70 0 125 -49q51 -47 51 -129q0 -74 -51 -125q-57 -47 -125 -47q-33 0 -63 12q-31 10 -58 35q-25 25 -39 57q-14 29 -14 68z" />
<glyph unicode="&#xc5;" horiz-adv-x="1624" d="M78 0l563 1374h338l567 -1374h-340l-104 272h-588l-102 -272h-334zM530 1753q0 57 21 105q23 53 57 84q41 41 88 57q47 22 115 22q63 0 115 -22q49 -18 88 -57q35 -31 57 -84q20 -47 20.5 -104.5t-20.5 -104.5q-23 -51 -57 -86q-31 -31 -88 -60q-61 -20 -115 -20 q-59 0 -115 20q-55 25 -90 59.5t-57 86.5q-18 49 -19 104zM614 543h387l-182 522h-20zM739 1753q0 -31 19 -49q20 -20 53 -21q31 0 49 21q20 18 21 49q0 29 -21 49q-18 21 -49 21q-33 0 -53 -21q-18 -20 -19 -49z" />
<glyph unicode="&#xc6;" horiz-adv-x="2226" d="M37 0l858 1372h1186v-276h-705v-258h627v-269h-627v-293h740v-276h-1043v272h-504l-155 -272h-377zM729 547h344v551h-37z" />
<glyph unicode="&#xc7;" horiz-adv-x="1501" d="M98 682q0 152 54 279q47 127 149 229q98 98 238 153q135 57 315 58q162 0 293 -49q131 -45 237 -140l-170 -223q-72 66 -165 96q-88 35 -207 35q-100 0 -183 -30q-82 -35 -137 -91q-57 -61 -88 -139q-31 -80 -31 -174q0 -98 31 -178q35 -84 90 -135q55 -55 138 -90 q80 -31 176 -31q109 0 219 39q109 47 180 117l174 -215q-100 -94 -227 -152q-127 -51 -273 -66l-8 -75q59 -23 96 -80q33 -59 33 -127q0 -131 -90 -234q-90 -96 -274 -143l-78 184q86 29 137 70q51 45 51 98q0 45 -41 68q-39 20 -110 20v49l47 103v76q-127 20 -238 77 q-104 59 -182 150q-76 92 -115 209q-41 123 -41 262z" />
<glyph unicode="&#xc8;" d="M160 0v1372h1026v-276h-723v-258h645v-269h-645v-293h758v-276h-1061zM395 1880l256 125l193 -449h-275z" />
<glyph unicode="&#xc9;" d="M160 0v1372h1026v-276h-723v-258h645v-269h-645v-293h758v-276h-1061zM551 1556l194 449l256 -125l-176 -324h-274z" />
<glyph unicode="&#xca;" d="M160 0v1372h1026v-276h-723v-258h645v-269h-645v-293h758v-276h-1061zM360 1645v28l304 275h53l303 -275v-28l-146 -150l-184 150l-182 -150z" />
<glyph unicode="&#xcb;" d="M160 0v1372h1026v-276h-723v-258h645v-269h-645v-293h758v-276h-1061zM250 1698q0 43 14 74q16 35 39 55q25 25 57 37q31 12 64 12q72 0 125 -49q53 -47 53 -129q0 -76 -53 -125q-53 -47 -125 -47q-33 0 -64 12q-31 10 -57 35q-25 25 -39 57q-14 29 -14 68zM774 1698 q0 43 14 74q16 35 39 55q25 25 58 37q30 12 63 12q70 0 125 -49q51 -47 51 -129q0 -74 -51 -125q-57 -47 -125 -47q-33 0 -63 12q-31 10 -58 35q-23 25 -39 57q-14 29 -14 68z" />
<glyph unicode="&#xcc;" horiz-adv-x="630" d="M6 1880l256 125l193 -449h-275zM160 0v1372h309v-1372h-309z" />
<glyph unicode="&#xcd;" horiz-adv-x="630" d="M160 0v1372h309v-1372h-309zM188 1556l195 449l256 -125l-176 -324h-275z" />
<glyph unicode="&#xce;" horiz-adv-x="630" d="M-12 1645v28l303 275h53l303 -275v-28l-145 -150l-185 150l-182 -150zM160 0v1372h309v-1372h-309z" />
<glyph unicode="&#xcf;" horiz-adv-x="630" d="M-80 1700q0 80 51 125q51 47 119 47q70 0 123 -47q49 -45 49 -125q0 -74 -49 -119q-53 -49 -123 -49t-119 49q-51 45 -51 119zM160 0v1372h309v-1372h-309zM373 1700q0 80 51 125q53 47 119 47q70 0 121 -47q51 -45 51 -125q0 -74 -51 -119q-49 -49 -121 -49 q-68 0 -119 49q-51 45 -51 119z" />
<glyph unicode="&#xd0;" horiz-adv-x="1517" d="M14 545v276h156v551h506q172 0 309 -49q139 -53 236 -143q94 -88 147 -217q51 -121 51 -277q0 -145 -53 -276q-53 -125 -152 -217q-96 -88 -235 -142q-139 -51 -309 -51h-500v530zM475 276h197q90 0 176 29q70 25 139 80q63 63 90 129q35 72 35 172q0 199 -113 305 q-117 104 -329 105h-195v-275h313v-289h-313v-256z" />
<glyph unicode="&#xd1;" horiz-adv-x="1558" d="M160 0v1372h276l666 -926v926h297v-1372h-307l-633 877v-877h-299zM350 1692q41 86 109 133q68 49 157 49q47 0 91 -16q39 -14 71 -35q49 -29 66 -37q37 -16 69 -17q92 0 142 68l153 -145q-39 -88 -104 -131q-66 -47 -152 -48q-51 0 -96 17q-37 14 -74 37 q-29 20 -65.5 36.5t-71.5 16.5q-51 0 -88 -18q-39 -25 -57 -52z" />
<glyph unicode="&#xd2;" horiz-adv-x="1652" d="M98 686q0 143 54 279q51 131 151 227q96 96 229 151q129 58 293 58q160 0 297 -53q137 -55 230 -152q96 -92 149 -225q53 -135 53 -285q0 -145 -53 -276q-49 -127 -149 -230q-96 -96 -230 -151q-133 -57 -297 -58q-158 0 -293 54q-133 55 -229 151q-100 96 -151 227 q-53 135 -54 283zM403 686q0 -88 29 -174q27 -80 84 -139q53 -55 133 -94q82 -33 176 -33q98 0 179 35q78 33 135 96q49 55 82 139q27 86 26 170q0 92 -28 174q-27 82 -84 141q-51 57 -131 93q-79 32 -179 32q-96 0 -178 -34q-78 -35 -131 -95q-57 -59 -84 -139 q-29 -82 -29 -172zM508 1880l256 125l192 -449h-274z" />
<glyph unicode="&#xd3;" horiz-adv-x="1652" d="M98 686q0 143 54 279q51 131 151 227q96 96 229 151q129 58 293 58q160 0 297 -53q137 -55 230 -152q96 -92 149 -225q53 -135 53 -285q0 -145 -53 -276q-49 -127 -149 -230q-96 -96 -230 -151q-133 -57 -297 -58q-158 0 -293 54q-133 55 -229 151q-100 96 -151 227 q-53 135 -54 283zM403 686q0 -88 29 -174q27 -80 84 -139q53 -55 133 -94q82 -33 176 -33q98 0 179 35q78 33 135 96q49 55 82 139q27 86 26 170q0 92 -28 174q-27 82 -84 141q-51 57 -131 93q-79 32 -179 32q-96 0 -178 -34q-78 -35 -131 -95q-57 -59 -84 -139 q-29 -82 -29 -172zM711 1556l194 449l256 -125l-176 -324h-274z" />
<glyph unicode="&#xd4;" horiz-adv-x="1652" d="M98 686q0 143 54 279q51 131 151 227q96 96 229 151q129 58 293 58q160 0 297 -53q137 -55 230 -152q96 -92 149 -225q53 -135 53 -285q0 -145 -53 -276q-49 -127 -149 -230q-96 -96 -230 -151q-133 -57 -297 -58q-158 0 -293 54q-133 55 -229 151q-100 96 -151 227 q-53 135 -54 283zM403 686q0 -88 29 -174q27 -80 84 -139q53 -55 133 -94q82 -33 176 -33q98 0 179 35q78 33 135 96q49 55 82 139q27 86 26 170q0 92 -28 174q-27 82 -84 141q-51 57 -131 93q-79 32 -179 32q-96 0 -178 -34q-78 -35 -131 -95q-57 -59 -84 -139 q-29 -82 -29 -172zM496 1645v28l303 275h53l303 -275v-28l-145 -150l-185 150l-182 -150z" />
<glyph unicode="&#xd5;" horiz-adv-x="1652" d="M98 686q0 143 54 279q51 131 151 227q96 96 229 151q129 58 293 58q160 0 297 -53q137 -55 230 -152q96 -92 149 -225q53 -135 53 -285q0 -145 -53 -276q-49 -127 -149 -230q-96 -96 -230 -151q-133 -57 -297 -58q-158 0 -293 54q-133 55 -229 151q-100 96 -151 227 q-53 135 -54 283zM397 1692q41 86 107 133q70 49 160 49q47 0 90 -16q18 -6 73 -35q29 -20 66 -37q33 -16 68 -17q92 0 141 68l153 -145q-39 -88 -104 -131q-66 -47 -152 -48q-55 0 -94 17q-43 14 -74 37q-47 29 -67 37q-37 16 -72 16q-53 0 -86 -18q-39 -23 -59 -52z M403 686q0 -88 29 -174q27 -80 84 -139q53 -55 133 -94q82 -33 176 -33q98 0 179 35q78 33 135 96q49 55 82 139q27 86 26 170q0 92 -28 174q-27 82 -84 141q-51 57 -131 93q-79 32 -179 32q-96 0 -178 -34q-78 -35 -131 -95q-57 -59 -84 -139q-29 -82 -29 -172z" />
<glyph unicode="&#xd6;" horiz-adv-x="1652" d="M98 686q0 143 54 279q51 131 151 227q96 96 229 151q129 58 293 58q160 0 297 -53q137 -55 230 -152q96 -92 149 -225q53 -135 53 -285q0 -145 -53 -276q-49 -127 -149 -230q-96 -96 -230 -151q-133 -57 -297 -58q-158 0 -293 54q-133 55 -229 151q-100 96 -151 227 q-53 135 -54 283zM387 1698q0 43 14 74q16 35 39 55q25 25 56 37q32 12 65 12q74 0 125 -49q53 -47 53 -129q0 -76 -53 -125q-53 -47 -125 -47q-33 0 -65 12q-29 12 -56 35q-23 25 -39 57q-14 29 -14 68zM403 686q0 -88 29 -174q27 -80 84 -139q53 -55 133 -94 q82 -33 176 -33q98 0 179 35q78 33 135 96q49 55 82 139q27 86 26 170q0 92 -28 174q-27 82 -84 141q-51 57 -131 93q-79 32 -179 32q-96 0 -178 -34q-78 -35 -131 -95q-57 -59 -84 -139q-29 -82 -29 -172zM911 1698q0 43 15 74q16 35 39 55q25 25 55 37q34 12 65 12 q74 0 123 -49q53 -45 54 -129q0 -78 -54 -125q-51 -47 -123 -47q-33 0 -65 12q-29 12 -55 35q-23 25 -39 57q-14 29 -15 68z" />
<glyph unicode="&#xd7;" horiz-adv-x="1105" d="M156 461l211 211l-211 207l184 184l215 -213l211 213l184 -182l-213 -209l213 -211l-184 -180l-211 208l-215 -208z" />
<glyph unicode="&#xd8;" horiz-adv-x="1652" d="M98 686q0 143 54 279q51 131 151 227q96 96 229 151q129 57 293 58q172 0 314 -64l116 162l230 -160l-117 -161q86 -92 137 -220q49 -127 49 -272t-53 -276q-49 -127 -149 -230q-96 -96 -230 -151q-133 -57 -297 -58q-76 0 -149 13q-82 18 -135 39l-129 -181l-228 162 l121 168q-98 98 -153 229q-53 131 -54 285zM403 686q0 -154 78 -268l490 686q-72 23 -146 22q-96 0 -178 -34q-78 -35 -131 -95q-57 -59 -84 -139q-29 -82 -29 -172zM711 260q45 -14 114 -14q98 0 179 35q78 33 135 96q49 55 82 139q27 86 26 170q0 137 -59 240z" />
<glyph unicode="&#xd9;" horiz-adv-x="1562" d="M160 604v768h309v-764q0 -166 80 -264q78 -96 231 -96q158 0 234 92q78 90 78 264v768h309v-762q0 -147 -41 -262q-37 -115 -119 -201q-74 -80 -192 -131q-123 -45 -269 -45q-154 0 -264 45q-119 45 -197 127q-80 82 -118 199q-41 119 -41 262zM475 1880l256 125 l193 -449h-275z" />
<glyph unicode="&#xda;" horiz-adv-x="1562" d="M160 604v768h309v-764q0 -166 80 -264q78 -96 231 -96q158 0 234 92q78 90 78 264v768h309v-762q0 -147 -41 -262q-37 -115 -119 -201q-74 -80 -192 -131q-123 -45 -269 -45q-154 0 -264 45q-119 45 -197 127q-80 82 -118 199q-41 119 -41 262zM639 1556l195 449 l256 -125l-177 -324h-274z" />
<glyph unicode="&#xdb;" horiz-adv-x="1562" d="M160 604v768h309v-764q0 -166 80 -264q78 -96 231 -96q158 0 234 92q78 90 78 264v768h309v-762q0 -147 -41 -262q-37 -115 -119 -201q-74 -80 -192 -131q-123 -45 -269 -45q-154 0 -264 45q-119 45 -197 127q-80 82 -118 199q-41 119 -41 262zM451 1645v28l303 275h53 l303 -275v-28l-145 -150l-185 150l-182 -150z" />
<glyph unicode="&#xdc;" horiz-adv-x="1562" d="M160 604v768h309v-764q0 -166 80 -264q78 -96 231 -96q158 0 234 92q78 90 78 264v768h309v-762q0 -147 -41 -262q-37 -115 -119 -201q-74 -80 -192 -131q-123 -45 -269 -45q-154 0 -264 45q-119 45 -197 127q-80 82 -118 199q-41 119 -41 262zM342 1698q0 43 14 74 q16 35 39 55q25 25 56 37q32 12 65 12q74 0 125 -49q53 -47 53 -129q0 -76 -53 -125q-53 -47 -125 -47q-33 0 -65 12q-29 12 -56 35q-25 25 -39 57q-14 29 -14 68zM866 1698q0 43 15 74q16 35 39 55q25 25 55 37q34 12 65 12q74 0 123 -49q53 -45 54 -129q0 -78 -54 -125 q-51 -47 -123 -47q-33 0 -65 12q-29 12 -55 35q-23 25 -39 57q-14 29 -15 68z" />
<glyph unicode="&#xdd;" horiz-adv-x="1509" d="M68 1372h368l312 -610h20l307 610h365l-533 -913v-459h-307v459zM614 1556l195 449l256 -125l-176 -324h-275z" />
<glyph unicode="&#xde;" horiz-adv-x="1363" d="M160 0v1401h307v-191h266q117 0 217 -34q100 -37 172 -103q68 -59 115 -155q39 -96 39 -203q0 -117 -43 -211q-49 -98 -123 -156q-70 -63 -178 -100q-104 -35 -219 -35h-246v-213h-307zM467 485h246q123 0 188 62q68 61 68 166q0 102 -62 164q-63 59 -184 59h-256v-451z " />
<glyph unicode="&#xdf;" horiz-adv-x="1439" d="M139 0v1104q0 106 33 186q33 78 90 135q63 57 139 86q86 29 179 29q104 0 174 -29q76 -23 131 -75q57 -51 82 -115q29 -59 28 -139q0 -76 -26 -127q-31 -57 -70 -88q-45 -39 -63 -74q-20 -35 -21 -72q0 -72 88 -90l109 -22q160 -33 250 -121q88 -86 88 -234 q0 -80 -31 -151q-25 -63 -86 -121q-66 -51 -146 -78q-90 -29 -198 -29q-102 0 -199 25q-94 25 -180 80l119 225q68 -41 133 -59q72 -16 139 -17q72 0 119 29q45 31 45 84q0 92 -115 111l-108 16q-145 23 -228 104q-80 82 -79 211q0 74 28 125q20 41 64 92q41 43 57 78 q23 35 23 82q0 49 -33 82q-35 35 -99 35q-70 0 -108 -45q-37 -43 -37 -119v-1114h-291z" />
<glyph unicode="&#xe0;" horiz-adv-x="1255" d="M74 324q0 82 35 147q33 63 100 107q53 37 151 65q102 20 201 21q72 0 115 -9q63 -10 100 -20v33q0 66 -47 106q-47 37 -145 37q-172 0 -338 -78l-115 213q117 68 221 94q119 29 234 29q127 0 217 -33q92 -35 147 -90q63 -63 86 -141q29 -78 29 -182v-316q0 -82 61 -82 q23 0 35 6l27 -231q-35 -12 -62 -16q-33 -6 -73 -7q-86 0 -146 37q-61 39 -76 125q-57 -84 -149 -125q-86 -39 -211 -39q-182 0 -291 91q-106 88 -106 258zM285 1536l237 143l197 -432h-258zM373 338q0 -51 37 -80q33 -31 112 -31q125 0 191 56q66 53 65 125v24 q-100 23 -209 23q-104 0 -151 -33q-45 -33 -45 -84z" />
<glyph unicode="&#xe1;" horiz-adv-x="1255" d="M74 324q0 82 35 147q33 63 100 107q53 37 151 65q102 20 201 21q72 0 115 -9q63 -10 100 -20v33q0 66 -47 106q-47 37 -145 37q-172 0 -338 -78l-115 213q117 68 221 94q119 29 234 29q127 0 217 -33q92 -35 147 -90q63 -63 86 -141q29 -78 29 -182v-316q0 -82 61 -82 q23 0 35 6l27 -231q-35 -12 -62 -16q-33 -6 -73 -7q-86 0 -146 37q-61 39 -76 125q-57 -84 -149 -125q-86 -39 -211 -39q-182 0 -291 91q-106 88 -106 258zM373 338q0 -51 37 -80q33 -31 112 -31q125 0 191 56q66 53 65 125v24q-100 23 -209 23q-104 0 -151 -33 q-45 -33 -45 -84zM479 1247l197 432l237 -143l-176 -289h-258z" />
<glyph unicode="&#xe2;" horiz-adv-x="1255" d="M74 324q0 82 35 147q33 63 100 107q53 37 151 65q102 20 201 21q72 0 115 -9q63 -10 100 -20v33q0 66 -47 106q-47 37 -145 37q-172 0 -338 -78l-115 213q117 68 221 94q119 29 234 29q127 0 217 -33q92 -35 147 -90q63 -63 86 -141q29 -78 29 -182v-316q0 -82 61 -82 q23 0 35 6l27 -231q-35 -12 -62 -16q-33 -6 -73 -7q-86 0 -146 37q-61 39 -76 125q-57 -84 -149 -125q-86 -39 -211 -39q-182 0 -291 91q-106 88 -106 258zM266 1335v33l287 268h61l297 -268v-33l-139 -147l-190 153l-174 -153zM373 338q0 -51 37 -80q33 -31 112 -31 q125 0 191 56q66 53 65 125v24q-100 23 -209 23q-104 0 -151 -33q-45 -33 -45 -84z" />
<glyph unicode="&#xe3;" horiz-adv-x="1255" d="M74 324q0 82 35 147q33 63 100 107q53 37 151 65q102 20 201 21q72 0 115 -9q63 -10 100 -20v33q0 66 -47 106q-47 37 -145 37q-172 0 -338 -78l-115 213q117 68 221 94q119 29 234 29q127 0 217 -33q92 -35 147 -90q63 -63 86 -141q29 -78 29 -182v-316q0 -82 61 -82 q23 0 35 6l27 -231q-35 -12 -62 -16q-33 -6 -73 -7q-86 0 -146 37q-61 39 -76 125q-57 -84 -149 -125q-86 -39 -211 -39q-182 0 -291 91q-106 88 -106 258zM186 1368q41 80 109 127q66 47 154 47q51 0 81 -14q45 -20 66 -31l61 -31q29 -14 70 -14q43 0 78 18q35 16 57 46 l146 -146q-39 -82 -103 -129q-61 -43 -149 -43q-49 0 -84 14q-41 16 -70 33q-41 20 -63 31q-31 14 -70 14q-90 0 -141 -63zM373 338q0 -51 37 -80q33 -31 112 -31q125 0 191 56q66 53 65 125v24q-100 23 -209 23q-104 0 -151 -33q-45 -33 -45 -84z" />
<glyph unicode="&#xe4;" horiz-adv-x="1255" d="M74 324q0 82 35 147q33 63 100 107q53 37 151 65q102 20 201 21q72 0 115 -9q63 -10 100 -20v33q0 66 -47 106q-47 37 -145 37q-172 0 -338 -78l-115 213q117 68 221 94q119 29 234 29q127 0 217 -33q92 -35 147 -90q63 -63 86 -141q29 -78 29 -182v-316q0 -82 61 -82 q23 0 35 6l27 -231q-35 -12 -62 -16q-33 -6 -73 -7q-86 0 -146 37q-61 39 -76 125q-57 -84 -149 -125q-86 -39 -211 -39q-182 0 -291 91q-106 88 -106 258zM193 1360q0 74 49 121q51 45 114 45q68 0 115 -45q51 -45 51 -121q0 -70 -51 -119q-51 -45 -115 -45q-31 0 -61 12 q-23 10 -53 33q-25 27 -37 53q-12 29 -12 66zM373 338q0 -51 37 -80q33 -31 112 -31q125 0 191 56q66 53 65 125v24q-100 23 -209 23q-104 0 -151 -33q-45 -33 -45 -84zM668 1360q0 74 49 121q51 45 114 45q68 0 115 -45q51 -45 51 -121q0 -70 -51 -119q-51 -45 -115 -45 q-31 0 -61 12q-23 10 -53 33q-25 27 -37 53q-12 29 -12 66z" />
<glyph unicode="&#xe5;" horiz-adv-x="1255" d="M74 324q0 82 35 147q33 63 100 107q53 37 151 65q102 20 201 21q72 0 115 -9q63 -10 100 -20v33q0 66 -47 106q-47 37 -145 37q-172 0 -338 -78l-115 213q117 68 221 94q119 29 234 29q127 0 217 -33q92 -35 147 -90q63 -63 86 -141q29 -78 29 -182v-316q0 -82 61 -82 q23 0 35 6l27 -231q-35 -12 -62 -16q-33 -6 -73 -7q-86 0 -146 37q-61 39 -76 125q-57 -84 -149 -125q-86 -39 -211 -39q-182 0 -291 91q-106 88 -106 258zM332 1432q0 53 18 96q18 41 56 82q35 33 83 53q44 20 107 20q59 0 106 -20q51 -23 82 -53q37 -37 54 -82 q20 -41 20 -96q0 -53 -20 -101q-20 -49 -54 -78q-25 -31 -82 -55q-47 -20 -106 -20q-63 0 -107 20q-55 25 -83 55q-31 27 -56 78q-18 49 -18 101zM373 338q0 -51 37 -80q33 -31 112 -31q125 0 191 56q66 53 65 125v24q-100 23 -209 23q-104 0 -151 -33q-45 -33 -45 -84z M518.5 1431.5q-0.5 -28.5 20.5 -55.5q27 -20 57.5 -20t56.5 20q20 27 20.5 55.5t-20.5 53.5q-26 22 -57 22t-57 -22q-20 -25 -20.5 -53.5z" />
<glyph unicode="&#xe6;" horiz-adv-x="1890" d="M74 324q0 82 35 147q33 63 100 107q53 37 151 65q102 20 201 21q72 0 115 -9q63 -10 100 -20v33q0 66 -47 106q-47 37 -145 37q-172 0 -338 -78l-115 213q117 68 221 94q119 29 234 29q127 0 213 -37q84 -35 145 -102q66 66 154 102q90 37 207 37q111 0 202 -37 q84 -33 156 -100q66 -70 98 -158q37 -92 37 -203q0 -68 -16 -143h-735q14 -84 88 -141q70 -55 194 -56q94 0 174 23q80 27 156 74l123 -213q-100 -68 -219 -107q-121 -33 -256 -33q-139 0 -240 43q-96 41 -170 121q-76 -84 -184 -125q-104 -39 -242 -39q-182 0 -291 91 q-106 88 -106 258zM373 338q0 -51 37 -80q33 -31 112 -31q123 0 191 52q66 55 65 124v29q-49 12 -98 19q-66 4 -111 4q-104 0 -151 -33q-45 -33 -45 -84zM1053 643h448q-2 78 -53 127q-49 49 -152 49q-100 0 -157 -47q-57 -43 -86 -129z" />
<glyph unicode="&#xe7;" horiz-adv-x="1196" d="M92 520q0 119 43 219q41 96 119 174q82 76 180 115q104 41 223 41q145 0 246 -41q100 -35 191 -119l-164 -198q-100 94 -266 94q-57 0 -109 -19q-51 -23 -88 -57q-41 -33 -61 -86q-23 -55 -23 -115q0 -131 76 -209q74 -80 203 -79q84 0 155 30q68 27 121 80l170 -194 q-76 -80 -170 -123q-92 -41 -199 -53l-10 -84q55 -20 90 -68q33 -47 33 -119q0 -125 -82 -219q-84 -96 -256 -147l-68 188q74 27 115 68q39 41 39 82q0 47 -33 65q-33 20 -98 21v51l45 94v76q-109 23 -182 69q-78 49 -133 119q-53 76 -80 160q-27 82 -27 184z" />
<glyph unicode="&#xe8;" horiz-adv-x="1257" d="M92 520q0 109 39 215q43 102 115 174q78 74 180 117q106 43 236 43q111 0 202 -37q92 -33 160 -100q68 -63 104 -158q37 -90 37 -203q0 -37 -6 -73q-2 -35 -12 -70h-762q14 -86 90 -141q70 -55 203 -56q195 0 340 99l125 -213q-102 -74 -223 -109q-113 -33 -258 -33 q-139 0 -244 39q-106 39 -178 111t-109 172q-39 98 -39 223zM369 1536l237 143l197 -432h-258zM393 643h473q-4 78 -55 127t-157.5 49t-170.5 -47q-61 -45 -90 -129z" />
<glyph unicode="&#xe9;" horiz-adv-x="1257" d="M92 520q0 109 39 215q43 102 115 174q78 74 180 117q106 43 236 43q111 0 202 -37q92 -33 160 -100q68 -63 104 -158q37 -90 37 -203q0 -37 -6 -73q-2 -35 -12 -70h-762q14 -86 90 -141q70 -55 203 -56q195 0 340 99l125 -213q-102 -74 -223 -109q-113 -33 -258 -33 q-139 0 -244 39q-106 39 -178 111t-109 172q-39 98 -39 223zM393 643h473q-4 78 -55 127t-157.5 49t-170.5 -47q-61 -45 -90 -129zM545 1247l196 432l238 -143l-176 -289h-258z" />
<glyph unicode="&#xea;" horiz-adv-x="1257" d="M92 520q0 109 39 215q43 102 115 174q78 74 180 117q106 43 236 43q111 0 202 -37q92 -33 160 -100q68 -63 104 -158q37 -90 37 -203q0 -37 -6 -73q-2 -35 -12 -70h-762q14 -86 90 -141q70 -55 203 -56q195 0 340 99l125 -213q-102 -74 -223 -109q-113 -33 -258 -33 q-139 0 -244 39q-106 39 -178 111t-109 172q-39 98 -39 223zM342 1335v33l287 268h61l297 -268v-33l-139 -147l-191 153l-174 -153zM393 643h473q-4 78 -55 127t-157.5 49t-170.5 -47q-61 -45 -90 -129z" />
<glyph unicode="&#xeb;" horiz-adv-x="1257" d="M92 520q0 109 39 215q43 102 115 174q78 74 180 117q106 43 236 43q111 0 202 -37q92 -33 160 -100q68 -63 104 -158q37 -90 37 -203q0 -37 -6 -73q-2 -35 -12 -70h-762q14 -86 90 -141q70 -55 203 -56q195 0 340 99l125 -213q-102 -74 -223 -109q-113 -33 -258 -33 q-139 0 -244 39q-106 39 -178 111t-109 172q-39 98 -39 223zM258 1360q0 74 49 121q52 45 115 45q68 0 115 -45q51 -45 51 -121q0 -70 -51 -119q-51 -45 -115 -45q-31 0 -62 12q-23 10 -53 33q-25 27 -37 53q-12 29 -12 66zM393 643h473q-4 78 -55 127t-157.5 49t-170.5 -47 q-61 -45 -90 -129zM733 1360q0 74 49 121q52 45 115 45q68 0 115 -45q51 -45 51 -121q0 -70 -51 -119q-51 -45 -115 -45q-31 0 -61 12q-23 10 -54 33q-25 27 -37 53q-12 29 -12 66z" />
<glyph unicode="&#xec;" horiz-adv-x="575" d="M-12 1536l237 143l197 -432h-258zM139 0v1044h297v-1044h-297z" />
<glyph unicode="&#xed;" horiz-adv-x="575" d="M139 0v1044h297v-1044h-297zM166 1247l196 432l238 -143l-176 -289h-258z" />
<glyph unicode="&#xee;" horiz-adv-x="575" d="M-31 1335v33l287 268h61l297 -268v-33l-139 -147l-190 153l-174 -153zM139 0v1044h297v-1044h-297z" />
<glyph unicode="&#xef;" horiz-adv-x="575" d="M-70 1366q0 72 50 117q45 43 108 43q68 0 113 -43q47 -47 47 -117q0 -68 -47 -115q-45 -45 -113 -45q-63 0 -108 45q-49 47 -50 115zM139 0v1044h297v-1044h-297zM334 1366q0 70 47 117q50 43 111 43q66 0 112 -43q47 -47 47 -117t-47 -117q-47 -43 -112 -43 q-61 0 -111 43q-47 47 -47 117z" />
<glyph unicode="&#xf0;" horiz-adv-x="1298" d="M90 487q0 109 37 201q39 92 102 152q66 66 158 100.5t196.5 34.5t174.5 -29q72 -25 129 -78h20q-47 150 -256 252l-63 33l-66 -121l-225 109l65 119l-155 81l125 240l157 -84l80 150l226 -121l-80 -146l61 -32q227 -125 328 -304q102 -182 102 -448q0 -145 -43 -260 q-49 -121 -123 -195q-72 -78 -180 -123q-104 -43 -225 -43q-123 0 -225 37q-94 35 -172 103q-70 70 -109 162t-39 210zM393 483q0 -115 66 -186q68 -70 178 -70q121 0 199 86q73 84 77 234q-27 90 -100 141q-70 51 -168 51q-113 0 -182 -67q-70 -63 -70 -189z" />
<glyph unicode="&#xf1;" horiz-adv-x="1329" d="M139 0v1044h234l20 -167q45 90 139 143q90 49 211 49q209 0 326 -119q119 -117 119 -344v-606h-291v582q0 117 -53 172q-49 57 -146 57q-92 0 -161 -53q-70 -55 -105 -160v-598h-293zM274 1368q41 80 109 127q66 47 154 47q51 0 81 -14q45 -20 66 -31l61 -31 q29 -14 70 -14q45 0 78 18q35 16 57 46l146 -146q-39 -82 -103 -129q-61 -43 -149 -43q-49 0 -84 14q-41 16 -70 33q-41 20 -63 31q-31 14 -70 14q-90 0 -141 -63z" />
<glyph unicode="&#xf2;" horiz-adv-x="1327" d="M92 522q0 121 43 219q39 102 117 174q82 76 180 113q107 41 232 41q127 0 229 -39q106 -39 182 -112q76 -70 117 -173q43 -100 43 -223q0 -121 -43 -221q-41 -96 -119 -174q-86 -78 -182 -111q-100 -41 -227 -41q-129 0 -231.5 39t-180.5 111t-117 174q-43 98 -43 223z M381 1536l237 143l197 -432h-258zM383 522q0 -135 76 -211q78 -80 205 -80q131 0 204 80q74 76 74 211q0 131 -74 211q-77 78 -204 78q-131 0 -205 -80q-76 -78 -76 -209z" />
<glyph unicode="&#xf3;" horiz-adv-x="1327" d="M92 522q0 121 43 219q39 102 117 174q82 76 180 113q107 41 232 41q127 0 229 -39q106 -39 182 -112q76 -70 117 -173q43 -100 43 -223q0 -121 -43 -221q-41 -96 -119 -174q-86 -78 -182 -111q-100 -41 -227 -41q-129 0 -231.5 39t-180.5 111t-117 174q-43 98 -43 223z M383 522q0 -135 76 -211q78 -80 205 -80q131 0 204 80q74 76 74 211q0 131 -74 211q-77 78 -204 78q-131 0 -205 -80q-76 -78 -76 -209zM553 1247l197 432l237 -143l-176 -289h-258z" />
<glyph unicode="&#xf4;" horiz-adv-x="1327" d="M92 522q0 121 43 219q39 102 117 174q82 76 180 113q107 41 232 41q127 0 229 -39q106 -39 182 -112q76 -70 117 -173q43 -100 43 -223q0 -121 -43 -221q-41 -96 -119 -174q-86 -78 -182 -111q-100 -41 -227 -41q-129 0 -231.5 39t-180.5 111t-117 174q-43 98 -43 223z M342 1335v33l287 268h61l297 -268v-33l-139 -147l-191 153l-174 -153zM383 522q0 -135 76 -211q78 -80 205 -80q131 0 204 80q74 76 74 211q0 131 -74 211q-77 78 -204 78q-131 0 -205 -80q-76 -78 -76 -209z" />
<glyph unicode="&#xf5;" horiz-adv-x="1327" d="M92 522q0 121 43 219q39 102 117 174q82 76 180 113q107 41 232 41q127 0 229 -39q106 -39 182 -112q76 -70 117 -173q43 -100 43 -223q0 -121 -43 -221q-41 -96 -119 -174q-86 -78 -182 -111q-100 -41 -227 -41q-129 0 -231.5 39t-180.5 111t-117 174q-43 98 -43 223z M252 1368q41 80 108 127q66 47 154 47q51 0 82 -14q45 -20 66 -31l61 -31q29 -14 70 -14q43 0 77 18q35 16 58 46l145 -146q-39 -82 -102 -129q-61 -43 -150 -43q-49 0 -84 14q-41 16 -69 33q-41 20 -64 31q-31 14 -69 14q-90 0 -142 -63zM383 522q0 -135 76 -211 q78 -80 205 -80q131 0 204 80q74 76 74 211q0 131 -74 211q-77 78 -204 78q-131 0 -205 -80q-76 -78 -76 -209z" />
<glyph unicode="&#xf6;" horiz-adv-x="1327" d="M92 522q0 121 43 219q39 102 117 174q82 76 180 113q107 41 232 41q127 0 229 -39q106 -39 182 -112q76 -70 117 -173q43 -100 43 -223q0 -121 -43 -221q-41 -96 -119 -174q-86 -78 -182 -111q-100 -41 -227 -41q-129 0 -231.5 39t-180.5 111t-117 174q-43 98 -43 223z M260 1360q0 74 49 121q52 45 115 45q68 0 115 -45q51 -45 51 -121q0 -70 -51 -119q-51 -45 -115 -45q-31 0 -62 12q-23 10 -53 33q-25 27 -37 53q-12 29 -12 66zM383 522q0 -135 76 -211q78 -80 205 -80q131 0 204 80q74 76 74 211q0 131 -74 211q-77 78 -204 78 q-131 0 -205 -80q-76 -78 -76 -209zM735 1360q0 74 49 121q52 45 115 45q68 0 115 -45q51 -45 51 -121q0 -70 -51 -119q-51 -45 -115 -45q-31 0 -61 12q-23 10 -54 33q-25 27 -36 53q-12 29 -13 66z" />
<glyph unicode="&#xf7;" horiz-adv-x="1017" d="M119 567v258h780v-258h-780zM338 299q0 39 14 70q12 27 37 53q31 23 55 33q31 12 64 12t63 -12q25 -10 56 -33q25 -27 37 -53q14 -31 14 -70t-14 -70q-12 -27 -37 -53q-31 -23 -56 -33q-31 -12 -63.5 -12t-63.5 12q-25 10 -55 33q-25 27 -37 53q-14 31 -14 70zM338 1094 q0 72 51 123q57 45 118.5 45t119.5 -45q51 -51 51 -123q0 -39 -14 -70q-12 -27 -37 -53q-31 -23 -56 -33q-31 -12 -63.5 -12t-63.5 12q-25 10 -55 33q-25 27 -37 53q-14 31 -14 70z" />
<glyph unicode="&#xf8;" horiz-adv-x="1327" d="M92 522q0 121 43 219q39 102 117 174q82 76 180 113q106 41 232 41q82 0 167 -22l95 147l237 -147l-84 -136q74 -72 115 -170q41 -100 41 -219q0 -121 -43 -221q-41 -96 -119 -174q-86 -78 -182 -111q-100 -41 -227 -41q-88 0 -175 23l-100 -158l-242 152l95 145 q-70 70 -111 168q-39 92 -39 217zM379 522q0 -88 37 -147l278 430q-25 6 -55 6q-61 0 -104 -20q-53 -25 -82 -60q-35 -39 -56 -92q-18 -53 -18 -117zM629 238q25 -6 57 -7q117 0 191 80q72 78 71 211q0 84 -39 148z" />
<glyph unicode="&#xf9;" horiz-adv-x="1314" d="M139 438v606h293v-581q0 -231 193 -232q90 0 157 56q68 57 101 157v600h293v-1044h-234l-20 168q-45 -90 -136 -143q-90 -49 -204 -50q-211 0 -328 117q-115 119 -115 346zM367 1536l237 143l197 -432h-258z" />
<glyph unicode="&#xfa;" horiz-adv-x="1314" d="M139 438v606h293v-581q0 -231 193 -232q90 0 157 56q68 57 101 157v600h293v-1044h-234l-20 168q-45 -90 -136 -143q-90 -49 -204 -50q-211 0 -328 117q-115 119 -115 346zM539 1247l196 432l238 -143l-176 -289h-258z" />
<glyph unicode="&#xfb;" horiz-adv-x="1314" d="M139 438v606h293v-581q0 -231 193 -232q90 0 157 56q68 57 101 157v600h293v-1044h-234l-20 168q-45 -90 -136 -143q-90 -49 -204 -50q-211 0 -328 117q-115 119 -115 346zM336 1335v33l287 268h61l297 -268v-33l-139 -147l-191 153l-174 -153z" />
<glyph unicode="&#xfc;" horiz-adv-x="1314" d="M139 438v606h293v-581q0 -231 193 -232q90 0 157 56q68 57 101 157v600h293v-1044h-234l-20 168q-45 -90 -136 -143q-90 -49 -204 -50q-211 0 -328 117q-115 119 -115 346zM254 1360q0 74 49 121q52 45 115 45q68 0 114 -45q51 -45 52 -121q0 -70 -52 -119 q-51 -45 -114 -45q-31 0 -62 12q-23 10 -53 33q-25 27 -37 53q-12 29 -12 66zM729 1360q0 74 49 121q52 45 115 45q68 0 115 -45q51 -45 51 -121q0 -70 -51 -119q-51 -45 -115 -45q-31 0 -62 12q-23 10 -53 33q-25 27 -37 53q-12 29 -12 66z" />
<glyph unicode="&#xfd;" horiz-adv-x="1355" d="M70 1044h344l299 -737h18l232 737h323l-467 -1153q-51 -131 -139 -208q-84 -76 -217 -76q-145 0 -236 65l82 219q31 -14 64 -20q31 -6 59 -6q100 0 129 80l17 41zM571 1247l197 432l238 -143l-177 -289h-258z" />
<glyph unicode="&#xfe;" d="M139 -381v1819h291v-494q119 125 318 125q113 0 200 -37q98 -43 154 -110q63 -63 102 -168q35 -104 35 -222q0 -137 -45 -239q-47 -106 -121 -174q-80 -74 -176 -107q-102 -37 -209 -37q-76 0 -135 15q-66 14 -123 49v-420h-291zM430 305q53 -31 111 -49q61 -18 127 -18 q123 0 198 79q76 78 76 222q0 127 -63 198q-63 74 -179 74q-98 0 -168 -47q-68 -47 -102 -125v-334z" />
<glyph unicode="&#xff;" horiz-adv-x="1355" d="M70 1044h344l299 -737h18l232 737h323l-467 -1153q-51 -131 -139 -208q-84 -76 -217 -76q-145 0 -236 65l82 219q31 -14 64 -20q31 -6 59 -6q100 0 129 80l17 41zM291 1360q0 74 49 121q52 45 115 45q68 0 114 -45q51 -45 52 -121q0 -70 -52 -119q-51 -45 -114 -45 q-31 0 -62 12q-23 10 -53 33q-25 27 -37 53q-12 29 -12 66zM766 1360q0 74 49 121q52 45 115 45q68 0 114 -45q51 -45 52 -121q0 -70 -52 -119q-51 -45 -114 -45q-31 0 -62 12q-23 10 -53 33q-25 27 -37 53q-12 29 -12 66z" />
<glyph unicode="&#x100;" horiz-adv-x="1624" d="M78 0l563 1374h338l567 -1374h-340l-104 272h-588l-102 -272h-334zM391 1577v256h840v-256h-840zM614 543h387l-182 522h-20z" />
<glyph unicode="&#x101;" horiz-adv-x="1255" d="M74 324q0 82 35 147q33 63 100 107q53 37 151 65q102 20 201 21q72 0 115 -9q63 -10 100 -20v33q0 66 -47 106q-47 37 -145 37q-172 0 -338 -78l-115 213q117 68 221 94q119 29 234 29q127 0 217 -33q92 -35 147 -90q63 -63 86 -141q29 -78 29 -182v-316q0 -82 61 -82 q23 0 35 6l27 -231q-35 -12 -62 -16q-33 -6 -73 -7q-86 0 -146 37q-61 39 -76 125q-57 -84 -149 -125q-86 -39 -211 -39q-182 0 -291 91q-106 88 -106 258zM252 1251v250h688v-250h-688zM373 338q0 -51 37 -80q33 -31 112 -31q125 0 191 56q66 53 65 125v24q-100 23 -209 23 q-104 0 -151 -33q-45 -33 -45 -84z" />
<glyph unicode="&#x102;" horiz-adv-x="1624" d="M78 0l563 1374h338l567 -1374h-340l-104 272h-588l-102 -272h-334zM461 1878h229q0 -55 35 -90t88 -35t84 33q35 33 35 92h229q0 -76 -22 -143q-27 -70 -70 -113q-49 -49 -111 -74q-59 -27 -145 -26q-88 0 -149 26q-63 25 -111 72q-43 43 -70 113q-23 68 -22 145z M614 543h387l-182 522h-20z" />
<glyph unicode="&#x103;" horiz-adv-x="1255" d="M74 324q0 82 35 147q33 63 100 107q53 37 151 65q102 20 201 21q72 0 115 -9q63 -10 100 -20v33q0 66 -47 106q-47 37 -145 37q-172 0 -338 -78l-115 213q117 68 221 94q119 29 234 29q127 0 217 -33q92 -35 147 -90q63 -63 86 -141q29 -78 29 -182v-316q0 -82 61 -82 q23 0 35 6l27 -231q-35 -12 -62 -16q-33 -6 -73 -7q-86 0 -146 37q-61 39 -76 125q-57 -84 -149 -125q-86 -39 -211 -39q-182 0 -291 91q-106 88 -106 258zM246 1548h225q0 -57 31 -92t90 -35q55 0 90 35q31 35 31 92h225q-2 -164 -100 -262q-94 -94 -246 -94q-76 0 -139 25 q-61 20 -111 69q-45 45 -70 111q-27 66 -26 151zM373 338q0 -51 37 -80q33 -31 112 -31q125 0 191 56q66 53 65 125v24q-100 23 -209 23q-104 0 -151 -33q-45 -33 -45 -84z" />
<glyph unicode="&#x104;" horiz-adv-x="1624" d="M78 0l563 1374h338l559 -1349v-25h-35q-39 0 -67 -29q-27 -27 -27 -75q0 -55 37 -93q33 -35 100 -45l-35 -200q-84 2 -155 28q-66 20 -111 62q-45 43 -65 90q-23 55 -23 108q0 47 12 88q12 37 35 68l-102 270h-588l-102 -272h-334zM614 543h387l-182 522h-20z" />
<glyph unicode="&#x105;" horiz-adv-x="1255" d="M74 324q0 82 35 147q33 63 100 107q53 37 151 65q102 20 201 21q72 0 115 -9q63 -10 100 -20v33q0 66 -47 106q-47 37 -145 37q-172 0 -338 -78l-115 213q117 68 221 94q119 29 234 29q127 0 217 -33q92 -35 147 -90q63 -63 86 -141q29 -78 29 -182v-316q0 -82 61 -82 q14 0 35 4l27 -229q-61 -4 -92 -37q-31 -31 -31 -78q0 -51 33 -84q31 -35 92 -43l-35 -194q-80 2 -141 24q-61 20 -103 60q-39 35 -63 86q-20 51 -21 102q0 57 25 107q23 45 63 80q-66 35 -84 116q-57 -84 -149 -125q-86 -39 -211 -39q-182 0 -291 91q-106 88 -106 258z M373 338q0 -51 37 -80q33 -31 112 -31q125 0 191 56q66 53 65 125v24q-49 12 -98 19q-66 4 -111 4q-104 0 -151 -33q-45 -33 -45 -84z" />
<glyph unicode="&#x106;" horiz-adv-x="1501" d="M98 682q0 152 54 279q47 127 149 229q98 98 238 153q135 57 315 58q162 0 293 -49q131 -45 237 -140l-170 -223q-72 66 -165 96q-88 35 -207 35q-100 0 -183 -30q-82 -35 -137 -91q-57 -61 -88 -139q-31 -80 -31 -174q0 -98 31 -178q35 -84 90 -135q55 -55 138 -90 q80 -31 176 -31q109 0 219 39q109 47 180 117l174 -215q-233 -221 -590 -222q-162 0 -293 49q-133 53 -229 144q-98 102 -147 225q-53 135 -54 293zM694 1556l195 449l256 -125l-176 -324h-275z" />
<glyph unicode="&#x107;" horiz-adv-x="1196" d="M92 520q0 119 43 219q41 96 119 174q82 76 180 115q104 41 223 41q145 0 246 -41q100 -35 191 -119l-164 -198q-100 94 -266 94q-57 0 -109 -19q-51 -23 -88 -57q-41 -33 -61 -86q-23 -55 -23 -115q0 -131 76 -209q74 -80 203 -79q84 0 155 30q68 27 121 80l170 -194 q-98 -98 -207 -140q-117 -41 -252 -41q-137 0 -239 43q-100 41 -177 117q-72 78 -106 172q-35 104 -35 213zM526 1247l197 432l238 -143l-177 -289h-258z" />
<glyph unicode="&#x108;" horiz-adv-x="1501" d="M98 682q0 152 54 279q47 127 149 229q98 98 238 153q135 57 315 58q162 0 293 -49q131 -45 237 -140l-170 -223q-72 66 -165 96q-88 35 -207 35q-100 0 -183 -30q-82 -35 -137 -91q-57 -61 -88 -139q-31 -80 -31 -174q0 -98 31 -178q35 -84 90 -135q55 -55 138 -90 q80 -31 176 -31q109 0 219 39q109 47 180 117l174 -215q-233 -221 -590 -222q-162 0 -293 49q-133 53 -229 144q-98 102 -147 225q-53 135 -54 293zM518 1645v28l303 275h53l304 -275v-28l-146 -150l-184 150l-182 -150z" />
<glyph unicode="&#x109;" horiz-adv-x="1196" d="M92 520q0 119 43 219q41 96 119 174q82 76 180 115q104 41 223 41q145 0 246 -41q100 -35 191 -119l-164 -198q-100 94 -266 94q-57 0 -109 -19q-51 -23 -88 -57q-41 -33 -61 -86q-23 -55 -23 -115q0 -131 76 -209q74 -80 203 -79q84 0 155 30q68 27 121 80l170 -194 q-98 -98 -207 -140q-117 -41 -252 -41q-137 0 -239 43q-100 41 -177 117q-72 78 -106 172q-35 104 -35 213zM338 1335v33l287 268h61l297 -268v-33l-139 -147l-191 153l-174 -153z" />
<glyph unicode="&#x10a;" horiz-adv-x="1501" d="M98 682q0 152 54 279q47 127 149 229q98 98 238 153q135 57 315 58q162 0 293 -49q131 -45 237 -140l-170 -223q-72 66 -165 96q-88 35 -207 35q-100 0 -183 -30q-82 -35 -137 -91q-57 -61 -88 -139q-31 -80 -31 -174q0 -98 31 -178q35 -84 90 -135q55 -55 138 -90 q80 -31 176 -31q109 0 219 39q109 47 180 117l174 -215q-233 -221 -590 -222q-162 0 -293 49q-133 53 -229 144q-98 102 -147 225q-53 135 -54 293zM668 1714q0 80 53 129q55 49 127 49q74 0 125 -49q53 -49 53 -129q0 -76 -53 -129q-51 -49 -125 -49q-72 0 -127 49 q-53 53 -53 129z" />
<glyph unicode="&#x10b;" horiz-adv-x="1196" d="M92 520q0 119 43 219q41 96 119 174q82 76 180 115q104 41 223 41q145 0 246 -41q100 -35 191 -119l-164 -198q-100 94 -266 94q-57 0 -109 -19q-51 -23 -88 -57q-41 -33 -61 -86q-23 -55 -23 -115q0 -131 76 -209q74 -80 203 -79q84 0 155 30q68 27 121 80l170 -194 q-98 -98 -207 -140q-117 -41 -252 -41q-137 0 -239 43q-100 41 -177 117q-72 78 -106 172q-35 104 -35 213zM483 1391q0 84 56 129q57 47 125 47q70 0 127 -47q53 -47 53 -129q0 -80 -53 -129q-57 -47 -127 -48q-33 0 -68 13q-31 10 -57 35q-29 29 -39 57q-16 27 -17 72z " />
<glyph unicode="&#x10c;" horiz-adv-x="1501" d="M98 682q0 152 54 279q47 127 149 229q98 98 238 153q135 57 315 58q162 0 293 -49q131 -45 237 -140l-170 -223q-72 66 -165 96q-88 35 -207 35q-100 0 -183 -30q-82 -35 -137 -91q-57 -61 -88 -139q-31 -80 -31 -174q0 -98 31 -178q35 -84 90 -135q55 -55 138 -90 q80 -31 176 -31q109 0 219 39q109 47 180 117l174 -215q-233 -221 -590 -222q-162 0 -293 49q-133 53 -229 144q-98 102 -147 225q-53 135 -54 293zM520 1769v27l146 152l184 -152l182 152l148 -152v-27l-303 -274h-54z" />
<glyph unicode="&#x10d;" horiz-adv-x="1196" d="M92 520q0 119 43 219q41 96 119 174q82 76 180 115q104 41 223 41q145 0 246 -41q100 -35 191 -119l-164 -198q-100 94 -266 94q-57 0 -109 -19q-51 -23 -88 -57q-41 -33 -61 -86q-23 -55 -23 -115q0 -131 76 -209q74 -80 203 -79q84 0 155 30q68 27 121 80l170 -194 q-98 -98 -207 -140q-117 -41 -252 -41q-137 0 -239 43q-100 41 -177 117q-72 78 -106 172q-35 104 -35 213zM336 1466v33l137 148l191 -154l176 154l141 -148v-33l-287 -268h-61z" />
<glyph unicode="&#x10e;" horiz-adv-x="1507" d="M160 0v1372h506q170 0 309 -49q139 -53 233 -143q96 -86 150 -217q51 -121 51 -277q0 -145 -53 -276q-53 -125 -152 -217q-100 -90 -237 -142q-133 -51 -308 -51h-499zM356 1769v27l146 152l184 -152l182 152l148 -152v-27l-303 -274h-54zM465 276h197q92 0 174 29 q80 27 139 80q57 51 94 129q33 82 33 172q0 203 -115 305q-111 104 -328 105h-194v-820z" />
<glyph unicode="&#x10f;" horiz-adv-x="1730" d="M92 520q0 127 43 228q43 100 119 174q76 70 176 108q98 39 219 39q76 0 146 -18q74 -18 125 -56v453h292v-1448h-231l-23 143q-57 -86 -147 -127q-94 -41 -203 -41q-119 0 -211 37q-92 35 -164 107q-70 76 -104 172q-37 102 -37 229zM385 524q0 -70 21 -123 q20 -51 53 -90q37 -39 82 -59q41 -20 96 -21q102 0 178 52q78 53 105 149v305q-96 76 -242 76q-133 0 -215 -76q-78 -82 -78 -213zM1401 1305q0 74 49 116q47 45 115 45q66 0 115 -43t49 -118q0 -41 -17 -80l-129 -279l-156 58l52 161q-33 18 -58 56q-20 41 -20 84z" />
<glyph unicode="&#x110;" horiz-adv-x="1517" d="M14 545v276h156v551h506q172 0 309 -49q139 -53 236 -143q94 -88 147 -217q51 -121 51 -277q0 -145 -53 -276q-53 -125 -152 -217q-96 -88 -235 -142q-139 -51 -309 -51h-500v530zM475 276h197q90 0 176 29q70 25 139 80q63 63 90 129q35 72 35 172q0 199 -113 305 q-117 104 -329 105h-195v-275h313v-289h-313v-256z" />
<glyph unicode="&#x111;" horiz-adv-x="1384" d="M92 520q0 127 43 228q43 100 119 174q76 70 176 108q98 39 219 39q76 0 146 -18q74 -18 125 -56v152h-289v235h295l18 117h268v-117h146v-235h-146v-1147h-231l-23 143q-57 -86 -147 -127q-94 -41 -203 -41q-119 0 -211 37q-92 35 -164 107q-70 76 -104 172 q-37 102 -37 229zM385 524q0 -70 21 -123q20 -51 53 -90q37 -39 82 -59q41 -20 96 -21q102 0 178 52q78 53 105 149v305q-96 76 -242 76q-133 0 -215 -76q-78 -82 -78 -213z" />
<glyph unicode="&#x112;" d="M160 0v1372h1026v-276h-723v-258h645v-269h-645v-293h758v-276h-1061zM266 1577v256h840v-256h-840z" />
<glyph unicode="&#x113;" horiz-adv-x="1257" d="M92 520q0 109 39 215q43 102 115 174q78 74 180 117q106 43 236 43q111 0 202 -37q92 -33 160 -100q68 -63 104 -158q37 -90 37 -203q0 -37 -6 -73q-2 -35 -12 -70h-762q14 -86 90 -141q70 -55 203 -56q195 0 340 99l125 -213q-102 -74 -223 -109q-113 -33 -258 -33 q-139 0 -244 39q-106 39 -178 111t-109 172q-39 98 -39 223zM324 1251v250h688v-250h-688zM393 643h473q-4 78 -55 127t-157.5 49t-170.5 -47q-61 -45 -90 -129z" />
<glyph unicode="&#x114;" d="M160 0v1372h1026v-276h-723v-258h645v-269h-645v-293h758v-276h-1061zM344 1878h229q0 -55 35 -90t88 -35q51 0 86 33q33 37 33 92h229q0 -80 -24 -143q-23 -68 -68 -113t-108 -74q-66 -27 -148 -26q-88 0 -149 26q-63 25 -111 72q-45 45 -67 113q-25 66 -25 145z" />
<glyph unicode="&#x115;" horiz-adv-x="1257" d="M92 520q0 109 39 215q43 102 115 174q78 74 180 117q106 43 236 43q111 0 202 -37q92 -33 160 -100q68 -63 104 -158q37 -90 37 -203q0 -37 -6 -73q-2 -35 -12 -70h-762q14 -86 90 -141q70 -55 203 -56q195 0 340 99l125 -213q-102 -74 -223 -109q-113 -33 -258 -33 q-139 0 -244 39q-106 39 -178 111t-109 172q-39 98 -39 223zM317 1548h226q0 -57 30 -92q31 -35 91 -35q55 0 90 35q31 35 30 92h226q-2 -164 -101 -262q-94 -94 -245 -94q-74 0 -140 25q-61 20 -110 69q-45 45 -70 111q-27 66 -27 151zM393 643h473q-4 78 -55 127 t-157.5 49t-170.5 -47q-61 -45 -90 -129z" />
<glyph unicode="&#x116;" d="M160 0v1372h1026v-276h-723v-258h645v-269h-645v-293h758v-276h-1061zM510 1714q0 80 55 129q53 49 125 49t125 -49t53 -129q0 -76 -53 -129q-53 -49 -125 -49t-125 49q-55 53 -55 129z" />
<glyph unicode="&#x117;" horiz-adv-x="1257" d="M92 520q0 109 39 215q43 102 115 174q78 74 180 117q106 43 236 43q111 0 202 -37q92 -33 160 -100q68 -63 104 -158q37 -90 37 -203q0 -37 -6 -73q-2 -35 -12 -70h-762q14 -86 90 -141q70 -55 203 -56q195 0 340 99l125 -213q-102 -74 -223 -109q-113 -33 -258 -33 q-139 0 -244 39q-106 39 -178 111t-109 172q-39 98 -39 223zM393 643h473q-4 78 -55 127t-157.5 49t-170.5 -47q-61 -45 -90 -129zM489 1391q0 84 56 129q57 47 125 47q70 0 127 -47q53 -47 53 -129q0 -80 -53 -129q-57 -47 -127 -48q-35 0 -68 13q-31 10 -57 35 q-29 29 -39 57q-16 27 -17 72z" />
<glyph unicode="&#x118;" d="M160 0v1372h1026v-276h-723v-258h645v-269h-645v-293h758v-276h-31q-43 0 -64 -31q-23 -33 -22 -78q0 -53 33 -88q37 -37 98 -45l-35 -200q-180 10 -262 86q-84 78 -84 194q0 41 10 86q14 45 39 76h-743z" />
<glyph unicode="&#x119;" horiz-adv-x="1257" d="M92 520q0 109 39 215q43 102 115 174q78 74 180 117q106 43 236 43q111 0 202 -37q92 -33 160 -100q68 -63 104 -158q37 -90 37 -203q0 -37 -6 -73q-2 -35 -12 -70h-762q14 -86 90 -141q70 -55 203 -56q195 0 340 99l125 -213q-51 -31 -73.5 -72t-22.5 -92 q0 -117 129 -133l-35 -195q-164 6 -244 80q-84 72 -84 182q0 57 23 103q-72 -14 -174 -15q-139 0 -244 39q-106 39 -178 111t-109 172q-39 98 -39 223zM393 643h473q-4 78 -55 127t-157.5 49t-170.5 -47q-61 -45 -90 -129z" />
<glyph unicode="&#x11a;" d="M160 0v1372h1026v-276h-723v-258h645v-269h-645v-293h758v-276h-1061zM360 1769v27l146 152l184 -152l182 152l148 -152v-27l-303 -274h-53z" />
<glyph unicode="&#x11b;" horiz-adv-x="1257" d="M92 520q0 109 39 215q43 102 115 174q78 74 180 117q106 43 236 43q111 0 202 -37q92 -33 160 -100q68 -63 104 -158q37 -90 37 -203q0 -37 -6 -73q-2 -35 -12 -70h-762q14 -86 90 -141q70 -55 203 -56q195 0 340 99l125 -213q-102 -74 -223 -109q-113 -33 -258 -33 q-139 0 -244 39q-106 39 -178 111t-109 172q-39 98 -39 223zM348 1466v33l137 148l191 -154l176 154l141 -148v-33l-286 -268h-62zM393 643h473q-4 78 -55 127t-157.5 49t-170.5 -47q-61 -45 -90 -129z" />
<glyph unicode="&#x11c;" horiz-adv-x="1511" d="M98 682q0 152 54 276q47 125 147 230q96 96 238 155q135 57 315 58q150 0 287 -47q133 -47 235 -142l-172 -221q-72 66 -162 99q-88 31 -198 30q-98 0 -178 -30q-80 -29 -140 -86q-57 -55 -90 -140q-31 -80 -31 -178q0 -104 33 -182q35 -84 92 -135q55 -57 138 -86 q80 -31 174 -31q143 0 254 53v209l-242 14v256h534v-634q-113 -92 -256 -136q-137 -43 -299 -43q-164 0 -299 49q-137 49 -231 142q-98 96 -149 223q-53 135 -54 297zM508 1645v28l303 275h53l303 -275v-28l-145 -150l-184 150l-183 -150z" />
<glyph unicode="&#x11d;" horiz-adv-x="1298" d="M88 -201q0 150 98 254q-90 78 -90 211q0 72 37 137q39 63 113 109q-53 76 -53 182q0 74 28 148q31 70 90 118q53 49 144 82q86 29 196 29h185l354 31l22 -221l-163 -41q47 -66 47 -154q0 -74 -31 -139q-29 -68 -86 -117q-59 -51 -139 -80q-86 -29 -189 -29q-84 0 -143 15 q-68 16 -113 41q-37 -31 -37 -88q0 -96 131 -97h297q205 0 301 -92q94 -94 95 -241q0 -94 -43 -179q-47 -84 -125 -141q-80 -57 -195 -94q-119 -33 -250 -33q-242 0 -360 103q-121 102 -121 286zM338 1335v33l287 268h61l297 -268v-33l-139 -147l-191 153l-174 -153z M365 -172q0 -80 57 -123q55 -47 170 -47q150 0 233 51q80 55 80 131q0 98 -131 99h-289l-84 10q-37 -47 -36 -121zM467 686.5q0 -63.5 43 -100.5q41 -41 131 -41q84 0 129 37q47 41 47 108q0 88 -57 139h-127q-86 0 -125 -38q-41 -41 -41 -104.5z" />
<glyph unicode="&#x11e;" horiz-adv-x="1511" d="M98 682q0 152 54 276q47 125 147 230q96 96 238 155q135 57 315 58q150 0 287 -47q133 -47 235 -142l-172 -221q-72 66 -162 99q-88 31 -198 30q-98 0 -178 -30q-80 -29 -140 -86q-57 -55 -90 -140q-31 -80 -31 -178q0 -104 33 -182q35 -84 92 -135q55 -57 138 -86 q80 -31 174 -31q143 0 254 53v209l-242 14v256h534v-634q-113 -92 -256 -136q-137 -43 -299 -43q-164 0 -299 49q-137 49 -231 142q-98 96 -149 223q-53 135 -54 297zM492 1878h229q0 -55 35 -90t88 -35q51 0 86 33q33 37 33 92h229q0 -80 -25 -143q-23 -68 -67.5 -113 t-108.5 -74q-66 -27 -147 -26q-88 0 -150 26q-63 25 -110 72q-45 45 -68 113q-25 63 -24 145z" />
<glyph unicode="&#x11f;" horiz-adv-x="1298" d="M88 -201q0 150 98 254q-90 78 -90 211q0 72 37 137q39 63 113 109q-53 76 -53 182q0 74 28 148q31 70 90 118q53 49 144 82q86 29 196 29h185l354 31l22 -221l-163 -41q47 -66 47 -154q0 -74 -31 -139q-29 -68 -86 -117q-59 -51 -139 -80q-86 -29 -189 -29q-84 0 -143 15 q-68 16 -113 41q-37 -31 -37 -88q0 -96 131 -97h297q205 0 301 -92q94 -94 95 -241q0 -94 -43 -179q-47 -84 -125 -141q-80 -57 -195 -94q-119 -33 -250 -33q-242 0 -360 103q-121 102 -121 286zM328 1548h225q0 -57 31 -92t90 -35q55 0 90 35q31 35 31 92h225 q-2 -164 -100 -262q-94 -94 -246 -94q-76 0 -139 25q-61 20 -111 69q-45 45 -70 111q-27 66 -26 151zM365 -172q0 -80 57 -123q55 -47 170 -47q150 0 233 51q80 55 80 131q0 98 -131 99h-289l-84 10q-37 -47 -36 -121zM467 686.5q0 -63.5 43 -100.5q41 -41 131 -41 q84 0 129 37q47 41 47 108q0 88 -57 139h-127q-86 0 -125 -38q-41 -41 -41 -104.5z" />
<glyph unicode="&#x120;" horiz-adv-x="1511" d="M98 682q0 152 54 276q47 125 147 230q96 96 238 155q135 57 315 58q150 0 287 -47q133 -47 235 -142l-172 -221q-72 66 -162 99q-88 31 -198 30q-98 0 -178 -30q-80 -29 -140 -86q-57 -55 -90 -140q-31 -80 -31 -178q0 -104 33 -182q35 -84 92 -135q55 -57 138 -86 q80 -31 174 -31q143 0 254 53v209l-242 14v256h534v-634q-113 -92 -256 -136q-137 -43 -299 -43q-164 0 -299 49q-137 49 -231 142q-98 96 -149 223q-53 135 -54 297zM662 1714q0 80 55 129q53 49 124.5 49t125 -49t53.5 -129q0 -76 -53 -129q-53 -49 -125 -49t-125 49 q-55 53 -55 129z" />
<glyph unicode="&#x121;" horiz-adv-x="1298" d="M88 -201q0 150 98 254q-90 78 -90 211q0 72 37 137q39 63 113 109q-53 76 -53 182q0 74 28 148q31 70 90 118q53 49 144 82q86 29 196 29h185l354 31l22 -221l-163 -41q47 -66 47 -154q0 -74 -31 -139q-29 -68 -86 -117q-59 -51 -139 -80q-86 -29 -189 -29q-84 0 -143 15 q-68 16 -113 41q-37 -31 -37 -88q0 -96 131 -97h297q205 0 301 -92q94 -94 95 -241q0 -94 -43 -179q-47 -84 -125 -141q-80 -57 -195 -94q-119 -33 -250 -33q-242 0 -360 103q-121 102 -121 286zM365 -172q0 -80 57 -123q55 -47 170 -47q150 0 233 51q80 55 80 131 q0 98 -131 99h-289l-84 10q-37 -47 -36 -121zM467 686.5q0 -63.5 43 -100.5q41 -41 131 -41q84 0 129 37q47 41 47 108q0 88 -57 139h-127q-86 0 -125 -38q-41 -41 -41 -104.5zM502 1391q0 84 55 129q57 47 125 47q70 0 127 -47q53 -47 53 -129q0 -80 -53 -129 q-57 -47 -127 -48q-35 0 -68 13q-31 10 -57 35q-29 29 -39 57q-16 27 -16 72z" />
<glyph unicode="&#x122;" horiz-adv-x="1511" d="M98 682q0 152 54 276q47 125 147 230q96 96 238 155q135 57 315 58q150 0 287 -47q133 -47 235 -142l-172 -221q-72 66 -162 99q-88 31 -198 30q-98 0 -178 -30q-80 -29 -140 -86q-57 -55 -90 -140q-31 -80 -31 -178q0 -104 33 -182q35 -84 92 -135q55 -57 138 -86 q80 -31 174 -31q143 0 254 53v209l-242 14v256h534v-634q-113 -92 -256 -136q-137 -43 -299 -43q-164 0 -299 49q-137 49 -231 142q-98 96 -149 223q-53 135 -54 297zM678 -285q0 76 49 121q47 45 114.5 45t116.5 -43q51 -43 52 -121q0 -20 -6 -43q-4 -23 -13 -36l-129 -281 l-157 57l51 162q-39 20 -56 55q-23 33 -22 84z" />
<glyph unicode="&#x123;" horiz-adv-x="1298" d="M88 -201q0 150 98 254q-90 78 -90 211q0 72 37 137q39 63 113 109q-53 76 -53 182q0 74 28 148q31 70 90 118q53 49 144 82q86 29 196 29h185l354 31l22 -221l-163 -41q47 -66 47 -154q0 -74 -31 -139q-29 -68 -86 -117q-59 -51 -139 -80q-86 -29 -189 -29q-84 0 -143 15 q-68 16 -113 41q-37 -31 -37 -88q0 -96 131 -97h297q205 0 301 -92q94 -94 95 -241q0 -94 -43 -179q-47 -84 -125 -141q-80 -57 -195 -94q-119 -33 -250 -33q-242 0 -360 103q-121 102 -121 286zM365 -172q0 -80 57 -123q55 -47 170 -47q150 0 233 51q80 55 80 131 q0 98 -131 99h-289l-84 10q-37 -47 -36 -121zM467 686.5q0 -63.5 43 -100.5q41 -41 131 -41q84 0 129 37q47 41 47 108q0 88 -57 139h-127q-86 0 -125 -38q-41 -41 -41 -104.5zM506 1350q0 41 16 80l129 278l156 -57l-51 -162q37 -20 57.5 -55t20.5 -84q0 -72 -50 -119 q-49 -43 -114.5 -43t-114.5 43t-49 119z" />
<glyph unicode="&#x124;" horiz-adv-x="1538" d="M160 0v1372h309v-536h600v536h309v-1372h-309v551h-600v-551h-309zM438 1645v28l303 275h54l303 -275v-28l-146 -150l-184 150l-182 -150z" />
<glyph unicode="&#x125;" horiz-adv-x="1329" d="M-37 1706v33l287 268h61l297 -268v-33l-139 -147l-190 153l-175 -153zM139 0v1448h293v-522q49 63 129 106q80 37 189 37q207 0 323 -119q115 -119 115 -344v-606h-291v582q0 117 -53 172q-49 57 -146 57q-90 0 -161 -53q-70 -51 -105 -156v-602h-293z" />
<glyph unicode="&#x126;" horiz-adv-x="1538" d="M43 954v254h117v164h309v-164h600v164h309v-164h117v-254h-117v-954h-309v528h-600v-528h-309v954h-117zM469 809h600v145h-600v-145z" />
<glyph unicode="&#x127;" horiz-adv-x="1359" d="M25 1147v235h151l19 117h268v-117h295v-235h-295v-221q51 68 131 106q74 37 186 37q209 0 322 -119q117 -117 117 -344v-606h-291v582q0 111 -51 172q-55 57 -148 57q-90 0 -162 -53q-70 -51 -104 -156v-602h-293v1147h-145z" />
<glyph unicode="&#x128;" horiz-adv-x="630" d="M-35 1720q76 154 228 154q41 0 77 -14l58 -33l49 -33q23 -16 61 -16q70 0 109 43l133 -158q-78 -147 -221 -147q-55 0 -82 16q-27 10 -58 33q-43 29 -51 32q-23 16 -61 17q-72 0 -113 -49zM160 0v1372h309v-1372h-309z" />
<glyph unicode="&#x129;" horiz-adv-x="575" d="M-74 1366q35 80 92 125q59 47 129 47q47 0 78 -12q8 -4 17.5 -8.5t19.5 -10.5t17 -8q10 -8 45 -29q20 -12 57 -12q35 0 61 15q29 16 43 40l142 -143q-33 -76 -88 -121q-53 -45 -127 -45q-47 0 -76 13q-37 14 -55 28q-23 12 -48 29q-25 12 -57 12q-72 0 -104 -57zM139 0 v1044h297v-1044h-297z" />
<glyph unicode="&#x12a;" horiz-adv-x="630" d="M-23 1575v258h678v-258h-678zM160 0v1372h309v-1372h-309z" />
<glyph unicode="&#x12b;" horiz-adv-x="575" d="M2 1251v250h571v-250h-571zM139 0v1044h297v-1044h-297z" />
<glyph unicode="&#x12c;" horiz-adv-x="630" d="M-35 1878h230q0 -55 34.5 -90t88 -35t83.5 33q35 33 35 92h230q0 -76 -23 -143q-27 -70 -70 -113q-49 -49 -110 -74q-59 -27 -146 -26q-88 0 -149 26q-63 25 -111 72q-43 43 -69 113q-23 68 -23 145zM160 0v1372h309v-1372h-309z" />
<glyph unicode="&#x12d;" horiz-adv-x="575" d="M-55 1548h225q0 -57 31 -92t90 -35q55 0 90 35q31 35 31 92h225q-2 -164 -100 -262q-94 -94 -246 -94q-74 0 -139 25q-61 20 -111 69q-45 45 -70 111q-27 66 -26 151zM139 0v1044h297v-1044h-297z" />
<glyph unicode="&#x12e;" horiz-adv-x="630" d="M102 -162q0 100 58 172v1362h309v-1372h-33q-39 0 -59 -33q-25 -31 -25 -78q0 -53 35 -87.5t107 -45.5l-35 -205q-168 8 -262 91q-94 80 -95 196z" />
<glyph unicode="&#x12f;" horiz-adv-x="575" d="M84 -164q0 98 55 162v1046h295v-1044h-22q-43 0 -64 -33q-23 -33 -22 -76q0 -55 30 -94q33 -37 105 -47l-35 -199q-164 6 -254 87q-88 80 -88 198zM106 1391q0 84 56 129q57 47 125 47q70 0 127 -47q53 -47 53 -129q0 -80 -53 -129q-57 -47 -127 -48q-33 0 -68 13 q-31 10 -57 35q-29 29 -39 57q-16 27 -17 72z" />
<glyph unicode="&#x130;" horiz-adv-x="630" d="M139 1714q0 80 54 129t126 49q74 0 125 -49q53 -49 54 -129q0 -76 -54 -129q-51 -49 -125 -49q-72 0 -126 49q-53 53 -54 129zM160 0v1372h309v-1372h-309z" />
<glyph unicode="&#x131;" horiz-adv-x="575" d="M139 0v1044h297v-1044h-297z" />
<glyph unicode="&#x134;" horiz-adv-x="1130" d="M66 90l133 242q63 -43 129 -62q70 -16 129 -16q98 0 153 61q53 59 54 189v868h307v-858q0 -264 -125 -403q-127 -139 -371 -140q-119 0 -215 25q-98 25 -194 94zM481 1645v28l303 275h54l303 -275v-28l-146 -150l-184 150l-182 -150z" />
<glyph unicode="&#x135;" horiz-adv-x="581" d="M-289 -403l101 237q49 -27 92 -35q51 -10 98 -10q63 0 104 41t41 127v1087h293v-1087q0 -92 -26 -178q-31 -82 -82 -139q-49 -55 -131 -91q-74 -31 -176 -30q-92 0 -168 18q-72 18 -146 60zM-25 1335v33l287 268h62l297 -268v-33l-140 -147l-190 153l-174 -153z" />
<glyph unicode="&#x136;" horiz-adv-x="1507" d="M160 0v1372h303v-522l149 16l387 506h379l-510 -641l559 -731h-395l-418 586h-151v-586h-303zM565 -254q0 74 49 121q47 45 115 45q66 0 119 -43q49 -43 49 -121q0 -14 -4 -43q-6 -25 -14 -37l-129 -280l-158 57l51 162q-33 18 -57 55q-20 41 -21 84z" />
<glyph unicode="&#x137;" horiz-adv-x="1269" d="M139 0v1448h293v-774l115 22l264 348h375l-393 -471l438 -573h-365l-305 424h-129v-424h-293zM477 -281q0 74 49 117q47 45 115 45q66 0 115 -43t49 -119q0 -41 -17 -79l-129 -279l-155 57l51 162q-39 20 -55 55q-23 33 -23 84z" />
<glyph unicode="&#x138;" horiz-adv-x="1261" d="M139 0v1044h293v-372l109 18l272 354h367l-398 -475l437 -569h-357l-313 426h-117v-426h-293z" />
<glyph unicode="&#x139;" horiz-adv-x="1292" d="M160 0v1372h307v-1091h741v-281h-1048zM205 1556l194 449l256 -125l-176 -324h-274z" />
<glyph unicode="&#x13a;" horiz-adv-x="571" d="M139 0v1448h293v-1448h-293zM156 1604l196 432l238 -144l-176 -288h-258z" />
<glyph unicode="&#x13b;" horiz-adv-x="1292" d="M160 0v1372h307v-1091h741v-281h-1048zM535 -285q0 76 49 121q47 45 114.5 45t116.5 -43q51 -43 51 -121q0 -20 -6 -43q-4 -23 -12 -36l-129 -281l-158 57l51 162q-39 20 -55 55q-23 33 -22 84z" />
<glyph unicode="&#x13c;" horiz-adv-x="571" d="M121 -281q0 74 49 117q47 45 115 45q66 0 115 -43t49 -119q0 -41 -17 -79l-129 -279l-156 57l52 162q-39 20 -56 55q-23 33 -22 84zM139 0v1448h293v-1448h-293z" />
<glyph unicode="&#x13d;" horiz-adv-x="1292" d="M160 0v1372h307v-1091h741v-281h-1048zM831 1090q0 74 50 120q47 45 114 45q66 0 119 -43q49 -43 49 -120q0 -14 -4 -43q-6 -25 -14 -37l-129 -281l-158 57l51 162q-33 18 -57 56q-20 41 -21 84z" />
<glyph unicode="&#x13e;" horiz-adv-x="915" d="M139 0v1448h293v-1448h-293zM592 1305q0 74 49 116q47 45 115 45q66 0 115 -43t49 -118q0 -41 -17 -80l-129 -279l-156 58l52 161q-39 20 -56 56q-23 33 -22 84z" />
<glyph unicode="&#x13f;" horiz-adv-x="1292" d="M160 0v1372h307v-1091h741v-281h-1048zM782 829q0 80 54 129q55 50 127 50q74 0 124 -50q53 -49 54 -129q0 -76 -54 -129q-51 -49 -124 -49q-72 0 -127 49q-53 53 -54 129z" />
<glyph unicode="&#x140;" horiz-adv-x="942" d="M139 0v1448h293v-1448h-293zM563 651q0 82 55 129q57 47 125 47q72 0 125 -47q55 -47 56 -129q0 -82 -56 -127q-53 -49 -125 -49q-35 0 -67 12q-33 12 -58 37q-18 16 -40 54q-14 39 -15 73z" />
<glyph unicode="&#x141;" horiz-adv-x="1310" d="M-2 682l180 72v618h307v-489l236 98l110 -270l-346 -148v-282h742v-281h-1049v453l-104 -21z" />
<glyph unicode="&#x142;" horiz-adv-x="632" d="M-51 631l221 114v703h293v-553l108 51l113 -229l-221 -115v-602h-293v451l-104 -50z" />
<glyph unicode="&#x143;" horiz-adv-x="1558" d="M160 0v1372h276l666 -926v926h297v-1372h-307l-633 877v-877h-299zM627 1556l194 449l256 -125l-176 -324h-274z" />
<glyph unicode="&#x144;" horiz-adv-x="1329" d="M139 0v1044h234l20 -167q45 90 139 143q90 49 211 49q209 0 326 -119q119 -117 119 -344v-606h-291v582q0 117 -53 172q-49 57 -146 57q-92 0 -161 -53q-70 -55 -105 -160v-598h-293zM592 1247l196 432l238 -143l-176 -289h-258z" />
<glyph unicode="&#x145;" horiz-adv-x="1558" d="M160 0v1372h276l666 -926v926h297v-1372h-307l-633 877v-877h-299zM612 -254q0 74 50 121q47 45 114.5 45t116.5 -43q51 -43 51 -121q0 -23 -6 -43q-4 -20 -12 -37l-129 -280l-158 57l51 162q-39 20 -55 55q-23 35 -23 84z" />
<glyph unicode="&#x146;" horiz-adv-x="1329" d="M139 0v1044h234l20 -167q45 90 139 143q90 49 211 49q209 0 326 -119q119 -117 119 -344v-606h-291v582q0 117 -53 172q-49 57 -146 57q-92 0 -161 -53q-70 -55 -105 -160v-598h-293zM500 -260q0 74 49 117q47 45 115 45q66 0 114.5 -43t48.5 -119q0 -41 -16 -80 l-129 -278l-156 57l52 162q-33 18 -58 55q-20 41 -20 84z" />
<glyph unicode="&#x147;" horiz-adv-x="1558" d="M160 0v1372h276l666 -926v926h297v-1372h-307l-633 877v-877h-299zM446 1769v27l146 152l184 -152l182 152l148 -152v-27l-303 -274h-53z" />
<glyph unicode="&#x148;" horiz-adv-x="1329" d="M139 0v1044h234l20 -167q45 90 139 143q90 49 211 49q209 0 326 -119q119 -117 119 -344v-606h-291v582q0 117 -53 172q-49 57 -146 57q-92 0 -161 -53q-70 -55 -105 -160v-598h-293zM377 1466v33l137 148l191 -154l176 154l141 -148v-33l-287 -268h-61z" />
<glyph unicode="&#x149;" horiz-adv-x="1605" d="M4 1303q0 74 49 118q49 43 114.5 43t115 -43t49.5 -118q0 -41 -17 -80l-129 -279l-155 57l51 162q-33 18 -57 56q-20 41 -21 84zM416 0v1044h233l21 -167q45 88 137 143q92 49 213 49q209 0 328 -119q117 -117 116 -344v-606h-290v582q0 111 -52 172q-55 57 -147 57 t-164 -53q-70 -57 -102 -160v-598h-293z" />
<glyph unicode="&#x14c;" horiz-adv-x="1652" d="M98 686q0 143 54 279q51 131 151 227q96 96 229 151q129 58 293 58q160 0 297 -53q137 -55 230 -152q96 -92 149 -225q53 -135 53 -285q0 -145 -53 -276q-49 -127 -149 -230q-96 -96 -230 -151q-133 -57 -297 -58q-158 0 -293 54q-133 55 -229 151q-100 96 -151 227 q-53 135 -54 283zM403 686q0 -88 29 -174q27 -80 84 -139q53 -55 133 -94q82 -33 176 -33q98 0 179 35q78 33 135 96q49 55 82 139q27 86 26 170q0 92 -28 174q-27 82 -84 141q-51 57 -131 93q-79 32 -179 32q-96 0 -178 -34q-78 -35 -131 -95q-57 -59 -84 -139 q-29 -82 -29 -172zM406 1577v256h839v-256h-839z" />
<glyph unicode="&#x14d;" horiz-adv-x="1327" d="M92 522q0 121 43 219q39 102 117 174q82 76 180 113q107 41 232 41q127 0 229 -39q106 -39 182 -112q76 -70 117 -173q43 -100 43 -223q0 -121 -43 -221q-41 -96 -119 -174q-86 -78 -182 -111q-100 -41 -227 -41q-129 0 -231.5 39t-180.5 111t-117 174q-43 98 -43 223z M319 1251v250h689v-250h-689zM383 522q0 -135 76 -211q78 -80 205 -80q131 0 204 80q74 76 74 211q0 131 -74 211q-77 78 -204 78q-131 0 -205 -80q-76 -78 -76 -209z" />
<glyph unicode="&#x14e;" horiz-adv-x="1652" d="M98 686q0 143 54 279q51 131 151 227q96 96 229 151q129 58 293 58q160 0 297 -53q137 -55 230 -152q96 -92 149 -225q53 -135 53 -285q0 -145 -53 -276q-49 -127 -149 -230q-96 -96 -230 -151q-133 -57 -297 -58q-158 0 -293 54q-133 55 -229 151q-100 96 -151 227 q-53 135 -54 283zM403 686q0 -88 29 -174q27 -80 84 -139q53 -55 133 -94q82 -33 176 -33q98 0 179 35q78 33 135 96q49 55 82 139q27 86 26 170q0 92 -28 174q-27 82 -84 141q-51 57 -131 93q-79 32 -179 32q-96 0 -178 -34q-78 -35 -131 -95q-57 -59 -84 -139 q-29 -82 -29 -172zM475 1878h230q0 -55 34.5 -90t87.5 -35q51 0 86 33q33 37 33 92h230q0 -80 -25 -143q-23 -68 -68 -113t-108 -74q-66 -27 -148 -26q-88 0 -149 26q-63 25 -111 72q-45 45 -67 113q-25 63 -25 145z" />
<glyph unicode="&#x14f;" horiz-adv-x="1327" d="M92 522q0 121 43 219q39 102 117 174q82 76 180 113q107 41 232 41q127 0 229 -39q106 -39 182 -112q76 -70 117 -173q43 -100 43 -223q0 -121 -43 -221q-41 -96 -119 -174q-86 -78 -182 -111q-100 -41 -227 -41q-129 0 -231.5 39t-180.5 111t-117 174q-43 98 -43 223z M317 1548h226q0 -57 30 -92q31 -35 91 -35q55 0 90 35q31 35 30 92h226q-2 -164 -101 -262q-94 -94 -245 -94q-74 0 -140 25q-61 20 -110 69q-45 45 -70 111q-27 66 -27 151zM383 522q0 -135 76 -211q78 -80 205 -80q131 0 204 80q74 76 74 211q0 131 -74 211 q-77 78 -204 78q-131 0 -205 -80q-76 -78 -76 -209z" />
<glyph unicode="&#x150;" horiz-adv-x="1652" d="M98 686q0 143 54 279q51 131 151 227q96 96 229 151q129 58 293 58q160 0 297 -53q137 -55 230 -152q96 -92 149 -225q53 -135 53 -285q0 -145 -53 -276q-49 -127 -149 -230q-96 -96 -230 -151q-133 -57 -297 -58q-158 0 -293 54q-133 55 -229 151q-100 96 -151 227 q-53 135 -54 283zM403 686q0 -88 29 -174q27 -80 84 -139q53 -55 133 -94q82 -33 176 -33q98 0 179 35q78 33 135 96q49 55 82 139q27 86 26 170q0 92 -28 174q-27 82 -84 141q-51 57 -131 93q-79 32 -179 32q-96 0 -178 -34q-78 -35 -131 -95q-57 -59 -84 -139 q-29 -82 -29 -172zM555 1556l139 457l246 -96l-141 -361h-244zM885 1556l190 410l238 -127l-189 -283h-239z" />
<glyph unicode="&#x151;" horiz-adv-x="1327" d="M92 522q0 121 43 219q39 102 117 174q82 76 180 113q107 41 232 41q127 0 229 -39q106 -39 182 -112q76 -70 117 -173q43 -100 43 -223q0 -121 -43 -221q-41 -96 -119 -174q-86 -78 -182 -111q-100 -41 -227 -41q-129 0 -231.5 39t-180.5 111t-117 174q-43 98 -43 223z M365 1247l159 445l234 -117l-160 -328h-233zM383 522q0 -135 76 -211q78 -80 205 -80q131 0 204 80q74 76 74 211q0 131 -74 211q-77 78 -204 78q-131 0 -205 -80q-76 -78 -76 -209zM715 1247l190 393l228 -129l-168 -264h-250z" />
<glyph unicode="&#x152;" horiz-adv-x="2301" d="M98 686q0 150 52 279q53 135 145 227q94 96 221 151q129 57 289 58q109 0 190 -27q94 -29 156 -78v76h1006v-276h-705v-258h627v-269h-627v-293h739v-276h-1040v72q-63 -47 -158 -76q-88 -25 -188 -25q-154 0 -289 54q-127 55 -221 151q-92 92 -145 227q-51 129 -52 283z M403 686q0 -84 27 -174q35 -88 82 -139q47 -55 127 -94q78 -33 166 -33q129 0 211 41q86 37 135 114v572q-47 74 -135 114q-80 39 -211 39q-92 0 -168 -34q-74 -35 -125 -95q-47 -51 -82 -139q-27 -86 -27 -172z" />
<glyph unicode="&#x153;" horiz-adv-x="2041" d="M92 522q0 115 39 219q43 106 115 174q76 74 176 113q106 41 231 41q123 0 228 -43q106 -43 180 -125q59 70 164 123q102 45 227 45q113 0 203 -37q90 -33 157.5 -100.5t100.5 -157.5q37 -92 37 -203q0 -23 -4 -75q-8 -45 -15 -68h-749q14 -84 88 -141q70 -55 198 -56 q186 0 338 97l123 -211q-102 -74 -221 -109q-111 -33 -252 -33q-135 0 -239 41q-98 43 -170 121q-72 -78 -175 -121q-104 -41 -219 -41q-129 0 -231 39q-102 41 -176 111q-72 68 -115 174q-39 104 -39 223zM383 522q0 -133 72 -211q74 -80 202 -80q135 0 203 80 q72 74 72 211q0 129 -72 211q-74 78 -203 78t-202 -80q-72 -82 -72 -209zM1188 643h463q-4 78 -53.5 127t-153.5 49q-106 0 -168 -49q-59 -45 -88 -127z" />
<glyph unicode="&#x154;" horiz-adv-x="1447" d="M160 0v1372h620q121 0 217.5 -32.5t169.5 -94.5q70 -63 109 -147t39 -193q0 -143 -74 -250q-74 -109 -207 -163l334 -492h-373l-252 410h-276v-410h-307zM467 682h291q111 0 176 55q68 55 67.5 153.5t-63.5 153.5q-63 53 -172 54h-299v-416zM557 1556l195 449l256 -125 l-177 -324h-274z" />
<glyph unicode="&#x155;" horiz-adv-x="1132" d="M139 0v1044h236l18 -167q47 90 139 143q90 49 224 49q98 0 186 -35q86 -33 145 -90l-169 -225q-37 33 -99 59q-61 20 -127 21q-92 0 -160 -56q-70 -53 -100 -141v-602h-293zM578 1247l196 432l238 -143l-176 -289h-258z" />
<glyph unicode="&#x156;" horiz-adv-x="1447" d="M160 0v1372h620q121 0 217.5 -32.5t169.5 -94.5q70 -63 109 -147t39 -193q0 -143 -74 -250q-74 -109 -207 -163l334 -492h-373l-252 410h-276v-410h-307zM467 682h291q111 0 176 55q68 55 67.5 153.5t-63.5 153.5q-63 53 -172 54h-299v-416zM549 -254q0 74 49 121 q47 45 115 45q66 0 118 -43q49 -43 50 -121q0 -14 -4 -43q-6 -25 -15 -37l-129 -280l-158 57l52 162q-33 18 -58 55q-20 41 -20 84z" />
<glyph unicode="&#x157;" horiz-adv-x="1132" d="M117 -281q0 74 49 117q47 45 115 45q66 0 114.5 -43t48.5 -119q0 -41 -16 -79l-129 -279l-156 57l52 162q-39 20 -56 55q-23 33 -22 84zM139 0v1044h236l18 -167q47 90 139 143q90 49 224 49q98 0 186 -35q86 -33 145 -90l-169 -225q-37 33 -99 59q-61 20 -127 21 q-92 0 -160 -56q-70 -53 -100 -141v-602h-293z" />
<glyph unicode="&#x158;" horiz-adv-x="1447" d="M160 0v1372h620q121 0 217.5 -32.5t169.5 -94.5q70 -63 109 -147t39 -193q0 -143 -74 -250q-74 -109 -207 -163l334 -492h-373l-252 410h-276v-410h-307zM373 1769v27l145 152l184 -152l183 152l147 -152v-27l-303 -274h-53zM467 682h291q111 0 176 55q68 55 67.5 153.5 t-63.5 153.5q-63 53 -172 54h-299v-416z" />
<glyph unicode="&#x159;" horiz-adv-x="1132" d="M139 0v1044h236l18 -167q47 90 139 143q90 49 224 49q98 0 186 -35q86 -33 145 -90l-169 -225q-37 33 -99 59q-61 20 -127 21q-92 0 -160 -56q-70 -53 -100 -141v-602h-293zM352 1466v33l137 148l191 -154l176 154l141 -148v-33l-286 -268h-62z" />
<glyph unicode="&#x15a;" horiz-adv-x="1370" d="M94 129l129 252q115 -72 230 -102q113 -31 241 -31q133 0 203 41q66 41 66 110q0 61 -45 95q-47 35 -150 49l-211 26q-203 29 -311 125q-111 98 -111 285q0 106 41 180q37 78 111 133q76 55 172 80q98 29 225 29q168 0 305 -43q141 -45 244 -131l-152 -219 q-88 61 -182 90q-100 31 -209 30q-133 0 -192 -34q-57 -37 -58 -101q0 -59 43 -88q43 -31 138 -43l200 -26q227 -31 338 -140q111 -104 111 -280q0 -102 -39 -183q-41 -86 -113 -139q-74 -59 -188 -90q-106 -33 -254 -33q-166 0 -309 35q-141 35 -273 123zM561 1556l195 449 l256 -125l-176 -324h-275z" />
<glyph unicode="&#x15b;" horiz-adv-x="1181" d="M90 102l111 217q98 -55 184 -75q96 -23 190 -23q113 0 170 21q53 25 54 65q0 35 -27 53q-31 16 -86 23l-235 27q-152 14 -240 94q-86 78 -86 223q0 156 121 248q121 94 348 94q262 0 448 -111l-116 -219q-150 82 -336 82q-178 0 -178 -82q0 -59 94 -71l199 -23 q176 -20 278 -96q100 -74 100 -225q0 -166 -137 -258q-137 -90 -377 -91q-143 0 -250 29q-109 25 -229 98zM489 1247l197 432l238 -143l-176 -289h-259z" />
<glyph unicode="&#x15c;" horiz-adv-x="1370" d="M94 129l129 252q115 -72 230 -102q113 -31 241 -31q133 0 203 41q66 41 66 110q0 61 -45 95q-47 35 -150 49l-211 26q-203 29 -311 125q-111 98 -111 285q0 106 41 180q37 78 111 133q76 55 172 80q98 29 225 29q168 0 305 -43q141 -45 244 -131l-152 -219 q-88 61 -182 90q-100 31 -209 30q-133 0 -192 -34q-57 -37 -58 -101q0 -59 43 -88q43 -31 138 -43l200 -26q227 -31 338 -140q111 -104 111 -280q0 -102 -39 -183q-41 -86 -113 -139q-74 -59 -188 -90q-106 -33 -254 -33q-166 0 -309 35q-141 35 -273 123zM371 1645v28 l303 275h53l303 -275v-28l-145 -150l-185 150l-182 -150z" />
<glyph unicode="&#x15d;" horiz-adv-x="1181" d="M90 102l111 217q98 -55 184 -75q96 -23 190 -23q113 0 170 21q53 25 54 65q0 35 -27 53q-31 16 -86 23l-235 27q-152 14 -240 94q-86 78 -86 223q0 156 121 248q121 94 348 94q262 0 448 -111l-116 -219q-150 82 -336 82q-178 0 -178 -82q0 -59 94 -71l199 -23 q176 -20 278 -96q100 -74 100 -225q0 -166 -137 -258q-137 -90 -377 -91q-143 0 -250 29q-109 25 -229 98zM291 1335v33l287 268h61l297 -268v-33l-139 -147l-191 153l-174 -153z" />
<glyph unicode="&#x15e;" horiz-adv-x="1370" d="M94 129l129 252q115 -72 230 -102q113 -31 241 -31q133 0 203 41q66 41 66 110q0 61 -45 95q-47 35 -150 49l-211 26q-203 29 -311 127q-111 102 -111 285q0 106 41 182q37 76 111 131q76 53 176 80q94 27 221 27q162 0 307 -45q143 -51 242 -135l-150 -217 q-82 57 -182 92q-98 33 -211 32q-131 0 -190 -34q-59 -37 -60 -101q0 -59 43 -88q43 -31 138 -43l200 -26q223 -31 338 -140q111 -106 111 -282q0 -182 -127 -303q-129 -117 -377 -136l-8 -75q63 -25 96 -80q35 -57 35 -127q0 -131 -92 -234q-92 -98 -273 -143l-78 184 q86 29 138 70q51 45 51 98q0 45 -41 68q-39 20 -113 20v49l47 103v72q-113 8 -225 45q-106 37 -209 104z" />
<glyph unicode="&#x15f;" horiz-adv-x="1181" d="M90 102l111 217q98 -55 184 -75q96 -23 190 -23q113 0 170 21q53 25 54 65q0 35 -27 53q-31 16 -86 23l-235 27q-152 14 -240 94q-86 78 -86 223q0 156 121 248q121 94 348 94q262 0 448 -111l-116 -219q-150 82 -336 82q-178 0 -178 -82q0 -59 94 -71l199 -23 q176 -20 278 -96q100 -74 100 -225q0 -147 -108 -236q-102 -88 -299 -106l-8 -86q55 -20 90 -68q33 -47 33 -119q0 -125 -82 -219q-84 -96 -256 -147l-68 188q74 27 115 68q39 41 39 82q0 47 -33 65q-33 20 -98 21v51l45 90v72q-88 8 -187 38q-82 25 -176 84z" />
<glyph unicode="&#x160;" horiz-adv-x="1370" d="M94 129l129 252q115 -72 230 -102q113 -31 241 -31q133 0 203 41q66 41 66 110q0 61 -45 95q-47 35 -150 49l-211 26q-203 29 -311 125q-111 98 -111 285q0 106 41 180q37 78 111 133q76 55 172 80q98 29 225 29q168 0 305 -43q141 -45 244 -131l-152 -219 q-88 61 -182 90q-100 31 -209 30q-133 0 -192 -34q-57 -37 -58 -101q0 -59 43 -88q43 -31 138 -43l200 -26q227 -31 338 -140q111 -104 111 -280q0 -102 -39 -183q-41 -86 -113 -139q-74 -59 -188 -90q-106 -33 -254 -33q-166 0 -309 35q-141 35 -273 123zM373 1769v27 l145 152l184 -152l183 152l147 -152v-27l-303 -274h-53z" />
<glyph unicode="&#x161;" horiz-adv-x="1181" d="M90 102l111 217q98 -55 184 -75q96 -23 190 -23q113 0 170 21q53 25 54 65q0 35 -27 53q-31 16 -86 23l-235 27q-152 14 -240 94q-86 78 -86 223q0 156 121 248q121 94 348 94q262 0 448 -111l-116 -219q-150 82 -336 82q-178 0 -178 -82q0 -59 94 -71l199 -23 q176 -20 278 -96q100 -74 100 -225q0 -166 -137 -258q-137 -90 -377 -91q-143 0 -250 29q-109 25 -229 98zM289 1466v33l137 148l190 -154l177 154l141 -148v-33l-287 -268h-61z" />
<glyph unicode="&#x162;" horiz-adv-x="1419" d="M88 1094v278h1243v-278h-469v-1094h-305v1094h-469zM543 -285q0 76 49 121q47 45 114.5 45t116.5 -43q51 -43 51 -121q0 -20 -6 -43q-4 -23 -12 -36l-129 -281l-158 57l52 162q-39 20 -56 55q-23 33 -22 84z" />
<glyph unicode="&#x163;" horiz-adv-x="978" d="M72 784v244l151 12l29 279l278 -14l-12 -261h348v-260h-346v-407q0 -66 37 -101q41 -35 105 -34q55 0 96 14q47 16 82 39l98 -225q-80 -51 -156 -72q-84 -23 -178 -23q-180 0 -278.5 100.5t-98.5 305.5v403h-155zM422 -281q0 74 49 117q47 45 115 45q66 0 115 -43 t49 -119q0 -41 -17 -79l-129 -279l-155 57l51 162q-33 18 -58 55q-20 41 -20 84z" />
<glyph unicode="&#x164;" horiz-adv-x="1419" d="M88 1094v278h1243v-278h-469v-1094h-305v1094h-469zM379 1769v27l145 152l185 -152l182 152l147 -152v-27l-303 -274h-53z" />
<glyph unicode="&#x165;" horiz-adv-x="1273" d="M72 784v244l151 12l29 279l278 -14l-12 -261h348v-260h-346v-407q0 -66 37 -101q41 -35 105 -34q55 0 96 14q47 16 82 39l98 -225q-80 -51 -156 -72q-84 -23 -178 -23q-180 0 -278.5 100.5t-98.5 305.5v403h-155zM954 1303q0 74 50 118q49 43 114.5 43t114.5 -43t49 -118 q0 -41 -16 -80l-129 -279l-156 57l51 162q-33 18 -57 56q-20 41 -21 84z" />
<glyph unicode="&#x168;" horiz-adv-x="1562" d="M160 604v768h309v-764q0 -166 80 -264q78 -96 231 -96q158 0 234 92q78 90 78 264v768h309v-762q0 -147 -41 -262q-37 -115 -119 -201q-74 -80 -192 -131q-123 -45 -269 -45q-154 0 -264 45q-119 45 -197 127q-80 82 -118 199q-41 119 -41 262zM352 1692q41 86 107 133 q70 49 159 49q47 0 91 -16q18 -6 73 -35q29 -20 66 -37q33 -16 67 -17q92 0 142 68l153 -145q-39 -88 -104 -131q-66 -47 -152 -48q-55 0 -94 17q-43 14 -74 37q-47 29 -67 37q-37 16 -72 16q-53 0 -86 -18q-39 -23 -59 -52z" />
<glyph unicode="&#x169;" horiz-adv-x="1314" d="M139 438v606h293v-581q0 -231 193 -232q90 0 157 56q68 57 101 157v600h293v-1044h-234l-20 168q-45 -90 -136 -143q-90 -49 -204 -50q-211 0 -328 117q-115 119 -115 346zM246 1368q41 80 108 127q66 47 154 47q51 0 82 -14q45 -20 65 -31l62 -31q29 -14 69 -14 q45 0 78 18q35 16 58 46l145 -146q-39 -82 -102 -129q-61 -43 -150 -43q-49 0 -84 14q-41 16 -69 33q-41 20 -64 31q-31 14 -70 14q-90 0 -141 -63z" />
<glyph unicode="&#x16a;" horiz-adv-x="1562" d="M160 604v768h309v-764q0 -166 80 -264q78 -96 231 -96q158 0 234 92q78 90 78 264v768h309v-762q0 -147 -41 -262q-37 -115 -119 -201q-74 -80 -192 -131q-123 -45 -269 -45q-154 0 -264 45q-119 45 -197 127q-80 82 -118 199q-41 119 -41 262zM360 1577v256h840v-256 h-840z" />
<glyph unicode="&#x16b;" horiz-adv-x="1314" d="M139 438v606h293v-581q0 -231 193 -232q90 0 157 56q68 57 101 157v600h293v-1044h-234l-20 168q-45 -90 -136 -143q-90 -49 -204 -50q-211 0 -328 117q-115 119 -115 346zM313 1251v250h688v-250h-688z" />
<glyph unicode="&#x16c;" horiz-adv-x="1562" d="M160 604v768h309v-764q0 -166 80 -264q78 -96 231 -96q158 0 234 92q78 90 78 264v768h309v-762q0 -147 -41 -262q-37 -115 -119 -201q-74 -80 -192 -131q-123 -45 -269 -45q-154 0 -264 45q-119 45 -197 127q-80 82 -118 199q-41 119 -41 262zM430 1878h229 q0 -55 35 -90t88 -35q51 0 86 33q33 37 33 92h229q0 -80 -24 -143q-23 -68 -68 -113t-108 -74q-66 -27 -148 -26q-88 0 -149 26q-63 25 -111 72q-45 45 -67 113q-25 63 -25 145z" />
<glyph unicode="&#x16d;" horiz-adv-x="1314" d="M139 438v606h293v-581q0 -231 193 -232q90 0 157 56q68 57 101 157v600h293v-1044h-234l-20 168q-45 -90 -136 -143q-90 -49 -204 -50q-211 0 -328 117q-115 119 -115 346zM311 1548h226q0 -57 30 -92q31 -35 90 -35q55 0 91 35q31 35 30 92h226q-2 -164 -101 -262 q-94 -94 -246 -94q-76 0 -139 25q-61 20 -110 69q-45 45 -70 111q-27 66 -27 151z" />
<glyph unicode="&#x16e;" horiz-adv-x="1562" d="M160 604v768h309v-764q0 -166 80 -264q78 -96 231 -96q158 0 234 92q78 90 78 264v768h309v-762q0 -147 -41 -262q-37 -115 -119 -201q-74 -80 -192 -131q-123 -45 -269 -45q-154 0 -264 45q-119 45 -197 127q-80 82 -118 199q-41 119 -41 262zM500 1753q0 57 20 105 q23 53 58 84q41 41 88 57q47 22 114.5 22t112.5 -22q49 -16 90 -57q35 -31 57 -84q20 -47 20.5 -104.5t-20.5 -104.5q-23 -51 -57.5 -86t-89.5 -60q-55 -20 -113 -20q-55 0 -116 20q-57 29 -89 60q-37 37 -55 86q-20 47 -20 104zM709 1753q0 -31 20 -49q18 -20 51 -21 q31 0 51 21q18 18 19 49q0 29 -19 49q-20 21 -51 21q-33 0 -51 -21q-20 -20 -20 -49z" />
<glyph unicode="&#x16f;" horiz-adv-x="1314" d="M139 438v606h293v-581q0 -231 193 -232q90 0 157 56q68 57 101 157v600h293v-1044h-234l-20 168q-45 -90 -136 -143q-90 -49 -204 -50q-211 0 -328 117q-115 119 -115 346zM393 1432q0 53 19 96q18 41 55 82q35 33 84 53q43 20 106 20q59 0 107 -20q51 -23 82 -53 q37 -37 53 -82q20 -41 21 -96q0 -53 -21 -101q-20 -49 -53 -78q-25 -31 -82 -55q-47 -20 -107 -20q-63 0 -106 20q-55 25 -84 55q-31 27 -55 78q-18 49 -19 101zM580 1431.5q0 -28.5 20 -55.5q27 -20 57.5 -20t57.5 20q20 27 20 55.5t-20 53.5q-27 22 -57.5 22t-57.5 -22 q-20 -25 -20 -53.5z" />
<glyph unicode="&#x170;" horiz-adv-x="1562" d="M160 604v768h309v-764q0 -166 80 -264q78 -96 231 -96q158 0 234 92q78 90 78 264v768h309v-762q0 -147 -41 -262q-37 -115 -119 -201q-74 -80 -192 -131q-123 -45 -269 -45q-154 0 -264 45q-119 45 -197 127q-80 82 -118 199q-41 119 -41 262zM487 1556l140 457l245 -96 l-141 -361h-244zM817 1556l191 410l237 -127l-188 -283h-240z" />
<glyph unicode="&#x171;" horiz-adv-x="1314" d="M139 438v606h293v-581q0 -231 193 -232q90 0 157 56q68 57 101 157v600h293v-1044h-234l-20 168q-45 -90 -136 -143q-90 -49 -204 -50q-211 0 -328 117q-115 119 -115 346zM354 1247l160 445l234 -117l-160 -328h-234zM705 1247l190 393l227 -129l-168 -264h-249z" />
<glyph unicode="&#x172;" horiz-adv-x="1562" d="M160 604v768h309v-764q0 -166 80 -264q78 -96 231 -96q158 0 234 92q78 90 78 264v768h309v-762q0 -119 -29 -229q-29 -100 -90 -186q-57 -82 -147 -138q-86 -51 -201 -73q-37 -8 -62 -37q-20 -31 -20 -70q0 -53 33 -86q31 -33 98 -43l-35 -201q-174 8 -262 88t-88 197 q0 90 49 152q-238 35 -360 196q-127 160 -127 424z" />
<glyph unicode="&#x173;" horiz-adv-x="1314" d="M139 438v606h293v-581q0 -231 193 -232q90 0 157 56q68 57 101 157v600h293v-1038q-47 -12 -70 -47q-20 -35 -21 -72q0 -49 33 -86q37 -35 96 -43l-34 -198q-164 6 -246 86q-86 80 -86 190q0 61 24 107q27 49 66 75l-16 150q-45 -90 -136 -143q-90 -49 -204 -50 q-211 0 -328 117q-115 119 -115 346z" />
<glyph unicode="&#x174;" horiz-adv-x="2082" d="M68 1372h338l235 -1003h21l243 966h279l254 -966h20l223 1003h334l-385 -1376h-370l-211 809h-21l-194 -809h-377zM711 1645v28l303 275h53l303 -275v-28l-145 -150l-185 150l-182 -150z" />
<glyph unicode="&#x175;" horiz-adv-x="1830" d="M70 1044h331l181 -731h18l193 691h270l199 -691h18l174 731h307l-342 -1048h-340l-155 588h-19l-145 -588h-340zM594 1335v33l287 268h61l297 -268v-33l-139 -147l-191 153l-174 -153z" />
<glyph unicode="&#x176;" horiz-adv-x="1509" d="M68 1372h368l312 -610h20l307 610h365l-533 -913v-459h-307v459zM424 1645v28l303 275h53l303 -275v-28l-145 -150l-184 150l-183 -150z" />
<glyph unicode="&#x177;" horiz-adv-x="1355" d="M70 1044h344l299 -737h18l232 737h323l-467 -1153q-51 -131 -139 -208q-84 -76 -217 -76q-145 0 -236 65l82 219q31 -14 64 -20q31 -6 59 -6q100 0 129 80l17 41zM375 1335v33l287 268h61l297 -268v-33l-139 -147l-191 153l-174 -153z" />
<glyph unicode="&#x178;" horiz-adv-x="1509" d="M68 1372h368l312 -610h20l307 610h365l-533 -913v-459h-307v459zM315 1698q0 43 15 74q16 35 39 55q25 25 57 37q30 12 63 12q72 0 125 -49q53 -47 54 -129q0 -76 -54 -125q-53 -47 -125 -47q-33 0 -63 12q-31 10 -57 35q-25 25 -39 57q-14 29 -15 68zM840 1698 q0 43 14 74q16 35 39 55q25 25 57 37q31 12 64 12q70 0 125 -49q51 -47 51 -129q0 -74 -51 -125q-57 -47 -125 -47q-33 0 -64 12q-31 10 -57 35q-25 25 -39 57q-14 29 -14 68z" />
<glyph unicode="&#x179;" horiz-adv-x="1374" d="M111 0v223l729 871h-701v278h1108v-223l-721 -866h738v-283h-1153zM524 1556l195 449l256 -125l-176 -324h-275z" />
<glyph unicode="&#x17a;" horiz-adv-x="1159" d="M106 0v236l578 552h-547v256h910v-245l-558 -543h564v-256h-947zM461 1247l196 432l238 -143l-176 -289h-258z" />
<glyph unicode="&#x17b;" horiz-adv-x="1374" d="M111 0v223l729 871h-701v278h1108v-223l-721 -866h738v-283h-1153zM506 1714q0 80 55 129q53 49 125 49t125 -49t53 -129q0 -76 -53 -129q-53 -49 -125 -49t-125 49q-55 53 -55 129z" />
<glyph unicode="&#x17c;" horiz-adv-x="1159" d="M106 0v236l578 552h-547v256h910v-245l-558 -543h564v-256h-947zM416 1391q0 84 55 129q57 47 125 47q70 0 127 -47q53 -47 53 -129q0 -80 -53 -129q-57 -47 -127 -48q-35 0 -68 13q-31 10 -57 35q-29 29 -39 57q-16 27 -16 72z" />
<glyph unicode="&#x17d;" horiz-adv-x="1374" d="M111 0v223l729 871h-701v278h1108v-223l-721 -866h738v-283h-1153zM356 1769v27l146 152l184 -152l182 152l148 -152v-27l-303 -274h-54z" />
<glyph unicode="&#x17e;" horiz-adv-x="1159" d="M106 0v236l578 552h-547v256h910v-245l-558 -543h564v-256h-947zM270 1466v33l138 148l190 -154l176 154l141 -148v-33l-286 -268h-62z" />
<glyph unicode="&#x17f;" horiz-adv-x="618" d="M139 0v1112q0 92 27 170q29 78 80 131q53 57 139 90q80 31 193 31q111 0 200.5 -30.5t159.5 -84.5l-123 -215q-94 63 -217 64q-90 0 -129 -49q-39 -47 -39 -127v-1092h-291z" />
<glyph unicode="&#x200;" horiz-adv-x="1624" d="M78 0l563 1374h338l567 -1374h-340l-104 272h-588l-102 -272h-334zM317 1839l238 127l190 -410h-239zM614 543h387l-182 522h-20zM690 1917l246 96l139 -457h-244z" />
<glyph unicode="&#x201;" horiz-adv-x="1255" d="M74 324q0 82 35 147q33 63 100 107q53 37 151 65q102 20 201 21q72 0 115 -9q63 -10 100 -20v33q0 66 -47 106q-47 37 -145 37q-172 0 -338 -78l-115 213q117 68 221 94q119 29 234 29q127 0 217 -33q92 -35 147 -90q63 -63 86 -141q29 -78 29 -182v-316q0 -82 61 -82 q23 0 35 6l27 -231q-35 -12 -62 -16q-33 -6 -73 -7q-86 0 -146 37q-61 39 -76 125q-57 -84 -149 -125q-86 -39 -211 -39q-182 0 -291 91q-106 88 -106 258zM152 1511l227 129l190 -393h-250zM373 338q0 -51 37 -80q33 -31 112 -31q125 0 191 56q66 53 65 125v24 q-100 23 -209 23q-104 0 -151 -33q-45 -33 -45 -84zM526 1575l234 117l160 -445h-234z" />
<glyph unicode="&#x204;" d="M160 0v1372h1026v-276h-723v-258h645v-269h-645v-293h758v-276h-1061zM236 1839l237 127l191 -410h-240zM608 1917l246 96l139 -457h-243z" />
<glyph unicode="&#x205;" horiz-adv-x="1257" d="M92 520q0 109 39 215q43 102 115 174q78 74 180 117q106 43 236 43q111 0 202 -37q92 -33 160 -100q68 -63 104 -158q37 -90 37 -203q0 -37 -6 -73q-2 -35 -12 -70h-762q14 -86 90 -141q70 -55 203 -56q195 0 340 99l125 -213q-102 -74 -223 -109q-113 -33 -258 -33 q-139 0 -244 39q-106 39 -178 111t-109 172q-39 98 -39 223zM199 1511l227 129l190 -393h-249zM393 643h473q-4 78 -55 127t-157.5 49t-170.5 -47q-61 -45 -90 -129zM573 1575l234 117l160 -445h-234z" />
<glyph unicode="&#x208;" horiz-adv-x="630" d="M-147 1839l237 127l191 -410h-240zM160 0v1372h309v-1372h-309zM225 1917l246 96l139 -457h-243z" />
<glyph unicode="&#x209;" horiz-adv-x="575" d="M-164 1511l227 129l191 -393h-250zM139 0v1044h297v-1044h-297zM211 1575l233 117l160 -445h-233z" />
<glyph unicode="&#x20c;" horiz-adv-x="1652" d="M98 686q0 143 54 279q51 131 151 227q96 96 229 151q129 58 293 58q160 0 297 -53q137 -55 230 -152q96 -92 149 -225q53 -135 53 -285q0 -145 -53 -276q-49 -127 -149 -230q-96 -96 -230 -151q-133 -57 -297 -58q-158 0 -293 54q-133 55 -229 151q-100 96 -151 227 q-53 135 -54 283zM373 1839l237 127l191 -410h-240zM403 686q0 -88 29 -174q27 -80 84 -139q53 -55 133 -94q82 -33 176 -33q98 0 179 35q78 33 135 96q49 55 82 139q27 86 26 170q0 92 -28 174q-27 82 -84 141q-51 57 -131 93q-79 32 -179 32q-96 0 -178 -34 q-78 -35 -131 -95q-57 -59 -84 -139q-29 -82 -29 -172zM745 1917l246 96l139 -457h-243z" />
<glyph unicode="&#x20d;" horiz-adv-x="1327" d="M92 522q0 121 43 219q39 102 117 174q82 76 180 113q107 41 232 41q127 0 229 -39q106 -39 182 -112q76 -70 117 -173q43 -100 43 -223q0 -121 -43 -221q-41 -96 -119 -174q-86 -78 -182 -111q-100 -41 -227 -41q-129 0 -231.5 39t-180.5 111t-117 174q-43 98 -43 223z M201 1511l227 129l190 -393h-249zM383 522q0 -135 76 -211q78 -80 205 -80q131 0 204 80q74 76 74 211q0 131 -74 211q-77 78 -204 78q-131 0 -205 -80q-76 -78 -76 -209zM575 1575l234 117l160 -445h-234z" />
<glyph unicode="&#x210;" horiz-adv-x="1447" d="M160 0v1372h620q121 0 217.5 -32.5t169.5 -94.5q70 -63 109 -147t39 -193q0 -143 -74 -250q-74 -109 -207 -163l334 -492h-373l-252 410h-276v-410h-307zM229 1839l238 127l190 -410h-239zM467 682h291q111 0 176 55q68 55 67.5 153.5t-63.5 153.5q-63 53 -172 54h-299 v-416zM602 1917l246 96l139 -457h-244z" />
<glyph unicode="&#x211;" horiz-adv-x="1132" d="M139 0v1044h236l18 -167q47 90 139 143q90 49 224 49q98 0 186 -35q86 -33 145 -90l-169 -225q-37 33 -99 59q-61 20 -127 21q-92 0 -160 -56q-70 -53 -100 -141v-602h-293zM203 1511l227 129l191 -393h-250zM578 1575l233 117l160 -445h-234z" />
<glyph unicode="&#x214;" horiz-adv-x="1562" d="M160 604v768h309v-764q0 -166 80 -264q78 -96 231 -96q158 0 234 92q78 90 78 264v768h309v-762q0 -147 -41 -262q-37 -115 -119 -201q-74 -80 -192 -131q-123 -45 -269 -45q-154 0 -264 45q-119 45 -197 127q-80 82 -118 199q-41 119 -41 262zM338 1839l237 127 l191 -410h-240zM711 1917l245 96l140 -457h-244z" />
<glyph unicode="&#x215;" horiz-adv-x="1314" d="M139 438v606h293v-581q0 -231 193 -232q90 0 157 56q68 57 101 157v600h293v-1044h-234l-20 168q-45 -90 -136 -143q-90 -49 -204 -50q-211 0 -328 117q-115 119 -115 346zM233 1511l228 129l190 -393h-250zM608 1575l234 117l159 -445h-233z" />
<glyph unicode="&#x218;" horiz-adv-x="1370" d="M94 129l129 252q115 -72 230 -102q113 -31 241 -31q133 0 203 41q66 41 66 110q0 61 -45 95q-47 35 -150 49l-211 26q-203 29 -311 125q-111 98 -111 285q0 106 41 180q37 78 111 133q76 55 172 80q98 29 225 29q168 0 305 -43q141 -45 244 -131l-152 -219 q-88 61 -182 90q-100 31 -209 30q-133 0 -192 -34q-57 -37 -58 -101q0 -59 43 -88q43 -31 138 -43l200 -26q227 -31 338 -140q111 -104 111 -280q0 -102 -39 -183q-41 -86 -113 -139q-74 -59 -188 -90q-106 -33 -254 -33q-166 0 -309 35q-141 35 -273 123zM518 -285 q0 76 49 121q47 45 115 45t117 -43q51 -43 51 -121q0 -20 -6 -43q-4 -23 -13 -36l-129 -281l-157 57l51 162q-39 20 -55 55q-23 33 -23 84z" />
<glyph unicode="&#x219;" horiz-adv-x="1181" d="M90 102l111 217q98 -55 184 -75q96 -23 190 -23q113 0 170 21q53 25 54 65q0 35 -27 53q-31 16 -86 23l-235 27q-152 14 -240 94q-86 78 -86 223q0 156 121 248q121 94 348 94q262 0 448 -111l-116 -219q-150 82 -336 82q-178 0 -178 -82q0 -59 94 -71l199 -23 q176 -20 278 -96q100 -74 100 -225q0 -166 -137 -258q-137 -90 -377 -91q-143 0 -250 29q-109 25 -229 98zM399 -281q0 74 50 117q47 45 114 45q66 0 115 -43t49 -119q0 -41 -16 -79l-129 -279l-156 57l51 162q-39 20 -55 55q-23 33 -23 84z" />
<glyph unicode="&#x237;" horiz-adv-x="581" d="M-289 -403l101 237q49 -27 92 -35q51 -10 98 -10q63 0 104 41t41 127v1087h293v-1087q0 -92 -26 -178q-31 -82 -82 -139q-49 -55 -131 -91q-74 -31 -176 -30q-92 0 -168 18q-72 18 -146 60z" />
<glyph unicode="&#x2c6;" horiz-adv-x="661" d="M8 1335v33l287 268h61l297 -268v-33l-139 -147l-190 153l-174 -153z" />
<glyph unicode="&#x2c7;" horiz-adv-x="661" d="M8 1466v33l137 148l191 -154l176 154l141 -148v-33l-286 -268h-62z" />
<glyph unicode="&#x2d8;" horiz-adv-x="860" d="M72 1548h225q0 -57 31 -92t90 -35q55 0 90 35q31 35 31 92h225q-2 -164 -100 -262q-94 -94 -246 -94q-74 0 -139 25q-61 20 -111 69q-45 45 -70 111q-27 66 -26 151z" />
<glyph unicode="&#x2d9;" horiz-adv-x="501" d="M70 1391q0 84 55 129q57 47 125 47q70 0 127 -47q53 -47 53 -129q0 -80 -53 -129q-57 -47 -127 -48q-33 0 -68 13q-31 10 -57 35q-29 29 -39 57q-16 27 -16 72z" />
<glyph unicode="&#x2da;" horiz-adv-x="606" d="M39 1432q0 53 18 96q18 41 56 82q35 33 84 53q43 20 106 20q59 0 107 -20q51 -23 82 -53q37 -37 53 -82q20 -41 20 -96q0 -53 -20 -101q-20 -49 -53 -78q-25 -31 -82 -55q-47 -20 -107 -20q-63 0 -106 20q-55 25 -84 55q-31 27 -56 78q-18 49 -18 101zM225.5 1431.5 q-0.5 -28.5 20.5 -55.5q27 -20 57.5 -20t56.5 20q20 27 20.5 55.5t-20.5 53.5q-26 22 -57 22t-57 -22q-20 -25 -20.5 -53.5z" />
<glyph unicode="&#x2db;" horiz-adv-x="495" d="M70 -164q0 74 41 127q35 53 100 84l164 -47q-35 -18 -56 -53q-14 -39 -14 -64q0 -51 31 -84q31 -31 94 -41l-35 -190q-162 6 -243.5 82t-81.5 186z" />
<glyph unicode="&#x2dc;" horiz-adv-x="890" d="M35 1368q41 80 108 127q66 47 154 47q51 0 82 -14q45 -20 65 -31l62 -31q29 -14 69 -14q43 0 78 18q35 16 58 46l145 -146q-39 -82 -102 -129q-61 -43 -150 -43q-49 0 -84 14q-41 16 -69 33q-41 20 -64 31q-31 14 -70 14q-90 0 -141 -63z" />
<glyph unicode="&#x2dd;" horiz-adv-x="638" d="M12 1247l160 445l234 -117l-160 -328h-234zM362 1247l191 393l227 -129l-168 -264h-250z" />
<glyph unicode="&#x3bc;" horiz-adv-x="1300" d="M139 -381v1425h293v-589q0 -223 193 -224q90 0 157 56q68 57 101 157v600h293v-1044h-234l-20 160q-41 -90 -115 -137q-76 -47 -166 -48q-139 0 -215 64v-420h-287z" />
<glyph unicode="&#x401;" d="M160 0v1372h1026v-276h-723v-258h645v-269h-645v-293h758v-276h-1061zM250 1698q0 43 14 74q16 35 39 55q25 25 57 37q31 12 64 12q72 0 125 -49q53 -47 53 -129q0 -76 -53 -125q-53 -47 -125 -47q-33 0 -64 12q-31 10 -57 35q-25 25 -39 57q-14 29 -14 68zM774 1698 q0 43 14 74q16 35 39 55q25 25 58 37q30 12 63 12q70 0 125 -49q51 -47 51 -129q0 -74 -51 -125q-57 -47 -125 -47q-33 0 -63 12q-31 10 -58 35q-23 25 -39 57q-14 29 -14 68z" />
<glyph unicode="&#x402;" horiz-adv-x="1798" d="M88 1094v278h1243v-278h-479v-273q133 121 326 121q102 0 194 -33q92 -37 154 -98q63 -61 98 -152q35 -94 35 -206v-355q0 -111 -37 -196q-35 -84 -96 -140q-61 -59 -144 -86q-86 -29 -174 -28q-90 0 -159 20q-74 20 -148 68l103 223q92 -43 184 -43q84 0 131 47 q45 47 45 137v340q0 113 -61.5 174.5t-169.5 61.5q-96 0 -166 -45q-74 -43 -115 -121v-510h-305v1094h-459z" />
<glyph unicode="&#x403;" horiz-adv-x="1273" d="M160 0v1372h1038v-278h-731v-1094h-307zM571 1556l195 449l256 -125l-176 -324h-275z" />
<glyph unicode="&#x404;" horiz-adv-x="1501" d="M98 682q0 152 54 276q47 125 147 230q96 96 238 155q139 57 317 58q317 0 530 -189l-172 -223q-143 131 -366 131q-162 0 -268 -76q-109 -78 -148 -204h547v-281h-555q33 -141 145 -225q109 -82 277 -82q229 0 393 158l174 -211q-233 -227 -588 -228q-164 0 -295 49 q-139 53 -229 144q-100 96 -147 225q-53 127 -54 293z" />
<glyph unicode="&#x405;" horiz-adv-x="1370" d="M94 129l129 252q115 -72 230 -102q113 -31 241 -31q133 0 203 41q66 41 66 110q0 61 -45 95q-47 35 -150 49l-211 26q-203 29 -311 125q-111 98 -111 285q0 106 41 180q37 78 111 133q76 55 172 80q98 29 225 29q168 0 305 -43q141 -45 244 -131l-152 -219 q-88 61 -182 90q-100 31 -209 30q-133 0 -192 -34q-57 -37 -58 -101q0 -59 43 -88q43 -31 138 -43l200 -26q227 -31 338 -140q111 -104 111 -280q0 -102 -39 -183q-41 -86 -113 -139q-74 -59 -188 -90q-106 -33 -254 -33q-166 0 -309 35q-141 35 -273 123z" />
<glyph unicode="&#x406;" horiz-adv-x="630" d="M160 0v1372h309v-1372h-309z" />
<glyph unicode="&#x407;" horiz-adv-x="630" d="M-80 1700q0 80 51 125q51 47 119 47q70 0 123 -47q49 -45 49 -125q0 -74 -49 -119q-53 -49 -123 -49t-119 49q-51 45 -51 119zM160 0v1372h309v-1372h-309zM373 1700q0 80 51 125q53 47 119 47q70 0 121 -47q51 -45 51 -125q0 -74 -51 -119q-49 -49 -121 -49 q-68 0 -119 49q-51 45 -51 119z" />
<glyph unicode="&#x408;" horiz-adv-x="1130" d="M66 90l133 242q63 -43 129 -62q70 -16 129 -16q98 0 153 61q53 59 54 189v868h307v-858q0 -264 -125 -403q-127 -139 -371 -140q-119 0 -215 25q-98 25 -194 94z" />
<glyph unicode="&#x409;" horiz-adv-x="2297" d="M25 18l69 265q43 -20 101 -21q45 0 71 17q29 12 51 53q33 53 45 110q12 51 27 158q8 121 10 221q2 84 2 295v256h1016v-422h256q123 0 221 -32q100 -31 172 -91q72 -63 111 -151q39 -84 39 -203q0 -109 -39 -194q-41 -88 -109 -148q-66 -59 -167 -98q-104 -33 -215 -33 h-576v1098h-401q0 -225 -4 -328q0 -106 -17 -274q-20 -139 -49 -222q-31 -94 -86 -165q-53 -66 -131 -101q-82 -33 -182 -33q-59 0 -117 11q-41 8 -98 32zM1417 274h248q244 0 244 201q0 102 -64 152q-63 51 -182 51h-246v-404z" />
<glyph unicode="&#x40a;" horiz-adv-x="2236" d="M160 0v1372h309v-536h580v536h309v-422h252q123 0 221 -32q100 -31 172 -91q76 -68 111 -151q41 -82 40 -203q0 -109 -38 -194q-39 -84 -109 -148q-68 -59 -168 -98q-104 -33 -217 -33h-573v551h-580v-551h-309zM1358 274h244q244 0 243 201q0 102 -63 152 q-63 51 -180 51h-244v-404z" />
<glyph unicode="&#x40b;" horiz-adv-x="1798" d="M88 1094v278h1243v-278h-479v-273q133 121 326 121q102 0 194 -33q92 -37 154 -98q63 -61 98 -152q35 -94 35 -206v-453h-295v440q0 113 -61.5 174.5t-169.5 61.5q-96 0 -166 -45q-74 -43 -115 -121v-510h-305v1094h-459z" />
<glyph unicode="&#x40c;" horiz-adv-x="1507" d="M160 0v1372h303v-522l149 16l387 506h379l-510 -641l559 -731h-395l-418 586h-151v-586h-303zM604 1556l195 449l256 -125l-176 -324h-275z" />
<glyph unicode="&#x40e;" horiz-adv-x="1495" d="M68 1372h372l338 -686h21l284 686h342l-538 -1134q-66 -137 -150 -201q-82 -66 -196 -66q-139 0 -250 47l69 261q29 -12 62 -19q31 -6 59 -6q104 0 131 76l17 41zM416 1878h229q0 -55 35 -90t88 -35t84 33q35 33 35 92h229q0 -76 -22 -143q-27 -70 -70 -113 q-49 -49 -111 -74q-59 -27 -145 -26q-88 0 -150 26q-63 25 -110 72q-43 43 -70 113q-23 68 -22 145z" />
<glyph unicode="&#x40f;" horiz-adv-x="1515" d="M160 0v1372h309v-1091h575v1091h310v-1372h-447l-16 -287h-266l-19 287h-446z" />
<glyph unicode="&#x410;" horiz-adv-x="1624" d="M78 0l563 1374h338l567 -1374h-340l-104 272h-588l-102 -272h-334zM614 543h387l-182 522h-20z" />
<glyph unicode="&#x411;" horiz-adv-x="1404" d="M160 0v1372h1028v-276h-723v-213h315q121 0 215 -27q98 -27 172 -82q66 -49 111 -135q39 -90 39 -195q0 -100 -39 -190q-45 -84 -113 -139q-70 -55 -170 -86q-102 -29 -215 -29h-620zM465 274h315q113 0 170 45q57 49 58 125q0 82 -58 125q-57 45 -162 45h-323v-340z" />
<glyph unicode="&#x412;" horiz-adv-x="1421" d="M160 0v1372h606q231 0 352 -100q125 -100 125 -275q0 -84 -35 -153q-37 -66 -98 -101v-18q102 -35 160 -119q61 -82 61 -196q0 -80 -28 -160q-31 -76 -95 -129q-59 -53 -157 -88q-92 -33 -228 -33h-663zM465 262h362q203 0 203 162q0 80 -53 117q-49 41 -152 41h-360 v-320zM465 831h313q78 0 123 37q43 41 43 105q0 137 -176 137h-303v-279z" />
<glyph unicode="&#x413;" horiz-adv-x="1273" d="M160 0v1372h1038v-278h-731v-1094h-307z" />
<glyph unicode="&#x414;" horiz-adv-x="1734" d="M90 190v84h57q43 0 86 31t72 96q55 123 80 318t25 430v223h1036v-1096h199v-83l-27 -480h-277l-12 287h-928l-16 -287h-279zM582 276h557v822h-426q-4 -291 -37 -498q-33 -201 -94 -324z" />
<glyph unicode="&#x415;" d="M160 0v1372h1026v-276h-723v-258h645v-269h-645v-293h758v-276h-1061z" />
<glyph unicode="&#x416;" horiz-adv-x="2220" d="M63 0l500 741l-444 631h373l315 -498l151 -12v510h304v-510l153 12l311 498h373l-440 -631l498 -741h-371l-363 592h-161v-592h-304v592h-159l-365 -592h-371z" />
<glyph unicode="&#x417;" horiz-adv-x="1366" d="M90 174l162 225q113 -88 211 -118q111 -35 235 -35q135 0 203 49q66 53 66 133q0 143 -187 143h-346v267h314q72 0 112.5 34.5t40.5 96.5q0 80 -53 116q-53 41 -178 41q-190 0 -361 -129l-159 211q117 100 247 146q131 47 291 47q121 0 219 -29q96 -29 164 -80t105 -121 q35 -76 34 -157q0 -88 -34 -158q-35 -72 -109 -113v-18q98 -33 154 -111q55 -80 55 -194q0 -98 -39 -178q-37 -82 -111 -142q-82 -63 -188 -94q-115 -35 -260 -35q-90 0 -170 13q-78 8 -152 34q-80 27 -137 64q-63 37 -129 92z" />
<glyph unicode="&#x418;" horiz-adv-x="1556" d="M160 0v1372h303v-913l663 913h271v-1372h-305v862l-631 -862h-301z" />
<glyph unicode="&#x419;" horiz-adv-x="1556" d="M160 0v1372h303v-913l663 913h271v-1372h-305v862l-631 -862h-301zM426 1878h229q0 -55 35 -90t88 -35q51 0 86 33q33 37 33 92h229q0 -80 -24 -143q-23 -68 -68 -113t-108 -74q-66 -27 -148 -26q-88 0 -149 26q-63 25 -111 72q-45 45 -67 113q-25 63 -25 145z" />
<glyph unicode="&#x41a;" horiz-adv-x="1507" d="M160 0v1372h303v-522l149 16l387 506h379l-510 -641l559 -731h-395l-418 586h-151v-586h-303z" />
<glyph unicode="&#x41b;" horiz-adv-x="1593" d="M25 18l69 265q33 -12 51 -17q37 -4 50 -4q45 0 71 17q29 12 51 53q31 51 45 110q12 55 27 160q8 117 10 219q2 84 2 295v256h1033v-1372h-308v1098h-417q0 -225 -4 -328q0 -106 -17 -274q-20 -139 -49 -222q-31 -94 -86 -165q-53 -66 -131 -101q-82 -33 -182 -33 q-59 0 -117 11q-41 8 -98 32z" />
<glyph unicode="&#x41c;" horiz-adv-x="1753" d="M160 0v1372h336l385 -622l381 622h329v-1372h-301v905h-18l-318 -522h-159l-318 522h-18v-905h-299z" />
<glyph unicode="&#x41d;" horiz-adv-x="1538" d="M160 0v1372h309v-536h600v536h309v-1372h-309v551h-600v-551h-309z" />
<glyph unicode="&#x41e;" horiz-adv-x="1652" d="M98 686q0 143 54 279q51 131 151 227q96 96 229 151q129 58 293 58q160 0 297 -53q137 -55 230 -152q96 -92 149 -225q53 -135 53 -285q0 -145 -53 -276q-49 -127 -149 -230q-96 -96 -230 -151q-133 -57 -297 -58q-158 0 -293 54q-133 55 -229 151q-100 96 -151 227 q-53 135 -54 283zM403 686q0 -88 29 -174q27 -80 84 -139q53 -55 133 -94q82 -33 176 -33q98 0 179 35q78 33 135 96q49 55 82 139q27 86 26 170q0 92 -28 174q-27 82 -84 141q-51 57 -131 93q-79 32 -179 32q-96 0 -178 -34q-78 -35 -131 -95q-57 -59 -84 -139 q-29 -82 -29 -172z" />
<glyph unicode="&#x41f;" horiz-adv-x="1521" d="M160 0v1372h1200v-1372h-309v1087h-582v-1087h-309z" />
<glyph unicode="&#x420;" horiz-adv-x="1415" d="M160 0v1372h610q123 0 223 -37q94 -31 174 -98q72 -68 111 -156q39 -90 39 -204q0 -119 -43 -213q-49 -98 -123 -156q-74 -68 -180 -98q-98 -35 -226 -35h-278v-375h-307zM467 647h278q123 0 193 61.5t70 166t-62 161.5q-66 61 -188 62h-291v-451z" />
<glyph unicode="&#x421;" horiz-adv-x="1501" d="M98 682q0 152 54 279q47 127 149 229q98 98 238 153q135 57 315 58q162 0 293 -49q131 -45 237 -140l-170 -223q-72 66 -165 96q-88 35 -207 35q-100 0 -183 -30q-82 -35 -137 -91q-57 -61 -88 -139q-31 -80 -31 -174q0 -98 31 -178q35 -84 90 -135q55 -55 138 -90 q80 -31 176 -31q109 0 219 39q109 47 180 117l174 -215q-233 -221 -590 -222q-162 0 -293 49q-133 53 -229 144q-98 102 -147 225q-53 135 -54 293z" />
<glyph unicode="&#x422;" horiz-adv-x="1419" d="M88 1094v278h1243v-278h-469v-1094h-305v1094h-469z" />
<glyph unicode="&#x423;" horiz-adv-x="1495" d="M68 1372h372l338 -686h21l284 686h342l-538 -1134q-66 -137 -150 -201q-82 -66 -196 -66q-139 0 -250 47l69 261q29 -12 62 -19q31 -6 59 -6q104 0 131 76l17 41z" />
<glyph unicode="&#x424;" horiz-adv-x="1847" d="M90 694q0 127 45 224q49 100 123 163q74 68 176 103q109 35 215 35h121v182h305v-182h121q129 0 225 -35q96 -29 181 -99q74 -68 114 -163q41 -98 41 -220q0 -127 -45 -223q-49 -100 -123 -164q-74 -68 -178 -102.5t-215 -34.5h-121v-178h-305v178h-121q-129 0 -227 35 q-98 29 -176 98q-74 68 -115 164q-41 98 -41 219zM395 696q0 -123 72 -186q70 -66 192 -66h111v510h-111q-129 0 -196.5 -69.5t-67.5 -188.5zM1075 442h111q129 0 196 70q68 72 68 188q0 121 -70 187q-76 66 -194 65h-111v-510z" />
<glyph unicode="&#x425;" horiz-adv-x="1558" d="M68 0l481 713l-438 659h383l282 -489h21l272 489h379l-438 -676l481 -696h-397l-308 528h-20l-303 -528h-395z" />
<glyph unicode="&#x426;" horiz-adv-x="1595" d="M160 0v1372h309v-1096h555v1096h309v-1096h183v-94l-25 -469h-277l-14 287h-1040z" />
<glyph unicode="&#x427;" horiz-adv-x="1472" d="M133 887v485h305v-452q0 -137 62 -209q63 -70 198 -70q88 0 168 23q78 25 140 67v641h307v-1372h-307v459q-145 -92 -359 -92q-115 0 -211 30q-90 29 -162 95q-70 70 -104 163q-37 98 -37 232z" />
<glyph unicode="&#x428;" horiz-adv-x="2074" d="M160 0v1372h305v-1098h420v1098h305v-1098h420v1098h305v-1372h-1755z" />
<glyph unicode="&#x429;" horiz-adv-x="2177" d="M160 0v1372h305v-1098h420v1098h305v-1098h420v1098h305v-1098h182v-92l-24 -469h-277l-14 287h-1622z" />
<glyph unicode="&#x42a;" horiz-adv-x="1552" d="M47 1108v264h615v-422h270q119 0 215 -32q100 -31 172 -91q76 -68 111 -151q41 -82 40 -203q0 -111 -40 -194q-37 -84 -109 -148q-66 -59 -166 -98q-104 -33 -211 -33h-590v1098zM662 274h258q244 0 243 201q0 102 -63 152q-63 51 -182 51h-256v-404z" />
<glyph unicode="&#x42b;" horiz-adv-x="1880" d="M160 0v1372h307v-422h258q123 0 221 -32q94 -29 172 -91q72 -63 109 -151q39 -84 39 -203q0 -109 -39 -194q-41 -88 -109 -148q-66 -59 -168 -98q-102 -33 -213 -33h-577zM467 274h248q244 0 243 201q0 102 -63 152q-63 51 -182 51h-246v-404zM1413 0v1372h307v-1372 h-307z" />
<glyph unicode="&#x42c;" horiz-adv-x="1368" d="M160 0v1372h307v-422h276q123 0 222 -32q100 -31 172 -91q72 -63 110 -151q39 -84 39 -203q0 -109 -39 -194q-41 -88 -108 -148q-66 -59 -168 -98q-104 -33 -215 -33h-596zM467 274h268q244 0 244 201q0 102 -64 152q-63 51 -182 51h-266v-404z" />
<glyph unicode="&#x42d;" horiz-adv-x="1488" d="M90 188l172 213q168 -150 391 -149q164 0 275 80q111 78 139 225h-506v279h506q-25 131 -129 208q-106 76 -266 76q-221 0 -369 -129l-170 219q115 98 250 144q141 47 293 47q162 0 291 -49q131 -47 227 -142q90 -88 145 -223q51 -133 52 -297q0 -156 -52 -284 q-53 -137 -147 -228q-92 -96 -229 -151q-131 -55 -299 -56q-176 0 -316 49q-137 49 -258 168z" />
<glyph unicode="&#x42e;" horiz-adv-x="2082" d="M162 0v1372h303v-549h160q23 137 80 234q51 98 143 184q94 78 203 119q117 41 247 41q160 0 279 -53q125 -47 217 -146q94 -96 141 -227q49 -129 50 -289q0 -154 -52 -283q-49 -131 -139 -227q-92 -96 -217 -151q-131 -53 -279 -54q-287 0 -460 156q-172 156 -213 432 h-160v-559h-303zM915 686q0 -100 27 -186q31 -84 78 -142q53 -59 123 -88q68 -31 155 -30q172 0 277 116q104 121 104 330q0 213 -102 328q-99 116 -279 116q-86 0 -155.5 -30.5t-120.5 -87.5q-49 -53 -80 -140q-27 -90 -27 -186z" />
<glyph unicode="&#x42f;" horiz-adv-x="1441" d="M68 0l352 477q-129 47 -207 158q-76 109 -76 256q0 111 39 194q37 88 111 154q70 63 172 98q104 35 223 35h600v-1372h-307v408h-258l-268 -408h-381zM446 887q0 -98 66 -154q68 -55 178 -55h285v418h-289q-113 0 -174 -56q-66 -53 -66 -153z" />
<glyph unicode="&#x430;" horiz-adv-x="1255" d="M74 324q0 82 35 147q33 63 100 107q53 37 151 65q102 20 201 21q72 0 115 -9q63 -10 100 -20v33q0 66 -47 106q-47 37 -145 37q-172 0 -338 -78l-115 213q117 68 221 94q119 29 234 29q127 0 217 -33q92 -35 147 -90q63 -63 86 -141q29 -78 29 -182v-316q0 -82 61 -82 q23 0 35 6l27 -231q-35 -12 -62 -16q-33 -6 -73 -7q-86 0 -146 37q-61 39 -76 125q-57 -84 -149 -125q-86 -39 -211 -39q-182 0 -291 91q-106 88 -106 258zM373 338q0 -51 37 -80q33 -31 112 -31q125 0 191 56q66 53 65 125v24q-100 23 -209 23q-104 0 -151 -33 q-45 -33 -45 -84z" />
<glyph unicode="&#x431;" horiz-adv-x="1333" d="M102 643q0 344 141.5 524.5t393.5 223.5l188 32q82 14 82 88q0 31 -8 50l242 38q27 -68 26 -157q0 -111 -69 -185q-76 -72 -183 -90l-245 -34q-131 -20 -209 -97q-78 -82 -96 -188h18q68 68 147 100q86 35 209 35q109 0 203 -35t156 -100q66 -59 104 -156q37 -94 37 -211 q0 -119 -45 -211q-47 -94 -123 -157q-80 -68 -182 -101q-102 -37 -221 -37q-137 0 -242 50q-106 45 -178 135q-74 92 -109 211q-37 123 -37 272zM389 559q4 -152 80 -244t201 -92t194 70q74 72 74 186q0 131 -67.5 201t-184.5 70q-106 0 -180 -54q-76 -49 -117 -137z" />
<glyph unicode="&#x432;" horiz-adv-x="1179" d="M139 0v1044h506q90 0 154 -20q66 -16 123 -53q53 -39 77 -90q29 -51 29 -117q0 -70 -29 -117q-31 -49 -81 -74v-12q78 -25 126 -86q45 -61 46 -151q0 -147 -107 -238q-111 -86 -326 -86h-518zM424 242h262q47 0 84 24q33 27 33 72q0 94 -121 94h-258v-190zM424 641h219 q37 0 70 23q27 23 26 59q0 39 -26 59q-29 25 -80 25h-209v-166z" />
<glyph unicode="&#x433;" horiz-adv-x="1071" d="M139 0v1044h846v-258h-553v-786h-293z" />
<glyph unicode="&#x434;" horiz-adv-x="1386" d="M59 176v72l64 4q49 2 90 51t61 129q35 119 41 268q10 131 11 344h848v-788h153v-70l-16 -426h-254l-17 240h-688l-30 -240h-246zM500 256h385v537h-297q0 -104 -6 -197q-8 -90 -25 -168q-10 -53 -25 -96q-14 -47 -32 -76z" />
<glyph unicode="&#x435;" horiz-adv-x="1257" d="M92 520q0 109 39 215q43 102 115 174q78 74 180 117q106 43 236 43q111 0 202 -37q92 -33 160 -100q68 -63 104 -158q37 -90 37 -203q0 -37 -6 -73q-2 -35 -12 -70h-762q14 -86 90 -141q70 -55 203 -56q195 0 340 99l125 -213q-102 -74 -223 -109q-113 -33 -258 -33 q-139 0 -244 39q-106 39 -178 111t-109 172q-39 98 -39 223zM393 643h473q-4 78 -55 127t-157.5 49t-170.5 -47q-61 -45 -90 -129z" />
<glyph unicode="&#x436;" horiz-adv-x="1845" d="M59 0l412 549l-387 495h352l269 -364l79 -4v368h287v-368l80 4l266 364h355l-388 -477l402 -567h-340l-289 432h-86v-432h-287v432h-86l-282 -432h-357z" />
<glyph unicode="&#x437;" horiz-adv-x="1163" d="M63 135l142 207q78 -59 164 -90q78 -27 172 -27q225 0 225 113q0 84 -113 84h-260v219h230q51 0 73 21q29 20 29 61q0 43 -37 72q-35 27 -135 26q-86 0 -166 -22q-72 -20 -147 -70l-123 199q102 74 207 106q111 35 237 35q104 0 184 -20q88 -20 144 -58q59 -41 92 -96 q33 -57 33 -133q0 -59 -29 -111q-29 -47 -78 -71v-17q68 -27 113 -88q39 -59 39 -139q0 -72 -29 -139q-29 -66 -92 -115q-63 -51 -160 -78q-102 -29 -237 -29q-139 0 -254 35q-111 33 -224 125z" />
<glyph unicode="&#x438;" horiz-adv-x="1292" d="M139 0v1044h291v-618l463 618h260v-1044h-291v606l-456 -606h-267z" />
<glyph unicode="&#x439;" horiz-adv-x="1292" d="M139 0v1044h291v-618l463 618h260v-1044h-291v606l-456 -606h-267zM291 1548h225q0 -57 31 -92t90 -35q57 0 88 35q33 33 33 92h225q-2 -160 -98 -262q-100 -94 -248 -94q-76 0 -139 25q-68 23 -109 69q-43 37 -74 111q-25 68 -24 151z" />
<glyph unicode="&#x43a;" horiz-adv-x="1261" d="M139 0v1044h293v-372l109 18l272 354h367l-398 -475l437 -569h-357l-313 426h-117v-426h-293z" />
<glyph unicode="&#x43b;" horiz-adv-x="1357" d="M31 18l55 238q16 -6 49 -14q10 0 26.5 -1t22.5 -1q41 0 66 24q23 23 39 62q25 59 41 190q14 117 14 322v206h873v-1044h-293v793h-301q0 -94 -2 -144q-4 -98 -9 -145q-4 -57 -16 -137q-10 -63 -25 -117q-41 -131 -118 -197q-78 -70 -215 -69q-68 0 -109 8q-49 6 -98 26z " />
<glyph unicode="&#x43c;" horiz-adv-x="1464" d="M139 0v1044h328l266 -436l273 436h319v-1044h-278v645h-19l-231 -362h-135l-228 362h-16v-645h-279z" />
<glyph unicode="&#x43d;" horiz-adv-x="1282" d="M139 0v1044h295v-389h412v389h295v-1044h-295v399h-412v-399h-295z" />
<glyph unicode="&#x43e;" horiz-adv-x="1327" d="M92 522q0 121 43 219q39 102 117 174q82 76 180 113q107 41 232 41q127 0 229 -39q106 -39 182 -112q76 -70 117 -173q43 -100 43 -223q0 -121 -43 -221q-41 -96 -119 -174q-86 -78 -182 -111q-100 -41 -227 -41q-129 0 -231.5 39t-180.5 111t-117 174q-43 98 -43 223z M383 522q0 -135 76 -211q78 -80 205 -80q131 0 204 80q74 76 74 211q0 131 -74 211q-77 78 -204 78q-131 0 -205 -80q-76 -78 -76 -209z" />
<glyph unicode="&#x43f;" horiz-adv-x="1277" d="M139 0v1044h998v-1044h-295v788h-408v-788h-295z" />
<glyph unicode="&#x440;" d="M139 -381v1425h236l22 -137q63 84 148 125q86 37 203 37q113 0 200 -37q98 -43 154 -110q63 -63 102 -168q35 -104 35 -222q0 -137 -45 -239q-47 -106 -121 -174q-80 -74 -176 -107q-102 -37 -209 -37q-76 0 -135 15q-66 14 -123 49v-420h-291zM430 305q53 -31 111 -49 q61 -18 127 -18q123 0 198 79q76 78 76 222q0 127 -63 198q-63 74 -179 74q-98 0 -168 -47q-68 -47 -102 -125v-334z" />
<glyph unicode="&#x441;" horiz-adv-x="1196" d="M92 520q0 119 43 219q41 96 119 174q82 76 180 115q104 41 223 41q145 0 246 -41q100 -35 191 -119l-164 -198q-100 94 -266 94q-57 0 -109 -19q-51 -23 -88 -57q-41 -33 -61 -86q-23 -55 -23 -115q0 -131 76 -209q74 -80 203 -79q84 0 155 30q68 27 121 80l170 -194 q-98 -98 -207 -140q-117 -41 -252 -41q-137 0 -239 43q-100 41 -177 117q-72 78 -106 172q-35 104 -35 213z" />
<glyph unicode="&#x442;" horiz-adv-x="1146" d="M76 786v258h995v-258h-350v-786h-293v786h-352z" />
<glyph unicode="&#x443;" horiz-adv-x="1355" d="M70 1044h344l299 -737h18l232 737h323l-467 -1153q-51 -131 -139 -208q-84 -76 -217 -76q-145 0 -236 65l82 219q31 -14 64 -20q31 -6 59 -6q100 0 129 80l17 41z" />
<glyph unicode="&#x444;" horiz-adv-x="1880" d="M90 526q0 127 43 232q45 102 117 168q72 70 172 106q94 37 203 37q98 0 178 -31v389h289v-426q88 68 221 68q229 0 358 -141q131 -139 131 -410q0 -127 -43 -231q-43 -100 -117 -170q-74 -72 -172 -105q-94 -37 -202 -37q-53 0 -97 7q-37 6 -79 22v-385h-289v422 q-90 -66 -223 -66q-227 0 -359 144q-131 139 -131 407zM383 524q0 -150 63 -221q66 -72 168 -72q61 0 109 19q49 23 80 59v477q-61 27 -148 27q-125 0 -198.5 -73.5t-73.5 -215.5zM1092 256q31 -10 67 -18q37 -6 80 -7q125 0 199 74q72 76 71 215q0 150 -63 221 q-61 72 -166 72q-63 0 -109 -18q-49 -23 -79 -60v-479z" />
<glyph unicode="&#x445;" horiz-adv-x="1372" d="M70 0l383 539l-359 505h377l205 -370h20l207 370h354l-350 -509l396 -535h-383l-238 391h-20l-218 -391h-374z" />
<glyph unicode="&#x446;" horiz-adv-x="1333" d="M139 0v1044h291v-790h404v790h290v-790h150v-80l-19 -414h-254l-14 240h-848z" />
<glyph unicode="&#x447;" horiz-adv-x="1216" d="M98 692v352h291v-325q0 -190 176 -191q63 0 123 17q53 18 96 49v450h291v-1044h-291v344q-57 -37 -125 -51q-72 -16 -149 -17q-193 0 -301 109q-111 111 -111 307z" />
<glyph unicode="&#x448;" horiz-adv-x="1757" d="M141 0v1044h285v-790h311v790h285v-790h311v790h285v-1044h-1477z" />
<glyph unicode="&#x449;" horiz-adv-x="1826" d="M141 0v1044h285v-790h311v790h285v-790h311v790h285v-790h149v-80l-18 -414h-254l-14 240h-1340z" />
<glyph unicode="&#x44a;" horiz-adv-x="1296" d="M47 793v251h549v-292q57 25 111 34q55 14 118 15q78 0 156 -23q74 -25 129 -73q53 -49 86 -123q31 -74 31 -172q0 -94 -35 -166q-29 -74 -94.5 -129.5t-155.5 -85.5q-92 -29 -207 -29h-430v793h-258zM596 254h141q96 0 148 41q47 41 47 117q0 145 -160 145q-53 0 -92 -8 q-45 -10 -84 -31v-264z" />
<glyph unicode="&#x44b;" horiz-adv-x="1617" d="M139 0v1044h293v-292q57 25 111 34q55 14 121 15q80 0 153 -23q74 -27 125 -73q55 -45 86 -121q31 -74 31 -174q0 -92 -33 -164q-35 -78 -96 -131q-63 -53 -152 -84q-90 -31 -207 -31h-432zM432 254h143q96 0 142 41q47 41 47 117q0 145 -156 145q-100 0 -176 -39v-264z M1182 0v1044h295v-1044h-295z" />
<glyph unicode="&#x44c;" horiz-adv-x="1150" d="M139 0v1044h293v-294q104 51 236 51q78 0 157 -23q74 -23 133 -73q51 -43 91 -121q33 -78 32 -174q0 -88 -34 -168q-35 -76 -101 -127q-59 -53 -155 -86q-92 -29 -205 -29h-447zM432 254h156q98 0 149 41q49 43 49 117q0 145 -168 145q-100 0 -186 -41v-262z" />
<glyph unicode="&#x44d;" horiz-adv-x="1193" d="M86 160l162 188q121 -115 293 -115q106 0 176 50q70 49 86 141h-348v217h340q-16 84 -82 125q-59 47 -168 47q-150 0 -273 -104l-159 196q174 164 432 164q135 0 239 -43q109 -45 174 -117q72 -72 107 -172q37 -102 37 -213q0 -119 -41 -225q-45 -104 -117 -172 q-72 -72 -176 -113q-98 -39 -223 -39q-143 0 -254 43q-109 45 -205 142z" />
<glyph unicode="&#x44e;" horiz-adv-x="1718" d="M127 0v1044h291v-389h114q20 90 68 166q45 76 116.5 131.5t155.5 85.5q90 31 191 31q127 0 229 -39q104 -39 178 -110q78 -72 117 -175q41 -100 41 -225q0 -117 -41 -221q-39 -98 -117 -172q-78 -76 -178 -111q-100 -41 -229 -41q-117 0 -203 33q-96 35 -160 90 q-68 57 -110 135q-45 82 -60 173h-112v-406h-291zM788 524q0 -137 76 -215q78 -80 199 -80t199 80q74 80 73 215q0 131 -71 213q-72 78 -201 78q-117 0 -199 -78q-76 -82 -76 -213z" />
<glyph unicode="&#x44f;" horiz-adv-x="1226" d="M66 0l286 346q-100 35 -155 121q-59 80 -60 192q0 186 133 287q129 98 361 98h448v-1044h-293v328q-74 -31 -159 -37l-213 -291h-348zM430 651.5q0 -67.5 47 -102.5q47 -37 135 -37q96 0 174 41v240h-165q-92 0 -141.5 -37t-49.5 -104.5z" />
<glyph unicode="&#x451;" horiz-adv-x="1257" d="M92 520q0 109 39 215q43 102 115 174q78 74 180 117q106 43 236 43q111 0 202 -37q92 -33 160 -100q68 -63 104 -158q37 -90 37 -203q0 -37 -6 -73q-2 -35 -12 -70h-762q14 -86 90 -141q70 -55 203 -56q195 0 340 99l125 -213q-102 -74 -223 -109q-113 -33 -258 -33 q-139 0 -244 39q-106 39 -178 111t-109 172q-39 98 -39 223zM258 1360q0 74 49 121q52 45 115 45q68 0 115 -45q51 -45 51 -121q0 -70 -51 -119q-51 -45 -115 -45q-31 0 -62 12q-23 10 -53 33q-25 27 -37 53q-12 29 -12 66zM393 643h473q-4 78 -55 127t-157.5 49t-170.5 -47 q-61 -45 -90 -129zM733 1360q0 74 49 121q52 45 115 45q68 0 115 -45q51 -45 51 -121q0 -70 -51 -119q-51 -45 -115 -45q-31 0 -61 12q-23 10 -54 33q-25 27 -37 53q-12 29 -12 66z" />
<glyph unicode="&#x452;" horiz-adv-x="1359" d="M25 1147v235h151l19 117h268v-117h295v-235h-295v-221q51 68 131 106q74 37 186 37q209 0 322 -119q117 -117 117 -344v-545q0 -104 -31 -180q-31 -82 -86 -133q-55 -55 -127 -82q-80 -29 -164 -28q-82 0 -145 18q-57 14 -134 63l109 224q33 -20 70 -31q31 -8 80 -8 q68 0 102.5 41t34.5 112v525q0 111 -51 172q-55 57 -148 57q-90 0 -162 -53q-70 -51 -104 -156v-602h-293v1147h-145z" />
<glyph unicode="&#x453;" horiz-adv-x="1071" d="M139 0v1044h846v-258h-553v-786h-293zM465 1247l197 432l237 -143l-176 -289h-258z" />
<glyph unicode="&#x454;" horiz-adv-x="1196" d="M92 520q0 119 43 219q41 96 119 174q82 76 180 115q104 41 223 41q137 0 248 -41q104 -39 189 -121l-168 -198q-59 53 -115 73q-59 29 -147.5 29t-160 -45t-97.5 -121h364v-219h-373q25 -90 95 -141q66 -51 170 -52q84 0 157 29q66 29 121 84l168 -190q-98 -98 -207 -140 q-113 -41 -252 -41q-137 0 -239 43q-100 41 -177 117q-72 78 -106 172q-35 104 -35 213z" />
<glyph unicode="&#x455;" horiz-adv-x="1181" d="M90 102l111 217q98 -55 184 -75q96 -23 190 -23q113 0 170 21q53 25 54 65q0 35 -27 53q-31 16 -86 23l-235 27q-152 14 -240 94q-86 78 -86 223q0 156 121 248q121 94 348 94q262 0 448 -111l-116 -219q-150 82 -336 82q-178 0 -178 -82q0 -59 94 -71l199 -23 q176 -20 278 -96q100 -74 100 -225q0 -166 -137 -258q-137 -90 -377 -91q-143 0 -250 29q-109 25 -229 98z" />
<glyph unicode="&#x456;" horiz-adv-x="575" d="M106 1391q0 84 56 129q57 47 125 47q70 0 127 -47q53 -47 53 -129q0 -80 -53 -129q-57 -47 -127 -48q-33 0 -68 13q-31 10 -57 35q-29 29 -39 57q-16 27 -17 72zM139 0v1044h295v-1044h-295z" />
<glyph unicode="&#x457;" horiz-adv-x="575" d="M-70 1366q0 72 50 117q45 43 108 43q68 0 113 -43q47 -47 47 -117q0 -68 -47 -115q-45 -45 -113 -45q-63 0 -108 45q-49 47 -50 115zM139 0v1044h297v-1044h-297zM334 1366q0 70 47 117q50 43 111 43q66 0 112 -43q47 -47 47 -117t-47 -117q-47 -43 -112 -43 q-61 0 -111 43q-47 47 -47 117z" />
<glyph unicode="&#x458;" horiz-adv-x="581" d="M-289 -403l101 237q49 -27 92 -35q51 -10 98 -10q63 0 104 41t41 127v1087h293v-1087q0 -92 -26 -178q-31 -82 -82 -139q-49 -55 -131 -91q-74 -31 -176 -30q-92 0 -168 18q-72 18 -146 60zM113 1391q0 84 55 129q53 47 125 47t125 -47q55 -45 55 -129q0 -80 -55 -129 q-53 -47 -125 -47.5t-125 47.5q-55 49 -55 129z" />
<glyph unicode="&#x459;" horiz-adv-x="1908" d="M31 18l55 238q16 -6 49 -14q10 0 26.5 -1t22.5 -1q41 0 66 24q23 23 39 62q25 61 41 194q14 115 14 324v200h862v-294q96 51 219 51q80 0 160 -23q72 -25 131 -73q55 -43 90 -121q33 -72 33 -174q0 -88 -35 -168q-35 -76 -100 -127q-59 -53 -156 -86q-92 -29 -205 -29 h-430v793h-290q0 -94 -2 -144q-4 -98 -9 -145q-4 -57 -16 -137q-10 -63 -25 -117q-41 -131 -118 -197q-78 -70 -215 -69q-68 0 -109 8q-49 6 -98 26zM1206 254h140q98 0 149 41q49 43 49 117q0 145 -168 145q-92 0 -170 -41v-262z" />
<glyph unicode="&#x45a;" horiz-adv-x="1839" d="M139 0v1044h295v-387h408v387h293v-294q94 51 219 51q80 0 157 -23q74 -23 134 -73q55 -43 90 -121q33 -72 32 -174q0 -96 -34 -168q-31 -76 -99 -127q-59 -53 -155 -86q-96 -29 -207 -29h-430v403h-408v-403h-295zM1135 254h141q96 0 147 41q49 43 50 117 q0 145 -166 145q-94 0 -172 -41v-262z" />
<glyph unicode="&#x45b;" horiz-adv-x="1359" d="M25 1147v235h151l19 117h268v-117h295v-235h-295v-221q51 68 131 106q74 37 186 37q209 0 322 -119q117 -117 117 -344v-606h-291v582q0 111 -51 172q-55 57 -148 57q-90 0 -162 -53q-70 -51 -104 -156v-602h-293v1147h-145z" />
<glyph unicode="&#x45c;" horiz-adv-x="1261" d="M139 0v1044h293v-372l109 18l272 354h367l-398 -475l437 -569h-357l-313 426h-117v-426h-293zM518 1247l197 432l237 -143l-176 -289h-258z" />
<glyph unicode="&#x45e;" horiz-adv-x="1355" d="M70 1044h344l299 -737h18l232 737h323l-467 -1153q-51 -131 -139 -208q-84 -76 -217 -76q-145 0 -236 65l82 219q31 -14 64 -20q31 -6 59 -6q100 0 129 80l17 41zM354 1548h226q0 -57 30 -92q31 -35 90 -35q55 0 91 35q31 35 30 92h226q-2 -164 -101 -262 q-94 -94 -246 -94q-74 0 -139 25q-61 20 -110 69q-45 45 -70 111q-27 66 -27 151z" />
<glyph unicode="&#x45f;" horiz-adv-x="1282" d="M139 0v1044h295v-790h414v790h295v-1044h-357l-16 -240h-260l-16 240h-355z" />
<glyph unicode="&#x490;" horiz-adv-x="1273" d="M160 0v1372h739l33 301h266v-579h-731v-1094h-307z" />
<glyph unicode="&#x491;" horiz-adv-x="1058" d="M139 0v1044h563l29 242h248v-500h-547v-786h-293z" />
<glyph unicode="&#x2000;" horiz-adv-x="1018" />
<glyph unicode="&#x2001;" horiz-adv-x="2036" />
<glyph unicode="&#x2002;" horiz-adv-x="1018" />
<glyph unicode="&#x2003;" horiz-adv-x="2036" />
<glyph unicode="&#x2004;" horiz-adv-x="678" />
<glyph unicode="&#x2005;" horiz-adv-x="509" />
<glyph unicode="&#x2006;" horiz-adv-x="339" />
<glyph unicode="&#x2007;" horiz-adv-x="339" />
<glyph unicode="&#x2008;" horiz-adv-x="254" />
<glyph unicode="&#x2009;" horiz-adv-x="407" />
<glyph unicode="&#x200a;" horiz-adv-x="113" />
<glyph unicode="&#x2010;" horiz-adv-x="860" d="M119 432v260h622v-260h-622z" />
<glyph unicode="&#x2011;" horiz-adv-x="860" d="M119 432v260h622v-260h-622z" />
<glyph unicode="&#x2012;" horiz-adv-x="860" d="M119 432v260h622v-260h-622z" />
<glyph unicode="&#x2013;" horiz-adv-x="1343" d="M184 432v260h975v-260h-975z" />
<glyph unicode="&#x2014;" horiz-adv-x="2076" d="M322 432v260h1433v-260h-1433z" />
<glyph unicode="&#x2018;" horiz-adv-x="477" d="M78 1044q0 51 16 101l105 274l166 -39l-39 -194q33 -14 55 -51q20 -35 20 -91q0 -74 -49 -116.5t-114.5 -42.5t-112.5 43q-47 41 -47 116z" />
<glyph unicode="&#x2019;" horiz-adv-x="477" d="M76 1231q0 74 49 117t115 43q68 0 112 -43q47 -41 47 -117q0 -51 -16 -101l-104 -274l-166 39l39 195q-33 14 -56 53q-20 33 -20 88z" />
<glyph unicode="&#x201a;" horiz-adv-x="477" d="M76 123q0 74 49 117t114.5 43t112.5 -41q47 -43 47 -119q0 -51 -16 -100l-104 -275l-166 39l39 195q-33 14 -56 51q-20 35 -20 90z" />
<glyph unicode="&#x201c;" horiz-adv-x="819" d="M57 1044q0 59 19 103l110 289l176 -50l-51 -200q70 -39 70 -142q0 -74 -49 -116.5t-115 -42.5q-68 0 -113 43q-47 43 -47 116zM440 1044q0 59 19 103l96 239l160 -40l-29 -160q35 -16 57 -51q20 -35 21 -91q0 -74 -47 -116q-49 -43 -114.5 -43t-113.5 43q-49 39 -49 116z " />
<glyph unicode="&#x201d;" horiz-adv-x="819" d="M55 1231q0 74 47 117q49 43 115 43t115 -43q47 -41 47 -117q0 -59 -19 -103l-96 -239l-160 41l29 160q-37 16 -55 53q-23 31 -23 88zM438 1231q0 74 49.5 117t115 43t114.5 -43q45 -45 45 -117q0 -59 -19 -103l-110 -288l-176 49l51 201q-70 39 -70 141z" />
<glyph unicode="&#x201e;" horiz-adv-x="819" d="M55 123q0 74 47 117q49 43 115 43q63 0 115 -41q47 -43 47 -119q0 -59 -19 -103l-96 -239l-160 41l29 160q-37 16 -55 51q-23 33 -23 90zM438 123q0 74 49.5 117t115 43t114.5 -43q45 -45 45 -117q0 -59 -19 -103l-110 -288l-176 49l51 201q-70 39 -70 141z" />
<glyph unicode="&#x2020;" horiz-adv-x="950" d="M100 801v254h250l-16 270h282l-18 -270h252v-254l-252 16l18 -817h-284l18 817z" />
<glyph unicode="&#x2021;" horiz-adv-x="950" d="M100 395v248h250v178l-250 -14v248h250l-16 270h282l-18 -270h252v-248l-252 14v-178h252v-248l-254 15l20 -410h-284l20 410z" />
<glyph unicode="&#x2022;" horiz-adv-x="681" d="M147 692q0 88 58 142q59 51 137 51t135.5 -51.5t57.5 -141.5q0 -41 -17 -78q-14 -33 -43 -61q-29 -25 -61 -37q-31 -14 -72 -14t-72 14q-35 12 -63 37q-27 29 -43 61q-16 37 -17 78z" />
<glyph unicode="&#x2026;" horiz-adv-x="1429" d="M96 154q0 76 51 120q54 48 119.5 48t116.5 -45.5t51 -122.5q0 -76 -51 -121t-117 -45q-33 0 -63 12q-25 10 -56 33q-25 27 -36 53q-14 29 -15 68zM545 154q0 80 53 120q47 48 117 48q66 0 117 -45.5t51 -122.5q0 -76 -51.5 -121t-116.5 -45q-33 0 -64 12q-29 10 -53 33 q-25 25 -39 53.5t-14 67.5zM993 154q0 76 51 120q54 48 119.5 48t116.5 -45.5t51 -122.5q0 -76 -51 -121t-117 -45q-33 0 -63 12q-25 10 -56 33q-25 27 -36 53q-14 29 -15 68z" />
<glyph unicode="&#x202f;" horiz-adv-x="407" />
<glyph unicode="&#x2030;" horiz-adv-x="2433" d="M80 997q0 72 26 131q29 66 74 107q39 41 109 72q63 24 139 24t139 -24q68 -29 111 -72q47 -47 73.5 -106.5t26.5 -131.5q0 -74 -26 -133q-27 -57 -74 -104q-43 -43 -111 -72q-63 -25 -139 -24q-74 0 -141 24q-66 29 -111 72q-47 49 -70 104q-27 59 -26 133zM250 88 l989 1229l176 -141l-985 -1231zM315 997q0 -49 33 -79q31 -31 80 -31t80 31q33 27 33 80t-33 79q-31 31 -80 31q-47 0 -80 -31t-33 -80zM920 297q0 72 26.5 131t73.5 107q43 43 110 71q66 25 139.5 25t139.5 -25q63 -27 111 -71q45 -49 71 -107q27 -59 27 -131 q0 -74 -27 -133q-27 -55 -71 -105q-47 -45 -111 -71q-66 -25 -139 -25q-78 0 -140 25q-72 29 -110 71q-43 41 -74 105q-27 59 -26 133zM1157 297q0 -49 31 -80q33 -31 82 -31t82 31q31 31 30 80q0 51 -30 80q-33 31 -82 31t-82 -31q-31 -29 -31 -80zM1686 297q0 72 26 131 q29 66 74 107q39 41 108 71q64 25 139.5 25t139.5 -25q68 -29 111 -71q47 -47 73.5 -106.5t26.5 -131.5q0 -74 -27 -133q-27 -57 -73 -105q-43 -43 -111 -71q-63 -25 -139 -25q-74 0 -142 25q-66 29 -110 71q-47 49 -70 105q-27 59 -26 133zM1921 297q0 -49 33 -80 q31 -31 80 -31t80 31q33 31 32 80q0 53 -32 80q-31 31 -80 31q-47 0 -80 -31q-33 -27 -33 -80z" />
<glyph unicode="&#x2039;" horiz-adv-x="708" d="M72 494v75l368 369l183 -164l-215 -237l215 -238l-183 -176z" />
<glyph unicode="&#x203a;" horiz-adv-x="706" d="M84 287l215 237l-215 238l182 176l369 -371v-75l-369 -369z" />
<glyph unicode="&#x205f;" horiz-adv-x="509" />
<glyph unicode="&#x20ac;" horiz-adv-x="1486" d="M80 401v220h842l-23 -226l-332 -12q47 -66 125 -100q80 -37 185 -37q111 0 198 37q92 41 166 114l174 -204q-115 -111 -248 -166q-135 -55 -309 -56q-242 0 -407 111q-168 106 -240 305zM80 715v217l141 14q37 90 98 166q59 74 146 131q84 55 190 86q104 31 232 31 q147 0 276 -45q129 -49 228 -137l-172 -217q-68 61 -152 96q-84 31 -188.5 30.5t-186.5 -34.5q-80 -37 -127 -103l391 -12l-26 -223h-850z" />
<glyph unicode="&#x20b6;" horiz-adv-x="1374" d="M49 176v213h158v100h-158v242h158v604h588q117 0 209 -30q96 -33 155 -88q66 -53 100.5 -135.5t34.5 -176.5q0 -193 -135 -303q-131 -113 -371 -113h-280v-100h362v-229h-364v-160h-297v164zM508 731h283q98 0 151 45q51 47 51 121t-51 119q-47 45 -147 45h-287v-330z " />
<glyph unicode="&#x2116;" horiz-adv-x="2316" d="M162 0v1333h280l672 -872v872h293v-1333h-293l-657 854v-854h-295zM1577 802.5q0 63.5 25 119.5q20 53 65 98q39 39 98 65q64 23 131.5 23t128.5 -23q59 -25 101 -65q45 -45 65 -98q25 -55 25 -119t-25 -119q-20 -53 -65 -98q-41 -41 -101 -66q-61 -23 -128.5 -22.5 t-131.5 22.5q-59 27 -98 66q-45 45 -65 98q-25 55 -25 118.5zM1599 170v238h599v-238h-599zM1804 802.5q0 -40.5 27 -65t65 -24.5q37 0 66 24q27 25 27 66t-27 65.5t-66 24.5q-37 0 -65 -25q-27 -25 -27 -65.5z" />
<glyph unicode="&#x2122;" horiz-adv-x="1429" d="M47 1178v196h778l150 -182l139 182h211v-608h-195v340l-139 -168h-49l-131 170v-342h-197v412h-180v-412h-196v412h-191z" />
<glyph unicode="&#x2212;" horiz-adv-x="1003" d="M119 565v260h766v-260h-766z" />
<glyph unicode="&#x2248;" horiz-adv-x="1001" d="M92 489q39 80 105 134q70 47 157 47q51 0 80 -15q35 -14 66 -32l61 -31q27 -14 66 -14q90 0 135 69l147 -143q-37 -84 -102 -135q-72 -45 -156 -45q-51 0 -82 14q-45 20 -65.5 32.5t-61.5 32.5q-29 14 -67 15q-49 0 -82 -21q-39 -20 -57 -51zM92 895q39 80 105 133 q70 47 157 47q51 0 80 -14q35 -14 66 -33l61 -31q27 -14 66 -14q90 0 135 70l147 -144q-37 -84 -102 -135q-72 -45 -156 -45q-51 0 -82 14q-45 20 -65.5 32.5t-61.5 33.5q-29 14 -67 14q-49 0 -82 -20q-39 -20 -57 -51z" />
<glyph unicode="&#x2260;" horiz-adv-x="1015" d="M121 377v248h239l41 151h-280v248h348l45 168l242 -66l-29 -102h168v-248h-233l-44 -151h277v-248h-342l-45 -166l-242 70l27 96h-172z" />
<glyph unicode="&#x2264;" horiz-adv-x="897" d="M80 410v57l117 158l497 -371l-149 -201zM127 797v96l535 403l155 -198l-321 -246l321 -250l-153 -199z" />
<glyph unicode="&#x2265;" horiz-adv-x="897" d="M80 602l321 246l-321 248l156 200l534 -403v-96l-537 -394zM203 254l497 371l117 -158v-57l-465 -357z" />
<glyph unicode="&#x25fc;" horiz-adv-x="1044" d="M0 0v1044h1044v-1044h-1044z" />
<glyph horiz-adv-x="632" d="M-143 1511l227 129l190 -393h-249zM231 1575l234 117l160 -445h-234z" />
<glyph horiz-adv-x="464" d="M68 -281q0 74 49 117q47 45 114 45q66 0 115 -43t49 -119q0 -41 -16 -79l-129 -279l-156 57l51 162q-39 20 -55 55q-23 33 -22 84z" />
<glyph horiz-adv-x="1173" d="M68 711q0 72 26 137q31 66 78 106q47 43 113 66q66 25 139 24h39l43 109l149 -12v-1157l33 34q25 20 37 66q14 41 14 96v1055l154 18l59 -200l121 10l41 -184l-151 -54v-555q0 -156 -56 -280q-57 -129 -205 -226l-342 -229l-122 172l196 154v563q-39 -20 -88 -21 q-125 0 -201 80q-78 82 -77 228zM299 715q0 -43 25 -68q27 -27 59 -26q25 0 51 10v188h-28q-49 0 -78 -28q-29 -33 -29 -76z" />
<glyph horiz-adv-x="831" d="M55 1366q0 70 47 117q50 43 111 43q66 0 113 -43q47 -47 47 -117q0 -68 -47 -115q-45 -45 -113 -45q-63 0 -111 45q-47 47 -47 115zM459 1366q0 72 49 117q45 43 108 43q68 0 113 -43q47 -47 47 -117t-47 -117q-45 -43 -113 -43q-63 0 -108 43q-49 45 -49 117z" />
<glyph horiz-adv-x="649" d="M39 1251v250h571v-250h-571z" />
<glyph horiz-adv-x="823" d="M14 1700q0 80 52 125q50 47 118 47q70 0 123 -47q49 -45 49 -125q0 -74 -49 -119q-53 -49 -123 -49t-118 49q-51 45 -52 119zM467 1700q0 80 51 125q53 47 119 47q70 0 121 -47q51 -45 51 -125q0 -74 -51 -119q-49 -49 -121 -49q-68 0 -119 49q-51 45 -51 119z" />
<glyph horiz-adv-x="808" d="M66 1575v258h677v-258h-677z" />
<glyph horiz-adv-x="301" d="M0 1556l195 449l256 -125l-177 -324h-274z" />
<glyph horiz-adv-x="747" d="M31 1878h229q0 -55 35 -90t88 -35t84 33q35 33 35 92h229q0 -76 -22 -143q-27 -70 -70 -113q-49 -49 -111 -74q-59 -27 -145 -26q-88 0 -150 26q-63 25 -110 72q-43 43 -70 113q-23 68 -22 145z" />
<glyph horiz-adv-x="696" d="M18 1769v27l146 152l184 -152l182 152l148 -152v-27l-303 -274h-53z" />
<glyph horiz-adv-x="526" d="M43 -500q86 29 137 70q51 45 51 98q0 45 -41 68q-39 20 -110 20v49l47 113v123h246l-17 -141q63 -27 95 -80q35 -51 34 -127q0 -131 -92 -234q-88 -96 -272 -143z" />
<glyph horiz-adv-x="464" d="M66 -285q0 76 49 121q47 45 114 45q66 0 119 -43q49 -43 49 -121q0 -14 -4 -43q-6 -25 -14 -36l-129 -281l-158 57l51 162q-33 18 -57 55q-20 41 -20 84z" />
<glyph horiz-adv-x="696" d="M18 1645v28l304 275h53l303 -275v-28l-146 -150l-184 150l-182 -150z" />
<glyph horiz-adv-x="923" d="M25 1698q0 43 14 74q16 35 39 55q25 25 57 37q31 12 64 12q74 0 125 -49q53 -47 53 -129q0 -76 -53 -125q-53 -47 -125 -47q-33 0 -64 12q-31 10 -57 35q-25 25 -39 57q-14 29 -14 68zM549 1698q0 43 14 74q16 35 39 55q25 25 57 37q31 12 64 12q70 0 125 -49 q51 -47 51 -129q0 -74 -51 -125q-57 -47 -125 -47q-33 0 -64 12q-31 10 -57 35q-25 25 -39 57q-14 29 -14 68z" />
<glyph horiz-adv-x="700" d="M170 1714q0 80 55 129q51 49 125 49q72 0 125 -49t53 -129q0 -76 -53 -129q-51 -49 -125 -49q-72 0 -125 49q-55 53 -55 129z" />
<glyph horiz-adv-x="604" d="M14 1556l140 457l245 -96l-141 -361h-244zM344 1556l191 410l237 -127l-188 -283h-240z" />
<glyph horiz-adv-x="301" d="M-156 1880l256 125l193 -449h-275z" />
<glyph horiz-adv-x="593" d="M-137 1839l237 127l191 -410h-240zM236 1917l245 96l140 -457h-244z" />
<glyph horiz-adv-x="958" d="M59 1577v256h840v-256h-840z" />
<glyph horiz-adv-x="495" d="M66 -162q0 86 40 150q39 63 119 98l156 -86q-37 -16 -53 -45q-18 -33 -19 -68q0 -51 31 -85.5t98 -43.5l-35 -200q-166 8 -251 86q-86 78 -86 194z" />
<glyph horiz-adv-x="593" d="M16.5 1753q-0.5 57 20.5 105q23 53 57 84q41 41 88 57q47 22 115 22t113 -22q49 -16 90 -57q35 -31 57 -84q20 -47 20.5 -104.5t-20.5 -104.5q-23 -51 -57.5 -86t-89.5 -60q-55 -20 -113 -20q-55 0 -117 20q-57 29 -88 60q-37 37 -55 86q-20 47 -20.5 104zM225 1753 q0 -31 21 -49q18 -20 51 -21q31 0 51 21q18 18 19 49q0 29 -19 49q-20 21 -51 21q-33 0 -51 -21q-20 -20 -21 -49z" />
<glyph horiz-adv-x="870" d="M6 1692q41 86 109 133q68 49 157 49q47 0 90 -16q39 -14 72 -35q49 -29 66 -37q37 -16 69 -17q92 0 142 68l153 -145q-39 -88 -104 -131q-66 -47 -152 -48q-51 0 -96 17q-37 14 -74 37q-29 20 -65.5 36.5t-71.5 16.5q-51 0 -88 -18q-39 -25 -57 -52z" />
<glyph horiz-adv-x="761" d="M25 1366q35 80 92 125q59 47 129 47q47 0 78 -12l53 -27q10 -8 45 -29q20 -12 57 -12q35 0 62 15q29 16 43 40l141 -143q-33 -76 -88 -121q-53 -45 -127 -45q-47 0 -76 13q-37 14 -55 28q-23 12 -47 29q-25 12 -58 12q-72 0 -104 -57z" />
<glyph horiz-adv-x="794" d="M16 1720q78 154 228 154q43 0 78 -14q8 -4 26.5 -15.5t28.5 -17.5l51 -33q23 -16 61 -16q68 0 109 43l133 -158q-76 -147 -221 -147q-53 0 -84 16q-20 8 -57 33q-33 25 -50 32q-23 16 -61 17q-74 0 -113 -49z" />
<glyph horiz-adv-x="1624" d="M78 0l563 1374h338l567 -1374h-340l-104 272h-588l-102 -272h-334zM481 1645v28l303 275h54l303 -275v-28l-146 -150l-184 150l-182 -150zM614 543h387l-182 522h-20z" />
<glyph horiz-adv-x="1255" d="M74 324q0 82 35 147q33 63 100 107q53 37 151 65q102 20 201 21q72 0 115 -9q63 -10 100 -20v33q0 66 -47 106q-47 37 -145 37q-172 0 -338 -78l-115 213q117 68 221 94q119 29 234 29q127 0 217 -33q92 -35 147 -90q63 -63 86 -141q29 -78 29 -182v-316q0 -82 61 -82 q23 0 35 6l27 -231q-35 -12 -62 -16q-33 -6 -73 -7q-86 0 -146 37q-61 39 -76 125q-57 -84 -149 -125q-86 -39 -211 -39q-182 0 -291 91q-106 88 -106 258zM279 1335v33l286 268h62l297 -268v-33l-140 -147l-190 153l-174 -153zM373 338q0 -51 37 -80q33 -31 112 -31 q125 0 191 56q66 53 65 125v24q-100 23 -209 23q-104 0 -151 -33q-45 -33 -45 -84z" />
<glyph d="M160 0v1372h1026v-276h-723v-258h645v-269h-645v-293h758v-276h-1061zM360 1645v28l304 275h53l303 -275v-28l-146 -150l-184 150l-182 -150z" />
<glyph horiz-adv-x="1257" d="M92 520q0 109 39 215q43 102 115 174q78 74 180 117q106 43 236 43q111 0 202 -37q92 -33 160 -100q68 -63 104 -158q37 -90 37 -203q0 -37 -6 -73q-2 -35 -12 -70h-762q14 -86 90 -141q70 -55 203 -56q195 0 340 99l125 -213q-102 -74 -223 -109q-113 -33 -258 -33 q-139 0 -244 39q-106 39 -178 111t-109 172q-39 98 -39 223zM340 1335v33l287 268h61l297 -268v-33l-139 -147l-191 153l-174 -153zM393 643h473q-4 78 -55 127t-157.5 49t-170.5 -47q-61 -45 -90 -129z" />
<glyph horiz-adv-x="630" d="M-12 1645v28l303 275h53l303 -275v-28l-145 -150l-185 150l-182 -150zM160 0v1372h309v-1372h-309z" />
<glyph horiz-adv-x="575" d="M-31 1335v33l287 268h61l297 -268v-33l-139 -147l-190 153l-174 -153zM139 0v1044h297v-1044h-297z" />
<glyph horiz-adv-x="1652" d="M98 686q0 143 54 279q51 131 151 227q96 96 229 151q129 58 293 58q160 0 297 -53q137 -55 230 -152q96 -92 149 -225q53 -135 53 -285q0 -145 -53 -276q-49 -127 -149 -230q-96 -96 -230 -151q-133 -57 -297 -58q-158 0 -293 54q-133 55 -229 151q-100 96 -151 227 q-53 135 -54 283zM403 686q0 -88 29 -174q27 -80 84 -139q53 -55 133 -94q82 -33 176 -33q98 0 179 35q78 33 135 96q49 55 82 139q27 86 26 170q0 92 -28 174q-27 82 -84 141q-51 57 -131 93q-79 32 -179 32q-96 0 -178 -34q-78 -35 -131 -95q-57 -59 -84 -139 q-29 -82 -29 -172zM496 1645v28l303 275h53l303 -275v-28l-145 -150l-185 150l-182 -150z" />
<glyph horiz-adv-x="1327" d="M92 522q0 121 43 219q39 102 117 174q82 76 180 113q107 41 232 41q127 0 229 -39q106 -39 182 -112q76 -70 117 -173q43 -100 43 -223q0 -121 -43 -221q-41 -96 -119 -174q-86 -78 -182 -111q-100 -41 -227 -41q-129 0 -231.5 39t-180.5 111t-117 174q-43 98 -43 223z M342 1335v33l287 268h61l297 -268v-33l-139 -147l-191 153l-174 -153zM383 522q0 -135 76 -211q78 -80 205 -80q131 0 204 80q74 76 74 211q0 131 -74 211q-77 78 -204 78q-131 0 -205 -80q-76 -78 -76 -209z" />
<glyph horiz-adv-x="1447" d="M160 0v1372h620q121 0 217.5 -32.5t169.5 -94.5q70 -63 109 -147t39 -193q0 -143 -74 -250q-74 -109 -207 -163l334 -492h-373l-252 410h-276v-410h-307zM385 1645v28l303 275h53l303 -275v-28l-145 -150l-184 150l-183 -150zM467 682h291q111 0 176 55q68 55 67.5 153.5 t-63.5 153.5q-63 53 -172 54h-299v-416z" />
<glyph horiz-adv-x="1132" d="M139 0v1044h236l18 -167q47 90 139 143q90 49 224 49q98 0 186 -35q86 -33 145 -90l-169 -225q-37 33 -99 59q-61 20 -127 21q-92 0 -160 -56q-70 -53 -100 -141v-602h-293zM332 1335v33l286 268h62l297 -268v-33l-139 -147l-191 153l-174 -153z" />
<glyph horiz-adv-x="1562" d="M160 604v768h309v-764q0 -166 80 -264q78 -96 231 -96q158 0 234 92q78 90 78 264v768h309v-762q0 -147 -41 -262q-37 -115 -119 -201q-74 -80 -192 -131q-123 -45 -269 -45q-154 0 -264 45q-119 45 -197 127q-80 82 -118 199q-41 119 -41 262zM451 1645v28l303 275h53 l303 -275v-28l-145 -150l-185 150l-182 -150z" />
<glyph horiz-adv-x="1314" d="M139 438v606h293v-581q0 -231 193 -232q90 0 157 56q68 57 101 157v600h293v-1044h-234l-20 168q-45 -90 -136 -143q-90 -49 -204 -50q-211 0 -328 117q-115 119 -115 346zM336 1335v33l287 268h61l297 -268v-33l-139 -147l-191 153l-174 -153z" />
<glyph horiz-adv-x="2355" d="M113 709q0 47 22 77q18 37 53 66q33 25 62 41q39 16 72 16h30q10 -2 31 -2q18 0 31 17l32 41q8 0 11 -7v-704q0 -6 -1 -19.5t-1 -21.5q-10 -39 -13 -41l4 -2q31 43 39 84q10 49 13 96l-2 72v588q0 12 6 18l39 45q4 4 8 4q8 0 8 -10v-141q0 -18 16 -19l144 11 q10 -4 16 -17q8 -8 8 -20q0 -4 -2 -7q-12 -12 -26 -12h-4l-134 4q-16 0 -16 -18v-455q0 -84 -24 -164q-23 -82 -99 -135l-88 -61q-37 -27 -69 -33q-29 -10 -76 -10q-2 0 -10.5 1t-14.5 1q-23 8 -26 12q-6 2 -25 16q-8 16 -8 29q8 18 24 33q16 18 33 18q29 0 57 -20 q23 -20 62 -21q41 0 67 37q16 25 27 72q4 33 8 90v18q0 39 -2 56q-2 18 -2 49v459q0 12 -6 14q-8 4 -10 6q-23 8 -58 8q-55 0 -92 -37q-35 -35 -34 -96q0 -74 36 -117q27 -27 54 -36q25 -14 71 -19l2 -10q-31 -14 -53 -16q-23 -6 -53 -7q-57 14 -98 66q-39 47 -39 113z M760 561q0 49 31 74q29 29 79 29q43 0 74 -19l-16 -29q-27 14 -58 15q-35 0 -53 -21q-18 -18 -18 -49q0 -29 18.5 -47t52.5 -18q20 0 39 6v43l-45 4v29h82v-101q-14 -8 -39 -14q-8 0 -21.5 -1t-19.5 -1q-49 0 -75 26q-31 29 -31 74zM1016 463v199h39v-164h86v-35h-125z M1208 463v199h123v-35h-84v-45h82v-35h-82v-49h92v-35h-131zM1401 463v199h31l122 -138v138h37v-199h-32l-121 139v-139h-37zM1642 432q41 4 41 43v187h39v-189q0 -27 -18 -49.5t-55 -24.5zM1782 463l88 201h31l88 -201h-43l-62 147l-61 -147h-41zM2042 463v199h31l122 -138 v138h37v-199h-32l-121 139v-139h-37z" />
<glyph horiz-adv-x="2154" d="M76 784v248l155 10v66q0 84 31 162q33 76 94 133q57 55 152 92q92 33 203 33q117 0 211 -27q100 -31 172 -76q63 55 163 91q94 31 220 30q164 0 292.5 -39t243.5 -110v-1397h-291v1239q-53 25 -112 33q-68 10 -133 10q-121 0 -179 -51q-59 -53 -59 -137v-50h303v-260 h-303v-784h-293v784h-422v-784h-293v784h-155zM524 1044h422v66q0 49 12 96q-90 55 -221 56q-106 0 -159 -41q-53 -43 -54 -119v-58z" />
<glyph horiz-adv-x="2091" d="M76 784v248l155 10v66q0 84 31 162q33 76 94 133q57 55 152 92q92 33 203 33q109 0 200 -25q88 -23 168 -71q57 51 158 92q102 33 221 32q160 0 279 -38q127 -39 231 -113l-131 -223q-164 109 -381 108q-102 0 -158 -49q-59 -45 -59 -131v-66h711v-1044h-295v784h-416 v-784h-293v784h-422v-784h-293v784h-155zM524 1044h422v68q0 35 2 51q4 33 8 47q-84 51 -219 52q-106 0 -159 -41q-53 -43 -54 -119v-58z" />
<glyph horiz-adv-x="2091" d="M76 784v248l155 10v66q0 84 31 162q33 76 94 133q57 55 152 92q92 33 203 33q109 0 200 -25q88 -23 168 -71q57 51 158 92q102 33 221 32q160 0 279 -38q127 -39 231 -113l-131 -223q-164 109 -381 108q-102 0 -158 -49q-59 -45 -59 -131v-66h711v-1087q0 -104 -29 -178 q-23 -74 -80 -139q-47 -53 -129 -91q-80 -31 -178 -30q-92 0 -166 18.5t-147 59.5l100 237q49 -27 92 -35q51 -10 98 -10q63 0 104.5 41t41.5 127v827h-418v-784h-293v784h-422v-784h-293v784h-155zM524 1044h422v68q0 35 2 51q4 33 8 47q-84 51 -219 52q-106 0 -159 -41 q-53 -43 -54 -119v-58z" />
<glyph horiz-adv-x="1374" d="M49 176v213h158v100h-158v242h158v604h588q117 0 209 -30q96 -33 155 -88q66 -53 100.5 -135.5t34.5 -176.5q0 -193 -135 -303q-131 -113 -371 -113h-280v-100h362v-229h-364v-160h-297v164zM508 731h283q98 0 151 45q51 47 51 121t-51 119q-47 45 -147 45h-287v-330z " />
<glyph horiz-adv-x="1359" d="M102 406q0 104 45 192q43 88 129 145q-23 61 -22 127q0 72 29 129q23 59 82 111q57 49 131 74q72 29 178 28q137 0 244 -47q104 -43 186 -125l-162 -180q-49 49 -115 82q-61 29 -145 29t-123 -37q-41 -37 -41 -88q0 -74 43 -117l350 -352q82 125 82 317h271 q0 -160 -47 -280q-41 -121 -125 -221l131 -130l-195 -180l-145 152q-129 -63 -285 -64q-121 0 -211 33q-88 33 -156 90q-63 59 -96 139q-33 74 -33 173zM365 424q0 -92 69 -150q66 -57 174 -57q51 0 94 12l-303 320q-35 -53 -34 -125z" />
<glyph horiz-adv-x="1859" d="M139 0v1085q0 217 123 328q123 115 342 115q100 0 191 -23q80 -18 161 -63q70 55 154 82q86 31 195 30q121 0 227 -30q106 -27 194 -90l-133 -217q-61 35 -127 53q-68 20 -149 20q-96 0 -156 -49q-57 -49 -57 -145v-1096h-291v1114q0 55 12 105q-45 25 -88 34 q-47 10 -102 11q-94 0 -152 -47q-53 -49 -53 -146v-1071h-291zM1423 0v1044h295v-1044h-295z" />
<glyph horiz-adv-x="1923" d="M139 0v1085q0 217 123 328q123 115 342 115q104 0 193 -25q84 -20 164 -63q70 55 149 82q92 29 199 28q145 0 262 -39q119 -37 213 -114v-1397h-293v1249q-80 35 -176 35t-153.5 -51t-57.5 -146v-1087h-291v1104q0 68 14 113q-43 23 -86 34q-49 12 -106 13 q-94 0 -152 -47q-53 -49 -53 -146v-1071h-291z" />
<glyph horiz-adv-x="575" d="M106 1391q0 84 56 129q57 47 125 47q70 0 127 -47q53 -47 53 -129q0 -80 -53 -129q-57 -47 -127 -48q-33 0 -68 13q-31 10 -57 35q-29 29 -39 57q-16 27 -17 72zM139 0v1044h295v-1044h-295z" />
<glyph horiz-adv-x="505" d="M23 1350l253 190l148 -8v-713h-223v412l-97 -43z" />
<glyph horiz-adv-x="712" d="M29 1425q74 63 151 91q80 31 168 30q139 0 223 -67q82 -63 82 -172q0 -74 -35 -131q-37 -53 -104 -95l-108 -65h245v-197h-598v172l295 183q47 29 66 55q23 23 22 59q0 31 -26 49q-25 18 -76 19q-57 0 -105 -21q-49 -18 -96 -53z" />
<glyph horiz-adv-x="704" d="M37 909l90 154q47 -27 111 -47q55 -12 114 -12q49 0 74 16q25 12 25 37q0 37 -52 37h-182v176h166q47 0 47 35q0 23 -18 30q-18 12 -62 13q-59 0 -104 -12.5t-86 -37.5l-105 138q127 111 303 110q141 0 215 -61.5t74 -155.5q0 -41 -14 -72q-16 -35 -47 -55 q92 -47 92 -155q0 -102 -80 -170q-76 -70 -244 -70q-92 0 -172 22q-74 20 -145 80z" />
<glyph horiz-adv-x="1284" d="M86 373q0 102 45 184q41 80 127 131q-6 12 -20 57q-6 31 -7 66q0 66 27 121q25 57 76 100q53 43 125 68q74 25 172 24q131 0 229 -39q106 -43 174 -106l-153 -195q-102 96 -242 97q-70 0 -102 -29q-33 -27 -33 -70q0 -57 37 -96l317 -319q66 109 66 272h266 q0 -133 -39 -254q-45 -119 -115 -201l115 -114l-193 -185l-131 140q-123 -57 -266 -58q-225 0 -352 111q-123 106 -123 295zM354 397q0 -78 58 -133q59 -55 157 -55q29 0 41 2q29 4 43 8l-266 285q-16 -20 -27 -49q-6 -29 -6 -58z" />
<glyph horiz-adv-x="1538" d="M121 459q0 129 51 229q53 100 145 160q-20 55 -20 135q0 78 31 147q29 72 86 119q57 53 143 82q82 31 197 31q147 0 266 -49t197 -133l-173 -197q-55 53 -122 86q-63 33 -158 33q-90 0 -137 -41q-43 -41 -43 -100q0 -35 10 -76q12 -41 39 -74l241 -297q74 -90 130 -139 q68 78 94 178q29 100 32 233h283q0 -168 -49 -313q-47 -145 -139 -254q86 -43 180 -43l-31 -270q-104 2 -207 33q-96 27 -192 92q-143 -59 -309 -60q-133 0 -236 37q-98 37 -170 102.5t-104 155.5q-35 88 -35 193zM401 492q0 -113 74 -187q70 -74 205 -74q41 0 72 7 q-6 6 -18.5 19t-20.5 22q-20 23 -35 47l-236 311q-41 -66 -41 -145z" />
<glyph horiz-adv-x="1486" d="M123 459q0 115 47 215q45 96 145 162q-27 61 -26 147q0 78 30 147q31 70 91 119q57 53 147 82q86 31 199 31q145 0 264 -47q113 -45 199 -133l-168 -197q-57 57 -129 88q-68 31 -160 31q-90 0 -139 -43q-45 -45 -45 -103q0 -80 53 -133l426 -415q33 68 33 145 q0 49 -17 104q-20 59 -51 97l238 139q51 -66 83 -158q27 -90 27 -174q0 -111 -33 -201q-35 -92 -92 -165q72 -109 72 -232q0 -178 -121 -280q-115 -109 -342 -113l-25 242q96 2 142 43q49 41 49 104q0 29 -16 68q-129 -57 -299 -58q-147 0 -254 37q-109 37 -181 103 q-74 66 -110 155q-37 86 -37 193zM403 492q0 -111 76 -187q80 -74 230 -74q74 0 118 15l-372 387q-20 -27 -37 -66q-14 -35 -15 -75z" />
<glyph horiz-adv-x="1488" d="M123 459q0 115 49 217q47 100 141 158q-25 72 -24 145q0 78 30 147q29 63 91 123q63 53 147 82q86 31 199 31q152 0 264 -47q113 -43 201 -131l-172 -201q-55 53 -123 86q-66 33 -164 33q-88 0 -139 -41q-45 -45 -45 -103q0 -80 51 -133l125 -131q29 78 104 133 q78 53 191 54q78 0 139 -25q63 -25 106 -70q43 -41 70 -102q23 -63 22 -133q0 -96 -43 -191q-39 -94 -114 -172l117 -122l-216 -193l-141 156q-57 -23 -141 -41q-68 -16 -160 -17q-141 0 -246 37q-106 37 -176 103q-74 63 -106 155q-37 86 -37 193zM403 492q0 -113 74 -187 t215 -74q57 0 107 13l-348 383q-47 -53 -48 -135zM938 530q0 -43 20 -84q21 -40 68 -79q86 76 86 174q0 39 -22 65q-25 27 -62 27q-41 0 -65 -29q-25 -27 -25 -74z" />
<glyph horiz-adv-x="1456" d="M4 1067q119 131 283 197q164 63 362 63q147 0 273 -53q123 -53 213 -146q20 51 36 121q16 72 23 135l260 -41q-39 -293 -160 -493q10 -37 21 -100q6 -59 6 -115q0 -145 -51 -270q-55 -125 -144 -209q-90 -86 -211 -133q-123 -47 -260 -48q-129 0 -221 39q-98 39 -166 105 q-68 70 -102 157q-35 92 -35 195q0 106 37 193q35 84 98 155q72 68 150 99q86 37 184 36q129 0 211 -61t98 -166q33 33 54 64q27 31 43 71q-43 90 -146 154q-102 57 -235 57q-141 0 -258 -51q-121 -53 -203 -137zM379 504q0 -23 10 -58q141 37 213 95q74 55 74 114 q0 29 -21 47q-20 18 -55 19q-51 0 -84 -16q-33 -8 -72 -41q-33 -33 -47 -70q-18 -41 -18 -90zM475 279q66 -61 174 -62q80 0 150 25q72 27 131 73q57 49 94 119q35 68 45 160q-125 -125 -270 -201q-156 -80 -324 -114z" />
<glyph horiz-adv-x="1562" d="M123 455q0 117 53 219q51 100 150 160q-16 39 -23 71q-8 33 -8 78q0 82 29 147q25 68 82 119q51 55 131 82q74 31 174 31q90 0 166 -29q70 -27 127 -80q55 -55 79 -118q29 -70 29 -148q0 -125 -63 -231q-63 -111 -168 -195l149 -153q135 150 180 378l275 -67 q-33 -152 -101 -287q-63 -127 -157 -227l137 -142l-215 -192l-152 168q-135 -68 -319 -68q-135 0 -240 37q-109 39 -172 103q-72 59 -106 151q-37 88 -37 193zM406 489q0 -117 75 -186q78 -72 211 -72q59 0 115 19l-346 383q-55 -61 -55 -144zM573 967q0 -90 64 -156l61 -66 q61 49 96 108.5t35 123.5q0 61 -34 92q-33 35 -90 35q-63 0 -99 -39q-33 -41 -33 -98z" />
</font>
</defs>
</svg>
