<?xml version="1.0" encoding="UTF-8"?>
<svg width="16px" height="16px" viewBox="0 0 16 16" version="1.1" xmlns="http://www.w3.org/2000/svg" xmlns:xlink="http://www.w3.org/1999/xlink">
    <!-- Generator: Sketch 53 (72520) - https://sketchapp.com -->
    <title>Icon / Reader / Four</title>
    <desc>Created with Sketch.</desc>
    <g id="Profile" stroke="none" stroke-width="1" fill="none" fill-rule="evenodd">
        <g id="Profile-/-04-Help-Copy-2" transform="translate(-1418.000000, -1052.000000)" fill="#B4BAC1">
            <g id="Icon-/-Reader-/-Four" transform="translate(1418.000000, 1052.000000)">
                <path d="M2,0 L5,0 C6.1045695,-2.02906125e-16 7,0.8954305 7,2 L7,5 C7,6.1045695 6.1045695,7 5,7 L2,7 C0.8954305,7 1.3527075e-16,6.1045695 0,5 L0,2 C-1.3527075e-16,0.8954305 0.8954305,2.02906125e-16 2,0 Z M3,2 C2.44771525,2 2,2.44771525 2,3 L2,4 C2,4.55228475 2.44771525,5 3,5 L4,5 C4.55228475,5 5,4.55228475 5,4 L5,3 C5,2.44771525 4.55228475,2 4,2 L3,2 Z" id="Combined-Shape"></path>
                <path d="M2,9 L5,9 C6.1045695,9 7,9.8954305 7,11 L7,14 C7,15.1045695 6.1045695,16 5,16 L2,16 C0.8954305,16 1.3527075e-16,15.1045695 0,14 L0,11 C-1.3527075e-16,9.8954305 0.8954305,9 2,9 Z M3,11 C2.44771525,11 2,11.4477153 2,12 L2,13 C2,13.5522847 2.44771525,14 3,14 L4,14 C4.55228475,14 5,13.5522847 5,13 L5,12 C5,11.4477153 4.55228475,11 4,11 L3,11 Z" id="Combined-Shape"></path>
                <path d="M11,0 L14,0 C15.1045695,-2.02906125e-16 16,0.8954305 16,2 L16,5 C16,6.1045695 15.1045695,7 14,7 L11,7 C9.8954305,7 9,6.1045695 9,5 L9,2 C9,0.8954305 9.8954305,2.02906125e-16 11,0 Z M12,2 C11.4477153,2 11,2.44771525 11,3 L11,4 C11,4.55228475 11.4477153,5 12,5 L13,5 C13.5522847,5 14,4.55228475 14,4 L14,3 C14,2.44771525 13.5522847,2 13,2 L12,2 Z" id="Combined-Shape"></path>
                <path d="M11,9 L14,9 C15.1045695,9 16,9.8954305 16,11 L16,14 C16,15.1045695 15.1045695,16 14,16 L11,16 C9.8954305,16 9,15.1045695 9,14 L9,11 C9,9.8954305 9.8954305,9 11,9 Z M12,11 C11.4477153,11 11,11.4477153 11,12 L11,13 C11,13.5522847 11.4477153,14 12,14 L13,14 C13.5522847,14 14,13.5522847 14,13 L14,12 C14,11.4477153 13.5522847,11 13,11 L12,11 Z" id="Combined-Shape"></path>
            </g>
        </g>
    </g>
</svg>