<?xml version="1.0" encoding="UTF-8"?>
<svg width="24px" height="24px" viewBox="0 0 24 24" version="1.1" xmlns="http://www.w3.org/2000/svg" xmlns:xlink="http://www.w3.org/1999/xlink">
    <!-- Generator: Sketch 53 (72520) - https://sketchapp.com -->
    <title>Icon / Reader / HQ</title>
    <desc>Created with Sketch.</desc>
    <g id="Icon-/-Reader-/-HQ" stroke="none" stroke-width="1" fill="none" fill-rule="evenodd">
        <path d="M11.2532635,16 L9.44271662,16 L9.44271662,12.3027344 L6.05013849,12.3027344 L6.05013849,16 L4.23373224,16 L4.23373224,7.43359375 L6.05013849,7.43359375 L6.05013849,10.7910156 L9.44271662,10.7910156 L9.44271662,7.43359375 L11.2532635,7.43359375 L11.2532635,16 Z M21.1689453,11.7050781 C21.1689453,12.7128957 20.9902362,13.5576138 20.6328125,14.2392578 C20.2753888,14.9209018 19.75098,15.4199203 19.0595703,15.7363281 L21.1220703,18.0390625 L18.7958984,18.0390625 L17.2255859,16.1171875 L17.0908203,16.1171875 C15.7783137,16.1171875 14.7705113,15.7363319 14.0673828,14.9746094 C13.3642543,14.2128868 13.0126953,13.1191478 13.0126953,11.6933594 C13.0126953,10.267571 13.3652308,9.1787147 14.0703125,8.42675781 C14.7753942,7.67480093 15.7861262,7.29882812 17.1025391,7.29882812 C18.4189519,7.29882812 19.4257778,7.67773059 20.1230469,8.43554688 C20.820316,9.19336316 21.1689453,10.283196 21.1689453,11.7050781 Z M14.9169922,11.7050781 C14.9169922,12.6621142 15.098631,13.3828101 15.4619141,13.8671875 C15.8251971,14.3515649 16.3681604,14.59375 17.0908203,14.59375 C18.5400463,14.59375 19.2646484,13.630869 19.2646484,11.7050781 C19.2646484,9.77538098 18.5439525,8.81054688 17.1025391,8.81054688 C16.3798792,8.81054688 15.8349628,9.05370851 15.4677734,9.54003906 C15.1005841,10.0263696 14.9169922,10.7480421 14.9169922,11.7050781 Z" id="HQ" fill="#B4BAC1" fill-rule="nonzero"></path>
    </g>
</svg>