<?xml version="1.0" encoding="UTF-8"?>
<svg width="24px" height="24px" viewBox="0 0 24 24" version="1.1" xmlns="http://www.w3.org/2000/svg" xmlns:xlink="http://www.w3.org/1999/xlink">
    <!-- Generator: Sketch 53 (72520) - https://sketchapp.com -->
    <title>Icon / Reader / Info</title>
    <desc>Created with Sketch.</desc>
    <g id="Icon-/-Reader-/-Info" stroke="none" stroke-width="1" fill="none" fill-rule="evenodd">
        <path d="M9,2 L15,2 C18.8659932,2 22,5.13400675 22,9 L22,15 C22,18.8659932 18.8659932,22 15,22 L9,22 C5.13400675,22 2,18.8659932 2,15 L2,9 C2,5.13400675 5.13400675,2 9,2 Z M11,6 L13,6 L13,8 L11,8 L11,6 Z M11,12 L10,12 L10,10 L11,10 L13,10 L13,16 L14,16 L14,18 L10,18 L10,16 L11,16 L11,12 Z" id="Combined-Shape" fill="#B4BAC1"></path>
    </g>
</svg>