<?xml version="1.0" encoding="UTF-8"?>
<svg width="25px" height="16px" viewBox="0 0 25 16" version="1.1" xmlns="http://www.w3.org/2000/svg" xmlns:xlink="http://www.w3.org/1999/xlink">
    <!-- Generator: Sketch 53 (72520) - https://sketchapp.com -->
    <title>Icon / Reader / Two</title>
    <desc>Created with Sketch.</desc>
    <g id="Profile" stroke="none" stroke-width="1" fill="none" fill-rule="evenodd">
        <g id="Profile-/-04-Help-Copy-2" transform="translate(-1381.000000, -1052.000000)" fill="#B4BAC1">
            <g id="Icon-/-Reader-/-Two" transform="translate(1381.000000, 1052.000000)">
                <path d="M2,0 L10,0 C11.1045695,-2.02906125e-16 12,0.8954305 12,2 L12,14 C12,15.1045695 11.1045695,16 10,16 L2,16 C0.8954305,16 1.3527075e-16,15.1045695 0,14 L0,2 C-1.3527075e-16,0.8954305 0.8954305,2.02906125e-16 2,0 Z M3,2 C2.44771525,2 2,2.44771525 2,3 L2,13 C2,13.5522847 2.44771525,14 3,14 L9,14 C9.55228475,14 10,13.5522847 10,13 L10,3 C10,2.44771525 9.55228475,2 9,2 L3,2 Z" id="Combined-Shape"></path>
                <path d="M15,0 L23,0 C24.1045695,-2.02906125e-16 25,0.8954305 25,2 L25,14 C25,15.1045695 24.1045695,16 23,16 L15,16 C13.8954305,16 13,15.1045695 13,14 L13,2 C13,0.8954305 13.8954305,2.02906125e-16 15,0 Z M16,2 C15.4477153,2 15,2.44771525 15,3 L15,13 C15,13.5522847 15.4477153,14 16,14 L22,14 C22.5522847,14 23,13.5522847 23,13 L23,3 C23,2.44771525 22.5522847,2 22,2 L16,2 Z" id="Combined-Shape"></path>
            </g>
        </g>
    </g>
</svg>